<?xml version="1.0" encoding="UTF-8"?>
<svg width="358px" height="234px" viewBox="0 0 358 234" version="1.1" xmlns="http://www.w3.org/2000/svg" xmlns:xlink="http://www.w3.org/1999/xlink">
    <title>4744324D-814E-44D6-A0E2-83916CE3B29D@1.5x</title>
    <g id="Client-Onboarding-Invision" stroke="none" stroke-width="1" fill="none" fill-rule="evenodd">
        <g id="Client-Onboarding-Copy" transform="translate(-308.000000, -309.000000)" fill-rule="nonzero">
            <g id="undraw_website_builder_bxki" transform="translate(308.000000, 309.000000)">
                <path d="M325.376568,128.496793 C322.506808,136.850229 318.937993,144.953442 314.707058,152.722571 C314.473729,153.148381 314.236865,153.57419 314,154 L314,67.8189153 C314.236865,67.1069057 314.473729,66.3983863 314.707058,65.6863593 C324.220563,36.8639485 331.287607,10.1775317 328.950748,0 C329.636566,2.5618385 346.560035,67.2569862 325.376568,128.496793 Z" id="Path" fill="#E6E6E6"></path>
                <path d="M358,88 C357.732391,89.6185323 349.447358,137.180359 314.723268,165.417468 C314.484589,165.616296 314.242295,165.808148 314,166 L314,140.298824 C314.238678,140.061625 314.480973,139.824426 314.723268,139.58374 C318.281746,136.060641 321.974028,132.352668 325.63738,128.592371 C341.343159,112.452395 356.481138,95.3566477 358,88 Z" id="Path" fill="#E6E6E6"></path>
                <ellipse id="Oval" fill="#E6E6E6" cx="40" cy="230.5" rx="40" ry="3.5"></ellipse>
                <path d="M312.855644,42 L87.1443556,42 C86.5755889,42 86.0300722,42.2198245 85.6278934,42.6115083 C85.2257146,43.0031921 85,43.5344734 85,44.0883979 L85,165.911602 C85,166.465527 85.2257146,166.996808 85.6278934,167.388492 C86.0300722,167.780176 86.5755889,168 87.1443556,168 L312.855644,168 C313.424411,168 313.969928,167.780176 314.372107,167.388492 C314.774285,166.996808 315,166.465527 315,165.911602 L315,44.0883979 C315,43.5344734 314.774285,43.0031921 314.372107,42.6115083 C313.969928,42.2198245 313.424411,42 312.855644,42 Z M314.285215,165.911602 C314.285215,166.280885 314.134738,166.635072 313.866618,166.896195 C313.598499,167.157317 313.234822,167.303868 312.855644,167.303868 L87.1443556,167.303868 C86.7651783,167.303868 86.4015014,167.157316 86.1333826,166.896194 C85.8652637,166.635071 85.7147852,166.280885 85.7147852,165.911602 L85.7147852,44.0883979 C85.7147852,43.7191142 85.8652587,43.3649255 86.1333784,43.1038025 C86.4014981,42.8426795 86.7651771,42.6961326 87.1443556,42.6961326 L312.855644,42.6961326 C313.234823,42.6961326 313.598502,42.8426795 313.866622,43.1038025 C314.134741,43.3649255 314.285215,43.7191142 314.285215,44.0883979 L314.285215,165.911602 Z" id="Shape" fill="#E6E6E6"></path>
                <rect id="Rectangle" fill="#E6E6E6" x="107" y="42" width="1" height="126"></rect>
                <path d="M90,52.5000985 C90,49.8711317 91.5836491,47.5010292 94.0124974,46.4949665 C96.4413458,45.4889038 99.2370717,46.0450078 101.096032,47.9039681 C102.954992,49.7629283 103.511096,52.5586542 102.505034,54.9875026 C101.498971,57.4163509 99.1288683,59 96.4999015,59 C92.9117846,58.9959483 90.0040517,56.0882154 90,52.5000985 L90,52.5000985 Z" id="Path" fill="#6C63FF"></path>
                <path d="M90,78.5000985 C90,75.8711317 91.5836491,73.5010292 94.0124974,72.4949665 C96.4413458,71.4889038 99.2370717,72.0450078 101.096032,73.9039681 C102.954992,75.7629283 103.511096,78.5586542 102.505034,80.9875026 C101.498971,83.4163509 99.1288683,85 96.4999015,85 C92.9117846,84.9959483 90.0040517,82.0882154 90,78.5000985 L90,78.5000985 Z" id="Path" fill="#6C63FF"></path>
                <path d="M90,103.500098 C90,100.871132 91.5836491,98.5010292 94.0124974,97.4949665 C96.4413458,96.4889038 99.2370717,97.0450078 101.096032,98.9039681 C102.954992,100.762928 103.511096,103.558654 102.505034,105.987503 C101.498971,108.416351 99.1288683,110 96.4999015,110 C92.9117846,109.995948 90.0040517,107.088215 90,103.500098 L90,103.500098 Z" id="Path" fill="#6C63FF"></path>
                <path d="M93.6999982,52.4014007 L95.7999811,52.4014007 L95.7999811,50.6014049 C95.7993972,50.3867107 95.93269,50.1881107 96.149513,50.0806189 C96.3663359,49.973127 96.6336415,49.973127 96.8504644,50.0806189 C97.0672874,50.1881107 97.2005802,50.3867107 97.1999963,50.6014049 L97.1999963,52.4014007 L99.300002,52.4014007 C99.6866002,52.4014007 100,52.6700283 100,53.0013971 C100,53.3327659 99.6866002,53.6013934 99.300002,53.6013935 L97.1999963,53.6013935 L97.1999963,55.4013925 C97.1990966,55.7322198 96.8859562,56 96.4999887,56 C96.1140212,56 95.8008808,55.7322198 95.7999811,55.4013925 L95.7999811,53.601387 L93.6999982,53.601387 C93.449913,53.601387 93.2188246,53.4870283 93.093782,53.3013888 C92.9687393,53.1157492 92.9687393,52.8870319 93.093782,52.7013923 C93.2188246,52.5157528 93.449913,52.4013941 93.6999982,52.4013941 L93.6999982,52.4014007 Z" id="Path" fill="#FFFFFF"></path>
                <path d="M95,80 L100.977662,80 C100.985147,80.0000883 100.992624,79.9994963 101,79.9982208 L98.1728407,75.1004867 C98.1377109,75.0383895 98.071891,75 98.0005531,75 C97.9292152,75 97.8633952,75.0383895 97.8282654,75.1004867 L95.9308872,78.3872472 L95.8399867,78.5445203 L95,80 Z" id="Path" fill="#FFFFFF"></path>
                <polygon id="Path" fill="#000000" opacity="0.2" points="95 80 97 80 96.0180045 79.0975552 95.9474869 79.0325184 95.9122281 79 95.8229557 79.0975552"></polygon>
                <path d="M92,80 L97,80 L96.031099,78.772321 L95.9613728,78.6838831 L94.6988051,77.0839827 C94.6536564,77.0345523 94.5865706,77.0041696 94.5142474,77.0003977 C94.4419242,76.9966258 94.3711665,77.0198196 94.319588,77.0642054 C94.3130507,77.0704534 94.3069777,77.0770593 94.3014059,77.0839827 L92,80 Z" id="Path" fill="#FFFFFF"></path>
                <circle id="Oval" fill="#FFFFFF" cx="96" cy="76" r="1"></circle>
                <polygon id="Rectangle" fill="#E6E6E6" transform="translate(172.406537, 90.749493) rotate(-39.332390) translate(-172.406537, -90.749493) " points="120.977402 89.7915182 223.827649 91.0602632 223.835672 91.7074679 120.985425 90.4387229"></polygon>
                <polygon id="Rectangle" fill="#E6E6E6" transform="translate(172.406536, 90.909670) rotate(-50.509750) translate(-172.406536, -90.909670) " points="171.4466 39.3808128 172.093796 39.3888444 173.366472 142.438526 172.719276 142.430495"></polygon>
                <path d="M211.694454,58 L133.305546,58 C132.032841,58.0014438 131.001482,58.9998514 131,60.231889 L131,121.768114 C131.001537,123.00013 132.032864,123.998506 133.305546,124 L211.694454,124 C212.967159,123.99856 213.998518,123.000152 214,121.768114 L214,60.2318856 C213.998573,58.9998258 212.967182,58.0013869 211.694454,58 L211.694454,58 Z M133.305546,123.362323 C132.396474,123.361283 131.659794,122.648139 131.658726,121.768114 L131.658726,60.2318856 C131.659792,59.3518605 132.396473,58.6387152 133.305546,58.6376766 L211.694454,58.6376766 C212.603528,58.6387133 213.340209,59.3518597 213.341274,60.2318856 L213.341274,121.768114 C213.340208,122.648139 212.603527,123.361285 211.694454,123.362323 L133.305546,123.362323 Z" id="Shape" fill="#E6E6E6"></path>
                <g id="b7202e77-47b3-4d88-8d2a-2206841e46b2" transform="translate(225.000000, 92.000000)" fill="#E6E6E6">
                    <path d="M1.503348,0.229545 C0.832484757,0.241716 0.297577946,0.853026 0.308427435,1.594926 C0.319343676,2.319657 0.848010811,2.904297 1.503348,2.916198 L64.6299078,2.916198 C65.300771,2.928366 65.8535228,2.336829 65.8647176,1.594926 C65.8755775,0.853023 65.340635,0.241716 64.6697968,0.229545 C64.6564992,0.229295 64.6432029,0.229295 64.6299078,0.229545 L1.503348,0.229545 Z" id="Path"></path>
                </g>
                <path d="M226.20639,83.000206 C225.529087,83.0137946 224.989046,83.6963086 225,84.5246267 C225.011021,85.3337727 225.544762,85.9865102 226.20639,85.999794 L260.753342,85.999794 C261.430641,86.0133827 261.988701,85.3529415 262,84.5246267 C262.010961,83.6963119 261.470891,83.0137946 260.79361,83.000206 C260.780185,82.9999313 260.766762,82.9999313 260.753342,83.000206 L226.20639,83.000206 Z" id="bfc1215b-6465-4563-8feb-7e589d2c97b6" fill="#6C63FF"></path>
                <g id="e482ad8c-5b59-4aa3-8d0a-acebf632571d" transform="translate(225.000000, 102.000000)" fill="#E6E6E6">
                    <path d="M1.503348,0.283242 C0.832484757,0.29541 0.297577946,0.90672 0.308427435,1.648623 C0.319343676,2.373354 0.848010811,2.957994 1.503348,2.969892 L64.6299078,2.969892 C65.300771,2.982063 65.8535228,2.390523 65.8647176,1.648623 C65.8755775,0.906723 65.340635,0.29541 64.6697968,0.283242 C64.6564992,0.282992 64.6432029,0.282992 64.6299078,0.283242 L1.503348,0.283242 Z" id="Path"></path>
                </g>
                <g id="a4240805-a668-4077-939e-34c0ef9642f4" transform="translate(225.000000, 111.000000)" fill="#E6E6E6">
                    <path d="M1.503348,0.2055 C0.832484757,0.217668 0.297577946,0.828978 0.308427435,1.570881 C0.319343676,2.295612 0.848010811,2.880252 1.503348,2.89215 L64.6299078,2.89215 C65.300771,2.904321 65.8535228,2.312781 65.8647176,1.570881 C65.8755775,0.828981 65.340635,0.217668 64.6697968,0.2055 C64.6564992,0.20525 64.6432029,0.20525 64.6299078,0.2055 L1.503348,0.2055 Z" id="Path"></path>
                </g>
                <g id="ecd3311d-200b-4df1-9e16-2b2cfcf2d576" transform="translate(225.000000, 121.000000)" fill="#E6E6E6">
                    <path d="M1.503348,0.259182 C0.832484757,0.271353 0.297577946,0.882663 0.308427435,1.624563 C0.319343676,2.349297 0.848010811,2.933934 1.503348,2.945835 L64.6299078,2.945835 C65.300771,2.958003 65.8535228,2.366466 65.8647176,1.624563 C65.8755775,0.88266 65.340635,0.271353 64.6697968,0.259182 C64.6564992,0.258932 64.6432029,0.258932 64.6299078,0.259182 L1.503348,0.259182 Z" id="Path"></path>
                </g>
                <g id="b12ed9b2-cc32-4c4f-a9d5-2d1deb4d0e3e" transform="translate(130.000000, 130.000000)" fill="#E6E6E6">
                    <path d="M1.24412774,0.1398 C0.57016115,0.151971 0.0327799115,0.763281 0.0436795897,1.505181 C0.0546463274,2.229912 0.585759027,2.814552 1.24412774,2.82645 L160.715802,2.82645 C161.389769,2.838621 161.945078,2.247081 161.956324,1.505181 C161.967234,0.763281 161.429817,0.151971 160.755876,0.1398 C160.742517,0.139552 160.729159,0.139552 160.715802,0.1398 L1.24412774,0.1398 Z" id="Path"></path>
                </g>
                <g id="e10bb4bc-6df1-41b6-ac46-84090840b498" transform="translate(130.000000, 140.000000)" fill="#E6E6E6">
                    <path d="M1.24412774,0.193482 C0.57016115,0.205653 0.0327799115,0.816963 0.0436795897,1.558863 C0.0546463274,2.283597 0.585759027,2.868237 1.24412774,2.880135 L160.715802,2.880135 C161.389769,2.892306 161.945078,2.300766 161.956324,1.558863 C161.967234,0.81696 161.429817,0.205653 160.755876,0.193482 C160.742517,0.193234 160.729159,0.193234 160.715802,0.193482 L1.24412774,0.193482 Z" id="Path"></path>
                </g>
                <g id="e3c0a870-6a35-4470-a43f-0902a465f5fb" transform="translate(130.000000, 149.000000)" fill="#E6E6E6">
                    <path d="M1.24412774,0.115731 C0.57016115,0.127899 0.0327799115,0.739209 0.0436795897,1.481112 C0.0546463274,2.205843 0.585759027,2.790483 1.24412774,2.802381 L160.715802,2.802381 C161.389769,2.814552 161.945078,2.223012 161.956324,1.481112 C161.967234,0.739212 161.429817,0.127899 160.755876,0.115731 C160.742517,0.115481 160.729159,0.115481 160.715802,0.115731 L1.24412774,0.115731 Z" id="Path"></path>
                </g>
                <path d="M64,220 L54.3460459,219.706416 L40.472,163.739228 L16.8071209,218.564832 L6,218.236186 C16.2741957,175.54351 26.6115221,132.064198 34.4276486,120 L56.1319669,126.082241 L64,220 Z" id="Path" fill="#2F2E41"></path>
                <path d="M22.0829182,231.934885 L21.4263499,231.98664 C20.7641197,232.038847 20.0986816,231.937583 19.4832864,231.690953 L6.74120799,230.203012 C5.65466978,229.767561 4.78966336,228.922483 4.33844521,227.855604 C3.88722707,226.788725 3.88718331,225.588443 4.33832368,224.521532 L7.09594019,218 L16.023339,218 L25.2454475,225.369795 C26.1103598,226.603359 26.2412502,228.198045 25.5887636,229.552541 C24.936277,230.907037 23.5996616,231.815313 22.0829182,231.934885 L22.0829182,231.934885 Z" id="Path" fill="#2F2E41"></path>
                <path d="M70.0829182,231.934885 L69.4263499,231.98664 C68.7641197,232.038847 68.0986816,231.937583 67.4832864,231.690953 L54.741208,230.203012 C53.6546698,229.767561 52.7896634,228.922483 52.3384452,227.855604 C51.8872271,226.788725 51.8871833,225.588443 52.3383237,224.521532 L55.0959402,218 L64.023339,218 L73.2454475,225.369795 C74.1103598,226.603359 74.2412502,228.198045 73.5887636,229.552541 C72.936277,230.907037 71.5996616,231.815313 70.0829182,231.934885 L70.0829182,231.934885 Z" id="Path" fill="#2F2E41"></path>
                <path d="M62.9539362,112 L46,100.769388 L53.8367823,96 L64.934465,102.902467 L82.9865241,105.613283 L85.7308681,102.878888 C86.6468373,101.966236 87.9245305,101.519106 89.206454,101.662602 C90.4883776,101.806098 91.6368562,102.524809 92.3305498,103.617643 L92.3305498,103.617643 C93.0746193,104.789841 93.2067955,106.25189 92.6851186,107.539657 C92.1634418,108.827424 91.0527108,109.780953 89.7055313,110.097541 L86.997306,110.733977 L62.9539362,112 Z" id="Path" fill="#A0616A"></path>
                <path d="M45.5684146,104 C43.6941757,100.203309 40.4321161,97.0895381 36,94.5514712 L44.7110207,86 C48.9028655,88.3137317 52.5813178,92.0158621 56,96.4207188 L45.5684146,104 Z" id="Path" fill="#E6E6E6"></path>
                <ellipse id="Oval" fill="#A0616A" cx="45" cy="66.5" rx="10" ry="9.5"></ellipse>
                <path d="M50,87 L37,83.9122787 C38.1610462,80.7601031 37.7269499,76.0253375 37,71 L50,71 C48.1070203,76.8649159 47.5680512,82.490417 50,87 Z" id="Path" fill="#A0616A"></path>
                <path d="M56.7117826,128 L33.6294815,122.736597 C31.1889551,105.787719 30.669599,88.0977968 37.9661542,82 L49.4373571,83.393936 L58.0842967,94.4450339 C58.7524682,95.2988713 59.3256632,96.2224482 59.7938126,97.1995407 C61.6529754,101.080031 61.3008525,105.617679 59.1647681,109.353948 C55.9186558,115.031789 54.9271321,121.208664 56.7117826,128 Z" id="Path" fill="#E6E6E6"></path>
                <path d="M34,117.446775 L37.843699,98 L45.2793997,103.28284 L43.1785326,115.845267 L54.7751614,129.548985 L58.3633287,131.002989 C59.5609378,131.488286 60.4676001,132.47255 60.8296354,133.680388 C61.1916706,134.888226 60.9701971,136.18992 60.2271823,137.221261 L60.2271823,137.221261 C59.4302072,138.327495 58.1289988,138.990536 56.7366287,139 C55.3442586,139.009263 54.0336762,138.363786 53.2209292,137.268377 L51.5870703,135.066274 L34,117.446775 Z" id="Path" fill="#A0616A"></path>
                <path d="M49,93.4428536 C47.3716978,97.4410957 47.2324329,101.988881 48.3485184,107 L35.7130582,106.493479 C34.5905799,101.813853 34.8948365,96.5538352 35.9211557,91 L49,93.4428536 Z" id="Path" fill="#E6E6E6"></path>
                <path d="M49.9152768,56.7476553 C49.9152768,56.7476553 38.0682132,50.3516983 32.2891443,62.031274 C26.5100754,73.7108498 28.2438084,84 28.2438084,84 L39.2240182,83.7219233 L41.8245942,81.2191593 L43.8472639,83.443843 L43.8779851,83.3959381 C46.7932631,78.7499941 48.4649892,73.4804206 48.7432849,68.0596602 C48.8353141,66.5771575 49.3662651,65.2153435 50.7821342,64.5340345 C54.8274738,62.5874415 55.6943312,62.5874415 55.6943312,62.5874415 C55.6943312,62.5874415 58.0059522,57.3038263 49.9152768,56.7476553 Z" id="Path" fill="#2F2E41"></path>
                <path d="M99.2629373,101.000194 L93.7765037,101.000194 C93.4063414,100.991821 93.083528,101.254743 93.0103776,101.624181 C92.9740992,101.841997 93.0339552,102.065018 93.1739935,102.233807 C93.3140318,102.402597 93.5200237,102.5 93.7370712,102.500072 L95.3694482,102.500072 C95.4738821,102.500072 95.5740387,102.542299 95.6478846,102.617463 C95.7217305,102.692628 95.7632167,102.794573 95.7632167,102.900873 L95.7632167,106.209628 C95.7549921,106.5864 96.0132998,106.914978 96.3762547,106.989436 C96.5902491,107.026364 96.8093576,106.96544 96.9751859,106.8229 C97.1410141,106.68036 97.2367127,106.470689 97.2367771,106.249764 L97.2367771,102.900873 C97.2367791,102.679516 97.4130763,102.500072 97.6305492,102.500072 L99.2235343,102.500072 C99.5937009,102.508437 99.9165069,102.245492 99.9896273,101.876044 C100.025896,101.658234 99.9660361,101.435224 99.8259993,101.266443 C99.6859625,101.097662 99.4799771,101.00026 99.2629373,101.000194 Z" id="Path" fill="#FFFFFF"></path>
                <circle id="Oval" fill="#FFFFFF" cx="99.5" cy="105.5" r="1"></circle>
            </g>
        </g>
    </g>
</svg>