<?xml version="1.0" encoding="UTF-8"?>
<svg width="41px" height="24px" viewBox="0 0 41 24" version="1.1" xmlns="http://www.w3.org/2000/svg" xmlns:xlink="http://www.w3.org/1999/xlink">
    <title>D8DBC182-5512-4EEF-833E-23EC6C237901</title>
    <g id="Page-2" stroke="none" stroke-width="1" fill="none" fill-rule="evenodd">
        <g id="VERIFICATION-1" transform="translate(-24.000000, -16.000000)" fill-rule="nonzero">
            <g id="Group_2" transform="translate(24.000000, 16.000000)">
                <path d="M37.0569805,6.44550993 C34.5416226,2.67162914 29.889,0.010807947 24.9241712,0.0120790147 C20.0376732,0.0120790147 15.3901556,2.59740397 12.7908833,6.44550993 L16.2600895,6.44550993 C18.6281984,4.0064106 21.6964981,2.68084768 24.9241712,2.67766887 C28.0974436,2.67766887 31.2169533,4.0064106 33.5868171,6.44550993 L37.0569805,6.44550993 Z" id="Path_1" fill="#FF0001"></path>
                <path d="M11.3576381,19.2278146 L11.2919105,19.2931391 C10.2283035,20.3810861 8.99319844,20.957245 7.72076265,20.957245 C5.06294163,20.957245 3.13546304,18.9649272 3.13546304,16.2171656 C3.13546304,13.4724238 5.06294163,11.4754967 7.72140078,11.4754967 C8.99383658,11.4754967 10.2289416,12.0516556 11.2925486,13.1424636 L11.3582763,13.2101722 L13.0716615,11.1429934 L13.0274708,11.0902252 C11.6055525,9.40672848 9.89647471,8.59263576 7.80340078,8.59263576 C5.69868093,8.59263576 3.77742412,9.29531126 2.38741245,10.5711258 C0.883653696,11.9615364 0.0910933852,13.9061722 0.0910933852,16.2171656 C0.0910933852,18.5218013 0.883653696,20.4767682 2.38741245,21.8595497 C3.77742412,23.1406093 5.69868093,23.8431258 7.80340078,23.8431258 C9.89647471,23.8431258 11.6055525,23.0229934 13.0268327,21.3485563 L13.0710233,21.2921325 L11.3576381,19.2278146 Z" id="Path_2" fill="#092869"></path>
                <polygon id="Path_3" fill="#092869" points="14.7958949 23.5619603 17.8145798 23.5619603 17.8145798 8.84280795 14.7958949 8.84280795"></polygon>
                <path d="M29.6436381,20.3583576 C28.8362412,20.8463046 28.0842023,21.0967947 27.4084202,21.0967947 C26.4312802,21.0967947 25.9971907,20.5834172 25.9971907,19.4328477 L25.9971907,11.6169536 L29.0656498,11.6169536 L29.0656498,8.84344371 L25.9971907,8.84344371 L25.9971907,4.25849007 L23.0335447,5.84153642 L23.0335447,8.84344371 L20.4810156,8.84344371 L20.4810156,11.6169536 L23.0335447,11.6169536 L23.0335447,19.9323974 C23.0335447,22.1979338 24.3784086,23.7469669 26.3837393,23.7863841 C27.742323,23.8095894 28.5656732,23.4092185 29.0589494,23.109457 L29.0898988,23.0889536 L29.8184864,20.2502781 L29.6436381,20.3583576 Z" id="Path_4" fill="#092869"></path>
                <polygon id="Path_5" fill="#092869" points="32.1398521 23.5619603 35.1580584 23.5619603 35.1580584 8.84280795 32.1398521 8.84280795"></polygon>
                <path d="M39.9925486,5.36884768 C39.9925486,5.51713907 39.8894903,5.58198675 39.7521323,5.58198675 L39.355214,5.58198675 L39.355214,5.15602649 L39.7521323,5.15602649 C39.8133641,5.1478273 39.8751419,5.16662504 39.9213271,5.20750907 C39.9675123,5.2483931 39.9935173,5.30730237 39.9925486,5.36884768 M40.2521089,5.36137748 C40.2521089,5.04969536 40.0268482,4.90871523 39.7597899,4.90871523 L39.099642,4.90871523 L39.099642,6.40688742 L39.3548949,6.40688742 L39.3548949,5.82882119 L39.6449261,5.82882119 L39.938786,6.40688742 L40.2403035,6.40688742 L39.9312879,5.80291391 C40.1307451,5.75200616 40.2654529,5.56669447 40.2517899,5.36201325 M40.778249,5.68513907 C40.778249,6.32128332 40.2606292,6.83698013 39.6221128,6.83698013 C38.9835965,6.83698013 38.4659767,6.32128332 38.4659767,5.68513907 C38.4659767,5.04899482 38.9835965,4.53329801 39.6221128,4.53329801 C39.9305535,4.52727259 40.2281483,4.64669104 40.4462907,4.86402305 C40.6644332,5.08135505 40.7842969,5.37784427 40.778249,5.68513907 M40.9996809,5.68513907 C40.9997455,5.13002027 40.6641527,4.6295263 40.1493959,4.41704699 C39.6346391,4.20456767 39.0420963,4.32194946 38.6480815,4.714455 C38.2540667,5.10696054 38.1361786,5.69728837 38.3493906,6.21015742 C38.5626026,6.72302647 39.064924,7.05743046 39.6221128,7.05743046 C39.9898022,7.06481819 40.3446226,6.92253926 40.604656,6.66344187 C40.8646894,6.40434449 41.0074578,6.05082579 41,5.68450331" id="Path_6" fill="#092869"></path>
            </g>
        </g>
    </g>
</svg>