<?xml version="1.0" encoding="UTF-8"?>
<svg width="287px" height="251px" viewBox="0 0 287 251" version="1.1" xmlns="http://www.w3.org/2000/svg" xmlns:xlink="http://www.w3.org/1999/xlink">
    <title>9DA8A26D-C42D-4EBE-B240-E84A56CFFFC8@1.5x</title>
    <g id="Client-Onboarding-Invision" stroke="none" stroke-width="1" fill="none" fill-rule="evenodd">
        <g id="Client-Onboarding-Copy" transform="translate(-877.000000, -301.000000)" fill-rule="nonzero">
            <g id="undraw_online_message_xq4c" transform="translate(877.000000, 301.000000)">
                <ellipse id="Oval" fill="#E6E6E6" cx="211.782528" cy="248.318386" rx="12.2695167" ry="1.68161435"></ellipse>
                <ellipse id="Oval" fill="#E6E6E6" cx="249.124535" cy="248.318386" rx="12.2695167" ry="1.68161435"></ellipse>
                <ellipse id="Oval" fill="#E6E6E6" cx="278.464684" cy="247.757848" rx="8.53531599" ry="1.12107623"></ellipse>
                <path d="M280.584931,240.175919 C280.525226,243.066755 280.151654,245.932276 279.475224,248.688025 C279.459764,248.751975 279.44356,248.81497 279.427362,248.878924 L275.286031,248.878924 C275.290446,248.821653 275.294871,248.757703 275.29929,248.688025 C275.575427,244.573232 277.167451,219.529422 275.263941,215.246637 C275.430361,215.594069 280.905986,227.101359 280.584931,240.175919 Z" id="Path" fill="#E6E6E6"></path>
                <path d="M280.584827,247.571301 C280.550507,247.633793 280.514726,247.696285 280.478223,247.757848 L277.39777,247.757848 C277.421134,247.704682 277.44815,247.64219 277.479544,247.571301 C277.988452,246.397936 279.494725,242.88996 280.892942,239.25327 C282.395567,235.34515 283.77407,231.288733 283.657976,229.820628 C283.693751,230.151749 284.733469,240.24569 280.584827,247.571301 Z" id="Path" fill="#E6E6E6"></path>
                <path d="M192.950469,158.071749 L2.29488411,158.071749 C1.02805825,158.06992 0,156.780839 0,155.190114 L0,2.8814605 C0,1.29076709 1.02808353,0.00174045858 2.29488411,0 L192.950469,0 C194.21727,0.00174045858 195.245353,1.29076709 195.245353,2.8814605 L195.245353,155.190102 C195.245353,156.780832 194.217298,158.06992 192.950469,158.071749 L192.950469,158.071749 Z M2.29488411,1.14018808 C1.5293435,1.14018808 0.908025894,1.92019197 0.908025894,2.8814643 L0.908025894,155.190106 C0.908025894,156.151408 1.5293196,156.931553 2.29488411,156.931553 L192.950469,156.931553 C193.716033,156.931553 194.337327,156.151408 194.337327,155.190106 L194.337327,2.8814605 C194.337327,1.92018817 193.71601,1.14018808 192.950469,1.14018808 L2.29488411,1.14018808 Z" id="Shape" fill="#E6E6E6"></path>
                <path d="M143.232703,22.4215247 L42.4104019,22.4215247 C41.3793506,22.4228369 40.5427509,23.474676 40.5427509,24.7725795 L40.5427509,133.299169 C40.5427509,134.597074 41.3793499,135.648914 42.4104019,135.650224 L143.232703,135.650224 C144.263758,135.648916 145.100372,134.597078 145.100372,133.299169 L145.100372,24.7725795 C145.100372,23.4746714 144.263758,22.4228348 143.232703,22.4215247 Z M144.351904,133.299169 C144.351904,134.077831 143.851266,134.709653 143.232703,134.712448 L42.4104019,134.712448 C41.7913308,134.711198 41.2912208,134.078466 41.2912208,133.299169 L41.2912208,24.7725795 C41.2912208,23.9932837 41.7913313,23.3605531 42.4104019,23.3593044 L143.232703,23.3593044 C143.851265,23.3621001 144.351904,23.9939191 144.351904,24.7725795 L144.351904,133.299169 Z" id="Shape" fill="#3F3D56"></path>
                <path d="M66.1486989,116.035489 C66.1486989,116.202002 66.1452591,116.368474 66.1383855,116.530582 C65.9310671,121.592144 62.6534576,125.560538 58.6802885,125.560538 C54.7071194,125.560538 51.4295099,121.592144 51.2221915,116.530582 C51.2153149,116.368474 51.2118959,116.201983 51.2118959,116.035489 C51.2102151,112.630303 52.633316,109.482864 54.944738,107.779651 C57.2561599,106.076439 60.1044349,106.076439 62.4158568,107.779651 C64.7272788,109.482864 66.1503797,112.630303 66.1486989,116.035489 L66.1486989,116.035489 Z" id="Path" fill="#6C63FF"></path>
                <path d="M135.307479,109.865471 L75.9415914,109.865471 C75.2467373,109.866903 74.6840149,110.619368 74.6840149,111.547085 C74.6840149,112.474803 75.2467373,113.227268 75.9415914,113.2287 L135.307479,113.2287 C136.002333,113.227268 136.565056,112.474803 136.565056,111.547085 C136.565056,110.619368 136.002333,109.866903 135.307479,109.865471 Z" id="Path" fill="#6C63FF"></path>
                <path d="M102.199477,118.834081 L75.9752442,118.834081 C75.2621179,118.834081 74.6840149,119.586965 74.6840149,120.515695 C74.6840149,121.444425 75.2621179,122.197309 75.9752442,122.197309 L102.199477,122.197309 C102.912603,122.197309 103.490706,121.444425 103.490706,120.515695 C103.490706,119.586965 102.912603,118.834081 102.199477,118.834081 Z" id="Path" fill="#E6E6E6"></path>
                <path d="M167.520524,98.6547085 L67.2006835,98.6547085 C66.0309562,98.65299 65.0830599,97.4419293 65.0817844,95.9475397 L65.0817844,39.7025232 C65.0831146,38.2081887 66.0309992,36.9972151 67.2006835,36.9955157 L167.520524,36.9955157 C168.690201,36.9972278 169.638075,38.2081977 169.639405,39.7025232 L169.639405,95.9475397 C169.63813,97.4419203 168.690244,98.6529773 167.520524,98.6547085 L167.520524,98.6547085 Z" id="Path" fill="#E6E6E6"></path>
                <path d="M87.6792802,57.1748879 C86.98384,57.1748879 86.4200743,57.9277723 86.4200743,58.8565022 C86.4200743,59.7852322 86.98384,60.5381166 87.6792802,60.5381166 L147.041909,60.5381166 C147.73735,60.5381166 148.301115,59.7852322 148.301115,58.8565022 C148.301115,57.9277723 147.73735,57.1748879 147.041909,57.1748879 L87.6792802,57.1748879 Z" id="Path" fill="#FFFFFF"></path>
                <path d="M87.6774181,66.1434978 C86.9826926,66.14493 86.4200743,66.8973947 86.4200743,67.8251121 C86.4200743,68.7528295 86.9826926,69.5052943 87.6774181,69.5067265 L147.043771,69.5067265 C147.738497,69.5052943 148.301115,68.7528295 148.301115,67.8251121 C148.301115,66.8973947 147.738497,66.14493 147.043771,66.1434978 L87.6774181,66.1434978 Z" id="Path" fill="#FFFFFF"></path>
                <path d="M86.6439528,75.1121076 C85.9307454,75.1135398 85.3531599,75.8660046 85.3531599,76.793722 C85.3531599,77.7214394 85.9307454,78.4739041 86.6439528,78.4753363 L112.869058,78.4753363 C113.582266,78.4739041 114.159851,77.7214394 114.159851,76.793722 C114.159851,75.8660046 113.582266,75.1135398 112.869058,75.1121076 L86.6439528,75.1121076 Z" id="Path" fill="#FFFFFF"></path>
                <ellipse id="Oval" fill="#6C63FF" cx="8.00185874" cy="7.84753363" rx="1.60037175" ry="2.24215247"></ellipse>
                <ellipse id="Oval" fill="#6C63FF" cx="13.3364312" cy="7.84753363" rx="1.60037175" ry="2.24215247"></ellipse>
                <ellipse id="Oval" fill="#6C63FF" cx="18.6710037" cy="7.84753363" rx="1.60037175" ry="2.24215247"></ellipse>
                <path d="M232.895826,166.022254 L231.580325,175.020032 C231.365995,176.486007 231.734169,177.989902 232.57044,179.064403 C233.406711,180.138904 234.609751,180.653816 235.805732,180.449139 L235.805732,180.449139 C236.854307,180.269687 237.793309,179.554265 238.392944,178.477954 C238.992579,177.401643 239.197516,176.063757 238.957603,174.791707 L237.288749,165.943352 L243.256506,142.105161 L241.881377,116.591928 L233.331965,120.238883 L237.19661,139.746366 L232.895826,166.022254 Z" id="Path" fill="#FFB8B8"></path>
                <ellipse id="Oval" fill="#FFB8B8" cx="229.920074" cy="85.2017937" rx="6.93494424" ry="8.96860987"></ellipse>
                <path d="M226.806915,110.986547 L240.055762,110.715943 C237.213369,101.723749 234.909542,93.2337145 235.50147,87.4439462 L226.185874,89.3381777 C227.288764,97.5622864 227.822978,103.485947 226.806915,110.986547 Z" id="Path" fill="#FFB8B8"></path>
                <path d="M216.583643,133.507722 L234.493168,137.892377 C240.531007,123.336195 243.861896,110.192429 238.241676,101.718993 L227.620905,100.896861 C220.834664,110.446347 215.095074,119.71376 218.994782,126.383604 L216.583643,133.507722 Z" id="Path" fill="#6C63FF"></path>
                <path d="M231.928055,121.395358 C236.386845,123.404568 240.524873,121.658289 244.32342,115.931658 L238.693779,103.139013 L231.520446,104.813497 L231.928055,121.395358 Z" id="Path" fill="#6C63FF"></path>
                <path d="M214.099236,238.789238 L221.484444,238.320827 L226.263118,176.649591 L250.590883,237.985713 L258.193309,237.717871 L243.640095,183.881359 C243.065672,165.919624 242.465474,148.004667 236.254881,140.222895 L234.082758,134.598188 L216.705784,130.044843 L214.31645,135.669551 C208.776795,151.620133 212.029251,197.196779 214.099236,238.789238 Z" id="Path" fill="#2F2E41"></path>
                <path d="M209.668539,248.964459 L218.153012,249.980381 C219.180551,250.103416 220.197967,249.643264 220.924079,248.727097 C221.650191,247.81093 222.008106,246.535767 221.898909,245.25402 L221.275366,237.935125 C218.924415,238.69957 216.415104,238.520696 213.792739,237.668161 L210.5859,241.138652 L209.066047,241.73173 C207.916114,242.180455 207.097121,243.452055 206.992752,244.950808 L206.992752,244.950808 C206.851524,246.978904 208.045696,248.770148 209.668539,248.964459 Z" id="Path" fill="#2F2E41"></path>
                <path d="M245.943622,248.964459 L254.428102,249.980381 C255.455642,250.103416 256.473058,249.643264 257.199171,248.727097 C257.925284,247.81093 258.283199,246.535767 258.174002,245.25402 L257.55047,237.935125 C255.199518,238.69957 252.690205,238.520696 250.067837,237.668161 L246.860996,241.138652 L245.341142,241.73173 C244.191207,242.180455 243.372214,243.452055 243.267845,244.950808 L243.267845,244.950808 C243.126617,246.978898 244.320783,248.770141 245.943622,248.964459 L245.943622,248.964459 Z" id="Path" fill="#2F2E41"></path>
                <path d="M220.851301,116.149315 C223.943615,120.437006 228.188137,121.143905 233.654275,118.055871 L233.654275,103.348146 L226.811307,100.896861 L220.851301,116.149315 Z" id="Path" fill="#6C63FF"></path>
                <path d="M205.756701,155.728282 L201.344147,162.944306 C200.625227,164.119988 200.39691,165.658761 200.730142,167.082474 C201.063374,168.506186 201.917779,169.642331 203.027863,170.137869 L203.027863,170.137869 C204.001129,170.57233 205.074504,170.470632 205.985307,169.857662 C206.896111,169.244692 207.560299,168.177013 207.81533,166.915908 L209.589316,158.143718 L223.429348,140.430454 L231.520446,117.081145 L222.7906,115.470852 L216.828739,135.867949 L205.756701,155.728282 Z" id="Path" fill="#FFB8B8"></path>
                <path d="M227.030461,72.6059357 C230.223726,70.5885755 234.041265,69.9881904 237.435773,71.3946192 C240.830282,72.801048 243.703101,76.3271585 244.570996,80.6826053 C245.227045,83.9749692 244.753205,87.4289074 244.521821,90.8103686 C244.290437,94.1918299 244.364213,97.8462325 245.915634,100.624935 C246.887841,102.366225 248.340633,103.573931 249.771664,104.710736 C251.202696,105.84754 252.67798,106.989141 253.73507,108.650559 C254.79216,110.311977 255.362767,112.635474 254.724917,114.605636 C253.910572,117.120902 251.564415,118.144858 249.484099,118.882851 C246.518627,119.934877 243.51355,120.994608 240.4327,121.072125 C237.351849,121.149642 234.135259,120.136221 231.871497,117.510145 C228.792167,113.937961 228.052919,108.095409 228.636659,102.88159 C229.220399,97.6677707 230.909545,92.7626914 231.974096,87.6701951 C232.385425,85.7025006 232.624121,83.3286306 231.484874,81.8826121 C230.32773,80.4138915 228.365056,80.7017683 226.924634,79.7036701 C225.644212,78.8164185 224.939408,77.0211227 225.158539,75.2050273 C225.377671,73.388932 226.474338,71.9365952 227.906561,71.5657693" id="Path" fill="#2F2E41"></path>
            </g>
        </g>
    </g>
</svg>