<svg width="216" height="145" viewBox="0 0 216 145" fill="none" xmlns="http://www.w3.org/2000/svg">
<rect width="216" height="145" fill="white"/>
<g filter="url(#filter0_d_9057_169186)">
<rect x="50.1367" y="36.7568" width="161.311" height="91.2126" rx="10" fill="#CCE4FF"/>
</g>
<rect width="128.138" height="20.3379" transform="matrix(1 0 0 -1 50.1367 82.9788)" fill="#0E5AA7"/>
<path d="M178.275 62.6423H204.594C205.146 62.6423 205.594 63.09 205.594 63.6423V81.9803C205.594 82.5326 205.146 82.9803 204.594 82.9803H178.275V62.6423Z" fill="white"/>
<path d="M185.711 70.2737H184.946C184.829 70.8317 184.298 71.0477 183.65 71.0927V71.7497H184.766V76.5737H185.711V70.2737ZM191.505 75.6557H188.166C188.31 75.0527 188.652 74.6477 189.858 73.9367C190.965 73.2797 191.442 72.8657 191.442 71.8937C191.442 70.7327 190.605 70.1747 189.3 70.1747C188.517 70.1747 187.716 70.4987 187.149 71.0297L187.752 71.7497C188.157 71.3627 188.742 71.1197 189.273 71.1197C190.137 71.1197 190.479 71.4437 190.479 71.9477C190.479 72.3887 190.263 72.6677 189.408 73.1717C188.166 73.9097 187.05 74.7287 186.987 76.5737H191.505V75.6557ZM195.864 73.2617C196.296 73.0187 196.629 72.6407 196.629 71.8847C196.629 70.7867 195.666 70.1747 194.478 70.1747C193.686 70.1747 193.047 70.4807 192.516 71.0297L193.218 71.6957C193.569 71.3267 193.965 71.1107 194.46 71.1107C195.387 71.1107 195.648 71.6147 195.648 71.9747C195.648 72.4517 195.342 72.8387 194.757 72.8387H194.181V73.7567H194.766C195.423 73.7567 195.909 74.0537 195.909 74.7017C195.909 75.3497 195.54 75.7367 194.532 75.7367C193.965 75.7367 193.371 75.5027 192.984 75.0167L192.264 75.6287C192.705 76.2767 193.641 76.6727 194.532 76.6727C196.008 76.6727 196.89 75.9887 196.89 74.7017C196.89 73.9187 196.458 73.4327 195.864 73.2617Z" fill="#2B2D30"/>
<path d="M71.0808 11.8136C70.7568 12.3266 70.3518 12.5966 69.6948 12.5966C68.5968 12.5966 68.0028 11.7056 68.0028 10.2926C68.0028 8.87963 68.5968 7.98863 69.6948 7.98863C70.3428 7.98863 70.6758 8.23163 70.9998 8.74463L71.8368 8.22263C71.4048 7.45763 70.7208 7.04363 69.6948 7.04363C68.0658 7.04363 67.0308 8.38463 67.0308 10.2926C67.0308 12.2006 68.0658 13.5416 69.6948 13.5416C70.6488 13.5416 71.4138 13.1096 71.8638 12.3356L71.0808 11.8136ZM74.5244 12.7046C73.9124 12.7046 73.6154 12.3896 73.6154 11.9216C73.6154 11.4896 73.9934 11.2196 74.5874 11.2196C75.0914 11.2196 75.4154 11.3006 75.6674 11.4266V12.1016C75.4514 12.3986 75.0194 12.7046 74.5244 12.7046ZM76.5764 10.2026C76.5764 9.13163 75.8564 8.61863 74.8034 8.61863C74.1374 8.61863 73.6334 8.76263 73.1834 9.04163L73.5434 9.74363C73.9124 9.53663 74.2904 9.44663 74.7764 9.44663C75.3524 9.44663 75.6674 9.73463 75.6674 10.2476V10.5986C75.4064 10.4816 75.0554 10.4186 74.6144 10.4186C73.5434 10.4186 72.7334 10.8956 72.7334 11.9486C72.7334 13.1096 73.6064 13.5416 74.3714 13.5416C74.8844 13.5416 75.3434 13.2986 75.6674 12.9746V13.4426H76.5764V10.2026ZM79.9137 8.61863C79.4457 8.61863 79.0497 8.85263 78.8337 9.16763V8.71763H77.9067V13.4426H78.8337V10.7426C78.8337 9.94163 79.1757 9.52763 79.7607 9.52763C80.0667 9.52763 80.2737 9.59063 80.4717 9.69863L80.7147 8.81663C80.5257 8.69063 80.2917 8.61863 79.9137 8.61863ZM83.1955 12.6866C82.5115 12.6866 82.1335 12.1646 82.1335 10.9766C82.1335 9.97763 82.4935 9.47363 83.1595 9.47363C83.6275 9.47363 84.0595 9.81563 84.2665 10.0946V12.0836C84.0235 12.3896 83.6365 12.6866 83.1955 12.6866ZM85.1755 6.88163L84.2575 7.35863V9.15863C83.9965 8.87063 83.5465 8.61863 83.0695 8.61863C82.0885 8.61863 81.2065 9.38363 81.2065 11.0036C81.2065 12.8036 82.0075 13.5416 83.0245 13.5416C83.5195 13.5416 83.9155 13.3076 84.2575 12.9926V13.4426H85.1755V6.88163ZM93.8951 7.14263H92.9771V10.3916C92.9771 10.7426 92.9861 11.6426 92.9861 11.8766C92.8961 11.7146 92.6261 11.2466 92.4641 10.9856L90.0701 7.14263H89.1071V13.4426H90.0251V10.1756C90.0251 9.82463 90.0161 8.95163 90.0161 8.71763C90.1151 8.87963 90.3311 9.25763 90.4841 9.49163L92.9951 13.4426H93.8951V7.14263ZM99.1589 8.71763H98.2319V11.4806C98.2319 12.2456 97.8809 12.6866 97.2599 12.6866C96.6479 12.6866 96.2879 12.3446 96.2879 11.3906V8.71763H95.3609V11.4266C95.3609 12.8216 95.9459 13.5416 97.0439 13.5416C97.5299 13.5416 97.9979 13.3346 98.2319 12.9926V13.4426H99.1589V8.71763ZM106.947 10.7336C106.947 9.33863 106.425 8.61863 105.327 8.61863C104.589 8.61863 104.22 8.88863 103.878 9.31163C103.626 8.86163 103.221 8.61863 102.582 8.61863C102.096 8.61863 101.691 8.82563 101.457 9.16763V8.71763H100.53V13.4426H101.457V10.6796C101.457 9.91463 101.745 9.47363 102.366 9.47363C102.978 9.47363 103.275 9.81563 103.275 10.7696V13.4426H104.202V10.6796C104.202 9.91463 104.49 9.47363 105.111 9.47363C105.723 9.47363 106.02 9.81563 106.02 10.7696V13.4426H106.947V10.7336ZM110.433 8.61863C109.938 8.61863 109.542 8.85263 109.2 9.16763V6.88163L108.282 7.35863V13.4426H109.2V13.0016C109.461 13.2896 109.911 13.5416 110.388 13.5416C111.369 13.5416 112.251 12.7766 112.251 11.1566C112.251 9.35663 111.45 8.61863 110.433 8.61863ZM110.298 12.6866C109.83 12.6866 109.398 12.3446 109.191 12.0656V10.0766C109.434 9.77063 109.821 9.47363 110.262 9.47363C110.946 9.47363 111.324 9.99563 111.324 11.1836C111.324 12.1826 110.964 12.6866 110.298 12.6866ZM115.259 8.61863C114.035 8.61863 113.189 9.48263 113.189 11.0846C113.189 12.6506 114.125 13.5416 115.232 13.5416C115.952 13.5416 116.447 13.3166 116.861 12.9206L116.312 12.3266C115.997 12.5606 115.682 12.7046 115.286 12.7046C114.71 12.7046 114.197 12.3176 114.098 11.4086H117.221C117.23 11.3096 117.248 11.1566 117.248 10.9856C117.248 9.70763 116.6 8.61863 115.259 8.61863ZM114.116 10.6436C114.197 9.88763 114.575 9.45563 115.196 9.45563C115.961 9.45563 116.267 9.99563 116.312 10.6436H114.116ZM120.405 8.61863C119.937 8.61863 119.541 8.85263 119.325 9.16763V8.71763H118.398V13.4426H119.325V10.7426C119.325 9.94163 119.667 9.52763 120.252 9.52763C120.558 9.52763 120.765 9.59063 120.963 9.69863L121.206 8.81663C121.017 8.69063 120.783 8.61863 120.405 8.61863Z" fill="#2B2D30"/>
<path d="M185.039 28.4093C184.715 28.9223 184.31 29.1923 183.653 29.1923C182.555 29.1923 181.961 28.3013 181.961 26.8883C181.961 25.4753 182.555 24.5843 183.653 24.5843C184.301 24.5843 184.634 24.8273 184.958 25.3403L185.795 24.8183C185.363 24.0533 184.679 23.6393 183.653 23.6393C182.024 23.6393 180.989 24.9803 180.989 26.8883C180.989 28.7963 182.024 30.1373 183.653 30.1373C184.607 30.1373 185.372 29.7053 185.822 28.9313L185.039 28.4093ZM190.949 23.7383L189.653 27.7433C189.536 28.1123 189.356 28.6793 189.302 28.9043C189.248 28.6793 189.068 28.1213 188.951 27.7523L187.637 23.7383H186.611L188.798 30.0383H189.797L191.957 23.7383H190.949ZM197.058 23.7383L195.762 27.7433C195.645 28.1123 195.465 28.6793 195.411 28.9043C195.357 28.6793 195.177 28.1213 195.06 27.7523L193.746 23.7383H192.72L194.907 30.0383H195.906L198.066 23.7383H197.058Z" fill="#2B2D30"/>
<path d="M119.125 137.546H115.876V135.557H117.685V134.639H115.876V133.082H118.99V132.164H114.931V138.464H119.125V137.546ZM122.574 136.016L123.969 133.739H122.907L122.547 134.387C122.367 134.72 122.142 135.17 122.043 135.35C121.962 135.17 121.737 134.747 121.548 134.405L121.179 133.739H120.108L121.494 136.016L120.009 138.464H121.053L121.512 137.654C121.692 137.33 121.944 136.871 122.025 136.691C122.115 136.871 122.331 137.303 122.52 137.645L122.97 138.464H124.068L122.574 136.016ZM127.131 137.708C126.663 137.708 126.231 137.366 126.024 137.087V135.098C126.267 134.792 126.654 134.495 127.095 134.495C127.779 134.495 128.157 135.017 128.157 136.205C128.157 137.204 127.797 137.708 127.131 137.708ZM127.266 133.64C126.771 133.64 126.375 133.874 126.033 134.189V133.739H125.115V140.201L126.033 139.724V138.023C126.294 138.311 126.744 138.563 127.221 138.563C128.202 138.563 129.084 137.798 129.084 136.178C129.084 134.378 128.283 133.64 127.266 133.64ZM130.76 131.93C130.427 131.93 130.157 132.2 130.157 132.533C130.157 132.857 130.427 133.127 130.76 133.127C131.084 133.127 131.354 132.857 131.354 132.533C131.354 132.2 131.084 131.93 130.76 131.93ZM131.219 133.739H130.292V138.464H131.219V133.739ZM134.636 133.64C134.168 133.64 133.772 133.874 133.556 134.189V133.739H132.629V138.464H133.556V135.764C133.556 134.963 133.898 134.549 134.483 134.549C134.789 134.549 134.996 134.612 135.194 134.72L135.437 133.838C135.248 133.712 135.014 133.64 134.636 133.64ZM137.641 137.726C137.029 137.726 136.732 137.411 136.732 136.943C136.732 136.511 137.11 136.241 137.704 136.241C138.208 136.241 138.532 136.322 138.784 136.448V137.123C138.568 137.42 138.136 137.726 137.641 137.726ZM139.693 135.224C139.693 134.153 138.973 133.64 137.92 133.64C137.254 133.64 136.75 133.784 136.3 134.063L136.66 134.765C137.029 134.558 137.407 134.468 137.893 134.468C138.469 134.468 138.784 134.756 138.784 135.269V135.62C138.523 135.503 138.172 135.44 137.731 135.44C136.66 135.44 135.85 135.917 135.85 136.97C135.85 138.131 136.723 138.563 137.488 138.563C138.001 138.563 138.46 138.32 138.784 137.996V138.464H139.693V135.224ZM142.706 137.717C142.364 137.717 142.22 137.591 142.22 137.15V134.585H143.39V133.739H142.22V131.903L141.311 132.389V133.739H140.636V134.585H141.311V137.312C141.311 138.158 141.716 138.563 142.373 138.563C142.742 138.563 143.057 138.473 143.282 138.347L143.39 137.528C143.219 137.627 142.949 137.717 142.706 137.717ZM145.166 131.93C144.833 131.93 144.563 132.2 144.563 132.533C144.563 132.857 144.833 133.127 145.166 133.127C145.49 133.127 145.76 132.857 145.76 132.533C145.76 132.2 145.49 131.93 145.166 131.93ZM145.625 133.739H144.698V138.464H145.625V133.739ZM148.916 133.64C147.728 133.64 146.81 134.558 146.81 136.106C146.81 137.582 147.701 138.563 148.889 138.563C150.104 138.563 151.022 137.645 151.022 136.079C151.022 134.603 150.122 133.64 148.916 133.64ZM148.925 137.681C148.223 137.681 147.746 137.114 147.746 136.079C147.746 135.143 148.178 134.522 148.88 134.522C149.627 134.522 150.086 135.143 150.086 136.106C150.086 136.97 149.627 137.681 148.925 137.681ZM155.965 135.755C155.965 134.36 155.38 133.64 154.282 133.64C153.796 133.64 153.328 133.847 153.094 134.189V133.739H152.167V138.464H153.094V135.701C153.094 134.936 153.445 134.495 154.066 134.495C154.678 134.495 155.038 134.837 155.038 135.791V138.464H155.965V135.755ZM161.58 132.164H159.861V138.464H161.58C163.227 138.464 164.649 137.537 164.649 135.314C164.649 133.091 163.272 132.164 161.58 132.164ZM161.58 137.546H160.806V133.082H161.58C163.074 133.082 163.686 133.991 163.686 135.314C163.686 136.637 163.074 137.546 161.58 137.546ZM167.4 137.726C166.788 137.726 166.491 137.411 166.491 136.943C166.491 136.511 166.869 136.241 167.463 136.241C167.967 136.241 168.291 136.322 168.543 136.448V137.123C168.327 137.42 167.895 137.726 167.4 137.726ZM169.452 135.224C169.452 134.153 168.732 133.64 167.679 133.64C167.013 133.64 166.509 133.784 166.059 134.063L166.419 134.765C166.788 134.558 167.166 134.468 167.652 134.468C168.228 134.468 168.543 134.756 168.543 135.269V135.62C168.282 135.503 167.931 135.44 167.49 135.44C166.419 135.44 165.609 135.917 165.609 136.97C165.609 138.131 166.482 138.563 167.247 138.563C167.76 138.563 168.219 138.32 168.543 137.996V138.464H169.452V135.224ZM172.466 137.717C172.124 137.717 171.98 137.591 171.98 137.15V134.585H173.15V133.739H171.98V131.903L171.071 132.389V133.739H170.396V134.585H171.071V137.312C171.071 138.158 171.476 138.563 172.133 138.563C172.502 138.563 172.817 138.473 173.042 138.347L173.15 137.528C172.979 137.627 172.709 137.717 172.466 137.717ZM176.082 133.64C174.858 133.64 174.012 134.504 174.012 136.106C174.012 137.672 174.948 138.563 176.055 138.563C176.775 138.563 177.27 138.338 177.684 137.942L177.135 137.348C176.82 137.582 176.505 137.726 176.109 137.726C175.533 137.726 175.02 137.339 174.921 136.43H178.044C178.053 136.331 178.071 136.178 178.071 136.007C178.071 134.729 177.423 133.64 176.082 133.64ZM174.939 135.665C175.02 134.909 175.398 134.477 176.019 134.477C176.784 134.477 177.09 135.017 177.135 135.665H174.939Z" fill="#2B2D30"/>
<path d="M20.749 125.771C20.425 126.284 20.02 126.554 19.363 126.554C18.265 126.554 17.671 125.663 17.671 124.25C17.671 122.837 18.265 121.946 19.363 121.946C20.011 121.946 20.344 122.189 20.668 122.702L21.505 122.18C21.073 121.415 20.389 121.001 19.363 121.001C17.734 121.001 16.699 122.342 16.699 124.25C16.699 126.158 17.734 127.499 19.363 127.499C20.317 127.499 21.082 127.067 21.532 126.293L20.749 125.771ZM24.1926 126.662C23.5806 126.662 23.2836 126.347 23.2836 125.879C23.2836 125.447 23.6616 125.177 24.2556 125.177C24.7596 125.177 25.0836 125.258 25.3356 125.384V126.059C25.1196 126.356 24.6876 126.662 24.1926 126.662ZM26.2446 124.16C26.2446 123.089 25.5246 122.576 24.4716 122.576C23.8056 122.576 23.3016 122.72 22.8516 122.999L23.2116 123.701C23.5806 123.494 23.9586 123.404 24.4446 123.404C25.0206 123.404 25.3356 123.692 25.3356 124.205V124.556C25.0746 124.439 24.7236 124.376 24.2826 124.376C23.2116 124.376 22.4016 124.853 22.4016 125.906C22.4016 127.067 23.2746 127.499 24.0396 127.499C24.5526 127.499 25.0116 127.256 25.3356 126.932V127.4H26.2446V124.16ZM29.5818 122.576C29.1138 122.576 28.7178 122.81 28.5018 123.125V122.675H27.5748V127.4H28.5018V124.7C28.5018 123.899 28.8438 123.485 29.4288 123.485C29.7348 123.485 29.9418 123.548 30.1398 123.656L30.3828 122.774C30.1938 122.648 29.9598 122.576 29.5818 122.576ZM32.8637 126.644C32.1797 126.644 31.8017 126.122 31.8017 124.934C31.8017 123.935 32.1617 123.431 32.8277 123.431C33.2957 123.431 33.7277 123.773 33.9347 124.052V126.041C33.6917 126.347 33.3047 126.644 32.8637 126.644ZM34.8437 120.839L33.9257 121.316V123.116C33.6647 122.828 33.2147 122.576 32.7377 122.576C31.7567 122.576 30.8747 123.341 30.8747 124.961C30.8747 126.761 31.6757 127.499 32.6927 127.499C33.1877 127.499 33.5837 127.265 33.9257 126.95V127.4H34.8437V120.839ZM13.3201 132.1H12.3751V134.647H9.4771V132.1H8.5321V138.4H9.4771V135.592H12.3751V138.4H13.3201V132.1ZM16.7029 133.576C15.5149 133.576 14.5969 134.494 14.5969 136.042C14.5969 137.518 15.4879 138.499 16.6759 138.499C17.8909 138.499 18.8089 137.581 18.8089 136.015C18.8089 134.539 17.9089 133.576 16.7029 133.576ZM16.7119 137.617C16.0099 137.617 15.5329 137.05 15.5329 136.015C15.5329 135.079 15.9649 134.458 16.6669 134.458C17.4139 134.458 17.8729 135.079 17.8729 136.042C17.8729 136.906 17.4139 137.617 16.7119 137.617ZM20.9267 131.839L19.9997 132.325V138.4H20.9267V131.839ZM24.1186 137.644C23.4346 137.644 23.0566 137.122 23.0566 135.934C23.0566 134.935 23.4166 134.431 24.0826 134.431C24.5506 134.431 24.9826 134.773 25.1896 135.052V137.041C24.9466 137.347 24.5596 137.644 24.1186 137.644ZM26.0986 131.839L25.1806 132.316V134.116C24.9196 133.828 24.4696 133.576 23.9926 133.576C23.0116 133.576 22.1296 134.341 22.1296 135.961C22.1296 137.761 22.9306 138.499 23.9476 138.499C24.4426 138.499 24.8386 138.265 25.1806 137.95V138.4H26.0986V131.839ZM29.3144 133.576C28.0904 133.576 27.2444 134.44 27.2444 136.042C27.2444 137.608 28.1804 138.499 29.2874 138.499C30.0074 138.499 30.5024 138.274 30.9164 137.878L30.3674 137.284C30.0524 137.518 29.7374 137.662 29.3414 137.662C28.7654 137.662 28.2524 137.275 28.1534 136.366H31.2764C31.2854 136.267 31.3034 136.114 31.3034 135.943C31.3034 134.665 30.6554 133.576 29.3144 133.576ZM28.1714 135.601C28.2524 134.845 28.6304 134.413 29.2514 134.413C30.0164 134.413 30.3224 134.953 30.3674 135.601H28.1714ZM34.4598 133.576C33.9918 133.576 33.5958 133.81 33.3798 134.125V133.675H32.4528V138.4H33.3798V135.7C33.3798 134.899 33.7218 134.485 34.3068 134.485C34.6128 134.485 34.8198 134.548 35.0178 134.656L35.2608 133.774C35.0718 133.648 34.8378 133.576 34.4598 133.576Z" fill="#2B2D30"/>
<g filter="url(#filter1_d_9057_169186)">
<rect x="9.80957" y="25.0469" width="152.205" height="86.2822" rx="10" fill="#CCE4FF"/>
</g>
<path d="M28.0543 61.3451H27.3743C27.2703 61.8411 26.7983 62.0331 26.2223 62.0731V62.6571H27.2143V66.9451H28.0543V61.3451ZM33.2047 66.1291H30.2367C30.3647 65.5931 30.6687 65.2331 31.7407 64.6011C32.7247 64.0171 33.1487 63.6491 33.1487 62.7851C33.1487 61.7531 32.4047 61.2571 31.2447 61.2571C30.5487 61.2571 29.8367 61.5451 29.3327 62.0171L29.8687 62.6571C30.2287 62.3131 30.7487 62.0971 31.2207 62.0971C31.9887 62.0971 32.2927 62.3851 32.2927 62.8331C32.2927 63.2251 32.1007 63.4731 31.3407 63.9211C30.2367 64.5771 29.2447 65.3051 29.1887 66.9451H33.2047V66.1291ZM37.0801 64.0011C37.4641 63.7851 37.7601 63.4491 37.7601 62.7771C37.7601 61.8011 36.9041 61.2571 35.8481 61.2571C35.1441 61.2571 34.5761 61.5291 34.1041 62.0171L34.7281 62.6091C35.0401 62.2811 35.3921 62.0891 35.8321 62.0891C36.6561 62.0891 36.8881 62.5371 36.8881 62.8571C36.8881 63.2811 36.6161 63.6251 36.0961 63.6251H35.5841V64.4411H36.1041C36.6881 64.4411 37.1201 64.7051 37.1201 65.2811C37.1201 65.8571 36.7921 66.2011 35.8961 66.2011C35.3921 66.2011 34.8641 65.9931 34.5201 65.5611L33.8801 66.1051C34.2721 66.6811 35.1041 67.0331 35.8961 67.0331C37.2081 67.0331 37.9921 66.4251 37.9921 65.2811C37.9921 64.5851 37.6081 64.1531 37.0801 64.0011ZM43.4825 64.9451H42.7385V61.3451H41.7785L38.8905 64.9131V65.7131H41.9225V66.9451H42.7385V65.6891H43.4825V64.9451ZM41.9225 63.3131V64.9451H40.7385C40.4505 64.9451 40.0265 64.9531 39.8345 64.9531C39.9545 64.8251 40.1945 64.5451 40.3625 64.3291L41.4425 62.9531C41.6265 62.7211 41.8425 62.4331 41.9465 62.2891C41.9465 62.4971 41.9225 62.9931 41.9225 63.3131ZM50.1949 61.3451H49.5149C49.4109 61.8411 48.9389 62.0331 48.3629 62.0731V62.6571H49.3549V66.9451H50.1949V61.3451ZM55.3453 66.1291H52.3773C52.5053 65.5931 52.8093 65.2331 53.8813 64.6011C54.8653 64.0171 55.2893 63.6491 55.2893 62.7851C55.2893 61.7531 54.5453 61.2571 53.3853 61.2571C52.6893 61.2571 51.9773 61.5451 51.4733 62.0171L52.0093 62.6571C52.3693 62.3131 52.8893 62.0971 53.3613 62.0971C54.1293 62.0971 54.4333 62.3851 54.4333 62.8331C54.4333 63.2251 54.2413 63.4731 53.4813 63.9211C52.3773 64.5771 51.3853 65.3051 51.3293 66.9451H55.3453V66.1291ZM59.2207 64.0011C59.6047 63.7851 59.9007 63.4491 59.9007 62.7771C59.9007 61.8011 59.0447 61.2571 57.9887 61.2571C57.2847 61.2571 56.7167 61.5291 56.2447 62.0171L56.8687 62.6091C57.1807 62.2811 57.5327 62.0891 57.9727 62.0891C58.7967 62.0891 59.0287 62.5371 59.0287 62.8571C59.0287 63.2811 58.7567 63.6251 58.2367 63.6251H57.7247V64.4411H58.2447C58.8287 64.4411 59.2607 64.7051 59.2607 65.2811C59.2607 65.8571 58.9327 66.2011 58.0367 66.2011C57.5327 66.2011 57.0047 65.9931 56.6607 65.5611L56.0207 66.1051C56.4127 66.6811 57.2447 67.0331 58.0367 67.0331C59.3487 67.0331 60.1327 66.4251 60.1327 65.2811C60.1327 64.5851 59.7487 64.1531 59.2207 64.0011ZM65.6231 64.9451H64.8791V61.3451H63.9191L61.0311 64.9131V65.7131H64.0631V66.9451H64.8791V65.6891H65.6231V64.9451ZM64.0631 63.3131V64.9451H62.8791C62.5911 64.9451 62.1671 64.9531 61.9751 64.9531C62.0951 64.8251 62.3351 64.5451 62.5031 64.3291L63.5831 62.9531C63.7671 62.7211 63.9831 62.4331 64.0871 62.2891C64.0871 62.4971 64.0631 62.9931 64.0631 63.3131ZM72.3356 61.3451H71.6556C71.5516 61.8411 71.0796 62.0331 70.5036 62.0731V62.6571H71.4956V66.9451H72.3356V61.3451ZM77.4859 66.1291H74.5179C74.6459 65.5931 74.9499 65.2331 76.0219 64.6011C77.0059 64.0171 77.4299 63.6491 77.4299 62.7851C77.4299 61.7531 76.6859 61.2571 75.5259 61.2571C74.8299 61.2571 74.1179 61.5451 73.6139 62.0171L74.1499 62.6571C74.5099 62.3131 75.0299 62.0971 75.5019 62.0971C76.2699 62.0971 76.5739 62.3851 76.5739 62.8331C76.5739 63.2251 76.3819 63.4731 75.6219 63.9211C74.5179 64.5771 73.5259 65.3051 73.4699 66.9451H77.4859V66.1291ZM81.3613 64.0011C81.7453 63.7851 82.0413 63.4491 82.0413 62.7771C82.0413 61.8011 81.1853 61.2571 80.1293 61.2571C79.4253 61.2571 78.8573 61.5291 78.3853 62.0171L79.0093 62.6091C79.3213 62.2811 79.6733 62.0891 80.1133 62.0891C80.9373 62.0891 81.1693 62.5371 81.1693 62.8571C81.1693 63.2811 80.8973 63.6251 80.3773 63.6251H79.8653V64.4411H80.3853C80.9693 64.4411 81.4013 64.7051 81.4013 65.2811C81.4013 65.8571 81.0733 66.2011 80.1773 66.2011C79.6733 66.2011 79.1453 65.9931 78.8013 65.5611L78.1613 66.1051C78.5533 66.6811 79.3853 67.0331 80.1773 67.0331C81.4893 67.0331 82.2733 66.4251 82.2733 65.2811C82.2733 64.5851 81.8893 64.1531 81.3613 64.0011ZM87.7638 64.9451H87.0198V61.3451H86.0598L83.1718 64.9131V65.7131H86.2038V66.9451H87.0198V65.6891H87.7638V64.9451ZM86.2038 63.3131V64.9451H85.0198C84.7318 64.9451 84.3078 64.9531 84.1158 64.9531C84.2358 64.8251 84.4758 64.5451 84.6438 64.3291L85.7238 62.9531C85.9078 62.7211 86.1238 62.4331 86.2278 62.2891C86.2278 62.4971 86.2038 62.9931 86.2038 63.3131ZM92.3199 61.3451H91.6399C91.5359 61.8411 91.0639 62.0331 90.4879 62.0731V62.6571H91.4799V66.9451H92.3199V61.3451ZM97.4703 66.1291H94.5023C94.6303 65.5931 94.9343 65.2331 96.0063 64.6011C96.9903 64.0171 97.4143 63.6491 97.4143 62.7851C97.4143 61.7531 96.6703 61.2571 95.5103 61.2571C94.8143 61.2571 94.1023 61.5451 93.5983 62.0171L94.1343 62.6571C94.4943 62.3131 95.0143 62.0971 95.4863 62.0971C96.2543 62.0971 96.5583 62.3851 96.5583 62.8331C96.5583 63.2251 96.3663 63.4731 95.6063 63.9211C94.5023 64.5771 93.5103 65.3051 93.4543 66.9451H97.4703V66.1291ZM101.346 64.0011C101.73 63.7851 102.026 63.4491 102.026 62.7771C102.026 61.8011 101.17 61.2571 100.114 61.2571C99.4097 61.2571 98.8417 61.5291 98.3697 62.0171L98.9937 62.6091C99.3057 62.2811 99.6577 62.0891 100.098 62.0891C100.922 62.0891 101.154 62.5371 101.154 62.8571C101.154 63.2811 100.882 63.6251 100.362 63.6251H99.8497V64.4411H100.37C100.954 64.4411 101.386 64.7051 101.386 65.2811C101.386 65.8571 101.058 66.2011 100.162 66.2011C99.6577 66.2011 99.1297 65.9931 98.7857 65.5611L98.1457 66.1051C98.5377 66.6811 99.3697 67.0331 100.162 67.0331C101.474 67.0331 102.258 66.4251 102.258 65.2811C102.258 64.5851 101.874 64.1531 101.346 64.0011ZM107.748 64.9451H107.004V61.3451H106.044L103.156 64.9131V65.7131H106.188V66.9451H107.004V65.6891H107.748V64.9451ZM106.188 63.3131V64.9451H105.004C104.716 64.9451 104.292 64.9531 104.1 64.9531C104.22 64.8251 104.46 64.5451 104.628 64.3291L105.708 62.9531C105.892 62.7211 106.108 62.4331 106.212 62.2891C106.212 62.4971 106.188 62.9931 106.188 63.3131Z" fill="#2B2D30"/>
<rect x="26.0703" y="37.3726" width="22.7657" height="13.5586" fill="#0E5AA7"/>
<rect x="128.191" y="85.4463" width="18.863" height="11.0934" fill="#FFC700"/>
<path d="M29.064 97.4673C29.421 97.2923 29.687 96.9843 29.687 96.4873C29.687 95.6613 29.134 95.2133 28.28 95.2133H26.264V100.113H28.21C29.281 100.113 29.89 99.6023 29.89 98.6083C29.89 97.9293 29.449 97.5723 29.064 97.4673ZM28.273 97.1523H26.957V95.8853H28.273C28.763 95.8853 28.952 96.1653 28.952 96.5293C28.952 96.8513 28.756 97.1523 28.273 97.1523ZM28.266 99.4413H26.957V97.8173H28.287C28.84 97.8173 29.155 98.1253 29.155 98.6293C29.155 99.1123 28.917 99.4413 28.266 99.4413ZM32.2772 96.3613C31.3532 96.3613 30.6392 97.0753 30.6392 98.2793C30.6392 99.4273 31.3322 100.19 32.2562 100.19C33.2012 100.19 33.9152 99.4763 33.9152 98.2583C33.9152 97.1103 33.2152 96.3613 32.2772 96.3613ZM32.2842 99.5043C31.7382 99.5043 31.3672 99.0633 31.3672 98.2583C31.3672 97.5303 31.7032 97.0473 32.2492 97.0473C32.8302 97.0473 33.1872 97.5303 33.1872 98.2793C33.1872 98.9513 32.8302 99.5043 32.2842 99.5043ZM36.0681 97.8733C35.5151 97.6563 35.3891 97.5233 35.3891 97.3413C35.3891 97.1453 35.5431 97.0053 35.8931 97.0053C36.2431 97.0053 36.5441 97.1103 36.8451 97.3203L37.1601 96.7673C36.8311 96.5293 36.3761 96.3613 35.9141 96.3613C35.1791 96.3613 34.6611 96.7043 34.6611 97.3623C34.6611 97.9433 34.9481 98.2093 35.7391 98.5173C36.2711 98.7203 36.5931 98.8533 36.5931 99.1333C36.5931 99.3923 36.3761 99.5393 35.9211 99.5393C35.5781 99.5393 35.1931 99.4133 34.8501 99.1753L34.5211 99.7213C34.8921 99.9943 35.4311 100.19 35.9281 100.19C36.6491 100.19 37.3071 99.9173 37.3071 99.1053C37.3071 98.4123 36.8871 98.1883 36.0681 97.8733ZM41.1572 96.4383H40.4362V98.5873C40.4362 99.1823 40.1632 99.5253 39.6802 99.5253C39.2042 99.5253 38.9242 99.2593 38.9242 98.5173V96.4383H38.2032V98.5453C38.2032 99.6303 38.6582 100.19 39.5122 100.19C39.8902 100.19 40.2542 100.029 40.4362 99.7633V100.113H41.1572V96.4383ZM45.1774 98.0063C45.1774 96.9213 44.7224 96.3613 43.8684 96.3613C43.4904 96.3613 43.1264 96.5223 42.9444 96.7883V96.4383H42.2234V100.113H42.9444V97.9643C42.9444 97.3693 43.2174 97.0263 43.7004 97.0263C44.1764 97.0263 44.4564 97.2923 44.4564 98.0343V100.113H45.1774V98.0063ZM51.1893 95.2133H50.4543V98.1253C50.4543 99.0563 50.1743 99.4553 49.4673 99.4553C48.9353 99.4553 48.6413 99.1823 48.4523 98.6783L47.7383 98.8883C47.9833 99.7073 48.5293 100.19 49.4463 100.19C50.6293 100.19 51.1893 99.4973 51.1893 98.1813V95.2133ZM53.7831 96.3613C52.8591 96.3613 52.1451 97.0753 52.1451 98.2793C52.1451 99.4273 52.8381 100.19 53.7621 100.19C54.7071 100.19 55.4211 99.4763 55.4211 98.2583C55.4211 97.1103 54.7211 96.3613 53.7831 96.3613ZM53.7901 99.5043C53.2441 99.5043 52.8731 99.0633 52.8731 98.2583C52.8731 97.5303 53.2091 97.0473 53.7551 97.0473C54.3361 97.0473 54.6931 97.5303 54.6931 98.2793C54.6931 98.9513 54.3361 99.5043 53.7901 99.5043ZM59.2663 98.0063C59.2663 96.9213 58.8113 96.3613 57.9573 96.3613C57.5793 96.3613 57.2153 96.5223 57.0333 96.7883V96.4383H56.3123V100.113H57.0333V97.9643C57.0333 97.3693 57.3063 97.0263 57.7893 97.0263C58.2653 97.0263 58.5453 97.2923 58.5453 98.0343V100.113H59.2663V98.0063ZM61.7395 96.3613C60.7875 96.3613 60.1295 97.0333 60.1295 98.2793C60.1295 99.4973 60.8575 100.19 61.7185 100.19C62.2785 100.19 62.6635 100.015 62.9855 99.7073L62.5585 99.2453C62.3135 99.4273 62.0685 99.5393 61.7605 99.5393C61.3125 99.5393 60.9135 99.2383 60.8365 98.5313H63.2655C63.2725 98.4543 63.2865 98.3353 63.2865 98.2023C63.2865 97.2083 62.7825 96.3613 61.7395 96.3613ZM60.8505 97.9363C60.9135 97.3483 61.2075 97.0123 61.6905 97.0123C62.2855 97.0123 62.5235 97.4323 62.5585 97.9363H60.8505ZM65.4421 97.8733C64.8891 97.6563 64.7631 97.5233 64.7631 97.3413C64.7631 97.1453 64.9171 97.0053 65.2671 97.0053C65.6171 97.0053 65.9181 97.1103 66.2191 97.3203L66.5341 96.7673C66.2051 96.5293 65.7501 96.3613 65.2881 96.3613C64.5531 96.3613 64.0351 96.7043 64.0351 97.3623C64.0351 97.9433 64.3221 98.2093 65.1131 98.5173C65.6451 98.7203 65.9671 98.8533 65.9671 99.1333C65.9671 99.3923 65.7501 99.5393 65.2951 99.5393C64.9521 99.5393 64.5671 99.4133 64.2241 99.1753L63.8951 99.7213C64.2661 99.9943 64.8051 100.19 65.3021 100.19C66.0231 100.19 66.6811 99.9173 66.6811 99.1053C66.6811 98.4123 66.2611 98.1883 65.4421 97.8733Z" fill="#2B2D30"/>
<path d="M59.6293 79.7703L59.0533 81.5503C59.0013 81.7143 58.9213 81.9663 58.8973 82.0663C58.8733 81.9663 58.7933 81.7183 58.7413 81.5543L58.1573 79.7703H57.7013L58.6733 82.5703H59.1173L60.0773 79.7703H59.6293ZM60.8293 81.5303L61.0533 80.8903C61.1253 80.6823 61.2253 80.3623 61.2573 80.2423C61.2893 80.3623 61.4013 80.6863 61.4693 80.8863L61.6933 81.5303H60.8293ZM61.4853 79.7703H61.0413L60.0333 82.5703H60.4693L60.7013 81.9063H61.8213L62.0573 82.5703H62.5053L61.4853 79.7703ZM64.873 82.1583H63.477V79.7703H63.057V82.5703H64.873V82.1583ZM65.8759 79.7703H65.4559V82.5703H65.8759V79.7703ZM67.3874 79.7703H66.6234V82.5703H67.3874C68.1194 82.5703 68.7514 82.1583 68.7514 81.1703C68.7514 80.1823 68.1394 79.7703 67.3874 79.7703ZM67.3874 82.1623H67.0434V80.1783H67.3874C68.0514 80.1783 68.3234 80.5823 68.3234 81.1703C68.3234 81.7583 68.0514 82.1623 67.3874 82.1623ZM72.2924 79.7703H70.2404V80.1823H71.0564V82.5703H71.4764V80.1823H72.2924V79.7703ZM74.9741 79.7703H74.5541V80.9023H73.2661V79.7703H72.8461V82.5703H73.2661V81.3223H74.5541V82.5703H74.9741V79.7703ZM76.9295 81.0663H76.1135V80.1663H76.9295C77.2135 80.1663 77.4055 80.3263 77.4055 80.6183C77.4055 80.9223 77.2095 81.0663 76.9295 81.0663ZM76.9295 79.7703H75.7015V82.5703H76.1135V81.4623H76.7455L77.3015 82.5703H77.7855L77.2135 81.4263C77.5935 81.3303 77.8295 81.0543 77.8295 80.6063C77.8295 80.0303 77.4175 79.7703 76.9295 79.7703ZM80.5478 79.7703H80.1278V81.4103C80.1278 81.9223 79.9198 82.1943 79.4798 82.1943C79.0598 82.1943 78.8398 81.9103 78.8398 81.3823V79.7703H78.4198V81.3943C78.4198 82.1663 78.7798 82.6143 79.4718 82.6143C80.1678 82.6143 80.5478 82.1863 80.5478 81.4023V79.7703Z" fill="#2B2D30"/>
<path d="M86.1306 77.8996C84.5016 77.8996 83.6376 79.2496 83.6376 81.1576C83.6376 83.0656 84.4836 84.3976 86.1126 84.3976C87.7416 84.3976 88.6056 83.0476 88.6056 81.1396C88.6056 79.2316 87.7596 77.8996 86.1306 77.8996ZM86.1306 83.4796C85.0326 83.4796 84.5916 82.4626 84.5916 81.1396C84.5916 79.8166 85.0146 78.8176 86.1126 78.8176C87.2196 78.8176 87.6516 79.8346 87.6516 81.1576C87.6516 82.4806 87.2376 83.4796 86.1306 83.4796ZM91.3336 77.9986H90.5686C90.4516 78.5566 89.9206 78.7726 89.2726 78.8176V79.4746H90.3886V84.2986H91.3336V77.9986ZM95.1207 77.1886L92.3217 85.1086H93.2487L96.0477 77.1886H95.1207ZM98.4263 77.9986H97.6613C97.5443 78.5566 97.0133 78.7726 96.3653 78.8176V79.4746H97.4813V84.2986H98.4263V77.9986ZM103.645 80.8966C104.293 80.6356 104.491 80.0326 104.491 79.6636C104.491 78.4486 103.42 77.8996 102.295 77.8996C101.062 77.8996 100.081 78.4666 100.081 79.6816C100.081 80.0596 100.279 80.6266 100.927 80.8966C100.198 81.1666 99.8105 81.7066 99.8105 82.4626C99.8105 83.7046 100.747 84.3976 102.268 84.3976C103.789 84.3976 104.761 83.7046 104.761 82.4626C104.761 81.6526 104.32 81.1486 103.645 80.8966ZM102.295 80.5186C101.512 80.5186 101.035 80.1586 101.035 79.6546C101.035 79.1776 101.359 78.7636 102.277 78.7636C103.195 78.7636 103.537 79.2136 103.537 79.6906C103.537 80.1496 103.105 80.5186 102.295 80.5186ZM102.286 83.5336C101.314 83.5336 100.765 83.1106 100.765 82.4446C100.765 81.8056 101.269 81.4096 102.277 81.4096C103.33 81.4096 103.807 81.8236 103.807 82.4896C103.807 83.1016 103.294 83.5336 102.286 83.5336Z" fill="#2B2D30"/>
<path d="M97.4883 58.6555V18.7046" stroke="#8087A3"/>
<path d="M191.074 32.1023V63.081H190.424" stroke="#8087A3"/>
<path d="M55.4912 102.911V132.783H35.5821" stroke="#8087A3"/>
<path d="M87.5664 87.4214V136.102H113.006" stroke="#8087A3"/>
<defs>
<filter id="filter0_d_9057_169186" x="4.13672" y="1.75684" width="261.311" height="191.213" filterUnits="userSpaceOnUse" color-interpolation-filters="sRGB">
<feFlood flood-opacity="0" result="BackgroundImageFix"/>
<feColorMatrix in="SourceAlpha" type="matrix" values="0 0 0 0 0 0 0 0 0 0 0 0 0 0 0 0 0 0 127 0" result="hardAlpha"/>
<feOffset dx="4" dy="15"/>
<feGaussianBlur stdDeviation="25"/>
<feColorMatrix type="matrix" values="0 0 0 0 0.39738 0 0 0 0 0.39738 0 0 0 0 0.39738 0 0 0 0.25 0"/>
<feBlend mode="normal" in2="BackgroundImageFix" result="effect1_dropShadow_9057_169186"/>
<feBlend mode="normal" in="SourceGraphic" in2="effect1_dropShadow_9057_169186" result="shape"/>
</filter>
<filter id="filter1_d_9057_169186" x="-36.1904" y="-9.95312" width="252.205" height="186.282" filterUnits="userSpaceOnUse" color-interpolation-filters="sRGB">
<feFlood flood-opacity="0" result="BackgroundImageFix"/>
<feColorMatrix in="SourceAlpha" type="matrix" values="0 0 0 0 0 0 0 0 0 0 0 0 0 0 0 0 0 0 127 0" result="hardAlpha"/>
<feOffset dx="4" dy="15"/>
<feGaussianBlur stdDeviation="25"/>
<feColorMatrix type="matrix" values="0 0 0 0 0.458515 0 0 0 0 0.458515 0 0 0 0 0.458515 0 0 0 0.35 0"/>
<feBlend mode="normal" in2="BackgroundImageFix" result="effect1_dropShadow_9057_169186"/>
<feBlend mode="normal" in="SourceGraphic" in2="effect1_dropShadow_9057_169186" result="shape"/>
</filter>
</defs>
</svg>
