<svg width="128" height="23" viewBox="0 0 128 23" fill="none" xmlns="http://www.w3.org/2000/svg">
<rect y="0.992188" width="128" height="22" rx="4" fill="#F2F2F2"/>
<mask id="mask0_7559_180568" style="mask-type:alpha" maskUnits="userSpaceOnUse" x="4" y="3" width="18" height="17">
<path fill-rule="evenodd" clip-rule="evenodd" d="M13 16.3839L18.15 19.4923L16.7833 13.6339L21.3333 9.69227L15.3417 9.18394L13 3.65894L10.6583 9.18394L4.66666 9.69227L9.21666 13.6339L7.84999 19.4923L13 16.3839Z" fill="white"/>
</mask>
<g mask="url(#mask0_7559_180568)">
<rect x="3" y="1.99219" width="20" height="20" fill="black"/>
</g>
<path d="M35.3661 7.19219H33.7981L31.6421 12.4142C31.4041 12.9882 31.1241 13.6882 30.9841 14.0942C30.8581 13.6882 30.5501 12.9742 30.3121 12.4142L28.1141 7.19219H26.6021V16.9922H27.9881V11.8122C27.9881 11.2242 27.9741 10.3702 27.9601 10.0902C28.0721 10.3702 28.3521 11.0702 28.5901 11.6302L30.9421 17.1462L33.3221 11.6302C33.5601 11.0702 33.8401 10.3702 33.9521 10.0902C33.9381 10.3702 33.9241 11.2242 33.9241 11.8122V16.9922H35.3661V7.19219ZM40.6248 9.48819C38.7768 9.48819 37.3488 10.9162 37.3488 13.3242C37.3488 15.6202 38.7348 17.1462 40.5828 17.1462C42.4728 17.1462 43.9008 15.7182 43.9008 13.2822C43.9008 10.9862 42.5008 9.48819 40.6248 9.48819ZM40.6388 15.7742C39.5468 15.7742 38.8048 14.8922 38.8048 13.2822C38.8048 11.8262 39.4768 10.8602 40.5688 10.8602C41.7308 10.8602 42.4448 11.8262 42.4448 13.3242C42.4448 14.6682 41.7308 15.7742 40.6388 15.7742ZM48.2064 12.5122C47.1004 12.0782 46.8484 11.8122 46.8484 11.4482C46.8484 11.0562 47.1564 10.7762 47.8564 10.7762C48.5564 10.7762 49.1584 10.9862 49.7604 11.4062L50.3904 10.3002C49.7324 9.82419 48.8224 9.48819 47.8984 9.48819C46.4284 9.48819 45.3924 10.1742 45.3924 11.4902C45.3924 12.6522 45.9664 13.1842 47.5484 13.8002C48.6124 14.2062 49.2564 14.4722 49.2564 15.0322C49.2564 15.5502 48.8224 15.8442 47.9124 15.8442C47.2264 15.8442 46.4564 15.5922 45.7704 15.1162L45.1124 16.2082C45.8544 16.7542 46.9324 17.1462 47.9264 17.1462C49.3684 17.1462 50.6844 16.6002 50.6844 14.9762C50.6844 13.5902 49.8444 13.1422 48.2064 12.5122ZM55.014 15.8302C54.482 15.8302 54.258 15.6342 54.258 14.9482V10.9582H56.078V9.64219H54.258V6.78619L52.844 7.54219V9.64219H51.794V10.9582H52.844V15.2002C52.844 16.5162 53.474 17.1462 54.496 17.1462C55.07 17.1462 55.56 17.0062 55.91 16.8102L56.078 15.5362C55.812 15.6902 55.392 15.8302 55.014 15.8302ZM66.128 7.19219H62.026V16.9922H63.468V13.3382H66.03C67.934 13.3382 69.278 12.2742 69.278 10.2582C69.278 8.22819 67.934 7.19219 66.128 7.19219ZM66.1 11.9522H63.468V8.57819H66.1C67.122 8.57819 67.78 9.18019 67.78 10.2582C67.78 11.3082 67.22 11.9522 66.1 11.9522ZM74.0844 9.48819C73.3564 9.48819 72.7404 9.85219 72.4044 10.3422V9.64219H70.9624V16.9922H72.4044V12.7922C72.4044 11.5462 72.9364 10.9022 73.8464 10.9022C74.3224 10.9022 74.6444 11.0002 74.9524 11.1682L75.3304 9.79619C75.0364 9.60019 74.6724 9.48819 74.0844 9.48819ZM79.3285 9.48819C77.4245 9.48819 76.1085 10.8322 76.1085 13.3242C76.1085 15.7602 77.5645 17.1462 79.2865 17.1462C80.4065 17.1462 81.1765 16.7962 81.8205 16.1802L80.9665 15.2562C80.4765 15.6202 79.9865 15.8442 79.3705 15.8442C78.4745 15.8442 77.6765 15.2422 77.5225 13.8282H82.3805C82.3945 13.6742 82.4225 13.4362 82.4225 13.1702C82.4225 11.1822 81.4145 9.48819 79.3285 9.48819ZM77.5505 12.6382C77.6765 11.4622 78.2645 10.7902 79.2305 10.7902C80.4205 10.7902 80.8965 11.6302 80.9665 12.6382H77.5505ZM87.5861 6.96819C87.2781 6.88419 86.8721 6.82819 86.4941 6.82819C85.4581 6.82819 84.6321 7.33219 84.6321 8.67619V9.64219H83.6801V10.9862H84.6321V16.9922H86.0741V10.9862H87.4321V9.64219H86.0741V8.80219C86.0741 8.27019 86.2701 8.08819 86.7461 8.08819C86.9981 8.08819 87.2501 8.13019 87.5861 8.22819V6.96819ZM91.7699 9.48819C89.8659 9.48819 88.5499 10.8322 88.5499 13.3242C88.5499 15.7602 90.0059 17.1462 91.7279 17.1462C92.8479 17.1462 93.6179 16.7962 94.2619 16.1802L93.4079 15.2562C92.9179 15.6202 92.4279 15.8442 91.8119 15.8442C90.9159 15.8442 90.1179 15.2422 89.9639 13.8282H94.8219C94.8359 13.6742 94.8639 13.4362 94.8639 13.1702C94.8639 11.1822 93.8559 9.48819 91.7699 9.48819ZM89.9919 12.6382C90.1179 11.4622 90.7059 10.7902 91.6719 10.7902C92.8619 10.7902 93.3379 11.6302 93.4079 12.6382H89.9919ZM99.7739 9.48819C99.0459 9.48819 98.4299 9.85219 98.0939 10.3422V9.64219H96.6519V16.9922H98.0939V12.7922C98.0939 11.5462 98.6259 10.9022 99.5359 10.9022C100.012 10.9022 100.334 11.0002 100.642 11.1682L101.02 9.79619C100.726 9.60019 100.362 9.48819 99.7739 9.48819ZM105.625 9.48819C104.897 9.48819 104.281 9.85219 103.945 10.3422V9.64219H102.503V16.9922H103.945V12.7922C103.945 11.5462 104.477 10.9022 105.387 10.9022C105.863 10.9022 106.185 11.0002 106.493 11.1682L106.871 9.79619C106.577 9.60019 106.213 9.48819 105.625 9.48819ZM110.87 9.48819C108.966 9.48819 107.65 10.8322 107.65 13.3242C107.65 15.7602 109.106 17.1462 110.828 17.1462C111.948 17.1462 112.718 16.7962 113.362 16.1802L112.508 15.2562C112.018 15.6202 111.528 15.8442 110.912 15.8442C110.016 15.8442 109.218 15.2422 109.064 13.8282H113.922C113.936 13.6742 113.964 13.4362 113.964 13.1702C113.964 11.1822 112.956 9.48819 110.87 9.48819ZM109.092 12.6382C109.218 11.4622 109.806 10.7902 110.772 10.7902C111.962 10.7902 112.438 11.6302 112.508 12.6382H109.092ZM118.524 15.8162C117.46 15.8162 116.872 15.0042 116.872 13.1562C116.872 11.6022 117.432 10.8182 118.468 10.8182C119.196 10.8182 119.868 11.3502 120.19 11.7842V14.8782C119.812 15.3542 119.21 15.8162 118.524 15.8162ZM121.604 6.78619L120.176 7.52819V10.3282C119.77 9.88019 119.07 9.48819 118.328 9.48819C116.802 9.48819 115.43 10.6782 115.43 13.1982C115.43 15.9982 116.676 17.1462 118.258 17.1462C119.028 17.1462 119.644 16.7822 120.176 16.2922V16.9922H121.604V6.78619Z" fill="black"/>
</svg>
