<?xml version="1.0" encoding="UTF-8"?>
<svg width="408px" height="300px" viewBox="0 0 408 300" version="1.1" xmlns="http://www.w3.org/2000/svg" xmlns:xlink="http://www.w3.org/1999/xlink">
    <title>0DA3DA9C-C41E-49FC-A4DF-12FEF4D690FD</title>
    <g id="New-Theme_profile-configuration" stroke="none" stroke-width="1" fill="none" fill-rule="evenodd">
        <g id="Settings--Payment-Methods_clear-parent-notification" transform="translate(-552.000000, -680.000000)" fill-rule="nonzero">
            <g id="undraw_success_factors_fay0" transform="translate(552.000000, 680.000000)">
                <path d="M408,290.767542 C406.708217,302.591736 338.897361,301.59914 339,290.766839 C340.291769,278.943344 408.102625,279.935954 408,290.767542 Z" id="Path" fill="#E6E6E6"></path>
                <polygon id="Path" fill="#FFB8B8" points="361 261.200804 358.250114 267.267455 353.208125 266.800896 350 256.06727 355.041534 253.267455"></polygon>
                <polygon id="Path" fill="#FFB8B8" points="378.888559 273.694855 379 277.812582 371 278.267455 371 273.267455"></polygon>
                <polygon id="Path" fill="#0B1941" points="376.163415 198.700124 374.272514 235.456474 379 275.429615 364.818011 277.267455 355.836585 226.727074 353 192.267455"></polygon>
                <path d="M397.660737,184.262854 C397.660737,184.262854 403.243326,220.863776 391.612929,232.909652 C379.982532,244.955529 364.165192,266.267455 364.165192,266.267455 L353,252.36837 L381.378178,222.253687 L375.795589,201.868377 L353,191.212412 L356.721748,165.730756 L390.217292,165.267455 L397.660737,184.262854 Z" id="Path" fill="#0B1941"></path>
                <circle id="Oval" fill="#FFB8B8" cx="370" cy="89.267455" r="10"></circle>
                <path d="M378.013787,92.267455 C378.013787,92.267455 378.458745,106.660311 380.683519,108.517455 C382.908294,110.374599 372.674328,118.267455 372.674328,118.267455 L366,107.124599 L366,96.9103108 L378.013787,92.267455 Z" id="Path" fill="#FFB8B8"></path>
                <polygon id="Path" fill="#D0CDE1" points="374.213177 111.728641 379.985007 103.267455 383.245647 107.574876 388 120.498055 384.196706 170.80557 361.852235 171.267455 359 113.574809 366.130823 105.26728"></polygon>
                <path d="M351.294125,114.731505 L347.529403,114.267455 C347.529403,114.267455 346.588227,114.731505 346.117641,117.979871 C345.647056,121.228237 340,149.99948 340,149.99948 L347.529403,185.267455 L356,174.130202 L350.823535,154.640006 L356,135.149806 L351.294125,114.731505 Z" id="Path" fill="#0B1941"></path>
                <polygon id="Path" fill="#0B1941" points="398.454586 114.267455 401.181654 114.267455 408 151.392143 401.636541 180.267455 395.272632 169.725602 397.090827 158.267304 396.181955 148.184128 393 142.225413"></polygon>
                <path d="M356.228958,264.74275 C356.228958,264.74275 359,263.818653 359,265.666847 C359,267.51504 357.152629,273.059617 357.152629,273.059617 C357.152629,273.059617 359.923672,290.155377 355.767111,289.231299 C351.61055,288.30722 348.377669,280.452386 347.915827,278.142147 C347.453984,275.831907 345.144789,263.818653 345.144789,263.818653 C345.144789,263.818653 341.450048,255.039741 343.75927,254.577695 C346.068493,254.115649 352.53423,252.267455 352.53423,252.267455 C352.53423,252.267455 348.839517,263.81863 356.228958,264.74275 Z" id="Path" fill="#2F2E41"></path>
                <path d="M369.798135,278.636002 C369.798135,278.636002 376.760538,273.99365 378.065987,277.707531 C378.931783,280.416383 379.5155,283.218662 379.806598,286.06376 C379.806598,286.06376 381.547208,292.098811 374.584796,291.170345 C367.622384,290.24188 368.492694,290.241875 368.057541,287.456445 C367.622389,284.671016 369.798135,278.636002 369.798135,278.636002 Z" id="Path" fill="#2F2E41"></path>
                <path d="M375.381594,89.3742679 L373.496293,88.9018632 C373.496293,88.9018632 372.082326,80.8710291 368.783067,81.8158339 C365.483809,82.7606388 357,83.705453 357,79.9262149 C357,76.1469768 365.012484,72.840181 369.725709,73.3125857 C374.438934,73.7849905 382.451422,75.2022048 381.980102,82.2882247 C381.508781,89.3742445 378.46745,96.267455 378.46745,96.267455 L378.221781,92.066191 L375.381594,89.3742679 Z" id="Path" fill="#2F2E41"></path>
                <polygon id="Path" fill="#D0CDE1" points="366.576793 117.267455 374 111.728888 366.576793 105.267455 364 108.536357"></polygon>
                <polygon id="Path" fill="#D0CDE1" points="381.105189 116.267455 374 111.336267 379.683963 103.267455 383 107.301861"></polygon>
                <path d="M347,114.23449 L361.736843,108.207911 L365.190789,105.658207 L375.552633,151.784701 L382.460525,130.92347 L380.388156,104.267455 L399.5,114.23449 L393.052631,145.758122 L392.131577,157.81128 L394.894737,167.546519 C394.894737,167.546519 404.565789,174.50026 401.342105,181.917586 C398.118421,189.334912 394.434208,189.798497 394.434208,189.798497 C394.434208,189.798497 378.776317,174.963845 377.855263,171.25518 C376.93421,167.546515 375.552633,161.05636 375.552633,161.05636 C375.552633,161.05636 367.723682,190.725664 358.513177,190.262078 C349.302672,189.798493 349.302654,180.063258 349.302654,180.063258 L351.605285,169.864433 L355.289493,159.202027 L353.447377,141.585876 L347,114.23449 Z" id="Path" fill="#0B1941"></path>
                <rect id="Rectangle" fill="#E6E6E6" x="0" y="0.267454955" width="323" height="207"></rect>
                <rect id="Rectangle" fill="#FFFFFF" x="10" y="26.267455" width="304" height="79"></rect>
                <rect id="Rectangle" fill="#E6E6E6" x="84" y="37.267455" width="65" height="4"></rect>
                <rect id="Rectangle" fill="#4DAFEE" x="85" y="50.267455" width="100" height="4"></rect>
                <rect id="Rectangle" fill="#E6E6E6" x="86" y="63.267455" width="81" height="4"></rect>
                <rect id="Rectangle" fill="#E6E6E6" x="84" y="76.267455" width="48" height="4"></rect>
                <rect id="Rectangle" fill="#E6E6E6" x="86" y="89.267455" width="71" height="4"></rect>
                <rect id="Rectangle" fill="#E6E6E6" x="56" y="36.267455" width="8" height="8"></rect>
                <rect id="Rectangle" fill="#4DAFEE" x="56" y="48.267455" width="8" height="8"></rect>
                <rect id="Rectangle" fill="#E6E6E6" x="56" y="61.267455" width="8" height="8"></rect>
                <rect id="Rectangle" fill="#E6E6E6" x="56" y="74.267455" width="8" height="8"></rect>
                <rect id="Rectangle" fill="#E6E6E6" x="56" y="87.267455" width="8" height="8"></rect>
                <rect id="Rectangle" fill="#E6E6E6" x="245" y="54.267455" width="27" height="27"></rect>
                <rect id="Rectangle" fill="#FFFFFF" x="10" y="116.267455" width="304" height="79"></rect>
                <rect id="Rectangle" fill="#E6E6E6" x="69" y="122.267455" width="8" height="8"></rect>
                <rect id="Rectangle" fill="#4DAFEE" x="56" y="122.267455" width="8" height="8"></rect>
                <path d="M189.817381,139.267455 C184.971835,131.123348 176.482191,125.784076 166.994858,124.914009 C157.507526,124.043942 148.176299,127.748893 141.909929,134.873946 L140,133.21711 C146.800666,125.481712 156.929385,121.458939 167.227807,122.403178 C177.526229,123.347417 186.741461,129.143792 192,137.984872 L189.817381,139.267455 Z" id="Path" fill="#E6E6E6"></path>
                <path d="M190.2254,173.267455 L188,171.86588 C194.726609,162.468905 195.100579,150.290463 188.96173,140.546879 L191.269361,139.267455 C197.935049,149.844786 197.529082,163.06644 190.2254,173.267455 L190.2254,173.267455 Z" id="Path" fill="#4DAFEE"></path>
                <path d="M139.12993,177.267455 C128.390558,165.057288 128.278334,146.612115 138.868308,134.267455 L140.758978,135.949337 C131.003579,147.321719 131.106965,164.313631 141,175.562114 L139.12993,177.267455 Z" id="Path" fill="#4DAFEE"></path>
                <path d="M164.117687,188.267455 C154.912435,188.260401 146.144099,184.279663 140,177.318259 L141.898488,175.591166 C148.039845,182.559255 157.006355,186.255436 166.192427,185.605632 C175.3785,184.955827 183.753862,180.032916 188.884705,172.267455 L191,173.711899 C184.990311,182.813225 174.907978,188.272352 164.117687,188.267455 L164.117687,188.267455 Z" id="Path" fill="#4DAFEE"></path>
                <rect id="Rectangle" fill="#E6E6E6" x="245" y="139.267455" width="27" height="27"></rect>
                <rect id="Rectangle" fill="#E6E6E6" x="54" y="156.267455" width="27" height="27"></rect>
                <rect id="Rectangle" fill="#0B1941" x="0" y="0.267454955" width="323" height="13"></rect>
                <circle id="Oval" fill="#FFFFFF" cx="9.5" cy="7.76745495" r="2.5"></circle>
                <circle id="Oval" fill="#FFFFFF" cx="19.5" cy="7.76745495" r="2.5"></circle>
                <circle id="Oval" fill="#FFFFFF" cx="29.5" cy="7.76745495" r="2.5"></circle>
                <path d="M162.499945,170.267455 L162.499945,166.822883 C160.794084,166.788914 159.029347,166.174811 158,165.322231 L158.705817,163.037285 C159.929076,163.972995 161.412561,164.48661 162.941102,164.503635 C165.029377,164.503635 166.441138,163.105395 166.441138,161.161473 C166.441138,159.285657 165.294037,158.126199 163.117589,157.102952 C160.117578,155.738836 158.264668,154.169923 158.264668,151.202921 C158.264668,148.372133 159.999967,146.223566 162.70588,145.712024 L162.70588,142.267455 L164.52935,142.267455 L164.52935,145.575648 C165.889094,145.594596 167.215399,146.008624 168.352926,146.76924 L167.617534,149.020217 C166.526566,148.257936 165.233786,147.8534 163.911714,147.860594 C161.647095,147.860594 160.794092,149.42935 160.794092,150.793623 C160.794092,152.56703 161.882315,153.453733 164.441179,154.68163 C167.470485,156.113994 169,157.887414 169,160.922687 C169,163.616932 167.382312,166.140839 164.352863,166.720309 L164.352863,170.267455 L162.499945,170.267455 Z" id="Path" fill="#0B1941"></path>
                <path d="M257.863601,75.267455 L257.863601,73.4221487 C256.778053,73.4039508 255.655039,73.0749672 255,72.6182281 L255.449156,71.3941498 C256.227594,71.8954228 257.17163,72.170574 258.144338,72.1796942 C259.47324,72.1796942 260.371633,71.4306371 260.371633,70.3892501 C260.371633,69.3843489 259.64166,68.7632108 258.256648,68.2150428 C256.34755,67.4842661 255.168425,66.6437771 255.168425,65.054312 C255.168425,63.5378184 256.272706,62.3868002 257.994651,62.1127597 L257.994651,60.267455 L259.155041,60.267455 L259.155041,62.0397012 C260.020332,62.0498517 260.864345,62.2716525 261.588226,62.6791256 L261.120249,63.8850059 C260.425996,63.4766411 259.603318,63.2599255 258.762,63.2637794 C257.320879,63.2637794 256.778059,64.1041844 256.778059,64.8350451 C256.778059,65.7850843 257.470564,66.2601038 259.098932,66.9179061 C261.026672,67.6852437 262,68.6352902 262,70.2613295 C262,71.7046746 260.970562,73.0567678 259.042731,73.3671982 L259.042731,75.267455 L257.863601,75.267455 Z" id="Path" fill="#0B1941"></path>
            </g>
        </g>
    </g>
</svg>