<?xml version="1.0" encoding="UTF-8"?>
<svg width="161px" height="56px" viewBox="0 0 161 56" version="1.1" xmlns="http://www.w3.org/2000/svg" xmlns:xlink="http://www.w3.org/1999/xlink">
    <title>840EAA2A-4E2B-4773-856A-758664F00B22</title>
    <g id="Client-Portal-Phase-1" stroke="none" stroke-width="1" fill="none" fill-rule="evenodd">
        <g id="Dashboard-SE---no-Data" transform="translate(-442.000000, -494.000000)" fill-rule="nonzero">
            <g id="Group-13" transform="translate(442.000000, 494.000000)">
                <path d="M160.01,28.3300721 C160.01,28.3300721 140.58,-4.45992789 121.01,14.2000721 C121.01,14.2000721 116.61,16.1000721 117.23,20.8400721 C117.23,20.8400721 118.9,19.7800721 120.5,23.3300721 C121.072149,24.5920022 121.794,25.7805373 122.65,26.8700721 C123.798341,28.3447467 125.401216,29.3992697 127.21,29.8700721 L127.21,29.8700721 C127.21,29.8700721 136.86,36.2500721 153.67,29.8700721 C153.67,29.8700721 158.55,30.2800721 159.29,29.6300721 L153.42,25.8500721 C153.42,25.8500721 150.82,30.2600721 146.66,30.9900721 C146.66,30.9900721 153.43,26.1600721 152.58,25.2500721 C152.4,25.0600721 149.38,23.3800721 149.38,23.3800721 C149.38,23.3800721 144.81,31.0300721 138.38,31.9600721 C138.38,31.9600721 147.22,27.2800721 148.25,22.7400721 L143.53,20.5200721 C143.53,20.5200721 139.1,28.8500721 131.79,30.1800721 C131.79,30.1800721 140.86,24.9700721 142.46,20.1000721 L137.52,18.5000721 C137.52,18.5000721 133.04,26.5000721 126.96,27.6000721 C126.96,27.6000721 136.82,20.5200721 136.36,18.2100721 C136.36,18.2100721 131.74,17.0100721 130.36,17.2900721 C130.36,17.2900721 127.01,22.9800721 123.42,23.2900721 C123.42,23.2900721 129.51,17.8700721 129.05,17.1100721 C129.05,17.1100721 122.61,17.1600721 119.36,18.9100721 C122.271369,17.1539924 125.590929,16.1888037 128.99,16.1100721 C127.5119,14.6235426 125.631419,13.6016174 123.58,13.1700721 C123.58,13.1700721 127.03,11.5000721 130.58,16.1100721 C130.58,16.1100721 135.58,16.2800721 136.25,16.7900721 C136.25,16.7900721 133.42,11.7900721 130.18,9.73007211 C130.18,9.73007211 134.86,10.2700721 137.57,17.1700721 L142.57,18.6700721 C142.57,18.6700721 139.18,11.8100721 136.42,9.79007211 C136.42,9.79007211 141.12,11.0800721 143.8,19.1500721 L148.45,21.3200721 C148.45,21.3200721 145.98,15.1900721 143.45,12.3200721 C143.45,12.3200721 147.54,14.4500721 149.81,22.0300721 L152.74,23.8500721 C152.74,23.8500721 150.86,19.4000721 150.2,18.1700721 C149.54,16.9400721 149.82,16.6700721 149.82,16.6700721 C151.916179,18.8732797 153.359752,21.6150294 153.99,24.5900721 C153.99,24.5900721 159.72,28.6600721 160.01,28.3300721 Z" id="Path" fill="#EAECF1" transform="translate(138.590066, 20.581714) scale(-1, 1) translate(-138.590066, -20.581714) "></path>
                <ellipse id="Oval" fill="#DADDE6" opacity="0.565587798" cx="26.93" cy="51.3800721" rx="26.93" ry="4.55"></ellipse>
                <ellipse id="Oval" fill="#EAECF1" cx="62.97" cy="29.6500721" rx="40.21" ry="6.8"></ellipse>
                <path d="M79.64,18.5200721 C81.4756202,17.0285125 82.8118953,15.0118885 83.47,12.7400721 C83.97,10.4400721 82.99,7.69007211 80.8,6.85007211 C78.34,5.91007211 75.71,7.61007211 73.71,9.33007211 C71.71,11.0500721 69.44,13.0200721 66.83,12.6600721 C69.5552847,10.1843134 70.7846835,6.46196707 70.07,2.85007211 C69.9566943,2.11419172 69.6456183,1.42291186 69.17,0.850072114 C67.8,-0.609927886 65.33,0.0200721144 63.69,1.17007211 C58.49,4.83007211 57.04,11.8900721 57.01,18.2500721 C56.49,15.9600721 56.93,13.5700721 56.92,11.2500721 C56.91,8.93007211 56.26,6.25007211 54.27,5.03007211 C53.0485149,4.34898812 51.6682911,4.00393215 50.27,4.03007211 C47.93,3.95007211 45.32,4.18007211 43.73,5.89007211 C41.73,8.01007211 42.26,11.5800721 43.98,13.8900721 C45.7,16.2000721 48.33,17.6900721 50.75,19.3100721 C52.6868377,20.4666966 54.3405209,22.0417956 55.59,23.9200721 C55.7323868,24.1816973 55.8495806,24.4562657 55.94,24.7400721 L70.6,24.7400721 C73.8819374,23.0870922 76.923262,20.9944994 79.64,18.5200721 Z" id="Path" fill="#DBE0ED"></path>
            </g>
        </g>
    </g>
</svg>