<svg width="89" height="89" viewBox="0 0 89 89" fill="none" xmlns="http://www.w3.org/2000/svg">
<g filter="url(#filter0_d_6369_141402)">
<rect x="12" y="12" width="65" height="65" rx="20" fill="white"/>
<rect x="14" y="14" width="61" height="61" rx="18" stroke="#27AE60" stroke-width="4"/>
</g>
<path d="M42.3024 46.9778C42.3024 46.9778 40.2225 49.246 37.7949 49.6216C35.3673 49.246 33.2875 46.9778 33.2875 46.9778L29.4985 47.9214C28.6885 48.123 28.0353 48.9829 27.8259 50.1228L27 54.6291H37.796H38.6858" stroke="#93D6AF" stroke-width="0.8" stroke-linecap="round"/>
<path d="M37.2016 43.1522C40.0188 43.1522 42.3024 40.2976 42.3024 36.7762C42.3024 33.2548 40.0188 30.4002 37.2016 30.4002C34.3845 30.4002 32.1008 33.2548 32.1008 36.7762C32.1008 40.2976 34.3845 43.1522 37.2016 43.1522Z" stroke="#93D6AF" stroke-width="0.8"/>
<path d="M49.2983 49.1779L52.5019 50.4529L60.1808 31.1601L56.9773 29.885L49.2983 49.1779Z" stroke="#93D6AF" stroke-miterlimit="10"/>
<path d="M48.1197 55.127L49.2568 55.5797C49.8273 55.8067 50.4742 55.5284 50.7011 54.9578L52.5004 50.4379L49.2967 49.1628L47.4974 53.6827C47.2708 54.2533 47.5492 54.8997 48.1197 55.127Z" stroke="#93D6AF" stroke-miterlimit="10"/>
<path d="M48.6885 55.3545L47.4032 58.5835" stroke="#93D6AF" stroke-miterlimit="10" stroke-linecap="round"/>
<path d="M60.422 27.5315L59.2849 27.0788C58.7144 26.8514 58.0676 27.1298 57.8406 27.7007L56.9763 29.8713L60.1801 31.1464L61.0443 28.9762C61.2709 28.4053 60.9925 27.7584 60.422 27.5315Z" stroke="#93D6AF" stroke-miterlimit="10"/>
<path d="M57.6049 61.87L27 61.9995" stroke="#93D6AF" stroke-miterlimit="10" stroke-linecap="round"/>
<path d="M44.0027 58.4545H27" stroke="#93D6AF" stroke-miterlimit="10" stroke-linecap="round"/>
<path d="M39.8439 47.6687L40.1815 47.9864L40.5238 47.6738L51.9176 37.2684L51.9192 37.2669C52.045 37.151 52.1648 37.0376 52.2817 36.927C52.6016 36.6242 52.8992 36.3425 53.2362 36.0882C53.7712 35.6907 54.298 35.5029 54.7832 35.5C55.2617 35.4973 55.7479 35.6736 56.2155 36.0934L56.2297 36.1062L56.245 36.1179C56.45 36.2753 56.6128 36.4678 56.7256 36.6805C56.8382 36.8931 56.8992 37.1225 56.9066 37.354C56.914 37.5855 56.8678 37.8172 56.7693 38.0344C56.6708 38.2519 56.5212 38.4517 56.3275 38.619L56.3117 38.6326L56.2971 38.6475C55.3931 39.5701 54.4253 40.4359 53.4445 41.3133C53.1221 41.6016 52.7984 41.8913 52.475 42.1846L52.4739 42.1855C51.75 42.8458 51.0265 43.5065 50.303 44.1671C47.65 46.5894 44.9975 49.0113 42.3286 51.4157L42.3282 51.4161C41.4572 52.2024 40.8119 52.5055 40.2367 52.505C39.6611 52.5046 39.0155 52.2001 38.1439 51.4156L38.142 51.4138C36.2323 49.7127 34.3407 48.0042 32.4867 46.2586L32.4866 46.2585C31.8248 45.6358 31.5428 45.08 31.5046 44.6229C31.4684 44.1882 31.6447 43.739 32.1438 43.2885C32.6435 42.8376 33.16 42.6551 33.6877 42.6941C34.2287 42.7341 34.8529 43.0125 35.5393 43.6244C36.5197 44.4983 37.4025 45.3423 38.3513 46.2495C38.8255 46.7029 39.3162 47.1721 39.8439 47.6687Z" fill="#27AE60" stroke="#27AE60"/>
<defs>
<filter id="filter0_d_6369_141402" x="0" y="0" width="89" height="89" filterUnits="userSpaceOnUse" color-interpolation-filters="sRGB">
<feFlood flood-opacity="0" result="BackgroundImageFix"/>
<feColorMatrix in="SourceAlpha" type="matrix" values="0 0 0 0 0 0 0 0 0 0 0 0 0 0 0 0 0 0 127 0" result="hardAlpha"/>
<feMorphology radius="8" operator="erode" in="SourceAlpha" result="effect1_dropShadow_6369_141402"/>
<feOffset/>
<feGaussianBlur stdDeviation="10"/>
<feComposite in2="hardAlpha" operator="out"/>
<feColorMatrix type="matrix" values="0 0 0 0 0.411765 0 0 0 0 0.623529 0 0 0 0 0.941176 0 0 0 1 0"/>
<feBlend mode="normal" in2="BackgroundImageFix" result="effect1_dropShadow_6369_141402"/>
<feBlend mode="normal" in="SourceGraphic" in2="effect1_dropShadow_6369_141402" result="shape"/>
</filter>
</defs>
</svg>
