<svg width="90" height="89" viewBox="0 0 90 89" fill="none" xmlns="http://www.w3.org/2000/svg">
<g filter="url(#filter0_d_8317_205274)">
<rect x="12.5" y="12" width="65" height="65" rx="20" fill="white"/>
<rect x="14.75" y="14.25" width="60.5" height="60.5" rx="17.75" stroke="#2B2D30" stroke-width="4.5"/>
</g>
<path d="M42.8024 46.9785C42.8024 46.9785 40.7225 49.2466 38.2949 49.6223C35.8673 49.2466 33.7875 46.9785 33.7875 46.9785L29.9985 47.9221C29.1885 48.1237 28.5353 48.9835 28.3259 50.1235L27.5 54.6297H38.296H39.1858" stroke="#9E9E9E" stroke-width="0.8" stroke-linecap="round"/>
<path d="M37.7016 43.1524C40.5187 43.1524 42.8024 40.2978 42.8024 36.7764C42.8024 33.255 40.5187 30.4004 37.7016 30.4004C34.8845 30.4004 32.6008 33.255 32.6008 36.7764C32.6008 40.2978 34.8845 43.1524 37.7016 43.1524Z" stroke="#9E9E9E" stroke-width="0.8"/>
<path d="M49.7983 49.178L53.0019 50.4531L60.6808 31.1603L57.4773 29.8852L49.7983 49.178Z" stroke="#9E9E9E" stroke-miterlimit="10"/>
<path d="M48.6197 55.1283L49.7568 55.581C50.3273 55.8079 50.9742 55.5296 51.2011 54.9591L53.0004 50.4391L49.7967 49.1641L47.9974 53.684C47.7708 54.2545 48.0492 54.901 48.6197 55.1283Z" stroke="#9E9E9E" stroke-miterlimit="10"/>
<path d="M49.1886 55.3555L47.9032 58.5845" stroke="#9E9E9E" stroke-miterlimit="10" stroke-linecap="round"/>
<path d="M60.922 27.532L59.7849 27.0793C59.2144 26.8519 58.5676 27.1303 58.3407 27.7012L57.4763 29.8718L60.6801 31.1469L61.5443 28.9767C61.7709 28.4057 61.4926 27.7589 60.922 27.532Z" stroke="#9E9E9E" stroke-miterlimit="10"/>
<path d="M58.1049 61.8711L27.5 62.0006" stroke="#9E9E9E" stroke-miterlimit="10" stroke-linecap="round"/>
<path d="M44.5027 58.4551H27.5" stroke="#9E9E9E" stroke-miterlimit="10" stroke-linecap="round"/>
<defs>
<filter id="filter0_d_8317_205274" x="0.5" y="0" width="89" height="89" filterUnits="userSpaceOnUse" color-interpolation-filters="sRGB">
<feFlood flood-opacity="0" result="BackgroundImageFix"/>
<feColorMatrix in="SourceAlpha" type="matrix" values="0 0 0 0 0 0 0 0 0 0 0 0 0 0 0 0 0 0 127 0" result="hardAlpha"/>
<feMorphology radius="8" operator="erode" in="SourceAlpha" result="effect1_dropShadow_8317_205274"/>
<feOffset/>
<feGaussianBlur stdDeviation="10"/>
<feComposite in2="hardAlpha" operator="out"/>
<feColorMatrix type="matrix" values="0 0 0 0 0.619608 0 0 0 0 0.619608 0 0 0 0 0.619608 0 0 0 1 0"/>
<feBlend mode="normal" in2="BackgroundImageFix" result="effect1_dropShadow_8317_205274"/>
<feBlend mode="normal" in="SourceGraphic" in2="effect1_dropShadow_8317_205274" result="shape"/>
</filter>
</defs>
</svg>
