<svg width="89" height="89" viewBox="0 0 89 89" fill="none" xmlns="http://www.w3.org/2000/svg">
<g filter="url(#filter0_d_8317_213887)">
<rect x="12" y="12" width="65" height="65" rx="20" fill="white"/>
<rect x="14.25" y="14.25" width="60.5" height="60.5" rx="17.75" stroke="#2B2D30" stroke-width="4.5"/>
</g>
<path d="M27.7393 32.0254H33.1876C32.9367 32.1184 32.7054 32.2408 32.5018 32.3889C32.0648 32.7068 31.7325 33.1639 31.6581 33.7091H27.7393V32.0254Z" fill="#CCCCCC" stroke="#9E9E9E"/>
<path d="M32.0406 38.8418H27" stroke="#9E9E9E" stroke-miterlimit="10"/>
<path d="M44.85 28H27" stroke="#9E9E9E" stroke-miterlimit="10"/>
<mask id="path-6-inside-1_8317_213887" fill="white">
<path d="M62 52H38V53H62V52Z"/>
</mask>
<path d="M62 52H38V53H62V52Z" fill="#8F9EC4"/>
<path d="M38 52V51H37V52H38ZM62 52H63V51H62V52ZM62 53V54H63V53H62ZM38 53H37V54H38V53ZM38 53H62V51H38V53ZM61 52V53H63V52H61ZM62 52H38V54H62V52ZM39 53V52H37V53H39Z" fill="#9E9E9E" mask="url(#path-6-inside-1_8317_213887)"/>
<path d="M38.8342 37.6609C38.8342 38.2778 38.3334 38.7789 37.7142 38.7789C37.0951 38.7789 36.5942 38.2778 36.5942 37.6609C36.5942 37.0441 37.0951 36.543 37.7142 36.543C38.3334 36.543 38.8342 37.0441 38.8342 37.6609Z" fill="#CCCCCC" stroke="#9E9E9E"/>
<path d="M40.0424 36.5516C40.5079 36.6177 40.9162 37.0576 40.9162 37.6609C40.9162 38.2643 40.5079 38.7042 40.0424 38.7703C40.1787 38.4287 40.2539 38.0536 40.2539 37.6609C40.2539 37.2682 40.1787 36.8932 40.0424 36.5516Z" fill="#8F9EC4" stroke="#9E9E9E"/>
<path d="M36.0337 46.1738H38.7553" stroke="#9E9E9E" stroke-miterlimit="10" stroke-linecap="round" stroke-linejoin="round"/>
<path d="M41.1826 46.1738H43.9039" stroke="#9E9E9E" stroke-miterlimit="10" stroke-linecap="round" stroke-linejoin="round"/>
<path d="M46.333 46.1738H49.0543" stroke="#9E9E9E" stroke-miterlimit="10" stroke-linecap="round" stroke-linejoin="round"/>
<path d="M51.4819 46.1738H54.2036" stroke="#9E9E9E" stroke-miterlimit="10" stroke-linecap="round" stroke-linejoin="round"/>
<path d="M54.6626 49.9509H35.5751C34.3081 49.9509 33.2812 48.8399 33.2812 47.4691V36.4467C33.2812 35.0759 34.3081 33.9648 35.5751 33.9648H54.6626C55.9295 33.9648 56.9564 35.0759 56.9564 36.4467V47.4691C56.9564 48.8399 55.9295 49.9509 54.6626 49.9509Z" stroke="#9E9E9E" stroke-miterlimit="10" stroke-linecap="round" stroke-linejoin="round"/>
<path d="M56.9563 39.4238H60.4098C61.2883 39.4238 61.9999 40.1938 61.9999 41.1442V53.6895C61.9999 54.6395 61.2883 55.4099 60.4098 55.4099H39.9148C39.0367 55.4099 38.3247 54.6395 38.3247 53.6895V49.9523" stroke="#9E9E9E" stroke-miterlimit="10" stroke-linecap="round" stroke-linejoin="round"/>
<path d="M53.3511 38.7785H51.0232C50.8654 38.7785 50.6714 38.6272 50.6714 38.3569V36.9646C50.6714 36.6939 50.8654 36.543 51.0232 36.543H53.3511C53.5096 36.543 53.7034 36.6942 53.7034 36.9646V38.3569C53.7034 38.6271 53.5095 38.7785 53.3511 38.7785Z" fill="#CCCCCC" stroke="#9E9E9E"/>
<mask id="path-17-inside-2_8317_213887" fill="white">
<path d="M47.083 38.9652V38.8718C47.083 38.0927 46.4206 37.4445 45.5518 37.3119V36.8926H44.8954V37.3119C44.0262 37.4445 43.3638 38.0929 43.3638 38.8718C43.3638 39.5437 43.8846 40.1263 44.7225 40.3924C44.8353 40.4282 44.9504 40.4603 45.0652 40.4923C45.2609 40.5469 45.4636 40.6035 45.6492 40.6789C46.1433 40.879 46.4266 41.2231 46.4266 41.6225C46.4266 42.1884 45.8868 42.6491 45.2234 42.6491C44.5715 42.6491 44.032 42.1978 44.0199 41.6433L44.018 41.5518H43.3623L43.3638 41.6463C43.3761 42.4125 44.0378 43.0504 44.8954 43.1824V43.6019H45.5518V43.1826C46.4206 43.0497 47.083 42.4016 47.083 41.6227C47.083 41.2685 46.9444 40.9433 46.659 40.6285C46.3887 40.3305 45.9735 40.1769 45.6421 40.0764C45.551 40.0487 45.4575 40.0228 45.3638 39.9971C45.0549 39.9116 44.7349 39.8231 44.4812 39.6613C44.1966 39.4801 44.0199 39.1777 44.0199 38.8718C44.0199 38.3059 44.5597 37.8454 45.2234 37.8454C45.8868 37.8454 46.4266 38.3059 46.4266 38.8718V38.9652H47.083Z"/>
</mask>
<path d="M47.083 38.9652V38.8718C47.083 38.0927 46.4206 37.4445 45.5518 37.3119V36.8926H44.8954V37.3119C44.0262 37.4445 43.3638 38.0929 43.3638 38.8718C43.3638 39.5437 43.8846 40.1263 44.7225 40.3924C44.8353 40.4282 44.9504 40.4603 45.0652 40.4923C45.2609 40.5469 45.4636 40.6035 45.6492 40.6789C46.1433 40.879 46.4266 41.2231 46.4266 41.6225C46.4266 42.1884 45.8868 42.6491 45.2234 42.6491C44.5715 42.6491 44.032 42.1978 44.0199 41.6433L44.018 41.5518H43.3623L43.3638 41.6463C43.3761 42.4125 44.0378 43.0504 44.8954 43.1824V43.6019H45.5518V43.1826C46.4206 43.0497 47.083 42.4016 47.083 41.6227C47.083 41.2685 46.9444 40.9433 46.659 40.6285C46.3887 40.3305 45.9735 40.1769 45.6421 40.0764C45.551 40.0487 45.4575 40.0228 45.3638 39.9971C45.0549 39.9116 44.7349 39.8231 44.4812 39.6613C44.1966 39.4801 44.0199 39.1777 44.0199 38.8718C44.0199 38.3059 44.5597 37.8454 45.2234 37.8454C45.8868 37.8454 46.4266 38.3059 46.4266 38.8718V38.9652H47.083Z" fill="#8F9EC4"/>
<path d="M45.5518 37.3119H44.5518V38.1708L45.4009 38.3005L45.5518 37.3119ZM45.5518 36.8926H46.5518V35.8926H45.5518V36.8926ZM44.8954 36.8926V35.8926H43.8954V36.8926H44.8954ZM44.8954 37.3119L45.0462 38.3005L45.8954 38.1709V37.3119H44.8954ZM44.7225 40.3924L44.4199 41.3455L44.4201 41.3456L44.7225 40.3924ZM45.0652 40.4923L45.3341 39.5291L45.3331 39.5288L45.0652 40.4923ZM45.6492 40.6789L45.2728 41.6053L45.2738 41.6057L45.6492 40.6789ZM44.0199 41.6433L43.0201 41.6647L43.0202 41.665L44.0199 41.6433ZM44.018 41.5518L45.0177 41.5303L44.9967 40.5518H44.018V41.5518ZM43.3623 41.5518V40.5518H42.3459L42.3624 41.568L43.3623 41.5518ZM43.3638 41.6463L44.3637 41.6302L44.3637 41.6301L43.3638 41.6463ZM44.8954 43.1824H45.8954V42.3245L45.0475 42.194L44.8954 43.1824ZM44.8954 43.6019H43.8954V44.6019H44.8954V43.6019ZM45.5518 43.6019V44.6019H46.5518V43.6019H45.5518ZM45.5518 43.1826L45.4006 42.1941L44.5518 42.3238V43.1826H45.5518ZM46.659 40.6285L47.3999 39.9569L47.3998 39.9568L46.659 40.6285ZM45.6421 40.0764L45.9324 39.1194L45.9322 39.1194L45.6421 40.0764ZM45.3638 39.9971L45.0972 40.9609L45.0992 40.9614L45.3638 39.9971ZM44.4812 39.6613L45.0188 38.8181L45.0184 38.8179L44.4812 39.6613ZM46.4266 38.9652H45.4266V39.9652H46.4266V38.9652ZM48.083 38.9652V38.8718H46.083V38.9652H48.083ZM48.083 38.8718C48.083 37.4767 46.9288 36.5105 45.7026 36.3234L45.4009 38.3005C45.9125 38.3786 46.083 38.7086 46.083 38.8718H48.083ZM46.5518 37.3119V36.8926H44.5518V37.3119H46.5518ZM45.5518 35.8926H44.8954V37.8926H45.5518V35.8926ZM43.8954 36.8926V37.3119H45.8954V36.8926H43.8954ZM44.7445 36.3233C43.5181 36.5105 42.3638 37.477 42.3638 38.8718H44.3638C44.3638 38.7088 44.5343 38.3786 45.0462 38.3005L44.7445 36.3233ZM42.3638 38.8718C42.3638 40.1296 43.3303 40.9995 44.4199 41.3455L45.0252 39.4393C44.4388 39.2531 44.3638 38.9578 44.3638 38.8718H42.3638ZM44.4201 41.3456C44.5526 41.3876 44.6843 41.4243 44.7972 41.4557L45.3331 39.5288C45.2164 39.4964 45.1181 39.4688 45.0249 39.4392L44.4201 41.3456ZM44.7963 41.4554C45.0029 41.5131 45.1492 41.5551 45.2728 41.6053L46.0256 39.7524C45.778 39.6518 45.5189 39.5807 45.3341 39.5291L44.7963 41.4554ZM45.2738 41.6057C45.4023 41.6578 45.4467 41.7062 45.4514 41.7118C45.4527 41.7134 45.4455 41.7049 45.4382 41.6854C45.4306 41.6652 45.4266 41.6428 45.4266 41.6225H47.4266C47.4266 40.6725 46.7431 40.043 46.0246 39.752L45.2738 41.6057ZM45.4266 41.6225C45.4266 41.5718 45.4531 41.5631 45.4247 41.5873C45.3945 41.613 45.3261 41.6491 45.2234 41.6491V43.6491C46.2843 43.6491 47.4266 42.8837 47.4266 41.6225H45.4266ZM45.2234 41.6491C45.1255 41.6491 45.0562 41.6146 45.0231 41.5869C44.9908 41.5599 45.0185 41.5666 45.0197 41.6215L43.0202 41.665C43.0471 42.9032 44.1794 43.6491 45.2234 43.6491V41.6491ZM45.0197 41.6218L45.0177 41.5303L43.0182 41.5732L43.0201 41.6647L45.0197 41.6218ZM44.018 40.5518H43.3623V42.5518H44.018V40.5518ZM42.3624 41.568L42.364 41.6625L44.3637 41.6301L44.3622 41.5356L42.3624 41.568ZM42.364 41.6624C42.3861 43.0373 43.5346 43.9847 44.7433 44.1707L45.0475 42.194C44.541 42.1161 44.3662 41.7877 44.3637 41.6302L42.364 41.6624ZM43.8954 43.1824V43.6019H45.8954V43.1824H43.8954ZM44.8954 44.6019H45.5518V42.6019H44.8954V44.6019ZM46.5518 43.6019V43.1826H44.5518V43.6019H46.5518ZM45.7029 44.1711C46.9287 43.9837 48.083 43.0176 48.083 41.6227H46.083C46.083 41.7856 45.9126 42.1158 45.4006 42.1941L45.7029 44.1711ZM48.083 41.6227C48.083 40.9727 47.817 40.417 47.3999 39.9569L45.9182 41.3002C46.0717 41.4696 46.083 41.5644 46.083 41.6227H48.083ZM47.3998 39.9568C46.9282 39.4367 46.2692 39.2216 45.9324 39.1194L45.3519 41.0333C45.4973 41.0774 45.6241 41.1225 45.7314 41.1753C45.8398 41.2288 45.8944 41.274 45.9183 41.3003L47.3998 39.9568ZM45.9322 39.1194C45.8272 39.0875 45.7226 39.0586 45.6285 39.0327L45.0992 40.9614C45.1925 40.987 45.2747 41.0099 45.3521 41.0334L45.9322 39.1194ZM45.6305 39.0333C45.2865 38.9381 45.1223 38.8841 45.0188 38.8181L43.9435 40.5045C44.3475 40.7621 44.8233 40.8851 45.0972 40.9609L45.6305 39.0333ZM45.0184 38.8179C45.0084 38.8115 45.0057 38.8062 45.0073 38.8089C45.0088 38.8114 45.0199 38.8319 45.0199 38.8718H43.0199C43.0199 39.5594 43.4064 40.1624 43.944 40.5048L45.0184 38.8179ZM45.0199 38.8718C45.0199 38.9225 44.9934 38.9314 45.0217 38.9073C45.0518 38.8815 45.1204 38.8454 45.2234 38.8454V36.8454C44.1627 36.8454 43.0199 37.6102 43.0199 38.8718H45.0199ZM45.2234 38.8454C45.3262 38.8454 45.3947 38.8815 45.4248 38.9072C45.4531 38.9313 45.4266 38.9225 45.4266 38.8718H47.4266C47.4266 37.6103 46.284 36.8454 45.2234 36.8454V38.8454ZM45.4266 38.8718V38.9652H47.4266V38.8718H45.4266ZM46.4266 39.9652H47.083V37.9652H46.4266V39.9652Z" fill="#9E9E9E" mask="url(#path-17-inside-2_8317_213887)"/>
<defs>
<filter id="filter0_d_8317_213887" x="0" y="0" width="89" height="89" filterUnits="userSpaceOnUse" color-interpolation-filters="sRGB">
<feFlood flood-opacity="0" result="BackgroundImageFix"/>
<feColorMatrix in="SourceAlpha" type="matrix" values="0 0 0 0 0 0 0 0 0 0 0 0 0 0 0 0 0 0 127 0" result="hardAlpha"/>
<feMorphology radius="8" operator="erode" in="SourceAlpha" result="effect1_dropShadow_8317_213887"/>
<feOffset/>
<feGaussianBlur stdDeviation="10"/>
<feComposite in2="hardAlpha" operator="out"/>
<feColorMatrix type="matrix" values="0 0 0 0 0.2 0 0 0 0 0.2 0 0 0 0 0.2 0 0 0 1 0"/>
<feBlend mode="normal" in2="BackgroundImageFix" result="effect1_dropShadow_8317_213887"/>
<feBlend mode="normal" in="SourceGraphic" in2="effect1_dropShadow_8317_213887" result="shape"/>
</filter>
</defs>
</svg>
