<svg width="90" height="89" viewBox="0 0 90 89" fill="none" xmlns="http://www.w3.org/2000/svg">
<g filter="url(#filter0_d_8317_205296)">
<rect x="12.5" y="12" width="65" height="65" rx="20" fill="white"/>
</g>
<path d="M28.2393 32.0254H33.6876C33.4367 32.1184 33.2054 32.2408 33.0018 32.3889C32.5648 32.7068 32.2325 33.1639 32.1581 33.7091H28.2393V32.0254Z" fill="#CCCCCC" stroke="#9E9E9E"/>
<path d="M32.5406 38.8418H27.5" stroke="#9E9E9E" stroke-miterlimit="10"/>
<path d="M45.3503 28H27.5002" stroke="#9E9E9E" stroke-miterlimit="10"/>
<mask id="path-5-inside-1_8317_205296" fill="white">
<path d="M62.5 52H38.5V53H62.5V52Z"/>
</mask>
<path d="M62.5 52H38.5V53H62.5V52Z" fill="#8F9EC4"/>
<path d="M38.5 52V51H37.5V52H38.5ZM62.5 52H63.5V51H62.5V52ZM62.5 53V54H63.5V53H62.5ZM38.5 53H37.5V54H38.5V53ZM38.5 53H62.5V51H38.5V53ZM61.5 52V53H63.5V52H61.5ZM62.5 52H38.5V54H62.5V52ZM39.5 53V52H37.5V53H39.5Z" fill="#9E9E9E" mask="url(#path-5-inside-1_8317_205296)"/>
<path d="M39.3342 37.6609C39.3342 38.2778 38.8334 38.7789 38.2142 38.7789C37.5951 38.7789 37.0942 38.2778 37.0942 37.6609C37.0942 37.0441 37.5951 36.543 38.2142 36.543C38.8334 36.543 39.3342 37.0441 39.3342 37.6609Z" fill="#CCCCCC" stroke="#9E9E9E"/>
<path d="M40.5424 36.5516C41.008 36.6177 41.4163 37.0576 41.4163 37.6609C41.4163 38.2643 41.0079 38.7042 40.5424 38.7703C40.6788 38.4287 40.754 38.0536 40.754 37.6609C40.754 37.2682 40.6788 36.8932 40.5424 36.5516Z" fill="#8F9EC4" stroke="#9E9E9E"/>
<path d="M36.5337 46.1738H39.2553" stroke="#9E9E9E" stroke-miterlimit="10" stroke-linecap="round" stroke-linejoin="round"/>
<path d="M41.6829 46.1738H44.4041" stroke="#9E9E9E" stroke-miterlimit="10" stroke-linecap="round" stroke-linejoin="round"/>
<path d="M46.8328 46.1738H49.554" stroke="#9E9E9E" stroke-miterlimit="10" stroke-linecap="round" stroke-linejoin="round"/>
<path d="M51.9819 46.1738H54.7036" stroke="#9E9E9E" stroke-miterlimit="10" stroke-linecap="round" stroke-linejoin="round"/>
<path d="M55.1623 49.9509H36.0748C34.8079 49.9509 33.781 48.8399 33.781 47.4691V36.4467C33.781 35.0759 34.8079 33.9648 36.0748 33.9648H55.1623C56.4293 33.9648 57.4562 35.0759 57.4562 36.4467V47.4691C57.4562 48.8399 56.4293 49.9509 55.1623 49.9509Z" stroke="#9E9E9E" stroke-miterlimit="10" stroke-linecap="round" stroke-linejoin="round"/>
<path d="M57.4563 39.4238H60.9098C61.7883 39.4238 62.4999 40.1938 62.4999 41.1442V53.6895C62.4999 54.6395 61.7883 55.4099 60.9098 55.4099H40.4148C39.5367 55.4099 38.8247 54.6395 38.8247 53.6895V49.9523" stroke="#9E9E9E" stroke-miterlimit="10" stroke-linecap="round" stroke-linejoin="round"/>
<path d="M53.8511 38.7785H51.5232C51.3654 38.7785 51.1714 38.6272 51.1714 38.3569V36.9646C51.1714 36.6939 51.3654 36.543 51.5232 36.543H53.8511C54.0096 36.543 54.2034 36.6942 54.2034 36.9646V38.3569C54.2034 38.6271 54.0095 38.7785 53.8511 38.7785Z" fill="#CCCCCC" stroke="#9E9E9E"/>
<mask id="path-16-inside-2_8317_205296" fill="white">
<path d="M47.5833 38.9652V38.8718C47.5833 38.0927 46.9209 37.4445 46.052 37.3119V36.8926H45.3956V37.3119C44.5265 37.4445 43.8641 38.0929 43.8641 38.8718C43.8641 39.5437 44.3848 40.1263 45.2228 40.3924C45.3356 40.4282 45.4506 40.4603 45.5654 40.4923C45.7611 40.5469 45.9638 40.6035 46.1494 40.6789C46.6435 40.879 46.9269 41.2231 46.9269 41.6225C46.9269 42.1884 46.3871 42.6491 45.7236 42.6491C45.0718 42.6491 44.5322 42.1978 44.5202 41.6433L44.5182 41.5518H43.8625L43.8641 41.6463C43.8764 42.4125 44.538 43.0504 45.3956 43.1824V43.6019H46.052V43.1826C46.9209 43.0497 47.5833 42.4016 47.5833 41.6227C47.5833 41.2685 47.4446 40.9433 47.1593 40.6285C46.889 40.3305 46.4737 40.1769 46.1424 40.0764C46.0512 40.0487 45.9578 40.0228 45.8641 39.9971C45.5551 39.9116 45.2351 39.8231 44.9814 39.6613C44.6968 39.4801 44.5202 39.1777 44.5202 38.8718C44.5202 38.3059 45.06 37.8454 45.7236 37.8454C46.3871 37.8454 46.9269 38.3059 46.9269 38.8718V38.9652H47.5833Z"/>
</mask>
<path d="M47.5833 38.9652V38.8718C47.5833 38.0927 46.9209 37.4445 46.052 37.3119V36.8926H45.3956V37.3119C44.5265 37.4445 43.8641 38.0929 43.8641 38.8718C43.8641 39.5437 44.3848 40.1263 45.2228 40.3924C45.3356 40.4282 45.4506 40.4603 45.5654 40.4923C45.7611 40.5469 45.9638 40.6035 46.1494 40.6789C46.6435 40.879 46.9269 41.2231 46.9269 41.6225C46.9269 42.1884 46.3871 42.6491 45.7236 42.6491C45.0718 42.6491 44.5322 42.1978 44.5202 41.6433L44.5182 41.5518H43.8625L43.8641 41.6463C43.8764 42.4125 44.538 43.0504 45.3956 43.1824V43.6019H46.052V43.1826C46.9209 43.0497 47.5833 42.4016 47.5833 41.6227C47.5833 41.2685 47.4446 40.9433 47.1593 40.6285C46.889 40.3305 46.4737 40.1769 46.1424 40.0764C46.0512 40.0487 45.9578 40.0228 45.8641 39.9971C45.5551 39.9116 45.2351 39.8231 44.9814 39.6613C44.6968 39.4801 44.5202 39.1777 44.5202 38.8718C44.5202 38.3059 45.06 37.8454 45.7236 37.8454C46.3871 37.8454 46.9269 38.3059 46.9269 38.8718V38.9652H47.5833Z" fill="#8F9EC4"/>
<path d="M46.052 37.3119H45.052V38.1708L45.9011 38.3005L46.052 37.3119ZM46.052 36.8926H47.052V35.8926H46.052V36.8926ZM45.3956 36.8926V35.8926H44.3956V36.8926H45.3956ZM45.3956 37.3119L45.5465 38.3005L46.3956 38.1709V37.3119H45.3956ZM45.2228 40.3924L44.9201 41.3455L44.9204 41.3456L45.2228 40.3924ZM45.5654 40.4923L45.8344 39.5291L45.8334 39.5288L45.5654 40.4923ZM46.1494 40.6789L45.773 41.6053L45.774 41.6057L46.1494 40.6789ZM44.5202 41.6433L43.5204 41.6647L43.5204 41.665L44.5202 41.6433ZM44.5182 41.5518L45.518 41.5303L45.497 40.5518H44.5182V41.5518ZM43.8625 41.5518V40.5518H42.8462L42.8627 41.568L43.8625 41.5518ZM43.8641 41.6463L44.864 41.6302L44.864 41.6301L43.8641 41.6463ZM45.3956 43.1824H46.3956V42.3245L45.5477 42.194L45.3956 43.1824ZM45.3956 43.6019H44.3956V44.6019H45.3956V43.6019ZM46.052 43.6019V44.6019H47.052V43.6019H46.052ZM46.052 43.1826L45.9009 42.1941L45.052 42.3238V43.1826H46.052ZM47.1593 40.6285L47.9001 39.9569L47.9 39.9568L47.1593 40.6285ZM46.1424 40.0764L46.4326 39.1194L46.4325 39.1194L46.1424 40.0764ZM45.8641 39.9971L45.5974 40.9609L45.5995 40.9614L45.8641 39.9971ZM44.9814 39.6613L45.519 38.8181L45.5186 38.8179L44.9814 39.6613ZM46.9269 38.9652H45.9269V39.9652H46.9269V38.9652ZM48.5833 38.9652V38.8718H46.5833V38.9652H48.5833ZM48.5833 38.8718C48.5833 37.4767 47.429 36.5105 46.2029 36.3234L45.9011 38.3005C46.4128 38.3786 46.5833 38.7086 46.5833 38.8718H48.5833ZM47.052 37.3119V36.8926H45.052V37.3119H47.052ZM46.052 35.8926H45.3956V37.8926H46.052V35.8926ZM44.3956 36.8926V37.3119H46.3956V36.8926H44.3956ZM45.2448 36.3233C44.0184 36.5105 42.8641 37.477 42.8641 38.8718H44.8641C44.8641 38.7088 45.0346 38.3786 45.5465 38.3005L45.2448 36.3233ZM42.8641 38.8718C42.8641 40.1296 43.8306 40.9995 44.9201 41.3455L45.5255 39.4393C44.939 39.2531 44.8641 38.9578 44.8641 38.8718H42.8641ZM44.9204 41.3456C45.0528 41.3876 45.1846 41.4243 45.2975 41.4557L45.8334 39.5288C45.7167 39.4964 45.6183 39.4688 45.5252 39.4392L44.9204 41.3456ZM45.2965 41.4554C45.5031 41.5131 45.6494 41.5551 45.773 41.6053L46.5259 39.7524C46.2782 39.6518 46.0191 39.5807 45.8344 39.5291L45.2965 41.4554ZM45.774 41.6057C45.9026 41.6578 45.947 41.7062 45.9516 41.7118C45.953 41.7134 45.9457 41.7049 45.9384 41.6854C45.9308 41.6652 45.9269 41.6428 45.9269 41.6225H47.9269C47.9269 40.6725 47.2433 40.043 46.5248 39.752L45.774 41.6057ZM45.9269 41.6225C45.9269 41.5718 45.9533 41.5631 45.925 41.5873C45.8948 41.613 45.8264 41.6491 45.7236 41.6491V43.6491C46.7846 43.6491 47.9269 42.8837 47.9269 41.6225H45.9269ZM45.7236 41.6491C45.6258 41.6491 45.5565 41.6146 45.5233 41.5869C45.4911 41.5599 45.5187 41.5666 45.5199 41.6215L43.5204 41.665C43.5473 42.9032 44.6797 43.6491 45.7236 43.6491V41.6491ZM45.5199 41.6218L45.518 41.5303L43.5184 41.5732L43.5204 41.6647L45.5199 41.6218ZM44.5182 40.5518H43.8625V42.5518H44.5182V40.5518ZM42.8627 41.568L42.8642 41.6625L44.864 41.6301L44.8624 41.5356L42.8627 41.568ZM42.8642 41.6624C42.8863 43.0373 44.0348 43.9847 45.2435 44.1707L45.5477 42.194C45.0412 42.1161 44.8665 41.7877 44.864 41.6302L42.8642 41.6624ZM44.3956 43.1824V43.6019H46.3956V43.1824H44.3956ZM45.3956 44.6019H46.052V42.6019H45.3956V44.6019ZM47.052 43.6019V43.1826H45.052V43.6019H47.052ZM46.2031 44.1711C47.4289 43.9837 48.5833 43.0176 48.5833 41.6227H46.5833C46.5833 41.7856 46.4129 42.1158 45.9009 42.1941L46.2031 44.1711ZM48.5833 41.6227C48.5833 40.9727 48.3173 40.417 47.9001 39.9569L46.4184 41.3002C46.572 41.4696 46.5833 41.5644 46.5833 41.6227H48.5833ZM47.9 39.9568C47.4284 39.4367 46.7695 39.2216 46.4326 39.1194L45.8522 41.0333C45.9975 41.0774 46.1243 41.1225 46.2317 41.1753C46.3401 41.2288 46.3946 41.274 46.4185 41.3003L47.9 39.9568ZM46.4325 39.1194C46.3275 39.0875 46.2228 39.0586 46.1287 39.0327L45.5995 40.9614C45.6928 40.987 45.775 41.0099 45.8523 41.0334L46.4325 39.1194ZM46.1308 39.0333C45.7867 38.9381 45.6225 38.8841 45.519 38.8181L44.4438 40.5045C44.8477 40.7621 45.3235 40.8851 45.5974 40.9609L46.1308 39.0333ZM45.5186 38.8179C45.5087 38.8115 45.5059 38.8062 45.5075 38.8089C45.509 38.8114 45.5202 38.8319 45.5202 38.8718H43.5202C43.5202 39.5594 43.9067 40.1624 44.4442 40.5048L45.5186 38.8179ZM45.5202 38.8718C45.5202 38.9225 45.4937 38.9314 45.5219 38.9073C45.5521 38.8815 45.6206 38.8454 45.7236 38.8454V36.8454C44.6629 36.8454 43.5202 37.6102 43.5202 38.8718H45.5202ZM45.7236 38.8454C45.8265 38.8454 45.8949 38.8815 45.9251 38.9072C45.9534 38.9313 45.9269 38.9225 45.9269 38.8718H47.9269C47.9269 37.6103 46.7843 36.8454 45.7236 36.8454V38.8454ZM45.9269 38.8718V38.9652H47.9269V38.8718H45.9269ZM46.9269 39.9652H47.5833V37.9652H46.9269V39.9652Z" fill="#9E9E9E" mask="url(#path-16-inside-2_8317_205296)"/>
<defs>
<filter id="filter0_d_8317_205296" x="0.5" y="0" width="89" height="89" filterUnits="userSpaceOnUse" color-interpolation-filters="sRGB">
<feFlood flood-opacity="0" result="BackgroundImageFix"/>
<feColorMatrix in="SourceAlpha" type="matrix" values="0 0 0 0 0 0 0 0 0 0 0 0 0 0 0 0 0 0 127 0" result="hardAlpha"/>
<feMorphology radius="8" operator="erode" in="SourceAlpha" result="effect1_dropShadow_8317_205296"/>
<feOffset/>
<feGaussianBlur stdDeviation="10"/>
<feComposite in2="hardAlpha" operator="out"/>
<feColorMatrix type="matrix" values="0 0 0 0 0.619608 0 0 0 0 0.619608 0 0 0 0 0.619608 0 0 0 1 0"/>
<feBlend mode="normal" in2="BackgroundImageFix" result="effect1_dropShadow_8317_205296"/>
<feBlend mode="normal" in="SourceGraphic" in2="effect1_dropShadow_8317_205296" result="shape"/>
</filter>
</defs>
</svg>
