<?xml version="1.0" encoding="UTF-8"?>
<svg width="230px" height="146px" viewBox="0 0 230 146" version="1.1" xmlns="http://www.w3.org/2000/svg" xmlns:xlink="http://www.w3.org/1999/xlink">
    <title>01708603-2F56-4FD9-96D1-AF2207134F8F</title>
    <g id="Page-2" stroke="none" stroke-width="1" fill="none" fill-rule="evenodd">
        <g id="VERIFICATION-1" transform="translate(-23.000000, -245.000000)">
            <g id="Group-6" transform="translate(23.000000, 245.000000)">
                <g id="undraw_pay_online_b1hk" transform="translate(0.285714, 0.000000)">
                    <rect id="Rectangle" fill="#66818E" x="0.714285714" y="0" width="222" height="141" rx="10"></rect>
                    <path d="M208.385283,136.569822 C208.372499,136.514667 207.135929,130.989874 209.661324,126.401187 C212.186712,121.812721 217.577406,119.789102 217.631574,119.769107 L217.877945,119.678571 L217.936146,119.93018 C217.948929,119.985333 219.1855,125.510128 216.660104,130.098813 C214.134822,134.687279 208.744023,136.710898 208.689854,136.730893 L208.443371,136.821429 L208.385283,136.569822 Z M217.540063,120.29254 C216.460267,120.747628 212.198606,122.739384 210.065701,126.614782 C207.932573,130.490616 208.576145,135.074031 208.781362,136.207468 C209.86071,135.753479 214.120688,133.764799 216.255723,129.885226 C218.388739,126.009611 217.745393,121.426638 217.540063,120.29254 Z" id="Shape" fill="#3F3D56" fill-rule="nonzero"></path>
                    <path d="M214.75436,128.006548 C210.316358,130.719918 208.607143,136.109419 208.607143,136.109419 C208.607143,136.109419 214.093351,137.099677 218.531354,134.38631 C222.969358,131.672944 224.678571,126.283439 224.678571,126.283439 C224.678571,126.283439 219.192362,125.293178 214.75436,128.006548 Z" id="Path" fill="#D0CDE1" fill-rule="nonzero"></path>
                    <path d="M118.33929,112.178571 C117.810891,112.178571 117.277102,112.170201 116.753168,112.153835 L116.765071,111.7733 C117.517401,111.796735 118.285166,111.803245 119.041029,111.792829 L119.046236,112.173736 C118.81096,112.176897 118.575311,112.178509 118.33929,112.178571 Z M121.338002,112.090226 L121.315682,111.710063 C122.069128,111.665611 122.832245,111.60312 123.583828,111.524445 L123.623633,111.90312 C122.866281,111.982532 122.097399,112.045589 121.338002,112.090226 L121.338002,112.090226 Z M114.463447,112.030896 C113.703679,111.97268 112.935913,111.896424 112.181353,111.803803 L112.22785,111.42587 C112.976645,111.517564 113.738459,111.593447 114.492461,111.651105 L114.463447,112.030896 Z M125.8981,111.612046 L125.841002,111.235603 C126.58961,111.121964 127.343985,110.990097 128.08255,110.843351 L128.156761,111.216817 C127.412428,111.364679 126.652475,111.497662 125.898101,111.612046 L125.8981,111.612046 Z M109.912369,111.472739 C109.161809,111.345516 108.404179,111.199335 107.660591,111.037895 L107.741405,110.665543 C108.479319,110.825867 109.231088,110.97094 109.975979,111.097041 L109.912369,111.472739 Z M130.395333,110.718179 L130.303825,110.348431 C131.038671,110.166719 131.77761,109.965851 132.50018,109.751591 L132.608426,110.116881 C131.880276,110.332808 131.135765,110.535165 130.395333,110.718179 Z M105.431411,110.499828 C104.69517,110.303981 103.95428,110.088604 103.229291,109.859279 L103.344047,109.496227 C104.063548,109.723691 104.798766,109.937394 105.529241,110.131567 L105.431411,110.499828 Z M134.791387,109.414018 L134.666392,109.054308 C135.379477,108.806383 136.096655,108.538369 136.798394,108.257528 L136.939747,108.611281 C136.232808,108.894177 135.510052,109.164234 134.791387,109.414018 Z M101.053398,109.115691 C100.338359,108.852888 99.6188577,108.569253 98.9150728,108.272786 L99.0629334,107.921637 C99.7613265,108.215872 100.475247,108.497275 101.184893,108.758219 L101.053398,109.115691 Z M139.044045,107.712397 L138.886325,107.365712 C139.571139,107.054551 140.259495,106.722374 140.932213,106.378479 L141.105555,106.717725 C140.427612,107.064223 139.734066,107.398819 139.044045,107.712397 Z M143.119452,105.629126 L142.93086,105.298436 C143.587589,104.923667 144.243203,104.529741 144.879102,104.127444 L145.082575,104.449207 C144.44184,104.854664 143.781391,105.251752 143.119452,105.629126 L143.119452,105.629126 Z M146.990088,103.180385 L146.772106,102.868292 C147.390522,102.436239 148.007637,101.983725 148.606337,101.523587 L148.838453,101.825633 C148.235288,102.289306 147.613339,102.745168 146.990088,103.180385 L146.990088,103.180385 Z M88.9349525,102.643989 C88.3201685,102.197427 87.7060262,101.729664 87.1094553,101.253343 L87.3471508,100.955759 C87.9391566,101.42836 88.5486442,101.892591 89.1586917,102.335618 L88.9349525,102.643989 Z M150.623397,100.387933 L150.377891,100.096673 C150.954273,99.6103095 151.527866,99.1034878 152.083046,98.5901544 L152.341571,98.8698831 C151.782299,99.3871208 151.204236,99.8978487 150.623397,100.387933 L150.623397,100.387933 Z M85.3496321,99.781234 C84.777062,99.2798059 84.2082116,98.7582907 83.6589759,98.2310085 L83.9227103,97.9561154 C84.4678455,98.4794914 85.032325,98.9971004 85.6005242,99.4948089 L85.3496321,99.781234 Z M153.989259,97.2746497 L153.718086,97.0071957 C154.249451,96.4687549 154.775065,95.9115296 155.280028,95.3511429 L155.563105,95.6059488 C155.054232,96.1707998 154.524719,96.732116 153.989255,97.2746497 L153.989259,97.2746497 Z M82.0410597,96.6058301 C81.5157316,96.0534404 80.9969114,95.4824511 80.4990182,94.9088582 L80.786744,94.6592593 C81.2808262,95.2285746 81.795645,95.7950997 82.3170668,96.3432117 L82.0410597,96.6058301 Z M157.059388,93.8671305 L156.765152,93.6253421 C157.245192,93.0411486 157.717801,92.4383554 158.170305,91.8333301 L158.475328,92.0613544 C158.019468,92.6710287 157.543147,93.2786575 157.059388,93.8671305 Z M79.0361102,93.1440068 C78.5643472,92.54791 78.0998405,91.9324688 77.6554153,91.3147974 L77.9645214,91.0923476 C78.4055966,91.7051834 78.8665723,92.3159737 79.3348004,92.9077949 L79.0361102,93.1440068 Z M159.807387,90.1925287 L159.492321,89.9786398 C159.917122,89.353156 160.333174,88.7094458 160.72878,88.0649909 L161.053519,88.2643729 C160.654572,88.9136634 160.235353,89.5623959 159.807387,90.1925287 Z M76.3599902,89.4251341 C75.9449558,88.788863 75.5387545,88.1341788 75.1525452,87.4787519 L75.4806319,87.2853215 C75.8639559,87.9357205 76.2670889,88.5855767 76.6789656,89.2168255 L76.3599902,89.4251341 Z M162.209998,86.2806047 L161.876705,86.0964741 C162.24236,85.4347222 162.5976,84.7551096 162.932941,84.0764397 L163.274424,84.2453187 C162.936666,84.9290166 162.57845,85.6138305 162.210004,86.2806047 L162.209998,86.2806047 Z M164.244168,82.1627908 L163.895257,82.009906 C164.198792,81.3167217 164.490234,80.6068003 164.761598,79.9000385 L165.117211,80.0365537 C164.843805,80.7488958 164.549941,81.4642127 164.244174,82.1627908 L164.244168,82.1627908 Z M72.0832491,81.3409017 C71.7912457,80.6400916 71.5116085,79.9231005 71.2521536,79.2096443 L71.6101834,79.0794502 C71.8675928,79.7875147 72.1450913,80.4989255 72.4347692,81.1943419 L72.0832491,81.3409017 Z M165.891294,77.8716336 L165.529729,77.7518555 C165.767425,77.0356091 165.991728,76.3035531 166.196317,75.5757748 L166.563088,75.6788102 C166.356833,76.4121707 166.130669,77.1499917 165.8913,77.8716336 L165.891294,77.8716336 Z M70.5184294,77.0369099 C70.2918011,76.3109923 70.0788416,75.5694517 69.8855065,74.8325602 L70.2539523,74.7358441 C70.4457999,75.4671572 70.6571786,76.2031175 70.8820395,76.9234567 L70.5184294,77.0369099 Z M167.132781,73.4573502 L166.761731,73.3710518 C166.932285,72.6369504 167.088144,71.887228 167.225219,71.1430802 L167.599801,71.2118949 C167.461797,71.9619925 167.304636,72.7172895 167.132781,73.4573502 Z M69.3550705,72.6014251 C69.1962323,71.8574658 69.0524646,71.0995577 68.9278528,70.3483441 L69.303551,70.2858525 C69.4273286,71.0314782 69.5699821,71.7836289 69.7276091,72.5218212 L69.3550705,72.6014251 Z M167.962853,68.9478418 L167.585295,68.8961356 C167.687776,68.1501289 167.774261,67.3894326 167.842519,66.6350574 L168.221937,66.66928 C168.153122,67.4296068 168.065893,68.1960701 167.962853,68.9478418 Z M68.6044074,68.0781527 C68.5145762,67.324147 68.4408306,66.5561982 68.3851268,65.7956866 L68.7651026,65.767787 C68.8202503,66.5227202 68.8935292,67.2847212 68.982711,68.0331428 L68.6044074,68.0781527 Z M168.377052,64.381605 L167.996516,64.3644946 C168.030365,63.609748 168.047664,62.8442142 168.047664,62.089281 L168.428571,62.089281 C168.428571,62.8499792 168.411274,63.6212781 168.377052,64.381605 Z M68.2697138,63.5052214 C68.2566944,63.0382007 68.2500971,62.5616953 68.25,62.089281 C68.25,61.7961615 68.2525108,61.5035994 68.2575324,61.2115947 L68.6384395,61.218291 C68.6334179,61.5080623 68.6309071,61.7983923 68.6309071,62.089281 C68.6309985,62.5581605 68.6376015,63.0311329 68.6504343,63.4948055 L68.2697138,63.5052214 Z M68.7288307,58.9442868 L68.3486664,58.9204801 C68.3961864,58.1594085 68.4618415,57.3907131 68.5435841,56.6356866 L68.9222591,56.6766989 C68.8410745,57.4260518 68.7760765,58.1888888 68.7288364,58.9442868 L68.7288307,58.9442868 Z M167.801711,56.6204503 C167.725642,55.8695147 167.620999,55.5033811 167.510521,54.7557022 L167.887337,54.7000898 C167.998562,55.4534403 168.093979,56.0285225 168.170785,56.7851279 L167.801711,56.6204503 Z M69.2188201,54.4204563 L68.8423772,54.3622404 C68.9590852,53.6087032 69.094671,52.8492143 69.2454169,52.1046037 L69.6187059,52.1801147 C69.4691675,52.9190536 69.3346044,53.6727775 69.2188258,54.4204563 L69.2188201,54.4204563 Z M167.126081,52.5129438 C166.980822,51.7699139 166.816965,51.021957 166.638786,50.2899011 L167.008906,50.1998813 C167.188387,50.937508 167.353545,51.6912413 167.49992,52.4398496 L167.126081,52.5129438 Z M70.1210614,49.9606049 L69.7515929,49.8679835 C69.9365595,49.130254 70.1414285,48.386388 70.3605244,47.6569356 L70.7252429,47.7664845 C70.507924,48.4903566 70.3046339,49.228549 70.1210614,49.9606049 Z M166.049576,48.0915945 C165.837177,47.3663263 165.605058,46.6367825 165.35974,45.9229529 L165.719817,45.7990838 C165.967184,46.5183984 166.201158,47.2537092 166.415234,47.9844643 L166.049576,48.0915945 Z M71.4322903,45.5966336 L71.0729578,45.4703457 C71.3260896,44.7502865 71.5994018,44.0267857 71.8852688,43.3199344 L72.238463,43.4627746 C71.9547348,44.1641408 71.6834699,44.8821546 71.4322903,45.5966336 L71.4322903,45.5966336 Z M164.5704,43.7883435 C164.292528,43.0873487 163.994948,42.3838417 163.685832,41.6972604 L164.033262,41.5408428 C164.344794,42.2327244 164.644617,42.9416288 164.924525,43.6479221 L164.5704,43.7883435 Z M73.141908,41.3690841 L72.7957815,41.2100554 C73.113917,40.5172443 73.4525111,39.8224792 73.8021724,39.1451044 L74.1406731,39.3197503 C73.7936172,39.9920172 73.4576267,40.6814744 73.141908,41.3690841 Z M162.706225,39.6482142 C162.365313,38.9757683 162.004112,38.3019264 161.632692,37.6456615 L161.964125,37.4579981 C162.338522,38.1193786 162.702323,38.7983341 163.045842,39.475987 L162.706225,39.6482142 Z M75.2325262,37.3190641 L74.902394,37.1289819 C75.2823717,36.469184 75.6830878,35.8087329 76.0934733,35.1661388 L76.4144923,35.3710992 C76.0072702,36.0088578 75.6095271,36.6642866 75.2325262,37.3190641 Z M160.468396,35.6935123 C160.065914,35.052777 159.644459,34.4144604 159.215754,33.796231 L159.528589,33.5791805 C159.960643,34.2021542 160.38544,34.8453064 160.790902,35.4909688 L160.468396,35.6935123 Z M77.6842442,33.4797695 L77.3728965,33.2603003 C77.8120195,32.6375171 78.2711345,32.0167737 78.7377838,31.4152813 L79.0387156,31.6486993 C78.5756925,32.2457255 78.1199258,32.8617248 77.6842442,33.4797695 Z M157.877378,31.9576283 C157.418356,31.3564159 156.940362,30.7587383 156.456231,30.1812392 L156.748234,29.9365693 C157.2359,30.5185325 157.717614,31.1206744 158.180171,31.7264424 L157.877378,31.9576283 Z M80.4750211,29.8818881 L80.1850631,29.6348946 C80.6778427,29.0560948 81.191454,28.4799841 81.711575,27.9225798 L81.990001,28.1824061 C81.4738795,28.7356338 80.9641743,29.3074592 80.4750211,29.8818881 Z M154.955657,28.4709699 C154.444,27.9140227 153.913185,27.3620064 153.378279,26.8304466 L153.646847,26.5602025 C154.185845,27.0959485 154.720567,27.6520577 155.23613,28.2131872 L154.955657,28.4709699 Z M83.5803072,26.5542509 L83.3139693,26.2819575 C83.8586398,25.749097 84.4222833,25.2222738 84.9890864,24.7162025 L85.2427705,25.0003935 C84.6802507,25.5025719 84.1208867,26.0253899 83.5803072,26.5542509 L83.5803072,26.5542509 Z M151.727983,25.2630175 C151.167223,24.7544284 150.588237,24.2528137 150.007205,23.7721222 L150.250108,23.4786332 C150.835419,23.9629567 151.418868,24.4683785 151.983905,24.980872 L151.727983,25.2630175 Z M86.9738695,23.5238259 L86.7333838,23.2284743 C87.3225061,22.7487218 87.9313366,22.2755551 88.5430734,21.8221137 L88.7699817,22.128066 C88.1628158,22.5781611 87.5585352,23.047692 86.9738771,23.5238259 L86.9738695,23.5238259 Z M90.6271742,20.8160941 L90.4145862,20.5000974 C91.0450922,20.0758544 91.694196,19.6604466 92.343953,19.265124 L92.5418457,19.5906092 C91.8971185,19.9828597 91.2529437,20.3951993 90.6271819,20.8160941 L90.6271742,20.8160941 Z M94.5100898,18.4542089 L94.3272544,18.1199857 C94.9943065,17.7549795 95.6782843,17.4008558 96.3601232,17.0672821 L96.5275128,17.4095043 C95.8508904,17.7404727 95.1721216,18.0919014 94.5100898,18.4542089 Z M140.479886,17.571687 C139.802138,17.2340223 139.10784,16.9077963 138.416322,16.6021221 L138.570321,16.2537635 C139.267225,16.5617631 139.966917,16.8904993 140.649874,17.2307675 L140.479886,17.571687 Z M98.5899629,16.4586363 L98.4385657,16.109154 C99.1356561,15.8070146 99.8487409,15.5172414 100.557919,15.2478353 L100.693141,15.6040063 C99.9893489,15.8712775 99.2817511,16.1588167 98.5899629,16.4586363 Z M136.309626,15.7283421 C135.604353,15.4548507 134.882527,15.1939008 134.164048,14.952857 L134.285314,14.5916656 C135.009186,14.8346615 135.736591,15.0975579 136.447259,15.3732871 L136.309626,15.7283421 Z M102.838717,14.8452622 L102.720064,14.4833261 C103.443936,14.2460038 104.182502,14.022537 104.915116,13.8193421 L105.016946,14.1863004 C104.289899,14.388006 103.557005,14.609713 102.838713,14.8452622 L102.838717,14.8452622 Z M131.9902,14.2789237 C131.263723,14.0718245 130.52274,13.8789521 129.787894,13.7057022 L129.875312,13.3350262 C130.615925,13.5095769 131.362488,13.7039348 132.094729,13.9125234 L131.9902,14.2789237 Z M107.223329,13.6284238 L107.138518,13.2570964 C107.880617,13.0875661 108.636572,12.9331006 109.385274,12.7980729 L109.452974,13.1728417 C108.709859,13.3069401 107.959756,13.4601961 107.223329,13.6284238 Z M127.561407,13.2347772 C126.81968,13.0955556 126.064188,12.9716941 125.315769,12.8666095 L125.368591,12.4894219 C126.122787,12.5953445 126.88422,12.7201431 127.631714,12.8603797 L127.561407,13.2347772 Z M111.701313,12.8202988 L111.650909,12.4427398 C112.404915,12.3421194 113.171748,12.2574932 113.930029,12.1914668 L113.963135,12.5708865 C113.210619,12.6365397 112.449736,12.7204135 111.701313,12.8202988 Z M123.055432,12.6017609 C122.30515,12.5310836 121.541475,12.4765891 120.785427,12.440043 L120.804025,12.0595072 C121.565649,12.0964266 122.335093,12.1512925 123.091142,12.2225355 L123.055432,12.6017609 Z M116.234443,12.4247915 L116.218444,12.0442652 C116.91851,12.0150649 117.631968,12.0001866 118.339288,12 L118.5117,12.0002781 L118.510583,12.3811852 L118.339288,12.3809072 C117.637369,12.3810843 116.929114,12.3958692 116.234443,12.4247915 L116.234443,12.4247915 Z" id="Shape" fill="#FFFFFF" fill-rule="nonzero"></path>
                    <rect id="Rectangle" fill="#3F3D56" fill-rule="nonzero" x="89.1428571" y="136.285714" width="139.821429" height="1"></rect>
                    <path d="M171.040326,72.0053077 L172.951667,101.622246 C172.951667,101.622246 177.538887,113.277945 177.347753,124.360412 C177.347753,124.360412 175.627545,128.755184 176.965484,129.519492 C178.303423,130.2838 179.06796,130.857031 178.303423,131.430262 C177.538887,132.003493 176.965484,133.341032 177.538887,133.723186 C178.112289,134.10534 178.303423,134.678571 178.112289,134.678571 L172.378265,134.678571 C172.378265,134.678571 173.52507,131.812416 171.804863,131.048108 C170.084655,130.2838 171.040326,128.37303 171.040326,128.37303 L158.234339,90.921933 L148.104229,125.315797 C148.104229,125.315797 149.824437,126.462259 148.486498,127.03549 C147.148559,127.608722 146.575156,126.462259 147.148559,127.608722 C147.721961,128.755184 146.957424,129.328415 146.957424,129.519492 C146.957424,129.710569 141.2234,128.946261 141.2234,128.946261 C141.2234,128.946261 144.090412,126.462259 142.752473,125.889028 C141.414534,125.315797 140.841132,124.742566 141.2234,124.360412 C141.605668,123.978258 143.134742,120.347795 143.134742,120.347795 C143.134742,120.347795 143.899278,106.590249 144.090412,106.017018 C144.281546,105.443787 144.090412,102.768708 144.090412,101.431169 C144.090412,100.09363 143.899278,94.7434735 144.472681,93.4059343 C145.046083,92.0683952 145.619485,75.6357711 148.677632,73.7250009 C151.735778,71.8142307 171.040326,72.0053077 171.040326,72.0053077 Z" id="Path" fill="#934D37" fill-rule="nonzero"></path>
                    <path d="M147.052329,128.68122 C147.052329,128.68122 150.862317,136.44243 148.195325,137.388919 C145.528334,138.335408 142.099345,137.578217 141.337347,138.714004 C140.575349,139.84979 132.193376,141.174875 132.002877,138.335408 C131.812377,135.495941 141.146848,130.195603 141.146848,130.195603 L142.362794,128.25 L147.052329,128.68122 Z" id="Path" fill="#934D37" fill-rule="nonzero"></path>
                    <path d="M177.588043,134.574078 C177.588043,134.574078 181.398031,142.335287 178.731039,143.281776 C176.064048,144.228265 172.635059,143.471074 171.873061,144.606861 C171.111064,145.742647 162.72909,147.067732 162.538591,144.228265 C162.348092,141.388798 171.682562,136.08846 171.682562,136.08846 L172.898508,134.142857 L177.588043,134.574078 Z" id="Path" fill="#934D37" fill-rule="nonzero"></path>
                    <circle id="Oval" fill="#FBBEBE" fill-rule="nonzero" cx="160.125" cy="29.9464286" r="6.16071429"></circle>
                    <polygon id="Path" fill="#FBBEBE" fill-rule="nonzero" points="164.142857 33.4285714 163.377551 38.8063187 157.637755 43.0714286 156.107143 41.0315934 156.107143 33.9848901"></polygon>
                    <path d="M155.507869,40.3095238 C155.507869,40.3095238 161.418886,40.8809524 164.469734,38.7857143 L170.571429,74.7857143 C170.571429,74.7857143 149.024818,76.5 148.071429,75.3571429 L148.071429,64.1190476 L151.884988,45.8333333 L155.507869,40.3095238 Z" id="Path" fill="#008CE6" fill-rule="nonzero"></path>
                    <path d="M163.864495,37.1785714 L165.920148,38.9080088 C165.920148,38.9080088 174.331144,40.2477382 173.757667,42.544417 L171.463759,69.7217829 L172.228395,78.9084981 C172.228395,78.9084981 165.728989,77.185989 160.758855,78.9084981 C155.78872,80.6310072 159.7374,41.893054 159.7374,41.893054 C159.7374,41.893054 164.293908,37.7458109 163.864495,37.1785714 Z" id="Path" fill="#D0CDE1" fill-rule="nonzero"></path>
                    <path d="M156.570484,39.3214286 C156.570484,39.3214286 150.468629,43.7314226 149.705897,46.596227 C148.943165,49.4610314 146.464286,79.6369713 146.464286,79.6369713 C146.464286,79.6369713 147.608384,79.0640105 148.180433,80.0189453 C148.752482,80.9738801 157.523899,40.8320304 156.570484,39.3214286 Z" id="Path" fill="#D0CDE1" fill-rule="nonzero"></path>
                    <path d="M153.910026,29.8357077 C153.910026,29.8357077 153.225591,28.813042 153.488836,27.711711 C153.646128,27.0864261 153.708245,26.4411541 153.673106,25.7974887 C153.673106,25.7974887 154.225919,24.0143793 154.778734,23.0179373 C155.331549,22.0214954 155.068303,21.601937 156.805726,21.2872715 C158.543149,20.972606 157.83238,18.7174965 162.412837,21.1561625 C162.728848,21.5956702 163.279315,21.8025835 163.808034,21.6805986 C164.755714,21.497044 165.097933,22.8081533 165.097933,22.8081533 C165.097933,22.8081533 165.72972,22.4410424 165.96664,22.9654861 C166.203561,23.4899298 167.892857,22.6507252 167.892857,26.1907299 C167.892857,29.7307346 165.970495,32.8928571 165.970495,32.8928571 C165.970495,32.8928571 166.111423,26.9381563 162.97881,26.3350471 C159.846198,25.731938 156.476667,23.9750485 155.66061,26.230158 C155.2201,27.4958433 154.632586,28.705903 153.910026,29.8357077 Z" id="Path" fill="#2F2E41" fill-rule="nonzero"></path>
                    <ellipse id="Oval" fill="#A0616A" fill-rule="nonzero" cx="165.75" cy="30.4821429" rx="1" ry="1"></ellipse>
                    <path d="M140.21148,88.9272934 C138.737926,87.9634122 136.961163,88.0370315 136.285714,88.1106488 C136.542943,88.7937541 137.31474,90.5361314 138.788294,91.5004988 C140.265444,92.4668269 142.039848,92.3910078 142.714286,92.3178787 C142.457175,91.6350083 141.685265,89.8918958 140.21148,88.9272934 Z" id="Path" fill="#F2F2F2" fill-rule="nonzero"></path>
                    <path d="M146.983258,107.357143 L137.375933,107.357143 C136.182088,107.357143 135.214286,108.316533 135.214286,109.5 C135.214286,110.683467 136.182088,111.642857 137.375933,111.642857 L146.983258,111.642857 C148.176303,111.641736 149.142857,110.682675 149.142857,109.5 C149.142857,108.317325 148.176303,107.358264 146.983258,107.357143 L146.983258,107.357143 Z" id="Path" fill="#F2F2F2" fill-rule="nonzero"></path>
                    <path d="M190.002288,84.8571429 L137.212007,84.8571429 C135.971777,84.8571429 134.782342,85.353805 133.905367,86.2378827 C133.028391,87.1219603 132.535714,88.3210287 132.535714,89.5713046 L132.535714,115.500122 C132.535714,118.103683 134.629358,120.214286 137.211999,120.214286 L190.002288,120.214286 C191.242516,120.214286 192.431947,119.717616 193.30892,118.833539 C194.185894,117.949462 194.678571,116.750396 194.678571,115.500122 L194.678571,89.5713046 C194.678571,88.3210304 194.185896,87.1219634 193.308923,86.237886 C192.431949,85.3538087 191.242516,84.8571429 190.002288,84.8571429 L190.002288,84.8571429 Z M135.905879,88.0729238 C136.010127,88.0539232 138.482061,87.6298468 140.528956,88.8714813 C142.575741,90.1128835 143.362137,92.513423 143.394548,92.6149227 L143.477301,92.8737706 L143.211684,92.921276 C142.832751,92.9809073 142.449623,93.0092727 142.066114,93.0060897 C141.136509,93.0060897 139.789456,92.8510601 138.588486,92.1224863 C136.5417,90.8813163 135.755421,88.4807768 135.723008,88.3792771 L135.640254,88.1204292 L135.905879,88.0729238 Z M147.365261,112.146212 L137.949683,112.146212 C136.519661,112.146212 135.360399,110.97756 135.360399,109.535954 C135.360399,108.094348 136.519661,106.925696 137.949683,106.925696 L147.365267,106.925696 C148.795289,106.925696 149.954551,108.094348 149.954551,109.535954 C149.954551,110.97756 148.795289,112.146212 147.365267,112.146212 L147.365261,112.146212 Z M190.206179,111.671619 C190.2016,113.242371 188.93962,114.514574 187.381489,114.519176 L180.319808,114.519176 C178.761676,114.514574 177.499695,113.242369 177.495132,111.671615 L177.495132,107.400287 C177.499693,105.829534 178.761676,104.557329 180.319808,104.552732 L187.381504,104.552732 C188.939637,104.557329 190.201619,105.829534 190.206179,107.400287 L190.206179,111.671619 Z" id="Shape" fill="#F2F2F2" fill-rule="nonzero"></path>
                    <path d="M182.584821,110.571429 L179.450893,110.571429 C178.984903,110.571429 178.607143,110.9312 178.607143,111.375 C178.607143,111.8188 178.984903,112.178571 179.450893,112.178571 L182.584821,112.178571 C183.050812,112.178571 183.428571,111.8188 183.428571,111.375 C183.428571,110.9312 183.050812,110.571429 182.584821,110.571429 L182.584821,110.571429 Z M182.584821,111.71939 L179.450893,111.71939 C179.321503,111.719675 179.201814,111.654098 179.137032,111.547427 C179.07225,111.440755 179.07225,111.309248 179.137032,111.202577 C179.201814,111.095906 179.321503,111.030328 179.450893,111.030614 L182.584821,111.030614 C182.714211,111.030328 182.833901,111.095906 182.898682,111.202577 C182.963464,111.309248 182.963464,111.440755 182.898682,111.547427 C182.833901,111.654098 182.714211,111.719675 182.584821,111.71939 L182.584821,111.71939 Z" id="Shape" fill="#F2F2F2" fill-rule="nonzero"></path>
                    <path d="M187.942189,110.57143 L184.809094,110.57143 C184.507426,110.570994 184.228477,110.724057 184.077511,110.972862 C183.926544,111.221667 183.926544,111.528333 184.077511,111.777138 C184.228477,112.025943 184.507426,112.179006 184.809094,112.17857 L187.942189,112.17857 C188.408055,112.17857 188.785714,111.818799 188.785714,111.375 C188.785714,110.931201 188.408055,110.57143 187.942189,110.57143 L187.942189,110.57143 Z M187.942189,111.719389 L184.809094,111.719389 C184.679739,111.719674 184.560081,111.654097 184.495317,111.547426 C184.430553,111.440755 184.430553,111.309248 184.495317,111.202577 C184.560081,111.095906 184.679739,111.030329 184.809094,111.030614 L187.942189,111.030614 C188.141518,111.031056 188.302861,111.185114 188.302861,111.375002 C188.302861,111.56489 188.141518,111.718947 187.942189,111.719389 L187.942189,111.719389 Z" id="Shape" fill="#F2F2F2" fill-rule="nonzero"></path>
                    <path d="M182.583763,108.428572 L179.450668,108.428572 C178.984802,108.428572 178.607143,108.788344 178.607143,109.232143 C178.607143,109.675942 178.984802,110.035713 179.450668,110.035713 L182.583763,110.035713 C182.885431,110.036149 183.16438,109.883085 183.315347,109.634281 C183.466313,109.385476 183.466313,109.07881 183.315347,108.830005 C183.16438,108.5812 182.885431,108.428136 182.583763,108.428572 L182.583763,108.428572 Z M182.583763,109.576531 L179.450668,109.576531 C179.251011,109.576531 179.089157,109.422344 179.089157,109.232144 C179.089157,109.041944 179.251011,108.887756 179.450668,108.887756 L182.583763,108.887756 C182.78342,108.887756 182.945274,109.041944 182.945274,109.232144 C182.945274,109.422344 182.78342,109.576531 182.583763,109.576531 L182.583763,109.576531 Z" id="Shape" fill="#F2F2F2" fill-rule="nonzero"></path>
                    <path d="M187.942189,108.428572 L184.809094,108.428572 C184.507426,108.428136 184.228477,108.5812 184.077511,108.830005 C183.926544,109.07881 183.926544,109.385476 184.077511,109.634281 C184.228477,109.883085 184.507426,110.036149 184.809094,110.035713 L187.942189,110.035713 C188.408055,110.035713 188.785714,109.675942 188.785714,109.232143 C188.785714,108.788344 188.408055,108.428572 187.942189,108.428572 Z M187.942189,109.576531 L184.809094,109.576531 C184.609437,109.576531 184.447583,109.422344 184.447583,109.232144 C184.447583,109.041944 184.609437,108.887756 184.809094,108.887756 L187.942189,108.887756 C188.141846,108.887756 188.3037,109.041944 188.3037,109.232144 C188.3037,109.422344 188.141846,109.576531 187.942189,109.576531 Z" id="Shape" fill="#F2F2F2" fill-rule="nonzero"></path>
                    <path d="M182.584821,106.285714 L179.450893,106.285714 C178.984903,106.285714 178.607143,106.645485 178.607143,107.089286 C178.607143,107.533086 178.984903,107.892857 179.450893,107.892857 L182.584821,107.892857 C183.050812,107.892857 183.428571,107.533086 183.428571,107.089286 C183.428571,106.645485 183.050812,106.285714 182.584821,106.285714 L182.584821,106.285714 Z M182.584821,107.433675 L179.450893,107.433675 C179.251183,107.433675 179.089285,107.279487 179.089285,107.089287 C179.089285,106.899086 179.251183,106.744898 179.450893,106.744898 L182.584821,106.744898 C182.784532,106.744898 182.946429,106.899086 182.946429,107.089287 C182.946429,107.279487 182.784532,107.433675 182.584821,107.433675 L182.584821,107.433675 Z" id="Shape" fill="#F2F2F2" fill-rule="nonzero"></path>
                    <path d="M187.943246,106.285715 L184.809319,106.285715 C184.507571,106.285279 184.228547,106.438343 184.077541,106.687148 C183.926534,106.935953 183.926534,107.242619 184.077541,107.491424 C184.228547,107.740228 184.507571,107.893292 184.809319,107.892856 L187.943246,107.892856 C188.408736,107.892181 188.785714,107.532608 188.785714,107.089286 C188.785714,106.645963 188.408736,106.28639 187.943246,106.285715 L187.943246,106.285715 Z M187.943246,107.433674 L184.809319,107.433674 C184.609609,107.433674 184.447712,107.279487 184.447712,107.089287 C184.447712,106.899087 184.609609,106.744899 184.809319,106.744899 L187.943246,106.744899 C188.142957,106.744899 188.304854,106.899087 188.304854,107.089287 C188.304854,107.279487 188.142957,107.433674 187.943246,107.433674 Z" id="Shape" fill="#F2F2F2" fill-rule="nonzero"></path>
                    <path d="M173.25,79.2054445 L171.88216,83.591639 C171.88216,83.591639 171.532639,91.7687808 166.953009,90.6437059 C162.37338,89.518631 168.288735,79.9554944 168.288735,79.9554944 L169.62446,77.8928571 L173.25,79.2054445 Z" id="Path" fill="#FBBEBE" fill-rule="nonzero"></path>
                    <path d="M147,79.2054445 L145.63216,83.591639 C145.63216,83.591639 145.282639,91.7687808 140.703009,90.6437059 C136.12338,89.518631 142.038735,79.9554944 142.038735,79.9554944 L143.37446,77.8928571 L147,79.2054445 Z" id="Path" fill="#FBBEBE" fill-rule="nonzero"></path>
                    <path d="M171.925876,40.968361 C171.925876,40.968361 174.998652,40.2067636 175.958895,45.3475464 C176.919137,50.4883292 178.071429,65.1490801 178.071429,65.1490801 L173.462264,80.5714286 C173.462264,80.5714286 168.8531,78.0962368 167.892857,78.4770356 L171.519935,65.0879905 L168.469003,51.440326 C168.469003,51.440326 171.157682,40.968361 171.925876,40.968361 Z" id="Path" fill="#D0CDE1" fill-rule="nonzero"></path>
                    <polygon id="Path" fill="#000000" fill-rule="nonzero" opacity="0.15" points="167.892857 52.1785714 171.642857 65.4764438 167.892857 78.9642857 170.035714 65.4764438"></polygon>
                    <path d="M149.678571,51.6428571 L142.714286,78.9411235 C142.714286,78.9411235 146.38784,80.1459363 147.742007,81.1071429 L149.678571,51.6428571 Z" id="Path" fill="#D0CDE1" fill-rule="nonzero"></path>
                    <circle id="Oval" fill="#8D88AC" fill-rule="nonzero" cx="77.625" cy="100.660714" r="19.0178571"></circle>
                    <circle id="Oval" fill="#D0CDE1" fill-rule="nonzero" cx="77.625" cy="100.660714" r="16.3392857"></circle>
                    <path d="M76.8944404,110.035714 L76.8944404,107.663178 C75.6482756,107.63978 74.359101,107.216801 73.6071429,106.629565 L74.122756,105.055751 C75.0163704,105.700244 76.1000853,106.05401 77.2167144,106.065736 C78.7422399,106.065736 79.7735587,105.102663 79.7735587,103.763737 C79.7735587,102.471721 78.935579,101.673115 77.3456413,100.968327 C75.1540748,100.028757 73.8004879,98.9481285 73.8004879,96.9045305 C73.8004879,94.9547531 75.0681576,93.4748725 77.0448801,93.1225347 L77.0448801,90.75 L78.3769601,90.75 L78.3769601,93.0286023 C79.3702794,93.041653 80.3391714,93.3268254 81.1701573,93.8507194 L80.6329388,95.401137 C79.8359652,94.8760965 78.8915645,94.5974622 77.9257651,94.6024171 C76.2714171,94.6024171 75.6482815,95.6829378 75.6482815,96.6226159 C75.6482815,97.8440948 76.4432494,98.4548343 78.3125498,99.30058 C80.5255168,100.287157 81.6428571,101.508645 81.6428571,103.599267 C81.6428571,105.454997 80.4611046,107.193402 78.2480332,107.592527 L78.2480332,110.035714 L76.8944404,110.035714 Z" id="Path" fill="#8D88AC" fill-rule="nonzero"></path>
                    <path d="M97.7142857,139.112395 C84.2174888,141.057773 70.4967969,141.057773 57,139.112395 L57,134.678571 C70.5111156,136.427404 84.2031702,136.427404 97.7142857,134.678571 L97.7142857,139.112395 Z" id="Path" fill="#8D88AC" fill-rule="nonzero"></path>
                    <path d="M97.7142857,132.148109 C84.2174888,134.093488 70.4967969,134.093488 57,132.148109 L57,127.714286 C70.5111156,129.463118 84.2031702,129.463118 97.7142857,127.714286 L97.7142857,132.148109 Z" id="Path" fill="#8D88AC" fill-rule="nonzero"></path>
                    <path d="M97.7142857,125.183823 C84.2174888,127.129202 70.4967969,127.129202 57,125.183823 L57,120.75 C70.5111156,122.498832 84.2031702,122.498832 97.7142857,120.75 L97.7142857,125.183823 Z" id="Path" fill="#8D88AC" fill-rule="nonzero"></path>
                </g>
            </g>
        </g>
    </g>
</svg>