<?xml version="1.0" encoding="UTF-8"?>
<svg width="355px" height="358px" viewBox="0 0 355 358" version="1.1" xmlns="http://www.w3.org/2000/svg" xmlns:xlink="http://www.w3.org/1999/xlink">
    <title>7CDF9E93-34DA-4995-AEF2-3FDE74FF3CD3</title>
    <g id="Supplier-Portal-Phase-2" stroke="none" stroke-width="1" fill="none" fill-rule="evenodd">
        <g id="Redirecting-screen-1" transform="translate(-541.000000, -192.000000)" fill-rule="nonzero">
            <g id="undraw_verified_re_4io7" transform="translate(541.000000, 192.000000)">
                <ellipse id="Ellipse_92" fill="#E6E6E6" cx="177.5" cy="347" rx="177.5" ry="10.5"></ellipse>
                <path d="M201,82.9604494 L199.093731,82.9604494 L199.093731,30.729582 C199.093731,14.0342449 185.561304,0.5 168.868209,0.5 L58.2255218,0.5 C41.5324271,0.5 28,14.0342449 28,30.729582 L28,317.270418 C28,333.965755 41.5324271,347.5 58.2255218,347.5 L168.868209,347.5 C185.561304,347.5 199.093731,333.965755 199.093731,317.270418 L199.093731,120.138984 L201,120.138984 L201,82.9604494 Z" id="Path_607" fill="#3F3D56"></path>
                <path d="M193,30.125611 L193,316.874389 C193,329.37005 182.849619,339.5 170.328756,339.5 L58.6707216,339.5 C46.1502669,339.5 36,329.370164 36,316.874911 L36,30.125611 C36,17.6299504 46.1503814,7.5 58.6712443,7.5 L72.2170187,7.5 C70.8652559,10.814625 71.2541469,14.5831586 73.2544572,17.5532601 C75.2547675,20.5233616 78.6044203,22.305894 82.1902755,22.308495 L145.852697,22.308495 C149.438645,22.3060675 152.788458,20.5236059 154.788892,17.5534763 C156.789327,14.5833466 157.178274,10.8147105 155.826477,7.5 L170.328756,7.5 C182.849619,7.5 193,17.6299504 193,30.125611 Z" id="Path_608" fill="#FFFFFF"></path>
                <polygon id="Path_609" fill="#E6E6E6" points="88 247.5 86 247.5 86.6677053 201.5 87.3354106 201.5"></polygon>
                <path d="M89.9274471,173.236051 L93.7326369,167.42605 C92.6041877,164.346296 91.3008398,161.331873 89.8288018,158.397141 L87.3684411,160.360939 L89.3166857,157.38621 C87.4597405,153.775372 85.9989506,151.5 85.9989506,151.5 C85.9989506,151.5 78.3686319,163.380771 75.8180214,175.961935 L80.7009636,183.417939 L75.2964606,179.104116 C75.1039688,180.569539 75.0049532,182.045474 75,183.52318 C75,198.422227 79.9249189,210.5 86,210.5 C92.0750811,210.5 97,198.420672 97,183.52318 C97,178.904522 95.9421866,174.072272 94.4813967,169.601884 L89.9274471,173.236051 Z" id="Path_610" fill="#CCCCCC"></path>
                <polygon id="Path_611" fill="#E6E6E6" points="149 247.5 147 247.5 147.667705 201.5 148.335411 201.5"></polygon>
                <path d="M150.929546,173.236433 L154.734736,167.426329 C153.6063,164.346516 152.302952,161.33204 150.830901,158.397262 L148.37054,160.361095 L150.318785,157.386313 C148.461839,153.775412 147.001049,151.5 147.001049,151.5 C147.001049,151.5 139.369681,163.382016 136.821694,175.962365 L141.700964,183.417463 L136.296461,179.103564 C136.103969,180.569013 136.004953,182.044974 136,183.522706 C136,198.422015 140.924919,210.5 147,210.5 C153.075081,210.5 158,198.42046 158,183.522706 C158,178.903966 156.942187,174.071632 155.481397,169.601165 L150.929546,173.236433 Z" id="Path_612" fill="#CCCCCC"></path>
                <circle id="Ellipse_94" fill="#E6E6E6" cx="85.5" cy="74" r="21.5"></circle>
                <polygon id="Path_613" fill="#E6E6E6" points="116 240.5 111 240.5 112.666847 146.5 114.333153 146.5"></polygon>
                <path d="M119.538391,87.446356 L127.321728,75.433418 C125.013514,69.0649705 122.347514,62.8316282 119.336429,56.7630893 L114.303521,60.8230318 L118.288623,54.6715092 C114.488826,47.2046255 111.502603,42.5 111.502603,42.5 C111.502603,42.5 95.8932471,67.0686574 90.6781567,93.0816124 L100.663293,108.499412 L89.6064059,99.5793921 C89.2126551,102.609634 89.0101199,105.661612 89,108.717252 C89,139.525296 99.0736247,164.5 111.5,164.5 C123.926375,164.5 134,139.525296 134,108.717252 C134,99.1665871 131.836719,89.1745221 128.852577,79.931121 L119.538391,87.446356 Z" id="Path_614" fill="#CCCCCC"></path>
                <path d="M193,254.121384 L193,318.02956 C193,330.991685 182.850145,341.5 170.328907,341.5 L58.671616,341.5 C46.1509004,341.5 36,330.992205 36,318.02956 L36,260.351766 C55.3588923,236.825735 83.3487417,222.765292 113.179458,221.581249 C143.010174,220.397206 171.958089,232.198149 193,254.121384 Z" id="Path_615" fill="#E6E6E6"></path>
                <circle id="Ellipse_95" fill="#121212" opacity="0.2" cx="115" cy="284.5" r="33"></circle>
                <circle id="Ellipse_96" fill="#121212" cx="114.5" cy="285" r="26.5"></circle>
                <polygon id="Path_616" fill="#FFFFFF" points="111.406531 295.5 102 283.636172 107.47023 279.462405 111.923609 285.079731 126.96871 269.5 132 274.17536"></polygon>
                <g id="Group_24" transform="translate(196.000000, 193.500000)">
                    <ellipse id="Ellipse_97" fill="#2F2E41" cx="59.7984911" cy="32.8353201" rx="17.2366071" ry="17.2079208"></ellipse>
                    <polygon id="Path_624" fill="#FFB8B8" points="66.7834955 129.43798 68.1112366 135.691756 92.9058348 133.553802 90.9466071 124.324099"></polygon>
                    <path d="M56.5219086,134.466029 L76.6154212,134.459236 L76.6127966,142.234478 L64.2826987,142.238647 C62.2237132,142.239343 60.249335,141.420836 58.7939046,139.963187 C57.3384742,138.505538 56.5212129,136.528151 56.5219086,134.466029 L56.5219086,134.466029 Z" id="Path_625" fill="#2F2E41" transform="translate(66.568665, 138.348941) rotate(-101.965000) translate(-66.568665, -138.348941) "></path>
                    <polygon id="Path_626" fill="#FFB8B8" points="51.2501786 129.104251 48.4594152 134.858475 24.9027188 126.850535 29.0217455 118.358686"></polygon>
                    <path d="M47.0319953,133.921532 L59.3651133,133.929595 L59.3701892,141.702936 L39.2722753,141.689799 C39.2694738,137.396905 42.7435337,133.919018 47.0319953,133.921532 L47.0319953,133.921532 Z" id="Path_627" fill="#2F2E41" transform="translate(49.321232, 137.812234) rotate(-64.164000) translate(-49.321232, -137.812234) "></path>
                    <path d="M4.83617411,117.740244 C6.46869389,118.043676 8.15199197,117.609648 9.43315636,116.554942 C10.7143207,115.500236 11.4617566,113.933186 11.4743571,112.275426 L50.3214911,76.5189307 L40.6742143,69.0595578 L5.50265625,106.573868 C2.64792899,106.739586 0.368983076,109.011576 0.199017201,111.861319 C0.0290513269,114.711062 2.02183779,117.236981 4.83669643,117.739723 L4.83617411,117.740244 Z" id="Path_628" fill="#FFB8B8"></path>
                    <ellipse id="Ellipse_98" fill="#FFB8B8" cx="57.6350357" cy="38.0128185" rx="12.8287366" ry="12.8073861"></ellipse>
                    <path d="M69.1480446,113.29695 C60.1489687,113.29695 49.3113214,111.405122 42.6250848,103.662079 L42.4746562,103.487914 L42.6313527,103.316878 C42.6835848,103.261083 47.6007187,97.6492145 42.6893304,87.641505 L35.9357143,89.7153201 L29.2134375,80.8563696 L32.9375893,69.7030297 L48.1773616,57.4489043 C50.360638,55.702163 53.018901,54.6500009 55.8079554,54.4286535 C60.8558029,53.9414712 65.7731121,52.5433819 70.3206562,50.3024026 C72.401575,49.2928905 74.6933126,48.7924072 77.0063705,48.8423366 L77.306183,48.8506799 C78.727728,48.8906016 80.0707901,49.5103333 81.0223369,50.5654319 C81.9738837,51.6205305 82.4507837,53.0188176 82.3418839,54.4343894 C81.3082098,67.7992079 79.4837411,100.083875 84.8448482,111.200191 L84.9832634,111.487512 L84.6740491,111.565729 C79.5784545,112.710214 74.372045,113.290617 69.1490893,113.29695 L69.1480446,113.29695 Z" id="Path_629" fill="#121212"></path>
                    <path d="M44.3900089,103.492086 C44.3900089,103.492086 10.4391161,100.363373 6.78286607,110.270964 C3.12661607,120.178554 7.3051875,124.871624 13.5730446,126.957432 C19.8409018,129.043241 34.9882232,131.650502 34.9882232,131.650502 L41.7784018,123.307267 L59.5373304,124.350172 C59.5373304,124.350172 79.3254777,135.80804 84.7967946,148.062686 C87.1886455,153.46552 92.3612669,157.118813 98.2606741,157.571888 C102.648174,157.876416 106.546259,156.222891 106.546259,149.378832 C106.546259,133.735267 84.6087589,111.312825 84.6087589,111.312825 L44.3900089,103.492086 Z" id="Path_630" fill="#2F2E41"></path>
                    <path d="M18.5350982,118.874924 C18.5350982,118.874924 27.4145625,116.267663 41.5172411,123.046541" id="Path_631" fill="#2F2E41"></path>
                    <path d="M44.8376384,29.8447921 C49.8477945,32.8981037 55.4960991,34.7560869 61.3429955,35.2741518 L59.6031429,33.1930363 C60.8699212,33.660374 62.2028719,33.9243732 63.5524152,33.9752145 C64.9227115,34.0149337 66.2307435,33.4037935 67.0780848,32.3279472 C67.770946,31.2098755 67.8716217,29.8239916 67.3476027,28.6178152 C66.8174701,27.4324478 65.9923191,26.402232 64.9506696,25.6252013 C61.2002975,22.6633949 56.213328,21.7736126 51.6675134,23.2552013 C50.131465,23.7128209 48.755674,24.5933075 47.6978705,25.7957162 C46.6421988,27.0257257 46.2765617,28.7031332 46.7247857,30.259868" id="Path_632" fill="#2F2E41"></path>
                    <path d="M59.7060402,19.608165 C61.9853908,14.3239396 65.3973614,9.60279758 69.7017054,5.77716832 C72.4658304,3.32634323 75.6942991,1.21811221 79.3364464,0.581940594 C82.9785938,-0.0542310231 87.0840402,1.03560396 89.3185313,3.97711551 C91.1466563,6.38257426 91.4872098,9.60514851 91.2861161,12.6170561 C91.0850223,15.6289637 90.4107054,18.6137558 90.4749509,21.629835 C90.608842,27.8863124 93.9027063,33.6508589 99.2290374,36.9502414 C104.555369,40.2496238 111.191664,40.6362897 116.866286,37.9778812 C113.720866,39.7137954 111.270134,42.4623696 108.352446,44.5523498 C105.434759,46.64233 101.581594,48.0773663 98.265375,46.6955182 C94.7564196,45.2354521 93.146625,41.2625083 91.8899196,37.6796106 L86.2843661,21.7023168 C85.3316518,18.9860726 84.3314063,16.1895248 82.3868036,14.0656502 C80.4422009,11.9417756 77.2863348,10.6464884 74.6099598,11.7144224 C72.5812634,12.5237162 71.2603125,14.4562178 70.1023259,16.3032013 C68.9443393,18.1501848 67.7221071,20.120231 65.767058,21.0896106 C63.8120089,22.0589901 60.9094688,21.4624488 60.2706696,19.3766403" id="Path_633" fill="#2F2E41"></path>
                    <path d="M64.1076429,113.341826 C63.8863721,113.341826 63.6652713,113.329557 63.4453393,113.305294 C60.4141627,112.964793 58.1778476,110.318912 58.3515623,107.278626 C58.525277,104.23834 61.0484643,101.863502 64.0987634,101.869327 C64.3550127,101.870603 64.6108659,101.889594 64.8644866,101.926165 L82.4029955,83.2868581 L80.5722589,77.1936898 L89.7651161,73.0783894 L92.34225,79.3671023 C94.116611,83.7414062 92.8061643,88.759746 89.1184821,91.7124818 L69.8129598,107.043175 C69.8333207,107.230042 69.8437817,107.417853 69.8442991,107.605822 C69.8436206,109.23779 69.1477874,110.792467 67.9305134,111.881729 C66.8823249,112.825914 65.5194277,113.346444 64.1076429,113.341826 Z" id="Path_636" fill="#FFB8B8"></path>
                    <path d="M77.8185804,51.3468713 L77.8185804,51.3468713 C79.0473094,50.8016005 80.4456468,50.780214 81.6905299,51.2876526 C82.9354131,51.7950913 83.9191467,52.7874564 84.4144554,54.0354785 L93.4882232,76.8980264 L79.3855446,86.284165 L77.8185804,51.3468713 Z" id="Path_637" fill="#121212"></path>
                </g>
            </g>
        </g>
    </g>
</svg>