<?xml version="1.0" encoding="UTF-8"?>
<svg width="290px" height="200px" viewBox="0 0 290 200" version="1.1" xmlns="http://www.w3.org/2000/svg" xmlns:xlink="http://www.w3.org/1999/xlink">
    <title>77B6DE16-182B-4CB4-8F4B-D5089CAC34B2</title>
    <defs>
        <linearGradient x1="0.0425262609%" y1="49.9960599%" x2="99.9912109%" y2="49.9960599%" id="linearGradient-1">
            <stop stop-color="#808080" stop-opacity="0.25" offset="0%"></stop>
            <stop stop-color="#808080" stop-opacity="0.12" offset="54%"></stop>
            <stop stop-color="#808080" stop-opacity="0.1" offset="100%"></stop>
        </linearGradient>
    </defs>
    <g id="Page-2" stroke="none" stroke-width="1" fill="none" fill-rule="evenodd">
        <g id="MY-USERS-(OP3.2)" transform="translate(-257.000000, -832.000000)" fill-rule="nonzero">
            <g id="Group-2" transform="translate(120.000000, 204.000000)">
                <g id="undraw_authentication_fsn5" transform="translate(137.000000, 628.000000)">
                    <path d="M163.474597,27.4126394 C144.949195,27.4374226 127.11772,22.1858736 110.061958,16.3519207 C93.0061958,10.5179678 76.0817844,3.98513011 57.9008674,1.21685254 C46.2081784,-0.562577447 32.9120198,-0.399008674 23.771995,6.06195787 C14.9739777,12.2775713 12.4262701,22.5650558 11.197026,32.0693928 C10.2726146,39.2193309 9.84634449,46.7236679 13.3085502,53.2639405 C15.7125155,57.8042131 19.826518,61.5464684 22.7261462,65.8736059 C32.8475836,80.9268897 26.7608426,100.156134 16.9244114,115.55886 C12.3122677,122.785626 6.90954151,129.712515 3.42255266,137.35316 C-0.0644361834,144.993804 -1.49442379,153.657993 2.06195787,161.199504 C5.58612144,168.674102 13.5464684,174.099133 22.0892193,177.804213 C39.4374226,185.343247 59.6356877,186.959108 79.291202,187.581165 C122.800496,188.961586 166.394052,186.146221 209.871128,183.330855 C225.960347,182.289963 242.121437,181.241636 257.878563,178.225527 C266.627014,176.552664 275.635688,174.069393 281.83891,168.627014 C289.712515,161.717472 291.32342,150.436183 285.593556,142.327138 C275.98513,128.726146 250.649318,126.16109 243.759603,111.444857 C239.960347,103.343247 243.236679,94.0520446 248.061958,86.2428748 C258.4114,69.4869888 276.225527,54.4783147 276.525403,35.7372986 C276.731103,22.8674102 267.467162,10.3122677 253.630731,4.71871128 C239.127633,-1.14002478 219.35316,0.366790582 209.192069,11.2862454 C198.743494,22.535316 179.831475,27.3952912 163.474597,27.4126394 Z" id="Path" fill="#002D43" opacity="0.1"></path>
                    <path d="M245.980173,160.188352 C245.980173,160.188352 242.934325,158.178439 239.915737,159.608426 C239.915737,159.608426 240.845105,161.39777 244.666667,161.229244 L245.980173,160.188352 Z" id="Path" fill="#002D43"></path>
                    <path d="M246.366791,160.294919 C246.366791,160.294919 247.29368,163.82404 244.969021,166.225527 C244.969021,166.225527 243.571252,164.770756 244.969021,161.206939 L246.366791,160.294919 Z" id="Path" fill="#002D43"></path>
                    <path d="M250.153656,156.907063 C250.153656,156.907063 249.928129,153.905824 243.149916,154.902107 C243.149916,154.902107 243.11772,156.83767 245.496902,157.754647 C247.876084,158.671623 248.966543,157.898389 250.153656,156.907063 Z" id="Path" fill="#002D43"></path>
                    <path d="M250.579926,156.887237 C250.579926,156.887237 253.444857,157.806691 250.889715,164.163569 C250.889715,164.163569 248.998761,163.742255 248.659232,161.211896 C248.319703,158.681537 249.325898,157.80917 250.579926,156.887237 Z" id="Path" fill="#002D43"></path>
                    <path d="M254.406444,152.629492 C254.406444,152.629492 254.795539,147.690211 247.868649,148.195787 C247.868649,148.195787 247.372986,152.656753 253.184634,153.816605 L254.406444,152.629492 Z" id="Path" fill="#002D43"></path>
                    <path d="M258.983891,147.053284 C258.983891,147.053284 258.034696,141.454771 251.110284,143.122677 C251.110284,143.122677 251.085502,147.962825 257.853779,148.386617 L258.983891,147.053284 Z" id="Path" fill="#002D43"></path>
                    <path d="M262.329616,141.288724 C262.329616,141.288724 260.738538,135.836431 253.878563,137.467162 C253.878563,137.467162 255.511772,142.371747 261.873606,142.294919 L262.329616,141.288724 Z" id="Path" fill="#002D43"></path>
                    <path d="M265.506815,135.657993 C265.506815,135.657993 263.952912,130 257.328377,131.692689 C257.328377,131.692689 259.539033,137.068154 265.068154,136.614622 L265.506815,135.657993 Z" id="Path" fill="#002D43"></path>
                    <path d="M267.553903,130.309789 C267.553903,130.309789 266.359356,123.390335 260.183395,124.921933 C260.183395,124.921933 261.977695,131.216853 267.100372,131.318463 L267.553903,130.309789 Z" id="Path" fill="#002D43"></path>
                    <path d="M269.474597,123.848823 C269.474597,123.848823 268.039653,116.874845 261.791822,118.892193 C261.791822,118.892193 264.240397,125.484511 269.030979,124.802974 L269.474597,123.848823 Z" id="Path" fill="#002D43"></path>
                    <path d="M270.654275,117.836431 C270.654275,117.836431 268.376704,110.859975 263.546468,111.048327 C263.546468,111.048327 265.873606,118.416357 270.25031,119.226766 L270.654275,117.836431 Z" id="Path" fill="#002D43"></path>
                    <path d="M271.417596,111.967782 C271.417596,111.967782 268.939281,103.571252 265.008674,104.218092 C265.008674,104.218092 266.723668,110.636927 271.27881,113.276332 L271.417596,111.967782 Z" id="Path" fill="#002D43"></path>
                    <path d="M271.848823,104.966543 C271.848823,104.966543 269.524164,97.9702602 265.653036,97.6902107 C265.653036,97.6902107 267.234201,104.574969 271.771995,106.785626 L271.848823,104.966543 Z" id="Path" fill="#002D43"></path>
                    <path d="M272.317224,98.4337051 C272.317224,98.4337051 269.420074,91.4299876 266.864932,91.2713755 C266.864932,91.2713755 268.123916,98.1685254 272.069393,99.5836431 L272.317224,98.4337051 Z" id="Path" fill="#002D43"></path>
                    <path d="M272.636927,92.3568773 C272.636927,92.3568773 270.855019,84.7509294 268.294919,84.1189591 C268.294919,84.1189591 268.644362,90.3420074 272.379182,92.9268897 L272.636927,92.3568773 Z" id="Path" fill="#002D43"></path>
                    <path d="M273.60347,84.3965304 C273.60347,84.3965304 271.729864,78.3320942 269.655514,77.4076828 C269.655514,77.4076828 270.064436,84.5576208 273.125155,85.8785626 L273.60347,84.3965304 Z" id="Path" fill="#002D43"></path>
                    <path d="M274.403965,79.1920694 L274.780669,68.5006196 C274.780669,68.5006196 270.902107,76.5600991 274.123916,81.0681537 L274.403965,79.1920694 Z" id="Path" fill="#002D43"></path>
                    <path d="M277.39777,68.5576208 C277.39777,68.5576208 280.19083,60.7509294 280.86741,60.314746 C280.86741,60.314746 275.390335,65.3804213 275.925651,71.8959108 L277.39777,68.5576208 Z" id="Path" fill="#002D43"></path>
                    <path d="M254.594796,152.592317 C254.594796,152.592317 259.506815,151.950434 259.360595,158.892193 C259.360595,158.892193 254.921933,159.615861 253.472119,153.873606 L254.594796,152.592317 Z" id="Path" fill="#002D43"></path>
                    <path d="M259.216853,146.864931 C259.216853,146.864931 264.892193,146.847584 264.421314,153.952912 C264.421314,153.952912 259.655514,154.805452 258.084263,148.208178 L259.216853,146.864931 Z" id="Path" fill="#002D43"></path>
                    <path d="M262.384139,141.747212 C262.384139,141.747212 267.536555,139.330855 270.832714,145.568773 C270.832714,145.568773 266.074349,147.581165 261.928129,142.755886 L262.384139,141.747212 Z" id="Path" fill="#002D43"></path>
                    <path d="M265.620818,135.710037 C265.620818,135.710037 270.89715,133.140025 273.995043,139.231722 C273.995043,139.231722 268.498141,141.125155 265.184634,136.674102 L265.620818,135.710037 Z" id="Path" fill="#002D43"></path>
                    <path d="M267.486989,130.460967 C267.486989,130.460967 272.565056,125.610905 276.6171,130.515489 C276.6171,130.515489 271.429988,134.508055 267.254027,131.541512 L267.486989,130.460967 Z" id="Path" fill="#002D43"></path>
                    <path d="M269.187113,123.682776 C269.187113,123.682776 274.294919,118.726146 278.314746,123.910781 C278.314746,123.910781 272.582404,127.982652 269.003717,124.723668 L269.187113,123.682776 Z" id="Path" fill="#002D43"></path>
                    <path d="M270.141264,117.638166 C270.141264,117.638166 274.076828,111.442379 278.711276,112.825279 C278.711276,112.825279 274.627014,119.385378 270.185874,119.092937 L270.141264,117.638166 Z" id="Path" fill="#002D43"></path>
                    <path d="M271.301115,111.928129 C271.301115,111.928129 275.266419,104.126394 279.018587,105.484511 C279.018587,105.484511 276.158612,111.482032 271.199504,113.244114 L271.301115,111.928129 Z" id="Path" fill="#002D43"></path>
                    <path d="M271.576208,104.560099 C271.576208,104.560099 275.653036,98.4188352 279.472119,99.1697646 C279.472119,99.1697646 276.138786,105.39777 271.179678,106.337051 L271.576208,104.560099 Z" id="Path" fill="#002D43"></path>
                    <path d="M271.893432,98.2973978 C271.893432,98.2973978 275.053284,91.4052045 277.620818,91.3581165 C277.620818,91.3581165 276.104089,98.2007435 272.106568,99.4671623 L271.893432,98.2973978 Z" id="Path" fill="#002D43"></path>
                    <path d="M272.513011,92.2081784 C272.513011,92.2081784 276.024783,85.2292441 278.664188,85.2143742 C278.664188,85.2143742 276.86741,91.1821561 272.629492,92.8203222 L272.513011,92.2081784 Z" id="Path" fill="#002D43"></path>
                    <path d="M273.040892,84.8327138 C273.040892,84.8327138 275.667906,79.0582404 277.843866,78.4039653 C277.843866,78.4039653 276.530359,85.4423792 273.330855,86.3643123 L273.040892,84.8327138 Z" id="Path" fill="#002D43"></path>
                    <path d="M274.716233,78.9814126 L280.587361,70.0371747 C280.587361,70.0371747 279.083024,78.8599752 273.858736,80.6939281 L274.716233,78.9814126 Z" id="Path" fill="#002D43"></path>
                    <path d="M278.745973,69.2788104 C278.745973,69.2788104 285.568773,64.5700124 285.816605,63.8091698 C285.816605,63.8091698 282.346964,70.4039653 275.903346,71.5687732 L278.745973,69.2788104 Z" id="Path" fill="#002D43"></path>
                    <path d="M279.154895,67.1598513 C279.154895,67.1598513 286.988848,59.6282528 288.988848,59.6356822 C288.988848,59.6356822 282.527881,59.9306072 278.966543,66.7583643 L279.154895,67.1598513 Z" id="Path" fill="#002D43"></path>
                    <path d="M273.11772,85.9504337 L273.402726,85.9876084 C274.874845,74.4659232 277.021066,67.6480793 279.444857,66.8128872 L279.350682,66.5402726 C276.780669,67.4324659 274.619579,74.1462206 273.11772,85.9504337 Z" id="Path" fill="#444053"></path>
                    <path d="M270.951673,113.504337 L271.3829,113.539033 C271.474597,112.463445 271.54399,111.363073 271.591078,110.26518 C272.002478,100.728625 272.639405,91.9702602 273.477076,85.4052045 L273.229244,85.0954151 C272.389095,91.6753408 271.571252,100.696406 271.159851,110.247831 C271.112763,111.33829 271.043371,112.433705 270.951673,113.504337 Z" id="Path" fill="#444053"></path>
                    <path d="M237.94052,165.685254 C238.01487,165.653036 245.605948,162.262701 253.484511,154.178439 C258.10042,149.443589 261.935797,144.006304 264.847584,138.069393 C268.490706,130.651797 270.711276,121.536555 271.454771,112.681537 L271.006196,112.892193 C269.333333,132.768278 260.285006,146.349442 253.090458,153.747212 C245.288724,161.759603 237.781908,165.115242 237.707559,165.14746 L237.94052,165.685254 Z" id="Path" fill="#444053"></path>
                    <path d="M257.596035,21.3705081 L19.4597274,21.3705081 C18.2880898,21.3705081 17.33829,22.3203079 17.33829,23.4919455 L17.33829,29.6728625 L259.717472,29.6728625 L259.717472,23.4919455 C259.717472,22.9293053 259.493964,22.3897094 259.096117,21.9918627 C258.698271,21.594016 258.158675,21.3705081 257.596035,21.3705081 Z" id="Path" fill="#3F3D56"></path>
                    <path d="M17.33829,29.6728625 L17.33829,168.765799 C17.33829,171.128237 19.2534238,173.043371 21.6158612,173.043371 L255.439901,173.043371 C257.802338,173.043371 259.717472,171.128237 259.717472,168.765799 L259.717472,29.6728625 L17.33829,29.6728625 Z" id="Path" fill="#FFFFFF"></path>
                    <circle id="Oval" fill="#FA5959" opacity="0.8" cx="21.1771995" cy="25.4597274" r="1"></circle>
                    <circle id="Oval" fill="#FED253" opacity="0.8" cx="23.9033457" cy="25.4597274" r="1"></circle>
                    <circle id="Oval" fill="#8CCF4D" opacity="0.8" cx="26.6294919" cy="25.4597274" r="1"></circle>
                    <rect id="Rectangle" fill="#000000" opacity="0.05" x="39.8686493" y="52.8649318" width="194.795539" height="85.6555143"></rect>
                    <rect id="Rectangle" fill="#3F3D56" x="41.3556382" y="53.5142503" width="191.821561" height="83.7670384"></rect>
                    <path d="M93.6480793,75.0731103 C83.1088164,75.0731103 74.5650558,83.6168709 74.5650558,94.1561338 C74.5650558,104.695397 83.1088164,113.239157 93.6480793,113.239157 C104.187342,113.239157 112.731103,104.695397 112.731103,94.1561338 C112.731103,89.0950013 110.720576,84.2411596 107.141815,80.6623985 C103.563054,77.0836374 98.7092118,75.0731103 93.6480793,75.0731103 L93.6480793,75.0731103 Z M97.070632,94.6146221 L97.070632,103.650558 L90.3246592,103.650558 L90.3246592,94.6146221 C88.4103288,93.165543 87.6354731,90.6556752 88.3997725,88.3796397 C89.164072,86.1036042 91.2967101,84.5700813 93.6976456,84.5700813 C96.0985811,84.5700813 98.2312192,86.1036042 98.9955187,88.3796397 C99.7598181,90.6556752 98.9849624,93.165543 97.070632,94.6146221 L97.070632,94.6146221 Z" id="Shape" fill="#002D43"></path>
                    <path d="M93.6480793,75.0731103 C83.1088164,75.0731103 74.5650558,83.6168709 74.5650558,94.1561338 C74.5650558,104.695397 83.1088164,113.239157 93.6480793,113.239157 C104.187342,113.239157 112.731103,104.695397 112.731103,94.1561338 C112.731103,89.0950013 110.720576,84.2411596 107.141815,80.6623985 C103.563054,77.0836374 98.7092118,75.0731103 93.6480793,75.0731103 L93.6480793,75.0731103 Z M97.070632,94.6146221 L97.070632,103.650558 L90.3246592,103.650558 L90.3246592,94.6146221 C88.4103288,93.165543 87.6354731,90.6556752 88.3997725,88.3796397 C89.164072,86.1036042 91.2967101,84.5700813 93.6976456,84.5700813 C96.0985811,84.5700813 98.2312192,86.1036042 98.9955187,88.3796397 C99.7598181,90.6556752 98.9849624,93.165543 97.070632,94.6146221 L97.070632,94.6146221 Z" id="Shape" fill="#000000" opacity="0.05"></path>
                    <path d="M93.6480793,69.6208178 C80.0975985,69.6208178 69.1127633,80.605653 69.1127633,94.1561338 C69.1127633,107.706615 80.0975985,118.69145 93.6480793,118.69145 C107.19856,118.69145 118.183395,107.706615 118.183395,94.1561338 C118.183395,87.6489634 115.598432,81.4083098 110.997168,76.8070455 C106.395903,72.2057812 100.15525,69.6208178 93.6480793,69.6208178 L93.6480793,69.6208178 Z M98.047088,94.7459727 L98.047088,106.361834 L89.3729864,106.361834 L89.3729864,94.7459727 C86.9107342,92.8826196 85.9138826,89.6547456 86.8966654,86.7274758 C87.8794482,83.800206 90.6221948,81.8278409 93.7100372,81.8278409 C96.7978796,81.8278409 99.5406262,83.800206 100.523409,86.7274758 C101.506192,89.6547456 100.50934,92.8826196 98.047088,94.7459727 Z" id="Shape" fill="#002D43"></path>
                    <rect id="Rectangle" fill="#FFFFFF" x="128.344486" y="90.936803" width="79.3060719" height="8.42627014"></rect>
                    <rect id="Rectangle" fill="#002D43" x="190.550186" y="106.302354" width="17.1003717" height="8.42627014"></rect>
                    <path d="M136.151177,95.023544 L134.716233,95.023544 L135.992565,93.7496902 C136.040095,93.7006658 136.040095,93.6227543 135.992565,93.5737299 C135.969298,93.550271 135.937625,93.5370758 135.904585,93.5370758 C135.871544,93.5370758 135.839872,93.550271 135.816605,93.5737299 L134.540273,94.850062 L134.540273,93.4126394 C134.540273,93.3442026 134.484794,93.2887237 134.416357,93.2887237 C134.348474,93.2900422 134.29376,93.3447563 134.292441,93.4126394 L134.292441,94.850062 L133.018587,93.5662949 C132.99532,93.5428361 132.963648,93.5296409 132.930607,93.5296409 C132.897567,93.5296409 132.865894,93.5428361 132.842627,93.5662949 C132.795097,93.6153194 132.795097,93.6932308 132.842627,93.7422553 L134.118959,95.016109 L132.681537,95.016109 C132.613653,95.0174275 132.558939,95.0721416 132.557621,95.1400248 C132.557621,95.2084616 132.6131,95.2639405 132.681537,95.2639405 L134.118959,95.2639405 L132.842627,96.5402726 C132.795097,96.5892971 132.795097,96.6672085 132.842627,96.716233 C132.892154,96.7625057 132.96906,96.7625057 133.018587,96.716233 L134.292441,95.4399009 L134.292441,96.8748451 C134.292441,96.9432819 134.34792,96.9987608 134.416357,96.9987608 C134.484794,96.9987608 134.540273,96.9432819 134.540273,96.8748451 L134.540273,95.4399009 L135.816605,96.716233 C135.866132,96.7625057 135.943038,96.7625057 135.992565,96.716233 C136.040095,96.6672085 136.040095,96.5892971 135.992565,96.5402726 L134.716233,95.2639405 L136.151177,95.2639405 C136.219614,95.2639405 136.275093,95.2084616 136.275093,95.1400248 C136.271155,95.0745076 136.216813,95.0234257 136.151177,95.023544 L136.151177,95.023544 Z" id="Path" fill="#002D43"></path>
                    <path d="M141.355638,95.023544 L139.920694,95.023544 L141.197026,93.7496902 C141.244556,93.7006658 141.244556,93.6227543 141.197026,93.5737299 C141.173759,93.550271 141.142086,93.5370758 141.109046,93.5370758 C141.076005,93.5370758 141.044333,93.550271 141.021066,93.5737299 L139.744734,94.850062 L139.744734,93.4126394 C139.744734,93.3442026 139.689255,93.2887237 139.620818,93.2887237 C139.552935,93.2900422 139.498221,93.3447563 139.496902,93.4126394 L139.496902,94.850062 L138.223048,93.5662949 C138.199781,93.5428361 138.168109,93.5296409 138.135068,93.5296409 C138.102028,93.5296409 138.070355,93.5428361 138.047088,93.5662949 C137.999558,93.6153194 137.999558,93.6932308 138.047088,93.7422553 L139.32342,95.016109 L137.885998,95.016109 C137.818114,95.0174275 137.7634,95.0721416 137.762082,95.1400248 C137.762082,95.2084616 137.817561,95.2639405 137.885998,95.2639405 L139.32342,95.2639405 L138.047088,96.5402726 C137.999558,96.5892971 137.999558,96.6672085 138.047088,96.716233 C138.096615,96.7625057 138.173521,96.7625057 138.223048,96.716233 L139.496902,95.4399009 L139.496902,96.8748451 C139.496902,96.9432819 139.552381,96.9987608 139.620818,96.9987608 C139.689255,96.9987608 139.744734,96.9432819 139.744734,96.8748451 L139.744734,95.4399009 L141.021066,96.716233 C141.070593,96.7625057 141.147499,96.7625057 141.197026,96.716233 C141.244556,96.6672085 141.244556,96.5892971 141.197026,96.5402726 L139.920694,95.2639405 L141.355638,95.2639405 C141.424075,95.2639405 141.479554,95.2084616 141.479554,95.1400248 C141.475616,95.0745076 141.421274,95.0234257 141.355638,95.023544 Z" id="Path" fill="#002D43"></path>
                    <path d="M146.560099,95.023544 L145.125155,95.023544 L146.401487,93.7496902 C146.449017,93.7006658 146.449017,93.6227543 146.401487,93.5737299 C146.37822,93.550271 146.346547,93.5370758 146.313507,93.5370758 C146.280466,93.5370758 146.248794,93.550271 146.225527,93.5737299 L144.949195,94.850062 L144.949195,93.4126394 C144.949195,93.3442026 144.893716,93.2887237 144.825279,93.2887237 C144.757396,93.2900422 144.702682,93.3447563 144.701363,93.4126394 L144.701363,94.850062 L143.427509,93.5662949 C143.404242,93.5428361 143.37257,93.5296409 143.339529,93.5296409 C143.306489,93.5296409 143.274816,93.5428361 143.251549,93.5662949 C143.204019,93.6153194 143.204019,93.6932308 143.251549,93.7422553 L144.527881,95.016109 L143.090458,95.016109 C143.022575,95.0174275 142.967861,95.0721416 142.966543,95.1400248 C142.966543,95.2084616 143.022022,95.2639405 143.090458,95.2639405 L144.527881,95.2639405 L143.251549,96.5402726 C143.204019,96.5892971 143.204019,96.6672085 143.251549,96.716233 C143.301076,96.7625057 143.377982,96.7625057 143.427509,96.716233 L144.701363,95.4399009 L144.701363,96.8748451 C144.701363,96.9432819 144.756842,96.9987608 144.825279,96.9987608 C144.893716,96.9987608 144.949195,96.9432819 144.949195,96.8748451 L144.949195,95.4399009 L146.225527,96.716233 C146.275054,96.7625057 146.35196,96.7625057 146.401487,96.716233 C146.449017,96.6672085 146.449017,96.5892971 146.401487,96.5402726 L145.125155,95.2639405 L146.560099,95.2639405 C146.628536,95.2639405 146.684015,95.2084616 146.684015,95.1400248 C146.680077,95.0745076 146.625734,95.0234257 146.560099,95.023544 L146.560099,95.023544 Z" id="Path" fill="#002D43"></path>
                    <path d="M151.76456,95.023544 L150.329616,95.023544 L151.605948,93.7496902 C151.653478,93.7006658 151.653478,93.6227543 151.605948,93.5737299 C151.582681,93.550271 151.551008,93.5370758 151.517968,93.5370758 C151.484927,93.5370758 151.453255,93.550271 151.429988,93.5737299 L150.153656,94.850062 L150.153656,93.4126394 C150.153656,93.3442026 150.098177,93.2887237 150.02974,93.2887237 C149.961857,93.2900422 149.907143,93.3447563 149.905824,93.4126394 L149.905824,94.850062 L148.63197,93.5662949 C148.608703,93.5428361 148.577031,93.5296409 148.54399,93.5296409 C148.510949,93.5296409 148.479277,93.5428361 148.45601,93.5662949 C148.40848,93.6153194 148.40848,93.6932308 148.45601,93.7422553 L149.732342,95.016109 L148.294919,95.016109 C148.227036,95.0174275 148.172322,95.0721416 148.171004,95.1400248 C148.171004,95.2084616 148.226483,95.2639405 148.294919,95.2639405 L149.732342,95.2639405 L148.45601,96.5402726 C148.40848,96.5892971 148.40848,96.6672085 148.45601,96.716233 C148.505537,96.7625057 148.582443,96.7625057 148.63197,96.716233 L149.905824,95.4399009 L149.905824,96.8748451 C149.905824,96.9432819 149.961303,96.9987608 150.02974,96.9987608 C150.098177,96.9987608 150.153656,96.9432819 150.153656,96.8748451 L150.153656,95.4399009 L151.429988,96.716233 C151.479515,96.7625057 151.556421,96.7625057 151.605948,96.716233 C151.653478,96.6672085 151.653478,96.5892971 151.605948,96.5402726 L150.329616,95.2639405 L151.76456,95.2639405 C151.832997,95.2639405 151.888476,95.2084616 151.888476,95.1400248 C151.884538,95.0745076 151.830195,95.0234257 151.76456,95.023544 L151.76456,95.023544 Z" id="Path" fill="#002D43"></path>
                    <path d="M156.969021,95.023544 L155.534077,95.023544 L156.810409,93.7496902 C156.857939,93.7006658 156.857939,93.6227543 156.810409,93.5737299 C156.787142,93.550271 156.755469,93.5370758 156.722429,93.5370758 C156.689388,93.5370758 156.657716,93.550271 156.634449,93.5737299 L155.358116,94.850062 L155.358116,93.4126394 C155.358116,93.3442026 155.302638,93.2887237 155.234201,93.2887237 C155.166318,93.2900422 155.111603,93.3447563 155.110285,93.4126394 L155.110285,94.850062 L153.836431,93.5662949 C153.813164,93.5428361 153.781492,93.5296409 153.748451,93.5296409 C153.71541,93.5296409 153.683738,93.5428361 153.660471,93.5662949 C153.612941,93.6153194 153.612941,93.6932308 153.660471,93.7422553 L154.936803,95.016109 L153.49938,95.016109 C153.431497,95.0174275 153.376783,95.0721416 153.375465,95.1400248 C153.375465,95.2084616 153.430944,95.2639405 153.49938,95.2639405 L154.936803,95.2639405 L153.660471,96.5402726 C153.612941,96.5892971 153.612941,96.6672085 153.660471,96.716233 C153.709998,96.7625057 153.786904,96.7625057 153.836431,96.716233 L155.110285,95.4399009 L155.110285,96.8748451 C155.110285,96.9432819 155.165764,96.9987608 155.234201,96.9987608 C155.302638,96.9987608 155.358116,96.9432819 155.358116,96.8748451 L155.358116,95.4399009 L156.634449,96.716233 C156.683976,96.7625057 156.760882,96.7625057 156.810409,96.716233 C156.857939,96.6672085 156.857939,96.5892971 156.810409,96.5402726 L155.534077,95.2639405 L156.969021,95.2639405 C157.037458,95.2639405 157.092937,95.2084616 157.092937,95.1400248 C157.088999,95.0745076 157.034656,95.0234257 156.969021,95.023544 L156.969021,95.023544 Z" id="Path" fill="#002D43"></path>
                    <path d="M162.173482,95.023544 L160.738538,95.023544 L162.01487,93.7496902 C162.0624,93.7006658 162.0624,93.6227543 162.01487,93.5737299 C161.991603,93.550271 161.95993,93.5370758 161.92689,93.5370758 C161.893849,93.5370758 161.862177,93.550271 161.83891,93.5737299 L160.562577,94.850062 L160.562577,93.4126394 C160.562577,93.3442026 160.507098,93.2887237 160.438662,93.2887237 C160.370779,93.2900422 160.316064,93.3447563 160.314746,93.4126394 L160.314746,94.850062 L159.040892,93.5662949 C159.017625,93.5428361 158.985953,93.5296409 158.952912,93.5296409 C158.919871,93.5296409 158.888199,93.5428361 158.864932,93.5662949 C158.817402,93.6153194 158.817402,93.6932308 158.864932,93.7422553 L160.141264,95.016109 L158.703841,95.016109 C158.635958,95.0174275 158.581244,95.0721416 158.579926,95.1400248 C158.579926,95.2084616 158.635405,95.2639405 158.703841,95.2639405 L160.141264,95.2639405 L158.864932,96.5402726 C158.817402,96.5892971 158.817402,96.6672085 158.864932,96.716233 C158.914459,96.7625057 158.991365,96.7625057 159.040892,96.716233 L160.314746,95.4399009 L160.314746,96.8748451 C160.314746,96.9432819 160.370225,96.9987608 160.438662,96.9987608 C160.507098,96.9987608 160.562577,96.9432819 160.562577,96.8748451 L160.562577,95.4399009 L161.83891,96.716233 C161.888437,96.7625057 161.965343,96.7625057 162.01487,96.716233 C162.0624,96.6672085 162.0624,96.5892971 162.01487,96.5402726 L160.738538,95.2639405 L162.173482,95.2639405 C162.241919,95.2639405 162.297398,95.2084616 162.297398,95.1400248 C162.29346,95.0745076 162.239117,95.0234257 162.173482,95.023544 L162.173482,95.023544 Z" id="Path" fill="#002D43"></path>
                    <path d="M167.377943,95.023544 L165.942999,95.023544 L167.219331,93.7496902 C167.266861,93.7006658 167.266861,93.6227543 167.219331,93.5737299 C167.196064,93.550271 167.164391,93.5370758 167.131351,93.5370758 C167.09831,93.5370758 167.066638,93.550271 167.043371,93.5737299 L165.767038,94.850062 L165.767038,93.4126394 C165.767038,93.3442026 165.711559,93.2887237 165.643123,93.2887237 C165.57524,93.2900422 165.520525,93.3447563 165.519207,93.4126394 L165.519207,94.850062 L164.245353,93.5662949 C164.222086,93.5428361 164.190414,93.5296409 164.157373,93.5296409 C164.124332,93.5296409 164.09266,93.5428361 164.069393,93.5662949 C164.021863,93.6153194 164.021863,93.6932308 164.069393,93.7422553 L165.345725,95.016109 L163.908302,95.016109 C163.840419,95.0174275 163.785705,95.0721416 163.784387,95.1400248 C163.784387,95.2084616 163.839866,95.2639405 163.908302,95.2639405 L165.345725,95.2639405 L164.069393,96.5402726 C164.021863,96.5892971 164.021863,96.6672085 164.069393,96.716233 C164.11892,96.7625057 164.195826,96.7625057 164.245353,96.716233 L165.519207,95.4399009 L165.519207,96.8748451 C165.519207,96.9432819 165.574686,96.9987608 165.643123,96.9987608 C165.711559,96.9987608 165.767038,96.9432819 165.767038,96.8748451 L165.767038,95.4399009 L167.043371,96.716233 C167.092898,96.7625057 167.169804,96.7625057 167.219331,96.716233 C167.266861,96.6672085 167.266861,96.5892971 167.219331,96.5402726 L165.942999,95.2639405 L167.377943,95.2639405 C167.44638,95.2639405 167.501859,95.2084616 167.501859,95.1400248 C167.497921,95.0745076 167.443578,95.0234257 167.377943,95.023544 L167.377943,95.023544 Z" id="Path" fill="#002D43"></path>
                    <path d="M172.582404,95.023544 L171.14746,95.023544 L172.423792,93.7496902 C172.471322,93.7006658 172.471322,93.6227543 172.423792,93.5737299 C172.400525,93.550271 172.368852,93.5370758 172.335812,93.5370758 C172.302771,93.5370758 172.271099,93.550271 172.247831,93.5737299 L170.971499,94.850062 L170.971499,93.4126394 C170.971499,93.3442026 170.91602,93.2887237 170.847584,93.2887237 C170.779701,93.2900422 170.724986,93.3447563 170.723668,93.4126394 L170.723668,94.850062 L169.449814,93.5662949 C169.426547,93.5428361 169.394875,93.5296409 169.361834,93.5296409 C169.328793,93.5296409 169.297121,93.5428361 169.273854,93.5662949 C169.226324,93.6153194 169.226324,93.6932308 169.273854,93.7422553 L170.550186,95.016109 L169.112763,95.016109 C169.04488,95.0174275 168.990166,95.0721416 168.988848,95.1400248 C168.988848,95.2084616 169.044327,95.2639405 169.112763,95.2639405 L170.550186,95.2639405 L169.273854,96.5402726 C169.226324,96.5892971 169.226324,96.6672085 169.273854,96.716233 C169.323381,96.7625057 169.400287,96.7625057 169.449814,96.716233 L170.723668,95.4399009 L170.723668,96.8748451 C170.723668,96.9432819 170.779147,96.9987608 170.847584,96.9987608 C170.91602,96.9987608 170.971499,96.9432819 170.971499,96.8748451 L170.971499,95.4399009 L172.247831,96.716233 C172.297359,96.7625057 172.374265,96.7625057 172.423792,96.716233 C172.471322,96.6672085 172.471322,96.5892971 172.423792,96.5402726 L171.14746,95.2639405 L172.582404,95.2639405 C172.650841,95.2639405 172.70632,95.2084616 172.70632,95.1400248 C172.702382,95.0745076 172.648039,95.0234257 172.582404,95.023544 L172.582404,95.023544 Z" id="Path" fill="#002D43"></path>
                    <path d="M177.786865,95.023544 L176.351921,95.023544 L177.628253,93.7496902 C177.675783,93.7006658 177.675783,93.6227543 177.628253,93.5737299 C177.604986,93.550271 177.573313,93.5370758 177.540273,93.5370758 C177.507232,93.5370758 177.47556,93.550271 177.452292,93.5737299 L176.17596,94.850062 L176.17596,93.4126394 C176.17596,93.3442026 176.120481,93.2887237 176.052045,93.2887237 C175.984161,93.2900422 175.929447,93.3447563 175.928129,93.4126394 L175.928129,94.850062 L174.654275,93.5662949 C174.631008,93.5428361 174.599336,93.5296409 174.566295,93.5296409 C174.533254,93.5296409 174.501582,93.5428361 174.478315,93.5662949 C174.430785,93.6153194 174.430785,93.6932308 174.478315,93.7422553 L175.754647,95.016109 L174.317224,95.016109 C174.249341,95.0174275 174.194627,95.0721416 174.193309,95.1400248 C174.193309,95.2084616 174.248788,95.2639405 174.317224,95.2639405 L175.754647,95.2639405 L174.478315,96.5402726 C174.430785,96.5892971 174.430785,96.6672085 174.478315,96.716233 C174.527842,96.7625057 174.604748,96.7625057 174.654275,96.716233 L175.928129,95.4399009 L175.928129,96.8748451 C175.928129,96.9432819 175.983608,96.9987608 176.052045,96.9987608 C176.120481,96.9987608 176.17596,96.9432819 176.17596,96.8748451 L176.17596,95.4399009 L177.452292,96.716233 C177.50182,96.7625057 177.578726,96.7625057 177.628253,96.716233 C177.675783,96.6672085 177.675783,96.5892971 177.628253,96.5402726 L176.351921,95.2639405 L177.786865,95.2639405 C177.855302,95.2639405 177.910781,95.2084616 177.910781,95.1400248 C177.906843,95.0745076 177.8525,95.0234257 177.786865,95.023544 L177.786865,95.023544 Z" id="Path" fill="#002D43"></path>
                    <path d="M182.991326,95.023544 L181.556382,95.023544 L182.832714,93.7496902 C182.880244,93.7006658 182.880244,93.6227543 182.832714,93.5737299 C182.809447,93.550271 182.777774,93.5370758 182.744734,93.5370758 C182.711693,93.5370758 182.680021,93.550271 182.656753,93.5737299 L181.380421,94.850062 L181.380421,93.4126394 C181.380421,93.3442026 181.324942,93.2887237 181.256506,93.2887237 C181.188622,93.2900422 181.133908,93.3447563 181.13259,93.4126394 L181.13259,94.850062 L179.858736,93.5662949 C179.835469,93.5428361 179.803796,93.5296409 179.770756,93.5296409 C179.737715,93.5296409 179.706043,93.5428361 179.682776,93.5662949 C179.635246,93.6153194 179.635246,93.6932308 179.682776,93.7422553 L180.959108,95.016109 L179.521685,95.016109 C179.453802,95.0174275 179.399088,95.0721416 179.39777,95.1400248 C179.39777,95.2084616 179.453248,95.2639405 179.521685,95.2639405 L180.959108,95.2639405 L179.682776,96.5402726 C179.635246,96.5892971 179.635246,96.6672085 179.682776,96.716233 C179.732303,96.7625057 179.809209,96.7625057 179.858736,96.716233 L181.13259,95.4399009 L181.13259,96.8748451 C181.13259,96.9432819 181.188069,96.9987608 181.256506,96.9987608 C181.324942,96.9987608 181.380421,96.9432819 181.380421,96.8748451 L181.380421,95.4399009 L182.656753,96.716233 C182.706281,96.7625057 182.783187,96.7625057 182.832714,96.716233 C182.880244,96.6672085 182.880244,96.5892971 182.832714,96.5402726 L181.556382,95.2639405 L182.991326,95.2639405 C183.059763,95.2639405 183.115242,95.2084616 183.115242,95.1400248 C183.111304,95.0745076 183.056961,95.0234257 182.991326,95.023544 L182.991326,95.023544 Z" id="Path" fill="#002D43"></path>
                    <path d="M188.195787,95.023544 L186.760843,95.023544 L188.037175,93.7496902 C188.084705,93.7006658 188.084705,93.6227543 188.037175,93.5737299 C188.013907,93.550271 187.982235,93.5370758 187.949195,93.5370758 C187.916154,93.5370758 187.884482,93.550271 187.861214,93.5737299 L186.584882,94.850062 L186.584882,93.4126394 C186.584882,93.3442026 186.529403,93.2887237 186.460967,93.2887237 C186.393083,93.2900422 186.338369,93.3447563 186.337051,93.4126394 L186.337051,94.850062 L185.063197,93.5662949 C185.03993,93.5428361 185.008257,93.5296409 184.975217,93.5296409 C184.942176,93.5296409 184.910504,93.5428361 184.887237,93.5662949 C184.839707,93.6153194 184.839707,93.6932308 184.887237,93.7422553 L186.163569,95.016109 L184.726146,95.016109 C184.658263,95.0174275 184.603549,95.0721416 184.60223,95.1400248 C184.60223,95.2084616 184.657709,95.2639405 184.726146,95.2639405 L186.163569,95.2639405 L184.887237,96.5402726 C184.839707,96.5892971 184.839707,96.6672085 184.887237,96.716233 C184.936764,96.7625057 185.01367,96.7625057 185.063197,96.716233 L186.337051,95.4399009 L186.337051,96.8748451 C186.337051,96.9432819 186.39253,96.9987608 186.460967,96.9987608 C186.529403,96.9987608 186.584882,96.9432819 186.584882,96.8748451 L186.584882,95.4399009 L187.861214,96.716233 C187.910741,96.7625057 187.987648,96.7625057 188.037175,96.716233 C188.084705,96.6672085 188.084705,96.5892971 188.037175,96.5402726 L186.760843,95.2639405 L188.195787,95.2639405 C188.264224,95.2639405 188.319703,95.2084616 188.319703,95.1400248 C188.315765,95.0745076 188.261422,95.0234257 188.195787,95.023544 L188.195787,95.023544 Z" id="Path" fill="#002D43"></path>
                    <path d="M228.094176,125.172243 C228.087146,124.872666 228.049781,124.574572 227.982652,124.282528 C227.759603,123.444857 227.256506,122.431227 226.428748,122.178439 C225.574112,121.916778 224.748627,121.567982 223.965304,121.137546 C223.816605,118.480793 224.42627,115.762082 223.762082,113.187113 C223.51425,112.245353 223.105328,111.343247 222.996283,110.379182 C222.859975,109.179678 223.187113,107.900867 222.708798,106.795539 C222.332094,105.923172 221.504337,105.30855 220.614622,104.986369 C219.724907,104.664188 218.765799,104.577447 217.821561,104.490706 C216.63197,104.394052 212.780669,103.938042 211.437423,105.001239 L211.437423,105.001239 C211.344776,105.073164 211.261516,105.156424 211.189591,105.249071 L211.189591,105.249071 C211.159911,105.289945 211.133398,105.333028 211.110285,105.377943 L211.097893,105.39777 C211.070967,105.449428 211.048578,105.503327 211.030979,105.55886 L211.030979,105.55886 C211.01224,105.619659 210.998156,105.681797 210.988848,105.744734 C210.988848,105.76456 210.988848,105.784387 210.988848,105.804213 C210.988848,105.82404 210.988848,105.890954 210.988848,105.935564 L210.988848,106.002478 C210.988848,106.047088 210.988848,106.091698 210.988848,106.138786 C210.988848,106.185874 210.988848,106.173482 210.988848,106.19083 C211.006196,106.413879 211.038414,106.636927 211.038414,106.857497 C211.041056,106.967322 211.031077,107.077087 211.008674,107.184634 C210.926147,107.476926 210.7863,107.749881 210.597274,107.987608 L210.597274,107.987608 L210.552664,108.052045 C210.525403,108.091698 210.498141,108.128872 210.473358,108.168525 C210.448575,108.208178 210.428748,108.237918 210.408922,108.272615 C210.389095,108.307311 210.369269,108.329616 210.351921,108.361834 C210.327992,108.402671 210.306477,108.444875 210.287485,108.488228 C210.287485,108.513011 210.260223,108.535316 210.25031,108.560099 C210.2193,108.627108 210.194415,108.696785 210.17596,108.768278 C210.11792,108.983608 210.112819,109.209781 210.16109,109.427509 C210.227912,109.705529 210.342818,109.969728 210.50062,110.208178 C210.562577,110.309789 210.629492,110.408922 210.698885,110.508055 L210.872367,110.743494 C210.839973,110.973429 210.822588,111.205229 210.820322,111.437423 C210.820566,113.009809 211.542229,114.495155 212.778191,115.467162 C212.876377,116.513777 212.86558,117.56776 212.745973,118.612144 C212.723668,118.830235 212.696406,119.050805 212.666667,119.268897 C212.636927,119.486989 212.614622,119.630731 212.584882,119.811648 C212.222226,119.863578 211.852604,119.835666 211.501859,119.729864 C211.340062,119.657692 211.174617,119.593996 211.006196,119.539033 C210.285006,119.358116 209.548947,120.076828 208.835192,119.858736 C208.835192,119.893432 208.815366,119.925651 208.802974,119.957869 C208.653984,119.865272 208.482703,119.814745 208.307311,119.811648 C207.883519,119.791822 207.539033,119.484511 207.231722,119.194548 L206.287485,118.304833 C206.225928,118.250358 206.171024,118.188799 206.123916,118.121437 C206.073161,118.025063 206.034854,117.922633 206.009913,117.816605 C205.851301,117.303594 205.467162,116.894672 205.095415,116.505576 C205.024965,116.416842 204.931532,116.349125 204.825279,116.309789 C204.784205,116.303608 204.742437,116.303608 204.701363,116.309789 C204.676079,116.275163 204.64877,116.242061 204.619579,116.210657 C204.555438,116.137026 204.486736,116.067496 204.413879,116.002478 C203.962825,115.586121 203.918216,115.229244 203.526642,114.763321 C203.185114,114.318964 202.87538,113.851052 202.599752,113.363073 C202.567534,113.10285 202.522924,112.835192 202.468401,112.565056 C202.343455,111.946604 202.16177,111.340986 201.925651,110.755886 L201.429988,109.657993 L201.372986,109.714994 C201.013631,109.179678 200.629492,108.887237 200.285006,108.956629 C199.707559,109.075589 199.422553,110.195787 199.51425,111.660471 L199.712515,113.14746 C199.712515,113.184634 199.729864,113.221809 199.739777,113.258984 C199.704106,113.435205 199.685843,113.614506 199.685254,113.7943 C199.685254,114.002478 199.878563,114.156134 199.980173,114.342007 C200.142815,114.593795 200.228906,114.887365 200.228005,115.187113 C200.215613,115.29368 200.183395,115.395291 200.178439,115.49938 C200.191932,115.732221 200.272876,115.956106 200.4114,116.143742 L201.650558,118.225527 L201.898389,118.66171 L201.913259,118.681537 C201.991471,118.833736 202.105426,118.964698 202.245353,119.063197 C202.29391,119.584468 202.432256,120.093415 202.654275,120.567534 C202.696406,120.66171 202.743494,120.750929 202.793061,120.840149 C203.126259,121.3878 203.518526,121.89725 203.962825,122.359356 L204.552664,123.021066 C205.135068,123.670384 205.717472,124.322181 206.349442,124.921933 C206.575659,125.162575 206.848988,125.354074 207.152416,125.484511 C207.45494,125.605458 207.79905,125.555354 208.054523,125.35316 C208.054523,125.660471 208.054523,125.967782 208.054523,126.275093 C208.24189,126.286625 208.408352,126.39863 208.489618,126.567849 C208.570885,126.737068 208.554234,126.937013 208.446097,127.090458 C207.925651,128.42627 207.400248,129.774473 206.612144,130.971499 C207.168434,131.300776 207.684148,131.694216 208.148699,132.143742 C208.45016,132.477822 208.718265,132.840553 208.949195,133.226766 C208.971499,133.410161 208.988848,133.591078 208.998761,133.771995 C209.182156,136.726146 208.039653,139.657993 207.016109,142.473358 C206.72119,143.271375 206.399009,144.106568 206.423792,144.936803 C206.229562,145.056541 206.04405,145.189877 205.868649,145.335812 C206.071871,145.866171 205.992565,146.339529 205.97026,146.907063 C205.962879,147.247302 205.893159,147.583303 205.76456,147.898389 C205.656811,148.116788 205.537689,148.329388 205.407683,148.535316 C204.765799,149.667906 204.624535,151.013631 204.495663,152.307311 C204.418835,153.08798 204.72119,154.042131 204.366791,154.741016 C203.754647,155.94052 203.211896,157.219331 203.127633,158.552664 C203.12469,158.852683 203.086426,159.151311 203.013631,159.442379 C202.936803,159.690211 202.800496,159.900867 202.731103,160.143742 C202.659675,160.469143 202.642924,160.804165 202.681537,161.135068 C202.728698,162.323016 202.552151,163.509244 202.16109,164.63197 C201.851301,165.516729 201.509294,166.463445 201.752169,167.372986 C201.154261,168.001051 200.785016,168.811993 200.703841,169.675341 C200.697446,169.896216 200.670901,170.116046 200.624535,170.332094 C200.548799,170.552987 200.44907,170.76491 200.327138,170.964064 C199.828233,171.872651 199.594656,172.903138 199.653036,173.938042 C198.909542,174.946716 198.537794,176.19083 198.317224,177.427509 C198.096654,178.664188 198,179.923172 197.717472,181.144981 C197.340768,182.760843 196.659232,184.394052 196.525403,186.049566 C195.722429,186.562577 195.375465,187.556382 195.221809,188.495663 C195.068154,189.434944 195.043371,190.421314 194.649318,191.288724 C194.446097,191.739777 194.153656,192.143742 193.960347,192.604709 C193.824779,192.97172 193.725178,193.35103 193.662949,193.737299 C193.54399,194.342007 193.439901,195.016109 193.586121,195.596035 C193.375887,195.818685 193.130588,196.00538 192.859975,196.148699 C192.899628,195.995043 192.931846,195.841388 192.959108,195.685254 C192.319703,196.26518 191.159851,196.061958 190.649318,196.758364 C190.330683,197.225081 190.440428,197.860505 190.89715,198.193309 C191.056891,198.290666 191.229608,198.364926 191.410161,198.413879 C192.649318,198.810409 193.923172,199.209418 195.197026,198.998761 C195.347633,198.982519 195.493438,198.936165 195.625774,198.862454 C195.791471,198.740456 195.927798,198.58296 196.024783,198.401487 C196.215613,198.099133 196.406444,197.796778 196.594796,197.494424 C197.051246,197.630668 197.515545,197.739087 197.98513,197.819083 C198.032218,198.215613 198.066914,198.612144 198.084263,199.008674 C198.332094,199.05824 198.664188,199.07311 198.780669,198.842627 C198.815998,198.755476 198.830427,198.661263 198.8228,198.567534 C198.8228,198.391574 198.847584,198.158612 198.862454,197.920694 L198.91202,197.920694 C199.668148,197.951211 200.420493,197.799042 201.105328,197.477076 C200.840149,195.281289 201.714994,193.135068 202.473358,191.05824 C203.273854,188.872367 203.960347,186.64684 204.651797,184.421314 C205.14746,182.855019 205.695167,181.33829 206.180917,179.769517 C206.792235,177.786865 207.406031,175.804213 208.022305,173.821561 C208.289963,172.949195 208.560099,172.086741 208.86741,171.219331 C209.514326,169.46411 210.28196,167.755773 211.164808,166.106568 C211.412639,165.638166 211.660471,165.174721 211.863693,164.688971 C212.111524,164.096654 212.287485,163.477076 212.48575,162.864932 C212.917793,161.608881 213.437877,160.384862 214.042131,159.201983 C214.05948,159.169765 214.071871,159.140025 214.089219,159.110285 C214.289963,159.930607 214.490706,160.763321 214.624535,161.5886 C214.805671,162.600522 214.819903,163.635275 214.666667,164.651797 C214.547708,165.343247 214.322181,166.027261 214.349442,166.728625 C214.386617,167.697646 214.904585,168.577447 215.159851,169.511772 C215.324403,170.210973 215.417405,170.925099 215.437423,171.643123 C215.506815,172.758364 216.111524,174.009913 215.685254,175.043371 C214.359356,178.317224 215.001239,182.01487 214.245353,185.452292 C213.856258,187.216853 212.664188,188.874845 212.758364,190.679058 C212.824453,191.959521 212.936803,193.236679 213.095415,194.510533 C213.133604,194.912457 213.238292,195.305246 213.405204,195.672862 C213.504087,195.866282 213.617593,196.051868 213.744734,196.228005 C213.635688,196.270136 213.54399,196.38166 213.464684,196.6171 C213.261462,197.236679 213.464684,198.004957 214.01487,198.351921 C214.239042,198.471806 214.480777,198.555451 214.731103,198.599752 C215.068065,198.695538 215.416727,198.743917 215.767038,198.743494 C215.876029,198.737617 215.984497,198.724369 216.091698,198.703841 C216.474759,198.864809 216.866052,199.005442 217.263941,199.125155 C217.263941,199.226766 217.283767,199.328377 217.296159,199.429988 C217.297518,199.537376 217.344352,199.63915 217.425031,199.710037 C217.486897,199.738905 217.555304,199.750876 217.623296,199.744734 L218.969021,199.744734 C218.969021,199.633209 218.969021,199.519207 218.969021,199.407683 C219.280447,199.440149 219.591067,199.33931 219.82404,199.130112 C219.943238,198.978401 220.027824,198.802463 220.071871,198.614622 C220.438662,197.370508 220.802974,196.125568 221.164808,194.879802 C221.598662,193.502799 221.779196,192.058529 221.697646,190.6171 C221.219331,186.049566 222.270136,181.467162 221.928129,176.887237 C221.722303,174.134464 221.863854,171.36673 222.349442,168.649318 C222.460967,168.034696 222.597274,167.410161 222.64684,166.798017 C222.755886,165.643123 222.622057,164.475836 222.703841,163.328377 C222.731103,162.92689 222.785626,162.527881 222.835192,162.128872 C223.174741,159.652365 223.35273,157.156383 223.36803,154.656753 C223.36044,153.828521 223.30915,153.001266 223.214374,152.178439 C223.472753,152.112639 223.707286,151.975184 223.890954,151.781908 C224.111524,151.494424 224.054523,151.090458 224.052045,150.723668 C224.052045,149.846344 224.421314,149.018587 224.718711,148.19083 C225.100386,147.049108 225.413216,145.885513 225.655514,144.70632 C225.911571,143.75606 226.051378,142.778241 226.071871,141.7943 C226.071871,141.695167 226.066914,141.596035 226.057001,141.496902 C226.150396,141.43217 226.228268,141.347526 226.285006,141.249071 C226.349697,141.103856 226.389894,140.948931 226.403965,140.790582 C226.493185,140.158612 226.584882,139.524164 226.674102,138.889715 C226.74019,138.435357 226.805452,137.981826 226.869888,137.52912 L227.657993,132.02974 C227.724907,131.551425 227.7943,131.075589 227.861214,130.599752 L228.066914,129.1772 C228.089219,129.008674 228.114002,128.840149 228.131351,128.681537 C228.736059,127.670384 228.158612,126.322181 228.094176,125.172243 Z M221.519207,145.762082 C221.226766,145.068154 220.954151,144.356877 221.023544,143.608426 L220.996283,143.608426 C221.061499,143.378121 221.050193,143.13287 220.964064,142.909542 C220.887237,142.728625 220.753408,142.574969 220.671623,142.394052 C220.583745,142.173225 220.53834,141.937794 220.537794,141.700124 C220.476246,140.192799 220.595224,138.683523 220.892193,137.204461 C220.924411,137.030979 220.959108,136.855019 220.991326,136.681537 C221.09528,136.621479 221.190369,136.547243 221.273854,136.460967 C221.404216,136.312366 221.511943,136.145347 221.593556,135.965304 C221.873606,135.402726 222.128872,134.830235 222.364312,134.247831 C222.44114,134.05948 222.552664,133.841388 222.743494,133.7943 C222.703841,135.244114 222.85254,136.723668 222.262701,138.032218 C222.15065,138.24323 222.067302,138.46827 222.01487,138.701363 C221.960347,139.070632 222.114002,139.444857 222.05948,139.811648 C222.032218,140.002478 221.950434,140.178439 221.918216,140.366791 C221.868415,140.55503 221.923267,140.755523 222.061958,140.892193 C222.094789,140.915206 222.130653,140.933555 222.168525,140.946716 C222.153656,141.045849 222.141264,141.14746 222.131351,141.244114 C222.111524,141.447336 222.101611,141.638166 222.089219,141.757125 C222.032191,142.363368 222.00985,142.972373 222.022305,143.581165 C222.022305,144.237918 222.047088,144.894672 222.037175,145.563817 C222.046343,145.755917 222.014229,145.947752 221.942999,146.126394 C221.893871,146.218545 221.830279,146.302218 221.754647,146.374226 C221.682776,146.151177 221.60347,145.95539 221.519207,145.762082 Z" id="Shape" fill="url(#linearGradient-1)"></path>
                    <ellipse id="Oval" fill="#FBBEBE" transform="translate(201.161470, 113.128778) rotate(-11.580000) translate(-201.161470, -113.128778) " cx="201.16147" cy="113.128778" rx="1.39776952" ry="3.95786865"></ellipse>
                    <path d="M213.504337,196.664188 C213.301115,197.27881 213.504337,198.047088 214.054523,198.38166 C214.277414,198.500461 214.517344,198.584061 214.765799,198.629492 C215.102028,198.724466 215.449874,198.772013 215.799257,198.770756 C216.228005,198.750929 216.639405,198.582404 217.068154,198.522924 C217.117629,198.510474 217.17,198.517575 217.214374,198.542751 C217.257857,198.589352 217.277904,198.653135 217.268897,198.716233 C217.273501,198.959933 217.291703,199.203186 217.32342,199.444857 C217.324147,199.552387 217.371095,199.654408 217.452292,199.724907 C217.514158,199.753775 217.582565,199.765746 217.650558,199.759603 L218.993804,199.759603 C219.024231,198.579519 218.895015,197.400736 218.609665,196.255266 C218.591047,196.167592 218.557515,196.083764 218.510533,196.007435 C218.39656,195.882628 218.246819,195.796072 218.081784,195.759603 C217.753362,195.622982 217.398645,195.561181 217.043371,195.578686 C216.609665,195.635688 216.247831,195.915737 215.878563,196.148699 C215.509294,196.38166 215.006196,196.587361 214.557621,196.468401 C214.109046,196.349442 213.73482,195.975217 213.504337,196.664188 Z" id="Path" fill="#3F3D56"></path>
                    <path d="M193.781908,195.576208 C193.404267,195.980572 192.941126,196.295542 192.42627,196.498141 L192.198265,196.607187 C192.166718,196.619144 192.139806,196.640847 192.121437,196.669145 C192.112619,196.708155 192.12171,196.749065 192.146221,196.780669 C192.536041,197.383639 193.279181,197.653963 193.965304,197.442379 C194.112868,197.405438 194.249596,197.334101 194.364312,197.234201 C194.553229,197.010118 194.661448,196.729099 194.671623,196.436183 C194.746645,196.134038 194.733747,195.816744 194.634449,195.521685 C194.289963,194.745973 194.163569,195.097893 193.781908,195.576208 Z" id="Path" fill="#FBBEBE"></path>
                    <path d="M198.931846,198.629492 C198.939473,198.723221 198.925044,198.817434 198.889715,198.904585 C198.773234,199.13259 198.448575,199.120198 198.195787,199.070632 C198.157483,198.229769 198.055581,197.393013 197.890954,196.567534 C197.410161,196.545229 197.063197,197.001239 196.805452,197.410161 L196.141264,198.463445 C196.045201,198.644805 195.909701,198.802323 195.744734,198.924411 C195.611934,198.997045 195.466348,199.04333 195.315985,199.060719 C194.047088,199.271375 192.765799,198.872367 191.541512,198.475836 C191.361166,198.427444 191.188485,198.354034 191.028501,198.257745 C190.574467,197.924379 190.465026,197.291807 190.780669,196.825279 C191.29368,196.131351 192.446097,196.329616 193.085502,195.754647 C193.018772,196.159204 192.909107,196.555495 192.758364,196.936803 C193.613383,196.807931 194.188352,196.024783 194.877323,195.501859 C195.050425,195.355016 195.258871,195.255919 195.482032,195.214374 C195.649056,195.200355 195.817226,195.218013 195.977695,195.266419 C196.772153,195.466473 197.515364,195.832166 198.158612,196.339529 C198.418835,196.545229 198.825279,196.835192 198.939281,197.152416 C199.060719,197.531599 198.931846,198.225527 198.931846,198.629492 Z" id="Path" fill="#3F3D56"></path>
                    <circle id="Oval" fill="#FBBEBE" cx="215.980173" cy="111.739777" r="5.12019827"></circle>
                    <path d="M226.066914,141.97026 C226.046251,142.94913 225.907282,143.921909 225.653036,144.86741 C225.410624,146.041696 225.097791,147.200335 224.716233,148.337051 C224.421314,149.16233 224.052045,149.990087 224.054523,150.864932 C224.054523,151.229244 224.114002,151.633209 223.890954,151.920694 C223.692323,152.1225 223.441943,152.265697 223.167286,152.334572 C222.889351,152.408306 222.663027,152.609789 222.557621,152.877323 C222.324939,152.529668 222.150802,152.146231 222.042131,151.742255 C221.597687,150.380834 221.184634,149.011979 220.802974,147.635688 C220.732082,147.474857 220.745063,147.289411 220.83767,147.140025 C220.900565,147.085346 220.973923,147.04403 221.053284,147.018587 C221.307295,146.915006 221.54002,146.765458 221.739777,146.577447 C221.833527,146.494241 221.910863,146.394209 221.967782,146.282528 C222.039807,146.104924 222.072771,145.9139 222.064436,145.722429 C222.064436,145.065675 222.064436,144.4114 222.047088,143.754647 C222.036698,143.148296 222.059864,142.541834 222.116481,141.938042 C222.116481,141.819083 222.138786,141.628253 222.158612,141.425031 C222.195787,141.035936 222.270136,140.584882 222.480793,140.433705 C222.795539,140.223048 223.737299,140.505576 224.094176,140.555143 C224.708798,140.639405 225.333333,140.738538 225.933086,140.855019 C226.020214,141.220422 226.065117,141.594617 226.066914,141.97026 L226.066914,141.97026 Z" id="Path" fill="#3F3D56"></path>
                    <path d="M205.392813,117.472119 C205.194548,117.868649 204.718711,118.05948 204.351921,118.309789 L203.095415,119.172243 C202.92578,119.325104 202.701093,119.402088 202.473358,119.385378 C202.266789,119.309096 202.099708,119.152737 202.009913,118.951673 C202.010671,118.945086 202.010671,118.938433 202.009913,118.931846 L201.74969,118.495663 L200.510533,116.418835 C200.37277,116.232858 200.292629,116.010532 200.28005,115.77943 C200.28005,115.672862 200.317224,115.57373 200.327138,115.467162 C200.33049,115.167845 200.244175,114.874376 200.079306,114.624535 C199.980173,114.438662 199.781908,114.285006 199.786865,114.076828 C199.777374,113.803276 199.824628,113.530723 199.925651,113.276332 C200.055668,113.041 200.242186,112.841707 200.468401,112.696406 C200.584882,112.612144 200.703841,112.532838 200.827757,112.448575 C200.893547,112.403649 200.966439,112.370135 201.043371,112.349442 C201.249071,112.307311 201.452292,112.478315 201.660471,112.48575 C202.555143,113.085502 202.899628,114.22057 203.60347,115.038414 C204,115.504337 204.039653,115.861214 204.488228,116.277571 C204.560099,116.342007 204.629492,116.4114 204.696406,116.483271 C204.78509,116.579999 204.860134,116.688396 204.919455,116.805452 C205.001239,117.018587 205.494424,117.268897 205.392813,117.472119 Z" id="Path" fill="#3F3D56"></path>
                    <path d="M214.180917,116.862454 C214.550186,117.643123 214.83767,118.50062 214.731103,119.358116 C214.709286,119.590411 214.635604,119.814846 214.515489,120.01487 C214.158612,120.562577 213.410161,120.66171 212.758364,120.693928 C212.48096,120.670621 212.205849,120.759943 211.995043,120.94176 C211.815946,121.20206 211.835303,121.550483 212.042131,121.789343 C212.251592,122.012896 212.511671,122.182882 212.800496,122.285006 C213.831475,122.738538 214.944238,123.112763 216.064436,123.008674 C216.584882,122.959108 217.090458,122.807931 217.608426,122.731103 C218.173093,122.669949 218.740584,122.638514 219.30855,122.636927 C219.982652,122.612144 220.654275,122.545229 221.325898,122.478315 L223.105328,122.302354 C223.202584,122.30375 223.296961,122.269351 223.370508,122.2057 C223.501859,122.052045 223.333333,121.826518 223.169765,121.710037 C222.225527,121.011152 221.023544,120.530359 220.48575,119.479554 C220.237918,118.983891 220.16109,118.394052 219.977695,117.858736 C219.7943,117.32342 219.501859,116.840149 219.387856,116.294919 C219.32707,115.816615 219.299742,115.334651 219.306072,114.85254 C219.312303,114.366399 219.135354,113.895716 218.810409,113.534077 C218.45601,113.204461 217.942999,113.120198 217.462206,113.100372 C216.277571,113.048327 215.016109,113.330855 214.17596,114.166047 C213.950434,114.391574 213.757125,114.66171 213.524164,114.864932 C213.291202,115.068154 212.973978,115.127633 213.127633,115.395291 C213.281289,115.662949 213.583643,115.828996 213.747212,116.064436 C213.912777,116.318482 214.057805,116.585335 214.180917,116.862454 L214.180917,116.862454 Z" id="Path" fill="#FBBEBE"></path>
                    <path d="M224.275093,124.071871 C223.962585,125.980228 223.454326,127.851318 222.758364,129.655514 C222.408498,130.470238 222.110506,131.306273 221.866171,132.158612 C221.675341,132.92689 221.712515,133.74969 221.536555,134.520446 C221.318463,135.479554 221.100372,136.44114 220.924411,137.407683 C220.629202,138.883626 220.511061,140.389509 220.572491,141.893432 C220.573051,142.130297 220.61846,142.364914 220.70632,142.584882 C220.788104,142.763321 220.919455,142.916976 220.996283,143.100372 C221.112467,143.426024 221.087311,143.785408 220.92689,144.091698 C220.799718,144.375394 220.627293,144.636542 220.416357,144.864932 C218.106568,145.553903 215.635688,145.328377 213.229244,145.474597 C211.011152,145.608426 208.768278,146.064436 206.582404,145.685254 C206.334572,144.693928 206.748451,143.655514 207.10285,142.688971 C208.131351,139.881041 209.268897,136.956629 209.085502,134.01487 C209.066279,133.671742 209.027388,133.329999 208.969021,132.991326 C208.609665,130.907063 209.001239,128.748451 209.628253,126.728625 C210.017348,125.469641 210,124.128872 209.910781,122.817844 C209.86662,122.39213 209.860814,121.963309 209.893432,121.536555 C209.929284,121.100786 210.091174,120.684868 210.359356,120.339529 C210.359356,120.322181 210.38166,120.304833 210.394052,120.287485 C210.406444,120.270136 210.503098,120.272615 210.579926,120.287485 L210.579926,120.287485 C210.619522,120.304287 210.664245,120.304287 210.703841,120.287485 L210.731103,120.270136 C210.752612,120.254822 210.781464,120.254822 210.802974,120.270136 C210.859975,120.304833 210.892193,120.423792 211.016109,120.446097 C211.199209,120.473797 211.383722,120.491172 211.568773,120.498141 C211.79135,120.504754 212.01248,120.536344 212.228005,120.592317 L212.257745,120.592317 C212.580037,120.646681 212.910848,120.618545 213.219331,120.510533 C213.424626,120.459248 213.622756,120.38266 213.80917,120.282528 C213.863693,120.223048 214.2057,120.168525 214.275093,120.126394 C214.50062,119.990087 214.451053,119.350682 214.498141,119.08798 C214.524177,118.824508 214.586734,118.565938 214.684015,118.319703 C214.913235,117.950685 215.310647,117.719481 215.744734,117.702602 C216.171472,117.692438 216.597987,117.730683 217.016109,117.816605 C217.94052,117.947955 218.887237,117.925651 219.7943,118.138786 C220.25031,118.245353 220.748451,118.406444 221.167286,118.198265 C221.281289,118.225527 221.298637,118.324659 221.298637,118.446097 C221.287957,118.561465 221.264687,118.675319 221.229244,118.785626 C221.070632,119.469641 221.608426,120.099133 222.104089,120.594796 C222.313507,120.828448 222.560637,121.025315 222.835192,121.1772 C223.083024,121.291202 223.330855,121.33829 223.578686,121.462206 C223.779407,121.569311 223.949882,121.725296 224.074349,121.915737 C224.217215,122.134097 224.313403,122.37963 224.356877,122.636927 C224.41008,123.116449 224.382435,123.601499 224.275093,124.071871 L224.275093,124.071871 Z" id="Path" fill="#3F3D56"></path>
                    <path d="M224.275093,124.071871 C223.962585,125.980228 223.454326,127.851318 222.758364,129.655514 C222.408498,130.470238 222.110506,131.306273 221.866171,132.158612 C221.675341,132.92689 221.712515,133.74969 221.536555,134.520446 C221.318463,135.479554 221.100372,136.44114 220.924411,137.407683 C220.872367,137.437423 220.817844,137.464684 220.763321,137.489467 C220.454981,137.636714 220.128209,137.741748 219.791822,137.801735 C219.187631,137.874836 218.5758,137.854776 217.977695,137.742255 L214.44114,137.268897 C213.028501,137.078067 211.524164,136.847584 210.475836,135.890954 C209.893432,135.365551 209.511772,134.671623 209.092937,134.002478 C209.073714,133.65935 209.034823,133.317608 208.976456,132.978934 C208.6171,130.894672 209.008674,128.736059 209.635688,126.716233 C210.024783,125.457249 210.007435,124.116481 209.918216,122.805452 C209.874055,122.379738 209.868249,121.950917 209.900867,121.524164 C209.936719,121.088394 210.098609,120.672476 210.366791,120.327138 C210.439177,120.305911 210.512852,120.289355 210.587361,120.277571 L210.587361,120.277571 C210.637234,120.267475 210.687748,120.26085 210.738538,120.257745 L210.810409,120.257745 C210.893891,120.258051 210.977056,120.268031 211.05824,120.287485 C211.227087,120.341243 211.392599,120.404965 211.553903,120.478315 L211.583643,120.478315 C211.796122,120.548304 212.019298,120.580186 212.242875,120.572491 C212.570012,120.572491 212.907063,120.520446 213.234201,120.498141 C213.638314,120.435036 214.051917,120.509205 214.408922,120.708798 C214.639326,120.893968 214.85785,121.093453 215.063197,121.306072 C215.311178,121.500835 215.590166,121.652478 215.888476,121.754647 C218.02179,122.568939 220.388568,122.51915 222.48575,121.615861 C222.687201,121.501325 222.915763,121.443114 223.14746,121.447336 C223.318605,121.480838 223.480751,121.550088 223.623296,121.650558 C223.771995,121.737299 223.918216,121.821561 224.069393,121.898389 C224.212258,122.116749 224.308446,122.362282 224.351921,122.619579 C224.408716,123.104535 224.382738,123.595614 224.275093,124.071871 L224.275093,124.071871 Z" id="Path" fill="#000000" opacity="0.1"></path>
                    <path d="M226.433705,122.431227 C225.446833,122.129795 224.498626,121.713914 223.608426,121.192069 C223.46549,121.092304 223.303497,121.023119 223.13259,120.988848 C222.900279,120.986086 222.671293,121.044187 222.468401,121.157373 C220.372053,122.060514 218.006094,122.110305 215.873606,121.296159 C215.575726,121.193014 215.296893,121.041456 215.048327,120.847584 C214.842342,120.635622 214.62386,120.436175 214.394052,120.25031 C213.578686,119.722429 212.451053,120.342007 211.539033,120.002478 C211.377268,119.930232 211.211819,119.866534 211.043371,119.811648 C210.322181,119.630731 209.5886,120.349442 208.879802,120.131351 C208.616088,120.848127 208.421077,121.588339 208.297398,122.342007 C208.196601,123.207518 208.142825,124.077859 208.136307,124.949195 C208.136307,125.472119 208.111524,125.995043 208.136307,126.517968 C208.312904,126.546863 208.469312,126.648438 208.567534,126.798017 C208.633397,126.972807 208.61889,127.167739 208.527881,127.330855 C208.009913,128.66171 207.484511,130.007435 206.698885,131.199504 C207.252573,131.529422 207.766482,131.921922 208.230483,132.369269 C209.097893,133.286245 209.524164,134.572491 210.460967,135.420074 C211.516729,136.374226 213.021066,136.607187 214.42627,136.795539 L217.962825,137.268897 C218.561776,137.380997 219.174234,137.401885 219.77943,137.330855 C220.11503,137.269632 220.440929,137.163777 220.748451,137.016109 C220.949343,136.93211 221.132625,136.811043 221.288724,136.659232 C221.419409,136.510875 221.527168,136.343806 221.608426,136.163569 C221.888476,135.60347 222.143742,135.030979 222.379182,134.451053 C222.460967,134.245353 222.584882,134.004957 222.807931,133.987608 C224.121437,132.802974 225.360595,131.5886 226.674102,130.403965 C227.201956,129.966507 227.675396,129.467274 228.084263,128.916976 C228.736059,127.952912 228.143742,126.587361 228.084263,125.422553 C228.077069,125.124623 228.039703,124.82819 227.972739,124.537794 C227.759603,123.692689 227.258984,122.681537 226.433705,122.431227 Z" id="Path" fill="#002D43"></path>
                    <path d="M205.392813,117.472119 C205.194548,117.868649 204.718711,118.05948 204.351921,118.309789 L203.095415,119.172243 C202.92578,119.325104 202.701093,119.402088 202.473358,119.385378 C202.266789,119.309096 202.099708,119.152737 202.009913,118.951673 C202.009913,118.894672 202.009913,118.832714 202.009913,118.773234 C202.000364,118.572626 202.027234,118.371947 202.089219,118.180917 C202.212247,117.900663 202.403015,117.65539 202.644362,117.467162 C203.110938,117.02534 203.665892,116.687468 204.272615,116.475836 C204.367194,116.439046 204.470021,116.428763 204.570012,116.446097 C204.608544,116.456156 204.645316,116.472035 204.679058,116.493185 C204.767742,116.589912 204.842786,116.69831 204.902107,116.815366 C205.001239,117.018587 205.494424,117.268897 205.392813,117.472119 Z" id="Path" fill="#000000" opacity="0.1"></path>
                    <path d="M208.351921,120.084263 C207.930607,120.064436 207.586121,119.759603 207.27881,119.469641 L206.339529,118.597274 C206.276672,118.544119 206.221609,118.482381 206.17596,118.413879 C206.125206,118.317505 206.086898,118.215074 206.061958,118.109046 C205.862816,117.608429 205.55069,117.160597 205.149938,116.800496 C205.080078,116.711713 204.986378,116.644662 204.879802,116.607187 C204.77904,116.588596 204.675073,116.598906 204.579926,116.636927 C203.973041,116.848216 203.418019,117.186129 202.951673,117.628253 C202.710474,117.816628 202.519737,118.061861 202.39653,118.342007 C202.334221,118.532964 202.307343,118.733702 202.317224,118.934325 C202.323044,119.589146 202.470135,120.234996 202.748451,120.827757 C202.790582,120.919455 202.83767,121.011152 202.887237,121.100372 C203.217943,121.646898 203.608632,122.154794 204.052045,122.614622 L204.641884,123.273854 C205.221809,123.923172 205.801735,124.572491 206.431227,125.169765 C206.656875,125.410443 206.930396,125.601232 207.234201,125.729864 C207.545122,125.85675 207.900873,125.799371 208.156134,125.581165 C208.274856,125.443734 208.364251,125.283498 208.418835,125.110285 C208.800496,124.118959 209.16233,123.08798 209.184634,122.019827 C209.189973,121.592054 209.171771,121.164311 209.130112,120.738538 C209.092937,120.287485 208.773234,120.111524 208.351921,120.084263 Z" id="Path" fill="#002D43"></path>
                    <path d="M223.370508,154.780669 C223.356124,157.273663 223.178961,159.763057 222.840149,162.232962 C222.790582,162.63197 222.736059,163.030979 222.708798,163.429988 C222.627014,164.587361 222.760843,165.74969 222.651797,166.899628 C222.594796,167.521685 222.465923,168.138786 222.356877,168.745973 C221.872534,171.456014 221.730986,174.216215 221.935564,176.961586 C222.277571,181.52912 221.229244,186.099133 221.705081,190.654275 C221.762752,191.54005 221.71366,192.429546 221.55886,193.303594 C221.470171,193.84594 221.341779,194.381042 221.174721,194.904585 C220.812887,196.145394 220.449401,197.384552 220.084263,198.622057 C220.041308,198.810281 219.956612,198.98645 219.836431,199.137546 C219.580671,199.358726 219.242006,199.45897 218.907063,199.412639 C217.477076,199.36803 216.131351,198.750929 214.832714,198.148699 C214.683378,198.089796 214.545111,198.005997 214.423792,197.900867 C214.153656,197.620818 214.17596,197.179678 214.057001,196.810409 C213.938042,196.44114 213.615861,196.094176 213.432466,195.714994 C213.281678,195.356314 213.190433,194.975431 213.16233,194.587361 C212.997109,193.318463 212.884758,192.04461 212.825279,190.765799 C212.731103,188.966543 213.920694,187.311029 214.312268,185.561338 C215.055762,182.121437 214.42627,178.433705 215.747212,175.169765 C216.163569,174.138786 215.55886,172.889715 215.49938,171.77943 C215.477971,171.063151 215.384985,170.350809 215.221809,169.653036 C214.973978,168.72119 214.451053,167.843866 214.413879,166.877323 C214.386617,166.178439 214.612144,165.496902 214.728625,164.807931 C214.883159,163.793987 214.868923,162.761466 214.686493,161.752169 C214.555143,160.919455 214.354399,160.086741 214.153656,159.273854 L214.109046,159.365551 C213.505209,160.545741 212.985935,161.767318 212.555143,163.021066 C212.356877,163.628253 212.183395,164.247831 211.935564,164.83767 C211.732342,165.333333 211.482032,165.786865 211.236679,166.252788 C210.356658,167.895861 209.590703,169.597523 208.944238,171.345725 C208.636927,172.203222 208.366791,173.080545 208.099133,173.94052 L206.262701,179.888476 C205.767038,181.452292 205.224287,182.964064 204.738538,184.525403 C204.052045,186.755886 203.365551,188.966543 202.567534,191.14746 C201.82404,193.216853 200.939281,195.360595 201.204461,197.546468 C200.521127,197.867653 199.770577,198.019803 199.016109,197.990087 C197.738792,197.8771 196.485672,197.573009 195.298637,197.08798 C194.825279,196.91202 194.334572,196.713755 194.01487,196.324659 C193.464684,195.653036 193.600991,194.669145 193.767038,193.814126 C193.829591,193.428734 193.929185,193.050276 194.064436,192.684015 C194.252788,192.228005 194.560099,191.82404 194.753408,191.372986 C195.142503,190.508055 195.167286,189.52912 195.320942,188.589839 C195.474597,187.650558 195.816605,186.659232 196.619579,186.148699 C196.755886,184.498141 197.434944,182.869888 197.80917,181.256506 C198.091698,180.034696 198.185874,178.778191 198.408922,177.539033 C198.63197,176.299876 198.991326,175.060719 199.739777,174.057001 C199.680725,173.022041 199.914344,171.991371 200.413879,171.083024 C200.534557,170.883549 200.633432,170.671674 200.708798,170.451053 C200.755014,170.235817 200.781559,170.016823 200.788104,169.796778 C200.87005,168.935585 201.238277,168.126707 201.833953,167.49938 C201.586121,166.594796 201.930607,165.650558 202.240397,164.773234 C202.630571,163.653717 202.807111,162.470903 202.760843,161.286245 C202.722415,160.955445 202.738321,160.620588 202.807931,160.294919 C202.877323,160.047088 203.013631,159.836431 203.092937,159.598513 C203.163632,159.307112 203.201046,159.008632 203.204461,158.708798 C203.301115,157.36803 203.843866,156.104089 204.443618,154.907063 C204.800496,154.208178 204.498141,153.258984 204.572491,152.480793 C204.701363,151.187113 204.842627,149.848823 205.484511,148.72119 C205.60347,148.508055 205.732342,148.304833 205.83891,148.084263 C205.968052,147.769342 206.037793,147.43324 206.04461,147.092937 C206.066914,146.525403 206.146221,146.054523 205.942999,145.526642 C207.268897,144.423792 209.078067,144.114002 210.802974,144.039653 C212.527881,143.965304 214.272615,144.121437 215.960347,143.754647 C216.45601,143.643123 216.951673,143.489467 217.474597,143.415118 C218.66171,143.241636 219.866171,143.511772 221.038414,143.77943 C220.956629,144.522924 221.229244,145.236679 221.534077,145.928129 C222.724209,148.728938 223.34834,151.73757 223.370508,154.780669 L223.370508,154.780669 Z" id="Path" fill="#33313F"></path>
                    <path d="M217.534077,155.348203 L214.686493,161.752169 C214.555143,160.919455 214.354399,160.086741 214.153656,159.273854 L214.109046,159.365551 L214.109046,159.231722 L215.660471,155.819083 L217.534077,155.348203 Z" id="Path" fill="#000000" opacity="0.1"></path>
                    <path d="M226.066914,141.97026 C225.902638,142.09317 225.706504,142.16629 225.501859,142.180917 C225.187943,142.192061 224.87444,142.149311 224.574969,142.054523 L222.344486,141.496902 C222.274547,141.479685 222.206477,141.455611 222.141264,141.425031 C222.178439,141.035936 222.252788,140.584882 222.463445,140.433705 C222.778191,140.223048 223.71995,140.505576 224.076828,140.555143 C224.69145,140.639405 225.315985,140.738538 225.915737,140.855019 C226.008713,141.219742 226.059438,141.593947 226.066914,141.97026 Z" id="Path" fill="#000000" opacity="0.1"></path>
                    <path d="M227.952912,127.224287 C228,127.429988 228.066914,127.633209 228.106568,127.841388 C228.173243,128.352151 228.155661,128.870394 228.054523,129.375465 L227.851301,130.793061 L227.648079,132.218092 L226.862454,137.702602 L226.669145,139.060719 L226.39653,140.956629 C226.383654,141.114387 226.3434,141.268696 226.277571,141.412639 C226.112644,141.686282 225.821115,141.858592 225.501859,141.871128 C225.188004,141.881074 224.874702,141.838351 224.574969,141.744734 L222.344486,141.184634 C222.246723,141.167248 222.153788,141.129229 222.071871,141.07311 C221.933143,140.937489 221.878214,140.737661 221.928129,140.550186 C221.960347,140.361834 222.042131,140.185874 222.069393,139.997522 C222.123916,139.630731 221.97026,139.254027 222.024783,138.889715 C222.078251,138.657721 222.161555,138.433633 222.272615,138.223048 C223.016109,136.579926 222.584882,134.66171 222.83767,132.877323 C223.065176,131.47296 223.65837,130.153232 224.557621,129.050805 C225.112571,128.354954 225.750042,127.729134 226.45601,127.187113 C226.733581,126.971499 227.174721,126.527881 227.524164,126.443618 C227.972739,126.349442 227.878563,126.91202 227.952912,127.224287 Z" id="Path" fill="#002D43"></path>
                    <path d="M211.07311,105.876084 C210.909542,106.39653 211.164808,106.969021 211.048327,107.49938 C210.921933,108.084263 210.371747,108.490706 210.215613,109.078067 C209.967782,109.972739 210.726146,110.788104 211.281289,111.531599 C213.33829,114.292441 213.068154,118.114002 212.364312,121.482032 C211.797993,124.1842 211.014788,126.836323 210.022305,129.412639 C209.712515,130.213135 209.370508,131.026022 208.760843,131.625774 C209.900867,131.298637 211.112763,130.969021 212.255266,131.286245 C213.702602,131.687732 214.951673,133.092937 216.418835,132.773234 C217.301115,132.577447 217.920694,131.7943 218.713755,131.360595 C220.200743,130.560099 221.992565,131.063197 223.650558,131.320942 C224.007825,131.40523 224.381684,131.386322 224.728625,131.266419 C224.993855,131.123841 225.218876,130.91672 225.3829,130.664188 C226.122829,129.714877 226.565975,128.568216 226.656753,127.36803 C226.736085,126.159109 226.293,124.974238 225.439901,124.114002 C225.08798,123.781908 224.666667,123.51425 224.39653,123.122677 C224.133806,122.665358 223.992996,122.148203 223.987608,121.620818 C223.791822,118.894672 224.45601,116.111524 223.771995,113.474597 C223.524164,112.535316 223.120198,111.635688 223.011152,110.674102 C222.874845,109.477076 223.199504,108.195787 222.723668,107.100372 C222.349442,106.230483 221.524164,105.613383 220.634449,105.296159 C219.744734,104.978934 218.793061,104.889715 217.848823,104.800496 C216.490706,104.686493 211.640644,104.104089 211.07311,105.876084 Z" id="Path" fill="#33313F"></path>
                    <g id="Group" opacity="0.1" transform="translate(208.674102, 105.080545)" fill="#000000">
                        <path d="M3.69021066,16.401487 C3.12667824,19.0924811 2.34762804,21.7337928 1.3605948,24.2998761 C1.53159851,23.960347 1.67534077,23.6034696 1.81164808,23.2490706 C2.80525778,20.6731373 3.5884902,18.0209217 4.15365551,15.3184634 C4.85997522,11.9479554 5.13011152,8.13135068 3.07311029,5.36802974 C2.57744734,4.70879802 1.94052045,3.99504337 1.96282528,3.22180917 C1.7796337,3.45567346 1.63719815,3.71876028 1.54151177,4 C1.2936803,4.89467162 2.05204461,5.71003717 2.60718711,6.4535316 C4.66418835,9.21189591 4.39405204,13.0334572 3.69021066,16.401487 Z" id="Path"></path>
                        <path d="M2.4039653,2.1685254 C2.60286499,1.9215187 2.75108853,1.6377043 2.8401487,1.33333333 C2.87846461,0.965169562 2.86846657,0.593575717 2.81040892,0.228004957 C2.61949737,0.37167821 2.47616602,0.569406396 2.39900867,0.795539033 C2.2527881,1.23420074 2.42131351,1.71003717 2.4039653,2.1685254 Z" id="Path"></path>
                        <path d="M17.1747212,24.4931846 C17.0106243,24.7450172 16.7855707,24.9513163 16.5204461,25.0929368 C16.173993,25.2153302 15.7994129,25.2342745 15.4423792,25.1474597 C13.7843866,24.8996283 11.9727385,24.3890954 10.5055762,25.1895911 C9.71003717,25.6208178 9.0929368,26.4039653 8.20817844,26.6022305 C6.74349442,26.929368 5.49442379,25.5241636 4.04708798,25.1152416 C3.02106568,24.8302354 1.94052045,25.0656753 0.907063197,25.3630731 C0.701712741,25.8010003 0.424432836,26.2014226 0.0867410161,26.5477076 C1.2267658,26.22057 2.43866171,25.8909542 3.58116481,26.2081784 C5.02850062,26.6096654 6.27757125,28.0148699 7.74473358,27.6951673 C8.62701363,27.4993804 9.24659232,26.716233 10.039653,26.2825279 C11.5266419,25.4820322 13.3184634,25.9851301 14.976456,26.2428748 C15.3337235,26.3271632 15.7075823,26.3082554 16.0545229,26.1883519 C16.3197538,26.0457745 16.5447748,25.8386529 16.708798,25.5861214 C17.1579347,24.9936818 17.504734,24.3302394 17.7348203,23.6232962 C17.5692017,23.9263029 17.3820198,24.2170146 17.1747212,24.4931846 L17.1747212,24.4931846 Z" id="Path"></path>
                    </g>
                </g>
            </g>
        </g>
    </g>
</svg>