<?xml version="1.0" encoding="UTF-8"?>
<svg width="259px" height="149px" viewBox="0 0 259 149" version="1.1" xmlns="http://www.w3.org/2000/svg" xmlns:xlink="http://www.w3.org/1999/xlink">
    <title>BD1F34BD-A750-49ED-AB0E-67356BBC6D3A</title>
    <g id="Page-2" stroke="none" stroke-width="1" fill="none" fill-rule="evenodd">
        <g id="VERIFICATION-1" transform="translate(-63.000000, -623.000000)">
            <g id="Group-8" transform="translate(63.000000, 623.000000)">
                <g id="undraw_payments_21w6" transform="translate(0.392857, 0.000000)">
                    <rect id="Rectangle" fill="#66818E" x="0.607142857" y="0" width="243" height="149" rx="10"></rect>
                    <path d="M34.6623569,17.29314 C34.6623569,31.2189963 43.2535929,42.4876238 53.8707079,42.4876238" id="Path" fill="#008CE6" fill-rule="nonzero"></path>
                    <path d="M53.8707079,42.4876238 C53.8707079,28.5617675 63.6469404,17.29314 75.7284866,17.29314" id="Path" fill="#FFFFFF" fill-rule="nonzero"></path>
                    <path d="M41.2859262,18.6191655 C41.2859262,31.8120858 46.9146666,42.4876238 53.8707079,42.4876238" id="Path" fill="#FFFFFF" fill-rule="nonzero"></path>
                    <path d="M53.8707079,42.4876238 C53.8707079,24.530599 65.1281894,10 79.0402713,10" id="Path" fill="#008CE6" fill-rule="nonzero"></path>
                    <rect id="Rectangle" fill="#F2F2F2" fill-rule="nonzero" x="44.5977109" y="47.7917256" width="169.563374" height="96.1368458" rx="26.88144"></rect>
                    <rect id="Rectangle" fill="#FFFFFF" fill-rule="nonzero" x="41.2859262" y="61.0519802" width="169.563374" height="13.2602546"></rect>
                    <rect id="Rectangle" fill="#FFFFFF" fill-rule="nonzero" x="64.4684188" y="118.734088" width="129.159602" height="6.6301273" rx="3.31506365"></rect>
                    <rect id="Rectangle" stroke="#3F3D56" x="48.5718525" y="42.4876238" width="169.563374" height="96.1368458" rx="26.88144"></rect>
                    <rect id="Rectangle" stroke="#3F3D56" x="48.5718525" y="57.0739038" width="169.563374" height="13.2602546"></rect>
                    <rect id="Rectangle" fill="#002D43" fill-rule="nonzero" x="53.8707079" y="90.887553" width="21.8577787" height="17.9013437" rx="8.75773"></rect>
                    <rect id="Rectangle" stroke="#3F3D56" x="56.5201357" y="87.5724894" width="21.8577787" height="17.9013437" rx="8.75773"></rect>
                    <rect id="Rectangle" stroke="#3F3D56" x="68.4425604" y="115.419024" width="129.159602" height="6.6301273" rx="3.31506365"></rect>
                    <line x1="34" y1="143.265559" x2="236.018864" y2="143.265559" id="Path" stroke="#3F3D56"></line>
                    <path d="M256.213296,114.990747 L250.430023,120.422933 C250.034339,120.795972 249.418799,120.824717 248.988834,120.490234 C243.40429,116.116781 238.443565,111.026566 234.239776,105.35618 C233.918396,104.919705 233.974835,104.317264 234.371919,103.945662 L240.191079,98.479766 C240.421972,98.2626439 240.737899,98.1552807 241.056109,98.1857975 C241.374319,98.2163144 241.663109,98.3816711 241.846838,98.6385561 C246.093889,104.593664 250.796466,109.593035 256.095957,113.340059 C256.360452,113.526752 256.526589,113.819329 256.549267,114.138365 C256.571946,114.457402 256.448814,114.769797 256.213296,114.990747 Z" id="Path" fill="#F2F2F2" fill-rule="nonzero"></path>
                    <path d="M256.875655,113.664722 L251.092382,119.09691 C250.696697,119.469947 250.081157,119.498691 249.651193,119.164208 C244.066649,114.790755 239.105924,109.70054 234.902134,104.030154 C234.580753,103.59368 234.637191,102.991239 235.034275,102.619637 L240.853435,97.1537405 C241.084328,96.9366185 241.400255,96.8292552 241.718465,96.8597721 C242.036675,96.890289 242.325465,97.0556456 242.509194,97.3125307 C246.756246,103.267638 251.458837,108.26701 256.758316,112.014036 C257.02281,112.200729 257.188946,112.493305 257.211624,112.812341 C257.234303,113.131377 257.111171,113.443771 256.875655,113.664722 Z" id="Path" stroke="#3F3D56"></path>
                    <ellipse id="Oval" fill="#002D43" fill-rule="nonzero" transform="translate(246.101581, 109.183752) rotate(-43.734230) translate(-246.101581, -109.183752) " cx="246.101581" cy="109.183752" rx="1.8854327" ry="3.53479283"></ellipse>
                    <ellipse id="Oval" stroke="#3F3D56" transform="translate(245.960575, 108.015312) rotate(-43.734230) translate(-245.960575, -108.015312) " cx="245.960575" cy="108.015312" rx="1.8854327" ry="3.53479283"></ellipse>
                    <path d="M252.565111,96.0316631 L251.365243,103.88541 C251.283989,104.423857 250.820508,104.819049 250.280074,104.81082 C243.242958,104.678813 236.255323,103.594851 229.504675,101.587894 C228.986771,101.432077 228.662706,100.914716 228.745929,100.376576 L229.953246,92.4740918 C230.000999,92.160339 230.182284,91.8832195 230.449617,91.7153186 C230.71695,91.5474177 231.043696,91.5054634 231.344272,91.6004447 C238.30273,93.8096324 245.033115,94.9767776 251.464628,94.7785193 C251.785426,94.7683696 252.094065,94.9026168 252.306761,95.1448182 C252.519457,95.3870196 252.614141,95.712045 252.565111,96.0316631 Z" id="Path" fill="#F2F2F2" fill-rule="nonzero"></path>
                    <path d="M251.902755,94.0426233 L250.702885,101.896372 C250.621632,102.434819 250.15815,102.830012 249.617717,102.821782 C242.580601,102.689776 235.592965,101.605815 228.842318,99.5988574 C228.324414,99.4430405 228.000349,98.92568 228.083572,98.3875395 L229.290889,90.4850538 C229.338642,90.1713009 229.519927,89.8941814 229.78726,89.7262805 C230.054592,89.5583796 230.381339,89.5164252 230.681914,89.6114065 C237.64037,91.8205946 244.370756,92.98774 250.802265,92.7894816 C251.123064,92.7793307 251.431703,92.913577 251.6444,93.155778 C251.857097,93.3979789 251.951784,93.7230045 251.902755,94.0426233 Z" id="Path" stroke="#3F3D56"></path>
                    <ellipse id="Oval" fill="#002D43" fill-rule="nonzero" transform="translate(240.928231, 97.468266) rotate(-81.248210) translate(-240.928231, -97.468266) " cx="240.928231" cy="97.4682663" rx="1.88311075" ry="3.53913703"></ellipse>
                    <ellipse id="Oval" stroke="#3F3D56" transform="translate(240.103103, 96.627108) rotate(-81.248210) translate(-240.103103, -96.627108) " cx="240.103103" cy="96.6271082" rx="1.88311075" ry="3.53913703"></ellipse>
                    <ellipse id="Oval" fill="#2F2E41" fill-rule="nonzero" cx="218.797584" cy="28.5643564" rx="3.97414159" ry="3.97807638"></ellipse>
                    <path d="M222.117093,30.5078635 C223.328357,28.854916 223.045106,26.5717838 221.464701,25.2492928 C221.564074,25.3068677 221.662124,25.3680694 221.757813,25.4349929 C223.559237,26.6957146 223.973667,29.1440074 222.683575,30.904038 C221.393483,32.6640687 218.88717,33.0696641 217.084923,31.810065 C216.989233,31.7431415 216.898326,31.6721941 216.810513,31.5988526 C218.601408,32.6341645 220.905379,32.160487 222.117093,30.5078635 L222.117093,30.5078635 Z" id="Path" fill="#2F2E41" fill-rule="nonzero"></path>
                    <ellipse id="Oval" fill="#2F2E41" fill-rule="nonzero" cx="218.135227" cy="37.1835219" rx="7.28592624" ry="7.29314003"></ellipse>
                    <path d="M219.459941,48.1901435 C219.459941,48.0185759 218.059373,46.8176045 218.059373,46.8176045 C218.059373,46.8176045 211.056544,44.9303625 209.655979,46.3029015 C208.843401,47.0550552 208.629977,48.2402635 209.130768,49.2195495 L215.608384,51.1067893 L219.459941,48.1901435 Z" id="Path" fill="#3F3D56" fill-rule="nonzero"></path>
                    <path d="M218.632397,43.5725533 C218.632397,43.5725533 217.08974,48.0930964 218.632397,48.4547403 C220.175055,48.8163841 210.404887,50.4437765 210.404887,50.4437765 L208.86223,47.3698088 C208.86223,47.3698088 214.175829,44.4766629 213.490205,40.4985856 L218.632397,43.5725533 Z" id="Path" fill="#FBBEBE" fill-rule="nonzero"></path>
                    <path d="M218.632397,43.5725533 C218.632397,43.5725533 217.08974,48.0930964 218.632397,48.4547403 C220.175055,48.8163841 210.404887,50.4437765 210.404887,50.4437765 L208.86223,47.3698088 C208.86223,47.3698088 214.175829,44.4766629 213.490205,40.4985856 L218.632397,43.5725533 Z" id="Path" fill="#000000" fill-rule="nonzero" opacity="0.1"></path>
                    <path d="M200.25159,57.7369165 L201.100021,68.7826626 C201.100021,68.7826626 200.631994,76.9944311 202.439836,84.5450643 C202.439836,84.5450643 202.274824,93.6017161 205.365531,93.539604 C208.456238,93.4768491 205.84378,82.8461015 205.84378,82.8461015 L205.324647,60.0643941 L200.25159,57.7369165 Z" id="Path" fill="#FBBEBE" fill-rule="nonzero"></path>
                    <path d="M229.428262,57.0739038 L230.14664,68.2234769 C230.14664,68.2234769 231.762993,76.3644308 231.044615,84.1514273 C231.044615,84.1514273 232.481373,93.1772661 229.428262,93.531221 C226.375151,93.885176 227.452719,82.9125874 227.452719,82.9125874 L224.758796,60.0825089 L229.428262,57.0739038 Z" id="Path" fill="#FBBEBE" fill-rule="nonzero"></path>
                    <path d="M215.422315,90.887553 C215.422315,90.887553 217.047523,109.101638 216.505786,110.152452 C215.964049,111.203266 216.505786,130.117891 216.505786,130.117891 C216.505786,130.117891 217.047523,137.298444 216.686365,137.298444 C216.325207,137.298444 213.25537,136.24763 213.25537,136.24763 C213.25537,136.24763 210.907847,127.315723 210.36611,125.564369 C209.824373,123.813015 209.824376,114.88111 209.824376,111.203266 C209.824376,107.525422 206.212802,92.2886407 206.212802,92.2886407 L215.422315,90.887553 Z" id="Path" fill="#FBBEBE" fill-rule="nonzero"></path>
                    <path d="M215.422315,90.887553 C215.422315,90.887553 217.047523,109.101638 216.505786,110.152452 C215.964049,111.203266 216.505786,130.117891 216.505786,130.117891 C216.505786,130.117891 217.047523,137.298444 216.686365,137.298444 C216.325207,137.298444 213.25537,136.24763 213.25537,136.24763 C213.25537,136.24763 210.907847,127.315723 210.36611,125.564369 C209.824373,123.813015 209.824376,114.88111 209.824376,111.203266 C209.824376,107.525422 206.212802,92.2886407 206.212802,92.2886407 L215.422315,90.887553 Z" id="Path" fill="#000000" fill-rule="nonzero" opacity="0.1"></path>
                    <path d="M211.563481,136.34825 C211.563481,136.34825 214.361901,134.592603 215.061504,135.645992 C215.444014,136.241909 215.91599,136.774896 216.460715,137.226074 L216.810513,143.08523 C216.810513,143.08523 214.770693,142.811904 214.42089,143.338599 C214.071088,143.865294 211.38858,144.248661 209.639568,143.546401 C207.890557,142.844142 209.639568,139.508413 209.639568,139.508413 L211.563481,136.34825 Z" id="Path" fill="#6F3625" fill-rule="nonzero"></path>
                    <path d="M227.408224,88.2355021 C227.408224,88.2355021 227.217028,94.1113232 224.916671,98.1317061 C222.616313,102.152089 219.962057,105.473279 220.315965,108.61966 C220.669874,111.766041 222.970222,110.542451 221.554618,123.827192 C221.554618,123.827192 220.669876,129.245968 221.554618,132.04275 C222.43936,134.839532 217.307795,133.790749 217.307795,133.790749 C217.307795,133.790749 216.423053,122.253999 215.715241,120.680806 C215.007428,119.107613 211.999277,108.61966 213.060984,104.24969 C214.122691,99.8797194 217.307795,88.5177498 217.307795,88.5177498 L227.408224,88.2355021 Z" id="Path" fill="#FBBEBE" fill-rule="nonzero"></path>
                    <path d="M217.836096,131.33133 C217.836096,131.33133 220.229128,131.504733 220.912849,131.678137 C221.292533,131.78981 221.700737,131.651774 221.938435,131.33133 C221.938435,131.33133 222.793079,136.706834 223.305881,137.920656 C223.818683,139.134479 222.793088,142.602546 220.229128,142.602546 C217.665168,142.602546 216.981444,141.041916 216.981444,140.521708 L216.981444,133.758977 L216.810513,132.198347 C216.810513,132.198347 217.836096,131.851545 217.836096,131.33133 Z" id="Path" fill="#6F3625" fill-rule="nonzero"></path>
                    <ellipse id="Oval" fill="#FBBEBE" fill-rule="nonzero" cx="217.804048" cy="38.8410537" rx="6.29239084" ry="6.29862093"></ellipse>
                    <path d="M218.262239,46.9067059 C218.262239,46.9067059 218.349345,49.1117368 214.865163,48.5825309 C211.380981,48.053325 209.813099,46.4657001 209.813099,46.4657001 C209.813099,46.4657001 202.147898,47.8769198 201.625277,50.875762 C201.102656,53.8746042 204.935249,58.4610712 204.935249,58.4610712 C204.935249,58.4610712 204.935249,61.6363161 205.457875,62.8711331 C205.980501,64.10595 203.018949,73.6316872 204.935249,74.1608955 C206.85155,74.6901037 208.071013,74.6901037 211.903614,75.5721152 C215.736214,76.4541266 219.743022,76.6305317 220.962485,75.5721152 C222.181948,74.5136986 223.924042,74.1608955 225.143505,74.1608955 C226.362968,74.1608955 227.234014,72.2204675 226.362968,71.338456 C225.491921,70.4564446 224.620877,68.1632088 224.620877,67.2811973 C224.620877,66.3991859 225.840342,63.0475358 225.143505,61.8127189 L227.408224,49.6409451 C227.408224,49.6409451 224.969295,47.7005171 223.575623,47.5241143 C222.181951,47.3477116 218.262239,46.9067059 218.262239,46.9067059 Z" id="Path" fill="#008CE6" fill-rule="nonzero"></path>
                    <path d="M226.187647,49.1177511 L227.560862,49.2076648 C227.560862,49.2076648 231.497407,58.2890589 230.581932,58.8285483 C229.666458,59.3680377 224.722889,61.8856501 224.173602,61.7058203 C223.624316,61.5259905 226.187647,49.1177511 226.187647,49.1177511 Z" id="Path" fill="#008CE6" fill-rule="nonzero"></path>
                    <path d="M202.87624,49.7807638 L201.325905,49.8709076 C201.325905,49.8709076 199.775569,58.4346774 199.593177,58.9755454 C199.410784,59.5164133 205.612123,62.040475 206.1593,61.6798948 C206.706478,61.3193145 202.87624,49.7807638 202.87624,49.7807638 Z" id="Path" fill="#008CE6" fill-rule="nonzero"></path>
                    <path d="M225.035556,72.9862093 L226.940323,76.8584171 C226.940323,76.8584171 228.950617,89.6931121 227.609158,89.8517815 C226.2677,90.0104509 218.170749,89.1329137 217.290647,90.3614691 C216.410544,91.5900245 215.706458,91.7655301 215.706458,91.7655301 C215.706458,91.7655301 206.377363,93.6961148 205.321237,92.4675594 C204.265112,91.239004 205.321237,75.2678075 206.553384,74.0392545 C206.553384,74.0392545 215.178398,76.1453471 216.410542,75.2678075 C217.642686,74.3902679 225.035556,72.9862093 225.035556,72.9862093 Z" id="Path" fill="#562D21" fill-rule="nonzero"></path>
                    <path d="M221.818582,33.6017817 C221.917614,33.6628303 222.014237,33.7263892 222.109368,33.7914383 C218.708507,31.9145075 214.466479,33.1015493 212.472461,36.488123 C210.478442,39.8746967 211.435532,44.2666825 214.646747,46.4657001 C214.546081,46.4100548 214.446006,46.352362 214.346972,46.2913134 C210.927296,44.1779818 209.827164,39.62968 211.888772,36.1283155 C213.950379,32.6269511 218.394321,31.4962376 221.818582,33.6017817 L221.818582,33.6017817 Z" id="Path" fill="#2F2E41" fill-rule="nonzero"></path>
                    <path d="M214.451869,33.6017817 C214.352837,33.6628303 214.256214,33.7263892 214.161085,33.7914383 C217.561949,31.9144846 221.803998,33.101521 223.798023,36.488106 C225.792048,39.8746911 224.834943,44.2666921 221.623705,46.4657001 C221.724371,46.4100548 221.824447,46.352362 221.923481,46.2913134 C225.343158,44.1779818 226.44329,39.62968 224.381682,36.1283155 C222.320074,32.6269511 217.876131,31.4962376 214.451869,33.6017817 L214.451869,33.6017817 Z" id="Path" fill="#2F2E41" fill-rule="nonzero"></path>
                    <ellipse id="Oval" fill="#2F2E41" fill-rule="nonzero" cx="218.135227" cy="35.5259901" rx="6.62356931" ry="4.30958274"></ellipse>
                </g>
            </g>
        </g>
    </g>
</svg>