<?xml version="1.0" encoding="UTF-8"?>
<svg width="376px" height="256px" viewBox="0 0 376 256" version="1.1" xmlns="http://www.w3.org/2000/svg" xmlns:xlink="http://www.w3.org/1999/xlink">
    <title>A33149CD-3F11-459D-B0E5-60786B6FA151</title>
    <g id="Page-2" stroke="none" stroke-width="1" fill="none" fill-rule="evenodd">
        <g id="MY-USERS-(5)" transform="translate(-568.000000, -230.000000)" fill-rule="nonzero">
            <g id="Group-2" transform="translate(120.000000, 204.000000)">
                <g id="undraw_done_a34v" transform="translate(448.124090, 26.000000)">
                    <path d="M141.87591,243.5 C141.87591,250.402027 110.536191,256 71.8759104,256 C33.21563,256 1.87591036,250.402027 1.87591036,243.5 C1.87591036,241.773649 3.83198513,240.131757 7.37123747,238.638514 C17.6749758,234.283784 41.3997421,231.189189 69.2852562,231.010135 C70.1455365,231.003392 71.0090879,231 71.8759104,231 C110.536191,231 141.87591,236.597976 141.87591,243.5 Z" id="Path" fill="#3F3D56"></path>
                    <path d="M69.8759104,232 C63.6149658,241.834192 53.0276485,248.367532 41.1376554,249.734122 C29.2476624,251.100712 17.3622736,247.150298 8.87591036,239.011104 C19.0275376,235.008751 42.4020621,232.164575 69.8759104,232 Z" id="Path" fill="#000000" opacity="0.1"></path>
                    <ellipse id="Oval" fill="#3F3D56" cx="37.3759104" cy="204" rx="36.5" ry="39"></ellipse>
                    <path d="M81.8759104,28 C87.0057084,47.5706682 103.554535,60.2200502 118.87591,56.2815924" id="Path" fill="#3F3D56"></path>
                    <path d="M119.282475,56 C114.084107,35.6469606 123.742108,15.5200007 140.87591,11" id="Path" fill="#002D43"></path>
                    <path d="M92.8759104,27 C97.8421546,45.9698312 109.918324,59.2462008 119.87591,56.6834117" id="Path" fill="#002D43"></path>
                    <path d="M118.867738,56 C112.170613,30.2248005 122.908652,5.17792269 142.87591,0" id="Path" fill="#3F3D56"></path>
                    <path d="M113.87591,57.5615409 C113.87591,57.5615409 117.834681,56.480128 118.815063,55.3895523 C119.795445,54.2989765 124.465978,52.1489462 125.120862,53.3584677 C125.775746,54.5679893 132.891308,58.2807578 128.39529,59.4060845 C123.899272,60.5314112 117.744459,61.287102 116.354287,60.8955108 C114.964115,60.5039195 113.87591,57.5615409 113.87591,57.5615409 Z" id="Path" fill="#A8A8A8"></path>
                    <path d="M128.352551,58.6296431 C123.856231,59.9247775 117.701013,60.7944887 116.310745,60.343808 C115.251981,60.0005925 114.36899,57.9561209 114.007796,57 C113.924324,57.0274343 113.87591,57.0427205 113.87591,57.0427205 C113.87591,57.0427205 114.964184,60.4290624 116.354452,60.8797431 C117.744721,61.3304239 123.899944,60.4607092 128.396258,59.1655783 C129.69417,58.7917268 130.023313,58.1695052 129.820743,57.4403256 C129.747539,57.935407 129.318604,58.3513872 128.352551,58.6296431 Z" id="Path" fill="#000000" opacity="0.2"></path>
                    <rect id="Rectangle" fill="#F2F2F2" x="111.87591" y="42" width="263" height="152"></rect>
                    <rect id="Rectangle" fill="#002D43" opacity="0.3" x="118.87591" y="88" width="144" height="75"></rect>
                    <rect id="Rectangle" fill="#3F3D56" x="273.87591" y="84" width="59" height="3"></rect>
                    <rect id="Rectangle" fill="#3F3D56" x="274.87591" y="90" width="84" height="3"></rect>
                    <rect id="Rectangle" fill="#3F3D56" x="273.87591" y="105" width="59" height="3"></rect>
                    <rect id="Rectangle" fill="#3F3D56" x="273.87591" y="128" width="59" height="3"></rect>
                    <rect id="Rectangle" fill="#3F3D56" x="274.87591" y="111" width="84" height="3"></rect>
                    <rect id="Rectangle" fill="#3F3D56" x="274.87591" y="116" width="84" height="3"></rect>
                    <rect id="Rectangle" fill="#3F3D56" x="274.87591" y="121" width="84" height="3"></rect>
                    <rect id="Rectangle" fill="#002D43" x="273.87591" y="143" width="30" height="8"></rect>
                    <path d="M102.87591,132.570893 C102.87591,132.570893 108.164917,117.085205 111.984757,121.943458 C115.804597,126.801712 106.108081,135 106.108081,135 L102.87591,132.570893 Z" id="Path" fill="#A0616A"></path>
                    <path d="M77.4946072,118 L80.6885531,119.208564 C80.6885531,119.208564 82.214034,126.13134 81.6241044,127.335983 C81.0341749,128.540625 80.7392117,127.637143 81.6241044,130.046427 C82.5089972,132.455712 85.1636722,138.780087 85.4586449,139.68357 C85.7536177,140.587052 102.566557,133.961518 102.566557,130.64875 C102.566557,130.64875 106.106128,134.864997 107.87591,135.76848 C107.87591,135.76848 88.4082831,150.224192 85.7536081,152.031157 C83.0989331,153.838122 81.6241108,152.93464 79.264399,150.826515 C76.9046872,148.71839 66.8759104,131.25107 66.8759104,131.25107 L77.4946072,118 Z" id="Path" fill="#575A89"></path>
                    <path d="M86.2580158,224.921223 C86.2580158,224.921223 85.9511095,228.21338 85.3372936,228.512666 C84.7234777,228.811952 80.1198733,236.294127 85.3372936,237.790561 C90.5547138,239.286995 93.62379,238.688422 94.8514185,239.286998 C96.079047,239.885573 117.562551,241.082718 117.869457,237.790561 C118.176363,234.498404 107.434616,233.899822 107.434616,233.899822 C107.434616,233.899822 97.6135851,227.614807 96.0790503,224.322638 C94.5445155,221.030468 86.2580158,224.921223 86.2580158,224.921223 Z" id="Path" fill="#2F2E41"></path>
                    <path d="M25.7039484,231 C25.7039484,231 18.3278392,243.286505 20.1718649,244.784868 C22.0158905,246.283232 39.9745729,251.743583 42.6075359,251.976971 C45.9882534,252.276641 48.4469565,249.579603 45.6809164,248.08124 C42.9148763,246.582876 37.0754524,240.289794 37.0754524,238.192099 L37.0754524,232.798027 L25.7039484,231 Z" id="Path" fill="#2F2E41"></path>
                    <path d="M18.84731,150 C18.84731,150 12.5609558,157.846188 22.4395183,170.520791 L38.9038108,191.645144 C38.9038108,191.645144 28.7258887,207.94107 28.4265323,216.390812 C28.1271759,224.840555 26.0317267,223.029895 25.4330269,226.651208 C24.8343272,230.272522 22.1401685,228.461868 24.2356241,231.177855 C26.3310798,233.893841 34.1141996,236.308056 36.5090052,234.19562 C38.9038108,232.083185 38.9038108,229.367198 38.9038108,228.160092 C38.9038108,226.952987 43.0947222,220.012126 43.394072,217.899697 C43.6934219,215.787268 54.7694002,198.586005 54.7694002,198.586005 C54.7694002,198.586005 58.3616118,188.325609 54.1707004,182.591853 C49.979789,176.858098 47.2104192,168.726013 47.2104192,168.726013 C47.2104192,168.726013 59.5590146,183.798959 68.2401872,187.420263 C68.2401872,187.420263 71.5330457,188.023814 70.9343427,189.532698 C70.3356397,191.041583 70.9343427,191.946909 71.8323956,193.4558 C72.7304485,194.964691 79.0168124,212.467717 81.1122681,216.994367 C83.2077237,221.521017 82.3096708,224.237 84.7044797,225.745881 C87.0992885,227.254762 97.8759104,226.04766 97.8759104,224.538776 C97.8759104,223.029891 96.3791577,219.106799 95.4811048,216.994367 C94.5830519,214.881935 87.3986351,190.438038 87.9973381,186.21318 C88.5960412,181.988322 87.697985,176.254557 83.2077237,173.840345 C78.7174625,171.426134 55.966803,151.810663 54.7694002,151.810663 C53.5719974,151.810663 18.84731,150 18.84731,150 Z" id="Path" fill="#2F2E41"></path>
                    <circle id="Oval" fill="#A0616A" cx="78.3759104" cy="90.5" r="12.5"></circle>
                    <path d="M68.5070758,91 C68.5070758,91 64.5687518,98.0533301 59.7216014,98.9733432 C54.8744511,99.8933564 72.4453932,114 72.4453932,114 C72.4453932,114 76.6866538,100.506677 80.3220412,99.8933431 C83.9574285,99.2800087 68.5070758,91 68.5070758,91 Z" id="Path" fill="#A0616A"></path>
                    <path d="M80.8759104,120.112402 C80.8759104,124.025551 69.0580581,135.162943 69.0580581,135.162943 L57.8462479,144.494282 C57.8462479,144.494282 57.5432236,147.805401 56.3311363,148.106411 C55.119049,148.407421 53.6039407,148.407421 54.816028,150.213487 C56.0281153,152.019554 59.0583352,155.932693 56.3311363,156.534703 C55.5089528,156.658919 54.6804118,156.737302 53.8494048,156.769482 C53.1221255,156.811626 52.2676395,156.850761 51.307012,156.88688 C49.0646768,156.965146 46.2586921,157.016313 43.2193721,156.995238 C42.3557316,156.992226 41.4769735,156.982195 40.5830978,156.965146 C29.1258235,156.7394 15.8534488,155.429979 16.9382901,151.116507 C18.7564227,143.892245 17.5443354,141.484159 21.4836184,137.57102 C25.4229014,133.65788 31.786359,120.112389 31.786359,120.112389 C31.786359,120.112389 44.5132808,98.7406195 55.1190457,98.7406195 L57.3220207,98.165676 C59.4212329,97.616339 61.6388366,98.4625859 62.8279045,100.266744 C64.9551259,103.484553 68.309599,108.318789 70.2701422,109.878021 C73.3003589,112.286107 73.7730936,110.558307 73.7730936,110.558307 C73.7730936,110.558307 80.8759104,116.19926 80.8759104,120.112402 Z" id="Path" fill="#575A89"></path>
                    <path d="M53.8921563,166 C53.8921563,166 62.4492799,179.384101 57.1379617,181.763496 C51.8266434,184.142891 48.8759104,167.784542 48.8759104,167.784542 L53.8921563,166 Z" id="Path" fill="#A0616A"></path>
                    <path d="M70.4679136,88.6977869 C70.943577,88.6360821 71.0940125,88.0190963 71.1740758,87.5331549 C71.6028148,84.9308957 73.4892943,82.4632508 76.0240068,82.0431677 C76.9928199,81.9106716 77.977985,81.9922892 78.9136547,82.2825652 C80.2540665,82.6606666 81.5123173,83.2973295 82.6213691,84.1586333 C83.2067205,84.6137599 83.7700431,85.1420813 84.4742314,85.3546766 C84.9392981,85.4950834 86.9139598,86.3975544 87.3753465,86.5502543 C88.3897526,86.8859805 89.2291974,87.9774538 90.2739329,87.7613378 C91.2734405,87.554581 91.6530419,86.3138433 91.8136883,85.2788527 C92.17967,82.9209311 90.8667909,79.4026917 89.5614694,77.4276592 C88.5709098,75.9288844 86.8946639,75.0663218 85.2186921,74.5051795 C83.2552642,73.8924971 81.2378345,73.4804041 79.195705,73.274886 C76.4389155,72.9401858 73.5836661,72.7626145 70.9417466,73.6386044 C68.299827,74.5145943 65.8942197,76.6574621 65.4010206,79.4657209 C65.2982812,80.0507085 65.2790331,80.6498874 65.1531264,81.2300693 C64.845986,82.6454182 63.9350241,83.8350985 63.4036382,85.1784164 C62.6283939,87.1734294 62.7103568,89.4124816 63.6292612,91.3419574 C64.3650992,92.8631646 65.6447215,94.324988 65.3685642,96 L67.645768,94.1541139 C68.3238674,93.7580167 68.640624,92.9287553 68.4058733,92.1641757 L68.0748322,89.2329727 C68.0142179,88.6962592 67.9614291,88.117087 68.2225381,87.6481888 C69.2346609,85.830672 69.6748288,88.8006588 70.4679136,88.6977869 Z" id="Path" fill="#2F2E41"></path>
                    <path d="M48.7117745,144.951205 L51.6624445,156.883108 C48.6866784,156.986685 44.7493398,157.041516 40.5769698,156.962312 C39.5244536,153.891751 38.5189714,150.690208 37.748419,147.692774 C34.9292716,136.726507 39.6278472,119.972491 42.1337571,112.05241 C44.6396671,104.13233 50.9044571,102 50.9044571,102 C50.9044571,102 54.036842,102.913856 58.1089393,105.655421 C62.1810366,108.396986 48.7117745,144.951205 48.7117745,144.951205 Z" id="Path" fill="#000000" opacity="0.1"></path>
                    <path d="M51.4564936,144.574087 L54.463103,156.770954 C53.7275186,156.812828 52.8632748,156.851713 51.8916774,156.887602 C49.6237359,156.965369 46.7857082,157.016209 43.7116808,156.995269 C42.6053234,153.792031 41.5356294,150.412304 40.7295998,147.265892 C37.9712576,136.498665 42.5684945,120.048737 45.020352,112.272404 C47.4722095,104.49607 52.8356498,113.020129 52.8356498,113.020129 C52.8356498,113.020129 50.6902737,107.935607 54.6745413,110.627412 C58.6588088,113.319218 51.4564936,144.574087 51.4564936,144.574087 Z" id="Path" fill="#000000" opacity="0.1"></path>
                    <path d="M51.9044353,102 C51.9044353,102 45.6396664,104.090906 43.1337589,111.85714 C40.6278513,119.623374 35.9292704,136.051946 38.748419,146.805194 C41.5675675,157.558442 47.5190954,171 47.5190954,171 C47.5190954,171 53.4706301,166.818181 55.6633136,167.714286 L49.7117823,144.116884 C49.7117823,144.116884 63.1810396,108.272725 59.1089373,105.584415 C55.036835,102.896105 51.9044353,102 51.9044353,102 Z" id="Path" fill="#575A89"></path>
                    <rect id="Rectangle" fill="#3F3D56" x="111.87591" y="80" width="144" height="75"></rect>
                    <ellipse id="Oval" fill="#FFFFFF" cx="187.87591" cy="118.5" rx="16" ry="16.5"></ellipse>
                    <path d="M186.87591,100 C176.3825,100 167.87591,108.50659 167.87591,119 C167.87591,129.49341 176.3825,138 186.87591,138 C197.369321,138 205.87591,129.49341 205.87591,119 C205.845233,108.519323 197.356587,100.030677 186.87591,100 Z M182.975431,129.130286 L173.237929,119.392785 L175.969179,116.661538 L182.984566,123.676924 L197.791776,108.86971 L200.523026,111.600961 L182.975431,129.130286 L182.975431,129.130286 Z" id="Shape" fill="#002D43"></path>
                </g>
            </g>
        </g>
    </g>
</svg>