<?xml version="1.0" encoding="UTF-8"?>
<svg width="377px" height="200px" viewBox="0 0 377 200" version="1.1" xmlns="http://www.w3.org/2000/svg" xmlns:xlink="http://www.w3.org/1999/xlink">
    <title>09B4692D-BEEF-4682-A02C-4575C80DFB07</title>
    <g id="Page-2" stroke="none" stroke-width="1" fill="none" fill-rule="evenodd">
        <g id="MY-USERS-(OP3.2)" transform="translate(-213.000000, -359.000000)" fill-rule="nonzero">
            <g id="Group-2" transform="translate(120.000000, 204.000000)">
                <g id="undraw_personal_info_0okl" transform="translate(93.000000, 155.000000)">
                    <polygon id="Path" fill="#002D43" points="376.257549 35.5808171 376.257549 77.6092362 375.547069 76.5506217 324.573712 0.710479574 324.094139 3.12638804e-13 352.342806 3.12638804e-13 352.818828 0.710479574 375.547069 34.5222025"></polygon>
                    <path d="M198.84818,9.97602006e-12 C146.096934,-0.0628259099 95.494216,19.5080388 58.24087,54.3807609 C55.0778303,57.3341391 52.0366872,60.3692794 49.1174407,63.4861817 C43.1212833,69.8684853 37.6045089,76.6299522 32.6065186,83.7222917 C31.1652298,85.7674481 29.7689073,87.8391219 28.4175511,89.9373132 C23.5648688,97.4653079 19.2906104,105.305441 15.6270002,113.398605 C15.2258533,114.280309 14.8341659,115.165328 14.451938,116.053662 C12.3255045,120.949442 10.4333692,125.909305 8.775532,130.933252 C4.51765167,143.816011 1.79142268,157.097245 0.646094994,170.537027 C0.216548322,175.545505 0,180.58934 0,185.668532 L0,186 L377,186 L377,9.97602006e-12 L198.84818,9.97602006e-12 Z M376,185 L1,185 C1.00708898,180.50849 1.1866765,176.057711 1.53876255,171.647665 C2.60274731,158.139913 5.27273943,144.78395 9.49968808,131.825143 C11.1514206,126.758983 13.0276376,121.788599 15.1283389,116.913989 C19.0152922,107.884864 23.6673555,99.1583125 29.0404639,90.8169939 C30.3838258,88.719855 31.7768105,86.6502375 33.2194181,84.6081416 C38.198683,77.5180596 43.6962033,70.7559822 49.6729428,64.369925 C85.9685249,25.5645978 139.380451,1 198.83219,1 L376,1 L376,185 Z" id="Shape" fill="#3F3D56"></path>
                    <path d="M176.054217,170.821805 C180.845336,185.240948 179.162686,198.779616 179.162686,198.779616 C179.162686,198.779616 169.712114,188.940231 164.921002,174.521087 C160.12989,160.101943 161.812529,146.563275 161.812529,146.563275 C161.812529,146.563275 171.263101,156.402661 176.054217,170.821805 Z" id="Path" fill="#002D43"></path>
                    <path d="M182.271158,170.821805 C177.480039,185.240948 179.162686,198.779616 179.162686,198.779616 C179.162686,198.779616 188.613258,188.940231 193.404373,174.521087 C198.195488,160.101943 196.512842,146.563275 196.512842,146.563275 C196.512842,146.563275 187.06227,156.402661 182.271158,170.821805 Z" id="Path" fill="#002D43"></path>
                    <path d="M184.200838,170.97773 C184.521975,186.168625 178.91778,198.607265 178.91778,198.607265 C178.91778,198.607265 172.792892,186.41659 172.471755,171.225691 C172.150618,156.034792 177.754813,143.596156 177.754813,143.596156 C177.754813,143.596156 183.879691,155.786831 184.200838,170.97773 Z" id="Path" fill="#3F3D56"></path>
                    <ellipse id="Oval" fill="#3F3D56" cx="178.914615" cy="198.778643" rx="13.5493037" ry="1"></ellipse>
                    <circle id="Oval" fill="#F2F2F2" cx="49.7370693" cy="191.322028" r="7.68782948"></circle>
                    <path d="M51.147421,178.884554 C45.4086947,178.892472 40.7590613,183.543694 40.7531048,189.282423 C40.7531048,189.339261 40.7531048,189.396099 40.7566572,189.452938 C40.8257148,193.365601 43.0813767,196.909624 46.5967993,198.628782 C47.2070308,198.929475 47.8461788,199.167519 48.5044369,199.339261 C50.238293,199.793977 52.0601013,199.793977 53.7939574,199.339261 C54.4522155,199.167519 55.0913635,198.929475 55.701595,198.628782 C60.0546896,196.508125 62.3675732,191.663185 61.2792611,186.944902 C60.1909489,182.226619 55.9895918,178.884245 51.147421,178.884554 L51.147421,178.884554 Z M53.6909378,198.628782 C52.8623403,198.856556 52.0067539,198.971272 51.147421,198.969825 C50.9769059,198.969825 50.8063908,198.966259 50.6394281,198.955602 L50.6358757,198.955602 C49.949772,198.921613 49.2695147,198.812009 48.6074565,198.628782 C45.7725847,197.852287 43.4414145,195.834551 42.2664263,193.140327 L42.2664263,193.136774 C40.6575354,189.426769 41.5233446,185.107634 44.437875,182.304389 C47.3524055,179.501143 51.7019585,178.804053 55.3465506,180.556086 C58.9911427,182.30812 61.1633496,186.14036 60.7944438,190.167341 C60.425538,194.194323 57.5931982,197.568104 53.6909378,198.628782 L53.6909378,198.628782 Z" id="Shape" fill="#3F3D56"></path>
                    <rect id="Rectangle" fill="#F2F2F2" x="80.9911155" y="139.084789" width="57.5488455" height="10.2189556"></rect>
                    <rect id="Rectangle" fill="#F2F2F2" x="260.387208" y="43.525286" width="57.5488455" height="10.2189556"></rect>
                    <rect id="Rectangle" fill="#F2F2F2" x="260.387208" y="65.9053925" width="57.5488455" height="10.2189556"></rect>
                    <rect id="Rectangle" fill="#F2F2F2" x="260.387208" y="87.5750195" width="57.5488455" height="10.2189556"></rect>
                    <rect id="Rectangle" fill="#F2F2F2" x="260.387208" y="109.244647" width="57.5488455" height="10.2189556"></rect>
                    <rect id="Rectangle" fill="#F2F2F2" x="260.387208" y="131.624753" width="57.5488455" height="10.2189556"></rect>
                    <rect id="Rectangle" fill="#F2F2F2" x="260.387208" y="154.00486" width="57.5488455" height="10.2189556"></rect>
                    <path d="M80.6358757,135.449385 L80.6358757,149.658977 L157.36767,149.658977 L157.36767,135.449385 L80.6358757,135.449385 Z M156.65719,148.948497 L81.3463552,148.948497 L81.3463552,136.159865 L156.65719,136.159865 L156.65719,148.948497 Z" id="Shape" fill="#3F3D56"></path>
                    <circle id="Oval" fill="#3F3D56" cx="208.522199" cy="55.5204405" r="3.55239787"></circle>
                    <circle id="Oval" fill="#3F3D56" cx="208.522199" cy="77.5453073" r="3.55239787"></circle>
                    <circle id="Oval" fill="#3F3D56" cx="208.522199" cy="99.5701741" r="3.55239787"></circle>
                    <circle id="Oval" fill="#3F3D56" cx="208.522199" cy="121.595041" r="3.55239787"></circle>
                    <circle id="Oval" fill="#3F3D56" cx="208.522199" cy="143.619908" r="3.55239787"></circle>
                    <circle id="Oval" fill="#3F3D56" cx="208.522199" cy="165.644774" r="3.55239787"></circle>
                    <rect id="Rectangle" fill="#3F3D56" x="240.49378" y="55.1652007" width="97.3357016" height="1"></rect>
                    <rect id="Rectangle" fill="#3F3D56" x="240.49378" y="77.1900675" width="97.3357016" height="1"></rect>
                    <rect id="Rectangle" fill="#3F3D56" x="240.49378" y="99.2149343" width="97.3357016" height="1"></rect>
                    <rect id="Rectangle" fill="#3F3D56" x="240.49378" y="121.239801" width="97.3357016" height="1"></rect>
                    <rect id="Rectangle" fill="#3F3D56" x="240.49378" y="143.264668" width="97.3357016" height="1"></rect>
                    <rect id="Rectangle" fill="#3F3D56" x="240.49378" y="165.289535" width="97.3357016" height="1"></rect>
                    <path d="M355.364242,185.867076 L346.026362,178.206178 L353.687261,168.868298 L363.02514,176.529197 L355.364242,185.867076 Z M347.026167,178.107645 L355.265719,184.867261 L362.025336,176.627709 L353.785787,169.868103 L347.026167,178.107645 Z" id="Shape" fill="#3F3D56"></path>
                    <polygon id="Rectangle" fill="#002D43" transform="translate(212.074614, 19.641210) rotate(39.365050) translate(-212.074614, -19.641210) " points="206.390777 13.9573739 217.758451 13.9573739 217.758451 25.325047 206.390777 25.325047"></polygon>
                    <path d="M166.248724,77.5453002 C166.264638,87.5654983 163.078302,97.328632 157.154526,105.410309 C156.47957,106.333933 155.772643,107.236242 155.030156,108.106579 C152.933143,110.577998 150.58814,112.827784 148.031968,114.820611 C147.776195,115.019545 147.51687,115.21848 147.254014,115.413861 C146.294883,116.131446 145.308491,116.812322 144.294838,117.45649 C143.985826,117.651872 143.676721,117.843702 143.364156,118.028426 C142.657229,118.458266 141.937267,118.867976 141.20427,119.257556 C140.845478,119.449385 140.483133,119.637663 140.120789,119.818835 C124.964804,127.380674 106.921609,126.257293 92.8206465,116.873897 C92.4511972,116.632334 92.0888313,116.383666 91.7300355,116.127893 C91.0551155,115.651872 90.3907815,115.154536 89.7442451,114.642991 C89.1474423,114.174075 88.5648703,113.687396 87.992913,113.19006 C84.9818133,110.571712 82.3140932,107.58291 80.0533037,104.294856 C79.6128064,103.651872 79.1865187,102.998231 78.7744405,102.333933 C68.2674996,85.2826118 69.6527183,63.4594306 82.2313,47.8734553 C94.8098817,32.28748 115.848534,26.3255018 134.733959,32.9951397 C153.619384,39.6647776 166.248724,57.516737 166.248724,77.5453002 Z" id="Path" fill="#3F3D56"></path>
                    <circle id="Oval" fill="#A07361" cx="117.222465" cy="62.342302" r="12.871833"></circle>
                    <path d="M108.373083,68.5100533 C108.373083,68.5100533 112.663691,78.163929 106.764103,81.9182238 C100.864515,85.6725187 116.417975,101.225972 116.417975,101.225972 L133.580419,82.9908774 C133.580419,82.9908774 124.46287,77.091286 126.071851,67.4374139 L108.373083,68.5100533 Z" id="Path" fill="#A07361"></path>
                    <path d="M148.031968,114.820611 C147.776195,115.019545 147.51687,115.21848 147.254014,115.413861 C146.294883,116.131446 145.308491,116.812322 144.294838,117.45649 C143.985826,117.651872 143.676721,117.843702 143.364156,118.028426 L143.232675,117.314394 L144.468909,116.67141 L148.031968,114.820611 Z" id="Path" fill="#A0616A"></path>
                    <path d="M143.364117,118.028426 C143.676728,117.843702 143.985787,117.651872 144.294845,117.45649 L144.305503,117.314394 L144.468913,116.67141 L151.27886,89.9644831 L130.635876,80.4653712 L118.564828,87.8188348 L107.751329,81.150984 C107.751329,81.150984 101.399641,81.3818899 99.790405,82.9911261 C98.5293037,84.2522274 92.344579,87.1545364 89.7158046,88.3552469 C88.9840107,88.6891723 88.5293037,88.891659 88.5293037,88.891659 C88.5293037,88.891659 88.9342771,101.062174 89.7442238,114.642991 C90.3907602,115.154536 91.0550586,115.651872 91.7300142,116.127893 C92.0888064,116.383666 92.451151,116.632334 92.8206004,116.873897 C106.921579,126.257285 124.96478,127.380665 140.120778,119.818835 L143.364117,118.028426 Z" id="Path" fill="#002D43"></path>
                    <path d="M92.8206181,88.3552469 L92.8206181,116.873897 C92.4511687,116.632334 92.0888028,116.383666 91.7300071,116.127893 C91.055087,115.651872 90.3907531,115.154536 89.7442167,114.642991 C89.1474139,114.174075 88.5648419,113.687396 87.9928845,113.19006 C84.9817848,110.571712 82.3140648,107.58291 80.0532753,104.294856 C79.612778,103.651872 79.1864902,102.998231 78.7744121,102.333933 C79.1225471,101.19006 79.5133108,99.9265909 79.9467034,98.543524 C82.6287709,89.9644831 88.5293037,88.3552469 88.5293037,88.3552469 L92.8206181,88.3552469 Z" id="Path" fill="#002D43"></path>
                    <path d="M143.364117,118.028426 C143.676728,117.843702 143.985787,117.651872 144.294845,117.45649 C145.307279,116.813506 146.293661,116.13263 147.253993,115.413861 C147.51687,115.21848 147.776195,115.019545 148.031968,114.820611 C150.588145,112.827778 152.93316,110.577992 155.030192,108.106579 C155.772643,107.236242 156.47957,106.333933 157.154526,105.410309 C154.969801,98.5826004 151.27886,89.9644831 151.27886,89.9644831 L143.769091,89.428071 C143.769091,89.428071 140.721133,113.82594 140.120778,119.818835 L143.364117,118.028426 Z" id="Path" fill="#002D43"></path>
                    <path d="M109.330426,47.4438117 C108.686469,47.9919215 108.014414,48.5061365 107.316991,48.9843694 C106.437558,49.7140031 105.625228,50.5209224 104.889734,51.39546 L104.059776,52.3246714 C103.353488,53.1154352 102.604043,54.017929 102.633844,55.0777584 C102.644906,55.4710089 102.765755,55.8526004 102.813094,56.2431545 C103.000888,57.7924405 102.053947,59.4953037 102.833442,60.8473179 C103.058803,61.2381989 103.407371,61.5438188 103.655822,61.9204547 C103.97193,62.4032012 104.111961,62.9801598 104.05232,63.554103 C104.889975,63.5884405 105.57714,62.8377655 105.839854,62.0416199 C106.102568,61.2454742 106.067041,60.3853925 106.194991,59.5568384 C106.322941,58.7282842 106.682316,57.850952 107.435179,57.4820817 C109.041542,56.6950337 110.886128,58.7413357 112.600721,58.2313996 C113.797879,57.8753499 114.429236,56.3912824 115.653194,56.1424263 C116.529215,55.9643126 117.372554,56.4848135 118.186835,56.8537336 C119.001115,57.2226536 120.098735,57.3934316 120.674522,56.7095879 C121.055726,56.2568348 121.096412,55.5313002 121.602021,55.2236199 C122.207982,54.854881 122.966853,55.3682842 123.425627,55.9092682 C123.884401,56.4502522 124.391169,57.1117549 125.100227,57.0920817 C126.040867,57.0659609 126.761364,55.8132185 127.654199,56.1104227 C128.661943,56.4458721 128.198465,58.0584867 128.809908,58.9269414 C129.326842,59.6611616 130.409378,59.6179218 131.299073,59.4966181 C131.604056,59.5275115 131.903521,59.3995509 132.092004,59.157801 C132.280454,58.9160511 132.331551,58.594421 132.227211,58.3061812 L131.855588,53.3781776 C131.853966,53.0385444 131.779652,52.7031941 131.637641,52.3946714 C131.378913,51.9259503 130.843137,51.6885719 130.478796,51.29627 C129.71275,50.4714458 129.749563,49.0254423 128.79698,48.4256519 C128.302359,48.1142167 127.655368,48.1235666 127.164245,47.8066359 C126.534405,47.4001918 126.331517,46.5861954 125.890323,45.9801918 C125.259595,45.1138508 124.156888,44.7121812 123.090952,44.601968 C122.025016,44.4917549 120.949147,44.6246785 119.877982,44.5897442 C117.700306,44.5186963 115.522696,43.9058224 113.334401,44.2645933 C111.425158,44.577627 110.623595,46.1976767 109.330426,47.4438117 Z" id="Path" fill="#2F2E41"></path>
                    <circle id="Oval" fill="#3F3D56" cx="363.06098" cy="43.5204334" r="1.48711901"></circle>
                    <circle id="Oval" fill="#3F3D56" cx="352.759027" cy="25.4032043" r="1.48711901"></circle>
                    <circle id="Oval" fill="#3F3D56" cx="348.496149" cy="5.86501599" r="1.48711901"></circle>
                </g>
            </g>
        </g>
    </g>
</svg>