<?xml version="1.0" encoding="UTF-8"?>
<svg width="278px" height="160px" viewBox="0 0 278 160" version="1.1" xmlns="http://www.w3.org/2000/svg" xmlns:xlink="http://www.w3.org/1999/xlink">
    <title>0D708562-0ED4-4EF8-9714-1560716AAD1E</title>
    <g id="Page-2" stroke="none" stroke-width="1" fill="none" fill-rule="evenodd">
        <g id="VERIFICATION-1" transform="translate(-278.000000, -395.000000)">
            <g id="Group-7" transform="translate(265.000000, 395.000000)">
                <g id="undraw_online_payments_luau" transform="translate(13.392857, 0.000000)">
                    <rect id="Rectangle" fill="#66818E" x="36.6071429" y="0" width="240" height="160" rx="10"></rect>
                    <path d="M14.681064,116.282003 L13.3366019,110.964895 C10.952682,109.951864 8.5136761,109.07446 6.0312042,108.336865 L5.86144602,110.807942 L5.1730981,108.085571 C2.09442377,107.204074 0,106.815789 0,106.815789 C0,106.815789 2.82908037,117.602961 8.76287725,125.849889 L15.6770373,127.067683 L10.3056077,127.844232 C11.0523375,128.744948 11.8548284,129.597677 12.7083275,130.39737 C21.3403132,138.431334 30.9547419,142.117363 34.1827339,138.630332 C37.410726,135.143301 33.0299151,125.803698 24.3979193,117.769732 C21.7219181,115.279123 18.360289,113.280431 14.9953197,111.707419 L14.681064,116.282003 Z" id="Path" fill="#E6E6E6" fill-rule="nonzero"></path>
                    <path d="M27.1417252,110.307586 L28.7454269,105.138501 C27.2139266,103.067544 25.5643509,101.082815 23.8045587,99.1937699 L22.3732389,101.190456 L23.1943472,98.5438813 C20.9946343,96.2291791 19.3882553,94.8327068 19.3882553,94.8327068 C19.3882553,94.8327068 16.2223443,105.371381 17.0576478,115.35321 L22.3939456,119.909284 L17.3527015,117.822124 C17.5291079,118.962678 17.7786038,120.091238 18.0997114,121.201122 C21.3752687,132.38071 27.7595848,140.396073 32.3594905,139.103934 C36.9593962,137.811795 38.0329827,127.701462 34.7574255,116.521874 C33.74197,113.056092 31.8788158,109.655061 29.7914544,106.611209 L27.1417252,110.307586 Z" id="Path" fill="#E6E6E6" fill-rule="nonzero"></path>
                    <rect id="Rectangle" fill="#3F3D56" fill-rule="nonzero" x="0" y="139.945489" width="222.744361" height="1"></rect>
                    <path d="M34.8183344,82.262941 C34.8183344,82.262941 33.0758371,103.106638 32.7017079,107.573066 C32.4451652,110.372882 31.8161219,113.126423 30.8310647,115.76152 C30.8310647,115.76152 30.0828064,117.250331 30.0828064,118.73914 L30.0828064,137.721465 C30.0828064,137.721465 28.5862923,137.721465 28.9604214,139.210276 C29.3345506,140.699087 29.7086772,143.304501 29.7086772,143.304501 L35.3206094,143.304501 C35.3206094,143.304501 34.9464828,142.187895 36.0688677,141.815693 C37.1912527,141.44349 36.0688677,138.46587 36.0688677,138.46587 L42.0549291,116.133723 L51.0340211,97.5236012 C51.0340211,97.5236012 56.2718242,114.272712 57.3942116,116.133723 C57.3942116,116.133723 61.5096272,136.977061 62.2578881,138.838073 C63.0061489,140.699084 63.380273,140.699084 63.0061438,141.44349 C62.6320147,142.187895 62.6320172,142.932299 63.0061438,143.304501 C63.3802705,143.676704 70.4887218,143.304501 70.4887218,143.304501 L68.6180761,116.878129 L65.2509187,85.2409092 L48.040993,80.0300752 L34.8183344,82.262941 Z" id="Path" fill="#9B99A4" fill-rule="nonzero"></path>
                    <path d="M34.1027435,139.90968 C34.1027435,139.90968 32.2562364,133.180074 29.301821,138.414213 C26.3474056,143.648351 26.3474081,145.517685 26.3474081,145.517685 C26.3474081,145.517685 21.5464856,152.621161 28.1939152,151.873426 C34.8413448,151.125691 33.3641372,147.76089 33.3641372,147.76089 C33.3641372,147.76089 35.9492481,146.26542 35.9492481,145.143821 C35.9492481,144.022221 34.1027435,139.90968 34.1027435,139.90968 Z" id="Path" fill="#9B99A4" fill-rule="nonzero"></path>
                    <path d="M64.581467,139.204795 C64.581467,139.204795 66.4279742,132.475187 69.3823895,137.709325 C72.3368049,142.943464 72.3368024,144.812801 72.3368024,144.812801 C72.3368024,144.812801 77.1377249,151.916274 70.4902953,151.168539 C63.8428657,150.420804 65.3200734,147.056002 65.3200734,147.056002 C65.3200734,147.056002 62.7349624,145.560533 62.7349624,144.438933 C62.7349624,143.317333 64.581467,139.204795 64.581467,139.204795 Z" id="Path" fill="#9B99A4" fill-rule="nonzero"></path>
                    <path d="M46.3819792,32.0977444 C46.3819792,32.0977444 47.1472573,36.9849643 44.8514256,38.1127798 C42.5555939,39.2405953 49.8257306,43.3759398 51.7389232,43.3759398 C53.6521158,43.3759398 57.0958647,39.6165405 57.0958647,39.6165405 C57.0958647,39.6165405 55.1826694,33.9774428 55.5653085,32.8496222 L46.3819792,32.0977444 Z" id="Path" fill="#FBBEBE" fill-rule="nonzero"></path>
                    <circle id="Oval" fill="#FBBEBE" fill-rule="nonzero" cx="50.7518797" cy="27.8684211" r="7.7537594"></circle>
                    <path d="M66.2593985,44.0164118 L56.8599172,38.4216099 C56.8599172,38.4216099 51.5118762,44.3857987 45.7259305,37.7368421 L35.8040788,40.3225479 L37.3080465,65.4408318 C37.3080465,65.4408318 35.0520975,75.4142704 35.8040788,77.2612024 C36.5560601,79.1081344 33.9241218,79.8469082 34.6761056,80.2162951 C35.4280894,80.585682 34.6761056,83.1713877 34.6761056,83.1713877 C34.6761056,83.1713877 49.3397826,90.5591181 65.5074071,85.0183197 L64.0034394,80.2162926 C64.4195987,78.9400821 64.13523,77.5432169 63.2514556,76.5224261 C63.2514556,76.5224261 64.7554232,74.3061073 62.8754662,72.4591753 C62.8754662,72.4591753 63.6274475,69.1346957 61.7474905,67.6571481 L61.3714986,62.4857366 L62.4994743,59.9000308 L66.2593985,44.0164118 Z" id="Path" fill="#CFCCE0" fill-rule="nonzero"></path>
                    <path d="M46.6099128,23.994206 C46.6099128,23.994206 45.6609041,25.9737222 49.4569443,25.1819148 C49.4569443,25.1819148 50.8804702,25.9737222 50.8804702,24.7860135 C50.8804702,24.7860135 52.7784904,26.7655297 53.2529948,25.5778185 C53.7274992,24.3901073 54.6765207,25.9737222 54.6765207,25.9737222 L55.6255295,23.994206 L56.5745408,25.1819148 L59.8960461,25.1819148 C59.8960461,25.1819148 60.8450548,17.2638526 49.4569341,18.05566 C38.0688133,18.8474675 43.6711793,31.3928571 43.6711793,31.3928571 C43.6711793,31.3928571 43.7628839,29.1409471 44.7118927,30.3286583 C45.6609015,31.5163694 46.6099128,23.994206 46.6099128,23.994206 Z" id="Path" fill="#2F2E41" fill-rule="nonzero"></path>
                    <path d="M69.7424806,58.8834586 L70.115601,66.6936693 C70.115601,66.6936693 71.6080828,81.1983525 68.6231218,87.5208875 L68.6231218,90.8681189 C68.6231218,90.8681189 67.8768809,99.4221598 64.145679,99.0502446 C60.4144771,98.6783295 65.2650403,86.7770572 65.2650403,86.7770572 L64.5187995,70.4128057 L63.7725611,61.1149395 L69.7424806,58.8834586 Z" id="Path" fill="#FBBEBE" fill-rule="nonzero"></path>
                    <path d="M61.9348207,43.9852811 L65.735687,43.3759398 C68.4736548,45.9717738 70.3387535,49.3338913 71.0793042,53.0086032 C72.222363,59.0241512 72.6033835,60.1520649 72.6033835,60.1520649 L63.4589026,62.4078947 L58.5056391,53.0086006 L61.9348207,43.9852811 Z" id="Path" fill="#CFCCE0" fill-rule="nonzero"></path>
                    <rect id="Rectangle" fill="#008CE6" fill-rule="nonzero" x="46.5225564" y="39.8515038" width="58.5056391" height="28.9003759"></rect>
                    <path d="M52.511329,41.4009952 C51.0571647,40.4497907 49.3037788,40.5224448 48.637218,40.595099 C48.8910609,41.2692166 49.6527031,42.9886633 51.1068674,43.9403435 C52.5645828,44.8939549 54.31564,44.819133 54.981203,44.7469676 C54.7274664,44.0730864 53.9657179,42.3529197 52.511329,41.4009952 Z" id="Path" fill="#F2F2F2" fill-rule="nonzero"></path>
                    <path d="M59.2454278,59.5883459 L50.012091,59.5883459 C49.2693336,59.5875254 48.5826517,59.9903976 48.2110398,60.6450133 C47.8394278,61.299629 47.8394278,62.1063861 48.2110398,62.7610018 C48.5826517,63.4156175 49.2693336,63.8184896 50.012091,63.8176692 L59.2454278,63.8176692 C59.9881852,63.8184896 60.6748671,63.4156175 61.046479,62.7610018 C61.418091,62.1063861 61.418091,61.299629 61.046479,60.6450133 C60.6748671,59.9903976 59.9881852,59.5875254 59.2454278,59.5883459 L59.2454278,59.5883459 Z" id="Path" fill="#F2F2F2" fill-rule="nonzero"></path>
                    <path d="M102.475059,37.0319549 L49.7805804,37.0319549 C48.5426025,37.0319549 47.3553281,37.5270364 46.4799456,38.4082941 C45.604563,39.2895517 45.112782,40.4847943 45.112782,41.7310808 L45.112782,67.5771899 C45.112782,68.8234756 45.6045665,70.0187166 46.4799485,70.8999737 C47.3553305,71.7812307 48.5426033,72.2763158 49.7805804,72.2763158 L102.475059,72.2763158 C105.053013,72.2763158 107.142857,70.1724455 107.142857,67.5771899 L107.142857,41.7310808 C107.142857,40.4847943 106.651076,39.2895517 105.775694,38.4082941 C104.900311,37.5270364 103.713037,37.0319549 102.475059,37.0319549 Z M48.4768277,40.2374797 C48.5808859,40.2185382 51.0483364,39.7958151 53.0915205,41.0334899 C55.134592,42.2709308 55.91956,44.6638124 55.9519146,44.7649905 L56.0345172,45.0230091 L55.7693806,45.0703628 C55.3911352,45.1298055 55.0087028,45.158081 54.6258894,45.154908 C53.4114572,45.1782819 52.2129233,44.8741746 51.1545729,44.2741213 C49.1115014,43.0369092 48.3266483,40.6440275 48.2942962,40.542852 L48.2116911,40.2848334 L48.4768277,40.2374797 Z M59.9154117,64.2339697 L50.5169167,64.2339697 C49.0894893,64.2339697 47.9323307,63.069045 47.9323307,61.6320375 C47.9323307,60.1950301 49.0894893,59.0301054 50.5169167,59.0301054 L59.9154117,59.0301054 C61.3428391,59.0301054 62.4999976,60.1950301 62.4999976,61.6320375 C62.4999976,63.069045 61.3428391,64.2339697 59.9154117,64.2339697 L59.9154117,64.2339697 Z M102.678571,63.7608927 C102.674015,65.3266336 101.414325,66.5947779 99.8590224,66.5993645 L92.8101505,66.5993645 C91.2548479,66.5947779 89.9951579,65.3266336 89.9906018,63.7608927 L89.9906018,59.5031925 C89.9951524,57.9374493 91.2548456,56.6693018 92.8101505,56.6647206 L99.8590224,56.6647206 C101.414327,56.6693018 102.674021,57.9374493 102.678571,59.5031925 L102.678571,63.7608927 Z" id="Shape" fill="#F2F2F2" fill-rule="nonzero"></path>
                    <path d="M95.0011734,63.112782 L91.7939394,63.112782 C91.317048,63.112782 90.9304511,63.4283707 90.9304511,63.8176692 C90.9304511,64.2069676 91.317048,64.5225564 91.7939394,64.5225564 L95.0011734,64.5225564 C95.4780648,64.5225564 95.8646617,64.2069676 95.8646617,63.8176692 C95.8646617,63.4283707 95.4780648,63.112782 95.0011734,63.112782 Z M95.0011734,64.1197642 L91.7939394,64.1197642 C91.6614925,64.1200509 91.5389554,64.062535 91.47263,63.9689482 C91.4063045,63.8753615 91.4063045,63.7599747 91.47263,63.666388 C91.5389554,63.5728012 91.6614925,63.5152853 91.7939394,63.515572 L95.0011734,63.515572 C95.2051711,63.5160165 95.3702564,63.6511391 95.3702564,63.8176681 C95.3702564,63.9841971 95.2051711,64.1193197 95.0011734,64.1197642 L95.0011734,64.1197642 Z" id="Shape" fill="#F2F2F2" fill-rule="nonzero"></path>
                    <path d="M100.640272,63.112782 L97.4330358,63.112782 C96.9561451,63.112782 96.5695489,63.4283707 96.5695489,63.8176692 C96.5695489,64.2069676 96.9561451,64.5225564 97.4330358,64.5225564 L100.640272,64.5225564 C101.117163,64.5225564 101.503759,64.2069676 101.503759,63.8176692 C101.503759,63.4283707 101.117163,63.112782 100.640272,63.112782 Z M100.640272,64.1197642 L97.4330358,64.1197642 C97.3005891,64.1200509 97.1780522,64.062535 97.1117269,63.9689482 C97.0454015,63.8753615 97.0454015,63.7599747 97.1117269,63.666388 C97.1780522,63.5728012 97.3005891,63.5152853 97.4330358,63.515572 L100.640272,63.515572 C100.84427,63.5160165 101.009355,63.6511391 101.009355,63.8176681 C101.009355,63.9841971 100.84427,64.1193197 100.640272,64.1197642 L100.640272,64.1197642 Z" id="Shape" fill="#F2F2F2" fill-rule="nonzero"></path>
                    <path d="M95.0011734,60.9981203 L91.7939393,60.9981203 C91.317048,60.9981203 90.9304511,61.3137091 90.9304511,61.7030075 C90.9304511,62.0923059 91.317048,62.4078947 91.7939393,62.4078947 L95.0011734,62.4078947 C95.4780648,62.4078947 95.8646617,62.0923059 95.8646617,61.7030075 C95.8646617,61.3137091 95.4780648,60.9981203 95.0011734,60.9981203 L95.0011734,60.9981203 Z M95.0011734,62.0051014 L91.7939393,62.0051014 C91.6617276,62.0051014 91.5395589,61.9475227 91.473453,61.8540545 C91.4073471,61.7605863 91.4073471,61.6454287 91.473453,61.5519605 C91.5395589,61.4584924 91.6617276,61.4009136 91.7939393,61.4009136 L95.0011734,61.4009136 C95.1333852,61.4009136 95.2555539,61.4584924 95.3216598,61.5519605 C95.3877656,61.6454287 95.3877656,61.7605863 95.3216598,61.8540545 C95.2555539,61.9475227 95.1333852,62.0051014 95.0011734,62.0051014 L95.0011734,62.0051014 Z" id="Shape" fill="#F2F2F2" fill-rule="nonzero"></path>
                    <path d="M100.640273,60.9981203 L97.4330357,60.9981203 C96.9561451,60.9981203 96.5695489,61.3137091 96.5695489,61.7030075 C96.5695489,62.0923059 96.9561451,62.4078947 97.4330357,62.4078947 L100.640273,62.4078947 C101.117163,62.4078947 101.503759,62.0923059 101.503759,61.7030075 C101.503759,61.3137091 101.117163,60.9981203 100.640273,60.9981203 L100.640273,60.9981203 Z M100.640273,62.0051014 L97.4330357,62.0051014 C97.3008242,62.0051014 97.1786557,61.9475227 97.1125499,61.8540545 C97.0464441,61.7605863 97.0464441,61.6454287 97.1125499,61.5519605 C97.1786557,61.4584924 97.3008242,61.4009136 97.4330357,61.4009136 L100.640273,61.4009136 C100.772484,61.4009136 100.894653,61.4584924 100.960758,61.5519605 C101.026864,61.6454287 101.026864,61.7605863 100.960758,61.8540545 C100.894653,61.9475227 100.772484,62.0051014 100.640273,62.0051014 L100.640273,62.0051014 Z" id="Shape" fill="#F2F2F2" fill-rule="nonzero"></path>
                    <path d="M95.0011734,58.8834586 L91.7939394,58.8834586 C91.317048,58.8834586 90.9304511,59.1990474 90.9304511,59.5883459 C90.9304511,59.9776443 91.317048,60.2932331 91.7939394,60.2932331 L95.0011734,60.2932331 C95.4780648,60.2932331 95.8646617,59.9776443 95.8646617,59.5883459 C95.8646617,59.1990474 95.4780648,58.8834586 95.0011734,58.8834586 Z M95.0011734,59.8904409 L91.7939394,59.8904409 C91.6614925,59.8907276 91.5389554,59.8332117 91.47263,59.7396249 C91.4063045,59.6460382 91.4063045,59.5306514 91.47263,59.4370647 C91.5389554,59.3434779 91.6614925,59.285962 91.7939394,59.2862487 L95.0011734,59.2862487 C95.2051711,59.2866932 95.3702564,59.4218157 95.3702564,59.5883448 C95.3702564,59.7548738 95.2051711,59.8899964 95.0011734,59.8904409 L95.0011734,59.8904409 Z" id="Shape" fill="#F2F2F2" fill-rule="nonzero"></path>
                    <path d="M100.640272,58.8834586 L97.4330358,58.8834586 C96.9561451,58.8834586 96.5695489,59.1990474 96.5695489,59.5883459 C96.5695489,59.9776443 96.9561451,60.2932331 97.4330358,60.2932331 L100.640272,60.2932331 C101.117163,60.2932331 101.503759,59.9776443 101.503759,59.5883459 C101.503759,59.1990474 101.117163,58.8834586 100.640272,58.8834586 Z M100.640272,59.8904409 L97.4330358,59.8904409 C97.3005891,59.8907276 97.1780522,59.8332117 97.1117269,59.7396249 C97.0454015,59.6460382 97.0454015,59.5306514 97.1117269,59.4370647 C97.1780522,59.3434779 97.3005891,59.285962 97.4330358,59.2862487 L100.640272,59.2862487 C100.84427,59.2866932 101.009355,59.4218157 101.009355,59.5883448 C101.009355,59.7548738 100.84427,59.8899964 100.640272,59.8904409 L100.640272,59.8904409 Z" id="Shape" fill="#F2F2F2" fill-rule="nonzero"></path>
                    <path d="M30.8852477,54.0485202 C30.8852477,54.0485202 27.5628181,68.0469925 31.6235664,68.0469925 C35.6843148,68.0469925 45.2824516,52.206614 45.2824516,52.206614 C45.2824516,52.206614 55.2497453,47.0492816 51.1889969,45.2073779 C47.1282486,43.3654742 41.9600195,48.1544253 41.9600195,48.1544253 L35.9966124,56.4163529 L35.6843074,52.206614 L30.8852477,54.0485202 Z" id="Path" fill="#FBBEBE" fill-rule="nonzero"></path>
                    <path d="M38.0639098,42.0374458 L35.8646605,39.8515038 C35.8646605,39.8515038 31.4661668,42.4017699 31.0996228,44.9520361 C30.7330788,47.5023023 28.9003759,55.5174249 28.9003759,55.5174249 L35.6813885,56.0639098 L37.8806353,52.7849954 L38.0639098,42.0374458 Z" id="Path" fill="#CFCCE0" fill-rule="nonzero"></path>
                    <path d="M143.99393,37.0319549 C143.716597,36.2052227 140.238801,33.3949504 142.369904,32.9225967 L144.117545,35.2751862 L152.15242,27.1635338 L152.960526,27.9793774 L143.99393,37.0319549 Z" id="Path" fill="#002D43" fill-rule="nonzero"></path>
                    <path d="M143.99393,64.5225564 C143.716597,63.6958265 140.238801,60.8855535 142.369904,60.4131997 L144.117545,62.7657897 L152.15242,54.6541353 L152.960526,55.4699791 L143.99393,64.5225564 Z" id="Path" fill="#002D43" fill-rule="nonzero"></path>
                    <path d="M143.99393,92.7180451 C143.716597,91.8913152 140.238801,89.0810422 142.369904,88.6086884 L144.117545,90.9612784 L152.15242,82.8496241 L152.960526,83.6654654 L143.99393,92.7180451 Z" id="Path" fill="#002D43" fill-rule="nonzero"></path>
                    <circle id="Oval" fill="#FFFFFF" fill-rule="nonzero" cx="168.820489" cy="33.8599624" r="2.46710526"></circle>
                    <rect id="Rectangle" fill="#FFFFFF" fill-rule="nonzero" x="178.336466" y="33.5075188" width="40.1785714" height="1"></rect>
                    <circle id="Oval" fill="#FFFFFF" fill-rule="nonzero" cx="168.820489" cy="61.3505639" r="2.46710526"></circle>
                    <rect id="Rectangle" fill="#FFFFFF" fill-rule="nonzero" x="178.336466" y="60.9981203" width="40.1785714" height="1"></rect>
                    <circle id="Oval" fill="#FFFFFF" fill-rule="nonzero" cx="168.820489" cy="88.8411654" r="2.46710526"></circle>
                    <rect id="Rectangle" fill="#FFFFFF" fill-rule="nonzero" x="178.336466" y="88.4887218" width="40.1785714" height="1"></rect>
                    <polygon id="Path" fill="#FFFFFF" fill-rule="nonzero" points="150.140977 96.2424812 137.453008 96.2424812 137.453008 83.5545113 146.080827 83.5545113 146.080827 84.0520787 137.960526 84.0520787 137.960526 95.7449138 149.633459 95.7449138 149.633459 90.0228881 150.140977 90.0228881"></polygon>
                    <polygon id="Path" fill="#FFFFFF" fill-rule="nonzero" points="150.140977 68.0469925 137.453008 68.0469925 137.453008 55.3590226 146.080827 55.3590226 146.080827 55.85659 137.960526 55.85659 137.960526 67.549425 149.633459 67.549425 149.633459 61.8273994 150.140977 61.8273994"></polygon>
                    <polygon id="Path" fill="#FFFFFF" fill-rule="nonzero" points="150.140977 39.8515038 137.453008 39.8515038 137.453008 27.1635338 146.080827 27.1635338 146.080827 27.6611013 137.960526 27.6611013 137.960526 39.3539363 149.633459 39.3539363 149.633459 33.6319107 150.140977 33.6319107"></polygon>
                </g>
            </g>
        </g>
    </g>
</svg>