<?xml version="1.0" encoding="UTF-8"?>
<svg width="558px" height="353px" viewBox="0 0 558 353" version="1.1" xmlns="http://www.w3.org/2000/svg" xmlns:xlink="http://www.w3.org/1999/xlink">
    <title>E161BB43-1911-45DA-8EF2-E315D276FE13</title>
    <g id="Supplier-Portal-Phase-2" stroke="none" stroke-width="1" fill="none" fill-rule="evenodd">
        <g id="Redirecting-screen-1" transform="translate(-439.000000, -227.000000)" fill-rule="nonzero">
            <g id="Group-6" transform="translate(369.000000, 227.000000)">
                <g id="undraw_aircraft_fbvl" transform="translate(349.000000, 176.500000) scale(-1, 1) translate(-349.000000, -176.500000) translate(70.000000, 0.000000)">
                    <path d="M452.097548,208.643526 C446.970862,210.538178 437.966366,212.096003 427.545079,213.348578 C399.209253,216.758951 360.378676,217.969423 360.378676,217.969423 C360.378676,217.969423 160.763275,234.573942 11.1553595,172.818817 C11.1553595,172.818817 -10.6055056,161.377225 9.58114689,145.977915 C12.6896075,143.676856 15.9942495,141.655088 19.4567071,139.936081 L19.7033337,139.688724 C21.9994699,137.560314 24.4808767,135.642226 27.1178749,133.957402 C34.8682481,128.931312 47.955202,122.973684 63.8862332,125.673563 L456.820186,189.412809 C456.820186,189.412809 471.171757,201.575422 452.097548,208.643526 Z" id="Path" fill="#002D43"></path>
                    <path d="M373,179.362479 L455.596591,121 L492,127.270739 L456.355324,188.991606 C456.355324,188.991606 373.948417,189.647541 373,179.362479 Z" id="Path" fill="#002D43"></path>
                    <polygon id="Path" fill="#002D43" points="166 144.167978 329.625958 98 356 103.546273 282.086657 136.997891 258.987754 163"></polygon>
                    <path d="M427,212.350563 C398.633953,215.759918 359.761962,216.970029 359.761962,216.970029 C359.761962,216.970029 159.933666,233.569594 10.1661904,171.832893 C10.1661904,171.832893 -11.6178832,160.394715 8.5902989,145 L8.65858753,145.284113 C8.65858753,145.284113 40.9748694,167.160813 195.380719,185.422965 L427,212.350563 Z" id="Path" fill="#121212"></path>
                    <path d="M400.353458,211.919395 L473.599335,242 L492,239.947131 L448.188892,206.826801 C448.188892,206.826801 395.195815,195.454222 400.353458,211.919395 Z" id="Path" fill="#002D43"></path>
                    <path d="M35.6333067,148.99959 C32.1064738,149.055577 24.0254722,143.37029 19,139.542773 C21.3172142,137.484384 23.8213998,135.629397 26.482605,134 C30.5336969,136.987702 37.7409336,141.822996 41.7496611,141.634674 C47.5376918,141.405634 40.9447383,148.907974 35.6333067,148.99959 Z" id="Path" fill="#121212"></path>
                    <path d="M369,314.531512 L321.910077,317 L189.513998,227.565986 L164.936662,210.960271 L153,202.89163 C175.397003,183.943746 266.776567,210.076036 266.776567,210.076036 C268.526087,211.555024 269.082991,214.012986 269.004184,216.728849 C268.851823,221.813198 266.466592,227.781782 265.547175,229.929208 C265.326515,230.455539 265.189916,230.734494 265.189916,230.734494 L369,314.531512 Z" id="Path" fill="#002D43"></path>
                    <path d="M213.887923,268.879857 L205.724385,274.036299 L210.669757,265.059688 C209.269414,263.944432 207.536696,263.326733 205.745384,263.304192 L205.614137,263.304192 C205.047949,263.315243 204.481973,263.273136 203.923681,263.178425 L201.162253,264.928681 L202.343472,262.780164 C200.387161,262.094761 198.697106,260.811196 197.513597,259.111963 L192.573475,262.256135 L195.691894,256.586145 C192.804469,253.122316 188.90907,251 184.619931,251 C179.480314,251 174.902433,254.049847 171.946759,258.808027 C170.162482,261.708725 166.95509,263.429553 163.546977,263.314673 L163.273984,263.314673 C157.598881,263.314673 153,269.734024 153,277.657336 C153,285.580649 157.598881,292 163.273984,292 C164.520987,291.996047 165.748192,291.688456 166.849141,291.103911 C170.759587,289.210315 175.304927,289.122217 179.286069,290.862858 C182.650566,292.36158 186.494799,292.36158 189.859295,290.862858 C193.806561,289.155204 198.301941,289.241239 202.180726,291.098671 C203.274979,291.668677 204.4901,291.968758 205.724385,291.973799 C211.399488,291.973799 215.998369,285.554448 215.998369,277.631135 C216.039184,274.58377 215.31356,271.574863 213.887923,268.879857 L213.887923,268.879857 Z" id="Path" fill="#F2F2F2"></path>
                    <path d="M198,289.934588 C195.067756,289.381523 192.036785,289.709437 189.29183,290.876706 C185.96657,292.3609 182.16417,292.3609 178.838911,290.876706 C174.902099,289.152334 170.404081,289.239401 166.537387,291.114824 C165.445896,291.690533 164.230807,291.994243 162.995961,292 C158.010962,292 153.861989,286.989176 153,280.384 C153.997444,279.661917 154.844075,278.752876 155.492499,277.707765 C158.415994,273.012706 162.944034,270 168.027694,270 C173.111355,270 177.592661,272.950588 180.510962,277.609412 C182.282385,280.465564 185.425056,282.188137 188.79333,282.149176 L188.923148,282.149176 C192.890376,282.138824 196.327948,285.306824 198,289.934588 Z" id="Path" fill="#000000" opacity="0.03"></path>
                    <path d="M443.887923,261.879857 L435.724385,267.036299 L440.669757,258.059688 C439.269414,256.944432 437.536696,256.326733 435.745384,256.304192 L435.614137,256.304192 C435.047949,256.315243 434.481973,256.273136 433.923681,256.178425 L431.162253,257.928681 L432.343472,255.780164 C430.387161,255.094761 428.697106,253.811196 427.513597,252.111963 L422.573475,255.256135 L425.691894,249.586145 C422.804469,246.122316 418.90907,244 414.619931,244 C409.480314,244 404.902433,247.049847 401.946759,251.808027 C400.162482,254.708725 396.95509,256.429553 393.546977,256.314673 L393.273984,256.314673 C387.598881,256.314673 383,262.734024 383,270.657336 C383,278.580649 387.598881,285 393.273984,285 C394.520987,284.996047 395.748192,284.688456 396.849141,284.103911 C400.759587,282.210315 405.304927,282.122217 409.286069,283.862858 C412.650566,285.36158 416.494799,285.36158 419.859295,283.862858 C423.806561,282.155204 428.301941,282.241239 432.180726,284.098671 C433.274979,284.668677 434.4901,284.968758 435.724385,284.973799 C441.399488,284.973799 445.998369,278.554448 445.998369,270.631135 C446.039184,267.58377 445.31356,264.574863 443.887923,261.879857 Z" id="Path" fill="#F2F2F2"></path>
                    <path d="M429,282.934588 C426.067756,282.381523 423.036785,282.709437 420.29183,283.876706 C416.96657,285.3609 413.16417,285.3609 409.838911,283.876706 C405.902099,282.152334 401.404081,282.239401 397.537387,284.114824 C396.445896,284.690533 395.230807,284.994243 393.995961,285 C389.010962,285 384.861989,279.989176 384,273.384 C384.997444,272.661917 385.844075,271.752876 386.492499,270.707765 C389.415994,266.012706 393.944034,263 399.027694,263 C404.111355,263 408.592661,265.950588 411.510962,270.609412 C413.28717,273.473541 416.441815,275.197274 419.819294,275.149176 L419.949111,275.149176 C423.890376,275.138824 427.327948,278.306824 429,282.934588 Z" id="Path" fill="#000000" opacity="0.03"></path>
                    <path d="M443.887575,89.8798377 L435.724084,95.0362738 L440.669427,86.059673 C439.269092,84.9444179 437.536384,84.3267198 435.745083,84.304179 L435.613837,84.304179 C435.047651,84.3152299 434.481679,84.2731224 433.92339,84.1784123 L431.161978,85.928666 L432.34319,83.780151 C430.38689,83.0947491 428.696845,81.8111855 427.513343,80.1119545 L422.573249,83.2561229 L425.691651,77.5861392 C422.804242,74.1223137 418.908865,72 414.619751,72 C409.480163,72 404.902308,75.0498434 401.946651,79.8080182 C400.162384,82.7087133 396.95501,84.4295399 393.546917,84.3146596 L393.273925,84.3146596 C387.598855,84.3146596 383,90.7340034 383,98.6573078 C383,106.580612 387.598855,113 393.273925,113 C394.520921,112.996003 395.74812,112.688412 396.849062,112.103868 C400.759486,110.210274 405.304799,110.122176 409.285919,111.862815 C412.646668,113.369878 416.490881,113.379405 419.859085,111.889016 C423.806328,110.181365 428.301682,110.267399 432.180446,112.124829 C433.274692,112.694835 434.489805,112.994916 435.724084,113 C441.399154,113 445.998009,106.580612 445.998009,98.6573078 C446.043232,95.6011047 445.317483,92.5826535 443.887575,89.8798377 Z" id="Path" fill="#F2F2F2"></path>
                    <path d="M429,110.934588 C426.067756,110.381523 423.036785,110.709437 420.29183,111.876706 C416.96657,113.3609 413.16417,113.3609 409.838911,111.876706 C405.902099,110.152334 401.404081,110.239401 397.537387,112.114824 C396.445896,112.690533 395.230807,112.994243 393.995961,113 C389.010962,113 384.861989,107.989176 384,101.384 C384.997444,100.661917 385.844075,99.7528764 386.492499,98.7077647 C389.415994,94.0127059 393.944034,91 399.027694,91 C404.111355,91 408.592661,93.9505882 411.510962,98.6094118 C413.28717,101.473541 416.441815,103.197274 419.819294,103.149176 L419.949111,103.149176 C423.890376,103.138824 427.327948,106.306824 429,110.934588 Z" id="Path" fill="#000000" opacity="0.03"></path>
                    <path d="M106.9471,71.695875 L102.930312,74.2118883 L105.366299,69.8357674 C104.677868,69.2887261 103.823836,68.9856219 102.940678,68.9748911 L102.878482,68.9748911 C102.599073,68.9777422 102.319922,68.9571715 102.044027,68.9133999 L100.686093,69.7640277 L101.266584,68.739175 C100.303002,68.4054132 99.4704948,67.7795849 98.8876088,66.9508071 L96.456804,68.4880861 L98.0116898,65.7261081 C96.7023052,64.0518118 94.6992575,63.0503338 92.5592236,63 C90.0299428,63 87.7753584,64.4860364 86.3396806,66.8073277 C85.4599375,68.2260329 83.8753696,69.0661355 82.1933185,69.0056367 L82.0585617,69.0056367 C79.2649503,69.0056367 77,72.1416859 77,76.0053805 C77,79.8690751 79.2649503,83 82.0585617,83 C82.6729702,82.9980299 83.2777027,82.8485587 83.8207656,82.5644376 C85.7462824,81.6377005 87.9864912,81.5946029 89.9470155,82.4465796 C91.5968469,83.1716105 93.4801368,83.1716105 95.1299681,82.4465796 C97.0743666,81.6126213 99.2894293,81.6556354 101.199206,82.5644376 C101.73767,82.8399477 102.334392,82.9856831 102.940678,82.9897515 C105.734289,82.9897515 107.999239,79.8588265 107.999239,75.9951319 C108.018901,74.497471 107.65708,73.0189947 106.9471,71.695875 Z" id="Path" fill="#F2F2F2"></path>
                    <path d="M100,81.9778302 C98.500928,81.6977745 96.9502209,81.8622345 95.5478723,82.45 C94.7099291,82.8109248 93.8042923,82.9982105 92.8882979,83 C91.9618899,82.9997358 91.0461714,82.8069337 90.2021277,82.434434 C88.1888754,81.5754964 85.8907435,81.6210144 83.9148936,82.5589623 C83.359459,82.8466205 82.7405616,82.9979949 82.1117021,83 C79.5638298,83 77.4414894,80.4938679 77,77.1938679 C77.5082335,76.8301278 77.9413742,76.3759226 78.2765957,75.8551887 C79.7659574,73.504717 82.0797872,72 84.6595745,72 C87.2393617,72 89.5425532,73.4891509 91.0425532,75.8084906 C91.9519684,77.2432869 93.5688175,78.1048272 95.2978723,78.0759434 L95.3670213,78.0759434 C97.3723404,78.0759434 99.143617,79.6636792 100,81.9778302 Z" id="Path" fill="#000000" opacity="0.03"></path>
                    <path d="M468.9471,327.695875 L464.930312,330.211888 L467.366299,325.835767 C466.677868,325.288726 465.823836,324.985622 464.940678,324.974891 L464.878482,324.974891 C464.599073,324.977742 464.319922,324.957171 464.044027,324.9134 L462.686093,325.764028 L463.266584,324.739175 C462.303002,324.405413 461.470495,323.779585 460.887609,322.950807 L458.456804,324.488086 L460.01169,321.726108 C458.702305,320.051812 456.699258,319.050334 454.559224,319 C452.029943,319 449.775358,320.486036 448.339681,322.807328 C447.459938,324.226033 445.87537,325.066136 444.193318,325.005637 L444.058562,325.005637 C441.26495,325.005637 439,328.141686 439,332.00538 C439,335.869075 441.26495,339 444.058562,339 C444.67297,338.99803 445.277703,338.848559 445.820766,338.564438 C447.746282,337.6377 449.986491,337.594603 451.947016,338.44658 C453.596847,339.17161 455.480137,339.17161 457.129968,338.44658 C459.074367,337.612621 461.289429,337.655635 463.199206,338.564438 C463.73767,338.839948 464.334392,338.985683 464.940678,338.989751 C467.734289,338.989751 469.999239,335.858827 469.999239,331.995132 C470.018901,330.497471 469.65708,329.018995 468.9471,327.695875 L468.9471,327.695875 Z" id="Path" fill="#F2F2F2"></path>
                    <path d="M462,337.97783 C460.500928,337.697774 458.950221,337.862234 457.547872,338.45 C456.709929,338.810925 455.804292,338.99821 454.888298,339 C453.96189,338.999736 453.046171,338.806934 452.202128,338.434434 C450.188875,337.575496 447.890743,337.621014 445.914894,338.558962 C445.359459,338.84662 444.740562,338.997995 444.111702,339 C441.56383,339 439.441489,336.493868 439,333.193868 C439.508234,332.830128 439.941374,332.375923 440.276596,331.855189 C441.765957,329.504717 444.079787,328 446.659574,328 C449.239362,328 451.542553,329.489151 453.042553,331.808491 C453.951968,333.243287 455.568817,334.104827 457.297872,334.075943 L457.367021,334.075943 C459.37234,334.075943 461.143617,335.663679 462,337.97783 Z" id="Path" fill="#000000" opacity="0.03"></path>
                    <path d="M90.9471,341.695875 L86.9303118,344.211888 L89.3662995,339.835767 C88.6778681,339.288726 87.8238358,338.985622 86.9406777,338.974891 L86.8784822,338.974891 C86.5990727,338.977742 86.3199216,338.957171 86.0440269,338.9134 L84.6860933,339.764028 L85.266584,338.739175 C84.3030024,338.405413 83.4704948,337.779585 82.8876088,336.950807 L80.456804,338.488086 L82.0116898,335.726108 C80.7023052,334.051812 78.6992575,333.050334 76.5592236,333 C74.0299428,333 71.7753584,334.486036 70.3396806,336.807328 C69.4599375,338.226033 67.8753696,339.066136 66.1933185,339.005637 L66.0585617,339.005637 C63.2649503,339.005637 61,342.141686 61,346.00538 C61,349.869075 63.2649503,353 66.0585617,353 C66.6729702,352.99803 67.2777027,352.848559 67.8207656,352.564438 C69.7462824,351.6377 71.9864912,351.594603 73.9470155,352.44658 C75.5968469,353.17161 77.4801368,353.17161 79.1299681,352.44658 C81.0743666,351.612621 83.2894293,351.655635 85.1992056,352.564438 C85.7376703,352.839948 86.3343925,352.985683 86.9406777,352.989751 C89.7342891,352.989751 91.9992394,349.858827 91.9992394,345.995132 C92.0189013,344.497471 91.6570799,343.018995 90.9471,341.695875 L90.9471,341.695875 Z" id="Path" fill="#F2F2F2"></path>
                    <path d="M84,351.97783 C82.500928,351.697774 80.9502209,351.862234 79.5478723,352.45 C78.7099291,352.810925 77.8042923,352.99821 76.8882979,353 C75.9618899,352.999736 75.0461714,352.806934 74.2021277,352.434434 C72.1888754,351.575496 69.8907435,351.621014 67.9148936,352.558962 C67.359459,352.84662 66.7405616,352.997995 66.1117021,353 C63.5638298,353 61.4414894,350.493868 61,347.193868 C61.5082335,346.830128 61.9413742,346.375923 62.2765957,345.855189 C63.7659574,343.504717 66.0797872,342 68.6595745,342 C71.2393617,342 73.5425532,343.489151 75.0425532,345.808491 C75.9519684,347.243287 77.5688175,348.104827 79.2978723,348.075943 L79.3670213,348.075943 C81.3723404,348.075943 83.143617,349.663679 84,351.97783 Z" id="Path" fill="#000000" opacity="0.03"></path>
                    <path d="M278.887575,17.8798377 L270.724084,23.0362738 L275.669427,14.059673 C274.269092,12.9444179 272.536384,12.3267198 270.745083,12.304179 L270.613837,12.304179 C270.047651,12.3152299 269.481679,12.2731224 268.92339,12.1784123 L266.161978,13.928666 L267.34319,11.780151 C265.38689,11.0947491 263.696845,9.81118545 262.513343,8.11195448 L257.573249,11.2561229 L260.691651,5.5861392 C257.804242,2.12231367 253.908865,0 249.619751,0 C244.480163,0 239.902308,3.04984335 236.946651,7.8080182 C235.162384,10.7087133 231.95501,12.4295399 228.546917,12.3146596 L228.273925,12.3146596 C222.598855,12.3146596 218,18.7340034 218,26.6573078 C218,34.5806122 222.598855,41 228.273925,41 C229.520921,40.9960028 230.74812,40.6884123 231.849062,40.103868 C235.759486,38.2102735 240.304799,38.1221756 244.285919,39.8628151 C247.646668,41.3698783 251.490881,41.3794047 254.859085,39.8890165 C258.806328,38.1813649 263.301682,38.2673993 267.180446,40.1248291 C268.274692,40.6948346 269.489805,40.9949156 270.724084,41 C276.399154,41 280.998009,34.5806122 280.998009,26.6573078 C281.043232,23.6011047 280.317483,20.5826535 278.887575,17.8798377 L278.887575,17.8798377 Z" id="Path" fill="#F2F2F2"></path>
                    <path d="M264,38.9345882 C261.067756,38.3815229 258.036785,38.709437 255.29183,39.8767059 C251.96657,41.3608996 248.16417,41.3608996 244.838911,39.8767059 C240.902099,38.1523338 236.404081,38.2394009 232.537387,40.1148235 C231.445896,40.6905329 230.230807,40.9942435 228.995961,41 C224.010962,41 219.861989,35.9891765 219,29.384 C219.997444,28.6619173 220.844075,27.7528764 221.492499,26.7077647 C224.415994,22.0127059 228.944034,19 234.027694,19 C239.111355,19 243.592661,21.9505882 246.510962,26.6094118 C248.28717,29.4735405 251.441815,31.1972737 254.819294,31.1491765 L254.949111,31.1491765 C258.890376,31.1388235 262.327948,34.3068235 264,38.9345882 Z" id="Path" fill="#000000" opacity="0.03"></path>
                    <path d="M556.9471,107.695875 L552.930312,110.211888 L555.366299,105.835767 C554.677868,105.288726 553.823836,104.985622 552.940678,104.974891 L552.878482,104.974891 C552.599073,104.977742 552.319922,104.957171 552.044027,104.9134 L550.686093,105.764028 L551.266584,104.739175 C550.303002,104.405413 549.470495,103.779585 548.887609,102.950807 L546.456804,104.488086 L548.01169,101.726108 C546.702305,100.051812 544.699258,99.0503338 542.559224,99 C540.029943,99 537.775358,100.486036 536.339681,102.807328 C535.459938,104.226033 533.87537,105.066136 532.193318,105.005637 L532.058562,105.005637 C529.26495,105.005637 527,108.141686 527,112.00538 C527,115.869075 529.26495,119 532.058562,119 C532.67297,118.99803 533.277703,118.848559 533.820766,118.564438 C535.746282,117.6377 537.986491,117.594603 539.947016,118.44658 C541.596847,119.17161 543.480137,119.17161 545.129968,118.44658 C547.074367,117.612621 549.289429,117.655635 551.199206,118.564438 C551.73767,118.839948 552.334392,118.985683 552.940678,118.989751 C555.734289,118.989751 557.999239,115.858827 557.999239,111.995132 C558.018901,110.497471 557.65708,109.018995 556.9471,107.695875 Z" id="Path" fill="#F2F2F2"></path>
                    <path d="M550,117.97783 C548.499193,117.697774 546.94669,117.862234 545.542718,118.45 C544.703805,118.810925 543.79712,118.99821 542.880065,119 C541.961564,118.99607 541.05425,118.80335 540.217411,118.434434 C538.201828,117.575496 535.901036,117.621014 533.922899,118.558962 C533.366821,118.84662 532.747207,118.997995 532.11762,119 C529.566798,119 527.442,116.493868 527,113.193868 C527.508822,112.830128 527.942464,112.375923 528.278074,111.855189 C529.76916,109.504717 532.085668,108 534.668442,108 C537.251216,108 539.557073,109.489151 541.05881,111.808491 C541.964379,113.235276 543.570807,114.095651 545.292429,114.075943 L545.361658,114.075943 C547.369298,114.075943 549.142626,115.663679 550,117.97783 Z" id="Path" fill="#000000" opacity="0.03"></path>
                </g>
            </g>
        </g>
    </g>
</svg>