<?xml version="1.0" encoding="UTF-8"?>
<svg width="500px" height="161px" viewBox="0 0 500 161" version="1.1" xmlns="http://www.w3.org/2000/svg" xmlns:xlink="http://www.w3.org/1999/xlink">
    <title>348C9F1C-5E90-44FD-958D-284E62DCF1D5</title>
    <g id="Page-2" stroke="none" stroke-width="1" fill="none" fill-rule="evenodd">
        <g id="MY-USERS-(OP3.1)" transform="translate(-153.000000, -359.000000)" fill-rule="nonzero">
            <g id="Group-2" transform="translate(120.000000, 204.000000)">
                <g id="undraw_best_place_r685" transform="translate(33.000000, 155.000000)">
                    <path d="M63.404568,156.897089 L62.5470225,156.703945 C72.1087938,114.181566 96.138331,75.5675262 130.209063,47.9745317 C182.57483,5.63101849 253.069356,-6.72787074 316.716422,15.2766201 C380.363488,37.2811108 428.172015,90.5405252 443.203434,156.185046 L442.346745,156.379904 C422.105959,67.5083989 344.216889,5.43929229 252.934124,5.43929229 C162.847546,5.43929229 83.1388663,69.1363629 63.404568,156.897089 Z" id="Path" fill="#3F3D56"></path>
                    <circle id="Oval" fill="#00283C" opacity="0.283063616" cx="395.391786" cy="29.1297308" r="23.8716897"></circle>
                    <rect id="Rectangle" fill="#3F3D56" x="385.444355" y="124.569568" width="1" height="34.7207572"></rect>
                    <path d="M394.435594,128.994346 C394.491552,141.135329 385.949727,151.01712 385.949727,151.01712 C385.949727,151.01712 377.31718,141.214484 377.261222,129.073501 C377.205265,116.932518 385.74709,107.050727 385.74709,107.050727 C385.74709,107.050727 394.379637,116.853346 394.435594,128.994346 Z" id="Path" fill="#002D43"></path>
                    <path d="M394.435594,128.994346 C394.491552,141.135329 385.949727,151.01712 385.949727,151.01712 C385.949727,151.01712 377.31718,141.214484 377.261222,129.073501 C377.205265,116.932518 385.74709,107.050727 385.74709,107.050727 C385.74709,107.050727 394.379637,116.853346 394.435594,128.994346 Z" id="Path" fill="#000000" opacity="0.1"></path>
                    <circle id="Oval" fill="#002D43" opacity="0.4" cx="220.200651" cy="41.8046707" r="13.7335538"></circle>
                    <circle id="Oval" fill="#002D43" opacity="0.4" cx="194.783325" cy="48.3639799" r="9.63398608"></circle>
                    <circle id="Oval" fill="#002D43" opacity="0.4" cx="91.5000598" cy="76.052685" r="9.63398608"></circle>
                    <circle id="Oval" fill="#002D43" opacity="0.393415179" cx="376.352009" cy="40.6748572" r="13.7335538"></circle>
                    <path d="M24.8893243,155.429641 C25.6338428,158.18174 28.1838846,159.886204 28.1838846,159.886204 C28.1838846,159.886204 29.5268835,157.128611 28.782387,154.376512 C28.0378905,151.624413 25.487831,149.919949 25.487831,149.919949 C25.487831,149.919949 24.1448321,152.677537 24.8893243,155.429641 Z" id="Path" fill="#3F3D56"></path>
                    <path d="M25.9833094,154.838184 C28.0262129,156.82687 28.2757584,159.883945 28.2757584,159.883945 C28.2757584,159.883945 25.21308,159.716718 23.1701721,157.728032 C21.1272643,155.739346 20.8777232,152.682275 20.8777232,152.682275 C20.8777232,152.682275 23.9404016,152.849497 25.9833094,154.838184 Z" id="Path" fill="#002D43"></path>
                    <path d="M293.865317,155.429641 C294.609813,158.18174 297.159877,159.886204 297.159877,159.886204 C297.159877,159.886204 298.502876,157.128611 297.75838,154.376512 C297.013883,151.624413 294.463824,149.919949 294.463824,149.919949 C294.463824,149.919949 293.120825,152.677537 293.865317,155.429641 Z" id="Path" fill="#3F3D56"></path>
                    <path d="M294.959302,154.838184 C297.002205,156.82687 297.251751,159.883945 297.251751,159.883945 C297.251751,159.883945 294.189073,159.716718 292.146165,157.728032 C290.103257,155.739346 289.853716,152.682275 289.853716,152.682275 C289.853716,152.682275 292.916394,152.849497 294.959302,154.838184 Z" id="Path" fill="#002D43"></path>
                    <polygon id="Path" fill="#3F3D56" points="29.9464333 134.742469 28.1282084 131.712094 45.0991871 117.165415 88.7392234 117.165415 88.7392234 121.40794 72.9803946 138.379358 54.7968264 142.015808"></polygon>
                    <polygon id="Path" fill="#CCCCCC" points="96.251213 125.701887 96.251213 116.218725 90.5376707 116.218725 90.5376707 119.209105 88.7392234 117.165415 74.1925446 131.712094 71.7678052 134.136394 68.7374302 146.258772 74.1925446 159.592862 102.073313 159.592862 102.073313 132.318169"></polygon>
                    <rect id="Rectangle" fill="#F2F2F2" x="28.1282084" y="131.711966" width="46.0642396" height="27.8809878"></rect>
                    <rect id="Rectangle" fill="#3F3D56" x="58.1305773" y="140.500537" width="9.69773603" height="8.48552013"></rect>
                    <rect id="Rectangle" fill="#CCCCCC" x="45.7053544" y="140.197482" width="8.48552013" height="19.3954677"></rect>
                    <polygon id="Path" fill="#3F3D56" points="36.0076227 143.227958 36.0076227 140.197583 32.3711728 140.197583 32.3711728 143.227958 35.7043655 143.227958"></polygon>
                    <polygon id="Path" fill="#3F3D56" points="35.7043655 145.652258 32.3711728 145.652258 32.3711728 148.683072 36.0076227 148.683072 36.0076227 145.652258"></polygon>
                    <rect id="Rectangle" fill="#3F3D56" x="38.4320502" y="140.197482" width="3.63665211" height="3.03054196"></rect>
                    <rect id="Rectangle" fill="#3F3D56" x="38.4320502" y="145.65246" width="3.63665211" height="3.03054196"></rect>
                    <polygon id="Path" fill="#3F3D56" points="87.2238162 143.531215 87.2238162 140.500401 83.5869267 140.500401 83.5869267 143.531215 86.9205589 143.531215"></polygon>
                    <polygon id="Path" fill="#3F3D56" points="86.9205589 145.955515 83.5869267 145.955515 83.5869267 148.98589 87.2238162 148.98589 87.2238162 145.955515"></polygon>
                    <rect id="Rectangle" fill="#3F3D56" x="89.6482128" y="140.500537" width="3.63665211" height="3.03054196"></rect>
                    <rect id="Rectangle" fill="#3F3D56" x="89.6482128" y="145.955515" width="3.63665211" height="3.03054196"></rect>
                    <polygon id="Path" fill="#3F3D56" points="205.308232 134.742469 203.490007 131.712094 220.460986 117.165415 264.101022 117.165415 264.101022 121.40794 248.342194 138.379358 230.158626 142.015808"></polygon>
                    <polygon id="Path" fill="#CCCCCC" points="271.613012 125.701887 271.613012 116.218725 265.89947 116.218725 265.89947 119.209105 264.101022 117.165415 249.554344 131.712094 247.129604 134.136394 244.099229 146.258772 249.554344 159.592862 277.435112 159.592862 277.435112 132.318169"></polygon>
                    <rect id="Rectangle" fill="#F2F2F2" x="203.490007" y="131.711966" width="46.0642396" height="27.8809878"></rect>
                    <rect id="Rectangle" fill="#3F3D56" x="233.492376" y="140.500537" width="9.69773603" height="8.48552013"></rect>
                    <rect id="Rectangle" fill="#CCCCCC" x="221.067153" y="140.197482" width="8.48552013" height="19.3954677"></rect>
                    <polygon id="Path" fill="#3F3D56" points="211.369422 143.227958 211.369422 140.197583 207.732972 140.197583 207.732972 143.227958 211.066165 143.227958"></polygon>
                    <polygon id="Path" fill="#3F3D56" points="211.066165 145.652258 207.732972 145.652258 207.732972 148.683072 211.369422 148.683072 211.369422 145.652258"></polygon>
                    <rect id="Rectangle" fill="#3F3D56" x="213.793849" y="140.197482" width="3.63665211" height="3.03054196"></rect>
                    <rect id="Rectangle" fill="#3F3D56" x="213.793849" y="145.65246" width="3.63665211" height="3.03054196"></rect>
                    <polygon id="Path" fill="#3F3D56" points="262.585615 143.531215 262.585615 140.500401 258.948726 140.500401 258.948726 143.531215 262.282358 143.531215"></polygon>
                    <polygon id="Path" fill="#3F3D56" points="262.282358 145.955515 258.948726 145.955515 258.948726 148.98589 262.585615 148.98589 262.585615 145.955515"></polygon>
                    <rect id="Rectangle" fill="#3F3D56" x="265.010012" y="140.500537" width="3.63665211" height="3.03054196"></rect>
                    <rect id="Rectangle" fill="#3F3D56" x="265.010012" y="145.955515" width="3.63665211" height="3.03054196"></rect>
                    <polygon id="Path" fill="#3F3D56" points="123.287256 83.8295325 120.256881 81.404793 137.22786 66.2520393 180.261381 66.2520393 180.261381 79.5865681 152.380613 98.3762113"></polygon>
                    <polygon id="Path" fill="#CCCCCC" points="188.107393 74.7520323 188.107393 66.554857 182.393851 66.554857 182.393851 68.5625079 180.261381 66.2520393 166.320778 81.404793 160.866103 85.0416825 152.407863 146.837159 165.163566 159.592862 194.80806 159.592862 194.80806 82.010868"></polygon>
                    <rect id="Rectangle" fill="#F2F2F2" x="120.256692" y="81.4049645" width="46.0642396" height="78.1879896"></rect>
                    <rect id="Rectangle" fill="#CCCCCC" x="138.136889" y="140.500537" width="8.48552013" height="19.092417"></rect>
                    <polygon id="Path" fill="#3F3D56" points="129.045188 145.955515 129.045188 142.92514 125.408738 142.92514 125.408738 145.955515 128.74237 145.955515"></polygon>
                    <polygon id="Path" fill="#3F3D56" points="128.74237 148.379815 125.408738 148.379815 125.408738 151.41063 129.045188 151.41063 129.045188 148.379815"></polygon>
                    <rect id="Rectangle" fill="#3F3D56" x="131.469694" y="142.924973" width="3.63665211" height="3.03054196"></rect>
                    <rect id="Rectangle" fill="#3F3D56" x="131.469694" y="148.379947" width="3.63665211" height="3.03054196"></rect>
                    <polygon id="Path" fill="#3F3D56" points="153.895581 145.955515 153.895581 142.92514 150.259131 142.92514 150.259131 145.955515 153.592763 145.955515"></polygon>
                    <polygon id="Path" fill="#3F3D56" points="153.592763 148.379815 150.259131 148.379815 150.259131 151.41063 153.895581 151.41063 153.895581 148.379815"></polygon>
                    <rect id="Rectangle" fill="#3F3D56" x="156.32014" y="142.924973" width="3.63665211" height="3.03054196"></rect>
                    <rect id="Rectangle" fill="#3F3D56" x="156.32014" y="148.379947" width="3.63665211" height="3.03054196"></rect>
                    <polygon id="Path" fill="#3F3D56" points="179.352049 85.3445002 179.352049 82.3141253 175.715599 82.3141253 175.715599 85.3445002 179.049231 85.3445002"></polygon>
                    <polygon id="Path" fill="#3F3D56" points="179.049231 87.7692397 175.715599 87.7692397 175.715599 90.7996146 179.352049 90.7996146 179.352049 87.7692397"></polygon>
                    <rect id="Rectangle" fill="#3F3D56" x="181.776696" y="82.3141297" width="3.63665211" height="3.03054196"></rect>
                    <rect id="Rectangle" fill="#3F3D56" x="181.776696" y="87.7691034" width="3.63665211" height="3.03054196"></rect>
                    <polygon id="Path" fill="#3F3D56" points="179.352049 102.315918 179.352049 99.285104 175.715599 99.285104 175.715599 102.315918 179.049231 102.315918"></polygon>
                    <polygon id="Path" fill="#3F3D56" points="179.049231 104.740218 175.715599 104.740218 175.715599 107.770593 179.352049 107.770593 179.352049 104.740218"></polygon>
                    <rect id="Rectangle" fill="#3F3D56" x="181.776696" y="99.2851655" width="3.63665211" height="3.03054196"></rect>
                    <rect id="Rectangle" fill="#3F3D56" x="181.776696" y="104.740139" width="3.63665211" height="3.03054196"></rect>
                    <polygon id="Path" fill="#3F3D56" points="179.352049 119.286897 179.352049 116.256083 175.715599 116.256083 175.715599 119.286897 179.049231 119.286897"></polygon>
                    <polygon id="Path" fill="#3F3D56" points="179.049231 121.711197 175.715599 121.711197 175.715599 124.741572 179.352049 124.741572 179.352049 121.711197"></polygon>
                    <rect id="Rectangle" fill="#3F3D56" x="181.776696" y="116.256201" width="3.63665211" height="3.03054196"></rect>
                    <rect id="Rectangle" fill="#3F3D56" x="181.776696" y="121.711175" width="3.63665211" height="3.03054196"></rect>
                    <polygon id="Path" fill="#3F3D56" points="179.352049 136.257876 179.352049 133.227061 175.715599 133.227061 175.715599 136.257876 179.049231 136.257876"></polygon>
                    <polygon id="Path" fill="#3F3D56" points="179.049231 138.682176 175.715599 138.682176 175.715599 141.712551 179.352049 141.712551 179.352049 138.682176"></polygon>
                    <rect id="Rectangle" fill="#3F3D56" x="181.776696" y="133.227237" width="3.63665211" height="3.03054196"></rect>
                    <rect id="Rectangle" fill="#3F3D56" x="181.776696" y="138.682211" width="3.63665211" height="3.03054196"></rect>
                    <rect id="Rectangle" fill="#3F3D56" x="125.408611" y="85.3446716" width="35.1542876" height="7.27329983"></rect>
                    <rect id="Rectangle" fill="#3F3D56" x="125.408611" y="99.8912713" width="35.1542876" height="7.27329983"></rect>
                    <rect id="Rectangle" fill="#3F3D56" x="125.408611" y="114.437875" width="35.1542876" height="7.27329983"></rect>
                    <rect id="Rectangle" fill="#3F3D56" x="125.408611" y="128.984479" width="35.1542876" height="7.27329983"></rect>
                    <polygon id="Path" fill="#3F3D56" points="300.407068 83.8295325 297.376693 81.404793 314.347672 66.2520393 357.381193 66.2520393 357.381193 79.5865681 329.500425 98.3762113"></polygon>
                    <polygon id="Path" fill="#CCCCCC" points="365.227206 74.7520323 365.227206 66.554857 359.513663 66.554857 359.513663 68.5625079 357.381193 66.2520393 343.44059 81.404793 337.985915 85.0416825 329.527675 146.837159 342.283378 159.592862 371.927872 159.592862 371.927872 82.010868"></polygon>
                    <rect id="Rectangle" fill="#F2F2F2" x="297.376504" y="81.4049645" width="46.0642396" height="78.1879896"></rect>
                    <rect id="Rectangle" fill="#CCCCCC" x="315.256701" y="140.500537" width="8.48552013" height="19.092417"></rect>
                    <polygon id="Path" fill="#3F3D56" points="306.165 145.955515 306.165 142.92514 302.52855 142.92514 302.52855 145.955515 305.862182 145.955515"></polygon>
                    <polygon id="Path" fill="#3F3D56" points="305.862182 148.379815 302.52855 148.379815 302.52855 151.41063 306.165 151.41063 306.165 148.379815"></polygon>
                    <rect id="Rectangle" fill="#3F3D56" x="308.589507" y="142.924973" width="3.63665211" height="3.03054196"></rect>
                    <rect id="Rectangle" fill="#3F3D56" x="308.589507" y="148.379947" width="3.63665211" height="3.03054196"></rect>
                    <polygon id="Path" fill="#3F3D56" points="331.015393 145.955515 331.015393 142.92514 327.378943 142.92514 327.378943 145.955515 330.712575 145.955515"></polygon>
                    <polygon id="Path" fill="#3F3D56" points="330.712575 148.379815 327.378943 148.379815 327.378943 151.41063 331.015393 151.41063 331.015393 148.379815"></polygon>
                    <rect id="Rectangle" fill="#3F3D56" x="333.439952" y="142.924973" width="3.63665211" height="3.03054196"></rect>
                    <rect id="Rectangle" fill="#3F3D56" x="333.439952" y="148.379947" width="3.63665211" height="3.03054196"></rect>
                    <polygon id="Path" fill="#3F3D56" points="356.471861 85.3445002 356.471861 82.3141253 352.835411 82.3141253 352.835411 85.3445002 356.169044 85.3445002"></polygon>
                    <polygon id="Path" fill="#3F3D56" points="356.169044 87.7692397 352.835411 87.7692397 352.835411 90.7996146 356.471861 90.7996146 356.471861 87.7692397"></polygon>
                    <rect id="Rectangle" fill="#3F3D56" x="358.896508" y="82.3141297" width="3.63665211" height="3.03054196"></rect>
                    <rect id="Rectangle" fill="#3F3D56" x="358.896508" y="87.7691034" width="3.63665211" height="3.03054196"></rect>
                    <polygon id="Path" fill="#3F3D56" points="356.471861 102.315918 356.471861 99.285104 352.835411 99.285104 352.835411 102.315918 356.169044 102.315918"></polygon>
                    <polygon id="Path" fill="#3F3D56" points="356.169044 104.740218 352.835411 104.740218 352.835411 107.770593 356.471861 107.770593 356.471861 104.740218"></polygon>
                    <rect id="Rectangle" fill="#3F3D56" x="358.896508" y="99.2851655" width="3.63665211" height="3.03054196"></rect>
                    <rect id="Rectangle" fill="#3F3D56" x="358.896508" y="104.740139" width="3.63665211" height="3.03054196"></rect>
                    <polygon id="Path" fill="#3F3D56" points="356.471861 119.286897 356.471861 116.256083 352.835411 116.256083 352.835411 119.286897 356.169044 119.286897"></polygon>
                    <polygon id="Path" fill="#3F3D56" points="356.169044 121.711197 352.835411 121.711197 352.835411 124.741572 356.471861 124.741572 356.471861 121.711197"></polygon>
                    <rect id="Rectangle" fill="#3F3D56" x="358.896508" y="116.256201" width="3.63665211" height="3.03054196"></rect>
                    <rect id="Rectangle" fill="#3F3D56" x="358.896508" y="121.711175" width="3.63665211" height="3.03054196"></rect>
                    <polygon id="Path" fill="#3F3D56" points="356.471861 136.257876 356.471861 133.227061 352.835411 133.227061 352.835411 136.257876 356.169044 136.257876"></polygon>
                    <polygon id="Path" fill="#3F3D56" points="356.169044 138.682176 352.835411 138.682176 352.835411 141.712551 356.471861 141.712551 356.471861 138.682176"></polygon>
                    <rect id="Rectangle" fill="#3F3D56" x="358.896508" y="133.227237" width="3.63665211" height="3.03054196"></rect>
                    <rect id="Rectangle" fill="#3F3D56" x="358.896508" y="138.682211" width="3.63665211" height="3.03054196"></rect>
                    <rect id="Rectangle" fill="#3F3D56" x="302.528423" y="85.3446716" width="35.1542876" height="7.27329983"></rect>
                    <rect id="Rectangle" fill="#3F3D56" x="302.528423" y="99.8912713" width="35.1542876" height="7.27329983"></rect>
                    <rect id="Rectangle" fill="#3F3D56" x="302.528423" y="114.437875" width="35.1542876" height="7.27329983"></rect>
                    <rect id="Rectangle" fill="#3F3D56" x="302.528423" y="128.984479" width="35.1542876" height="7.27329983"></rect>
                    <polygon id="Path" fill="#3F3D56" points="397.537287 83.8295325 394.506913 81.404793 411.477891 66.2520393 454.511413 66.2520393 454.511413 79.5865681 426.630645 98.3762113"></polygon>
                    <polygon id="Path" fill="#CCCCCC" points="462.357425 74.7520323 462.357425 66.554857 456.643883 66.554857 456.643883 68.5625079 454.511413 66.2520393 440.570809 81.404793 435.116134 85.0416825 426.657894 146.837159 439.413597 159.592862 469.058092 159.592862 469.058092 82.010868"></polygon>
                    <rect id="Rectangle" fill="#F2F2F2" x="394.506724" y="81.4049645" width="46.0642396" height="78.1879896"></rect>
                    <rect id="Rectangle" fill="#CCCCCC" x="412.38692" y="140.500537" width="8.48552013" height="19.092417"></rect>
                    <polygon id="Path" fill="#3F3D56" points="403.29522 145.955515 403.29522 142.92514 399.65877 142.92514 399.65877 145.955515 402.992402 145.955515"></polygon>
                    <polygon id="Path" fill="#3F3D56" points="402.992402 148.379815 399.65877 148.379815 399.65877 151.41063 403.29522 151.41063 403.29522 148.379815"></polygon>
                    <rect id="Rectangle" fill="#3F3D56" x="405.719726" y="142.924973" width="3.63665211" height="3.03054196"></rect>
                    <rect id="Rectangle" fill="#3F3D56" x="405.719726" y="148.379947" width="3.63665211" height="3.03054196"></rect>
                    <polygon id="Path" fill="#3F3D56" points="428.145613 145.955515 428.145613 142.92514 424.509163 142.92514 424.509163 145.955515 427.842795 145.955515"></polygon>
                    <polygon id="Path" fill="#3F3D56" points="427.842795 148.379815 424.509163 148.379815 424.509163 151.41063 428.145613 151.41063 428.145613 148.379815"></polygon>
                    <rect id="Rectangle" fill="#3F3D56" x="430.570172" y="142.924973" width="3.63665211" height="3.03054196"></rect>
                    <rect id="Rectangle" fill="#3F3D56" x="430.570172" y="148.379947" width="3.63665211" height="3.03054196"></rect>
                    <polygon id="Path" fill="#3F3D56" points="453.602081 85.3445002 453.602081 82.3141253 449.965631 82.3141253 449.965631 85.3445002 453.299263 85.3445002"></polygon>
                    <polygon id="Path" fill="#3F3D56" points="453.299263 87.7692397 449.965631 87.7692397 449.965631 90.7996146 453.602081 90.7996146 453.602081 87.7692397"></polygon>
                    <rect id="Rectangle" fill="#3F3D56" x="456.026728" y="82.3141297" width="3.63665211" height="3.03054196"></rect>
                    <rect id="Rectangle" fill="#3F3D56" x="456.026728" y="87.7691034" width="3.63665211" height="3.03054196"></rect>
                    <polygon id="Path" fill="#3F3D56" points="453.602081 102.315918 453.602081 99.285104 449.965631 99.285104 449.965631 102.315918 453.299263 102.315918"></polygon>
                    <polygon id="Path" fill="#3F3D56" points="453.299263 104.740218 449.965631 104.740218 449.965631 107.770593 453.602081 107.770593 453.602081 104.740218"></polygon>
                    <rect id="Rectangle" fill="#3F3D56" x="456.026728" y="99.2851655" width="3.63665211" height="3.03054196"></rect>
                    <rect id="Rectangle" fill="#3F3D56" x="456.026728" y="104.740139" width="3.63665211" height="3.03054196"></rect>
                    <polygon id="Path" fill="#3F3D56" points="453.602081 119.286897 453.602081 116.256083 449.965631 116.256083 449.965631 119.286897 453.299263 119.286897"></polygon>
                    <polygon id="Path" fill="#3F3D56" points="453.299263 121.711197 449.965631 121.711197 449.965631 124.741572 453.602081 124.741572 453.602081 121.711197"></polygon>
                    <rect id="Rectangle" fill="#3F3D56" x="456.026728" y="116.256201" width="3.63665211" height="3.03054196"></rect>
                    <rect id="Rectangle" fill="#3F3D56" x="456.026728" y="121.711175" width="3.63665211" height="3.03054196"></rect>
                    <polygon id="Path" fill="#3F3D56" points="453.602081 136.257876 453.602081 133.227061 449.965631 133.227061 449.965631 136.257876 453.299263 136.257876"></polygon>
                    <polygon id="Path" fill="#3F3D56" points="453.299263 138.682176 449.965631 138.682176 449.965631 141.712551 453.602081 141.712551 453.602081 138.682176"></polygon>
                    <rect id="Rectangle" fill="#3F3D56" x="456.026728" y="133.227237" width="3.63665211" height="3.03054196"></rect>
                    <rect id="Rectangle" fill="#3F3D56" x="456.026728" y="138.682211" width="3.63665211" height="3.03054196"></rect>
                    <rect id="Rectangle" fill="#3F3D56" x="399.658642" y="85.3446716" width="35.1542876" height="7.27329983"></rect>
                    <rect id="Rectangle" fill="#3F3D56" x="399.658642" y="99.8912713" width="35.1542876" height="7.27329983"></rect>
                    <rect id="Rectangle" fill="#3F3D56" x="399.658642" y="114.437875" width="35.1542876" height="7.27329983"></rect>
                    <rect id="Rectangle" fill="#3F3D56" x="399.658642" y="128.984479" width="35.1542876" height="7.27329983"></rect>
                    <rect id="Rectangle" fill="#3F3D56" x="0" y="159.290325" width="499.715202" height="1"></rect>
                    <rect id="Rectangle" fill="#3F3D56" x="110.75482" y="124.569568" width="1" height="34.7207572"></rect>
                    <path d="M119.746059,128.994346 C119.802017,141.135329 111.260192,151.01712 111.260192,151.01712 C111.260192,151.01712 102.627645,141.214484 102.571687,129.073501 C102.51573,116.932518 111.057555,107.050727 111.057555,107.050727 C111.057555,107.050727 119.690102,116.853346 119.746059,128.994346 Z" id="Path" fill="#002D43"></path>
                    <rect id="Rectangle" fill="#3F3D56" x="198.655472" y="124.569568" width="1" height="34.7207572"></rect>
                    <path d="M207.646711,128.994346 C207.702668,141.135329 199.160843,151.01712 199.160843,151.01712 C199.160843,151.01712 190.528296,141.214484 190.472339,129.073501 C190.416381,116.932518 198.958206,107.050727 198.958206,107.050727 C198.958206,107.050727 207.590753,116.853346 207.646711,128.994346 Z" id="Path" fill="#002D43"></path>
                    <rect id="Rectangle" fill="#3F3D56" x="374.017271" y="124.569568" width="1" height="34.7207572"></rect>
                    <path d="M383.00851,128.994346 C383.064467,141.135329 374.522642,151.01712 374.522642,151.01712 C374.522642,151.01712 365.890095,141.214484 365.834138,129.073501 C365.77818,116.932518 374.320005,107.050727 374.320005,107.050727 C374.320005,107.050727 382.952552,116.853346 383.00851,128.994346 Z" id="Path" fill="#002D43"></path>
                    <ellipse id="Oval" fill="#002D43" cx="258.208163" cy="4.34053415" rx="16.7011237" ry="3.75775284"></ellipse>
                </g>
            </g>
        </g>
    </g>
</svg>