<svg width="89" height="89" viewBox="0 0 89 89" fill="none" xmlns="http://www.w3.org/2000/svg">
<g filter="url(#filter0_d_6369_141372)">
<rect x="12" y="12" width="65" height="65" rx="20" fill="white"/>
<rect x="14" y="14" width="61" height="61" rx="18" stroke="#27AE60" stroke-width="4"/>
</g>
<path d="M44.1045 54.567C49.7767 54.567 54.3749 49.9687 54.3749 44.2965C54.3749 38.6242 49.7767 34.026 44.1045 34.026C38.4322 34.026 33.834 38.6242 33.834 44.2965C33.834 49.9687 38.4322 54.567 44.1045 54.567Z" stroke="#93D6AF" stroke-miterlimit="10"/>
<path d="M59.5317 31.3503C50.0134 32.4709 44.1042 27.0003 44.1042 27.0003C44.1042 27.0003 38.1955 32.4709 28.677 31.3503C28.677 31.3503 25.7065 56.562 44.1042 62C62.5025 56.562 59.5317 31.3503 59.5317 31.3503Z" stroke="#93D6AF" stroke-miterlimit="10" stroke-linecap="round"/>
<path d="M44.1043 27V34.0259" stroke="#93D6AF" stroke-miterlimit="10" stroke-linecap="round"/>
<path d="M44.1043 54.5667V61.9444" stroke="#93D6AF" stroke-miterlimit="10" stroke-linecap="round"/>
<path d="M48.5373 46.4855C48.4442 45.949 48.1537 45.5449 47.7935 45.4495L46.1084 45.0054C46.1084 45.0054 45.1834 46.0728 44.1038 46.2496C43.0242 46.0728 42.0992 45.0054 42.0992 45.0054L40.4141 45.4495C40.0539 45.5443 39.7634 45.949 39.6703 46.4855L39.303 48.6064H44.1043H48.9057L48.5373 46.4855Z" stroke="#93D6AF"/>
<path d="M44.1045 43.8049C45.4303 43.8049 46.5051 42.4614 46.5051 40.8041C46.5051 39.1467 45.4303 37.8032 44.1045 37.8032C42.7786 37.8032 41.7038 39.1467 41.7038 40.8041C41.7038 42.4614 42.7786 43.8049 44.1045 43.8049Z" stroke="#93D6AF"/>
<path d="M39.8439 47.6687L40.1815 47.9864L40.5238 47.6738L51.9176 37.2684L51.9192 37.2669C52.045 37.151 52.1648 37.0376 52.2817 36.927C52.6016 36.6242 52.8992 36.3425 53.2362 36.0882C53.7712 35.6907 54.298 35.5029 54.7832 35.5C55.2617 35.4973 55.7479 35.6736 56.2155 36.0934L56.2297 36.1062L56.245 36.1179C56.45 36.2753 56.6128 36.4678 56.7256 36.6805C56.8382 36.8931 56.8992 37.1225 56.9066 37.354C56.914 37.5855 56.8678 37.8172 56.7693 38.0344C56.6708 38.2519 56.5212 38.4517 56.3275 38.619L56.3117 38.6326L56.2971 38.6475C55.3931 39.5701 54.4253 40.4359 53.4445 41.3133C53.1221 41.6016 52.7984 41.8913 52.475 42.1846L52.4739 42.1855C51.75 42.8458 51.0265 43.5065 50.303 44.1671C47.65 46.5894 44.9975 49.0113 42.3286 51.4157L42.3282 51.4161C41.4572 52.2024 40.8119 52.5055 40.2367 52.505C39.6611 52.5046 39.0155 52.2001 38.1439 51.4156L38.142 51.4138C36.2323 49.7127 34.3407 48.0042 32.4867 46.2586L32.4866 46.2585C31.8248 45.6358 31.5428 45.08 31.5046 44.6229C31.4684 44.1882 31.6447 43.739 32.1438 43.2885C32.6435 42.8376 33.16 42.6551 33.6877 42.6941C34.2287 42.7341 34.8529 43.0125 35.5393 43.6244C36.5197 44.4983 37.4025 45.3423 38.3513 46.2495C38.8255 46.7029 39.3162 47.1721 39.8439 47.6687Z" fill="#27AE60" stroke="#27AE60"/>
<defs>
<filter id="filter0_d_6369_141372" x="0" y="0" width="89" height="89" filterUnits="userSpaceOnUse" color-interpolation-filters="sRGB">
<feFlood flood-opacity="0" result="BackgroundImageFix"/>
<feColorMatrix in="SourceAlpha" type="matrix" values="0 0 0 0 0 0 0 0 0 0 0 0 0 0 0 0 0 0 127 0" result="hardAlpha"/>
<feMorphology radius="8" operator="erode" in="SourceAlpha" result="effect1_dropShadow_6369_141372"/>
<feOffset/>
<feGaussianBlur stdDeviation="10"/>
<feComposite in2="hardAlpha" operator="out"/>
<feColorMatrix type="matrix" values="0 0 0 0 0.411765 0 0 0 0 0.623529 0 0 0 0 0.941176 0 0 0 1 0"/>
<feBlend mode="normal" in2="BackgroundImageFix" result="effect1_dropShadow_6369_141372"/>
<feBlend mode="normal" in="SourceGraphic" in2="effect1_dropShadow_6369_141372" result="shape"/>
</filter>
</defs>
</svg>
