<svg width="204" height="120" viewBox="0 0 204 120" fill="none" xmlns="http://www.w3.org/2000/svg">
<rect x="78.8374" y="11.8605" width="124.186" height="90" rx="20" fill="#CEE1F0"/>
<path d="M191.861 49.2852H191.537V40.4522C191.537 39.7808 191.404 39.116 191.146 38.4958C190.887 37.8755 190.509 37.3119 190.032 36.8372C189.555 36.3625 188.988 35.9859 188.365 35.729C187.742 35.4721 187.074 35.3398 186.399 35.3398H167.593C166.918 35.3398 166.25 35.4721 165.627 35.729C165.003 35.9859 164.437 36.3625 163.96 36.8372C163.483 37.3119 163.105 37.8755 162.846 38.4958C162.588 39.116 162.455 39.7808 162.455 40.4522V88.9108C162.455 89.5821 162.588 90.2469 162.846 90.8672C163.105 91.4874 163.483 92.051 163.96 92.5257C164.437 93.0005 165.003 93.377 165.627 93.6339C166.25 93.8909 166.918 94.0231 167.593 94.0231H186.399C187.074 94.0231 187.742 93.8909 188.365 93.6339C188.988 93.377 189.555 93.0005 190.032 92.5257C190.509 92.051 190.887 91.4874 191.146 90.8672C191.404 90.2469 191.537 89.5821 191.537 88.9108V55.5727H191.861V49.2852Z" fill="#3F3D56"/>
<path d="M190.443 40.7526V89.1407C190.443 90.1534 190.039 91.1246 189.319 91.8406C188.6 92.5567 187.624 92.959 186.606 92.9591H167.709C167.206 92.959 166.707 92.8602 166.241 92.6683C165.776 92.4763 165.353 92.1951 164.997 91.8405C164.641 91.4859 164.358 91.065 164.166 90.6017C163.973 90.1385 163.874 89.642 163.874 89.1407V40.7526C163.874 39.7403 164.278 38.7696 164.997 38.0538C165.717 37.338 166.692 36.9359 167.709 36.9359H170.002C169.89 37.2113 169.847 37.51 169.877 37.8057C169.908 38.1014 170.011 38.385 170.178 38.6317C170.345 38.8785 170.57 39.0806 170.833 39.2206C171.097 39.3605 171.391 39.4338 171.69 39.4341H182.464C182.763 39.4346 183.057 39.3619 183.321 39.2222C183.586 39.0825 183.811 38.8803 183.978 38.6333C184.145 38.3864 184.248 38.1023 184.278 37.8062C184.308 37.5102 184.265 37.2113 184.151 36.9359H186.606C187.623 36.9359 188.599 37.3379 189.319 38.0536C190.038 38.7693 190.443 39.7401 190.443 40.7526Z" fill="white"/>
<path d="M186.866 61.7095H164.899V67.6079H186.866V61.7095Z" fill="#092869"/>
<path d="M187.737 66.567H166.468C166.329 66.5668 166.196 66.5119 166.098 66.4144C166 66.3168 165.945 66.1845 165.945 66.0465V60.842C165.945 60.704 166 60.5717 166.098 60.4741C166.196 60.3766 166.329 60.3217 166.468 60.3215H187.737C187.876 60.3217 188.009 60.3766 188.107 60.4741C188.205 60.5717 188.26 60.704 188.26 60.842V66.0465C188.26 66.1845 188.205 66.3168 188.107 66.4144C188.009 66.5119 187.876 66.5668 187.737 66.567ZM166.468 60.6685C166.422 60.6685 166.378 60.6868 166.345 60.7194C166.312 60.7519 166.294 60.796 166.294 60.842V66.0465C166.294 66.0925 166.312 66.1366 166.345 66.1691C166.378 66.2017 166.422 66.22 166.468 66.22H187.737C187.784 66.22 187.828 66.2017 187.861 66.1691C187.893 66.1366 187.912 66.0925 187.912 66.0465V60.842C187.912 60.796 187.893 60.7519 187.861 60.7194C187.828 60.6868 187.784 60.6685 187.737 60.6685H166.468Z" fill="#3F3D56"/>
<path d="M170.129 65.0056H167.34V65.3526H170.129V65.0056Z" fill="#3F3D56"/>
<path d="M173.965 65.0056H171.175V65.3526H173.965V65.0056Z" fill="#3F3D56"/>
<path d="M177.8 65.0056H175.011V65.3526H177.8V65.0056Z" fill="#3F3D56"/>
<path d="M181.636 65.0056H178.846V65.3526H181.636V65.0056Z" fill="#3F3D56"/>
<path d="M185.471 65.0056H182.682V65.3526H185.471V65.0056Z" fill="#3F3D56"/>
<path opacity="0.1" d="M190.443 84.2208V89.1408C190.443 90.1534 190.039 91.1246 189.319 91.8407C188.6 92.5568 187.624 92.9591 186.606 92.9591H167.709C167.206 92.9591 166.707 92.8603 166.241 92.6683C165.776 92.4764 165.353 92.1951 164.997 91.8405C164.641 91.486 164.358 91.065 164.166 90.6018C163.973 90.1386 163.874 89.6421 163.874 89.1408V66.5081L190.443 84.2208Z" fill="black"/>
<path d="M99.8702 79.7517H17.4077V120H99.8702V79.7517Z" fill="white"/>
<path opacity="0.1" d="M78.9059 120H17.7564C17.664 120 17.5755 119.963 17.5101 119.898C17.4448 119.833 17.408 119.745 17.4077 119.653V80.0987C17.408 80.0067 17.4448 79.9186 17.5101 79.8536C17.5755 79.7886 17.664 79.752 17.7564 79.7517H18.5305L78.9059 120Z" fill="black"/>
<path d="M183.379 85.1298H55.5884V85.4767H183.379V85.1298Z" fill="#3F3D56"/>
<path d="M95.9899 0.749061H59.4676V0H42.907V0.749061H6.23413C5.9097 0.749061 5.58846 0.812648 5.28873 0.936191C4.989 1.05973 4.71666 1.24081 4.48725 1.46909C4.25785 1.69737 4.07588 1.96837 3.95172 2.26663C3.82757 2.56489 3.76367 2.88456 3.76367 3.2074V52.9723C3.76367 53.6243 4.02395 54.2496 4.48725 54.7106C4.95055 55.1716 5.57892 55.4306 6.23413 55.4306H95.9899C96.6451 55.4306 97.2734 55.1716 97.7367 54.7106C98.2001 54.2496 98.4603 53.6243 98.4603 52.9723V3.2074C98.4603 2.88456 98.3964 2.56489 98.2723 2.26663C98.1481 1.96837 97.9662 1.69737 97.7367 1.46909C97.5073 1.24081 97.235 1.05973 96.9353 0.936191C96.6355 0.812648 96.3143 0.749061 95.9899 0.749061Z" fill="#3F3D56"/>
<path d="M95.1476 5.0929H7.07666V54.5323H95.1476V5.0929Z" fill="white"/>
<path d="M51.0366 3.74526C51.5355 3.74526 51.9399 3.34282 51.9399 2.84639C51.9399 2.34995 51.5355 1.94751 51.0366 1.94751C50.5377 1.94751 50.1333 2.34995 50.1333 2.84639C50.1333 3.34282 50.5377 3.74526 51.0366 3.74526Z" fill="#092869"/>
<path d="M33.2728 23.543H31.1807C31.0421 23.5429 30.9091 23.488 30.8111 23.3904C30.713 23.2928 30.6579 23.1605 30.6577 23.0225V20.9407C30.6579 20.8028 30.713 20.6705 30.8111 20.5729C30.9091 20.4753 31.0421 20.4204 31.1807 20.4203H33.2728C33.4115 20.4204 33.5444 20.4753 33.6425 20.5729C33.7405 20.6705 33.7957 20.8028 33.7958 20.9407V23.0225C33.7957 23.1605 33.7405 23.2928 33.6425 23.3904C33.5444 23.488 33.4115 23.5429 33.2728 23.543ZM31.1807 20.7673C31.1345 20.7673 31.0902 20.7856 31.0575 20.8181C31.0248 20.8507 31.0065 20.8947 31.0064 20.9407V23.0225C31.0065 23.0685 31.0248 23.1126 31.0575 23.1452C31.0902 23.1777 31.1345 23.196 31.1807 23.196H33.2728C33.319 23.196 33.3633 23.1777 33.396 23.1452C33.4287 23.1126 33.4471 23.0685 33.4471 23.0225V20.9407C33.4471 20.8947 33.4287 20.8507 33.396 20.8181C33.3633 20.7856 33.319 20.7673 33.2728 20.7673H31.1807Z" fill="#3F3D56"/>
<path d="M70.5814 23.1959H30.832V23.5429H70.5814V23.1959Z" fill="#3F3D56"/>
<path d="M69.5349 32.7375H60.2949V35.5133H69.5349V32.7375Z" fill="#092869"/>
<path d="M70.2326 34.8194H61.69C61.5513 34.8192 61.4184 34.7643 61.3203 34.6668C61.2223 34.5692 61.1671 34.4369 61.167 34.2989V32.2171C61.1671 32.0791 61.2223 31.9468 61.3203 31.8493C61.4184 31.7517 61.5513 31.6968 61.69 31.6967H70.2326C70.3713 31.6968 70.5042 31.7517 70.6023 31.8493C70.7003 31.9468 70.7555 32.0791 70.7556 32.2171V34.2989C70.7555 34.4369 70.7003 34.5692 70.6023 34.6668C70.5042 34.7643 70.3713 34.8192 70.2326 34.8194ZM61.69 32.0436C61.6438 32.0437 61.5995 32.062 61.5668 32.0945C61.5341 32.127 61.5157 32.1711 61.5157 32.2171V34.2989C61.5157 34.3449 61.5341 34.389 61.5668 34.4215C61.5995 34.454 61.6438 34.4723 61.69 34.4724H70.2326C70.2788 34.4723 70.3232 34.454 70.3558 34.4215C70.3885 34.389 70.4069 34.3449 70.407 34.2989V32.2171C70.4069 32.1711 70.3885 32.127 70.3558 32.0945C70.3232 32.062 70.2788 32.0437 70.2326 32.0436H61.69Z" fill="#3F3D56"/>
<path d="M140.143 35.8604H122.709V48.0042H140.143V35.8604Z" fill="#092869"/>
<path d="M141.886 47.05H125.15C124.965 47.0498 124.788 46.9766 124.657 46.8465C124.526 46.7164 124.453 46.54 124.452 46.356V34.9061C124.453 34.7221 124.526 34.5457 124.657 34.4156C124.788 34.2855 124.965 34.2124 125.15 34.2122H141.886C142.071 34.2124 142.248 34.2855 142.379 34.4156C142.51 34.5457 142.583 34.7221 142.584 34.9061V46.356C142.583 46.54 142.51 46.7164 142.379 46.8465C142.248 46.9766 142.071 47.0498 141.886 47.05ZM125.15 34.9061V46.356H141.887L141.886 34.9061H125.15Z" fill="#3F3D56"/>
<path d="M139.969 34.4725H139.271C139.271 32.9541 138.665 31.498 137.586 30.4243C136.507 29.3507 135.044 28.7475 133.518 28.7475C131.992 28.7475 130.529 29.3507 129.45 30.4243C128.371 31.498 127.765 32.9541 127.765 34.4725H127.067C127.067 32.7701 127.747 31.1374 128.957 29.9336C130.166 28.7299 131.807 28.0536 133.518 28.0536C135.229 28.0536 136.869 28.7299 138.079 29.9336C139.289 31.1374 139.969 32.7701 139.969 34.4725Z" fill="#3F3D56"/>
<path d="M135.262 39.2432C135.262 38.9411 135.183 38.6442 135.033 38.3817C134.882 38.1193 134.665 37.9005 134.404 37.747C134.143 37.5935 133.845 37.5106 133.542 37.5065C133.238 37.5024 132.939 37.5773 132.673 37.7237C132.408 37.87 132.185 38.0829 132.028 38.3412C131.87 38.5994 131.783 38.8941 131.775 39.1961C131.767 39.4981 131.839 39.797 131.983 40.063C132.126 40.3291 132.338 40.5531 132.595 40.7131V42.5751C132.595 42.6957 132.619 42.8152 132.665 42.9266C132.712 43.038 132.78 43.1393 132.865 43.2246C132.951 43.3098 133.053 43.3775 133.165 43.4237C133.277 43.4698 133.397 43.4936 133.518 43.4936C133.763 43.4936 133.998 43.3968 134.171 43.2246C134.344 43.0523 134.441 42.8187 134.441 42.5751V40.7131C134.692 40.5576 134.899 40.341 135.043 40.0839C135.186 39.8267 135.261 39.5374 135.262 39.2432Z" fill="#3F3D56"/>
<path d="M52.3632 97.6206H49.5737V97.9676H52.3632V97.6206Z" fill="#3F3D56"/>
<path d="M56.1981 97.6206H53.4087V97.9676H56.1981V97.6206Z" fill="#3F3D56"/>
<path d="M60.0341 97.6206H57.2446V97.9676H60.0341V97.6206Z" fill="#3F3D56"/>
<path d="M63.8695 97.6206H61.0801V97.9676H63.8695V97.6206Z" fill="#3F3D56"/>
<path d="M67.7045 97.6206H64.915V97.9676H67.7045V97.6206Z" fill="#3F3D56"/>
<path d="M103.532 117.051H21.7667C21.5818 117.051 21.4045 116.977 21.2738 116.847C21.1431 116.717 21.0695 116.541 21.0693 116.357V76.8026C21.0695 76.6186 21.1431 76.4422 21.2738 76.3121C21.4045 76.182 21.5818 76.1088 21.7667 76.1086H103.532C103.717 76.1088 103.894 76.182 104.025 76.3121C104.155 76.4422 104.229 76.6186 104.229 76.8026V116.357C104.229 116.541 104.155 116.717 104.025 116.847C103.894 116.977 103.717 117.051 103.532 117.051ZM21.7667 76.8026V116.357H103.532L103.532 76.8026H21.7667Z" fill="#3F3D56"/>
<path d="M25.4274 82.7009C26.0051 82.7009 26.4734 82.2349 26.4734 81.66C26.4734 81.0852 26.0051 80.6191 25.4274 80.6191C24.8497 80.6191 24.3813 81.0852 24.3813 81.66C24.3813 82.2349 24.8497 82.7009 25.4274 82.7009Z" fill="#3F3D56"/>
<path d="M29.0885 82.7009C29.6662 82.7009 30.1346 82.2349 30.1346 81.66C30.1346 81.0852 29.6662 80.6191 29.0885 80.6191C28.5108 80.6191 28.0425 81.0852 28.0425 81.66C28.0425 82.2349 28.5108 82.7009 29.0885 82.7009Z" fill="#3F3D56"/>
<path d="M32.7501 82.7009C33.3278 82.7009 33.7962 82.2349 33.7962 81.66C33.7962 81.0852 33.3278 80.6191 32.7501 80.6191C32.1724 80.6191 31.7041 81.0852 31.7041 81.66C31.7041 82.2349 32.1724 82.7009 32.7501 82.7009Z" fill="#3F3D56"/>
<path d="M70.407 100.049H46.8712C46.7325 100.049 46.5996 99.9943 46.5015 99.8967C46.4034 99.7992 46.3483 99.6669 46.3481 99.5289V93.6304C46.3483 93.4925 46.4034 93.3602 46.5015 93.2626C46.5996 93.165 46.7325 93.1101 46.8712 93.11H70.407C70.5456 93.1101 70.6786 93.165 70.7766 93.2626C70.8747 93.3602 70.9298 93.4925 70.93 93.6304V99.5289C70.9298 99.6669 70.8747 99.7992 70.7766 99.8967C70.6786 99.9943 70.5456 100.049 70.407 100.049ZM46.8712 93.457C46.8249 93.457 46.7806 93.4753 46.7479 93.5078C46.7153 93.5403 46.6969 93.5844 46.6968 93.6304V99.5289C46.6969 99.5749 46.7153 99.619 46.7479 99.6515C46.7806 99.684 46.8249 99.7023 46.8712 99.7024H70.407C70.4532 99.7023 70.4975 99.684 70.5302 99.6515C70.5629 99.619 70.5813 99.5749 70.5813 99.5289V93.6304C70.5813 93.5844 70.5629 93.5403 70.5302 93.5078C70.4975 93.4753 70.4532 93.457 70.407 93.457H46.8712Z" fill="#3F3D56"/>
<path d="M76.3349 100.223C78.068 100.223 79.473 98.8248 79.473 97.1001C79.473 95.3755 78.068 93.9774 76.3349 93.9774C74.6018 93.9774 73.1968 95.3755 73.1968 97.1001C73.1968 98.8248 74.6018 100.223 76.3349 100.223Z" fill="#092869"/>
<path d="M77.3803 99.8758C76.7252 99.8758 76.0848 99.6825 75.54 99.3203C74.9953 98.9581 74.5707 98.4433 74.32 97.841C74.0693 97.2387 74.0037 96.576 74.1315 95.9366C74.2593 95.2972 74.5748 94.7099 75.0381 94.2489C75.5013 93.7879 76.0915 93.474 76.7341 93.3468C77.3766 93.2196 78.0427 93.2849 78.6479 93.5344C79.2532 93.7838 79.7705 94.2063 80.1345 94.7484C80.4985 95.2904 80.6928 95.9277 80.6928 96.5796C80.6918 97.4535 80.3425 98.2914 79.7215 98.9093C79.1005 99.5272 78.2585 99.8748 77.3803 99.8758ZM77.3803 93.6304C76.7941 93.6304 76.2211 93.8034 75.7337 94.1275C75.2464 94.4515 74.8665 94.9121 74.6422 95.451C74.4178 95.9899 74.3591 96.5829 74.4735 97.155C74.5879 97.7271 74.8701 98.2526 75.2846 98.6651C75.6991 99.0775 76.2272 99.3584 76.8021 99.4722C77.377 99.586 77.9729 99.5276 78.5145 99.3044C79.0561 99.0812 79.5189 98.7031 79.8446 98.2181C80.1703 97.7331 80.3441 97.1629 80.3441 96.5796C80.3432 95.7977 80.0307 95.0481 79.4751 94.4952C78.9194 93.9423 78.1661 93.6313 77.3803 93.6304Z" fill="#3F3D56"/>
<path d="M77.427 97.8107L75.7393 96.131L76.2323 95.6404L77.3339 96.7365L80.4079 92.3896L80.9782 92.7892L77.427 97.8107Z" fill="#3F3D56"/>
<path opacity="0.1" d="M75.6216 54.5324H7.07666V8.8385L75.6216 54.5324Z" fill="black"/>
<path d="M100.933 53.6328H92.338V53.0166C92.338 53.0006 92.3349 52.9847 92.3287 52.9698C92.3225 52.955 92.3135 52.9415 92.3021 52.9302C92.2907 52.9189 92.2771 52.9099 92.2622 52.9037C92.2473 52.8976 92.2314 52.8944 92.2152 52.8944H89.2683C89.2522 52.8944 89.2362 52.8976 89.2213 52.9037C89.2064 52.9099 89.1929 52.9189 89.1815 52.9302C89.1701 52.9415 89.161 52.955 89.1548 52.9698C89.1487 52.9847 89.1455 53.0006 89.1455 53.0166V53.6328H87.3036V53.0166C87.3036 53.0006 87.3005 52.9847 87.2943 52.9698C87.2881 52.955 87.2791 52.9415 87.2677 52.9302C87.2563 52.9189 87.2427 52.9099 87.2279 52.9037C87.213 52.8976 87.197 52.8944 87.1809 52.8944H84.2339C84.2178 52.8944 84.2018 52.8976 84.1869 52.9037C84.172 52.9099 84.1585 52.9189 84.1471 52.9302C84.1357 52.9415 84.1266 52.955 84.1205 52.9698C84.1143 52.9847 84.1111 53.0006 84.1111 53.0166V53.6328H82.2693V53.0166C82.2693 53.0006 82.2661 52.9847 82.2599 52.9698C82.2537 52.955 82.2447 52.9415 82.2333 52.9302C82.2219 52.9189 82.2084 52.9099 82.1935 52.9037C82.1786 52.8976 82.1626 52.8944 82.1465 52.8944H79.1995C79.1834 52.8944 79.1674 52.8976 79.1525 52.9037C79.1376 52.9099 79.1241 52.9189 79.1127 52.9302C79.1013 52.9415 79.0922 52.955 79.0861 52.9698C79.0799 52.9847 79.0767 53.0006 79.0767 53.0166V53.6328H77.2349V53.0166C77.2349 53.0006 77.2317 52.9847 77.2255 52.9698C77.2194 52.955 77.2103 52.9415 77.1989 52.9302C77.1875 52.9189 77.174 52.9099 77.1591 52.9037C77.1442 52.8976 77.1282 52.8944 77.1121 52.8944H74.1651C74.149 52.8944 74.133 52.8976 74.1181 52.9037C74.1032 52.9099 74.0897 52.9189 74.0783 52.9302C74.0669 52.9415 74.0578 52.955 74.0517 52.9698C74.0455 52.9847 74.0423 53.0006 74.0423 53.0166V53.6328H72.2005V53.0166C72.2005 53.0006 72.1973 52.9847 72.1911 52.9698C72.185 52.955 72.1759 52.9415 72.1645 52.9302C72.1531 52.9189 72.1396 52.9099 72.1247 52.9037C72.1098 52.8976 72.0938 52.8944 72.0777 52.8944H69.1307C69.1146 52.8944 69.0986 52.8976 69.0837 52.9037C69.0688 52.9099 69.0553 52.9189 69.0439 52.9302C69.0325 52.9415 69.0235 52.955 69.0173 52.9698C69.0111 52.9847 69.0079 53.0006 69.0079 53.0166V53.6328H67.1661V53.0166C67.1661 53.0006 67.1629 52.9847 67.1568 52.9698C67.1506 52.955 67.1415 52.9415 67.1301 52.9302C67.1187 52.9189 67.1052 52.9099 67.0903 52.9037C67.0754 52.8976 67.0594 52.8944 67.0433 52.8944H64.0963C64.0802 52.8944 64.0643 52.8976 64.0494 52.9037C64.0345 52.9099 64.0209 52.9189 64.0095 52.9302C63.9981 52.9415 63.9891 52.955 63.9829 52.9698C63.9767 52.9847 63.9736 53.0006 63.9736 53.0166V53.6328H62.1317V53.0166C62.1317 53.0006 62.1285 52.9847 62.1224 52.9698C62.1162 52.955 62.1072 52.9415 62.0957 52.9302C62.0843 52.9189 62.0708 52.9099 62.0559 52.9037C62.041 52.8976 62.025 52.8944 62.0089 52.8944H38.9244C38.9083 52.8944 38.8923 52.8976 38.8774 52.9037C38.8625 52.9099 38.849 52.9189 38.8376 52.9302C38.8262 52.9415 38.8171 52.955 38.811 52.9698C38.8048 52.9847 38.8016 53.0006 38.8016 53.0166V53.6328H36.9598V53.0166C36.9598 53.0006 36.9566 52.9847 36.9504 52.9698C36.9443 52.955 36.9352 52.9415 36.9238 52.9302C36.9124 52.9189 36.8989 52.9099 36.884 52.9037C36.8691 52.8976 36.8531 52.8944 36.837 52.8944H33.89C33.8739 52.8944 33.8579 52.8976 33.843 52.9037C33.8281 52.9099 33.8146 52.9189 33.8032 52.9302C33.7918 52.9415 33.7827 52.955 33.7766 52.9698C33.7704 52.9847 33.7672 53.0006 33.7672 53.0166V53.6328H31.9254V53.0166C31.9254 53.0006 31.9222 52.9847 31.916 52.9698C31.9099 52.955 31.9008 52.9415 31.8894 52.9302C31.878 52.9189 31.8645 52.9099 31.8496 52.9037C31.8347 52.8976 31.8187 52.8944 31.8026 52.8944H28.8556C28.8395 52.8944 28.8235 52.8976 28.8086 52.9037C28.7937 52.9099 28.7802 52.9189 28.7688 52.9302C28.7574 52.9415 28.7484 52.955 28.7422 52.9698C28.736 52.9847 28.7328 53.0006 28.7328 53.0166V53.6328H26.891V53.0166C26.891 53.0006 26.8878 52.9847 26.8817 52.9698C26.8755 52.955 26.8664 52.9415 26.855 52.9302C26.8436 52.9189 26.8301 52.9099 26.8152 52.9037C26.8003 52.8976 26.7843 52.8944 26.7682 52.8944H23.8213C23.8051 52.8944 23.7892 52.8976 23.7743 52.9037C23.7594 52.9099 23.7458 52.9189 23.7344 52.9302C23.723 52.9415 23.714 52.955 23.7078 52.9698C23.7016 52.9847 23.6985 53.0006 23.6985 53.0166V53.6328H21.8566V53.0166C21.8566 53.0006 21.8534 52.9847 21.8473 52.9698C21.8411 52.955 21.832 52.9415 21.8206 52.9302C21.8092 52.9189 21.7957 52.9099 21.7808 52.9037C21.7659 52.8976 21.7499 52.8944 21.7338 52.8944H18.7869C18.7707 52.8944 18.7548 52.8976 18.7399 52.9037C18.725 52.9099 18.7114 52.9189 18.7 52.9302C18.6886 52.9415 18.6796 52.955 18.6734 52.9698C18.6672 52.9847 18.6641 53.0006 18.6641 53.0166V53.6328H16.8222V53.0166C16.8222 53.0006 16.8191 52.9847 16.8129 52.9698C16.8067 52.955 16.7977 52.9415 16.7863 52.9302C16.7749 52.9189 16.7613 52.9099 16.7464 52.9037C16.7315 52.8976 16.7156 52.8944 16.6994 52.8944H13.7525C13.7363 52.8944 13.7204 52.8976 13.7055 52.9037C13.6906 52.9099 13.677 52.9189 13.6656 52.9302C13.6542 52.9415 13.6452 52.955 13.639 52.9698C13.6329 52.9847 13.6297 53.0006 13.6297 53.0166V53.6328H11.7878V53.0166C11.7878 53.0006 11.7847 52.9847 11.7785 52.9698C11.7723 52.955 11.7633 52.9415 11.7519 52.9302C11.7405 52.9189 11.7269 52.9099 11.712 52.9037C11.6971 52.8976 11.6812 52.8944 11.665 52.8944H8.71809C8.70196 52.8944 8.68599 52.8976 8.67109 52.9037C8.6562 52.9099 8.64266 52.9189 8.63126 52.9302C8.61986 52.9415 8.61081 52.955 8.60464 52.9698C8.59847 52.9847 8.5953 53.0006 8.5953 53.0166V53.6328H2.94696C2.55996 53.6328 2.17675 53.7087 1.81921 53.8561C1.46166 54.0034 1.13679 54.2194 0.863143 54.4918C0.589493 54.7641 0.372422 55.0873 0.224323 55.4431C0.0762248 55.7989 -2.28945e-07 56.1803 0 56.5654V57.8914C1.8495e-06 58.6691 0.310485 59.415 0.863146 59.965C1.41581 60.5149 2.16538 60.8239 2.94696 60.8239H100.933C101.32 60.8239 101.704 60.748 102.061 60.6006C102.419 60.4533 102.743 60.2373 103.017 59.965C103.291 59.6926 103.508 59.3694 103.656 59.0136C103.804 58.6578 103.88 58.2765 103.88 57.8914V56.5654C103.88 56.1803 103.804 55.7989 103.656 55.4431C103.508 55.0873 103.291 54.7641 103.017 54.4918C102.743 54.2194 102.419 54.0034 102.061 53.8561C101.704 53.7087 101.32 53.6328 100.933 53.6328Z" fill="#3F3D56"/>
<path d="M74.0681 37.7687H28.0425C27.9039 37.7685 27.7709 37.7136 27.6729 37.6161C27.5748 37.5185 27.5197 37.3862 27.5195 37.2482V18.165C27.5197 18.027 27.5748 17.8947 27.6729 17.7971C27.7709 17.6996 27.9039 17.6447 28.0425 17.6445H74.0681C74.2068 17.6447 74.3397 17.6996 74.4378 17.7971C74.5358 17.8947 74.591 18.027 74.5911 18.165V37.2482C74.591 37.3862 74.5358 37.5185 74.4378 37.6161C74.3397 37.7136 74.2068 37.7685 74.0681 37.7687ZM28.0425 17.9915C27.9963 17.9916 27.952 18.0099 27.9193 18.0424C27.8867 18.0749 27.8683 18.119 27.8682 18.165V37.2482C27.8683 37.2942 27.8867 37.3383 27.9193 37.3708C27.952 37.4033 27.9963 37.4216 28.0425 37.4217H74.0681C74.1143 37.4216 74.1586 37.4033 74.1913 37.3708C74.224 37.3383 74.2424 37.2942 74.2425 37.2482V18.165C74.2424 18.119 74.224 18.0749 74.1913 18.0424C74.1586 18.0099 74.1143 17.9916 74.0681 17.9915H28.0425Z" fill="#3F3D56"/>
<path d="M33.2728 28.7475H31.1807C31.0421 28.7473 30.9091 28.6924 30.8111 28.5949C30.713 28.4973 30.6579 28.365 30.6577 28.227V26.1452C30.6579 26.0072 30.713 25.8749 30.8111 25.7774C30.9091 25.6798 31.0421 25.6249 31.1807 25.6248H33.2728C33.4115 25.6249 33.5444 25.6798 33.6425 25.7774C33.7405 25.8749 33.7957 26.0072 33.7958 26.1452V28.227C33.7957 28.365 33.7405 28.4973 33.6425 28.5949C33.5444 28.6924 33.4115 28.7473 33.2728 28.7475ZM31.1807 25.9717C31.1345 25.9718 31.0902 25.9901 31.0575 26.0226C31.0248 26.0551 31.0065 26.0992 31.0064 26.1452V28.227C31.0065 28.273 31.0248 28.3171 31.0575 28.3496C31.0902 28.3821 31.1345 28.4004 31.1807 28.4005H33.2728C33.319 28.4004 33.3633 28.3821 33.396 28.3496C33.4287 28.3171 33.4471 28.273 33.4471 28.227V26.1452C33.4471 26.0992 33.4287 26.0551 33.396 26.0226C33.3633 25.9901 33.319 25.9718 33.2728 25.9717H31.1807Z" fill="#3F3D56"/>
<path d="M70.5814 28.4005H30.832V28.7475H70.5814V28.4005Z" fill="#3F3D56"/>
<path d="M173.964 46.7898H46.1738V47.1368H173.964V46.7898Z" fill="#3F3D56"/>
<path d="M46.1741 49.2186C47.5221 49.2186 48.6149 48.1312 48.6149 46.7899C48.6149 45.4485 47.5221 44.3611 46.1741 44.3611C44.8262 44.3611 43.7334 45.4485 43.7334 46.7899C43.7334 48.1312 44.8262 49.2186 46.1741 49.2186Z" fill="#3F3D56"/>
<path d="M173.965 49.045C175.024 49.045 175.882 48.1907 175.882 47.1367C175.882 46.0828 175.024 45.2284 173.965 45.2284C172.905 45.2284 172.047 46.0828 172.047 47.1367C172.047 48.1907 172.905 49.045 173.965 49.045Z" fill="#3F3D56"/>
<path d="M183.379 87.385C184.438 87.385 185.297 86.5306 185.297 85.4767C185.297 84.4227 184.438 83.5684 183.379 83.5684C182.32 83.5684 181.461 84.4227 181.461 85.4767C181.461 86.5306 182.32 87.385 183.379 87.385Z" fill="#3F3D56"/>
<path d="M56.1116 87.385C57.1707 87.385 58.0293 86.5306 58.0293 85.4767C58.0293 84.4227 57.1707 83.5684 56.1116 83.5684C55.0524 83.5684 54.1938 84.4227 54.1938 85.4767C54.1938 86.5306 55.0524 87.385 56.1116 87.385Z" fill="#3F3D56"/>
</svg>
