<svg width="145" height="110" viewBox="0 0 145 110" fill="none" xmlns="http://www.w3.org/2000/svg">
<rect width="145" height="110" rx="8" fill="#E5F4FF"/>
<g clip-path="url(#clip0)">
<path d="M52.6007 11.4961H26.7256V54.3256H52.6007V11.4961Z" fill="#E0E0E0"/>
<path d="M51.7384 11.4961H25.8633V54.3256H51.7384V11.4961Z" fill="#EBEBEB"/>
<path d="M50.6381 12.3633H26.9678V53.4549H50.6381V12.3633Z" fill="#FAFAFA"/>
<path d="M46.0261 17.7031H31.4717V48.1149H46.0261V17.7031Z" fill="#EBEBEB"/>
<path d="M31.471 37.3537C31.4371 34.5124 33.9919 31.739 36.8056 31.3422C38.1467 31.1534 39.5642 31.4186 40.8267 30.9051C43.0633 29.9884 43.7762 27.0155 46.0276 26.1328L46.1295 48.1162H31.471V37.3537Z" fill="#E0E0E0"/>
<path d="M109.442 23.4143L107.318 23.4258L107.376 33.9929L109.5 33.9815L109.442 23.4143Z" fill="#E0E0E0"/>
<path d="M94.4219 23.439L88.9219 23.4688L88.9534 29.3019L94.4535 29.2722L94.4219 23.439Z" fill="#EBEBEB"/>
<path d="M99.8965 23.4116L94.3965 23.4414L94.428 29.2746L99.928 29.2448L99.8965 23.4116Z" fill="#F5F5F5"/>
<path d="M88.9298 25.0858C92.5838 25.1156 96.2484 25.0858 99.9024 25.0348C99.916 25.0322 99.9282 25.025 99.937 25.0143C99.9458 25.0036 99.9507 24.9902 99.9507 24.9764C99.9507 24.9626 99.9458 24.9492 99.937 24.9385C99.9282 24.9279 99.916 24.9206 99.9024 24.918C96.247 24.8967 92.5895 24.9187 88.9298 24.9838C88.9163 24.9838 88.9034 24.9892 88.8938 24.9988C88.8843 25.0083 88.8789 25.0213 88.8789 25.0348C88.8789 25.0484 88.8843 25.0613 88.8938 25.0709C88.9034 25.0804 88.9163 25.0858 88.9298 25.0858Z" fill="#E0E0E0"/>
<path d="M95.4872 29.1764L85.4951 29.2305L85.5208 33.9836L95.5129 33.9295L95.4872 29.1764Z" fill="#EBEBEB"/>
<path d="M105.43 29.1256L95.4375 29.1797L95.4632 33.9328L105.455 33.8787L105.43 29.1256Z" fill="#F5F5F5"/>
<path d="M85.4986 30.5577C92.1361 30.6342 98.7969 30.5577 105.434 30.46C105.448 30.4574 105.46 30.4501 105.469 30.4395C105.478 30.4288 105.483 30.4154 105.483 30.4016C105.483 30.3877 105.478 30.3743 105.469 30.3637C105.46 30.353 105.448 30.3458 105.434 30.3431C98.7969 30.307 92.1361 30.3113 85.4986 30.4579C85.4871 30.4602 85.4768 30.4665 85.4694 30.4756C85.462 30.4847 85.458 30.4961 85.458 30.5078C85.458 30.5195 85.462 30.5309 85.4694 30.54C85.4768 30.5491 85.4871 30.5553 85.4986 30.5577Z" fill="#E0E0E0"/>
<path d="M120.472 33.9883H81.7617V35.6922H120.472V33.9883Z" fill="#E0E0E0"/>
<path d="M89.6737 34.8086H88.0996V40.6206H89.6737V34.8086Z" fill="#E0E0E0"/>
<path d="M113.133 34.8086H111.559V40.6206H113.133V34.8086Z" fill="#E0E0E0"/>
<path d="M111.516 19.4729L109.392 19.4844L109.47 34.0174L111.594 34.0059L111.516 19.4729Z" fill="#EBEBEB"/>
<path d="M114.835 22.1775L111.535 22.1953L111.599 33.972L114.898 33.9541L114.835 22.1775Z" fill="#F5F5F5"/>
<path d="M114.809 24.4519C113.711 24.5284 112.608 24.5284 111.51 24.4519C112.608 24.3754 113.711 24.3754 114.809 24.4519Z" fill="#E0E0E0"/>
<path d="M114.809 23.9597C113.711 24.0362 112.608 24.0362 111.51 23.9597C112.608 23.8832 113.711 23.8832 114.809 23.9597Z" fill="#E0E0E0"/>
<path d="M114.809 32.1824C113.711 32.2588 112.608 32.2588 111.51 32.1824C112.608 32.1059 113.711 32.1059 114.809 32.1824Z" fill="#E0E0E0"/>
<path d="M114.809 31.6941C113.711 31.7677 112.608 31.7677 111.51 31.6941C112.608 31.6176 113.711 31.6176 114.809 31.6941Z" fill="#E0E0E0"/>
<path d="M113.214 30.6156C113.182 30.6156 113.156 29.4273 113.156 27.961C113.156 26.4948 113.182 25.3086 113.214 25.3086C113.245 25.3086 113.271 26.4948 113.271 27.961C113.271 29.4273 113.241 30.6156 113.214 30.6156Z" fill="#E0E0E0"/>
<path d="M118.438 25.0742H114.846V33.9631H118.438V25.0742Z" fill="#EBEBEB"/>
<path d="M111.033 21.9606C111.035 22.082 111.001 22.2013 110.935 22.3033C110.869 22.4053 110.774 22.4854 110.663 22.5333C110.551 22.5812 110.428 22.5949 110.309 22.5725C110.189 22.5501 110.079 22.4927 109.993 22.4076C109.906 22.3224 109.847 22.2135 109.822 22.0945C109.798 21.9755 109.809 21.852 109.855 21.7396C109.901 21.6272 109.979 21.531 110.08 21.4633C110.181 21.3956 110.3 21.3594 110.421 21.3594C110.582 21.3588 110.736 21.4216 110.851 21.5342C110.965 21.6468 111.031 21.8 111.033 21.9606Z" fill="#E0E0E0"/>
<path d="M110.61 23.6367H110.231V32.2815H110.61V23.6367Z" fill="#E0E0E0"/>
<path d="M56.3283 91.0869C56.3283 91.0869 54.3825 92.5723 56.2456 94.5266C56.2615 94.5432 56.2806 94.5565 56.3017 94.5656C56.3229 94.5747 56.3456 94.5795 56.3687 94.5797L73.3676 94.4799C73.3676 94.4799 74.819 92.8524 73.6138 90.9766L56.3283 91.0869Z" fill="#EBEBEB"/>
<path d="M69.6096 92.6316C69.6096 92.6508 67.4876 92.6656 64.884 92.6656C62.2803 92.6656 60.1562 92.6508 60.1562 92.6316C60.1562 92.6125 62.2782 92.5977 64.884 92.5977C67.4897 92.5977 69.6096 92.6125 69.6096 92.6316Z" fill="#E0E0E0"/>
<path d="M66.9658 93.251C66.9658 93.2701 65.9728 93.2849 64.7441 93.2849C63.5155 93.2849 62.5225 93.2701 62.5225 93.251C62.5225 93.2318 63.5177 93.2148 64.7441 93.2148C65.9706 93.2148 66.9658 93.2318 66.9658 93.251Z" fill="#E0E0E0"/>
<path d="M71.3468 94.4228C71.3468 94.4228 71.385 94.2275 71.4381 93.9135C71.5062 93.504 71.5389 93.0894 71.5358 92.6743C71.5317 92.2585 71.4912 91.8438 71.4147 91.435C71.3552 91.121 71.3043 90.93 71.3149 90.9258C71.3357 90.9678 71.3521 91.0119 71.3637 91.0573C71.4034 91.1777 71.436 91.3003 71.4615 91.4244C71.5526 91.8342 71.601 92.2524 71.6059 92.6721C71.6083 93.0918 71.5677 93.5106 71.4848 93.922C71.453 94.079 71.4211 94.2063 71.3956 94.2912C71.3701 94.3761 71.3531 94.4249 71.3468 94.4228Z" fill="#E0E0E0"/>
<path d="M72.616 90.957C72.6472 90.9942 72.6729 91.0357 72.6924 91.0801C72.7205 91.1297 72.746 91.1807 72.7689 91.2329C72.8011 91.302 72.8295 91.3729 72.8539 91.4451C72.9235 91.6278 72.9782 91.8159 73.0175 92.0074C73.062 92.2433 73.0868 92.4825 73.0918 92.7225C73.0913 92.963 73.07 93.2029 73.0281 93.4397C72.9927 93.6324 72.9415 93.8219 72.8751 94.0063C72.8496 94.0869 72.8178 94.1548 72.7923 94.2185C72.7709 94.271 72.746 94.322 72.7179 94.3713C72.6992 94.4158 72.6749 94.4579 72.6457 94.4965C72.633 94.4965 72.7286 94.3076 72.8305 93.9935C72.9618 93.5821 73.0263 93.1522 73.0217 92.7204C73.0188 92.4841 72.9961 92.2484 72.9537 92.0159C72.9186 91.826 72.8703 91.6389 72.8093 91.4557C72.7116 91.1395 72.6053 90.957 72.616 90.957Z" fill="#E0E0E0"/>
<path d="M59.0115 94.4468C58.9801 94.4121 58.953 94.3736 58.9308 94.3323C58.9017 94.2873 58.8754 94.2405 58.8522 94.1922C58.8185 94.1287 58.788 94.0635 58.7609 93.997C58.6889 93.8236 58.6334 93.6439 58.5952 93.4601C58.5505 93.2344 58.5284 93.0048 58.5293 92.7747C58.5344 92.5447 58.5629 92.3158 58.6143 92.0915C58.6573 91.9092 58.7177 91.7316 58.7949 91.561C58.8229 91.4948 58.8548 91.4303 58.8905 91.3679C58.9141 91.319 58.9418 91.2721 58.9733 91.2278C59.0222 91.1536 59.0519 91.1132 59.0562 91.1175C59.0604 91.1217 58.9584 91.2872 58.8437 91.5801C58.7743 91.7505 58.7196 91.9266 58.6801 92.1063C58.6341 92.3271 58.6078 92.5515 58.6015 92.7769C58.6019 93.0017 58.6218 93.226 58.661 93.4474C58.6971 93.6277 58.7468 93.8051 58.8097 93.9779C58.9202 94.2728 59.0222 94.4405 59.0115 94.4468Z" fill="#E0E0E0"/>
<path d="M57.176 94.8588C57.1408 94.8209 57.1114 94.778 57.0889 94.7315C57.0584 94.6777 57.0321 94.6217 57.0103 94.5638C56.9717 94.4951 56.9369 94.4242 56.9062 94.3516C56.8242 94.1575 56.7595 93.9566 56.7129 93.7511C56.594 93.2471 56.5825 92.7237 56.6789 92.2148C56.7163 92.0072 56.7725 91.8034 56.8467 91.6058C56.8743 91.5209 56.9104 91.4488 56.938 91.383C56.9626 91.3271 56.9903 91.2725 57.0209 91.2196C57.0434 91.1725 57.0704 91.1278 57.1016 91.0859C57.1144 91.0859 57.006 91.2875 56.8892 91.6228C56.8234 91.8195 56.773 92.021 56.7384 92.2254C56.6985 92.4759 56.68 92.7294 56.6831 92.983C56.6942 93.4453 56.784 93.9024 56.9487 94.3347C57.0698 94.6636 57.1866 94.8524 57.176 94.8588Z" fill="#E0E0E0"/>
<path d="M72.7429 99.6602V102.911H66.4492V99.6602H72.7429Z" fill="#EBEBEB"/>
<path d="M52.4151 101.31C52.4151 101.339 52.4151 101.367 52.4151 101.397C52.4455 101.871 52.6562 102.316 53.0042 102.641C53.3522 102.965 53.811 103.144 54.2867 103.141H73.032V102.905H68.5759C68.1448 102.905 67.7314 102.734 67.4266 102.429C67.1217 102.124 66.9505 101.711 66.9505 101.28C66.9505 100.849 67.1217 100.435 67.4266 100.131C67.7314 99.8257 68.1448 99.6545 68.5759 99.6545H73.032V99.3086L54.2825 99.3723C54.0315 99.373 53.7832 99.4241 53.5524 99.5226C53.3216 99.6211 53.1129 99.7649 52.9387 99.9456C52.7645 100.126 52.6284 100.34 52.5385 100.574C52.4486 100.809 52.4066 101.059 52.4151 101.31Z" fill="#E0E0E0"/>
<path d="M72.7431 101.327C72.7431 101.346 71.4487 101.363 69.853 101.363C68.2573 101.363 66.9629 101.346 66.9629 101.327C66.9629 101.308 68.2573 101.293 69.853 101.293C71.4487 101.293 72.7431 101.31 72.7431 101.327Z" fill="#E0E0E0"/>
<path d="M72.652 102.057C72.652 102.077 71.4277 102.091 69.9168 102.091C68.406 102.091 67.1816 102.077 67.1816 102.057C67.1816 102.038 68.406 102.023 69.9168 102.023C71.4277 102.023 72.652 102.038 72.652 102.057Z" fill="#E0E0E0"/>
<path d="M72.7439 102.729C72.7439 102.748 71.6426 102.763 70.2845 102.763C68.9265 102.763 67.8252 102.748 67.8252 102.729C67.8252 102.71 68.9265 102.695 70.2845 102.695C71.6426 102.695 72.7439 102.71 72.7439 102.729Z" fill="#E0E0E0"/>
<path d="M72.7434 100.667C72.7434 100.686 71.4702 100.701 69.9127 100.701C68.3552 100.701 67.082 100.686 67.082 100.667C67.082 100.648 68.3552 100.633 69.9127 100.633C71.4702 100.633 72.7434 100.648 72.7434 100.667Z" fill="#E0E0E0"/>
<path d="M72.6519 100.011C72.6519 100.03 71.5231 100.045 70.1332 100.045C68.7433 100.045 67.6123 100.03 67.6123 100.011C67.6123 99.9914 68.7412 99.9766 70.1332 99.9766C71.5252 99.9766 72.6519 99.9914 72.6519 100.011Z" fill="#E0E0E0"/>
<path d="M54.6891 99.4258C54.5433 99.5724 54.4097 99.7307 54.2897 99.899C54.0048 100.31 53.8549 100.799 53.8606 101.298C53.8663 101.798 54.0274 102.283 54.3216 102.687C54.4466 102.852 54.5836 103.007 54.7316 103.152C54.6833 103.124 54.6384 103.09 54.5977 103.052C54.4814 102.952 54.376 102.839 54.2833 102.717C53.9708 102.309 53.7989 101.812 53.7931 101.298C53.7874 100.785 53.9482 100.284 54.2515 99.8693C54.3407 99.7446 54.4433 99.6301 54.5574 99.5276C54.5966 99.4881 54.6409 99.4538 54.6891 99.4258Z" fill="#F5F5F5"/>
<path d="M54.0549 99.3594C53.911 99.5085 53.7775 99.6673 53.6555 99.8347C53.3717 100.245 53.2226 100.734 53.2287 101.233C53.2348 101.732 53.3958 102.217 53.6895 102.621C53.8137 102.786 53.9508 102.942 54.0995 103.086C54.0499 103.058 54.0042 103.025 53.9635 102.986C53.8472 102.885 53.7418 102.773 53.6491 102.651C53.3367 102.244 53.1645 101.747 53.1584 101.234C53.1522 100.722 53.3125 100.221 53.6151 99.8071C53.7044 99.6819 53.807 99.5666 53.921 99.4634C53.9614 99.4235 54.0063 99.3886 54.0549 99.3594Z" fill="#F5F5F5"/>
<path d="M66.7899 99.4258C66.646 99.5735 66.5133 99.7317 66.3927 99.899C66.1078 100.31 65.9579 100.799 65.9636 101.298C65.9693 101.798 66.1304 102.283 66.4246 102.687C66.5495 102.852 66.6866 103.007 66.8345 103.152C66.7854 103.124 66.7397 103.091 66.6986 103.052C66.583 102.952 66.4784 102.839 66.3863 102.717C66.0726 102.31 65.8991 101.813 65.8918 101.3C65.8846 100.786 66.0439 100.285 66.346 99.8693C66.4346 99.7441 66.5372 99.6295 66.6519 99.5276C66.6939 99.4885 66.7402 99.4544 66.7899 99.4258Z" fill="#F5F5F5"/>
<path d="M66.1584 99.3594C66.013 99.5071 65.8795 99.666 65.759 99.8347C65.474 100.245 65.324 100.734 65.3297 101.233C65.3354 101.732 65.4966 102.217 65.7909 102.621C65.9159 102.786 66.0529 102.941 66.2009 103.086C66.1527 103.057 66.1078 103.024 66.067 102.986C65.9502 102.886 65.8447 102.774 65.7526 102.651C65.4402 102.244 65.268 101.747 65.2619 101.234C65.2558 100.722 65.416 100.221 65.7187 99.8071C65.8079 99.6819 65.9105 99.5666 66.0246 99.4634C66.0643 99.4229 66.1093 99.3879 66.1584 99.3594Z" fill="#F5F5F5"/>
<path d="M56.8222 101.783L56.803 100.459C56.8098 100.344 56.7946 100.229 56.7584 100.119C56.7391 100.065 56.7055 100.016 56.661 99.9788C56.6166 99.9415 56.5629 99.9168 56.5056 99.9072C56.3399 99.8329 56.0808 99.9708 55.9661 100.162C55.8644 100.362 55.8196 100.587 55.8365 100.811C55.8322 101.16 55.8492 101.508 55.8875 101.855C55.8946 102.022 55.9366 102.185 56.0107 102.335C56.0437 102.412 56.1004 102.477 56.1726 102.52C56.2448 102.564 56.3288 102.583 56.4127 102.576C56.4966 102.568 56.576 102.535 56.6396 102.48C56.7032 102.425 56.7478 102.351 56.7669 102.269C56.8162 102.112 56.8349 101.947 56.8222 101.783Z" fill="#F5F5F5"/>
<path d="M64.1008 101.389C64.1008 101.409 62.7449 101.426 61.0749 101.426C59.4049 101.426 58.0469 101.409 58.0469 101.389C58.0469 101.37 59.4028 101.355 61.0749 101.355C62.747 101.355 64.1008 101.37 64.1008 101.389Z" fill="#F5F5F5"/>
<path d="M55.5642 99.298L55.5303 96.2148H57.2087L57.266 99.298H55.5642Z" fill="#F5F5F5"/>
<path d="M57.1112 96.761C56.8522 96.7964 56.5906 96.8085 56.3294 96.7971C56.069 96.8086 55.8081 96.7965 55.5498 96.761C55.8082 96.7269 56.0691 96.7155 56.3294 96.727C56.5905 96.7155 56.8521 96.7269 57.1112 96.761Z" fill="#E0E0E0"/>
<path d="M57.1112 97.2375C56.8521 97.2716 56.5905 97.283 56.3294 97.2715C56.0691 97.283 55.8082 97.2716 55.5498 97.2375C55.8082 97.2034 56.0691 97.1921 56.3294 97.2035C56.5905 97.1921 56.8521 97.2035 57.1112 97.2375Z" fill="#E0E0E0"/>
<path d="M57.1112 97.7141C56.8521 97.7481 56.5905 97.7595 56.3294 97.748C56.0691 97.7595 55.8082 97.7481 55.5498 97.7141C55.8082 97.68 56.0691 97.6686 56.3294 97.6801C56.5905 97.6687 56.8521 97.68 57.1112 97.7141Z" fill="#E0E0E0"/>
<path d="M57.1112 98.1906C56.8521 98.2247 56.5905 98.2361 56.3294 98.2246C56.0691 98.2361 55.8082 98.2247 55.5498 98.1906C55.8082 98.1566 56.0691 98.1452 56.3294 98.1567C56.5905 98.1452 56.8521 98.1566 57.1112 98.1906Z" fill="#E0E0E0"/>
<path d="M57.1112 98.6665C56.8522 98.702 56.5906 98.7141 56.3294 98.7026C56.069 98.7141 55.8081 98.702 55.5498 98.6665C55.8083 98.6337 56.0691 98.6223 56.3294 98.6325C56.5905 98.6224 56.852 98.6337 57.1112 98.6665Z" fill="#E0E0E0"/>
<path d="M55.4414 96.1328H74.0424C74.256 97.2337 74.256 98.3654 74.0424 99.4664H55.5242V99.2351H56.6573C56.7274 99.2351 56.7968 99.2212 56.8616 99.1943C56.9264 99.1674 56.9852 99.128 57.0346 99.0783C57.0841 99.0287 57.1233 98.9697 57.15 98.9048C57.1766 98.84 57.1902 98.7705 57.1899 98.7004V96.8564C57.1902 96.7863 57.1766 96.7168 57.15 96.6519C57.1233 96.5871 57.0841 96.5281 57.0346 96.4784C56.9852 96.4287 56.9264 96.3893 56.8616 96.3624C56.7968 96.3355 56.7274 96.3217 56.6573 96.3217H55.4457L55.4414 96.1328Z" fill="#EBEBEB"/>
<path d="M59.8381 97.8049H60.1482C60.1593 97.8017 60.1711 97.8017 60.1822 97.8049C60.1928 97.8101 60.2016 97.8184 60.2076 97.8285C60.2136 97.8387 60.2166 97.8504 60.2162 97.8622C60.2173 97.8692 60.2173 97.8764 60.2162 97.8835C60.2162 97.9089 60.2034 97.9344 60.1949 97.962C60.1577 98.0924 60.0909 98.2124 59.9995 98.3126C59.9676 98.3527 59.9278 98.3857 59.8824 98.4094C59.837 98.4332 59.7872 98.4473 59.7361 98.4506H59.6978C59.6533 98.4425 59.6112 98.4245 59.5744 98.398C59.5377 98.3716 59.5073 98.3373 59.4854 98.2977C59.4207 98.184 59.389 98.0545 59.3941 97.9238C59.3947 97.8334 59.4068 97.7435 59.4302 97.6561C59.4642 97.5242 59.5274 97.4015 59.615 97.2971C59.6479 97.2532 59.6901 97.2171 59.7385 97.1914C59.787 97.1657 59.8406 97.151 59.8954 97.1484C59.9358 97.1483 59.9756 97.157 60.0122 97.1739C60.1003 97.2231 60.1658 97.3046 60.1949 97.4012C60.1969 97.4118 60.1969 97.4226 60.1949 97.4331C60.1978 97.4435 60.1978 97.4545 60.1949 97.465C60.1893 97.4752 60.181 97.4838 60.1709 97.4898C60.1608 97.4957 60.1493 97.4989 60.1376 97.4989C60.1307 97.5012 60.1232 97.5012 60.1163 97.4989C60.1065 97.4963 60.0974 97.4912 60.09 97.4841C60.0826 97.4771 60.077 97.4683 60.0739 97.4586C60.0645 97.4322 60.0517 97.4072 60.0356 97.3842C60.0202 97.3583 59.9985 97.3368 59.9725 97.3215C59.9465 97.3063 59.917 97.2979 59.8869 97.2971C59.8498 97.2974 59.8139 97.3101 59.7849 97.3333C59.7069 97.3975 59.6481 97.4821 59.615 97.5775C59.5681 97.6885 59.5436 97.8076 59.5428 97.9281C59.5397 98.0229 59.5578 98.1173 59.5959 98.2042C59.6074 98.2383 59.629 98.2682 59.6578 98.2898C59.6867 98.3114 59.7213 98.3238 59.7573 98.3253C59.7875 98.3218 59.8166 98.3118 59.8427 98.296C59.8687 98.2803 59.891 98.2591 59.9082 98.234C59.9794 98.1496 60.0335 98.0522 60.0675 97.9472C59.9252 97.9472 59.855 97.9472 59.8444 97.9472C59.8247 97.9472 59.8058 97.9393 59.7919 97.9254C59.7779 97.9115 59.7701 97.8926 59.7701 97.8728V97.8495C59.7759 97.8362 59.7854 97.825 59.7974 97.817C59.8095 97.8091 59.8236 97.8049 59.8381 97.8049Z" fill="#FAFAFA"/>
<path d="M60.8952 97.1943C60.8952 97.1943 60.8952 97.2091 60.8952 97.2176C60.908 97.2615 60.9788 97.646 61.1077 98.3711C61.1087 98.3767 61.1087 98.3825 61.1077 98.3881C61.1105 98.3993 61.1105 98.411 61.1077 98.4221C61.1027 98.4325 61.0949 98.4413 61.0851 98.4473C61.0753 98.4533 61.0639 98.4564 61.0524 98.4561H61.0418C61.0297 98.454 61.0185 98.4485 61.0094 98.4403C61.0004 98.432 60.9939 98.4212 60.9908 98.4094L60.9165 98.0249H60.5341L60.3493 98.4115C60.3507 98.4156 60.3507 98.4201 60.3493 98.4242C60.3429 98.4337 60.3344 98.4415 60.3244 98.4471C60.3145 98.4526 60.3033 98.4557 60.2919 98.4561C60.2792 98.4558 60.2667 98.4521 60.2558 98.4455C60.2466 98.439 60.2391 98.4304 60.2339 98.4204C60.2288 98.4104 60.2261 98.3994 60.2261 98.3881C60.2241 98.3819 60.2241 98.3752 60.2261 98.369C60.2367 98.3414 60.2558 98.301 60.2834 98.2437C60.5511 97.6574 60.7083 97.3132 60.7635 97.207C60.7687 97.194 60.7774 97.1827 60.7887 97.1745C60.7999 97.1662 60.8133 97.1613 60.8273 97.1603C60.8406 97.1595 60.8538 97.1623 60.8658 97.1682C60.8777 97.1742 60.8878 97.1832 60.8952 97.1943ZM60.8124 97.4534L60.6 97.8889H60.8931L60.8124 97.4534Z" fill="#FAFAFA"/>
<path d="M61.9335 98.4555H61.3727C61.3599 98.4552 61.3474 98.4516 61.3366 98.4449C61.3269 98.4359 61.3191 98.4251 61.3136 98.413C61.3081 98.401 61.3051 98.388 61.3047 98.3748C61.3047 98.3536 61.3557 97.969 61.4598 97.2277C61.4587 97.2192 61.4587 97.2106 61.4598 97.2022C61.4643 97.1897 61.4728 97.179 61.4839 97.1718C61.495 97.1645 61.5081 97.161 61.5214 97.1618C61.5312 97.1596 61.5413 97.1596 61.5511 97.1618C61.5622 97.1671 61.5716 97.1756 61.578 97.1862C61.5844 97.1967 61.5876 97.2089 61.5872 97.2213L61.5511 97.5357C61.4874 98.0271 61.4534 98.2863 61.4491 98.3132H61.9271C61.939 98.311 61.9513 98.311 61.9632 98.3132C61.9761 98.3181 61.9871 98.3268 61.9947 98.3382C62.0023 98.3497 62.0061 98.3632 62.0057 98.3769C62.0067 98.384 62.0067 98.3911 62.0057 98.3982C62.0015 98.4143 61.9922 98.4286 61.9792 98.4389C61.9662 98.4493 61.9501 98.4551 61.9335 98.4555Z" fill="#FAFAFA"/>
<path d="M62.6988 97.1941C62.6988 97.1941 62.6988 97.209 62.6988 97.2175C62.7115 97.2621 62.7859 97.6424 62.9112 98.371C62.9122 98.3766 62.9122 98.3824 62.9112 98.388C62.9107 98.4001 62.907 98.4118 62.9006 98.422C62.8957 98.4324 62.8878 98.4411 62.878 98.4472C62.8682 98.4532 62.8569 98.4563 62.8454 98.456H62.8348C62.8229 98.4535 62.8118 98.4478 62.8029 98.4396C62.7939 98.4314 62.7873 98.4209 62.7838 98.4092L62.7392 98.0247H62.3568L62.172 98.4114C62.1729 98.4156 62.1729 98.4199 62.172 98.4241C62.1649 98.4334 62.156 98.4411 62.1457 98.4466C62.1355 98.4521 62.1241 98.4553 62.1125 98.456C62.0998 98.4554 62.0874 98.4518 62.0764 98.4453C62.0672 98.4389 62.0597 98.4303 62.0545 98.4203C62.0493 98.4103 62.0466 98.3992 62.0466 98.388C62.0456 98.3817 62.0456 98.3752 62.0466 98.3689C62.0573 98.3413 62.0764 98.3009 62.104 98.2435C62.3717 97.6572 62.5289 97.3131 62.5841 97.2069C62.5892 97.1939 62.598 97.1826 62.6092 97.1744C62.6205 97.1661 62.6339 97.1612 62.6478 97.1602C62.6582 97.162 62.6681 97.166 62.6769 97.1718C62.6856 97.1777 62.6931 97.1853 62.6988 97.1941ZM62.616 97.4533L62.4035 97.8888H62.6967L62.616 97.4533Z" fill="#FAFAFA"/>
<path d="M63.5884 97.8562L63.6904 98.1366C63.7478 98.2981 63.7775 98.3809 63.7775 98.3894C63.7808 98.4005 63.7808 98.4123 63.7775 98.4234C63.7714 98.4331 63.763 98.4412 63.7529 98.4467C63.7429 98.4523 63.7316 98.4553 63.7201 98.4553C63.6947 98.4553 63.6777 98.4404 63.6649 98.4107C63.6522 98.3809 63.6649 98.3894 63.6543 98.3809C63.6246 98.3108 63.5736 98.1685 63.5035 97.9858L63.1869 98.4107C63.1806 98.421 63.1719 98.4296 63.1616 98.4359C63.1512 98.4422 63.1395 98.4459 63.1275 98.4468C63.1162 98.449 63.1047 98.449 63.0935 98.4468C63.0833 98.4412 63.0749 98.4329 63.0693 98.4227C63.0636 98.4126 63.061 98.401 63.0616 98.3894V98.3852C63.0689 98.3646 63.0805 98.3458 63.0956 98.33C63.2018 98.1919 63.308 98.0283 63.4482 97.8392C63.4355 97.801 63.4227 97.767 63.41 97.733C63.291 97.4123 63.2294 97.2466 63.2294 97.2359C63.2275 97.2247 63.2275 97.2132 63.2294 97.202C63.2348 97.1919 63.2427 97.1834 63.2524 97.1774C63.2621 97.1714 63.2733 97.1682 63.2847 97.168C63.2974 97.1681 63.3099 97.1718 63.3208 97.1785C63.3317 97.1852 63.3405 97.1948 63.3463 97.2062L63.5353 97.7118L63.9092 97.202C63.9156 97.1921 63.9245 97.184 63.9349 97.1784C63.9453 97.1728 63.9569 97.17 63.9687 97.1701C63.9785 97.1679 63.9886 97.1679 63.9984 97.1701C64.0093 97.1755 64.0184 97.1841 64.0245 97.1947C64.0305 97.2053 64.0333 97.2174 64.0324 97.2296C64.0353 97.24 64.0353 97.251 64.0324 97.2614L63.5884 97.8562Z" fill="#FAFAFA"/>
<path d="M64.9807 97.164C64.9905 97.1619 65.0007 97.1619 65.0105 97.164C65.0214 97.169 65.0307 97.1771 65.0371 97.1872C65.0435 97.1974 65.0468 97.2093 65.0466 97.2213C64.9552 97.947 64.9042 98.3374 64.8957 98.3969C64.8798 98.5068 64.8384 98.6114 64.7747 98.7024C64.7142 98.7874 64.6251 98.8479 64.5238 98.8728C64.4224 98.8978 64.3154 98.8855 64.2223 98.8382C64.1389 98.8039 64.0693 98.7427 64.0248 98.6642C64.0229 98.6537 64.0229 98.6429 64.0248 98.6324C64.0217 98.6213 64.0217 98.6096 64.0248 98.5984C64.0301 98.5879 64.0383 98.5791 64.0485 98.5731C64.0586 98.567 64.0703 98.5641 64.0821 98.5645C64.0921 98.5652 64.1018 98.568 64.1106 98.5728C64.1194 98.5775 64.1271 98.5841 64.1331 98.5921C64.1643 98.6403 64.2067 98.6802 64.2566 98.7087C64.3065 98.7371 64.3625 98.7531 64.4199 98.7555C64.4614 98.7535 64.502 98.7424 64.5387 98.7229C64.5754 98.7035 64.6074 98.6762 64.6323 98.643C64.7088 98.5411 64.7518 98.4181 64.7555 98.2908C64.7342 98.3252 64.706 98.3548 64.6727 98.3778C64.6152 98.421 64.545 98.4442 64.473 98.4435H64.4348C64.3901 98.4357 64.3479 98.4178 64.3111 98.3914C64.2743 98.3649 64.244 98.3305 64.2223 98.2908C64.156 98.1778 64.1235 98.0482 64.1289 97.9173C64.1289 97.8494 64.1289 97.7794 64.1289 97.7051C64.1388 97.5905 64.1643 97.4292 64.2053 97.2213C64.2035 97.2151 64.2035 97.2084 64.2053 97.2022C64.2086 97.1889 64.2163 97.1771 64.2271 97.1687C64.2378 97.1602 64.2511 97.1556 64.2648 97.1555C64.2762 97.1561 64.2872 97.1598 64.2967 97.1661C64.3069 97.1707 64.3156 97.1781 64.3216 97.1876C64.3277 97.197 64.3308 97.208 64.3307 97.2192C64.3247 97.3046 64.314 97.3896 64.2988 97.4738C64.2769 97.6037 64.2627 97.7348 64.2563 97.8664C64.2522 97.9698 64.2688 98.0729 64.3052 98.1698C64.3434 98.2611 64.3986 98.3056 64.4709 98.3056H64.4942C64.5648 98.2833 64.6246 98.2357 64.6621 98.1719C64.7292 98.0794 64.7762 97.9739 64.8001 97.8621L64.8851 97.2255C64.8839 97.2164 64.8839 97.2071 64.8851 97.198C64.8877 97.1883 64.8926 97.1795 64.8994 97.1721C64.9061 97.1648 64.9146 97.1592 64.924 97.1559C64.9334 97.1526 64.9435 97.1516 64.9534 97.153C64.9632 97.1544 64.9726 97.1582 64.9807 97.164Z" fill="#FAFAFA"/>
<path d="M73.3486 99.5083C73.3295 99.5083 73.3125 98.7444 73.3125 97.8001C73.3125 96.8559 73.3295 96.0898 73.3486 96.0898C73.3677 96.0898 73.3826 96.8559 73.3826 97.8001C73.3826 98.7444 73.3635 99.5083 73.3486 99.5083Z" fill="#F5F5F5"/>
<path d="M58.1209 99.5083C58.1018 99.5083 58.0869 98.7444 58.0869 97.8001C58.0869 96.8559 58.1018 96.0898 58.1209 96.0898C58.14 96.0898 58.1549 96.8559 58.1549 97.8001C58.1549 98.7444 58.14 99.5083 58.1209 99.5083Z" fill="#E0E0E0"/>
<path d="M73.6688 99.5083C73.6518 99.5083 73.6348 98.7444 73.6348 97.8001C73.6348 96.8559 73.6518 96.0898 73.6688 96.0898C73.6857 96.0898 73.7049 96.8559 73.7049 97.8001C73.7049 98.7444 73.6879 99.5083 73.6688 99.5083Z" fill="#F5F5F5"/>
<path d="M57.8174 99.5083C57.7982 99.5083 57.7812 98.7444 57.7812 97.8001C57.7812 96.8559 57.7982 96.0898 57.8174 96.0898C57.8365 96.0898 57.8513 96.8559 57.8513 97.8001C57.8513 98.7444 57.8344 99.5083 57.8174 99.5083Z" fill="#E0E0E0"/>
<path d="M68.8331 96.6523L70.7981 98.2374L70.815 98.2523H70.7938L70.5328 98.3223L68.8735 98.7573L67.369 98.1207L66.9446 97.9383L66.8321 97.8895L66.8046 97.8767H66.7939H66.8046L66.8343 97.8895L66.9467 97.934L67.3711 98.1123L68.8777 98.7488L70.5371 98.3117L70.8002 98.2417V98.2608L68.8374 96.6714" fill="#E0E0E0"/>
<path d="M70.6169 97.9883L70.7253 98.0881L70.8697 98.0584L70.806 98.1901L70.8804 98.3176L70.7338 98.3006L70.6361 98.4089L70.6084 98.2644L70.4746 98.205L70.6021 98.1349L70.6169 97.9883Z" fill="#E0E0E0"/>
<path d="M68.7336 98.6133L68.806 98.675L68.8998 98.6495L68.8636 98.7389L68.9168 98.8177L68.821 98.8114L68.7613 98.8859L68.7379 98.7943L68.6484 98.7602L68.7294 98.7091L68.7336 98.6133Z" fill="#E0E0E0"/>
<path d="M66.6494 97.7571L66.7666 97.7635L66.839 97.6719L66.8688 97.7848L66.9796 97.8252L66.8794 97.887L66.8752 98.0063L66.7836 97.9317L66.6728 97.9637L66.7154 97.8529L66.6494 97.7571Z" fill="#E0E0E0"/>
<path d="M71.5 96.6789L71.6171 96.6875L71.6896 96.5938L71.7194 96.7088L71.828 96.7492L71.73 96.811L71.7258 96.9281L71.6342 96.8536L71.5213 96.8855L71.566 96.7769L71.5 96.6789Z" fill="#E0E0E0"/>
<path d="M68.7373 96.6001L68.8118 96.6044L68.8587 96.5469L68.8779 96.6193L68.9481 96.6449L68.8843 96.6853L68.8821 96.7599L68.8246 96.7109L68.7522 96.7322L68.7799 96.6619L68.7373 96.6001Z" fill="#E0E0E0"/>
<path d="M71.6634 96.7617C71.6634 96.7617 71.0268 96.7468 70.2438 96.7149C69.4608 96.6831 68.8242 96.647 68.8242 96.6385C68.8242 96.63 69.4608 96.6533 70.2438 96.6873C71.0268 96.7213 71.6634 96.7532 71.6634 96.7617Z" fill="#E0E0E0"/>
<path d="M72.3783 96.1071H53.512C53.2659 95.5463 53.2044 95.0131 53.512 94.5352H72.3783C72.4953 94.7806 72.5561 95.0492 72.5561 95.3211C72.5561 95.5931 72.4953 95.8617 72.3783 96.1071Z" fill="#E0E0E0"/>
<path d="M67.6404 94.9805H57.4189V95.5519H67.6404V94.9805Z" fill="#EBEBEB"/>
<path d="M54.2363 96.1143C54.174 96.0617 54.1233 95.9966 54.0876 95.9232C53.9914 95.7516 53.9327 95.5616 53.9155 95.3656C53.8983 95.1697 53.9229 94.9723 53.9878 94.7867C54.0089 94.7078 54.0482 94.6351 54.1025 94.5742C54.0839 94.6518 54.0612 94.7284 54.0345 94.8036C53.9852 94.9855 53.9679 95.1746 53.9836 95.3623C54.0021 95.5498 54.0516 95.7328 54.1301 95.904C54.1718 95.9708 54.2073 96.0412 54.2363 96.1143Z" fill="#E0E0E0"/>
<path d="M54.6454 96.1143C54.5816 96.0631 54.5306 95.9976 54.4967 95.9232C54.3992 95.7524 54.3397 95.5625 54.3225 95.3666C54.3057 95.1703 54.3303 94.9728 54.3947 94.7867C54.4178 94.7086 54.4569 94.6363 54.5094 94.5742C54.4921 94.6522 54.4693 94.7288 54.4414 94.8036C54.3929 94.9856 54.3763 95.1747 54.3926 95.3623C54.409 95.5502 54.4586 95.7336 54.5392 95.904C54.5787 95.972 54.6142 96.0422 54.6454 96.1143Z" fill="#E0E0E0"/>
<path d="M71.6143 96.077C71.6897 95.8278 71.7347 95.5703 71.7481 95.3102C71.737 95.0491 71.695 94.7902 71.6228 94.5391C71.7615 94.7715 71.8287 95.0397 71.8161 95.3102C71.8269 95.5802 71.7566 95.8473 71.6143 96.077Z" fill="#F5F5F5"/>
<path d="M71.2646 96.0725C71.2434 96.0725 71.322 95.7348 71.3199 95.3184C71.3177 94.902 71.2413 94.5707 71.2625 94.5664C71.431 95.0543 71.431 95.5846 71.2625 96.0725H71.2646Z" fill="#F5F5F5"/>
<path d="M83.1629 81.5572L56.6534 81.5402C55.8954 81.5399 55.1449 81.3904 54.4448 81.1C53.7447 80.8097 53.1085 80.3844 52.5728 79.8482C52.037 79.3121 51.6121 78.6756 51.3223 77.9753C51.0325 77.2749 50.8835 76.5243 50.8838 75.7664L50.8965 9.30899C50.8968 8.55048 51.0465 7.79945 51.337 7.09879C51.6275 6.39812 52.0532 5.76154 52.5898 5.22539C53.1263 4.68924 53.7632 4.26402 54.4641 3.97401C55.1649 3.684 55.9161 3.53488 56.6746 3.53516L83.182 3.55213C84.7128 3.55326 86.1805 4.162 87.2627 5.24462C88.345 6.32724 88.9532 7.79519 88.9537 9.32596L88.9389 75.7833C88.9389 76.5418 88.7894 77.2927 88.4992 77.9934C88.2089 78.694 87.7834 79.3306 87.247 79.8668C86.7106 80.403 86.0739 80.8282 85.3731 81.1183C84.6724 81.4083 83.9213 81.5575 83.1629 81.5572Z" fill="#263238"/>
<path d="M83.0947 5.9229H77.9554C77.7876 5.9262 77.6222 5.96263 77.4686 6.03009C77.3149 6.09755 77.1762 6.19471 77.0602 6.31598C76.9443 6.43726 76.8534 6.58025 76.7929 6.73675C76.7324 6.89325 76.7034 7.06016 76.7077 7.2279V8.15943C76.7116 8.32717 76.6824 8.49402 76.6216 8.65041C76.5609 8.8068 76.4698 8.94964 76.3536 9.07072C76.2375 9.19179 76.0986 9.28872 75.9448 9.35592C75.7911 9.42313 75.6256 9.45928 75.4578 9.46231H65.4401C65.2724 9.45901 65.1069 9.42258 64.9533 9.35512C64.7997 9.28766 64.6609 9.1905 64.5449 9.06923C64.429 8.94795 64.3381 8.80496 64.2776 8.64846C64.2171 8.49196 64.1882 8.32504 64.1924 8.15731V7.22365C64.1978 7.05574 64.1699 6.88843 64.1103 6.73136C64.0507 6.57428 63.9606 6.43056 63.8452 6.30846C63.7298 6.18636 63.5914 6.08831 63.4379 6.01995C63.2845 5.95159 63.119 5.91428 62.9511 5.91017H61.1432H56.6467C56.1153 5.90905 55.5888 6.0127 55.0974 6.21519C54.606 6.41767 54.1593 6.71503 53.7829 7.09025C53.4065 7.46547 53.1077 7.9112 52.9037 8.40196C52.6997 8.89272 52.5944 9.41888 52.5938 9.95036L52.5811 74.8184C52.5794 75.3489 52.6824 75.8746 52.8843 76.3652C53.0862 76.8558 53.3829 77.3018 53.7574 77.6775C54.132 78.0532 54.577 78.3513 55.067 78.5547C55.5569 78.7581 56.0823 78.8628 56.6128 78.8628L83.0693 78.8777C83.6004 78.878 84.1264 78.7736 84.6172 78.5706C85.108 78.3677 85.554 78.07 85.9298 77.6946C86.3055 77.3193 86.6037 76.8736 86.8072 76.383C87.0107 75.8924 87.1156 75.3665 87.1159 74.8354L87.1413 9.96734C87.1413 9.43603 87.0366 8.90994 86.8332 8.41911C86.6299 7.92827 86.3318 7.48232 85.956 7.10674C85.5802 6.73115 85.1341 6.43328 84.6431 6.23015C84.1522 6.02703 83.6261 5.92262 83.0947 5.9229Z" fill="white"/>
<path d="M87.4322 16.2271C87.4322 16.2568 79.6213 16.2823 69.9898 16.2823C60.3582 16.2823 52.5537 16.2505 52.5537 16.2271C52.5537 16.2037 60.3625 16.1719 70.0004 16.1719C79.6383 16.1719 87.4322 16.1952 87.4322 16.2271Z" fill="#263238"/>
<path d="M56.1945 13.8229C56.1688 13.8232 56.1439 13.8141 56.1244 13.7974L55.1153 12.9126C55.1034 12.9029 55.0939 12.8906 55.0876 12.8766C55.0813 12.8626 55.0785 12.8473 55.0792 12.832C55.079 12.8165 55.0824 12.8012 55.089 12.7872C55.0957 12.7733 55.1054 12.761 55.1175 12.7513L56.1265 11.9025C56.1483 11.885 56.1761 11.8767 56.2039 11.8794C56.2318 11.8822 56.2574 11.8959 56.2752 11.9174C56.2842 11.928 56.291 11.9404 56.2951 11.9537C56.2992 11.967 56.3006 11.981 56.2992 11.9948C56.2979 12.0087 56.2937 12.0221 56.287 12.0343C56.2803 12.0465 56.2713 12.0573 56.2603 12.0659L55.349 12.8256L56.2625 13.6277C56.2731 13.6366 56.2818 13.6476 56.2881 13.66C56.2944 13.6724 56.2981 13.6859 56.2991 13.6997C56.3001 13.7136 56.2983 13.7275 56.2939 13.7406C56.2894 13.7537 56.2823 13.7659 56.2731 13.7762C56.2645 13.7896 56.253 13.8008 56.2393 13.8089C56.2257 13.817 56.2103 13.8218 56.1945 13.8229Z" fill="#263238"/>
<path d="M78.1874 12.7779C78.1874 12.8098 74.9048 12.8331 70.854 12.8331C66.8032 12.8331 63.5205 12.8098 63.5205 12.7779C63.5205 12.746 66.8032 12.7227 70.854 12.7227C74.9048 12.7227 78.1874 12.7481 78.1874 12.7779Z" fill="#263238"/>
<path d="M82.4357 12.7691C82.4357 12.8447 82.4132 12.9186 82.3712 12.9815C82.3292 13.0444 82.2695 13.0934 82.1996 13.1224C82.1297 13.1513 82.0529 13.1589 81.9787 13.1441C81.9045 13.1294 81.8364 13.0929 81.7829 13.0395C81.7294 12.986 81.693 12.9179 81.6782 12.8437C81.6635 12.7695 81.6711 12.6926 81.7 12.6228C81.7289 12.5529 81.778 12.4932 81.8408 12.4512C81.9037 12.4091 81.9776 12.3867 82.0533 12.3867C82.1547 12.3867 82.252 12.427 82.3237 12.4987C82.3954 12.5704 82.4357 12.6677 82.4357 12.7691Z" fill="#263238"/>
<path d="M83.5352 12.7691C83.5352 12.8448 83.5128 12.9188 83.4707 12.9818C83.4285 13.0447 83.3687 13.0937 83.2987 13.1226C83.2287 13.1514 83.1517 13.1589 83.0775 13.144C83.0033 13.129 82.9351 13.0924 82.8818 13.0387C82.8284 12.985 82.7921 12.9167 82.7776 12.8424C82.7631 12.7681 82.771 12.6911 82.8002 12.6213C82.8295 12.5515 82.8788 12.4919 82.942 12.4501C83.0052 12.4084 83.0793 12.3863 83.155 12.3867C83.2051 12.3867 83.2547 12.3966 83.301 12.4159C83.3473 12.4351 83.3893 12.4633 83.4246 12.4988C83.46 12.5344 83.4879 12.5766 83.5069 12.6229C83.5259 12.6693 83.5355 12.719 83.5352 12.7691Z" fill="#263238"/>
<path d="M84.6368 12.7691C84.6368 12.8447 84.6144 12.9186 84.5724 12.9815C84.5304 13.0444 84.4706 13.0934 84.4008 13.1224C84.3309 13.1513 84.254 13.1589 84.1799 13.1441C84.1057 13.1294 84.0375 13.0929 83.9841 13.0395C83.9306 12.986 83.8942 12.9179 83.8794 12.8437C83.8647 12.7695 83.8722 12.6926 83.9012 12.6228C83.9301 12.5529 83.9791 12.4932 84.042 12.4512C84.1049 12.4091 84.1788 12.3867 84.2544 12.3867C84.3559 12.3867 84.4531 12.427 84.5248 12.4987C84.5965 12.5704 84.6368 12.6677 84.6368 12.7691Z" fill="#263238"/>
<path d="M66.6814 30.4779C66.6814 30.7243 66.5794 30.873 66.4095 30.873C66.3694 30.8769 66.3293 30.8664 66.2962 30.8435C66.2631 30.8205 66.2393 30.7866 66.2289 30.7477C66.2005 30.7889 66.1619 30.8221 66.1168 30.8441C66.0718 30.866 66.0219 30.876 65.9718 30.873C65.8806 30.866 65.7953 30.8248 65.7331 30.7577C65.6709 30.6905 65.6363 30.6023 65.6363 30.5108C65.6363 30.4193 65.6709 30.3311 65.7331 30.2639C65.7953 30.1968 65.8806 30.1556 65.9718 30.1486C66.0167 30.1463 66.0614 30.1542 66.1027 30.1719C66.1439 30.1896 66.1806 30.2165 66.2098 30.2506V30.1571H66.367V30.6414C66.367 30.7137 66.401 30.7392 66.4413 30.7392C66.5178 30.7392 66.5603 30.6478 66.5603 30.48C66.5615 30.4097 66.5478 30.3399 66.5203 30.2753C66.4928 30.2106 66.4519 30.1524 66.4004 30.1045C66.3489 30.0566 66.288 30.0201 66.2214 29.9973C66.1549 29.9746 66.0844 29.966 66.0143 29.9723C65.9406 29.9657 65.8663 29.9745 65.7962 29.9982C65.726 30.0219 65.6616 30.0599 65.607 30.1099C65.5523 30.1598 65.5087 30.2206 65.4788 30.2884C65.449 30.3561 65.4336 30.4293 65.4336 30.5034C65.4336 30.5774 65.449 30.6506 65.4788 30.7184C65.5087 30.7861 65.5523 30.8469 65.607 30.8968C65.6616 30.9468 65.726 30.9848 65.7962 31.0085C65.8663 31.0322 65.9406 31.041 66.0143 31.0344C66.1101 31.0349 66.2046 31.0131 66.2905 30.9707L66.3287 31.0854C66.2302 31.1306 66.1227 31.1531 66.0143 31.1513C65.926 31.1563 65.8375 31.1433 65.7544 31.113C65.6713 31.0826 65.5952 31.0357 65.5309 30.9749C65.4665 30.9141 65.4153 30.8409 65.3802 30.7596C65.3452 30.6784 65.3271 30.5908 65.3271 30.5023C65.3271 30.4138 65.3452 30.3263 65.3802 30.245C65.4153 30.1637 65.4665 30.0905 65.5309 30.0297C65.5952 29.9689 65.6713 29.922 65.7544 29.8916C65.8375 29.8613 65.926 29.8483 66.0143 29.8533C66.1 29.8469 66.1861 29.8582 66.2671 29.8868C66.3481 29.9153 66.4224 29.9603 66.4851 30.0191C66.5478 30.0778 66.5976 30.1489 66.6314 30.2279C66.6652 30.3068 66.6822 30.392 66.6814 30.4779ZM66.2119 30.5097C66.2094 30.4684 66.1949 30.4286 66.1701 30.3954C66.1453 30.3622 66.1113 30.3369 66.0723 30.3228C66.0333 30.3087 65.9911 30.3062 65.9508 30.3158C65.9104 30.3254 65.8738 30.3466 65.8453 30.3767C65.8169 30.4069 65.7979 30.4447 65.7907 30.4855C65.7834 30.5263 65.7883 30.5684 65.8047 30.6065C65.8211 30.6445 65.8483 30.677 65.8829 30.6998C65.9175 30.7226 65.958 30.7348 65.9995 30.7349C66.0285 30.735 66.0572 30.7291 66.0838 30.7176C66.1105 30.7062 66.1345 30.6894 66.1544 30.6683C66.1743 30.6472 66.1896 30.6222 66.1995 30.595C66.2094 30.5677 66.2136 30.5387 66.2119 30.5097Z" fill="#263238"/>
<path d="M74.6988 30.8659C74.6988 30.8957 73.1625 30.9212 71.2697 30.9212C69.3769 30.9212 67.8428 30.8957 67.8428 30.8659C67.8428 30.8362 69.3769 30.8086 71.2697 30.8086C73.1625 30.8086 74.6988 30.8341 74.6988 30.8659Z" fill="#263238"/>
<path d="M61.1421 40.563C60.8292 40.6367 60.5034 40.6367 60.1904 40.563C60.5034 40.4894 60.8292 40.4894 61.1421 40.563Z" fill="#263238"/>
<path d="M63.3761 42.8638C63.3761 42.8936 62.2303 42.9191 60.8149 42.9191C59.3996 42.9191 58.2559 42.8936 58.2559 42.8638C58.2559 42.8341 59.4017 42.8086 60.8149 42.8086C62.2282 42.8086 63.3761 42.8341 63.3761 42.8638Z" fill="#263238"/>
<path d="M71.4396 40.5619C70.9566 40.6178 70.4699 40.6362 69.984 40.6171C69.4981 40.6362 69.0114 40.6178 68.5283 40.5619C69.0115 40.5072 69.4981 40.4887 69.984 40.5066C70.4699 40.4887 70.9565 40.5072 71.4396 40.5619Z" fill="#263238"/>
<path d="M72.301 42.7427C72.301 42.7725 71.1275 42.798 69.6803 42.798C68.2332 42.798 67.0576 42.7725 67.0576 42.7427C67.0576 42.713 68.2311 42.6875 69.6803 42.6875C71.1296 42.6875 72.301 42.713 72.301 42.7427Z" fill="#263238"/>
<path d="M80.9451 40.5938C80.2924 40.6485 79.6371 40.667 78.9823 40.6491C78.3276 40.667 77.6723 40.6485 77.0195 40.5938C77.6722 40.5378 78.3276 40.5194 78.9823 40.5386C79.6371 40.5194 80.2925 40.5378 80.9451 40.5938Z" fill="#263238"/>
<path d="M81.6796 42.8326C81.6796 42.8644 80.5486 42.8878 79.1524 42.8878C77.7562 42.8878 76.623 42.8644 76.623 42.8326C76.623 42.8007 77.754 42.7773 79.1524 42.7773C80.5508 42.7773 81.6796 42.8028 81.6796 42.8326Z" fill="#263238"/>
<path d="M74.3485 45.0078H59.9659C59.6671 45.0078 59.4248 45.2501 59.4248 45.5489V48.9122C59.4248 49.211 59.6671 49.4533 59.9659 49.4533H74.3485C74.6473 49.4533 74.8896 49.211 74.8896 48.9122V45.5489C74.8896 45.2501 74.6473 45.0078 74.3485 45.0078Z" fill="#008CE6"/>
<path d="M71.966 47.3052C71.966 47.335 69.9756 47.3605 67.5205 47.3605C65.0655 47.3605 63.0645 47.335 63.0645 47.3052C63.0645 47.2755 65.0548 47.25 67.5205 47.25C69.9863 47.25 71.966 47.2734 71.966 47.3052Z" fill="white"/>
<path d="M80.0839 44.9258H76.6718C76.3941 44.9258 76.1689 45.1509 76.1689 45.4287V48.9787C76.1689 49.2564 76.3941 49.4816 76.6718 49.4816H80.0839C80.3617 49.4816 80.5868 49.2564 80.5868 48.9787V45.4287C80.5868 45.1509 80.3617 44.9258 80.0839 44.9258Z" fill="#EBEBEB"/>
<path d="M77.9004 46.9727H78.8542L78.4187 47.6418L77.9004 46.9727Z" fill="#263238"/>
<path d="M74.8895 52.7623C74.8895 52.7941 72.4301 52.8175 69.3979 52.8175C66.3656 52.8175 63.9062 52.7941 63.9062 52.7623C63.9062 52.7304 66.3656 52.707 69.3979 52.707C72.4301 52.707 74.8895 52.7325 74.8895 52.7623Z" fill="#E0E0E0"/>
<path d="M78.0848 54.8287C78.0848 54.8584 74.4775 54.8839 70.0214 54.8839C65.5653 54.8839 61.958 54.8584 61.958 54.8287C61.958 54.7989 65.5653 54.7734 70.0214 54.7734C74.4775 54.7734 78.0848 54.7989 78.0848 54.8287Z" fill="#E0E0E0"/>
<path d="M87.3536 58.4146C87.3536 58.4465 79.6191 58.472 70.0767 58.472C60.5343 58.472 52.7998 58.4465 52.7998 58.4146C52.7998 58.3827 60.5343 58.3594 70.0767 58.3594C79.6191 58.3594 87.3536 58.3849 87.3536 58.4146Z" fill="#263238"/>
<path d="M70.4212 62.4381C70.3665 61.7875 70.3481 61.1343 70.366 60.4817C70.3481 59.8297 70.3665 59.1773 70.4212 58.5273C70.4772 59.1772 70.4957 59.8297 70.4765 60.4817C70.4956 61.1343 70.4772 61.7875 70.4212 62.4381Z" fill="#263238"/>
<path d="M68.275 33.7617L67.2819 36.0407H66.8575L65.8623 33.7617H66.3206L67.0782 35.5187L67.8442 33.7617H68.275Z" fill="#008CE6"/>
<path d="M69.9749 35.3045H68.6105C68.6356 35.4324 68.7072 35.5465 68.8114 35.6249C68.9156 35.7032 69.045 35.7403 69.1749 35.7289C69.2623 35.7325 69.3495 35.7175 69.4307 35.6849C69.5119 35.6524 69.5852 35.603 69.646 35.5401L69.8582 35.7905C69.7695 35.8862 69.6607 35.9612 69.5397 36.01C69.4186 36.0588 69.2882 36.0802 69.1579 36.0727C68.5765 36.0727 68.1988 35.6992 68.1988 35.1815C68.1945 35.062 68.2151 34.943 68.2593 34.8319C68.3036 34.7208 68.3704 34.6202 68.4556 34.5364C68.5408 34.4526 68.6426 34.3874 68.7544 34.345C68.8661 34.3026 68.9855 34.284 69.1049 34.2902C69.223 34.2859 69.3408 34.3063 69.4506 34.3501C69.5605 34.394 69.6599 34.4603 69.7426 34.5448C69.8253 34.6293 69.8895 34.7301 69.9309 34.8409C69.9724 34.9516 69.9902 35.0698 69.9834 35.1878C69.9812 35.2154 69.977 35.2642 69.9749 35.3045ZM68.6083 35.0329H69.5929C69.5811 34.9129 69.5237 34.8019 69.4325 34.723C69.3413 34.644 69.2233 34.6031 69.1028 34.6085C68.982 34.604 68.8641 34.6452 68.7724 34.7239C68.6807 34.8026 68.6221 34.9129 68.6083 35.0329Z" fill="#008CE6"/>
<path d="M71.3785 34.2878V34.6739C71.3477 34.6676 71.3164 34.6641 71.285 34.6633C71.2144 34.6579 71.1435 34.6684 71.0775 34.6939C71.0115 34.7194 70.9521 34.7594 70.9036 34.8109C70.8551 34.8624 70.8188 34.9241 70.7973 34.9915C70.7758 35.0588 70.7697 35.1302 70.7794 35.2002V36.049H70.3779V34.3111H70.7667V34.5636C70.8365 34.4691 70.9294 34.3942 71.0365 34.3459C71.1436 34.2975 71.2614 34.2775 71.3785 34.2878Z" fill="#008CE6"/>
<path d="M71.668 33.7721C71.6682 33.7387 71.6752 33.7057 71.6887 33.675C71.7021 33.6444 71.7216 33.6168 71.7461 33.594C71.7705 33.5712 71.7994 33.5536 71.8309 33.5422C71.8624 33.5309 71.8958 33.5261 71.9293 33.5281C71.9618 33.5255 71.9946 33.5296 72.0255 33.54C72.0565 33.5505 72.0849 33.5672 72.1092 33.589C72.1335 33.6109 72.153 33.6375 72.1666 33.6671C72.1802 33.6968 72.1877 33.7289 72.1884 33.7615C72.1826 33.8264 72.1526 33.8868 72.1044 33.9307C72.0563 33.9746 71.9934 33.999 71.9282 33.999C71.863 33.999 71.8001 33.9746 71.752 33.9307C71.7038 33.8868 71.6738 33.8264 71.668 33.7615V33.7721ZM71.7232 34.3026H72.1311V36.0405H71.7232V34.3026Z" fill="#008CE6"/>
<path d="M73.3487 33.6024C73.4785 33.5967 73.6071 33.6299 73.7179 33.6979L73.6033 34.0034C73.5373 33.9572 73.4589 33.9321 73.3784 33.9313C73.2086 33.9313 73.1216 34.0246 73.1216 34.2114V34.3154H73.6012V34.64H73.1365V36.0405H72.7121V34.64H72.4277V34.3154H72.7121V34.205C72.7053 34.1212 72.7174 34.0369 72.7475 33.9583C72.7775 33.8798 72.8249 33.809 72.886 33.7512C72.9471 33.6933 73.0203 33.6499 73.1004 33.6242C73.1805 33.5985 73.2653 33.591 73.3487 33.6024ZM74.0786 33.7721C74.0788 33.7387 74.0859 33.7057 74.0993 33.675C74.1127 33.6444 74.1322 33.6168 74.1566 33.594C74.1811 33.5712 74.2099 33.5536 74.2413 33.5422C74.2728 33.5309 74.3062 33.5261 74.3396 33.5281C74.3721 33.5255 74.4049 33.5296 74.4358 33.54C74.4667 33.5505 74.4951 33.5672 74.5193 33.589C74.5436 33.6109 74.5631 33.6375 74.5767 33.6671C74.5903 33.6968 74.5977 33.7289 74.5985 33.7615C74.5926 33.8264 74.5627 33.8868 74.5146 33.9307C74.4665 33.9746 74.4037 33.999 74.3385 33.999C74.2734 33.999 74.2106 33.9746 74.1625 33.9307C74.1144 33.8868 74.0845 33.8264 74.0786 33.7615V33.7721ZM74.1338 34.3026H74.5412V36.0405H74.1338V34.3026Z" fill="#008CE6"/>
<path d="M76.6932 35.3037H75.3309C75.3556 35.4314 75.4268 35.5455 75.5306 35.6239C75.6345 35.7023 75.7636 35.7394 75.8933 35.7281C75.9809 35.7309 76.0681 35.7156 76.1496 35.6831C76.231 35.6506 76.3048 35.6016 76.3665 35.5392L76.5787 35.7896C76.4902 35.8857 76.3814 35.9608 76.2603 36.0096C76.1392 36.0584 76.0088 36.0797 75.8784 36.0719C75.297 36.0719 74.9193 35.6984 74.9193 35.1806C74.916 35.0624 74.937 34.9447 74.9811 34.8349C75.0252 34.725 75.0914 34.6255 75.1755 34.5423C75.2597 34.4591 75.3601 34.3941 75.4704 34.3514C75.5807 34.3086 75.6986 34.289 75.8169 34.2936C75.935 34.2893 76.0528 34.3097 76.1626 34.3535C76.2725 34.3974 76.3719 34.4637 76.4546 34.5482C76.5373 34.6327 76.6015 34.7335 76.6429 34.8443C76.6844 34.955 76.7022 35.0732 76.6954 35.1912C76.6996 35.2146 76.6975 35.2634 76.6932 35.3037ZM75.3267 35.0321H76.3198C76.3074 34.9119 76.2496 34.8009 76.158 34.722C76.0665 34.6431 75.9482 34.6022 75.8275 34.6077C75.7058 34.602 75.5865 34.6426 75.4936 34.7214C75.4007 34.8001 75.3411 34.9111 75.3267 35.0321Z" fill="#008CE6"/>
<path d="M78.7941 33.6289V36.0437H78.4036V35.8188C78.3325 35.9004 78.2438 35.965 78.1442 36.0076C78.0447 36.0502 77.9368 36.0698 77.8286 36.0649C77.5927 36.0649 77.3666 35.9712 77.1999 35.8045C77.0331 35.6378 76.9395 35.4116 76.9395 35.1758C76.9395 34.94 77.0331 34.7139 77.1999 34.5471C77.3666 34.3804 77.5927 34.2867 77.8286 34.2867C77.933 34.282 78.0373 34.3005 78.1338 34.3409C78.2302 34.3812 78.3166 34.4425 78.3866 34.5201V33.6289H78.7941ZM78.393 35.1737C78.388 35.0725 78.3535 34.975 78.2936 34.8933C78.2338 34.8116 78.1513 34.7492 78.0564 34.7139C77.9614 34.6786 77.8582 34.6719 77.7595 34.6946C77.6608 34.7174 77.571 34.7686 77.5011 34.8419C77.4312 34.9153 77.3843 35.0075 77.3663 35.1071C77.3483 35.2068 77.36 35.3096 77.3998 35.4027C77.4396 35.4959 77.5059 35.5753 77.5904 35.6311C77.6749 35.687 77.7739 35.7168 77.8752 35.7169C77.9458 35.7182 78.0158 35.7049 78.081 35.6777C78.1461 35.6506 78.2048 35.6102 78.2535 35.5591C78.3022 35.508 78.3397 35.4474 78.3637 35.381C78.3878 35.3147 78.3977 35.2441 78.393 35.1737Z" fill="#008CE6"/>
<path d="M62.6566 36.6121C63.6422 36.6121 64.4412 35.8131 64.4412 34.8275C64.4412 33.8419 63.6422 33.043 62.6566 33.043C61.671 33.043 60.8721 33.8419 60.8721 34.8275C60.8721 35.8131 61.671 36.6121 62.6566 36.6121Z" fill="#008CE6"/>
<path d="M61.8506 34.8648L62.0798 34.6354L62.5232 35.0284L63.3911 34.1914L63.6033 34.4208L62.4893 35.4702L61.8506 34.8648Z" fill="white"/>
<path d="M70.3272 78.8696H56.3223C55.3205 78.8662 54.3611 78.4654 53.6545 77.7553C52.9479 77.0451 52.552 76.0836 52.5537 75.0819V62.4414H70.3378L70.3272 78.8696Z" fill="#EBEBEB"/>
<path d="M83.2436 78.9035L70.166 78.8696V62.4414H87.1798V74.9758C87.158 76.0121 86.7361 76.9998 86.0023 77.732C85.2686 78.4642 84.28 78.884 83.2436 78.9035Z" fill="#455A64"/>
<path d="M87.3535 62.442C87.3535 62.4717 79.619 62.4972 70.0787 62.4972C60.5384 62.4972 52.8018 62.4717 52.8018 62.442C52.8018 62.4122 60.5341 62.3867 70.0787 62.3867C79.6232 62.3867 87.3535 62.4122 87.3535 62.442Z" fill="#263238"/>
<path d="M69.8198 72.0609C69.8198 72.0609 69.8007 72.0609 69.771 72.0311L69.6373 71.9335L69.1323 71.5558L67.2862 70.1469C66.8979 69.8519 66.4693 69.5103 66.013 69.1771C65.8912 69.1065 65.752 69.0716 65.6112 69.0764C65.4705 69.0813 65.3339 69.1258 65.2173 69.2047C65.0997 69.3022 64.9891 69.4079 64.8863 69.5209L64.5489 69.8625L61.5782 72.863L61.3957 73.0476L61.3617 73.0815L61.3235 73.0539L59.609 71.7808L58.7942 71.1718C58.6829 71.0663 58.5427 70.9964 58.3915 70.9711C58.2403 70.9458 58.0849 70.9661 57.9454 71.0296C57.8144 71.1054 57.6957 71.2006 57.5931 71.3118L57.2579 71.6237L56.6213 72.2179L55.4754 73.2789L53.8139 74.8109L53.3577 75.2226L53.2389 75.3287C53.212 75.3527 53.1972 75.3633 53.1943 75.3605C53.2046 75.3456 53.2167 75.332 53.2304 75.3202L53.3429 75.2077L53.7842 74.7833L55.4224 73.2258L56.5598 72.1521L57.1963 71.5558L57.5295 71.2418L57.6992 71.0826C57.7627 71.0252 57.8342 70.9773 57.9114 70.9405C58.0662 70.8656 58.2404 70.8404 58.4101 70.8683C58.496 70.8816 58.5791 70.9089 58.6562 70.949C58.7316 70.9891 58.8026 71.0367 58.8684 71.0911L59.6854 71.6959L61.402 72.9691H61.3299L61.5124 72.7823L64.4831 69.7883L64.8226 69.4487C64.9296 69.3313 65.0452 69.2221 65.1685 69.122C65.3008 69.0342 65.455 68.9853 65.6137 68.9808C65.7723 68.9763 65.9291 69.0164 66.0661 69.0965C66.5372 69.4466 66.9488 69.7819 67.3393 70.0832L69.1641 71.5198L69.6586 71.9144L69.7838 72.0205C69.7974 72.0324 69.8096 72.0459 69.8198 72.0609Z" fill="#263238"/>
<path d="M62.8789 66.5411C62.8661 66.5411 62.8789 66.4053 62.8089 66.1698C62.7174 65.8403 62.5188 65.5506 62.2444 65.3465C62.0568 65.2063 61.8386 65.1125 61.6078 65.0728C61.3454 65.0261 61.0753 65.0495 60.8248 65.1407C60.5475 65.242 60.3066 65.4238 60.1331 65.6627C59.9457 65.9176 59.8447 66.2258 59.8447 66.5422C59.8447 66.8586 59.9457 67.1668 60.1331 67.4217C60.2995 67.6477 60.5258 67.8226 60.7864 67.9268C61.047 68.031 61.3315 68.0604 61.6078 68.0116C61.839 67.9718 62.0573 67.8772 62.2444 67.7358C62.5188 67.5317 62.7174 67.242 62.8089 66.9125C62.8725 66.6791 62.8661 66.5411 62.8789 66.5411C62.8821 66.5743 62.8821 66.6077 62.8789 66.6409C62.8791 66.7358 62.8684 66.8305 62.847 66.9231C62.7682 67.2704 62.5709 67.5795 62.289 67.7973C62.0947 67.9496 61.8671 68.0536 61.6248 68.1008C61.3304 68.1578 61.0259 68.1303 60.7464 68.0214C60.467 67.9125 60.2242 67.7266 60.0461 67.4854C59.8437 67.2126 59.7344 66.8819 59.7344 66.5422C59.7344 66.2025 59.8437 65.8718 60.0461 65.599C60.2329 65.3445 60.4915 65.1516 60.7887 65.0452C61.0569 64.9502 61.3454 64.9282 61.6248 64.9815C61.8668 65.0296 62.0942 65.1335 62.289 65.2849C62.5705 65.5031 62.7677 65.812 62.847 66.1592C62.8685 66.2524 62.8791 66.3478 62.8789 66.4435C62.8821 66.476 62.8821 66.5087 62.8789 66.5411Z" fill="#263238"/>
<path d="M86.6532 71.533C86.6532 71.533 86.6362 71.533 86.6065 71.5033L86.4792 71.4078L85.9911 71.0279L84.2108 69.6168C83.8373 69.3219 83.4257 68.9803 82.9864 68.6471C82.8689 68.5765 82.733 68.5426 82.5962 68.5498C82.4593 68.557 82.3277 68.6049 82.2183 68.6874C82.1066 68.7864 82.001 68.8919 81.9021 69.0036L81.5796 69.3452L78.7383 72.3351L78.56 72.5197L78.5261 72.5557L78.4857 72.526L76.8328 71.2529L76.0476 70.6439C75.9419 70.5377 75.8053 70.4678 75.6574 70.4442C75.5094 70.4206 75.3578 70.4444 75.2243 70.5123C75.0998 70.5918 74.9864 70.6874 74.8869 70.7966L74.5665 71.1086L73.9533 71.7006L72.852 72.7616L71.2584 74.2894L70.8213 74.701L70.7045 74.805C70.6791 74.8283 70.6642 74.8411 70.6621 74.839C70.6724 74.824 70.6845 74.8105 70.6982 74.7986C70.7258 74.7668 70.7618 74.7307 70.8043 74.6862L71.2287 74.2618L72.7989 72.7085L73.8896 71.6369C74.0869 71.446 74.2885 71.2465 74.4986 71.0407L74.8169 70.7287L74.9803 70.5696C75.0384 70.5127 75.1041 70.4641 75.1755 70.4253C75.3251 70.3461 75.4962 70.3171 75.6636 70.3425C75.7481 70.3548 75.8299 70.3814 75.9055 70.4211C75.9804 70.4618 76.0515 70.5094 76.1176 70.5632L76.9028 71.1701L78.5579 72.4433H78.4836L78.6619 72.2565L81.5095 69.2731L81.8342 68.9336C81.9376 68.8178 82.0481 68.7087 82.1652 68.6068C82.2906 68.5143 82.4406 68.4611 82.5962 68.454C82.7519 68.4468 82.9061 68.4859 83.0395 68.5665C83.4957 68.9166 83.8882 69.2519 84.266 69.5532L86.0229 70.9919L86.4961 71.3887L86.6171 71.4926L86.6532 71.533Z" fill="#263238"/>
<path d="M79.4381 66.067C79.4275 66.067 79.4381 65.9312 79.3702 65.6977C79.2798 65.3677 79.081 65.0777 78.8057 64.8744C78.647 64.7559 78.4665 64.67 78.2744 64.6216C78.0824 64.5732 77.8826 64.5633 77.6868 64.5925C77.4909 64.6217 77.3027 64.6894 77.1331 64.7917C76.9635 64.894 76.8158 65.0288 76.6986 65.1885C76.5113 65.4435 76.4102 65.7516 76.4102 66.068C76.4102 66.3844 76.5113 66.6926 76.6986 66.9476C76.8719 67.1862 77.1129 67.3673 77.3904 67.4675C77.6251 67.5541 77.8779 67.5802 78.1253 67.5431C78.3727 67.506 78.6068 67.407 78.8057 67.2553C79.0806 67.0516 79.2794 66.7618 79.3702 66.4319C79.3993 66.3094 79.4219 66.1855 79.4381 66.0606C79.4436 66.0936 79.4436 66.1273 79.4381 66.1603C79.4383 66.2553 79.4276 66.35 79.4062 66.4426C79.3333 66.7905 79.1421 67.1024 78.8651 67.3253C78.6702 67.476 78.4428 67.5792 78.201 67.6266C77.9217 67.682 77.6326 67.66 77.3649 67.5629C77.0678 67.4573 76.8091 67.2652 76.6222 67.0112C76.4198 66.7384 76.3105 66.4077 76.3105 66.068C76.3105 65.7283 76.4198 65.3976 76.6222 65.1248C76.8004 64.8836 77.0432 64.6977 77.3226 64.5888C77.602 64.4799 77.9066 64.4524 78.201 64.5094C78.4428 64.5568 78.6702 64.66 78.8651 64.8108C79.1472 65.0293 79.3444 65.3391 79.4232 65.6871C79.4446 65.7797 79.4553 65.8744 79.455 65.9694C79.4552 66.0026 79.4494 66.0357 79.4381 66.067Z" fill="#263238"/>
<path d="M70.4271 29.0867C73.1413 29.0867 75.3416 26.8864 75.3416 24.1722C75.3416 21.4581 73.1413 19.2578 70.4271 19.2578C67.713 19.2578 65.5127 21.4581 65.5127 24.1722C65.5127 26.8864 67.713 29.0867 70.4271 29.0867Z" fill="#F5F5F5"/>
<path d="M73.6041 27.9007C73.5203 27.1211 73.1465 26.4015 72.5569 25.8847C71.9673 25.3678 71.205 25.0914 70.4212 25.1103C68.677 25.1103 67.4823 26.4301 67.2383 27.9113C67.2383 27.9113 68.3162 29.1038 70.4212 29.0868C72.5262 29.0699 73.6041 27.9007 73.6041 27.9007Z" fill="#E0E0E0"/>
<path d="M72.4269 23.6935C72.5972 22.64 71.8812 21.648 70.8277 21.4777C69.7743 21.3075 68.7822 22.0234 68.612 23.0769C68.4417 24.1304 69.1577 25.1224 70.2112 25.2927C71.2646 25.4629 72.2567 24.7469 72.4269 23.6935Z" fill="#E0E0E0"/>
<path d="M73.58 27.7361C73.5199 27.4217 73.4193 27.1164 73.2809 26.8279C73.1021 26.5052 72.8663 26.2176 72.5849 25.9791C72.2152 25.667 71.7896 25.4279 71.3308 25.2746L71.2289 25.2428L71.3223 25.194C71.6462 25.0179 71.9123 24.7519 72.0883 24.4279C72.2415 24.1425 72.3181 23.8222 72.3106 23.4983C72.3031 23.1744 72.2117 22.858 72.0454 22.5799C71.8791 22.3019 71.6435 22.0717 71.3617 21.9119C71.0799 21.7521 70.7614 21.6681 70.4374 21.6681C70.1135 21.6681 69.795 21.7521 69.5132 21.9119C69.2314 22.0717 68.9958 22.3019 68.8295 22.5799C68.6632 22.858 68.5718 23.1744 68.5643 23.4983C68.5567 23.8222 68.6333 24.1425 68.7866 24.4279C68.8758 24.5935 68.9887 24.745 69.1218 24.8778C69.2508 25.002 69.3932 25.1116 69.5462 25.2046L69.6311 25.2576L69.5335 25.2852C69.0637 25.4089 68.6321 25.6473 68.2773 25.9791C68.008 26.2342 67.7854 26.5343 67.6195 26.8661C67.5125 27.0788 67.4258 27.3012 67.3606 27.5302C67.3373 27.6088 67.3224 27.6703 67.3118 27.7106C67.309 27.7318 67.3033 27.7525 67.2948 27.7721C67.291 27.7511 67.291 27.7295 67.2948 27.7085C67.2948 27.666 67.3118 27.6024 67.3309 27.5239C67.3865 27.2897 67.4669 27.0621 67.5707 26.8449C67.7316 26.5018 67.953 26.1906 68.2242 25.926C68.5816 25.5815 69.0192 25.3314 69.4974 25.1982L69.4847 25.2789C69.3245 25.1843 69.1751 25.0726 69.0391 24.9457C68.8978 24.807 68.7777 24.6482 68.6826 24.4746C68.4727 24.0831 68.4004 23.6324 68.4774 23.1949C68.5543 22.7574 68.7761 22.3584 69.107 22.062C69.4694 21.7354 69.94 21.5547 70.4279 21.5547C70.9158 21.5547 71.3863 21.7354 71.7488 22.062C71.9855 22.2747 72.1673 22.5415 72.2786 22.8396C72.3899 23.1377 72.4274 23.4583 72.388 23.7741C72.3486 24.0899 72.2335 24.3915 72.0523 24.6531C71.8712 24.9147 71.6295 25.1287 71.3478 25.2767V25.194C71.8161 25.3541 72.2486 25.6042 72.6209 25.9303C72.9059 26.1789 73.1413 26.4791 73.3148 26.8151C73.3754 26.9396 73.4258 27.0687 73.4655 27.2013C73.4985 27.2974 73.5233 27.3961 73.5397 27.4963C73.5503 27.5706 73.5588 27.6321 73.5652 27.683C73.5716 27.734 73.5843 27.7361 73.58 27.7361Z" fill="#263238"/>
<path d="M75.3409 24.171C75.3343 24.1446 75.3307 24.1176 75.3303 24.0904C75.3303 24.0331 75.3303 23.9567 75.3133 23.8591L75.3027 23.6872C75.3027 23.6235 75.2815 23.5556 75.2688 23.475C75.2468 23.3036 75.212 23.1341 75.1648 22.9678C75.0496 22.5099 74.8657 22.0721 74.6195 21.6692C74.0366 20.6965 73.1333 19.9571 72.0645 19.578C70.9958 19.1989 69.8284 19.2038 68.7629 19.5918C68.5445 19.6705 68.3318 19.7641 68.1263 19.8719C67.9187 19.9856 67.7194 20.114 67.53 20.256C67.3359 20.3999 67.1516 20.5566 66.9783 20.7249C66.8069 20.9023 66.6474 21.0909 66.5009 21.2894C66.1993 21.6956 65.965 22.1477 65.807 22.6283C65.4731 23.6246 65.4731 24.7025 65.807 25.6988C65.965 26.1801 66.1993 26.6328 66.5009 27.0399C66.6479 27.2379 66.8074 27.4264 66.9783 27.6043C67.1516 27.7726 67.3359 27.9293 67.53 28.0733C67.7199 28.2145 67.9191 28.3428 68.1263 28.4573C69.1026 28.972 70.2228 29.146 71.3092 28.9517C71.9914 28.8263 72.6392 28.5577 73.2102 28.1638C73.7811 27.7699 74.2621 27.2596 74.6216 26.6664C74.8682 26.2629 75.0521 25.8244 75.1669 25.3656C75.2141 25.2001 75.2489 25.0313 75.2709 24.8606C75.2836 24.7864 75.2964 24.7185 75.3049 24.6484L75.3155 24.4765C75.3155 24.3789 75.3282 24.3025 75.3324 24.2431C75.3329 24.2166 75.3365 24.1903 75.3431 24.1646C75.3459 24.1914 75.3459 24.2184 75.3431 24.2453C75.3431 24.3025 75.3431 24.3811 75.3431 24.4787C75.3431 24.5317 75.3431 24.589 75.3431 24.6505C75.3431 24.7121 75.324 24.7842 75.3155 24.8627C75.2965 25.0354 75.2646 25.2063 75.22 25.3741C75.1098 25.8394 74.9295 26.2851 74.6852 26.6961C74.3277 27.3014 73.8456 27.8238 73.2709 28.2288C72.6962 28.6338 72.042 28.912 71.3517 29.0451C70.4783 29.2086 69.5771 29.1353 68.7416 28.8329C68.5191 28.7528 68.3022 28.6578 68.0923 28.5486C67.8798 28.4328 67.6756 28.3023 67.4812 28.1581C67.2824 28.0113 67.0938 27.8511 66.9168 27.6786C66.7412 27.4982 66.5781 27.3061 66.4287 27.1035C66.1188 26.688 65.8781 26.2251 65.7157 25.7327C65.553 25.2256 65.4665 24.6972 65.459 24.1646C65.4658 23.6312 65.5531 23.1018 65.7179 22.5944C65.879 22.1026 66.1191 21.6404 66.4287 21.2257C66.5781 21.0225 66.7412 20.8297 66.9168 20.6485C67.0948 20.4778 67.2833 20.3184 67.4812 20.1711C67.6756 20.0269 67.8798 19.8965 68.0923 19.7807C68.3022 19.6715 68.5191 19.5765 68.7416 19.4963C69.5764 19.194 70.4769 19.1208 71.3495 19.2841C72.0403 19.4168 72.6949 19.6949 73.27 20.0999C73.8451 20.5049 74.3275 21.0275 74.6852 21.6331C74.9295 22.0434 75.1098 22.4884 75.22 22.953C75.2646 23.1215 75.2965 23.2932 75.3155 23.4665C75.3155 23.5408 75.3367 23.6108 75.3431 23.6787C75.3494 23.7466 75.3431 23.7996 75.3431 23.8527C75.3431 23.9503 75.3431 24.0288 75.3431 24.0861C75.3455 24.1144 75.3447 24.1429 75.3409 24.171Z" fill="#263238"/>
<path d="M44.201 53.7266C41.6207 55.0634 39.6409 57.3657 38.2192 59.8993C36.7975 62.4329 35.8851 65.2148 34.9705 67.9755L34.1748 82.2137C37.1774 77.1062 39.5879 71.1011 40.2393 65.2106L38.2405 65.0323C39.5815 64.8201 40.7062 63.8567 41.4234 62.6982C42.1406 61.5396 42.5077 60.2176 42.8663 58.9126L40.4282 59.2733C42.3515 57.9776 43.7024 55.9914 44.201 53.7266Z" fill="#455A64"/>
<path d="M44.201 53.7266C41.6207 55.0634 39.6409 57.3657 38.2192 59.8993C36.7975 62.4329 35.8851 65.2148 34.9705 67.9755L34.1748 82.2137C37.1774 77.1062 39.5879 71.1011 40.2393 65.2106L38.2405 65.0323C39.5815 64.8201 40.7062 63.8567 41.4234 62.6982C42.1406 61.5396 42.5077 60.2176 42.8663 58.9126L40.4282 59.2733C42.3515 57.9776 43.7024 55.9914 44.201 53.7266Z" fill="#455A64"/>
<path d="M33.7295 85.5493C33.7295 85.5493 27.213 77.7468 27.2872 70.2988H29.9206C29.9206 70.2988 27.0602 68.4187 27.2872 67.3663C27.5143 66.3138 27.5886 62.3245 27.5886 62.3245L29.997 62.9271C29.997 62.9271 28.1912 62.0253 27.9642 60.593C27.7371 59.1607 28.4904 52.5508 28.4904 52.5508C28.4904 52.5508 31.4251 55.634 32.329 58.7936C33.233 61.9532 35.6011 65.639 34.9051 75.2684C34.2091 84.8978 33.7295 85.5493 33.7295 85.5493Z" fill="#455A64"/>
<path d="M37.036 86.2903C37.036 86.2903 44.0978 81.5859 45.666 75.5808L43.544 75.0057C43.544 75.0057 46.2559 74.1188 46.3025 73.2233C46.3492 72.3278 47.1513 69.1046 47.1513 69.1046L45.0845 69.0622C45.0845 69.0622 46.7333 68.7311 47.2277 67.632C47.7221 66.5328 48.5836 61.0391 48.5836 61.0391C48.5836 61.0391 45.5493 62.8788 44.1275 65.2214C42.7058 67.5641 39.9982 70.0086 38.4513 77.9022C36.9044 85.7959 37.036 86.2903 37.036 86.2903Z" fill="#455A64"/>
<path d="M30.2734 59.3398C30.2734 59.3398 30.2734 59.3674 30.2947 59.4205C30.3159 59.4735 30.3286 59.5605 30.3519 59.6603C30.4008 59.8725 30.4687 60.1907 30.5641 60.5876C30.6596 60.9844 30.7594 61.483 30.8718 62.0559C30.9843 62.6289 31.1222 63.2824 31.2538 64.006C31.5339 65.4532 31.8267 67.1889 32.1301 69.0987C32.4336 71.0085 32.7179 73.1453 32.9789 75.3775C33.2399 77.6098 33.433 79.7445 33.5858 81.6861C33.7386 83.6277 33.8383 85.3804 33.8956 86.8509C33.9338 87.5873 33.9508 88.2535 33.9699 88.8392C33.989 89.4249 33.9996 89.9278 34.0038 90.3394C34.0081 90.7511 34.0038 91.0651 34.0144 91.2879V91.5341C34.0144 91.5893 34.0144 91.619 34.0144 91.619C34.0109 91.5908 34.0109 91.5623 34.0144 91.5341V91.2879C34.0144 91.0651 33.9953 90.7468 33.9826 90.3394C33.9699 89.932 33.955 89.4249 33.9296 88.8413C33.9041 88.2578 33.8808 87.5915 33.8404 86.8552C33.7704 85.3847 33.6537 83.6362 33.5052 81.6946C33.3566 79.753 33.1444 77.6226 32.8898 75.3903C32.6352 73.158 32.3381 71.0382 32.041 69.1136C31.7439 67.1889 31.4575 65.4596 31.1922 64.0209C31.0649 63.2952 30.9355 62.6437 30.8273 62.0687C30.719 61.4936 30.6151 61.0077 30.5366 60.596C30.458 60.1844 30.3944 59.8852 30.3519 59.6666C30.3329 59.5627 30.3159 59.4841 30.3053 59.4226C30.2921 59.3961 30.2814 59.3684 30.2734 59.3398Z" fill="#263238"/>
<path d="M32.8258 90.3235C32.8258 90.3235 26.861 83.5609 25.0107 79.4697L26.4091 78.865C25.3948 79.0326 24.3571 78.5976 23.5699 77.9356C22.7826 77.2735 22.2076 76.4035 21.641 75.5463L23.4829 75.2343C21.7878 74.7531 20.3436 73.6365 19.4512 72.1172C21.6241 72.4758 23.5911 73.6683 25.2101 75.1622C26.5236 76.3696 27.6334 77.7722 28.7008 79.2066C29.2229 79.9043 29.6769 80.6504 30.0567 81.4347C31.0667 83.512 32.8301 87.843 32.8258 90.3235Z" fill="#455A64"/>
<path d="M45.7586 64.9766C45.7525 65.0003 45.7432 65.0232 45.731 65.0445L45.6398 65.2418C45.5528 65.4201 45.4276 65.6662 45.2748 65.9909C45.122 66.3155 44.9205 66.7144 44.6998 67.1791C44.4791 67.6439 44.2223 68.1701 43.9529 68.7579C43.4011 69.9313 42.7688 71.336 42.0877 72.9063C41.4065 74.4765 40.6957 76.2208 39.9806 78.0626C39.2655 79.9045 38.631 81.67 38.0708 83.2932C37.5106 84.9165 37.0395 86.3807 36.6576 87.6178C36.4624 88.2353 36.299 88.7976 36.1483 89.2899C35.9977 89.7822 35.8746 90.2066 35.7749 90.563C35.6751 90.9195 35.5966 91.1742 35.5393 91.363L35.4757 91.5752C35.4696 91.5994 35.4611 91.6229 35.4502 91.6452C35.453 91.6201 35.458 91.5953 35.465 91.571C35.4778 91.5179 35.4969 91.45 35.5181 91.3588L35.7303 90.5524C35.8237 90.2044 35.9425 89.7758 36.0847 89.2793C36.2268 88.7827 36.3881 88.2183 36.5791 87.6029C36.9504 86.3616 37.4279 84.8932 37.969 83.2699C38.51 81.6466 39.1615 79.8748 39.8787 78.0308C40.5959 76.1868 41.3153 74.4468 42.0007 72.8745C42.686 71.3021 43.329 69.9037 43.8871 68.7345C44.1629 68.1468 44.4239 67.6226 44.651 67.16C44.878 66.6975 45.0754 66.3113 45.243 65.9802L45.6249 65.2397L45.7268 65.0487C45.735 65.0236 45.7456 64.9995 45.7586 64.9766Z" fill="#263238"/>
<path d="M33.333 93.2251C33.319 93.1846 33.3098 93.1426 33.3054 93.0999L33.2481 92.7413C33.2247 92.5843 33.1972 92.3933 33.1547 92.1726C33.1123 91.952 33.0783 91.6995 33.0168 91.4236C32.9107 90.8698 32.7579 90.2162 32.5627 89.4947C32.3675 88.7733 32.115 87.9966 31.8115 87.1903C31.5081 86.384 31.1749 85.6349 30.8524 84.9622C30.5299 84.2896 30.2158 83.7018 29.9187 83.2159C29.7808 82.9676 29.6429 82.7533 29.5262 82.5623C29.4095 82.3713 29.314 82.2058 29.2206 82.0743L29.0254 81.7666C29.0016 81.7317 28.981 81.6948 28.9639 81.6562C28.9951 81.685 29.0222 81.7178 29.0445 81.7539L29.2567 82.0509C29.3479 82.1782 29.4583 82.3395 29.5792 82.5284C29.7002 82.7172 29.8424 82.9294 29.9845 83.1756C30.2816 83.6572 30.6063 84.2493 30.9436 84.9177C31.281 85.5861 31.6078 86.3436 31.9155 87.15C32.2232 87.9563 32.4651 88.7457 32.6603 89.4693C32.8555 90.1929 32.9977 90.8528 33.0847 91.4087C33.1399 91.6867 33.1717 91.9414 33.2056 92.1642C33.2396 92.387 33.2651 92.5779 33.2799 92.735C33.2948 92.892 33.3075 93.0023 33.316 93.0978C33.3273 93.1393 33.333 93.1821 33.333 93.2251Z" fill="#263238"/>
<path d="M41.2037 91.6367H28.1494V94.2998H41.2037V91.6367Z" fill="#8F9EC4"/>
<path d="M29.3926 94.2969L30.8058 103.254H38.6931L40.0087 94.2969H29.3926Z" fill="#8F9EC4"/>
<path d="M40.4033 94.2996C40.4033 94.3293 37.9333 94.3548 34.8862 94.3548C31.8391 94.3548 29.3691 94.3293 29.3691 94.2996C29.3691 94.2698 31.8391 94.2422 34.8862 94.2422C37.9333 94.2422 40.4033 94.2677 40.4033 94.2996Z" fill="#263238"/>
<g opacity="0.3">
<path opacity="0.3" d="M44.201 53.7266C41.6207 55.0634 39.6409 57.3657 38.2192 59.8993C36.7975 62.4329 35.8851 65.2148 34.9705 67.9755L34.1748 82.2137C37.1774 77.1062 39.5879 71.1011 40.2393 65.2106L38.2405 65.0323C39.5815 64.8201 40.7062 63.8567 41.4234 62.6982C42.1406 61.5396 42.5077 60.2176 42.8663 58.9126L40.4282 59.2733C42.3515 57.9776 43.7024 55.9914 44.201 53.7266Z" fill="black"/>
</g>
<path d="M110.88 65.217C110.88 65.217 113.044 68.8094 113.367 72.23C113.689 75.6506 111.404 103.291 111.404 103.291H84.4766C84.4766 103.291 91.6912 69.1596 94.0508 66.9697L94.2121 64.6992L110.88 65.217Z" fill="#263238"/>
<path d="M112.03 67.957C112.036 68.1177 112.032 68.2785 112.019 68.4387C111.988 68.8993 111.902 69.3546 111.762 69.7946C111.544 70.4948 111.204 71.1507 110.756 71.732C110.478 72.0958 110.157 72.4255 109.802 72.7144C109.4 73.0302 108.974 73.314 108.528 73.5632C108.064 73.8348 107.567 74.098 107.071 74.412C106.55 74.7194 106.077 75.0996 105.664 75.5409C105.242 76.0308 104.917 76.5959 104.705 77.2066C104.493 77.8612 104.346 78.5349 104.265 79.2182C104.17 79.9185 104.108 80.642 104.013 81.3805C103.927 82.1371 103.756 82.8817 103.504 83.6C103.23 84.347 102.783 85.0183 102.199 85.5586C101.588 86.0967 100.896 86.5356 100.149 86.8594C98.6635 87.5405 97.1017 87.9755 95.784 88.7691C95.1378 89.1518 94.5721 89.6562 94.1182 90.2545C93.7034 90.845 93.3847 91.4974 93.174 92.1876C92.7496 93.5329 92.5586 94.8761 92.2064 96.092C92.1597 96.2426 92.113 96.3933 92.0684 96.5418C92.0239 96.6904 91.9645 96.8325 91.9135 96.9768C91.8046 97.2567 91.6814 97.5308 91.5443 97.798C91.4191 98.0633 91.26 98.3052 91.1199 98.5471C91.0414 98.6638 90.9608 98.7784 90.8823 98.8908L90.7656 99.0585L90.6382 99.2176C90.0401 99.9809 89.3238 100.644 88.5163 101.18C87.908 101.587 87.2525 101.917 86.5641 102.165C86.1291 102.318 85.6828 102.436 85.2294 102.519L84.875 102.572L84.752 102.587L84.8729 102.562L85.2252 102.498C85.6751 102.406 86.1177 102.282 86.5492 102.125C88.1414 101.533 89.5374 100.509 90.581 99.1688L90.7061 99.0118L90.8229 98.8441L91.0563 98.5025C91.1963 98.2627 91.3533 98.0229 91.4807 97.7577C91.616 97.4935 91.7371 97.2222 91.8435 96.945C91.8944 96.8028 91.9432 96.6585 91.9942 96.5206C92.0451 96.3827 92.0854 96.2235 92.13 96.0729C92.478 94.8655 92.6562 93.5265 93.0891 92.1621C93.3027 91.4615 93.6257 90.7991 94.0461 90.1993C94.5071 89.5861 95.0838 89.0693 95.7437 88.6779C97.0784 87.8694 98.6359 87.4344 100.117 86.7554C100.854 86.4399 101.536 86.0102 102.139 85.4822C102.708 84.9549 103.144 84.3005 103.412 83.5725C103.659 82.8556 103.824 82.1132 103.905 81.3593C104 80.6251 104.064 79.9015 104.161 79.1991C104.244 78.5094 104.393 77.8294 104.607 77.1684C104.826 76.5463 105.159 75.9705 105.59 75.4709C106.011 75.0252 106.493 74.6415 107.022 74.3314C107.523 74.0258 108.021 73.7627 108.484 73.4974C108.929 73.2475 109.355 72.9637 109.757 72.6487C110.109 72.3651 110.427 72.0419 110.706 71.6853C111.151 71.1122 111.494 70.466 111.718 69.7755C111.862 69.3394 111.956 68.8879 111.996 68.4302C112.013 68.2732 112.013 68.1544 112.019 68.0716C112.025 67.9889 112.03 67.957 112.03 67.957Z" fill="#455A64"/>
<path d="M112.785 70.4688C112.801 70.504 112.814 70.5402 112.826 70.577C112.864 70.6821 112.895 70.7899 112.917 70.8995C112.999 71.3258 112.991 71.7645 112.894 72.1875C112.741 72.8576 112.44 73.4849 112.013 74.023C111.435 74.7187 110.779 75.346 110.059 75.8925C109.288 76.529 108.412 77.2102 107.739 78.1736C107.391 78.6681 107.147 79.2283 107.022 79.8202C106.905 80.4508 106.834 81.089 106.81 81.7299C106.785 82.4112 106.69 83.088 106.528 83.75C106.35 84.4399 106.09 85.106 105.753 85.7341C105.045 87.0603 104.018 88.1897 102.766 89.021C101.469 89.8697 100.007 90.2772 98.7232 90.9159C98.087 91.2151 97.5014 91.6117 96.9875 92.0914C96.5104 92.5666 96.1249 93.1255 95.8501 93.7402C95.3048 94.9412 95.0798 96.191 94.7764 97.3284C94.6357 97.8812 94.4628 98.4254 94.2586 98.9581C94.0642 99.4481 93.8158 99.915 93.5181 100.35C93.2423 100.741 92.9202 101.097 92.559 101.411C92.3934 101.566 92.2131 101.693 92.0454 101.825C91.8778 101.956 91.6996 102.065 91.5213 102.158C90.9284 102.506 90.2837 102.756 89.6116 102.901C89.1893 102.989 88.7591 103.033 88.3278 103.034L87.9925 103.017H87.8779H87.9925H88.3278C88.7561 103.006 89.1824 102.954 89.601 102.862C90.2631 102.711 90.8975 102.457 91.481 102.109C91.655 102.016 91.8184 101.897 91.9945 101.776C92.1706 101.655 92.3383 101.517 92.5017 101.362C92.8569 101.047 93.1732 100.691 93.4438 100.301C93.7354 99.8694 93.9788 99.4069 94.1695 98.922C94.3694 98.3917 94.5388 97.8505 94.6767 97.3008C94.978 96.1677 95.1965 94.9115 95.7376 93.6935C96.0159 93.0665 96.4072 92.4961 96.892 92.0108C97.4137 91.5228 98.0087 91.1197 98.6553 90.8161C99.9497 90.1689 101.414 89.7552 102.687 88.9255C104.525 87.7066 105.85 85.8537 106.409 83.7203C106.57 83.0645 106.664 82.3941 106.691 81.7193C106.712 81.0719 106.783 80.4271 106.903 79.7905C107.031 79.1869 107.281 78.6158 107.638 78.112C108.325 77.138 109.212 76.4548 109.984 75.8246C110.714 75.2882 111.379 74.6702 111.968 73.9827C112.395 73.454 112.698 72.8372 112.858 72.1769C112.956 71.7595 112.97 71.3268 112.9 70.9037C112.838 70.6152 112.777 70.4709 112.785 70.4688Z" fill="#455A64"/>
<path d="M85.4541 51.2483C85.4541 51.2483 87.2005 63.2925 89.8869 64.4617C91.2407 65.0538 92.3292 64.5445 93.0698 63.1886C93.8103 61.8326 95.701 51.9804 95.701 51.9804L90.4746 51.8573L90.2794 53.8159L88.2636 50.0664L85.4541 51.2483Z" fill="#936760"/>
<path d="M93.1591 59.1131C93.1489 59.0793 93.1339 59.0472 93.1146 59.0176L92.9724 58.7545L92.4462 57.789C91.9963 56.9741 91.3852 55.8453 90.704 54.5954C90.0229 53.3456 89.4309 52.2188 88.9916 51.3849L88.4739 50.4109L88.3317 50.1478C88.2978 50.0884 88.2787 50.0566 88.2744 50.0587C88.2839 50.0924 88.2967 50.1251 88.3126 50.1563L88.4399 50.4279C88.5524 50.6635 88.7179 51.0008 88.928 51.4189C89.3524 52.2507 89.9401 53.3923 90.6255 54.6421C91.3109 55.8919 91.9284 57.0166 92.3931 57.8251C92.6265 58.2282 92.8175 58.5508 92.9554 58.7736L93.1146 59.0282C93.1266 59.0579 93.1416 59.0863 93.1591 59.1131Z" fill="#6F4C47"/>
<path d="M111.372 54.0635L109.88 60.7371L110.587 65.2165H94.1924L95.264 44.3089L99.3508 43.9609L109.337 45.6479L111.372 54.0635Z" fill="#008CE6"/>
<path d="M107.202 45.5256C107.202 45.5256 111.472 45.133 113.506 48.038C114.752 49.8162 116.498 53.9009 116.498 53.9009L110.814 54.8834L107.202 45.5256Z" fill="#008CE6"/>
<g opacity="0.3">
<path opacity="0.3" d="M109.791 54.1432C109.502 53.553 109.052 53.0569 108.492 52.7127C107.932 52.3686 107.286 52.1906 106.629 52.1995C106.345 52.1995 106.025 52.2759 105.874 52.5157C105.723 52.7555 105.806 53.0992 105.916 53.3772C106.059 53.7401 106.247 54.1241 106.595 54.2981C106.85 54.4255 107.149 54.4191 107.423 54.5103C107.75 54.6358 108.048 54.8248 108.301 55.0663C108.529 55.2356 108.725 55.4431 108.881 55.6795C108.986 55.88 109.061 56.0943 109.106 56.3161C109.384 57.4068 109.604 59.6582 109.88 60.7489L110.186 59.8089C110.194 58.912 110.202 58.0151 110.209 57.1182C110.218 56.0997 110.218 55.0557 109.791 54.1432Z" fill="black"/>
</g>
<path d="M104.694 59.7085C104.694 59.6915 104.907 59.7297 105.276 59.7574C105.742 59.7942 106.21 59.7829 106.674 59.7234C107.138 59.6611 107.594 59.5522 108.036 59.3983C108.376 59.2794 108.58 59.1859 108.586 59.2008C108.546 59.2345 108.501 59.2624 108.452 59.2836C108.326 59.351 108.195 59.4113 108.062 59.4642C107.176 59.8167 106.216 59.9423 105.269 59.8296C105.127 59.813 104.985 59.7882 104.845 59.7552C104.792 59.7485 104.741 59.7327 104.694 59.7085Z" fill="#263238"/>
<path d="M97.5391 60.0007C97.5391 59.9752 99.8732 60.6373 102.719 61.4861C105.564 62.3349 107.881 63.0309 107.873 63.0584C107.864 63.086 105.539 62.4219 102.691 61.5731C99.8435 60.7243 97.5391 60.0283 97.5391 60.0007Z" fill="#263238"/>
<g opacity="0.3">
<path opacity="0.3" d="M104.811 59.7357C105.02 60.0461 105.309 60.2934 105.649 60.451C105.988 60.6086 106.363 60.6705 106.735 60.6301C107.09 60.5903 107.426 60.4489 107.703 60.2228C107.979 59.9967 108.185 59.6956 108.295 59.3555C107.186 59.7838 105.985 59.9149 104.811 59.7357Z" fill="black"/>
</g>
<g opacity="0.3">
<path opacity="0.3" d="M107.251 62.8451L107.192 62.8685C105.727 63.1295 104.355 62.8685 102.948 62.3677C101.541 61.8669 100.238 61.1497 98.9414 60.4219L107.251 62.8451Z" fill="black"/>
</g>
<path d="M95.264 44.3069C95.264 44.3069 92.5606 44.6379 91.5124 46.9466C90.792 48.5932 90.1824 50.2861 89.6875 52.0138L95.2046 53.2552C95.2046 53.2552 96.0724 48.5869 96.1382 46.9466C96.2125 45.1451 96.2846 44.2539 95.264 44.3069Z" fill="#008CE6"/>
<path d="M94.7443 53.994C94.6953 53.4799 94.6797 52.9632 94.6976 52.4471C94.6823 51.9316 94.7 51.4156 94.7507 50.9023C94.7997 51.4157 94.8153 51.9317 94.7974 52.4471C94.8127 52.9634 94.7949 53.48 94.7443 53.994Z" fill="#263238"/>
<path d="M97.7387 29.5168C99.1965 27.7344 101.157 26.7073 103.468 26.6691C104.767 26.6479 105.306 26.9174 106.241 27.1699C107.177 27.3961 108.003 27.9436 108.575 28.7168C109.24 29.659 109.798 30.7136 109.923 31.8573C110.05 33.035 110.18 34.219 110.091 35.3988C110.001 36.5787 109.683 37.7648 108.987 38.7239L105.985 39.2459C104.325 39.3011 102.645 39.3563 101.03 38.9786C99.415 38.6009 97.8469 37.7309 96.9811 36.3155C95.7801 34.3485 96.2788 31.3014 97.7387 29.5168Z" fill="#263238"/>
<path d="M108.076 40.4124C108.076 40.4124 108.125 40.4867 108.257 40.5695C108.444 40.6858 108.655 40.7583 108.874 40.7817C109.205 40.8183 109.538 40.7508 109.829 40.5886C110.182 40.3751 110.438 40.0338 110.546 39.6359C110.653 39.2379 110.603 38.8138 110.406 38.4518C110.237 38.1659 109.984 37.9397 109.68 37.8046C109.481 37.7143 109.263 37.6693 109.044 37.673C108.963 37.6674 108.883 37.6827 108.81 37.7176C109.094 37.7289 109.374 37.7937 109.634 37.9085C109.901 38.0477 110.122 38.2614 110.27 38.5239C110.434 38.8502 110.471 39.2253 110.376 39.5775C110.28 39.9298 110.058 40.2345 109.753 40.4337C109.496 40.585 109.201 40.6588 108.904 40.6459C108.615 40.6225 108.334 40.5432 108.076 40.4124Z" fill="#E0E0E0"/>
<path d="M94.8276 38.2317C94.8562 37.8899 94.9627 37.5593 95.1389 37.265C95.3151 36.9708 95.5563 36.7208 95.844 36.5341C96.1364 36.357 96.4775 36.2774 96.8181 36.3067C97.1587 36.3361 97.4812 36.473 97.7389 36.6975L98.2121 37.2598C98.5777 37.4296 98.8814 37.709 99.081 38.0592C99.2806 38.4094 99.3663 38.813 99.3261 39.2141C99.2713 39.6138 99.1036 39.9896 98.8428 40.2974C98.5819 40.6052 98.2388 40.8323 97.8535 40.952C97.4656 41.061 97.0561 41.0685 96.6645 40.9738C96.2729 40.879 95.9121 40.6852 95.617 40.4109C95.3283 40.1317 95.1071 39.7902 94.9703 39.4126C94.8335 39.0349 94.7847 38.631 94.8276 38.2317Z" fill="#263238"/>
<path d="M95.4168 40.256C95.3014 40.0785 95.2449 39.8691 95.2555 39.6577C95.281 39.2736 95.5589 38.7707 95.9409 38.3102C96.2766 37.9145 96.685 37.5868 97.144 37.3447C97.4963 37.1559 97.7382 37.088 97.7297 37.0625C97.5068 37.081 97.2901 37.1453 97.0931 37.2514C96.6018 37.4729 96.1667 37.8022 95.8199 38.2147C95.6275 38.4394 95.4642 38.6875 95.334 38.9532C95.2166 39.1694 95.1506 39.4097 95.1409 39.6555C95.1365 39.8238 95.1831 39.9895 95.2746 40.1308C95.3595 40.2285 95.4168 40.2624 95.4168 40.256Z" fill="#455A64"/>
<path d="M96.8745 41.1443C96.9234 41.1443 96.7195 40.2339 97.0084 39.1602C97.2973 38.0865 97.9048 37.3948 97.8581 37.3672C97.6991 37.4898 97.5644 37.6409 97.4609 37.8128C97.1852 38.2114 96.9817 38.6553 96.8597 39.1242C96.7373 39.5926 96.697 40.0786 96.7407 40.5607C96.7495 40.7617 96.7948 40.9595 96.8745 41.1443Z" fill="#455A64"/>
<path d="M105.984 44.1176C105.965 43.0566 105.94 42.2079 105.94 42.2079C105.94 42.2079 108.388 41.9384 109.063 38.8021C109.4 37.2425 109.462 34.6558 109.445 32.5403C109.43 30.6305 107.807 28.0417 105.456 28.0332L104.41 27.9102L100.408 29.5016C100.128 29.5148 99.8641 29.6325 99.6676 29.8314C99.471 30.0303 99.3565 30.2959 99.3467 30.5753L99.2363 43.9733L103.105 53.3651L105.88 49.6029L105.984 44.1176Z" fill="#936760"/>
<path d="M104.359 38.0624C104.383 37.9015 104.464 37.7548 104.589 37.6503C104.703 37.5522 104.846 37.4944 104.996 37.4856C105.146 37.4767 105.295 37.5174 105.419 37.6014C105.548 37.7008 105.649 37.8331 105.71 37.9844C105.771 38.1357 105.79 38.3005 105.765 38.4617C105.697 38.5584 105.608 38.6392 105.506 38.6986C105.403 38.758 105.289 38.7946 105.171 38.8059C105.133 38.8081 105.096 38.8081 105.058 38.8059C104.871 38.805 104.691 38.7337 104.555 38.6062C104.483 38.5362 104.428 38.4509 104.395 38.3567C104.361 38.2625 104.349 38.1619 104.359 38.0624Z" fill="#6F4C47"/>
<path d="M107.891 34.7014C107.886 34.8075 107.84 34.9077 107.763 34.9804C107.686 35.053 107.583 35.0925 107.477 35.0901C107.425 35.0916 107.373 35.0826 107.324 35.0637C107.276 35.0448 107.232 35.0164 107.195 34.9801C107.158 34.9439 107.128 34.9005 107.108 34.8527C107.088 34.8048 107.077 34.7534 107.077 34.7014C107.082 34.5955 107.128 34.4956 107.205 34.423C107.283 34.3505 107.385 34.3109 107.491 34.3126C107.543 34.3112 107.595 34.3202 107.643 34.3391C107.692 34.358 107.736 34.3864 107.773 34.4227C107.81 34.4589 107.84 34.5023 107.86 34.5501C107.88 34.598 107.891 34.6494 107.891 34.7014Z" fill="#263238"/>
<path d="M108.666 33.7133C108.613 33.7621 108.318 33.5178 107.881 33.5008C107.444 33.4838 107.113 33.6793 107.068 33.624C107.024 33.5688 107.102 33.5051 107.246 33.4116C107.443 33.2916 107.672 33.2345 107.902 33.248C108.129 33.2603 108.347 33.3443 108.524 33.4881C108.651 33.5922 108.691 33.6899 108.666 33.7133Z" fill="#263238"/>
<path d="M105.923 37.0171C106.157 36.9568 106.397 36.9268 106.639 36.928C106.751 36.928 106.851 36.9068 106.881 36.8304C106.898 36.7163 106.879 36.5998 106.826 36.4972C106.734 36.2214 106.641 35.9307 106.541 35.6294C106.15 34.3944 105.872 33.3822 105.923 33.3674C105.974 33.3525 106.331 34.3392 106.722 35.5742C106.815 35.8776 106.907 36.1683 106.992 36.4463C107.055 36.584 107.067 36.7398 107.026 36.8855C107.008 36.9244 106.981 36.9585 106.947 36.9851C106.914 37.0116 106.874 37.0299 106.832 37.0383C106.77 37.0528 106.705 37.0585 106.641 37.0553C106.401 37.0737 106.16 37.0608 105.923 37.0171Z" fill="#263238"/>
<path d="M105.94 42.206C104.448 42.1472 103.003 41.6756 101.764 40.8438C101.764 40.8437 102.772 43.0994 105.957 42.9763L105.94 42.206Z" fill="#6F4C47"/>
<path d="M104.62 37.2501C104.692 37.2501 104.667 37.7238 105.045 38.0829C105.423 38.4419 105.941 38.4185 105.941 38.4843C105.941 38.5141 105.824 38.5714 105.61 38.5651C105.331 38.5534 105.066 38.4443 104.86 38.257C104.663 38.0763 104.544 37.8268 104.526 37.5603C104.528 37.3606 104.588 37.2459 104.62 37.2501Z" fill="#263238"/>
<path d="M108.573 32.0655C108.494 32.1674 108.163 32.0782 107.771 32.0888C107.378 32.0995 107.049 32.1844 106.968 32.0888C106.932 32.04 106.981 31.938 107.121 31.8382C107.314 31.713 107.539 31.6473 107.768 31.6491C107.997 31.6413 108.222 31.702 108.416 31.8233C108.573 31.9146 108.613 32.0145 108.573 32.0655Z" fill="#263238"/>
<path d="M102.808 34.5873C102.803 34.6946 102.84 34.7996 102.913 34.8793C102.985 34.9589 103.085 35.0067 103.193 35.0122C103.244 35.0169 103.296 35.0112 103.345 34.9957C103.395 34.9801 103.441 34.9549 103.48 34.9215C103.52 34.8881 103.552 34.8472 103.576 34.8011C103.599 34.7551 103.613 34.7048 103.617 34.6532C103.623 34.5459 103.585 34.4409 103.513 34.3613C103.441 34.2816 103.34 34.2338 103.233 34.2283C103.181 34.2234 103.129 34.2288 103.08 34.2443C103.03 34.2597 102.985 34.2849 102.945 34.3184C102.905 34.3518 102.873 34.3929 102.849 34.439C102.826 34.4852 102.812 34.5357 102.808 34.5873Z" fill="#263238"/>
<path d="M102.682 33.5545C102.731 33.6076 103.043 33.3845 103.48 33.393C103.917 33.4015 104.234 33.6267 104.282 33.5736C104.331 33.5205 104.257 33.4546 104.119 33.3612C103.934 33.2268 103.711 33.1527 103.482 33.1488C103.255 33.1432 103.032 33.211 102.846 33.3421C102.704 33.4355 102.657 33.529 102.682 33.5545Z" fill="#263238"/>
<path d="M102.43 32.6162C102.515 32.7182 102.855 32.6162 103.26 32.6162C103.665 32.6162 104.009 32.6969 104.09 32.5928C104.124 32.544 104.073 32.4441 103.924 32.3464C103.72 32.227 103.488 32.1667 103.252 32.1722C103.017 32.1705 102.787 32.2353 102.587 32.3592C102.443 32.4654 102.394 32.5673 102.43 32.6162Z" fill="#263238"/>
<path d="M99.8946 35.8899C99.9073 35.6523 99.6654 35.0836 99.4341 35.0411C98.8188 34.9117 97.6941 34.899 97.5986 36.4777C97.465 38.6336 99.6569 38.3217 99.6654 38.2601C99.6739 38.1986 99.8522 36.7026 99.8946 35.8899Z" fill="#936760"/>
<path d="M99.1213 37.4285C99.1107 37.4285 99.0809 37.4518 99.0151 37.4773C98.9237 37.5096 98.8234 37.5058 98.7347 37.4667C98.5116 37.3691 98.3417 36.9935 98.3544 36.6051C98.3603 36.4196 98.4075 36.2377 98.4925 36.0725C98.5164 36.0061 98.5565 35.9467 98.6091 35.8996C98.6618 35.8526 98.7254 35.8194 98.7941 35.803C98.8376 35.7946 98.8827 35.8016 98.9216 35.8229C98.9604 35.8442 98.9905 35.8785 99.0066 35.9198C99.0321 35.9813 99.0172 36.0237 99.0278 36.028C99.0384 36.0322 99.0767 35.994 99.0639 35.9049C99.0557 35.8507 99.0286 35.8011 98.9875 35.7649C98.9588 35.7393 98.9251 35.72 98.8885 35.7083C98.8519 35.6966 98.8132 35.6928 98.775 35.6969C98.6851 35.7086 98.5998 35.7433 98.5272 35.7975C98.4546 35.8518 98.3973 35.9239 98.3608 36.0068C98.258 36.1878 98.2005 36.3908 98.193 36.5988C98.1802 37.0359 98.3778 37.4476 98.6858 37.5643C98.7425 37.5846 98.8031 37.5919 98.863 37.5857C98.923 37.5794 98.9808 37.5598 99.0321 37.5282C99.1128 37.4836 99.1277 37.4327 99.1213 37.4285Z" fill="#6F4C47"/>
<path d="M99.3444 35.0397L99.894 35.6084C102.26 33.3443 106.886 27.6723 106.627 28.0097C105.549 27.6071 104.386 27.4809 103.247 27.6426C101.485 27.9418 98.154 28.8224 98.2007 30.8998C98.2474 32.9772 99.3444 35.0397 99.3444 35.0397Z" fill="#263238"/>
<path d="M99.3959 40.4122C99.3959 40.4122 99.3471 40.4865 99.2177 40.5692C99.0298 40.6858 98.818 40.7584 98.5981 40.7814C98.2681 40.818 97.935 40.7505 97.6453 40.5883C97.2927 40.3748 97.0358 40.0337 96.928 39.6359C96.8201 39.238 96.8695 38.8139 97.066 38.4515C97.2356 38.1655 97.49 37.9393 97.7938 37.8043C97.9936 37.7136 98.2111 37.6686 98.4304 37.6728C98.5114 37.6679 98.5924 37.6832 98.666 37.7173C98.3829 37.7319 98.105 37.7996 97.8469 37.9168C97.5797 38.0561 97.3586 38.2698 97.2103 38.5321C97.0469 38.8585 97.0094 39.2335 97.1049 39.5858C97.2004 39.938 97.4222 40.2428 97.7281 40.4419C97.9884 40.5951 98.2879 40.6689 98.5896 40.6541C98.8714 40.626 99.1452 40.5439 99.3959 40.4122Z" fill="#E0E0E0"/>
<path d="M96.21 34.5651C96.2175 34.5224 96.2288 34.4805 96.2439 34.4399C96.283 34.3228 96.332 34.2092 96.3903 34.1004C96.6135 33.7006 96.9213 33.3545 97.2922 33.0861C97.8426 32.6932 98.4562 32.3975 99.1064 32.2118C99.8279 31.9784 100.643 31.7874 101.441 31.4522C102.192 31.1379 102.904 30.7377 103.563 30.2596C104.103 29.8674 104.606 29.4271 105.067 28.944C105.376 28.6169 105.667 28.2726 105.937 27.9128L106.149 27.6136C106.175 27.5767 106.205 27.5426 106.238 27.5117C106.223 27.5519 106.203 27.5898 106.177 27.6242C106.13 27.6963 106.066 27.8024 105.965 27.934C105.707 28.3074 105.424 28.662 105.116 28.995C104.66 29.4896 104.157 29.9394 103.616 30.3382C102.95 30.8271 102.228 31.2346 101.466 31.5519C100.702 31.8447 99.9227 32.0969 99.1319 32.3073C98.4898 32.4851 97.8817 32.7684 97.3325 33.1455C96.9654 33.4042 96.6555 33.7357 96.4222 34.1195C96.2651 34.3974 96.2227 34.5693 96.21 34.5651Z" fill="#455A64"/>
<path d="M96.8385 34.9047C96.8331 34.7435 96.862 34.5829 96.9234 34.4337C97.0854 34.0211 97.3679 33.667 97.734 33.4172C98.1839 33.082 98.8268 32.874 99.5334 32.7128C100.303 32.5592 101.053 32.3208 101.77 32.0019C102.483 31.6754 103.153 31.262 103.765 30.7712C104.263 30.3691 104.721 29.9192 105.131 29.428C105.407 29.0949 105.661 28.7448 105.893 28.3797L106.075 28.0784C106.095 28.0422 106.119 28.008 106.145 27.9766C106.134 28.0165 106.117 28.0544 106.094 28.089C106.052 28.1718 105.997 28.2758 105.929 28.4031C105.71 28.7789 105.463 29.1378 105.191 29.4768C104.285 30.6024 103.13 31.5018 101.817 32.1038C101.093 32.4271 100.335 32.6663 99.5568 32.8167C98.8501 32.9738 98.222 33.169 97.7786 33.4873C97.4194 33.7246 97.1365 34.0606 96.9637 34.4549C96.9081 34.6006 96.8662 34.7512 96.8385 34.9047Z" fill="#455A64"/>
<path d="M85.6736 52.4241C85.5526 52.3795 85.3935 50.6629 85.3935 50.6629C85.3935 50.6629 83.6768 49.29 83.4434 48.7319C83.21 48.1738 83.2439 46.8434 83.2439 46.8434L86.0555 44.9336C86.0555 44.9336 87.717 46.419 88.152 47.0046C88.396 47.3314 88.5764 48.2332 88.7037 48.9632C88.8055 49.5838 88.8291 50.2147 88.7737 50.8411L88.7334 51.3249C88.7334 51.3249 87.6024 53.1413 85.6736 52.4241Z" fill="#936760"/>
<path d="M83.5723 49.0676C83.3702 48.8881 83.1782 48.6976 82.9973 48.4968C82.6323 48.1021 82.227 47.7329 82.5729 47.3149C82.6248 47.2458 82.6908 47.1885 82.7665 47.1468C82.8423 47.1051 82.926 47.0799 83.0121 47.073C83.0121 47.073 82.7999 46.7059 82.9845 46.4746C83.0365 46.4063 83.1041 46.3514 83.1816 46.3145C83.2591 46.2776 83.3443 46.2597 83.4301 46.2624C83.4301 46.2624 83.1564 45.7361 83.4089 45.3818C83.5051 45.2524 83.6356 45.1524 83.7855 45.0932C83.9355 45.034 84.099 45.0178 84.2577 45.0465C84.2577 45.0465 83.1182 42.7251 83.0503 42.6062C82.7957 42.167 82.819 41.6874 83.3283 41.6344C83.515 41.6153 83.6763 41.7617 84.1601 42.4832C84.6439 43.2046 85.4545 44.4248 85.4545 44.4248C85.4545 44.4248 86.3393 45.1738 86.7828 45.594C87.2263 46.0141 88.1536 46.9987 88.3085 47.2915C88.7053 48.0533 88.6204 49.2798 88.6204 49.2798L85.3951 50.6612C85.3951 50.6612 83.7803 49.2522 83.5723 49.0676Z" fill="#936760"/>
<path d="M83.1097 47.1562C83.2436 47.2352 83.3714 47.3239 83.4921 47.4218L83.8978 47.7234C83.9799 47.7825 84.0566 47.8486 84.1272 47.921C84.2098 48.0013 84.2636 48.1066 84.2802 48.2205C84.2908 48.2794 84.2853 48.3401 84.2644 48.3962C84.2435 48.4522 84.2078 48.5016 84.1612 48.5392C84.0708 48.6018 83.9596 48.6269 83.8511 48.6093C83.7603 48.5997 83.6706 48.5812 83.5834 48.554C83.5006 48.5307 83.4262 48.5073 83.3561 48.4839C83.2202 48.4393 83.1097 48.399 83.0354 48.3671C82.961 48.3352 82.9228 48.3161 82.9249 48.3097C82.927 48.3034 83.097 48.3586 83.371 48.4351C83.53 48.484 83.6927 48.5202 83.8575 48.5434C83.9481 48.5543 84.0398 48.5333 84.1166 48.4839C84.1526 48.453 84.18 48.4132 84.196 48.3686C84.212 48.3239 84.2161 48.2758 84.208 48.229C84.1919 48.1307 84.145 48.0399 84.0741 47.9699C84.0089 47.8995 83.9378 47.8349 83.8617 47.7765L83.4645 47.46C83.3376 47.3693 83.2189 47.2676 83.1097 47.1562Z" fill="#6F4C47"/>
<path d="M85.917 46.468C85.8254 46.3054 85.7737 46.1234 85.7662 45.9369C85.7339 45.7535 85.7448 45.5652 85.798 45.3867C85.8214 45.3867 85.798 45.6331 85.8384 45.9305C85.8788 46.2279 85.9382 46.4616 85.917 46.468Z" fill="#6F4C47"/>
<path d="M87.4786 46.7035C87.0683 46.5199 86.6136 46.4587 86.1694 46.5273C85.7268 46.5957 85.2974 46.7316 84.8962 46.9305C84.5737 47.0833 84.2214 47.3082 84.1769 47.6626C84.1323 48.0169 84.4655 48.3565 84.8262 48.4265C85.1933 48.4672 85.564 48.3931 85.8872 48.2143C86.2078 48.0312 86.5499 47.8886 86.9057 47.7899" fill="#936760"/>
<path d="M86.9104 47.8006C86.9104 47.8006 86.8149 47.824 86.6472 47.8876C86.4148 47.9827 86.1875 48.0896 85.9661 48.208C85.8102 48.2884 85.6476 48.3551 85.4802 48.4075C85.2854 48.4715 85.0791 48.4925 84.8754 48.469C84.6446 48.439 84.4346 48.3203 84.2898 48.138C84.211 48.0425 84.1596 47.9273 84.1412 47.8049C84.1278 47.6767 84.1529 47.5474 84.2134 47.4335C84.3449 47.2258 84.5346 47.0613 84.7587 46.9603C84.9571 46.8608 85.1612 46.773 85.3698 46.6972C85.7238 46.5647 86.0975 46.493 86.4754 46.485C86.7297 46.4788 86.9831 46.5169 87.2244 46.5975C87.2904 46.6194 87.3549 46.6456 87.4175 46.676C87.4392 46.6858 87.4599 46.6979 87.479 46.7121C87.479 46.7121 87.3878 46.6739 87.2159 46.6251C86.9751 46.5577 86.7252 46.5284 86.4754 46.5381C86.1044 46.5552 85.7388 46.6333 85.3932 46.7694C85.1879 46.8448 84.9873 46.9327 84.7927 47.0325C84.5818 47.1278 84.4033 47.2827 84.2792 47.4781C84.224 47.5768 84.2017 47.6905 84.2155 47.8028C84.2309 47.9123 84.2756 48.0157 84.3449 48.102C84.479 48.2697 84.6715 48.3804 84.8839 48.4118C85.0786 48.4344 85.2759 48.4163 85.4632 48.3587C85.6286 48.309 85.7897 48.2458 85.9449 48.1699C86.1698 48.0554 86.4015 47.9547 86.6388 47.8685C86.704 47.8471 86.7707 47.8301 86.8382 47.8176C86.8613 47.8086 86.8856 47.8029 86.9104 47.8006Z" fill="#6F4C47"/>
<path d="M83.1514 47.1847C83.6882 47.5858 84.2123 48.0547 84.6962 48.5067C84.8286 48.6518 84.9969 48.7594 85.1842 48.8186C85.3349 48.8505 85.5959 48.6064 85.7168 48.5003L83.9832 46.6797" fill="#936760"/>
<path d="M83.9832 46.6797C84.036 46.7173 84.0844 46.7607 84.1275 46.8091L84.5009 47.1868C84.8171 47.5094 85.2542 47.9613 85.7444 48.4748L85.7698 48.5024L85.7401 48.5279C85.6476 48.611 85.5505 48.6889 85.4494 48.7613C85.4058 48.7902 85.3596 48.8151 85.3115 48.8356C85.2858 48.8462 85.2586 48.8526 85.2309 48.8547C85.2029 48.8604 85.174 48.8604 85.146 48.8547C85.0499 48.8263 84.9599 48.7803 84.8807 48.7189C84.7258 48.6 84.6028 48.4706 84.4733 48.356C84.2187 48.1226 83.9895 47.9147 83.7943 47.7428C83.5991 47.5709 83.4357 47.4351 83.3232 47.3417C83.2628 47.2959 83.2054 47.2463 83.1514 47.1932C83.2187 47.2287 83.282 47.2714 83.3402 47.3205C83.459 47.4054 83.6267 47.5327 83.8261 47.7025C84.0256 47.8722 84.2633 48.0738 84.5179 48.3072C84.6473 48.4197 84.7768 48.5512 84.9232 48.6616C84.9954 48.7175 85.0774 48.7592 85.1651 48.7847C85.2085 48.7897 85.2525 48.7855 85.2942 48.7724C85.3359 48.7592 85.3743 48.7373 85.407 48.7083C85.5065 48.6378 85.6021 48.562 85.6934 48.4812V48.5194C85.2033 48.0038 84.7746 47.5454 84.467 47.2144L84.1084 46.8219C84.0638 46.777 84.022 46.7295 83.9832 46.6797Z" fill="#6F4C47"/>
<path d="M83.4951 46.1279L85.2436 48.0971C85.3593 48.2442 85.4993 48.3704 85.6574 48.4705C85.7367 48.5201 85.8271 48.5491 85.9205 48.555C86.0138 48.5609 86.1071 48.5436 86.1921 48.5045C86.2978 48.4314 86.376 48.3251 86.4145 48.2025C86.4529 48.0799 86.4493 47.9479 86.4043 47.8276C86.3099 47.5875 86.1652 47.3705 85.9799 47.191C85.4523 46.5926 84.972 45.9541 84.5434 45.2812" fill="#936760"/>
<path d="M84.5471 45.2734C84.5471 45.2734 84.5662 45.2925 84.596 45.335L84.7233 45.5196C84.8357 45.6787 84.997 45.9079 85.205 46.1859C85.4129 46.4638 85.6739 46.7843 85.9752 47.1301C86.1457 47.3034 86.2889 47.5016 86.3996 47.7179C86.455 47.8401 86.4763 47.975 86.4612 48.1084C86.4501 48.2494 86.3865 48.3812 86.2829 48.4776C86.2287 48.5235 86.1651 48.557 86.0965 48.5757C86.028 48.5944 85.9561 48.5979 85.8861 48.5858C85.7535 48.5661 85.6284 48.512 85.5233 48.4288C85.3416 48.268 85.1734 48.0928 85.0203 47.9047L84.2161 46.9858C83.9933 46.7291 83.8129 46.5169 83.6793 46.362L83.535 46.1838C83.5169 46.1645 83.5013 46.1431 83.4883 46.1201C83.4883 46.1201 83.5095 46.1371 83.5456 46.1731L83.7005 46.3365L84.2543 46.9455L85.0713 47.8537C85.223 48.0371 85.389 48.2081 85.5678 48.3651C85.6631 48.4405 85.7765 48.4895 85.8967 48.5073C85.9565 48.5172 86.0178 48.5142 86.0764 48.4985C86.1349 48.4827 86.1895 48.4546 86.2362 48.416C86.3257 48.3314 86.3802 48.2163 86.389 48.0935C86.4029 47.9733 86.3838 47.8515 86.3338 47.7413C86.2222 47.5299 86.0791 47.3367 85.9095 47.1683C85.6081 46.8203 85.3535 46.4914 85.1498 46.2092C84.9461 45.927 84.7891 45.6936 84.6851 45.5281C84.6341 45.4453 84.5938 45.3817 84.5684 45.3371C84.559 45.3167 84.5519 45.2954 84.5471 45.2734Z" fill="#6F4C47"/>
<path d="M87.2153 49.7939C87.15 49.8283 87.0764 49.8438 87.0028 49.8385C86.8304 49.8479 86.6581 49.8174 86.4994 49.7493C86.3373 49.6841 86.1921 49.5832 86.0745 49.454C86.0232 49.4036 85.9846 49.3417 85.9619 49.2734C86.1144 49.4513 86.3064 49.591 86.5226 49.6813C86.7388 49.7717 86.9731 49.8102 87.2068 49.7939H87.2153Z" fill="#6F4C47"/>
<path d="M109.449 44.2405L108.838 51.9517C108.828 52.0836 108.766 52.2062 108.666 52.2928C108.566 52.3794 108.435 52.423 108.303 52.4142L104.006 52.1257C103.939 52.1217 103.874 52.1042 103.813 52.0743C103.753 52.0444 103.699 52.0026 103.656 51.9515C103.612 51.9004 103.579 51.841 103.559 51.7769C103.538 51.7128 103.531 51.6452 103.537 51.5782L104.24 43.8734C104.251 43.7426 104.313 43.6214 104.413 43.5358C104.512 43.4501 104.641 43.4068 104.772 43.4151L108.98 43.6888C109.048 43.6933 109.113 43.7113 109.174 43.7417C109.234 43.772 109.288 43.8142 109.331 43.8656C109.375 43.917 109.408 43.9767 109.428 44.0411C109.448 44.1055 109.456 44.1733 109.449 44.2405Z" fill="#455A64"/>
<path d="M115.601 54.0586C115.601 54.0586 116.884 62.7331 116.834 63.8981C116.783 65.063 115.465 67.6497 113.691 67.9022C111.917 68.1547 110.245 66.5335 110.194 64.4052C110.143 62.2769 109.88 55.5461 109.88 55.5461L111.204 54.8161L115.601 54.0586Z" fill="#936760"/>
<path d="M108.291 46.8906C108.291 46.8906 109.619 47.7076 110.012 47.9219C110.404 48.1362 110.353 49.7192 110.353 49.7192L112.59 54.918L109.895 55.8834C109.895 55.8834 108.934 54.0649 108.658 53.8358C108.469 53.6873 108.253 53.5777 108.021 53.5132C108.021 53.5132 107.883 54.0183 107.47 53.7891C107.141 53.5724 106.847 53.3086 106.595 53.0061C106.595 53.0061 106.226 53.2374 106.088 52.9615C105.95 52.6857 105.721 52.0873 105.721 52.0873C105.721 52.0873 106.502 51.0751 106.824 51.0751C107.147 51.0751 108.802 51.1664 108.802 51.1664C108.802 51.1664 108.711 51.0284 108.25 50.8459C107.79 50.6635 105.053 49.855 104.923 49.8062C104.73 49.7319 104.514 49.229 105.112 49.1823C105.71 49.1356 109.078 49.7383 109.078 49.7383C109.078 49.7383 109.263 48.8683 109.125 48.6773C108.987 48.4863 107.784 47.7182 108.291 46.8906Z" fill="#936760"/>
<path d="M106.585 52.9766C106.561 52.8512 106.565 52.7223 106.595 52.5984C106.624 52.4543 106.698 52.3232 106.807 52.2246C106.951 52.1206 107.125 52.0682 107.302 52.0759C107.604 52.0564 107.908 52.067 108.208 52.1077C108.333 52.1158 108.457 52.1446 108.573 52.1927C108.573 52.2246 108.004 52.129 107.3 52.1757C107.144 52.1679 106.989 52.2095 106.858 52.2947C106.763 52.3798 106.696 52.4916 106.665 52.6154C106.645 52.7372 106.618 52.8577 106.585 52.9766Z" fill="#6F4C47"/>
<path d="M107.12 53.1289C107.296 53.2011 107.469 53.2826 107.636 53.3732C107.818 53.4327 107.995 53.5037 108.167 53.5856C107.969 53.5988 107.771 53.5561 107.596 53.4624C107.408 53.4004 107.243 53.2844 107.12 53.1289Z" fill="#6F4C47"/>
<path d="M108.918 49.7188C109.098 49.7458 109.264 49.8281 109.394 49.9541C109.524 50.0802 109.612 50.2437 109.645 50.4219C109.617 50.4219 109.526 50.2095 109.324 50.0268C109.122 49.8441 108.908 49.7464 108.918 49.7188Z" fill="#6F4C47"/>
<path d="M85.9576 96.1393C85.9279 96.1393 87.0865 91.2588 88.5464 85.2579C90.0063 79.257 91.2115 74.4062 91.2413 74.4062C91.271 74.4062 90.1124 79.2867 88.6525 85.2898C87.1926 91.2928 85.9873 96.1457 85.9576 96.1393Z" fill="#455A64"/>
<path d="M117.713 103.223C117.713 103.253 97.4697 103.278 72.5028 103.278C47.5359 103.278 27.2861 103.253 27.2861 103.223C27.2861 103.193 47.5274 103.168 72.5028 103.168C97.4782 103.168 117.713 103.191 117.713 103.223Z" fill="#263238"/>
<path d="M107.173 26.7009L107.797 24.4495C106.971 23.1114 106.676 21.5127 106.969 19.9678C107.262 18.4229 108.122 17.0436 109.381 16.1009C110.639 15.1583 112.205 14.7205 113.77 14.8737C115.335 15.027 116.786 15.7601 117.838 16.9289C118.89 18.0978 119.466 19.6179 119.454 21.1903C119.442 22.7627 118.842 24.2737 117.772 25.4262C116.703 26.5787 115.24 27.2893 113.673 27.4184C112.106 27.5475 110.547 27.0857 109.304 26.1237L107.173 26.7009Z" fill="#8F9EC4"/>
<path d="M107.173 26.7022L107.316 26.6597L107.725 26.5452L109.3 26.1038L109.285 26.1441C109.281 26.1394 109.278 26.1334 109.278 26.1271C109.278 26.1209 109.281 26.1148 109.285 26.1102C109.29 26.1071 109.295 26.1055 109.301 26.1055C109.306 26.1055 109.312 26.1071 109.317 26.1102C110.153 26.7521 111.139 27.1712 112.181 27.3282C112.849 27.4307 113.528 27.4221 114.193 27.3027C115.431 27.0878 116.575 26.505 117.476 25.6303C118.378 24.7555 118.995 23.6295 119.247 22.3989C119.431 21.459 119.399 20.4897 119.154 19.5639C118.903 18.5971 118.42 17.7058 117.748 16.9666C117.076 16.2274 116.235 15.6623 115.296 15.32C114.332 14.9662 113.296 14.8556 112.279 14.9981C111.262 15.1407 110.296 15.532 109.467 16.1373C108.637 16.7426 107.97 17.5432 107.524 18.4682C107.078 19.3931 106.867 20.4138 106.91 21.4397C106.955 22.4972 107.267 23.5261 107.819 24.4296C107.821 24.4365 107.821 24.4439 107.819 24.4508C107.606 25.1744 107.451 25.724 107.341 26.1123C107.288 26.3011 107.246 26.4433 107.216 26.5367C107.186 26.63 107.171 26.6873 107.171 26.6873C107.171 26.6873 107.182 26.6407 107.205 26.5452C107.229 26.4497 107.269 26.3033 107.32 26.1208C107.422 25.7325 107.575 25.1659 107.77 24.4232V24.4444C107.102 23.371 106.774 22.1211 106.828 20.8581C106.882 19.5952 107.316 18.378 108.073 17.3656C109.044 16.0693 110.474 15.1933 112.07 14.9172C113.665 14.641 115.306 14.9856 116.656 15.8802C117.077 16.1655 117.463 16.4987 117.807 16.8733C118.153 17.2526 118.454 17.6706 118.704 18.1189C119.404 19.4316 119.629 20.9458 119.341 22.4052C119.085 23.6546 118.457 24.7974 117.54 25.6835C116.623 26.5697 115.459 27.1578 114.201 27.3706C113.527 27.4896 112.838 27.4954 112.162 27.3876C111.109 27.2192 110.116 26.7862 109.276 26.1293L109.312 26.0953C109.315 26.0975 109.317 26.1001 109.318 26.103C109.319 26.106 109.32 26.1091 109.32 26.1123C109.32 26.1155 109.319 26.1186 109.318 26.1215C109.317 26.1244 109.315 26.1271 109.312 26.1293L107.71 26.5537L107.301 26.664L107.173 26.7022Z" fill="#263238"/>
</g>
<defs>
<clipPath id="clip0">
<rect width="106.098" height="106.098" fill="white" transform="translate(19.4512 3.53516)"/>
</clipPath>
</defs>
</svg>
