<svg width="283" height="173" viewBox="0 0 283 173" fill="none" xmlns="http://www.w3.org/2000/svg">
<g clip-path="url(#clip0_5942_130094)">
<path d="M133.938 161.049H4.92235C2.37341 161.049 0.295044 158.97 0.295044 156.381V8.27236C0.295044 5.68292 2.37341 3.60352 4.96156 3.60352H185.466" stroke="#0061A0" stroke-miterlimit="10"/>
<path d="M114.981 128.28H26.4063C23.7611 128.28 21.5851 126.147 21.5851 123.459V52.5442C21.5851 49.8987 23.7184 47.7227 26.4063 47.7227H149.37L114.981 128.28Z" stroke="#B9C6E4" stroke-miterlimit="10"/>
<path d="M160.165 22.4204L100.987 161.178" stroke="#B9C6E4" stroke-miterlimit="10"/>
<path d="M17.233 21.1824C18.5055 21.1824 19.537 20.1508 19.537 18.8783C19.537 17.6058 18.5055 16.5742 17.233 16.5742C15.9606 16.5742 14.9291 17.6058 14.9291 18.8783C14.9291 20.1508 15.9606 21.1824 17.233 21.1824Z" fill="#F7C689"/>
<path d="M31.3983 21.1824C32.6708 21.1824 33.7023 20.1508 33.7023 18.8783C33.7023 17.6058 32.6708 16.5742 31.3983 16.5742C30.1259 16.5742 29.0944 17.6058 29.0944 18.8783C29.0944 20.1508 30.1259 21.1824 31.3983 21.1824Z" fill="#F7C689"/>
<path d="M45.5633 21.1824C46.8357 21.1824 47.8672 20.1508 47.8672 18.8783C47.8672 17.6058 46.8357 16.5742 45.5633 16.5742C44.2908 16.5742 43.2593 17.6058 43.2593 18.8783C43.2593 20.1508 44.2908 21.1824 45.5633 21.1824Z" fill="#F7C689"/>
<path d="M134.352 82.5824H38.0544V68.6299H140.496L134.352 82.5824Z" fill="#B9C6E4"/>
<path d="M261.667 162.841H226.083" stroke="#E5E5E5" stroke-miterlimit="10"/>
<path d="M141.349 151.79L156.239 162.5C161.956 162.457 168.143 162.414 173.86 162.372" stroke="#E5E5E5" stroke-miterlimit="10"/>
<path d="M161 23H223C220.299 19.3944 217.082 16.3389 212.712 15.3306C211.498 15.0556 210.224 14.8722 209.04 15.2083C207.857 15.5444 206.734 16.4 206.4 17.6222C201.726 10.5333 193.775 5.76667 185.46 4.30001C183.063 3.87223 180.513 3.78056 178.359 4.85001C176.234 5.91945 174.778 7.96667 174.474 10.35C174.201 12.7333 175.112 15.0861 176.902 16.6444C175.779 14.0472 171.895 12.8556 169.892 14.8417C168.526 16.1861 168.192 18.2639 167.161 19.9139C165.825 21.9306 163.367 23 161 23Z" stroke="#C2D9F0" stroke-miterlimit="10"/>
<path d="M46.2034 117.955C50.6805 117.955 54.3099 114.325 54.3099 109.848C54.3099 105.37 50.6805 101.741 46.2034 101.741C41.7262 101.741 38.0968 105.37 38.0968 109.848C38.0968 114.325 41.7262 117.955 46.2034 117.955Z" fill="#ED4F2E"/>
<path d="M59.0032 117.955C63.4803 117.955 67.1097 114.325 67.1097 109.848C67.1097 105.37 63.4803 101.741 59.0032 101.741C54.526 101.741 50.8966 105.37 50.8966 109.848C50.8966 114.325 54.526 117.955 59.0032 117.955Z" fill="#F7C689"/>
<path d="M52.6033 114.84C53.5458 114.84 54.3099 112.605 54.3099 109.848C54.3099 107.091 53.5458 104.855 52.6033 104.855C51.6607 104.855 50.8966 107.091 50.8966 109.848C50.8966 112.605 51.6607 114.84 52.6033 114.84Z" fill="#F27932"/>
<path d="M169.702 15.1243C169.869 14.1008 169.174 13.1365 168.15 12.9704C167.127 12.8043 166.162 13.4993 165.996 14.5228C165.83 15.5463 166.525 16.5106 167.549 16.6767C168.572 16.8428 169.536 16.1478 169.702 15.1243Z" fill="#F7C689"/>
<path d="M119.888 117.187H96.4642V102.978H125.818L119.888 117.187Z" stroke="#B9C6E4" stroke-miterlimit="10"/>
<path d="M143.013 29.8449C145.628 29.8449 147.749 27.7244 147.749 25.1087C147.749 22.493 145.628 20.3726 143.013 20.3726C140.397 20.3726 138.277 22.493 138.277 25.1087C138.277 27.7244 140.397 29.8449 143.013 29.8449Z" stroke="#4B4065" stroke-width="2" stroke-miterlimit="10"/>
<path d="M227.747 43.2002C228.857 42.9015 229.881 42.4748 230.819 41.8774C229.881 41.2801 228.814 40.8534 227.747 40.5547C226.638 40.256 225.785 39.4027 225.486 38.2933C225.187 37.2266 224.761 36.1599 224.163 35.2212C223.566 36.1599 223.139 37.2266 222.841 38.2933C222.542 39.4027 221.689 40.256 220.58 40.5547C219.47 40.8534 218.446 41.2801 217.508 41.8774C218.446 42.4748 219.513 42.9015 220.58 43.2002C221.689 43.4988 222.542 44.3522 222.841 45.4616C223.097 46.5709 223.566 47.595 224.163 48.5337C224.761 47.595 225.187 46.5283 225.486 45.4616C225.785 44.3522 226.638 43.4988 227.747 43.2002Z" fill="#C2D9F0"/>
<path opacity="0.31" d="M197.369 138.905C216.927 138.905 232.782 123.049 232.782 103.49C232.782 83.9309 216.927 68.0752 197.369 68.0752C177.811 68.0752 161.956 83.9309 161.956 103.49C161.956 123.049 177.811 138.905 197.369 138.905Z" fill="#C2D9F0"/>
<path d="M181.668 88.1294V123.288" stroke="#495894" stroke-width="2" stroke-miterlimit="10"/>
<path d="M202.233 88.1294V132.888" stroke="#495894" stroke-width="2" stroke-miterlimit="10"/>
<path d="M222.841 88.1294V122.989" stroke="#495894" stroke-width="2" stroke-miterlimit="10"/>
<path d="M236.921 89.6232C238.924 89.6232 240.547 87.9995 240.547 85.9964C240.547 83.9934 238.924 82.3696 236.921 82.3696C234.918 82.3696 233.294 83.9934 233.294 85.9964C233.294 87.9995 234.918 89.6232 236.921 89.6232Z" fill="#C2D9F0"/>
<path d="M236.921 87.4468C237.722 87.4468 238.371 86.7973 238.371 85.9961C238.371 85.1949 237.722 84.5454 236.921 84.5454C236.12 84.5454 235.47 85.1949 235.47 85.9961C235.47 86.7973 236.12 87.4468 236.921 87.4468Z" fill="white"/>
<path d="M237.902 50.9229C239.222 50.9229 240.291 49.8531 240.291 48.5335C240.291 47.2138 239.222 46.144 237.902 46.144C236.583 46.144 235.513 47.2138 235.513 48.5335C235.513 49.8531 236.583 50.9229 237.902 50.9229Z" fill="#C2D9F0"/>
<path fill-rule="evenodd" clip-rule="evenodd" d="M202.594 138.724C202.818 143.177 203.531 146.965 204.732 150.461C205.518 152.771 207.686 154.325 210.126 154.325C210.126 154.327 210.126 154.327 210.126 154.327C212.182 154.327 214.035 153.091 214.823 151.192C216.188 147.913 217.338 143.886 218.161 138.724H202.594Z" fill="#A4CE4E"/>
<path fill-rule="evenodd" clip-rule="evenodd" d="M202.757 140.795C202.742 140.622 202.728 140.449 202.714 140.274L206.762 140.349C206.762 140.349 207.69 143.446 208.541 146.197C209.676 149.863 210.759 152.3 213.106 153.353C212.883 153.513 212.646 153.655 212.399 153.776C211.646 154.051 210.714 154.303 210.144 154.303C210.144 154.303 210.144 154.303 210.144 154.301C210.129 154.301 210.113 154.301 210.098 154.301C210.009 154.3 209.92 154.297 209.832 154.293L209.803 154.291C209.766 154.288 209.727 154.286 209.69 154.283L209.662 154.281L209.634 154.278L209.606 154.276C209.597 154.275 209.588 154.274 209.578 154.273L209.563 154.271C209.53 154.269 209.497 154.264 209.464 154.261C209.447 154.259 209.429 154.256 209.411 154.254L209.382 154.251C209.337 154.244 209.29 154.237 209.245 154.23L209.217 154.226C209.208 154.224 209.198 154.222 209.189 154.22L209.161 154.216C209.152 154.214 209.144 154.213 209.134 154.211L209.108 154.206C209.077 154.201 209.047 154.195 209.017 154.189C208.867 154.159 208.72 154.123 208.575 154.081C208.527 154.068 208.48 154.053 208.431 154.038C208.369 154.018 208.306 153.997 208.245 153.975C208.221 153.967 208.198 153.958 208.175 153.95L208.123 153.931C207.764 153.794 207.421 153.622 207.098 153.419L207.052 153.389C207.035 153.378 207.017 153.366 207 153.354L206.961 153.328L206.916 153.298L206.901 153.288C206.749 153.183 206.603 153.071 206.463 152.951C206.413 152.91 206.365 152.868 206.318 152.825L206.278 152.788L206.237 152.751C206.224 152.739 206.211 152.726 206.198 152.714L206.165 152.681C205.983 152.504 205.812 152.313 205.655 152.112C205.573 152.008 205.495 151.9 205.421 151.79C205.397 151.755 205.374 151.72 205.351 151.684C205.322 151.639 205.295 151.594 205.267 151.548L205.258 151.534L205.249 151.519C205.186 151.412 205.126 151.303 205.068 151.192L205.056 151.167L205.047 151.149C204.971 150.996 204.901 150.839 204.838 150.679L204.828 150.652C204.814 150.614 204.799 150.577 204.786 150.539C204.774 150.505 204.762 150.471 204.75 150.437L204.723 150.359L204.715 150.334L204.698 150.283L204.687 150.252L204.671 150.204L204.66 150.173L204.645 150.126L204.634 150.094L204.618 150.047L204.608 150.015L204.592 149.965L204.582 149.938L204.563 149.875L204.557 149.86L204.531 149.781L204.525 149.76L204.506 149.704L204.497 149.674L204.481 149.625L204.471 149.593L204.456 149.545L204.446 149.513L204.431 149.466L204.421 149.434L204.406 149.384L204.397 149.355L204.379 149.299L204.372 149.276L204.349 149.197L204.344 149.182L204.325 149.118L204.316 149.09L204.301 149.039L204.292 149.007L204.277 148.959L204.268 148.926L204.253 148.879L204.244 148.846L204.229 148.797L204.22 148.766L204.205 148.713L204.197 148.686L204.175 148.609L204.174 148.607L204.152 148.526L204.144 148.501L204.128 148.447L204.12 148.416L204.106 148.367L204.097 148.333L204.084 148.285L204.075 148.252L204.061 148.204L204.052 148.172L204.038 148.12L204.031 148.09L204.013 148.027L204.009 148.01L203.987 147.929L203.981 147.906L203.966 147.848L203.958 147.818L203.944 147.767L203.935 147.734L203.923 147.686L203.915 147.652L203.902 147.603L203.893 147.57L203.881 147.519L203.873 147.488L203.858 147.431L203.852 147.407L203.832 147.324L203.827 147.308L203.811 147.243L203.804 147.214L203.791 147.161L203.783 147.128L203.771 147.079L203.763 147.044L203.751 146.996L203.743 146.961L203.731 146.912L203.723 146.878L203.711 146.824L203.704 146.795L203.686 146.719L203.684 146.712L203.665 146.63L203.659 146.601L203.647 146.548L203.639 146.514L203.628 146.464L203.62 146.429L203.609 146.38L203.601 146.345L203.59 146.296L203.583 146.261L203.572 146.209L203.564 146.177L203.551 146.115L203.547 146.093L203.529 146.011L203.523 145.984L203.511 145.927L203.504 145.893L203.494 145.842L203.486 145.806L203.476 145.757L203.469 145.72L203.459 145.672L203.451 145.635L203.441 145.586L203.434 145.55L203.423 145.496L203.417 145.466L203.401 145.382L203.396 145.358L203.385 145.298L203.378 145.263L203.368 145.212L203.361 145.174L203.352 145.127L203.345 145.087L203.336 145.04L203.328 145.002L203.32 144.953L203.312 144.916L203.303 144.866L203.297 144.829L203.286 144.767L203.281 144.744L203.278 144.727L203.267 144.66L203.26 144.623L203.252 144.574L203.244 144.533L203.236 144.487L203.229 144.446L203.221 144.4L203.214 144.359L203.207 144.314L203.2 144.272L203.192 144.226L203.185 144.185L203.177 144.135L203.171 144.097L203.158 144.014L203.151 143.973L203.143 143.927L203.136 143.883L203.13 143.839L203.123 143.794L203.116 143.751L203.11 143.707L203.102 143.664L203.095 143.618L203.089 143.576L203.082 143.53L203.076 143.489L203.069 143.441L203.064 143.404L203.057 143.357L203.05 143.309L203.044 143.271L203.037 143.221L203.032 143.182L203.025 143.133L203.019 143.094L203.012 143.044L203.008 143.005L203 142.955L202.995 142.918L202.988 142.866L202.984 142.831L202.976 142.776L202.974 142.753L202.965 142.691L202.956 142.617L202.954 142.606L202.947 142.547L202.942 142.516L202.936 142.46L202.932 142.427L202.925 142.371L202.921 142.338L202.914 142.281L202.91 142.249L202.903 142.191L202.9 142.162L202.892 142.1L202.891 142.085L202.882 142.013C202.879 141.985 202.875 141.956 202.873 141.927L202.864 141.854L202.863 141.84L202.855 141.774L202.853 141.749L202.846 141.685L202.843 141.66L202.836 141.596L202.833 141.571L202.826 141.505L202.824 141.484L202.817 141.413L202.816 141.406C202.805 141.295 202.794 141.184 202.783 141.071L202.782 141.063L202.775 140.987L202.774 140.972L202.767 140.898L202.765 140.883L202.759 140.807L202.757 140.795Z" fill="#FFC2BA"/>
<path fill-rule="evenodd" clip-rule="evenodd" d="M154.193 138.843C154.416 143.295 155.13 147.084 156.331 150.58C157.116 152.89 159.285 154.443 161.725 154.443C161.725 154.446 161.725 154.446 161.725 154.446C163.78 154.446 165.634 153.209 166.422 151.311C167.787 148.032 168.937 144.005 169.76 138.843H154.193Z" fill="#FFC3BB"/>
<path fill-rule="evenodd" clip-rule="evenodd" d="M154.225 139.427C154.214 139.233 154.203 139.039 154.193 138.843H169.76C169.685 139.311 169.608 139.769 169.528 140.218L166.984 140.176C166.513 141.686 163.662 150.802 162.262 152.268C161.115 153.467 160.519 153.866 159.928 154.153C158.285 153.607 156.944 152.328 156.349 150.634L156.349 150.633L156.341 150.61L156.331 150.58C156.153 150.062 155.986 149.538 155.829 149.006C155.808 148.935 155.787 148.863 155.767 148.791C155.71 148.594 155.655 148.396 155.601 148.195C155.59 148.153 155.578 148.111 155.567 148.069C155.504 147.832 155.442 147.592 155.383 147.351C155.333 147.147 155.284 146.942 155.238 146.735C155.172 146.448 155.109 146.159 155.049 145.866C155.007 145.661 154.967 145.454 154.928 145.245C154.912 145.157 154.895 145.068 154.878 144.979L154.862 144.888C154.839 144.758 154.816 144.628 154.794 144.496C154.754 144.26 154.716 144.02 154.679 143.779L154.665 143.685C154.64 143.522 154.617 143.358 154.593 143.192L154.584 143.119L154.581 143.098C154.5 142.503 154.43 141.898 154.37 141.28L154.361 141.181L154.359 141.165C154.342 140.981 154.325 140.797 154.31 140.611C154.278 140.222 154.249 139.828 154.225 139.427Z" fill="#A4CE4E"/>
<path d="M230.173 97.1426C231.863 96.0905 233.278 94.3644 234.029 92.4075C234.75 90.5322 234.954 88.3906 234.039 86.4662L233.669 85.6877L233.177 86.3955C232.242 87.7408 230.775 88.6231 229.498 88.7239C228.785 88.7802 228.109 88.6334 227.528 88.2389C226.947 87.844 226.42 87.1728 226.057 86.1087C225.647 84.9059 225.846 83.863 226.417 83.0576C226.998 82.2392 227.994 81.6254 229.233 81.3764L229.134 80.8862L229.233 81.3764C230.168 81.1885 231.25 81.243 232.329 81.6288L233.076 81.8958L232.995 81.1069C232.918 80.3633 232.734 79.6399 232.467 78.9481L232 79.1283L232.467 78.9481C231.766 77.1343 230.527 75.5117 229.066 74.2625L229.061 74.2577L229.055 74.253C228.91 74.1366 228.887 73.9236 229.004 73.7782C229.12 73.6339 229.333 73.6104 229.479 73.7275L229.484 73.7321L229.49 73.7365C231.15 74.9949 232.563 76.6716 233.419 78.5474C233.985 79.7908 234.294 81.12 234.277 82.4879L234.274 82.7218L234.452 82.874C235.147 83.4688 235.798 84.2525 236.354 85.257C237.731 87.7477 237.767 90.6803 236.897 93.4136L236.897 93.4138C236.044 96.0959 234.252 98.5023 232.092 100.03L232.091 100.031C231.997 100.098 231.699 100.253 231.225 100.467C230.769 100.672 230.188 100.914 229.563 101.153L229.167 101.305L229.252 101.72C229.404 102.464 229.545 103.24 229.676 104.052L230.169 103.973L229.676 104.052C232.116 119.252 232.016 133.418 227.542 147.693C226.33 151.535 222.767 154.148 218.74 154.148H218.617C215.111 154.097 212.009 151.843 210.882 148.512L210.882 148.512C210.156 146.365 209.367 144.032 208.759 142.236L208.015 140.036L207.802 139.406L207.745 139.239L207.731 139.196L207.727 139.185L207.726 139.182L207.726 139.182L207.726 139.182L207.252 139.342L207.726 139.182L207.611 138.842H207.252H165.975H165.621L165.503 139.175L165.975 139.342L165.503 139.175L165.503 139.175L165.503 139.176L165.502 139.179L165.497 139.192L165.479 139.244L165.409 139.442L165.146 140.185L164.242 142.743C163.512 144.808 162.584 147.433 161.791 149.678C160.844 152.358 158.31 154.149 155.469 154.149H155.468C151.899 154.149 148.802 151.689 147.993 148.213L146.581 142.14L146.093 140.04L145.954 139.442L145.917 139.283L145.908 139.242L145.905 139.232L145.905 139.229L145.904 139.229L145.904 139.229L145.417 139.342L145.904 139.228L145.814 138.842H145.417H133C131.744 138.842 130.593 138.108 130.164 136.974C128.596 132.831 125.474 122.173 130.465 109.733C130.749 109.028 131.504 108.569 132.332 108.569H132.332C133.986 108.568 136.64 108.567 138.88 108.567L141.754 108.566L142.627 108.566L142.865 108.566H142.927H142.942H142.946H142.947H142.948L142.948 108.066V108.566H143.416L143.447 108.099L143.447 108.099L143.447 108.099L143.447 108.098L143.447 108.09L143.45 108.057C143.452 108.028 143.456 107.982 143.462 107.922C143.473 107.801 143.492 107.621 143.521 107.388C143.58 106.921 143.68 106.241 143.849 105.395C144.186 103.704 144.792 101.354 145.868 98.7311C148.02 93.4847 152.045 87.1595 159.545 82.792L159.958 82.5514L159.736 82.1279L155.872 74.751C156.024 74.7131 156.206 74.673 156.414 74.6359C157.121 74.5102 158.129 74.4196 159.321 74.5646C161.69 74.8526 164.836 76.0758 167.822 79.9167L168.019 80.17L168.331 80.0965C182.884 76.6721 195.692 76.3053 212.022 81.1507L212.023 81.151C215.783 82.2602 219.184 84.3412 221.884 87.1841L221.885 87.1845C223.78 89.1762 225.265 91.1617 226.44 93.4076C227.073 94.6171 227.618 95.9058 228.09 97.3163L228.241 97.7675L228.699 97.639C229.033 97.5452 229.342 97.4546 229.587 97.3758C229.709 97.3365 229.82 97.2986 229.912 97.2637C229.993 97.2328 230.093 97.1919 230.173 97.1426ZM230.173 97.1426L229.908 96.7181M230.173 97.1426C230.173 97.1425 230.173 97.1424 230.173 97.1424L229.908 96.7181M229.908 96.7181C229.773 96.8028 229.227 96.9715 228.564 97.1575M229.908 96.7181C231.503 95.7257 232.849 94.0874 233.563 92.2281C234.183 90.6152 234.385 88.8433 233.811 87.2221L228.564 97.1575M228.564 97.1575C228.084 95.7239 227.529 94.4104 226.883 93.1757C225.682 90.8814 224.168 88.8586 222.247 86.8398C219.486 83.9332 216.009 81.8055 212.165 80.6714M228.564 97.1575L212.165 80.6714M212.165 80.6714C195.74 75.7981 182.843 76.1681 168.217 79.6098C163.046 72.9588 157.311 73.8504 155.633 74.2961L212.165 80.6714ZM159.294 82.36L155.382 74.8938L159.294 82.36ZM232.408 84.8741L232.601 84.4902L228.361 85.4133L227.879 85.5464C227.879 85.5466 227.879 85.5467 227.879 85.5468C228.03 86.0939 228.306 86.5288 228.712 86.7827C229.125 87.0414 229.6 87.0674 230.046 86.9294L230.046 86.9293C230.998 86.6343 231.91 85.8646 232.408 84.8741Z" stroke="#FFA412"/>
<path d="M167.299 136.564L167.458 138.874H166.548L167.299 136.564ZM206.469 138.874H205.25L205.704 136.616L206.36 138.552L206.469 138.874ZM200.288 89.3209L200.288 89.3209C211.547 90.2016 220.234 99.5952 220.234 110.889C220.234 122.594 210.928 132.18 199.227 132.524H199.227C191.629 132.749 184.003 132.749 176.348 132.521L176.348 132.521C164.714 132.179 155.447 122.7 155.342 111.085V110.886C155.342 99.5917 164.031 90.1977 175.291 89.3189L175.291 89.3188C183.574 88.6632 191.906 88.6574 200.288 89.3209ZM139.011 114.863L139.011 114.863C139.044 115.077 138.896 115.279 138.682 115.311L138.681 115.311C138.467 115.344 138.266 115.196 138.233 114.982C137.801 112.166 137.185 110.12 136.516 108.635L137.201 108.635H137.202H137.366C138.006 110.141 138.597 112.16 139.011 114.863ZM141.812 113.43L141.811 113.43C141.598 113.47 141.392 113.329 141.352 113.116C140.995 111.215 140.514 109.756 139.99 108.635H140.854C141.345 109.764 141.791 111.184 142.126 112.971C142.166 113.185 142.024 113.39 141.812 113.43ZM229.11 97.7063C229.095 97.6469 229.081 97.5908 229.068 97.5383C229.224 97.4921 229.369 97.4479 229.496 97.4069C229.614 97.3692 229.72 97.3328 229.81 97.2991C230.098 98.2704 230.41 99.4198 230.698 100.689C230.472 100.785 230.227 100.886 229.97 100.989C229.859 100.582 229.708 100.012 229.556 99.4305C229.391 98.8025 229.226 98.1636 229.11 97.7063ZM234.538 85.7285C234.766 85.159 235.007 84.426 235.123 83.6563C235.336 83.8977 235.543 84.1605 235.741 84.4456C235.528 85.3708 235.123 86.4953 234.355 87.6241C234.28 87.3309 234.184 87.0407 234.064 86.755C234.066 86.7506 234.069 86.7462 234.071 86.7418C234.192 86.5153 234.364 86.161 234.538 85.7285ZM231.665 83.6114C231.637 83.7252 231.608 83.8309 231.58 83.9271C231.376 83.827 231.168 83.7465 230.957 83.6858C231.28 82.8691 231.304 82.0559 231.226 81.3917C231.457 81.4322 231.691 81.487 231.924 81.5569C231.94 82.3127 231.807 83.0508 231.665 83.6114ZM158.702 84.2929L158.702 84.2928L158.314 83.5188C158.535 83.378 158.759 83.2388 158.986 83.1015L159.406 83.9403C159.503 84.1346 159.424 84.3717 159.23 84.4688L159.454 84.9158L159.231 84.4686C159.036 84.566 158.799 84.4869 158.702 84.2929ZM169.036 80.1974C168.994 80.1316 168.946 80.0551 168.895 79.9754C169.165 79.9135 169.433 79.8527 169.702 79.7929L169.798 79.9295C169.923 80.1065 169.881 80.3528 169.704 80.4783C169.529 80.602 169.287 80.562 169.16 80.3911L169.158 80.3871L169.131 80.3451L169.036 80.1974Z" stroke="#FFA412"/>
<path d="M131.79 139.361C134.429 139.361 136.568 132.359 136.568 123.723C136.568 115.086 134.429 108.084 131.79 108.084C129.152 108.084 127.013 115.086 127.013 123.723C127.013 132.359 129.152 139.361 131.79 139.361Z" fill="#0090D9"/>
<path fill-rule="evenodd" clip-rule="evenodd" d="M129.277 116.727V130.677C129.277 131.17 129.678 131.571 130.171 131.571C130.664 131.571 131.065 131.17 131.065 130.677V116.727C131.065 116.234 130.664 115.833 130.171 115.833C129.678 115.833 129.277 116.234 129.277 116.727Z" fill="#D7441E"/>
<path fill-rule="evenodd" clip-rule="evenodd" d="M132.615 116.727V130.677C132.615 131.17 133.016 131.571 133.509 131.571C134.002 131.571 134.403 131.17 134.403 130.677V116.727C134.403 116.234 134.002 115.833 133.509 115.833C133.016 115.833 132.615 116.234 132.615 116.727Z" fill="#D7441E"/>
<path fill-rule="evenodd" clip-rule="evenodd" d="M146.344 104.031C146.325 104.537 146.267 105.621 146.532 106.598C146.865 107.823 147.646 108.882 149.302 108.975C149.985 109.013 150.921 108.925 151.684 108.186C152.338 107.554 152.924 106.36 152.878 104.046L151.09 104.083C151.121 105.636 150.88 106.477 150.441 106.902C150.113 107.219 149.696 107.207 149.403 107.191C148.694 107.15 148.4 106.653 148.257 106.129C148.047 105.357 148.115 104.499 148.13 104.099L146.344 104.031Z" fill="black"/>
<path d="M207.408 81.9751H171.956L172.852 85.9141H208.303L207.408 81.9751Z" fill="black"/>
<path d="M141.92 77.8414C151.817 77.8414 159.839 69.818 159.839 59.9207C159.839 50.0234 151.817 42 141.92 42C132.023 42 124 50.0234 124 59.9207C124 69.818 132.023 77.8414 141.92 77.8414Z" fill="white" stroke="#F7C689" stroke-miterlimit="10"/>
<path fill-rule="evenodd" clip-rule="evenodd" d="M141.382 51.6623L141.492 44.1386C141.634 44.1347 141.777 44.1328 141.92 44.1328C142.296 44.1328 142.666 44.1463 143.034 44.1714L142.924 51.6816C144.305 51.6642 145.743 51.5505 147.222 51.3094C146.251 48.502 145.061 46.0841 144.045 44.2716C144.71 44.3584 145.366 44.4857 146.004 44.6515C146.929 46.4119 147.922 48.5772 148.754 51.0164C150.416 50.6481 152.122 50.114 153.85 49.3697C154.213 49.763 154.556 50.1757 154.878 50.6037C152.963 51.4618 151.069 52.0749 149.224 52.4895C149.338 52.8713 149.446 53.2569 149.548 53.6502C150.109 55.7731 150.506 58.0465 150.622 60.4008L158.133 60.6244C158.125 61.145 158.09 61.6579 158.034 62.165L150.655 61.9452C150.639 64.5656 150.252 67.265 149.33 69.9567C150.744 70.3559 152.18 70.8823 153.63 71.559C153.245 71.9601 152.84 72.3419 152.415 72.7024C151.191 72.1626 149.978 71.7364 148.781 71.4029C148.142 72.9377 147.319 74.4648 146.283 75.9649C145.549 76.1712 144.793 76.3255 144.02 76.4257C145.414 74.6595 146.472 72.8509 147.253 71.0269C145.672 70.6875 144.129 70.5063 142.645 70.4465L142.554 76.5472C142.344 76.5549 142.132 76.5607 141.92 76.5607C141.615 76.5607 141.312 76.5511 141.011 76.5356L141.102 70.4272C139.251 70.4542 137.508 70.6586 135.913 70.9632C136.761 72.7101 137.864 74.5053 139.268 76.3428C138.476 76.2136 137.704 76.0247 136.956 75.7836C135.905 74.2585 135.049 72.7622 134.363 71.3007C133.113 71.6034 131.979 71.9582 130.988 72.3168C130.574 71.937 130.178 71.5378 129.806 71.1175C130.93 70.6875 132.255 70.2479 133.744 69.8757C132.635 67.1165 132.122 64.4904 132.026 62.0339C132.018 61.8179 132.012 61.6039 132.01 61.3918L125.728 61.2048C125.714 60.9213 125.707 60.6341 125.707 60.3468C125.707 60.1173 125.71 59.8898 125.72 59.6622L132.051 59.8493C132.226 56.9686 132.959 54.354 133.935 52.0672C131.921 51.5312 130.277 50.9026 129.12 50.3994C129.449 49.9732 129.802 49.5664 130.172 49.1749C131.287 49.6396 132.789 50.1872 134.588 50.6519C135.894 48.0316 137.467 45.9241 138.744 44.4432C139.511 44.2909 140.298 44.1926 141.1 44.1521C139.878 45.39 137.791 47.7635 136.121 51.0106C137.71 51.3403 139.48 51.589 141.382 51.6623ZM149.106 61.8989L142.774 61.7119L142.668 68.9078C144.324 68.9714 146.048 69.1778 147.816 69.573C148.715 66.9951 149.093 64.4075 149.106 61.8989ZM133.555 61.4381C133.557 61.6155 133.56 61.7948 133.568 61.9741C133.659 64.3419 134.172 66.8697 135.269 69.5287C137.053 69.1662 139.023 68.9194 141.125 68.8904L141.233 61.6656L133.555 61.4381ZM147.703 52.7903C146.048 53.0737 144.44 53.2029 142.901 53.2202L142.797 60.1694L149.07 60.3545C148.956 58.1525 148.58 56.0276 148.057 54.0416C147.946 53.6194 147.828 53.201 147.703 52.7903ZM135.443 52.4336C134.488 54.6143 133.767 57.1248 133.593 59.8956L141.256 60.1231L141.359 53.1971C139.205 53.1161 137.213 52.8211 135.443 52.4336Z" fill="#FFA412" fill-opacity="0.2"/>
<path d="M193.311 97.3336C201.214 97.3336 207.621 90.9909 207.621 83.1668C207.621 75.3427 201.214 69 193.311 69C185.407 69 179 75.3427 179 83.1668C179 90.9909 185.407 97.3336 193.311 97.3336Z" fill="#FFCF84"/>
<path d="M197.228 81.0484V80.8535C197.228 79.2278 195.803 77.8754 193.935 77.5986V76.7236H192.524V77.5986C190.655 77.8754 189.231 79.2283 189.231 80.8535C189.231 82.2556 190.35 83.4713 192.152 84.0266C192.395 84.1012 192.642 84.1683 192.889 84.2349C193.31 84.3489 193.745 84.4669 194.145 84.6243C195.207 85.0419 195.816 85.7599 195.816 86.5933C195.816 87.7741 194.656 88.7354 193.229 88.7354C191.828 88.7354 190.667 87.7938 190.641 86.6367L190.637 86.4458H189.228L189.231 86.643C189.257 88.2418 190.68 89.5728 192.524 89.8482V90.7236H193.935V89.8486C195.803 89.5714 197.228 88.219 197.228 86.5938C197.228 85.8547 196.929 85.176 196.316 84.5192C195.735 83.8973 194.842 83.5768 194.129 83.3671C193.933 83.3094 193.733 83.2553 193.531 83.2016C192.867 83.0232 192.179 82.8386 191.633 82.501C191.021 82.1228 190.641 81.4919 190.641 80.8535C190.641 79.6727 191.802 78.7119 193.229 78.7119C194.656 78.7119 195.816 79.6727 195.816 80.8535V81.0484H197.228Z" fill="#0061A0"/>
<path fill-rule="evenodd" clip-rule="evenodd" d="M193.389 72.0422C199.55 72.0422 204.552 76.9936 204.552 83.0923C204.552 89.191 199.55 94.1424 193.389 94.1424C193.139 94.1424 192.936 94.3435 192.936 94.5912C192.936 94.8389 193.139 95.04 193.389 95.04C200.05 95.04 205.458 89.6864 205.458 83.0923C205.458 76.4981 200.05 71.1445 193.389 71.1445C193.139 71.1445 192.936 71.3456 192.936 71.5934C192.936 71.8411 193.139 72.0422 193.389 72.0422Z" fill="#FD9909"/>
<path fill-rule="evenodd" clip-rule="evenodd" d="M193.391 94.1424C187.23 94.1424 182.228 89.191 182.228 83.0923C182.228 76.9936 187.23 72.0422 193.391 72.0422C193.641 72.0422 193.844 71.8411 193.844 71.5934C193.844 71.3456 193.641 71.1445 193.391 71.1445C186.729 71.1445 181.322 76.4981 181.322 83.0923C181.322 89.6864 186.729 95.04 193.391 95.04C193.641 95.04 193.844 94.8389 193.844 94.5912C193.844 94.3435 193.641 94.1424 193.391 94.1424Z" fill="#FD9909"/>
<path fill-rule="evenodd" clip-rule="evenodd" d="M195.038 97.2313L194.745 94.8974C194.715 94.6515 194.891 94.4272 195.14 94.3966C195.388 94.3661 195.614 94.5408 195.646 94.7867L195.935 97.0959C195.64 97.1502 195.34 97.1954 195.038 97.2313ZM197.714 96.6501L196.904 94.2819C196.824 94.0472 196.951 93.7922 197.188 93.7127C197.425 93.6332 197.683 93.7592 197.762 93.9937L198.568 96.3469C198.288 96.4566 198.003 96.5578 197.714 96.6501ZM185.427 94.9852L186.687 92.9334C186.817 92.7217 187.096 92.6544 187.31 92.7831C187.524 92.9119 187.592 93.1882 187.462 93.3998L186.198 95.4571C185.935 95.3076 185.678 95.1501 185.427 94.9852ZM205.09 91.2158L203.007 89.69C202.807 89.5426 202.764 89.2614 202.913 89.0622C203.061 88.8631 203.345 88.8211 203.547 88.9684L205.583 90.4605C205.427 90.7177 205.262 90.9697 205.09 91.2158ZM179.715 87.5821L182.162 86.4917C182.39 86.39 182.659 86.4909 182.762 86.7167C182.864 86.9427 182.762 87.2086 182.534 87.3103L180.026 88.4279C179.913 88.1503 179.809 87.8683 179.715 87.5821ZM207.202 79.7302C207.274 80.0195 207.339 80.3121 207.393 80.6079L204.98 81.1712C204.737 81.2281 204.492 81.0784 204.435 80.8374C204.377 80.5963 204.529 80.3544 204.772 80.2975L207.202 79.7302ZM181.49 75.1889L183.647 76.5851C183.856 76.7207 183.915 76.9991 183.778 77.2064C183.641 77.4137 183.36 77.4719 183.151 77.3363L181.003 75.9458C181.158 75.688 181.321 75.4355 181.49 75.1889ZM182.898 73.4571L184.651 74.7338C184.853 74.8805 184.896 75.1618 184.747 75.3612C184.6 75.5608 184.315 75.6036 184.114 75.4568L182.296 74.1324C182.489 73.9011 182.69 73.6759 182.898 73.4571ZM201.587 71.6075C201.834 71.7809 202.075 71.9618 202.31 72.1502L200.742 74.107C200.586 74.3011 200.3 74.3336 200.104 74.1796C199.909 74.0257 199.876 73.7431 200.031 73.549L201.587 71.6075ZM199.159 70.2323C199.435 70.3552 199.707 70.4866 199.974 70.6257L198.869 72.6781C198.751 72.8967 198.476 72.9795 198.255 72.863C198.034 72.7464 197.951 72.4743 198.069 72.2557L199.159 70.2323ZM190.106 69.3579L190.745 71.611C190.812 71.8495 190.671 72.0974 190.43 72.1643C190.189 72.2313 189.939 72.092 189.872 71.8534L189.23 69.5865C189.518 69.5014 189.81 69.4251 190.106 69.3579Z" fill="#FD9909"/>
<path d="M185.768 57.1036L202.374 57.1766L196.265 38.1733L214.131 46.0187L220.937 25.9999" stroke="#0061A0" stroke-opacity="0.1" stroke-width="2" stroke-miterlimit="10"/>
</g>
<defs>
<clipPath id="clip0_5942_130094">
<rect width="283" height="163" fill="white"/>
</clipPath>
</defs>
</svg>
