<svg width="114" height="53" viewBox="0 0 114 53" fill="none" xmlns="http://www.w3.org/2000/svg">
<path d="M25.9128 44.5197C26.5248 44.2197 26.9808 43.6917 26.9808 42.8397C26.9808 41.4237 26.0328 40.6557 24.5688 40.6557H21.1128V49.0557H24.4488C26.2848 49.0557 27.3288 48.1797 27.3288 46.4757C27.3288 45.3117 26.5728 44.6997 25.9128 44.5197ZM24.5568 43.9797H22.3008V41.8077H24.5568C25.3968 41.8077 25.7208 42.2877 25.7208 42.9117C25.7208 43.4637 25.3848 43.9797 24.5568 43.9797ZM24.5448 47.9037H22.3008V45.1197H24.5808C25.5288 45.1197 26.0688 45.6477 26.0688 46.5117C26.0688 47.3397 25.6608 47.9037 24.5448 47.9037ZM31.0013 48.0717C30.1853 48.0717 29.7893 47.6517 29.7893 47.0277C29.7893 46.4517 30.2933 46.0917 31.0853 46.0917C31.7573 46.0917 32.1893 46.1997 32.5253 46.3677V47.2677C32.2373 47.6637 31.6613 48.0717 31.0013 48.0717ZM33.7373 44.7357C33.7373 43.3077 32.7773 42.6237 31.3733 42.6237C30.4853 42.6237 29.8133 42.8157 29.2133 43.1877L29.6933 44.1237C30.1853 43.8477 30.6893 43.7277 31.3373 43.7277C32.1053 43.7277 32.5253 44.1117 32.5253 44.7957V45.2637C32.1773 45.1077 31.7093 45.0237 31.1213 45.0237C29.6933 45.0237 28.6133 45.6597 28.6133 47.0637C28.6133 48.6117 29.7773 49.1877 30.7973 49.1877C31.4813 49.1877 32.0933 48.8637 32.5253 48.4317V49.0557H33.7373V44.7357ZM40.5749 45.4437C40.5749 43.5837 39.7949 42.6237 38.3309 42.6237C37.6829 42.6237 37.0589 42.8997 36.7469 43.3557V42.7557H35.5109V49.0557H36.7469V45.3717C36.7469 44.3517 37.2149 43.7637 38.0429 43.7637C38.8589 43.7637 39.3389 44.2197 39.3389 45.4917V49.0557H40.5749V45.4437ZM45.3907 44.8677L46.9867 42.7557H45.5827L44.2747 44.5917C44.0587 44.8917 43.7467 45.3717 43.5787 45.6237C43.5787 45.3117 43.5907 44.6637 43.5907 44.2797V40.3077L42.3547 40.9557V49.0557H43.5907V47.1957L44.5507 45.9237L45.9427 49.0557H47.2867L45.3907 44.8677ZM54.4126 40.6557H52.1206V49.0557H54.4126C56.6086 49.0557 58.5046 47.8197 58.5046 44.8557C58.5046 41.8917 56.6686 40.6557 54.4126 40.6557ZM54.4126 47.8317H53.3806V41.8797H54.4126C56.4046 41.8797 57.2206 43.0917 57.2206 44.8557C57.2206 46.6197 56.4046 47.8317 54.4126 47.8317ZM62.5452 42.6237C60.9132 42.6237 59.7852 43.7757 59.7852 45.9117C59.7852 47.9997 61.0332 49.1877 62.5092 49.1877C63.4692 49.1877 64.1292 48.8877 64.6812 48.3597L63.9492 47.5677C63.5292 47.8797 63.1092 48.0717 62.5812 48.0717C61.8132 48.0717 61.1292 47.5557 60.9972 46.3437H65.1612C65.1732 46.2117 65.1972 46.0077 65.1972 45.7797C65.1972 44.0757 64.3332 42.6237 62.5452 42.6237ZM61.0212 45.3237C61.1292 44.3157 61.6332 43.7397 62.4612 43.7397C63.4812 43.7397 63.8892 44.4597 63.9492 45.3237H61.0212ZM69.4177 48.0477C68.7937 48.0477 68.2177 47.5917 67.9417 47.2197V44.5677C68.2657 44.1597 68.7817 43.7637 69.3697 43.7637C70.2817 43.7637 70.7857 44.4597 70.7857 46.0437C70.7857 47.3757 70.3057 48.0477 69.4177 48.0477ZM69.5977 42.6237C68.9377 42.6237 68.4097 42.9357 67.9537 43.3557V42.7557H66.7297V51.3717L67.9537 50.7357V48.4677C68.3017 48.8517 68.9017 49.1877 69.5377 49.1877C70.8457 49.1877 72.0217 48.1677 72.0217 46.0077C72.0217 43.6077 70.9537 42.6237 69.5977 42.6237ZM76.0814 42.6237C74.4974 42.6237 73.2734 43.8477 73.2734 45.9117C73.2734 47.8797 74.4614 49.1877 76.0454 49.1877C77.6654 49.1877 78.8894 47.9637 78.8894 45.8757C78.8894 43.9077 77.6894 42.6237 76.0814 42.6237ZM76.0934 48.0117C75.1574 48.0117 74.5214 47.2557 74.5214 45.8757C74.5214 44.6277 75.0974 43.7997 76.0334 43.7997C77.0294 43.7997 77.6414 44.6277 77.6414 45.9117C77.6414 47.0637 77.0294 48.0117 76.0934 48.0117ZM82.58 45.2157C81.632 44.8437 81.416 44.6157 81.416 44.3037C81.416 43.9677 81.68 43.7277 82.28 43.7277C82.88 43.7277 83.396 43.9077 83.912 44.2677L84.452 43.3197C83.888 42.9117 83.108 42.6237 82.316 42.6237C81.056 42.6237 80.168 43.2117 80.168 44.3397C80.168 45.3357 80.66 45.7917 82.016 46.3197C82.928 46.6677 83.48 46.8957 83.48 47.3757C83.48 47.8197 83.108 48.0717 82.328 48.0717C81.74 48.0717 81.08 47.8557 80.492 47.4477L79.928 48.3837C80.564 48.8517 81.488 49.1877 82.34 49.1877C83.576 49.1877 84.704 48.7197 84.704 47.3277C84.704 46.1397 83.984 45.7557 82.58 45.2157ZM86.9723 40.3437C86.5283 40.3437 86.1683 40.7037 86.1683 41.1477C86.1683 41.5797 86.5283 41.9397 86.9723 41.9397C87.4043 41.9397 87.7643 41.5797 87.7643 41.1477C87.7643 40.7037 87.4043 40.3437 86.9723 40.3437ZM87.5843 42.7557H86.3483V49.0557H87.5843V42.7557ZM91.7081 48.0597C91.2521 48.0597 91.0601 47.8917 91.0601 47.3037V43.8837H92.6201V42.7557H91.0601V40.3077L89.8481 40.9557V42.7557H88.9481V43.8837H89.8481V47.5197C89.8481 48.6477 90.3881 49.1877 91.2641 49.1877C91.7561 49.1877 92.1761 49.0677 92.4761 48.8997L92.6201 47.8077C92.3921 47.9397 92.0321 48.0597 91.7081 48.0597Z" fill="#9E9E9E"/>
<g filter="url(#filter0_d_5942_133798)">
<path fill-rule="evenodd" clip-rule="evenodd" d="M57.1261 4.65319C57.0636 4.67198 56.9676 4.7042 56.8305 4.75788C56.4663 4.89612 56.0336 5.09475 55.4774 5.37525C54.3469 5.9443 52.9314 6.74822 51.3391 7.7387C49.5002 8.88125 48.667 9.4565 47.6285 10.1734L47.6285 10.1734C46.8591 10.7046 45.9772 11.3135 44.4902 12.2884C43.8959 12.8132 42.9299 12.8132 42.3357 12.2884C41.7399 11.765 41.7399 10.9141 42.3357 10.3907C45.6988 7.9843 46.3064 7.58301 49.5808 5.5457C51.2264 4.52301 52.7638 3.6493 53.9659 3.04401C54.5769 2.73667 55.1544 2.47361 55.6069 2.29914C56.0061 2.1448 56.5806 1.94482 57.1261 1.94482C57.6715 1.94482 58.246 2.1448 58.6452 2.29914C59.0977 2.47361 59.6752 2.73667 60.2862 3.04401C61.4884 3.6493 63.0257 4.52301 64.6713 5.5457C67.9457 7.58301 68.5533 7.9843 71.9164 10.3907C72.5122 10.9141 72.5122 11.765 71.9164 12.2884C71.3222 12.8132 70.3562 12.8132 69.7619 12.2884C68.275 11.3135 67.393 10.7046 66.6236 10.1734C65.5852 9.4565 64.7519 8.88126 62.913 7.7387C61.3207 6.74822 59.9053 5.9443 58.7747 5.37525C58.2185 5.09475 57.7858 4.89612 57.4216 4.75788C57.2845 4.7042 57.1885 4.67198 57.1261 4.65319ZM44.9361 26.103C44.9361 25.3622 45.6187 24.7609 46.4598 24.7609H70.8387C71.6798 24.7609 72.3624 25.3622 72.3624 26.103C72.3624 26.8439 71.6798 27.4451 70.8387 27.4451H46.4598C45.6187 27.4451 44.9361 26.8439 44.9361 26.103ZM63.2203 22.0763C63.2203 22.8172 63.9029 23.4184 64.744 23.4184C65.5851 23.4184 66.2677 22.8172 66.2677 22.0763V12.6816C66.2677 11.9407 65.5851 11.3395 64.744 11.3395C63.9029 11.3395 63.2203 11.9407 63.2203 12.6816V22.0763ZM49.5072 23.4184C48.6662 23.4184 47.9835 22.8172 47.9835 22.0763V12.6816C47.9835 11.9407 48.6662 11.3395 49.5072 11.3395C50.3483 11.3395 51.0309 11.9407 51.0309 12.6816V22.0763C51.0309 22.8172 50.3483 23.4184 49.5072 23.4184ZM55.9554 15.4437C55.9554 16.0104 56.283 16.3713 57.3018 16.7232C58.3206 17.0781 59.4112 17.6567 59.4112 19.3448C59.4112 20.5706 58.7133 21.2416 57.8404 21.4653V22.7478H56.4939V21.4534C55.63 21.2058 54.8962 20.4751 54.8401 19.1688H55.8297C55.8768 19.8697 56.2426 20.4214 57.1671 20.4214C58.1612 20.4214 58.3789 19.7653 58.3789 19.3567C58.3789 18.796 58.1568 18.2741 57.0325 17.9162C55.7826 17.5165 54.9231 16.8306 54.9231 15.4527C54.9231 14.2985 55.6233 13.5528 56.4939 13.2993L56.5411 12.0109H57.8875L57.8404 13.3172C58.7783 13.6244 59.2518 14.5609 59.281 15.5899H58.2892C58.2622 14.8442 57.966 14.3372 57.1671 14.3372C56.4064 14.3372 55.9554 14.7935 55.9554 15.4437Z" fill="#103D9C" fill-opacity="0.4"/>
</g>
<defs>
<filter id="filter0_d_5942_133798" x="39.8889" y="0.944824" width="34.4744" height="29.5005" filterUnits="userSpaceOnUse" color-interpolation-filters="sRGB">
<feFlood flood-opacity="0" result="BackgroundImageFix"/>
<feColorMatrix in="SourceAlpha" type="matrix" values="0 0 0 0 0 0 0 0 0 0 0 0 0 0 0 0 0 0 127 0" result="hardAlpha"/>
<feOffset dy="1"/>
<feGaussianBlur stdDeviation="1"/>
<feColorMatrix type="matrix" values="0 0 0 0 0 0 0 0 0 0 0 0 0 0 0 0 0 0 0.125 0"/>
<feBlend mode="normal" in2="BackgroundImageFix" result="effect1_dropShadow_5942_133798"/>
<feBlend mode="normal" in="SourceGraphic" in2="effect1_dropShadow_5942_133798" result="shape"/>
</filter>
</defs>
</svg>
