<svg width="32" height="32" viewBox="0 0 32 32" fill="none" xmlns="http://www.w3.org/2000/svg">
<path d="M5.95127 28.4562C8.79965 30.7474 12.3447 31.9976 16 31.9999C19.655 32.0141 23.2024 30.7636 26.0407 28.4603C26.6827 27.9426 27.2841 27.3766 27.8397 26.767C29.9952 24.3953 31.3889 21.4309 31.8404 18.2577C32.2919 15.0846 31.7803 11.8489 30.372 8.96995C28.9637 6.09096 26.7234 3.70126 23.9415 2.11041C21.1596 0.519565 17.9642 -0.199128 14.7692 0.0474304C11.5742 0.293989 8.52677 1.49444 6.02176 3.49327C3.51676 5.49211 1.66956 8.19723 0.71944 11.2582C-0.230676 14.3192 -0.239928 17.5951 0.692883 20.6614C1.62569 23.7277 3.45759 26.4432 5.95126 28.4562H5.95127ZM15.9996 5.57197C16.985 5.57197 17.9484 5.86426 18.7678 6.41186C19.5872 6.95947 20.2258 7.7378 20.6029 8.64843C20.9801 9.55906 21.0787 10.5611 20.8865 11.5278C20.6942 12.4945 20.2197 13.3825 19.5228 14.0795C18.826 14.7765 17.9382 15.2511 16.9716 15.4434C16.0051 15.6357 15.0032 15.537 14.0928 15.1598C13.1823 14.7826 12.4041 14.1439 11.8566 13.3243C11.3091 12.5048 11.0169 11.5412 11.0169 10.5556C11.0169 9.23384 11.5419 7.96624 12.4763 7.03163C13.4107 6.09703 14.6781 5.57197 15.9996 5.57197ZM15.9999 18.3233C23.2006 18.3233 26.376 20.9932 26.959 24.4957C26.7374 24.7805 26.5067 25.0594 26.2618 25.3282C25.7797 25.8568 25.258 26.3478 24.7012 26.7969C22.234 28.7826 19.1621 29.8648 15.9953 29.8641C12.8285 29.8633 9.75709 28.7796 7.29078 26.7928C6.7363 26.3451 6.21713 25.8553 5.73786 25.3279C5.49291 25.0595 5.26231 24.781 5.04074 24.4966C5.62339 20.9937 8.79876 18.3233 15.9999 18.3233H15.9999Z" fill="#CCCCCC"/>
</svg>
