<svg width="16" height="16" viewBox="0 0 16 16" fill="none" xmlns="http://www.w3.org/2000/svg">
<path fill-rule="evenodd" clip-rule="evenodd" d="M8.00029 1.69815C7.96749 1.70994 7.91709 1.73014 7.84509 1.76382C7.65389 1.85055 7.42668 1.97516 7.13468 2.15114C6.54107 2.50814 5.79787 3.01249 4.96186 3.63387C3.99633 4.35067 3.55884 4.71155 3.01359 5.16134L3.01358 5.16135C2.60964 5.49456 2.14655 5.87656 1.36582 6.4882C1.05381 6.81741 0.546606 6.81741 0.234602 6.4882C-0.0782008 6.15982 -0.0782008 5.62601 0.234602 5.29763C2.00042 3.78795 2.31943 3.5362 4.03865 2.25807C4.90266 1.61648 5.70987 1.06834 6.34107 0.688609C6.66188 0.495794 6.96508 0.330765 7.20268 0.221307C7.41228 0.124479 7.71389 -0.000976562 8.00029 -0.000976562C8.28669 -0.000976562 8.5883 0.124479 8.7979 0.221307C9.0355 0.330765 9.33871 0.495794 9.65951 0.688609C10.2907 1.06834 11.0979 1.61648 11.9619 2.25807C13.6812 3.5362 14.0002 3.78795 15.766 5.29763C16.0788 5.62601 16.0788 6.15982 15.766 6.4882C15.454 6.81741 14.9468 6.81741 14.6348 6.4882C13.854 5.87655 13.3909 5.49455 12.987 5.16133L12.987 5.16132C12.4417 4.71155 12.0042 4.35066 11.0387 3.63387C10.2027 3.01249 9.45951 2.50814 8.8659 2.15114C8.5739 1.97516 8.34669 1.85055 8.15549 1.76382C8.08349 1.73014 8.03309 1.70994 8.00029 1.69815ZM0.205465 15.1557C0.205465 14.6909 0.563869 14.3137 1.00547 14.3137H15.2003C15.6419 14.3137 16.0004 14.6909 16.0004 15.1557C16.0004 15.6204 15.6419 15.9976 15.2003 15.9976H1.00547C0.563869 15.9976 0.205465 15.6204 0.205465 15.1557ZM11.2003 12.6276C11.2003 13.0924 11.5587 13.4696 12.0003 13.4696C12.4419 13.4696 12.8003 13.0924 12.8003 12.6276V6.73374C12.8003 6.26897 12.4419 5.89176 12.0003 5.89176C11.5587 5.89176 11.2003 6.26897 11.2003 6.73374V12.6276ZM3.99924 13.4696C3.55763 13.4696 3.19923 13.0924 3.19923 12.6276V6.73374C3.19923 6.26897 3.55763 5.89176 3.99924 5.89176C4.44084 5.89176 4.79925 6.26897 4.79925 6.73374V12.6276C4.79925 13.0924 4.44084 13.4696 3.99924 13.4696ZM7.18206 8.57414C7.18206 8.93302 7.41141 9.16156 8.12459 9.38445C8.83778 9.60922 9.60123 9.97565 9.60123 11.0447C9.60123 11.821 9.11268 12.246 8.50161 12.3877V13.1999H7.55907V12.3801C6.95428 12.2234 6.4406 11.7606 6.40133 10.9333H7.09409C7.12708 11.3772 7.38313 11.7266 8.03034 11.7266C8.72624 11.7266 8.87862 11.3111 8.87862 11.0523C8.87862 10.6972 8.7231 10.3666 7.93608 10.14C7.0611 9.88688 6.45945 9.45245 6.45945 8.5798C6.45945 7.84883 6.94957 7.37662 7.55907 7.21607L7.59206 6.40009H8.53459L8.50161 7.2274C9.15824 7.42195 9.48969 8.01504 9.51012 8.66669H8.81578C8.79693 8.19448 8.58957 7.87338 8.03034 7.87338C7.49781 7.87338 7.18206 8.16237 7.18206 8.57414Z" fill="#2B2D30"/>
</svg>
