<svg width="140" height="101" viewBox="0 0 140 101" fill="none" xmlns="http://www.w3.org/2000/svg">
<path d="M52.8673 82.7264C52.8673 82.7264 43.1387 77.2713 40.48 75.365C38.5585 73.9862 39.1587 72.8079 40.338 68.8822C41.5173 64.9561 44.092 57.7699 44.092 57.7699L42.3785 57.4892C42.6766 56.4347 43.0297 55.3827 43.5338 54.325C35.6788 55.1268 27.8407 61.141 27.2866 61.8584C26.6974 62.6221 22.3433 79.1547 21.7541 81.3104C21.164 83.4674 21.7631 84.745 25.3891 86.9688C29.015 89.1909 36.1369 92.5898 36.1369 92.5898L51.0498 83.964C52.1501 84.6215 52.8673 85.045 52.8673 85.045V82.7264Z" fill="#E0E0E0"/>
<path d="M36.142 92.5929C36.142 92.5929 26.2213 86.8578 23.6246 85.1895C21.6381 83.9119 22.4333 82.4908 23.6116 78.5659C24.7909 74.6404 27.3656 67.4541 27.3656 67.4541L24.993 67.0639C24.993 67.0639 22.2313 75.7296 21.248 79.045C20.2647 82.362 19.5946 84.9384 22.5484 86.8458C26.5624 89.4367 36.142 94.9102 36.142 94.9102V92.5929Z" fill="#828282"/>
<path d="M36.1387 92.5929V94.9102L52.869 85.0482V82.7297L36.1387 92.5929Z" fill="#BDBDBD"/>
<path d="M2.32617 85.2244L5.28897 86.9746L7.05444 84.1699L3.14438 81.7531L2.32617 85.2244Z" fill="#BDBDBD"/>
<path d="M0.841797 35.9661V82.5848C0.841797 84.9056 3.29546 86.3552 5.25898 85.1952L58.1819 53.9259C59.4833 53.1557 60.2865 51.7341 60.2865 50.1942V3.10783C60.2865 0.996063 58.0529 -0.324799 56.2664 0.73175L2.94636 32.2357C1.64301 33.0054 0.841797 34.4274 0.841797 35.9661Z" fill="#BDBDBD"/>
<path d="M3.79883 37.7473V84.3645C3.79883 86.6843 6.25249 88.135 8.21601 86.9742L61.1379 55.7057C62.4403 54.9368 63.2425 53.514 63.2425 51.9741V4.88776C63.2425 2.77477 61.0099 1.45514 59.2225 2.51168L5.90239 34.0156C4.60004 34.7845 3.79883 36.2073 3.79883 37.7473Z" fill="#BDBDBD"/>
<path d="M60.4724 4.86525L12.9819 32.9554L6.57617 36.7451V84.6523L60.4724 52.771V4.86525Z" fill="#F2F2F2"/>
<path d="M21.11 34.0046L9.70703 40.6709V78.1172L21.11 71.4497V34.0046Z" fill="#E0E0E0"/>
<path d="M24.5918 32.0977V69.543L57.7225 50.0622V12.6169L24.5918 32.0977Z" fill="#E0E0E0"/>
<path d="M56.2183 15.4455L26.0684 33.175V35.2344L56.2183 17.5061V15.4455Z" fill="#BDBDBD"/>
<path d="M44.6465 26.6944V31.125L56.2125 24.3234V19.8932L44.6465 26.6944Z" fill="#BDBDBD"/>
<path d="M44.6465 33.9084V35.7227L56.2125 28.9221V27.1095L44.6465 33.9084Z" fill="#BDBDBD"/>
<path d="M44.6465 38.2153V40.0293L56.2125 33.2274V31.4147L44.6465 38.2153Z" fill="#BDBDBD"/>
<path d="M44.6465 42.9162V44.7305L56.2125 37.9292V36.1162L44.6465 42.9162Z" fill="#BDBDBD"/>
<path d="M56.2183 47.1988L26.0684 64.9273V66.9883L56.2183 49.2598V47.1988Z" fill="#BDBDBD"/>
<path d="M18.3975 38.0808L12.418 41.5765V45.6016L18.3975 42.1059V38.0808Z" fill="#BDBDBD"/>
<path d="M18.3975 45.0088L12.418 48.5043V52.5312L18.3975 49.0357V45.0088Z" fill="#BDBDBD"/>
<path d="M18.3975 51.931L12.418 55.4271V59.4531L18.3975 55.9573V51.931Z" fill="#BDBDBD"/>
<path d="M18.3975 59.1783L12.418 62.6741V66.7012L18.3975 63.2055V59.1783Z" fill="#BDBDBD"/>
<path d="M18.3975 66.7044L12.418 70.2006V74.2266L18.3975 70.7297V66.7044Z" fill="#BDBDBD"/>
<path d="M87.6016 82.7264C87.6016 82.7264 97.3291 77.2713 99.9888 75.365C101.909 73.9862 101.31 72.8079 100.131 68.8822C98.9515 64.9561 96.3769 57.7699 96.3769 57.7699L98.0903 57.4892C97.7922 56.4347 97.4392 55.3827 96.935 54.325C104.79 55.1268 112.627 61.141 113.181 61.8584C113.771 62.6221 118.125 79.1547 118.715 81.3104C119.305 83.4674 118.705 84.745 115.079 86.9688C111.453 89.1909 104.332 92.5898 104.332 92.5898L89.419 83.964C88.3177 84.6215 87.6016 85.045 87.6016 85.045V82.7264Z" fill="#E0E0E0"/>
<path d="M104.334 92.5929C104.334 92.5929 114.255 86.8578 116.851 85.1895C118.837 83.9119 118.043 82.4908 116.864 78.5659C115.685 74.6404 113.11 67.4541 113.11 67.4541L115.482 67.0639C115.482 67.0639 118.244 75.7296 119.228 79.045C120.211 82.362 120.881 84.9384 117.928 86.8458C113.913 89.4367 104.334 94.9102 104.334 94.9102V92.5929Z" fill="#BDBDBD"/>
<path d="M104.332 92.5929V94.9102L87.6016 85.0482V82.7297L104.332 92.5929Z" fill="#E0E0E0"/>
<path d="M138.15 85.2244L135.187 86.9746L133.422 84.1699L137.332 81.7531L138.15 85.2244Z" fill="#BDBDBD"/>
<path d="M139.632 35.9661V82.5848C139.632 84.9056 137.179 86.3552 135.215 85.1952L82.2921 53.9259C80.9897 53.1557 80.1875 51.7341 80.1875 50.1942V3.10783C80.1875 0.996063 82.4211 -0.324799 84.2076 0.73175L137.528 32.2357C138.831 33.0054 139.632 34.4274 139.632 35.9661Z" fill="#BDBDBD"/>
<path d="M136.671 37.7473V84.3645C136.671 86.6843 134.218 88.135 132.254 86.9742L79.3311 55.7057C78.0288 54.9368 77.2266 53.514 77.2266 51.9741V4.88776C77.2266 2.77477 79.4601 1.45514 81.2466 2.51168L134.567 34.0156C135.87 34.7845 136.671 36.2073 136.671 37.7473Z" fill="#E0E0E0"/>
<path d="M80.0039 4.86525L127.494 32.9554L133.9 36.7451V84.6523L80.0039 52.771V4.86525Z" fill="#F2F2F2"/>
<path d="M116.065 32.0103L82.5059 12.4602V49.9057L116.065 69.457V32.0103Z" fill="#E0E0E0"/>
<path d="M118.912 33.2164V70.6627L130.764 78.1172V40.671L118.912 33.2164Z" fill="#E0E0E0"/>
<path d="M121.936 37.8197L127.916 41.3159V45.3418L121.936 41.846V37.8197Z" fill="#BDBDBD"/>
<path d="M121.936 44.7415L127.916 48.2376V52.2637L121.936 48.7666V44.7415Z" fill="#BDBDBD"/>
<path d="M121.936 51.6577L127.916 55.1533V59.1797L121.936 55.6836V51.6577Z" fill="#BDBDBD"/>
<path d="M121.936 58.918L127.916 62.4142V66.4414L121.936 62.9445V58.918Z" fill="#BDBDBD"/>
<path d="M121.936 66.4408L127.916 69.9365V73.9629L121.936 70.4667V66.4408Z" fill="#BDBDBD"/>
<path d="M84.2305 15.3053L114.379 33.0332V35.0938L84.2305 17.3646V15.3053Z" fill="#BDBDBD"/>
<path d="M95.7955 26.5499V30.9805L84.2305 24.1811V19.7509L95.7955 26.5499Z" fill="#BDBDBD"/>
<path d="M95.7955 33.7651V35.5781L84.2305 28.7778V26.9639L95.7955 33.7651Z" fill="#BDBDBD"/>
<path d="M95.7955 38.4623V40.2754L84.2305 33.475V31.6608L95.7955 38.4623Z" fill="#BDBDBD"/>
<path d="M95.7955 42.7651V44.5781L84.2305 37.7788V35.9651L95.7955 42.7651Z" fill="#BDBDBD"/>
<path d="M84.2305 47.0559L114.379 64.784V66.8438L84.2305 49.1157V47.0559Z" fill="#BDBDBD"/>
<path d="M67.8345 62.6658C68.9748 64.53 71.1975 62.8984 71.0094 61.8336C72.4608 63.0776 74.2792 62.8984 74.2112 60.0073C75.4326 60.674 77.046 60.4948 77.4701 60.0073C80.808 56.1737 73.7021 49.0486 69.487 42.6721C73.6411 41.7969 77.5391 41.319 77.4691 38.5906C73.0149 38.819 69.1009 37.3982 66.8133 37.7485C64.2166 38.1456 58.314 38.8918 55.4823 38.7258C52.6505 38.5591 42.792 36.1461 39.075 34.3075C38.1357 33.6145 36.8534 33.5993 35.438 34.4354C32.5583 36.137 30.2227 40.7036 30.2227 44.6348C30.2227 45.345 30.3077 45.9775 30.4487 46.5406C34.2167 47.9034 40.8014 48.2441 44.0653 49.2086C48.0123 50.3767 49.9779 52.9347 49.9779 52.9347C53.6718 56.0294 67.4104 67.0636 67.8345 62.6658Z" fill="#E0E0E0"/>
<path d="M44.0638 49.2076C40.8 48.243 34.2153 47.9024 30.4473 46.5395C30.7994 47.934 31.5455 48.8604 32.5418 49.182L32.5488 49.1839C37.9462 51.2917 46.2024 49.7714 49.9764 52.9336C49.9764 52.9336 48.0109 50.3756 44.0638 49.2076Z" fill="#BDBDBD"/>
<path d="M63.2427 61.6943C58.0653 61.6391 60.1789 52.5027 65.3092 44.7411C63.6808 45.7668 60.748 46.8285 58.6465 44.9314C60.9121 42.0383 62.1564 41.3956 66.1184 39.1903C68.4251 37.9067 78.2787 41.9471 81.1094 41.7803C83.9411 41.6136 93.7997 39.202 97.5167 37.3621C98.4559 36.6692 99.7383 36.6547 101.154 37.4901C104.034 39.1936 106.369 43.7593 106.369 47.689C106.369 48.4008 106.286 49.0334 106.143 49.5964C102.375 50.958 95.7902 51.2987 92.5264 52.264C88.5794 53.4313 81.5395 56.6639 81.5395 56.6639C77.8445 59.7593 64.2209 65.3508 63.2427 61.6943Z" fill="#E0E0E0"/>
<path d="M90.6605 52.4235C93.9254 51.4582 102.375 50.964 106.143 49.6023C105.79 50.9955 105.044 51.9229 104.048 52.2436L104.041 52.2476C98.6436 54.3542 88.2678 53.7923 81.5391 56.6699C81.5391 56.6699 86.7134 53.5896 90.6605 52.4235Z" fill="#BDBDBD"/>
<path d="M70.6472 42.9829C70.6472 42.9829 70.2031 44.4621 71.6685 46.1604C73.7901 48.6217 75.6315 53.2908 76.4898 55.251C77.9551 58.5975 77.469 60.002 77.469 60.002C77.469 60.002 78.5753 59.6153 78.6893 58.4184C78.8574 56.6638 77.5751 53.1372 76.0827 50.8339C73.7621 47.2497 70.6472 42.9829 70.6472 42.9829Z" fill="#BDBDBD"/>
<path d="M74.0461 57.4255C74.0461 57.4255 74.3182 58.8208 74.2092 60.0093C74.0991 61.199 73.7891 61.9648 73.7891 61.9648C73.7891 61.9648 75.5275 61.5214 74.9834 59.7829C74.4392 58.045 74.0461 57.4255 74.0461 57.4255Z" fill="#BDBDBD"/>
<path d="M70.6223 58.545C70.6223 58.545 70.8954 59.9402 70.7853 61.129C70.6763 62.3175 70.3652 63.084 70.3652 63.084C70.3652 63.084 72.1037 62.6409 71.5596 60.9026C71.0154 59.1632 70.6223 58.545 70.6223 58.545Z" fill="#BDBDBD"/>
<path d="M67.4417 59.1455C67.4417 59.1455 67.7137 60.5411 67.6047 61.7296C67.4937 62.918 67.0605 63.6406 67.0605 63.6406C67.0605 63.6406 68.9221 63.2423 68.3779 61.5032C67.8338 59.7642 67.4417 59.1455 67.4417 59.1455Z" fill="#BDBDBD"/>
<path d="M70.6466 42.9888C70.6466 42.9888 68.6641 43.3051 67.0597 42.9888C65.4543 42.6705 63.8658 42.3511 63.8658 42.3511C63.8658 42.3511 62.0704 44.7566 61.1782 45.2951C60.2859 45.8325 58.6465 45.2951 58.6465 45.2951C58.6465 45.2951 59.5287 46.4263 61.3012 46.1089C62.5105 45.8918 64.294 44.4487 64.294 44.4487C64.294 44.4487 66.0644 45.2951 67.4088 45.2951C68.7601 45.2951 71.6679 46.166 71.6679 46.166L70.6466 42.9888Z" fill="#BDBDBD"/>
<path d="M76.1283 40.8075C76.1283 40.8075 76.9905 40.306 77.2276 39.6834C75.4101 39.6834 73.9147 39.363 72.3583 39.0763C70.6608 38.766 66.2697 38.0433 65.1564 38.6432C62.4957 40.0744 61.4824 40.9551 61.4824 40.9551C61.4824 40.9551 65.1564 39.2922 67.0579 39.0179C67.9571 38.8867 76.1283 40.8075 76.1283 40.8075Z" fill="#BDBDBD"/>
<path d="M60.6898 42.6713C60.4687 42.8772 59.1934 44.2578 59.1934 44.2578C59.1934 44.2578 60.2006 44.2322 60.6898 43.8568C61.1779 43.4821 61.483 42.9876 61.483 42.9876L60.6898 42.6713Z" fill="#BDBDBD"/>
<path d="M53.119 53.1537C53.119 53.1537 54.7424 52.9961 55.0675 53.304C55.6116 53.821 55.5256 55.6605 55.5256 55.6605C55.5256 55.6605 57.4591 54.6788 58.3064 55.5134C59.1526 56.3475 58.8195 58.0386 58.8195 58.0386C58.8195 58.0386 60.3259 56.8134 60.967 57.364C61.7512 58.0378 61.9013 58.4192 62.0993 60.002C62.0993 60.002 62.9436 57.7806 62.1053 56.6566C60.903 55.0435 59.4206 55.7968 59.4206 55.7968C59.4206 55.7968 58.8195 52.6746 56.5569 53.9018C56.3849 52.9057 56.4919 51.9528 55.1205 51.8065C52.1807 51.4921 53.119 53.1537 53.119 53.1537Z" fill="#BDBDBD"/>
<path d="M52.9578 53.7862C52.9578 53.7862 52.0226 55.0986 52.1976 56.5981C52.3737 58.0968 54.5372 58.0377 54.5372 58.0377C54.5372 58.0377 54.4202 60.049 55.4725 60.568C56.5237 61.089 58.0681 60.568 58.0681 60.568C58.0681 60.568 57.8741 61.5681 58.7193 62.2263C59.5645 62.8844 61.0469 63.3188 61.436 62.2263C61.8241 61.133 62.1372 60.568 62.1372 60.568L52.9578 53.7862Z" fill="#E0E0E0"/>
<path d="M78.0208 59.1426C78.0208 59.1426 82.7851 55.9783 85.2797 55.4585C87.7734 54.9374 89.3818 54.6743 89.3818 54.6743L90.6642 52.417C90.6642 52.417 83.0471 54.1953 80.7285 55.1666C78.4079 56.1391 77.2676 57.4179 77.2676 57.4179L78.0208 59.1426Z" fill="#BDBDBD"/>
<path d="M53.1175 55.2545C53.1175 55.2545 52.0593 56.7278 51.2451 55.908C50.4308 55.0877 49.9417 51.866 50.919 51.8097C51.8972 51.7533 52.4954 51.9476 53.1175 53.157C53.7397 54.3659 53.1175 55.2545 53.1175 55.2545Z" fill="#E0E0E0"/>
<path d="M50.377 51.809C50.377 51.809 51.1371 51.3759 51.8863 51.8938C52.6345 52.4128 53.1177 53.1562 53.1177 53.1562C53.1177 53.1562 54.279 51.1692 52.5485 50.7741C51.3062 50.4906 50.377 51.809 50.377 51.809Z" fill="#BDBDBD"/>
<path d="M66.5 85.1691V87.0955H66.506C66.521 87.6933 66.7428 88.2623 67.1334 88.7793V85.1691H66.5Z" fill="#E0E0E0"/>
<path d="M67.6211 85.1626V89.3053C67.9022 89.5696 68.2293 89.8163 68.5974 90.0395V85.5916H69.0855V90.3105C69.4226 90.4825 69.7837 90.6352 70.1698 90.7704V86.2814H70.6579V90.93C71.06 91.0475 71.4801 91.1471 71.9182 91.2239V87.1063H72.4074V91.2954C72.8165 91.3498 73.2376 91.3834 73.6677 91.3978V87.1063H74.1558V91.4082C74.6009 91.407 75.0341 91.3814 75.4572 91.3374V87.1063H75.9463V91.2758C76.3664 91.2167 76.7765 91.1387 77.1656 91.0395V86.2814H77.6547V90.9044C78.0369 90.7888 78.3979 90.6516 78.739 90.5009V85.5916H79.2272V90.2634C79.5863 90.0762 79.9123 89.8683 80.2024 89.6443V85.1626H67.6211Z" fill="#E0E0E0"/>
<path d="M80.6875 85.1665V89.2246C81.3197 88.5947 81.6928 87.8689 81.7128 87.0931H81.7188V85.1665H80.6875Z" fill="#E0E0E0"/>
<path d="M67.1309 85.1663V88.7764C67.2707 88.9615 67.4385 89.1379 67.6183 89.3086V85.1663H67.1309Z" fill="#828282"/>
<path d="M68.5977 85.5936V90.0414C68.7525 90.1365 68.9153 90.2265 69.0851 90.3125V85.5936H68.5977Z" fill="#828282"/>
<path d="M70.168 86.2886V90.7779C70.3268 90.8339 70.4887 90.8883 70.6555 90.9375V86.2886H70.168Z" fill="#828282"/>
<path d="M71.9199 87.1092V91.2272C72.0797 91.2548 72.2436 91.2784 72.4084 91.2988V87.1092H71.9199Z" fill="#828282"/>
<path d="M73.668 87.1063V91.3978C73.8158 91.403 73.9617 91.4102 74.1115 91.4102L74.1555 91.4082V87.1063H73.668Z" fill="#828282"/>
<path d="M80.2031 85.1684V89.6504C80.3789 89.514 80.5438 89.3737 80.6926 89.2266V85.1684H80.2031Z" fill="#828282"/>
<path d="M78.7383 85.6006V90.5098C78.9061 90.4342 79.069 90.3555 79.2258 90.2722V85.6006H78.7383Z" fill="#828282"/>
<path d="M77.1641 86.2887V91.0469C77.3299 91.0049 77.4927 90.9609 77.6525 90.9117V86.2887H77.1641Z" fill="#828282"/>
<path d="M75.459 87.1108V91.3418C75.6238 91.3242 75.7856 91.3038 75.9475 91.2802V87.1108H75.459Z" fill="#828282"/>
<path d="M74.113 80.7476C69.9079 80.7476 66.5 82.711 66.5 85.1322C66.5 87.5542 69.9079 89.5176 74.113 89.5176C78.3171 89.5176 81.725 87.5542 81.725 85.1322C81.725 82.711 78.3171 80.7476 74.113 80.7476Z" fill="#828282"/>
<path d="M74.1121 81.6518C70.7703 81.6518 68.0605 83.2129 68.0605 85.1374C68.0605 87.062 70.7703 88.623 74.1121 88.623C77.453 88.623 80.1628 87.062 80.1628 85.1374C80.1628 83.2129 77.453 81.6518 74.1121 81.6518Z" fill="#BDBDBD"/>
<path d="M74.7182 84.3947L75.9685 83.6548C75.6634 83.5881 75.3334 83.6292 74.9863 83.8348C74.6732 84.0192 74.6392 84.1943 74.7182 84.3947ZM73.946 85.4268L72.5916 86.2273C72.9087 86.3021 73.2768 86.2621 73.6849 86.0214C74.014 85.8258 74.046 85.6295 73.946 85.4268ZM71.2003 86.4721C70.7871 86.2078 70.5401 85.9386 70.4091 85.6151L71.7034 84.8505L72.4086 85.1952L71.9044 85.4931C71.7484 85.5855 71.7084 85.6336 71.7664 85.7299C71.8144 85.8086 71.9124 85.8979 72.0435 85.9747L73.6669 85.0152C73.2838 84.5331 73.0817 84.0131 74.09 83.4181C74.9572 82.9042 75.9885 82.8267 76.8117 83.157L77.6099 82.6852L78.0971 82.9738L77.3159 83.4357C77.6419 83.6588 77.877 83.9208 77.995 84.2279L76.7717 84.9509L76.0805 84.6046L76.5497 84.3283C76.7057 84.2363 76.7477 84.1879 76.6887 84.0907L76.5077 83.9128L74.9793 84.8165L74.9872 84.8205C75.3253 85.2976 75.5864 85.8526 74.5351 86.4729C73.5979 87.0267 72.5446 87.0719 71.7144 86.7452L70.8201 87.2734L70.332 86.9859L71.2003 86.4721Z" fill="#F2F2F2"/>
<path d="M66.5 82.4215V84.3481H66.506C66.521 84.9459 66.7428 85.5161 67.1334 86.0332V82.4215H66.5Z" fill="#E0E0E0"/>
<path d="M67.6211 82.4163V86.559C67.9022 86.8242 68.2293 87.0702 68.5974 87.294V82.8449H69.0855V87.5663C69.4226 87.7375 69.7837 87.8898 70.1698 88.0251V83.5351H70.6579V88.1837C71.06 88.3026 71.4801 88.4029 71.9182 88.4785V84.3613H72.4074V88.5493C72.8165 88.6033 73.2376 88.6372 73.6677 88.6517V84.3613H74.1558V88.6641C74.6009 88.6616 75.0341 88.6353 75.4572 88.5921V84.3613H75.9463V88.5309C76.3664 88.4705 76.7765 88.3926 77.1656 88.2934V83.5351H77.6547V88.159C78.0369 88.0427 78.3979 87.9063 78.739 87.7547V82.8449H79.2272V87.5192C79.5863 87.3301 79.9123 87.1233 80.2024 86.8982V82.4163H67.6211Z" fill="#E0E0E0"/>
<path d="M80.6875 82.4196V86.4785C81.3197 85.8491 81.6928 85.1233 81.7128 84.3463H81.7188V82.4196H80.6875Z" fill="#E0E0E0"/>
<path d="M67.1309 82.416V86.0276C67.2707 86.2127 67.4385 86.3878 67.6183 86.5586V82.416H67.1309Z" fill="#828282"/>
<path d="M68.5977 82.843V87.2921C68.7525 87.3874 68.9153 87.4777 69.0851 87.5645V82.843H68.5977Z" fill="#828282"/>
<path d="M70.168 83.5389V88.0288C70.3268 88.084 70.4887 88.1384 70.6555 88.1875V83.5389H70.168Z" fill="#828282"/>
<path d="M71.9199 84.365V88.4819C72.0797 88.5095 72.2436 88.5324 72.4084 88.5527V84.365H71.9199Z" fill="#828282"/>
<path d="M73.668 84.3607V88.6509C73.8158 88.6561 73.9617 88.6641 74.1115 88.6641L74.1555 88.6632V84.3607H73.668Z" fill="#828282"/>
<path d="M80.2031 82.4186V86.9004C80.3789 86.7653 80.5438 86.6248 80.6926 86.4773V82.4186H80.2031Z" fill="#828282"/>
<path d="M78.7383 82.8464V87.7559C78.9061 87.6811 79.069 87.6023 79.2258 87.5203V82.8464H78.7383Z" fill="#828282"/>
<path d="M77.1641 83.533V88.291C77.3299 88.249 77.4927 88.205 77.6525 88.1566V83.533H77.1641Z" fill="#828282"/>
<path d="M75.459 84.3652V88.5957C75.6238 88.5785 75.7856 88.5569 75.9475 88.5345V84.3652H75.459Z" fill="#828282"/>
<path d="M74.113 78.0007C69.9079 78.0007 66.5 79.9641 66.5 82.3849C66.5 84.8062 69.9079 86.7695 74.113 86.7695C78.3171 86.7695 81.725 84.8062 81.725 82.3849C81.725 79.9641 78.3171 78.0007 74.113 78.0007Z" fill="#828282"/>
<path d="M74.1121 78.9011C70.7703 78.9011 68.0605 80.4614 68.0605 82.3867C68.0605 84.3112 70.7703 85.8711 74.1121 85.8711C77.453 85.8711 80.1628 84.3112 80.1628 82.3867C80.1628 80.4614 77.453 78.9011 74.1121 78.9011Z" fill="#BDBDBD"/>
<path d="M74.7172 81.6427L75.9685 80.9049C75.6634 80.8372 75.3333 80.878 74.9862 81.084C74.6732 81.2679 74.6382 81.443 74.7172 81.6427ZM73.946 82.6755L72.5916 83.4762C72.9087 83.5509 73.2768 83.5121 73.6849 83.2706C74.015 83.0751 74.046 82.8783 73.946 82.6755ZM71.2003 83.7221C70.7871 83.4569 70.5391 83.1874 70.4081 82.8639L71.7024 82.1005L72.4076 82.4452L71.9044 82.7424C71.7484 82.8355 71.7064 82.8815 71.7664 82.9786C71.8144 83.0575 71.9124 83.1466 72.0425 83.2234L73.6659 82.2641C73.2838 81.781 73.0817 81.2619 74.09 80.6661C74.9582 80.1534 75.9875 80.0754 76.8108 80.4061L77.61 79.9351L78.0981 80.223L77.3169 80.6845C77.642 80.9089 77.876 81.1707 77.9961 81.4759L76.7717 82.1997L76.0816 81.8546L76.5507 81.577C76.7067 81.4843 76.7467 81.4371 76.6877 81.3407L76.5087 81.1627L74.9803 82.0657L74.9872 82.0685C75.3253 82.5468 75.5864 83.1007 74.5361 83.7221C73.5989 84.2767 72.5436 84.3207 71.7144 83.9944L70.8201 84.5234L70.332 84.2347L71.2003 83.7221Z" fill="#F2F2F2"/>
<path d="M66.5 79.6109V81.5376H66.506C66.521 82.1353 66.7428 82.7048 67.1334 83.2227V79.6109H66.5Z" fill="#E0E0E0"/>
<path d="M67.6211 79.6078V83.7509C67.9022 84.016 68.2293 84.2615 68.5974 84.4859V80.038H69.0855V84.757C69.4226 84.9281 69.7837 85.0825 70.1698 85.2176V80.7271H70.6579V85.3764C71.06 85.4939 71.4801 85.5943 71.9182 85.6703V81.5519H72.4074V85.7418C72.8165 85.7962 73.2376 85.8291 73.6677 85.843V81.5519H74.1558V85.8555C74.6009 85.8534 75.0341 85.8266 75.4572 85.7838V81.5519H75.9463V85.7223C76.3664 85.6619 76.7765 85.5843 77.1656 85.4847V80.7271H77.6547V85.3508C78.0369 85.234 78.3979 85.0981 78.739 84.9473V80.038H79.2272V84.7098C79.5863 84.5214 79.9123 84.3147 80.2024 84.0908V79.6078H67.6211Z" fill="#E0E0E0"/>
<path d="M80.6875 79.6108V83.6699C81.3197 83.0413 81.6928 82.3143 81.7128 81.5374H81.7188V79.6108H80.6875Z" fill="#E0E0E0"/>
<path d="M67.1309 79.6109V83.2225C67.2707 83.4076 67.4385 83.5828 67.6183 83.7539V79.6109H67.1309Z" fill="#828282"/>
<path d="M68.5977 80.0425V84.4906C68.7525 84.5846 68.9153 84.6749 69.0851 84.7617V80.0425H68.5977Z" fill="#828282"/>
<path d="M70.168 80.7317V85.2221C70.3268 85.2773 70.4887 85.3309 70.6555 85.3809V80.7317H70.168Z" fill="#828282"/>
<path d="M71.9199 81.5524V85.6706C72.0797 85.6982 72.2436 85.7206 72.4084 85.7422V81.5524H71.9199Z" fill="#828282"/>
<path d="M73.668 81.5564V85.8477C73.8158 85.8529 73.9617 85.8613 74.1115 85.8613L74.1555 85.8602V81.5564H73.668Z" fill="#828282"/>
<path d="M80.2031 79.6148V84.0977C80.3789 83.9613 80.5438 83.8201 80.6926 83.6739V79.6148H80.2031Z" fill="#828282"/>
<path d="M78.7383 80.0478V84.957C78.9061 84.8827 79.069 84.8015 79.2258 84.7195V80.0478H78.7383Z" fill="#828282"/>
<path d="M77.1641 80.7263V85.4844C77.3299 85.4424 77.4927 85.3985 77.6525 85.3505V80.7263H77.1641Z" fill="#828282"/>
<path d="M75.459 81.5571V85.7891C75.6238 85.7727 75.7856 85.7503 75.9475 85.7275V81.5571H75.459Z" fill="#828282"/>
<path d="M74.113 75.2002C69.9079 75.2002 66.5 77.1627 66.5 79.5847C66.5 82.0054 69.9079 83.9688 74.113 83.9688C78.3171 83.9688 81.725 82.0054 81.725 79.5847C81.725 77.1627 78.3171 75.2002 74.113 75.2002Z" fill="#828282"/>
<path d="M74.1121 76.0988C70.7703 76.0988 68.0605 77.6599 68.0605 79.5846C68.0605 81.51 70.7703 83.0703 74.1121 83.0703C77.453 83.0703 80.1628 81.51 80.1628 79.5846C80.1628 77.6599 77.453 76.0988 74.1121 76.0988Z" fill="#BDBDBD"/>
<path d="M74.7172 78.8323L75.9685 78.0942C75.6634 78.0266 75.3333 78.0678 74.9862 78.2725C74.6732 78.4577 74.6392 78.6328 74.7172 78.8323ZM73.946 79.8652L72.5916 80.6656C72.9077 80.7392 73.2768 80.7004 73.6849 80.4598C74.015 80.2642 74.046 80.0678 73.946 79.8652ZM71.2003 80.9104C70.7871 80.6461 70.5391 80.377 70.4081 80.0535L71.7024 79.2898L72.4086 79.6336L71.9044 79.9308C71.7484 80.0239 71.7074 80.0711 71.7664 80.1682C71.8144 80.247 71.9114 80.3362 72.0425 80.413L73.6669 79.4537C73.2838 78.9707 73.0807 78.4516 74.089 77.8559C74.9572 77.3428 75.9875 77.2654 76.8108 77.5956L77.61 77.1238L78.0981 77.4125L77.3169 77.8743C77.642 78.0974 77.876 78.3593 77.9961 78.6656L76.7717 79.3894L76.0816 79.0431L76.5507 78.7668C76.7067 78.6736 76.7467 78.6264 76.6877 78.5292L76.5087 78.3513L74.9803 79.2542L74.9862 79.2581C75.3253 79.736 75.5864 80.2897 74.5361 80.9104C73.5989 81.465 72.5446 81.509 71.7154 81.1835L70.8201 81.7129L70.332 81.423L71.2003 80.9104Z" fill="#F2F2F2"/>
<path d="M52.2559 91.8716V93.7974H52.2619C52.2758 94.3952 52.4986 94.9654 52.8892 95.4824V91.8716H52.2559Z" fill="#E0E0E0"/>
<path d="M53.3789 91.8705V96.0138C53.659 96.2777 53.9861 96.5244 54.3552 96.7476V92.2996H54.8443V97.0199C55.1804 97.191 55.5425 97.3434 55.9276 97.4786V92.9886H56.4167V97.6373C56.8178 97.7569 57.2369 97.8565 57.677 97.9332V93.8148H58.1651V98.0036C58.5733 98.058 58.9944 98.092 59.4255 98.1052V93.8148H59.9146V98.1172C60.3587 98.1152 60.7918 98.0896 61.2149 98.0456V93.8148H61.7031V97.9844C62.1252 97.9248 62.5333 97.8473 62.9234 97.7477V92.9886H63.4125V97.6125C63.7956 97.497 64.1557 97.3598 64.4958 97.2082V92.2996H64.9859V96.9727C65.344 96.7836 65.6701 96.5768 65.9612 96.3525V91.8705H53.3789Z" fill="#E0E0E0"/>
<path d="M66.4473 91.8736V95.9316C67.0804 95.3022 67.4545 94.5764 67.4735 93.7995H67.4795V91.8736H66.4473Z" fill="#E0E0E0"/>
<path d="M52.8887 91.8726V95.4834C53.0275 95.6693 53.1954 95.8445 53.3762 96.0156V91.8726H52.8887Z" fill="#828282"/>
<path d="M54.3535 92.2958V96.7433C54.5094 96.8385 54.6722 96.9289 54.842 97.0156V92.2958H54.3535Z" fill="#828282"/>
<path d="M55.9238 92.9921V97.4819C56.0837 97.5383 56.2445 97.5926 56.4123 97.6406V92.9921H55.9238Z" fill="#828282"/>
<path d="M57.6777 93.8095V97.9277C57.8376 97.9541 58.0014 97.9769 58.1652 97.998V93.8095H57.6777Z" fill="#828282"/>
<path d="M59.4238 93.8175V98.1079C59.5707 98.1131 59.7175 98.1211 59.8664 98.1211L59.9123 98.1199V93.8175H59.4238Z" fill="#828282"/>
<path d="M65.959 91.874V96.3555C66.1348 96.2203 66.2987 96.0792 66.4465 95.9316V91.874H65.959Z" fill="#828282"/>
<path d="M64.4941 92.3003V97.209C64.663 97.1342 64.8258 97.0554 64.9836 96.9734V92.3003H64.4941Z" fill="#828282"/>
<path d="M62.9199 92.9871V97.7461C63.0857 97.7041 63.2496 97.6601 63.4084 97.6109V92.9871H62.9199Z" fill="#828282"/>
<path d="M61.2148 93.8162V98.0469C61.3797 98.0297 61.5415 98.0093 61.7024 97.9857V93.8162H61.2148Z" fill="#828282"/>
<path d="M59.8679 87.4609C55.6638 87.4609 52.2559 89.4243 52.2559 91.8451C52.2559 94.2671 55.6638 96.2305 59.8679 96.2305C64.072 96.2305 67.4809 94.2671 67.4809 91.8451C67.4809 89.4243 64.072 87.4609 59.8679 87.4609Z" fill="#828282"/>
<path d="M59.868 88.3546C56.5261 88.3546 53.8164 89.915 53.8164 91.8404C53.8164 93.765 56.5261 95.3262 59.868 95.3262C63.2099 95.3262 65.9196 93.765 65.9196 91.8404C65.9196 89.915 63.2099 88.3546 59.868 88.3546Z" fill="#BDBDBD"/>
<path d="M60.476 91.0932L61.7263 90.3542C61.4213 90.2875 61.0922 90.3286 60.7441 90.5334C60.432 90.7185 60.397 90.8937 60.476 91.0932ZM59.7048 92.1261L58.3504 92.9266C58.6655 93.0002 59.0346 92.9614 59.4427 92.7207C59.7738 92.5243 59.8038 92.3288 59.7048 92.1261ZM56.9581 93.1713C56.545 92.9062 56.2979 92.6379 56.1669 92.3132L57.4602 91.5498L58.1664 91.8945L57.6623 92.1916C57.5062 92.2848 57.4652 92.332 57.5252 92.4292C57.5712 92.5079 57.6693 92.5971 57.8003 92.6739L59.4247 91.7134C59.0416 91.2311 58.8396 90.7125 59.8468 90.1167C60.7151 89.6036 61.7463 89.5262 62.5675 89.8564L63.3668 89.3846L63.8559 89.6724L63.0737 90.1339C63.3998 90.3582 63.6348 90.6202 63.7539 90.9264L62.5295 91.6502L61.8393 91.3039L62.3095 91.0268C62.4655 90.9344 62.5055 90.8873 62.4455 90.7901L62.2665 90.6121L60.7381 91.515L60.7441 91.5191C61.0842 91.9969 61.3452 92.5507 60.2939 93.1713C59.3567 93.7259 58.3024 93.7699 57.4732 93.4444L56.578 93.9727L56.0898 93.6839L56.9581 93.1713Z" fill="#F2F2F2"/>
<path d="M72.5859 94.0399V95.9653H72.5919C72.6069 96.5639 72.8287 97.1334 73.2193 97.6504V94.0399H72.5859Z" fill="#E0E0E0"/>
<path d="M73.7109 94.0398V98.1826C73.992 98.4465 74.3191 98.6932 74.6872 98.9164V94.4685H75.1763V99.1879C75.5124 99.3586 75.8745 99.5122 76.2596 99.6473V95.1575H76.7488V99.8069C77.1509 99.9249 77.57 100.024 78.0091 100.101V95.9836H78.4972V100.172C78.9063 100.227 79.3264 100.26 79.7576 100.275V95.9836H80.2467V100.285C80.6908 100.284 81.1239 100.258 81.547 100.214V95.9836H82.0352V100.153C82.4573 100.094 82.8654 100.015 83.2555 99.9165V95.1575H83.7446V99.7813C84.1277 99.6657 84.4888 99.5286 84.8279 99.3782V94.4685H85.318V99.1407C85.6761 98.9532 86.0022 98.7456 86.2933 98.5213V94.0398H73.7109Z" fill="#E0E0E0"/>
<path d="M86.7832 94.036V98.0938C87.4164 97.4643 87.7905 96.7385 87.8105 95.9615H87.8155V94.036H86.7832Z" fill="#E0E0E0"/>
<path d="M73.2207 94.0388V97.6494C73.3596 97.8345 73.5274 98.0105 73.7082 98.1816V94.0388H73.2207Z" fill="#828282"/>
<path d="M74.6855 94.4643V98.9121C74.8414 99.0073 75.0042 99.0976 75.174 99.1836V94.4643H74.6855Z" fill="#828282"/>
<path d="M76.2598 95.159V99.649C76.4196 99.7054 76.5814 99.7598 76.7482 99.8086V95.159H76.2598Z" fill="#828282"/>
<path d="M78.0078 95.983V100.1C78.1676 100.128 78.3314 100.151 78.4953 100.172V95.983H78.0078Z" fill="#828282"/>
<path d="M79.7578 95.9816V100.273C79.9047 100.278 80.0515 100.285 80.2003 100.285L80.2463 100.283V95.9816H79.7578Z" fill="#828282"/>
<path d="M86.293 94.042V98.5234C86.4688 98.3875 86.6326 98.2471 86.7805 98.0996V94.042H86.293Z" fill="#828282"/>
<path d="M84.8262 94.4693V99.3789C84.996 99.3029 85.1578 99.2242 85.3157 99.1414V94.4693H84.8262Z" fill="#828282"/>
<path d="M83.2559 95.1571V99.916C83.4217 99.874 83.5855 99.83 83.7443 99.7809V95.1571H83.2559Z" fill="#828282"/>
<path d="M81.5488 95.9861V100.217C81.7137 100.2 81.8755 100.179 82.0364 100.156V95.9861H81.5488Z" fill="#828282"/>
<path d="M80.198 89.6284C75.9939 89.6284 72.5859 91.5907 72.5859 94.0128C72.5859 96.435 75.9939 98.3984 80.198 98.3984C84.4031 98.3984 87.811 96.435 87.811 94.0128C87.811 91.5907 84.4031 89.6284 80.198 89.6284Z" fill="#828282"/>
<path d="M80.2 90.5229C76.8591 90.5229 74.1504 92.0839 74.1504 94.0085C74.1504 95.9331 76.8591 97.4941 80.2 97.4941C83.5429 97.4941 86.2516 95.9331 86.2516 94.0085C86.2516 92.0839 83.5429 90.5229 80.2 90.5229Z" fill="#BDBDBD"/>
<path d="M80.808 93.2691L82.0584 92.5301C81.7533 92.4634 81.4242 92.5046 81.0761 92.7101C80.764 92.8944 80.729 93.0696 80.808 93.2691ZM80.0368 94.3019L78.6825 95.1024C78.9996 95.176 79.3667 95.1372 79.7758 94.8965C80.1059 94.701 80.1368 94.5046 80.0368 94.3019ZM77.2911 95.3471C76.877 95.082 76.6299 94.8137 76.4999 94.4894L77.7942 93.7257L78.4994 94.0704L77.9963 94.3675C77.8403 94.4607 77.7972 94.5078 77.8573 94.605C77.9043 94.6838 78.0033 94.7729 78.1333 94.8497L79.7568 93.8893C79.3737 93.4082 79.1726 92.8884 80.1809 92.2926C81.0481 91.7796 82.0794 91.702 82.9006 92.0327L83.6988 91.5605L84.1879 91.8484L83.4057 92.3098C83.7328 92.5342 83.9669 92.796 84.0859 93.1023L82.8626 93.8261L82.1724 93.4798L82.6415 93.2035C82.7976 93.1103 82.8376 93.0632 82.7796 92.966L82.5995 92.7881L81.0701 93.6909L81.0771 93.6949C81.4162 94.1732 81.6773 94.7278 80.626 95.3471C79.6887 95.9017 78.6345 95.9469 77.8052 95.6202L76.91 96.1484L76.4219 95.8597L77.2911 95.3471Z" fill="#F2F2F2"/>
</svg>
