<svg width="23" height="17" viewBox="0 0 23 17" fill="none" xmlns="http://www.w3.org/2000/svg">
<mask id="mask0_8317_240073" style="mask-type:alpha" maskUnits="userSpaceOnUse" x="14" y="1" width="8" height="8">
<path fill-rule="evenodd" clip-rule="evenodd" d="M21.6292 2.3459C21.7917 2.5084 21.7917 2.7709 21.6292 2.9334L20.8667 3.6959L19.3042 2.1334L20.0667 1.3709C20.2292 1.2084 20.4917 1.2084 20.6542 1.3709L21.6292 2.3459ZM14.25 8.75006V7.18756L18.8583 2.57923L20.4208 4.14173L15.8125 8.75006H14.25Z" fill="white"/>
</mask>
<g mask="url(#mask0_8317_240073)">
<rect x="13" width="10" height="10" fill="#2B2D30"/>
</g>
<path d="M15.6838 3.2832H3C1.89543 3.2832 1 4.17863 1 5.2832V13.9995C1 15.104 1.89543 15.9995 3 15.9995H17.8571C18.9617 15.9995 19.8571 15.104 19.8571 13.9995V7.58429" stroke="#2B2D30" stroke-linecap="round"/>
<path d="M3.3576 6.31836C3.08146 6.31836 2.8576 6.54222 2.8576 6.81836C2.8576 7.0945 3.08146 7.31836 3.3576 7.31836V6.31836ZM12.4915 7.31836C12.7677 7.31836 12.9915 7.0945 12.9915 6.81836C12.9915 6.54222 12.7677 6.31836 12.4915 6.31836V7.31836ZM3.3576 7.31836L12.4915 7.31836V6.31836L3.3576 6.31836V7.31836Z" fill="#2B2D30"/>
<path d="M3.3576 10.2012C3.08146 10.2012 2.8576 10.425 2.8576 10.7012C2.8576 10.9773 3.08146 11.2012 3.3576 11.2012V10.2012ZM9.54511 11.2012C9.82125 11.2012 10.0451 10.9773 10.0451 10.7012C10.0451 10.425 9.82125 10.2012 9.54511 10.2012V11.2012ZM3.3576 11.2012H9.54511V10.2012H3.3576V11.2012Z" fill="#2B2D30"/>
<path d="M11.33 11.8827L11.0314 11.6559L11.33 11.8827ZM12.085 12.2915L12.4382 12.4176H12.4382L12.085 12.2915ZM11.9102 12.7811L12.2633 12.9072V12.9072L11.9102 12.7811ZM12.8769 13.2678L12.5106 13.3482L12.8769 13.2678ZM12.9171 13.4511L13.2834 13.3707V13.3707L12.9171 13.4511ZM13.5031 13.7288L13.3334 13.3944H13.3334L13.5031 13.7288ZM14.6399 13.1518L14.4702 12.8174V12.8174L14.6399 13.1518ZM14.9602 13.472L14.6258 13.3024L14.6258 13.3024L14.9602 13.472ZM12.3883 13.1068L12.635 13.3892H12.635L12.3883 13.1068ZM9.84179 14.4623L11.6287 12.1095L11.0314 11.6559L9.24452 14.0087L9.84179 14.4623ZM11.7319 12.1654L11.557 12.655L12.2633 12.9072L12.4382 12.4176L11.7319 12.1654ZM12.5106 13.3482L12.5508 13.5314L13.2834 13.3707L13.2432 13.1875L12.5106 13.3482ZM13.6728 14.0632L14.8096 13.4862L14.4702 12.8174L13.3334 13.3944L13.6728 14.0632ZM15.1727 14.1931H17.2039V13.4431H15.1727V14.1931ZM14.6258 13.3024C14.4189 13.7103 14.7153 14.1931 15.1727 14.1931V13.4431C15.2747 13.4431 15.3408 13.5507 15.2947 13.6417L14.6258 13.3024ZM14.8096 13.4862C14.6917 13.546 14.566 13.4203 14.6258 13.3024L15.2947 13.6417C15.563 13.1128 14.999 12.549 14.4702 12.8174L14.8096 13.4862ZM12.5508 13.5314C12.6609 14.033 13.2149 14.2956 13.6728 14.0632L13.3334 13.3944C13.313 13.4047 13.2883 13.393 13.2834 13.3707L12.5508 13.5314ZM12.635 13.3892C12.5915 13.4272 12.523 13.4047 12.5106 13.3482L13.2432 13.1875C13.1335 12.687 12.5275 12.4873 12.1416 12.8243L12.635 13.3892ZM11.557 12.655C11.3235 13.309 12.1121 13.846 12.635 13.3892L12.1416 12.8243C12.1494 12.8175 12.1679 12.8079 12.1916 12.8073C12.2116 12.8068 12.2258 12.8128 12.2345 12.8187C12.2432 12.8247 12.254 12.8356 12.2609 12.8545C12.269 12.8767 12.2668 12.8975 12.2633 12.9072L11.557 12.655ZM11.6287 12.1095C11.6393 12.0956 11.6473 12.0899 11.651 12.0877C11.6547 12.0853 11.658 12.0842 11.6614 12.0837C11.6694 12.0823 11.6854 12.0831 11.7042 12.0932C11.723 12.1034 11.7324 12.1164 11.7356 12.1239C11.737 12.1271 11.7379 12.1304 11.738 12.1348C11.7381 12.1391 11.7377 12.149 11.7319 12.1654L12.4382 12.4176C12.7493 11.5463 11.591 10.9191 11.0314 11.6559L11.6287 12.1095Z" fill="#2B2D30"/>
</svg>
