<svg width="30" height="24" viewBox="0 0 30 24" fill="none" xmlns="http://www.w3.org/2000/svg">
<path d="M21.7131 5.21088H3C1.89543 5.21088 1 6.10631 1 7.21088V20.2818C1 21.3864 1.89543 22.2818 3 22.2818H25.6C26.7045 22.2818 27.6 21.3864 27.6 20.2818V10.9849" stroke="#8F9EC4" stroke-width="2" stroke-linecap="round"/>
<path d="M4.32486 9.95294L17.2092 9.95294" stroke="#8F9EC4" stroke-width="2" stroke-linecap="round"/>
<path d="M4.32486 15.1687H13.053" stroke="#8F9EC4" stroke-width="2" stroke-linecap="round"/>
<mask id="mask0_6369_141516" style="mask-type:alpha" maskUnits="userSpaceOnUse" x="20" y="3" width="9" height="9">
<path fill-rule="evenodd" clip-rule="evenodd" d="M28.3124 4.39719C28.484 4.56879 28.484 4.84599 28.3124 5.01759L27.5072 5.82279L25.8572 4.17279L26.6624 3.36759C26.834 3.19599 27.1112 3.19599 27.2828 3.36759L28.3124 4.39719ZM20.52 11.16V9.50999L25.3864 4.64359L27.0364 6.29359L22.17 11.16H20.52Z" fill="white"/>
</mask>
<g mask="url(#mask0_6369_141516)">
<rect x="19.2" y="1.91998" width="10.56" height="10.56" fill="#8F9EC4"/>
</g>
<path d="M13.0531 19.9112L15.6123 16.7043C16.0384 16.1703 16.8832 16.6498 16.6432 17.2895L16.4084 17.915C16.2559 18.3213 16.7411 18.6663 17.0748 18.3889V18.3889C17.3171 18.1875 17.6866 18.3121 17.7574 18.6192L17.8117 18.8547C17.8941 19.2123 18.2872 19.4008 18.6176 19.2412L20.2758 18.4402C20.555 18.3054 20.8438 18.606 20.698 18.8795V18.8795C20.5842 19.093 20.7389 19.3507 20.9808 19.3507H23.8593" stroke="#8F9EC4" stroke-width="2" stroke-linecap="round"/>
</svg>
