<svg width="37" height="24" viewBox="0 0 37 24" fill="none" xmlns="http://www.w3.org/2000/svg">
<path d="M33.0173 6.43343C30.783 2.65955 26.6502 -0.00127107 22.2401 4.55519e-07C17.8995 4.55519e-07 13.7713 2.58532 11.4624 6.43343H14.544C16.6475 3.99433 19.373 2.66877 22.2401 2.66559C25.0588 2.66559 27.8298 3.99433 29.9349 6.43343H33.0173Z" fill="#FF0001"/>
<path d="M10.1894 19.2157L10.131 19.2811C9.18624 20.369 8.08913 20.9452 6.95886 20.9452C4.59799 20.9452 2.88587 18.9529 2.88587 16.2051C2.88587 13.4604 4.59799 11.4634 6.95943 11.4634C8.0897 11.4634 9.18681 12.0396 10.1316 13.1304L10.19 13.1981L11.7119 11.1309L11.6727 11.0782C10.4096 9.39466 8.89149 8.58057 7.03227 8.58057C5.1627 8.58057 3.4561 9.28324 2.2214 10.5591C0.88565 11.9495 0.181641 13.8941 0.181641 16.2051C0.181641 18.5097 0.88565 20.4647 2.2214 21.8475C3.4561 23.1285 5.1627 23.8311 7.03227 23.8311C8.89149 23.8311 10.4096 23.0109 11.6721 21.3365L11.7113 21.2801L10.1894 19.2157Z" fill="#092869"/>
<path d="M13.2434 23.5499H15.9248V8.83075H13.2434V23.5499Z" fill="#092869"/>
<path d="M26.4324 20.3463C25.7152 20.8342 25.0472 21.0847 24.4469 21.0847C23.5789 21.0847 23.1933 20.5713 23.1933 19.4208V11.6049H25.919V8.83135H23.1933V4.2464L20.5608 5.82945V8.83135H18.2935V11.6049H20.5608V19.9203C20.5608 22.1858 21.7554 23.7349 23.5367 23.7743C24.7435 23.7975 25.4748 23.3971 25.913 23.0974L25.9405 23.0769L26.5877 20.2382L26.4324 20.3463Z" fill="#092869"/>
<path d="M28.6497 23.5499H31.3306V8.83075H28.6497V23.5499Z" fill="#092869"/>
<path fill-rule="evenodd" clip-rule="evenodd" d="M35.7643 4.40497C36.2216 4.61745 36.5197 5.11795 36.5196 5.67306L36.5199 5.67243C36.5265 6.03875 36.3997 6.39227 36.1687 6.65137C35.9377 6.91046 35.6226 7.05274 35.296 7.04535C34.801 7.04535 34.3548 6.71095 34.1654 6.19808C33.976 5.68521 34.0808 5.09489 34.4308 4.70238C34.7807 4.30987 35.3071 4.19249 35.7643 4.40497ZM36.3229 5.67307C36.3229 6.30921 35.8631 6.82491 35.296 6.82491C34.7288 6.82491 34.269 6.30921 34.269 5.67307C34.269 5.03693 34.7288 4.52123 35.296 4.52123C35.5699 4.5152 35.8343 4.63462 36.0281 4.85195C36.2218 5.06929 36.3283 5.36578 36.3229 5.67307ZM35.4182 4.89663C35.6554 4.89663 35.8555 5.03761 35.8555 5.34929L35.8553 5.34993C35.8674 5.55461 35.7477 5.73992 35.5706 5.79083L35.8451 6.3948H35.5772L35.3162 5.81673H35.0586V6.3948H34.8318V4.89663H35.4182ZM35.4115 5.56991C35.5335 5.56991 35.625 5.50506 35.625 5.35677C35.6259 5.29523 35.6028 5.23632 35.5618 5.19543C35.5208 5.15455 35.4659 5.13575 35.4115 5.14395H35.0589V5.56991H35.4115Z" fill="#092869"/>
</svg>
