<?xml version="1.0" encoding="UTF-8"?>
<svg width="28px" height="28px" viewBox="0 0 28 28" version="1.1" xmlns="http://www.w3.org/2000/svg" xmlns:xlink="http://www.w3.org/1999/xlink">
    <title>70ABB361-AA88-438A-8DD8-6503485C3CC4</title>
    <g id="Client-Onboarding-Invision" stroke="none" stroke-width="1" fill="none" fill-rule="evenodd">
        <g id="Client-Onboarding-Copy" transform="translate(-22.000000, -99.000000)" fill="#EFEFEF" fill-rule="nonzero">
            <g id="SIDE-NAV" transform="translate(0.000000, 55.000000)">
                <g id="public-24px" transform="translate(19.000000, 41.000000)">
                    <path d="M17,3 C24.728,3 31,9.272 31,17 C31,24.728 24.728,31 17,31 C9.272,31 3,24.728 3,17 C3,9.272 9.272,3 17,3 Z M6.094,14.494 C5.912,15.306 5.8,16.132 5.8,17 C5.8,22.712 10.07,27.416 15.6,28.102 L15.6,28.102 L15.6,25.4 C14.06,25.4 12.8,24.14 12.8,22.6 L12.8,22.6 L12.8,21.2 Z M21.2,6.626 L21.2,7.2 C21.2,8.74 19.94,10 18.4,10 L18.4,10 L15.6,10 L15.6,12.8 C15.6,13.57 14.97,14.2 14.2,14.2 L14.2,14.2 L11.4,14.2 L11.4,17 L19.8,17 C20.57,17 21.2,17.63 21.2,18.4 L21.2,18.4 L21.2,22.6 L22.6,22.6 C23.86,22.6 24.896,23.412 25.26,24.546 C27.08,22.558 28.2,19.912 28.2,17 C28.2,12.31 25.302,8.292 21.2,6.626 L21.2,6.626 Z" id="Combined-Shape"></path>
                </g>
            </g>
        </g>
    </g>
</svg>