<?xml version="1.0" encoding="UTF-8"?>
<svg width="24px" height="24px" viewBox="0 0 24 24" version="1.1" xmlns="http://www.w3.org/2000/svg" xmlns:xlink="http://www.w3.org/1999/xlink">
    <title>873030C8-75F3-4B7B-AE11-21469EEB0954</title>
    <defs>
        <path d="M2.99999996,16 L7.99999996,16 L7.99999996,14 L2.99999996,14 L2.99999996,16 L2.99999996,16 Z M9.49999999,16 L14.5,16 L14.5,14 L9.49999999,14 L9.49999999,16 L9.49999999,16 Z M16,16 L21,16 L21,14 L16,14 L16,16 L16,16 Z M2.99999996,20 L4.99999996,20 L4.99999996,18 L2.99999996,18 L2.99999996,20 L2.99999996,20 Z M6.99999998,20 L8.99999998,20 L8.99999998,18 L6.99999998,18 L6.99999998,20 L6.99999998,20 Z M11,20 L13,20 L13,18 L11,18 L11,20 L11,20 Z M15,20 L17,20 L17,18 L15,18 L15,20 L15,20 Z M19,20 L21,20 L21,18 L19,18 L19,20 L19,20 Z M2.99999996,12 L11,12 L11,9.99999999 L2.99999996,9.99999999 L2.99999996,12 L2.99999996,12 Z M13,12 L21,12 L21,9.99999999 L13,9.99999999 L13,12 L13,12 Z M2.99999996,3.99999997 L2.99999996,7.99999997 L21,7.99999997 L21,3.99999997 L2.99999996,3.99999997 L2.99999996,3.99999997 Z" id="path-1"></path>
    </defs>
    <g id="Client-Portal-v2" stroke="none" stroke-width="1" fill="none" fill-rule="evenodd">
        <g id="SUPPLIER-DETAILS-3" transform="translate(-291.000000, -1457.000000)">
            <g id="Accordion/Grey/Check/closed" transform="translate(283.000000, 1432.000000)">
                <g id="ic_arrow_back" transform="translate(8.000000, 25.000000)">
                    <polygon id="Base" points="-4.99999828e-08 -4.9999926e-08 24.0000001 -4.9999926e-08 24.0000001 24.0000001 -4.99999828e-08 24.0000001"></polygon>
                    <mask id="mask-2" fill="white">
                        <use xlink:href="#path-1"></use>
                    </mask>
                    <g id="Icon" fill-rule="nonzero"></g>
                    <rect id="↳-🎨-Color" fill="#0B1941" mask="url(#mask-2)" x="0" y="0" width="24" height="24"></rect>
                </g>
            </g>
        </g>
    </g>
</svg>