<svg width="20" height="16" viewBox="0 0 20 16" fill="none" xmlns="http://www.w3.org/2000/svg">
<rect x="0.408004" y="0.105043" width="13.2373" height="7.76674" rx="0.7" transform="matrix(0.857529 -0.514454 0.502486 0.864596 0.610998 7.34326)" stroke="#2B2D30" stroke-width="0.6"/>
<rect x="0.280446" y="0.0722035" width="12.5851" height="0.412192" rx="0.206096" transform="matrix(0.857806 -0.513978 0.502951 0.864317 2.03268 8.77601)" fill="#2B2D30" stroke="#2B2D30" stroke-width="0.412192"/>
<rect x="0.0307824" y="-0.119562" width="12.8212" height="0.173509" rx="0.0867547" transform="matrix(0.857856 -0.513892 -0.503036 -0.864267 3.0389 10.2431)" fill="#2B2D30" stroke="#2B2D30" stroke-width="0.173509"/>
<rect x="6.38887" y="7.77559" width="13.3111" height="7.92489" rx="0.7" fill="white" stroke="white" stroke-width="0.6"/>
<rect x="6.78615" y="8.0998" width="12.5338" height="7.27648" rx="0.7" stroke="#2B2D30" stroke-width="0.6"/>
<rect x="13.2643" y="9.13672" width="4.20053" height="2.15751" rx="1" fill="#2B2D30"/>
<rect x="7.83063" y="12.1738" width="9.63427" height="0.482059" rx="0.241029" fill="#2B2D30"/>
<rect x="7.83063" y="13.8613" width="4.83874" height="0.482059" rx="0.241029" fill="#2B2D30"/>
<rect x="16.6873" y="13.8613" width="0.777659" height="0.482059" rx="0.241029" fill="#2B2D30"/>
<rect x="14.8295" y="13.8613" width="0.777659" height="0.482059" rx="0.241029" fill="#2B2D30"/>
<path d="M10.1972 10.0839C10.1972 10.4566 9.90035 10.7515 9.54317 10.7515C9.18598 10.7515 8.88917 10.4566 8.88917 10.0839C8.88917 9.71109 9.18598 9.41621 9.54317 9.41621C9.90035 9.41621 10.1972 9.71109 10.1972 10.0839Z" stroke="#2B2D30" stroke-width="0.6"/>
<path d="M9.43861 10.0839C9.43861 10.4566 9.14181 10.7515 8.78462 10.7515C8.42743 10.7515 8.13063 10.4566 8.13063 10.0839C8.13063 9.71109 8.42743 9.41621 8.78462 9.41621C9.14181 9.41621 9.43861 9.71109 9.43861 10.0839Z" fill="white" stroke="#2B2D30" stroke-width="0.6"/>
</svg>
