<?xml version="1.0" encoding="UTF-8"?>
<svg width="20px" height="18px" viewBox="0 0 20 18" version="1.1" xmlns="http://www.w3.org/2000/svg" xmlns:xlink="http://www.w3.org/1999/xlink">
    <title>wire_selected</title>
    <defs>
        <path d="M3.24999996,17.3333334 L8.66666665,17.3333334 L8.66666665,15.1666667 L3.24999996,15.1666667 L3.24999996,17.3333334 L3.24999996,17.3333334 Z M10.2916667,17.3333334 L15.7083333,17.3333334 L15.7083333,15.1666667 L10.2916667,15.1666667 L10.2916667,17.3333334 L10.2916667,17.3333334 Z M17.3333334,17.3333334 L22.75,17.3333334 L22.75,15.1666667 L17.3333334,15.1666667 L17.3333334,17.3333334 L17.3333334,17.3333334 Z M3.24999996,21.6666667 L5.41666664,21.6666667 L5.41666664,19.5 L3.24999996,19.5 L3.24999996,21.6666667 L3.24999996,21.6666667 Z M7.58333331,21.6666667 L9.74999999,21.6666667 L9.74999999,19.5 L7.58333331,19.5 L7.58333331,21.6666667 L7.58333331,21.6666667 Z M11.9166667,21.6666667 L14.0833333,21.6666667 L14.0833333,19.5 L11.9166667,19.5 L11.9166667,21.6666667 L11.9166667,21.6666667 Z M16.25,21.6666667 L18.4166667,21.6666667 L18.4166667,19.5 L16.25,19.5 L16.25,21.6666667 L16.25,21.6666667 Z M20.5833334,21.6666667 L22.75,21.6666667 L22.75,19.5 L20.5833334,19.5 L20.5833334,21.6666667 L20.5833334,21.6666667 Z M3.24999996,13 L11.9166667,13 L11.9166667,10.8333333 L3.24999996,10.8333333 L3.24999996,13 L3.24999996,13 Z M14.0833333,13 L22.75,13 L22.75,10.8333333 L14.0833333,10.8333333 L14.0833333,13 L14.0833333,13 Z M3.24999996,4.3333333 L3.24999996,8.66666665 L22.75,8.66666665 L22.75,4.3333333 L3.24999996,4.3333333 L3.24999996,4.3333333 Z" id="path-1"></path>
    </defs>
    <g id="Supplier-Portal-Phase-1" stroke="none" stroke-width="1" fill="none" fill-rule="evenodd">
        <g id="wire_unselected" transform="translate(-3.000000, -4.000000)">
            <polygon id="Base" points="-5.41666481e-08 -5.41665865e-08 26.0000001 -5.41665865e-08 26.0000001 26.0000001 -5.41666481e-08 26.0000001"></polygon>
            <mask id="mask-2" fill="white">
                <use xlink:href="#path-1"></use>
            </mask>
            <g id="Icon" fill-rule="nonzero"></g>
            <rect id="↳-🎨-Color" fill="#002D72" mask="url(#mask-2)" x="0" y="0" width="26" height="26"></rect>
        </g>
    </g>
</svg>