<?xml version="1.0" encoding="UTF-8"?>
<svg width="208px" height="134px" viewBox="0 0 208 134" version="1.1" xmlns="http://www.w3.org/2000/svg" xmlns:xlink="http://www.w3.org/1999/xlink">
    <title>E6163BE6-A2EF-4341-8718-71573770600F</title>
    <g id="Supplier-Portal" stroke="none" stroke-width="1" fill="none" fill-rule="evenodd">
        <g id="T&amp;Cs-PMTX" transform="translate(-655.000000, -305.000000)" fill-rule="nonzero">
            <g id="undraw_success_factors_fay0" transform="translate(655.000000, 305.000000)">
                <rect id="Rectangle" fill="#E6E6E6" x="0" y="0" width="208" height="134"></rect>
                <rect id="Rectangle" fill="#FFFFFF" x="6" y="17" width="196" height="51"></rect>
                <rect id="Rectangle" fill="#E6E6E6" x="55" y="24" width="42" height="2"></rect>
                <rect id="Rectangle" fill="#6094B1" x="55" y="33" width="64" height="2"></rect>
                <rect id="Rectangle" fill="#E6E6E6" x="55" y="41" width="52" height="2"></rect>
                <rect id="Rectangle" fill="#E6E6E6" x="55" y="50" width="31" height="2"></rect>
                <rect id="Rectangle" fill="#E6E6E6" x="55" y="58" width="46" height="2"></rect>
                <rect id="Rectangle" fill="#E6E6E6" x="36" y="23" width="5" height="5"></rect>
                <rect id="Rectangle" fill="#6094B1" x="36" y="32" width="5" height="5"></rect>
                <rect id="Rectangle" fill="#E6E6E6" x="36" y="40" width="5" height="5"></rect>
                <rect id="Rectangle" fill="#E6E6E6" x="36" y="48" width="5" height="5"></rect>
                <rect id="Rectangle" fill="#E6E6E6" x="36" y="56" width="5" height="5"></rect>
                <rect id="Rectangle" fill="#E6E6E6" x="158" y="35" width="17" height="17"></rect>
                <rect id="Rectangle" fill="#FFFFFF" x="6" y="75" width="196" height="51"></rect>
                <rect id="Rectangle" fill="#E6E6E6" x="45" y="79" width="5" height="5"></rect>
                <rect id="Rectangle" fill="#6094B1" x="36" y="79" width="5" height="5"></rect>
                <path d="M122.572903,91 C119.404661,85.7302834 113.85374,82.2754604 107.650484,81.7124761 C101.447228,81.1494917 95.3460417,83.546813 91.2487996,88.1571414 L90,87.0850712 C94.4465896,82.0798133 101.069213,79.4768429 107.802797,80.087821 C114.536381,80.6987991 120.561725,84.4493948 124,90.1700932 L122.572903,91 Z" id="Path" fill="#E6E6E6"></path>
                <path d="M123.390875,112 L122,111.093099 C126.204131,105.012703 126.437862,97.1325344 122.601081,90.8278623 L124.04335,90 C128.209406,96.8441552 127.955676,105.399343 123.390875,112 L123.390875,112 Z" id="Path" fill="#6094B1"></path>
                <path d="M89.6909508,114 C82.1733908,106.049194 82.0948337,94.0383833 89.5078158,86 L90.8312847,87.0951792 C84.0025051,94.5004512 84.0748756,105.564952 91,112.889546 L89.6909508,114 Z" id="Path" fill="#6094B1"></path>
                <path d="M105.605562,121 C99.6492224,120.995591 93.9755933,118.50763 90,114.156753 L91.2284337,113.077319 C95.2022527,117.432375 101.004112,119.742488 106.948041,119.33636 C112.89197,118.930233 118.311322,115.853413 121.631279,111 L123,111.902777 C119.111378,117.591107 112.587515,121.003061 105.605562,121 L105.605562,121 Z" id="Path" fill="#6094B1"></path>
                <rect id="Rectangle" fill="#E6E6E6" x="158" y="90" width="17" height="17"></rect>
                <rect id="Rectangle" fill="#E6E6E6" x="35" y="101" width="17" height="17"></rect>
                <rect id="Rectangle" fill="#6094B1" x="-2.27373675e-13" y="0" width="208" height="9"></rect>
                <circle id="Oval" fill="#FFFFFF" cx="6.5" cy="4.5" r="1.5"></circle>
                <circle id="Oval" fill="#FFFFFF" cx="12.5" cy="4.5" r="1.5"></circle>
                <circle id="Oval" fill="#FFFFFF" cx="19.5" cy="4.5" r="1.5"></circle>
                <path d="M104.863601,109 L104.863601,106.785633 C103.778053,106.763795 102.655039,106.369015 102,105.820928 L102.449156,104.352034 C103.227594,104.953561 104.17163,105.283743 105.144338,105.294687 C106.47324,105.294687 107.371633,104.395819 107.371633,103.146154 C107.371633,101.940273 106.64166,101.194907 105.256648,100.537105 C103.34755,99.6601734 102.168425,98.6515866 102.168425,96.7442285 C102.168425,94.9244362 103.272706,93.5432143 104.994651,93.2143657 L104.994651,91 L106.155041,91 L106.155041,93.1266955 C107.020332,93.1388761 107.864345,93.405037 108.588226,93.8940048 L108.120249,95.3410612 C107.425996,94.8510234 106.603318,94.5909647 105.762,94.5955893 C104.320879,94.5955893 103.778059,95.6040753 103.778059,96.4811082 C103.778059,97.6211552 104.470564,98.1911787 106.098932,98.9805413 C108.026672,99.9013465 109,101.041402 109,102.992649 C109,104.724664 107.970562,106.347175 106.042731,106.719692 L106.042731,109 L104.863601,109 Z" id="Path" fill="#121212"></path>
                <path d="M165.636344,49 L165.636344,47.7697959 C165.016031,47.7576639 164.374308,47.5383415 164,47.2338487 L164.256661,46.4177966 C164.701482,46.7519786 165.240931,46.9354127 165.796764,46.9414929 C166.556137,46.9414929 167.069505,46.4421214 167.069505,45.7478634 C167.069505,45.0779293 166.652377,44.6638372 165.860941,44.2983919 C164.770028,43.8112074 164.096243,43.2508814 164.096243,42.191238 C164.096243,41.1802423 164.727261,40.4128968 165.711229,40.2302032 L165.711229,39 L166.374309,39 L166.374309,40.1814975 C166.868761,40.1882645 167.351054,40.3361317 167.764701,40.6077804 L167.497285,41.4117006 C167.100569,41.1394574 166.630468,40.9949804 166.149714,40.9975496 C165.326217,40.9975496 165.016033,41.5578196 165.016033,42.0450601 C165.016033,42.6784195 165.411751,42.9950993 166.342247,43.4336341 C167.443813,43.9451925 168,44.5785568 168,45.662583 C168,46.6248131 167.41175,47.5262085 166.310132,47.7331622 L166.310132,49 L165.636344,49 Z" id="Path" fill="#121212"></path>
            </g>
        </g>
    </g>
</svg>