<svg width="181" height="120" viewBox="0 0 181 120" fill="none" xmlns="http://www.w3.org/2000/svg">
<rect x="55.5176" y="8.0752" width="125.354" height="90.8463" rx="20" fill="#CEE1F0"/>
<path d="M52.9265 7.82184C52.9265 7.82184 46.3675 16.5235 51.0598 26.6661C55.752 36.8088 42.8818 53.1051 42.8818 53.1051" stroke="#CCCCCC" stroke-width="2" stroke-miterlimit="10"/>
<path d="M55.8669 4.56527C55.3459 6.80468 52.853 8.13884 52.853 8.13884C52.853 8.13884 51.2069 5.84178 51.7279 3.60237C52.2489 1.36296 53.5946 -0.237349 54.7418 0.0288038C55.889 0.294957 56.3879 2.32585 55.8669 4.56527Z" fill="#33C3A4"/>
<path d="M54.1933 4.17508C54.3571 3.47201 54.276 2.85235 54.0122 2.79102C53.7484 2.72969 53.4017 3.24992 53.238 3.95299C53.0742 4.65606 53.1553 5.27573 53.4191 5.33706C53.6829 5.39838 54.0295 4.87814 54.1933 4.17508Z" fill="#33C3A4"/>
<path opacity="0.3" d="M54.1933 4.17508C54.3571 3.47201 54.276 2.85235 54.0122 2.79102C53.7484 2.72969 53.4017 3.24992 53.238 3.95299C53.0742 4.65606 53.1553 5.27573 53.4191 5.33706C53.6829 5.39838 54.0295 4.87814 54.1933 4.17508Z" fill="#0B1941"/>
<path d="M54.7341 14.5147C52.5687 15.2945 50.0928 13.9281 50.0928 13.9281C50.0928 13.9281 51.128 11.2988 53.2951 10.5207C55.4621 9.74256 57.5376 10.0121 57.9364 11.1072C58.3352 12.2024 56.8995 13.7349 54.7341 14.5147Z" fill="#33C3A4"/>
<path d="M54.1249 12.7881C54.8042 12.5426 55.2802 12.1375 55.1881 11.8832C55.096 11.6288 54.4707 11.6216 53.7914 11.867C53.1122 12.1124 52.6362 12.5176 52.7283 12.7719C52.8204 13.0263 53.4457 13.0335 54.1249 12.7881Z" fill="#33C3A4"/>
<path opacity="0.3" d="M54.1249 12.7881C54.8042 12.5426 55.2802 12.1375 55.1881 11.8832C55.096 11.6288 54.4707 11.6216 53.7914 11.867C53.1122 12.1124 52.6362 12.5176 52.7283 12.7719C52.8204 13.0263 53.4457 13.0335 54.1249 12.7881Z" fill="#0B1941"/>
<path d="M54.2302 22.4433C52.0648 23.2231 49.5889 21.8568 49.5889 21.8568C49.5889 21.8568 50.624 19.2274 52.7911 18.4493C54.9582 17.6712 57.0337 17.9408 57.4325 19.0359C57.8313 20.131 56.3956 21.6652 54.2302 22.4433Z" fill="#33C3A4"/>
<path d="M53.6473 20.8365C54.3272 20.592 54.804 20.1874 54.7122 19.9328C54.6205 19.6783 53.9949 19.6701 53.315 19.9146C52.6351 20.1591 52.1584 20.5637 52.2501 20.8183C52.3419 21.0729 52.9674 21.0811 53.6473 20.8365Z" fill="#33C3A4"/>
<path opacity="0.3" d="M53.6473 20.8365C54.3272 20.592 54.804 20.1874 54.7122 19.9328C54.6205 19.6783 53.9949 19.6701 53.315 19.9146C52.6351 20.1591 52.1584 20.5637 52.2501 20.8183C52.3419 21.0729 52.9674 21.0811 53.6473 20.8365Z" fill="#0B1941"/>
<path d="M56.7605 31.7451C54.5951 32.5249 52.1191 31.1585 52.1191 31.1585C52.1191 31.1585 53.1543 28.5292 55.3214 27.7511C57.4885 26.973 59.564 27.2425 59.9628 28.3376C60.3616 29.4328 58.9259 30.9704 56.7605 31.7451Z" fill="#33C3A4"/>
<path d="M56.1776 30.1424C56.8575 29.8979 57.3342 29.4933 57.2425 29.2388C57.1507 28.9842 56.5252 28.976 55.8453 29.2205C55.1654 29.465 54.6886 29.8697 54.7804 30.1242C54.8721 30.3788 55.4977 30.387 56.1776 30.1424Z" fill="#33C3A4"/>
<path opacity="0.3" d="M56.1776 30.1424C56.8575 29.8979 57.3342 29.4933 57.2425 29.2388C57.1507 28.9842 56.5252 28.976 55.8453 29.2205C55.1654 29.465 54.6886 29.8697 54.7804 30.1242C54.8721 30.3788 55.4977 30.387 56.1776 30.1424Z" fill="#0B1941"/>
<path d="M55.114 40.2518C52.9486 41.0316 50.4727 39.6652 50.4727 39.6652C50.4727 39.6652 51.5078 37.0359 53.6749 36.2578C55.842 35.4797 57.9175 35.7492 58.3163 36.8444C58.7151 37.9395 57.2811 39.4737 55.114 40.2518Z" fill="#33C3A4"/>
<path d="M54.536 38.5046C55.2153 38.2592 55.6913 37.854 55.5992 37.5997C55.5071 37.3454 54.8818 37.3381 54.2026 37.5836C53.5233 37.829 53.0473 38.2341 53.1394 38.4885C53.2315 38.7428 53.8568 38.7501 54.536 38.5046Z" fill="#33C3A4"/>
<path opacity="0.3" d="M54.536 38.5046C55.2153 38.2592 55.6913 37.854 55.5992 37.5997C55.5071 37.3454 54.8818 37.3381 54.2026 37.5836C53.5233 37.829 53.0473 38.2341 53.1394 38.4885C53.2315 38.7428 53.8568 38.7501 54.536 38.5046Z" fill="#0B1941"/>
<path d="M44.9569 16.7676C46.5555 18.4222 49.381 18.2933 49.381 18.2933C49.381 18.2933 49.6135 15.4775 48.0149 13.823C46.4163 12.1684 44.4359 11.4869 43.5908 12.2973C42.7457 13.1076 43.3583 15.113 44.9569 16.7676Z" fill="#33C3A4"/>
<path d="M47.4555 16.1805C47.6503 15.9925 47.4015 15.4192 46.8996 14.8998C46.3977 14.3805 45.8329 14.1118 45.638 14.2997C45.4431 14.4877 45.692 15.061 46.1939 15.5804C46.6958 16.0997 47.2606 16.3684 47.4555 16.1805Z" fill="#33C3A4"/>
<path opacity="0.3" d="M47.4555 16.1805C47.6503 15.9925 47.4015 15.4192 46.8996 14.8998C46.3977 14.3805 45.8329 14.1118 45.638 14.2997C45.4431 14.4877 45.692 15.061 46.1939 15.5804C46.6958 16.0997 47.2606 16.3684 47.4555 16.1805Z" fill="#0B1941"/>
<path d="M44.0389 43.0422C45.6375 44.6967 48.463 44.5679 48.463 44.5679C48.463 44.5679 48.6955 41.7521 47.0969 40.0975C45.4984 38.443 43.5179 37.7615 42.6728 38.5718C41.8277 39.3821 42.4403 41.3876 44.0389 43.0422Z" fill="#33C3A4"/>
<path d="M46.5355 42.4573C46.7304 42.2694 46.4815 41.696 45.9797 41.1767C45.4778 40.6573 44.913 40.3887 44.7181 40.5766C44.5232 40.7645 44.7721 41.3379 45.274 41.8572C45.7758 42.3766 46.3407 42.6452 46.5355 42.4573Z" fill="#33C3A4"/>
<path opacity="0.3" d="M46.5355 42.4573C46.7304 42.2694 46.4815 41.696 45.9797 41.1767C45.4778 40.6573 44.913 40.3887 44.7181 40.5766C44.5232 40.7645 44.7721 41.3379 45.274 41.8572C45.7758 42.3766 46.3407 42.6452 46.5355 42.4573Z" fill="#0B1941"/>
<path d="M46.1594 26.0541C48.2196 27.0815 50.8381 26.0135 50.8381 26.0135C50.8381 26.0135 50.1169 23.2824 48.0584 22.2551C45.9999 21.2278 43.9041 21.238 43.3797 22.2958C42.8553 23.3536 44.0992 25.0268 46.1594 26.0541Z" fill="#33C3A4"/>
<path d="M48.3124 24.663C48.4333 24.4209 48.0072 23.9633 47.3607 23.641C46.7141 23.3187 46.0919 23.2537 45.9709 23.4958C45.85 23.7379 46.2761 24.1954 46.9227 24.5177C47.5693 24.8401 48.1915 24.9051 48.3124 24.663Z" fill="#33C3A4"/>
<path opacity="0.3" d="M48.3124 24.663C48.4333 24.4209 48.0072 23.9633 47.3607 23.641C46.7141 23.3187 46.0919 23.2537 45.9709 23.4958C45.85 23.7379 46.2761 24.1954 46.9227 24.5177C47.5693 24.8401 48.1915 24.9051 48.3124 24.663Z" fill="#0B1941"/>
<path d="M47.0232 35.3051C49.0834 36.3324 51.7019 35.2644 51.7019 35.2644C51.7019 35.2644 50.9806 32.5333 48.9221 31.506C46.8636 30.4787 44.7678 30.4889 44.2434 31.5467C43.7191 32.6045 44.9715 34.2879 47.0232 35.3051Z" fill="#33C3A4"/>
<path d="M49.1766 33.9152C49.2976 33.6731 48.8715 33.2155 48.2249 32.8932C47.5783 32.5709 46.9561 32.5059 46.8352 32.748C46.7143 32.9901 47.1404 33.4476 47.7869 33.7699C48.4335 34.0923 49.0557 34.1573 49.1766 33.9152Z" fill="#33C3A4"/>
<path opacity="0.3" d="M49.1766 33.9152C49.2976 33.6731 48.8715 33.2155 48.2249 32.8932C47.5783 32.5709 46.9561 32.5059 46.8352 32.748C46.7143 32.9901 47.1404 33.4476 47.7869 33.7699C48.4335 34.0923 49.0557 34.1573 49.1766 33.9152Z" fill="#0B1941"/>
<path d="M21.3364 26.5255C21.3364 26.5255 33.3156 38.4922 26.553 56.2498C19.7904 74.0074 38.1454 103.537 38.1454 103.537C38.1454 103.537 37.9485 103.508 37.5837 103.444C12.9769 99.1055 0.758329 70.995 14.4363 50.113C19.5155 42.3488 23.6986 33.242 21.3364 26.5255Z" fill="#33C3A4"/>
<path d="M0 74.9262C0 74.9262 13.6695 72.7513 14.9151 84.9892C16.1607 97.2271 41.2002 98.924 41.2002 98.924C41.2002 98.924 41.0305 99.0359 40.7302 99.236C20.0554 112.798 0.291888 107.872 3.27016 89.8698C4.38001 83.1753 4.28837 76.4537 0 74.9262Z" fill="#33C3A4"/>
<g opacity="0.3">
<path opacity="0.3" d="M0 74.9262C0 74.9262 13.6695 72.7513 14.9151 84.9892C16.1607 97.2271 41.2002 98.924 41.2002 98.924C41.2002 98.924 41.0305 99.0359 40.7302 99.236C20.0554 112.798 0.291888 107.872 3.27016 89.8698C4.38001 83.1753 4.28837 76.4537 0 74.9262Z" fill="white"/>
</g>
<path d="M17.8771 74.7753C19.953 74.7753 21.636 70.3892 21.636 64.9785C21.636 59.5679 19.953 55.1818 17.8771 55.1818C15.8011 55.1818 14.1182 59.5679 14.1182 64.9785C14.1182 70.3892 15.8011 74.7753 17.8771 74.7753Z" fill="#33C3A4"/>
<path opacity="0.3" d="M17.8771 74.7753C19.953 74.7753 21.636 70.3892 21.636 64.9785C21.636 59.5679 19.953 55.1818 17.8771 55.1818C15.8011 55.1818 14.1182 59.5679 14.1182 64.9785C14.1182 70.3892 15.8011 74.7753 17.8771 74.7753Z" fill="#0B1941"/>
<path d="M17.5332 100.559C18.5226 99.5702 17.5395 96.9855 15.3372 94.7856C13.135 92.5856 10.5476 91.6035 9.55816 92.5919C8.56871 93.5803 9.55187 96.165 11.7541 98.3649C13.9564 100.565 16.5437 101.547 17.5332 100.559Z" fill="#33C3A4"/>
<path opacity="0.3" d="M17.5332 100.559C18.5226 99.5702 17.5395 96.9855 15.3372 94.7856C13.135 92.5856 10.5476 91.6035 9.55816 92.5919C8.56871 93.5803 9.55187 96.165 11.7541 98.3649C13.9564 100.565 16.5437 101.547 17.5332 100.559Z" fill="#0B1941"/>
<path d="M122.845 45.0018H33.8637C32.7885 45.0018 31.7573 45.4285 30.997 46.188C30.2367 46.9475 29.8096 47.9777 29.8096 49.0518V101.152C29.8096 102.226 30.2367 103.256 30.997 104.015C31.7573 104.775 32.7885 105.202 33.8637 105.202H122.845C123.921 105.202 124.952 104.775 125.712 104.015C126.472 103.256 126.899 102.226 126.899 101.152V49.0518C126.899 47.9777 126.472 46.9475 125.712 46.188C124.952 45.4285 123.921 45.0018 122.845 45.0018Z" fill="url(#paint0_linear)"/>
<path d="M121.546 45.7104H35.1625C32.8372 45.7104 30.9521 47.5935 30.9521 49.9163V100.287C30.9521 102.61 32.8372 104.493 35.1625 104.493H121.546C123.871 104.493 125.756 102.61 125.756 100.287V49.9163C125.756 47.5935 123.871 45.7104 121.546 45.7104Z" fill="#162D6E"/>
<path d="M125.756 55.9972H30.9521V66.7738H125.756V55.9972Z" fill="#162D6E"/>
<path opacity="0.3" d="M125.756 55.9972H30.9521V66.7738H125.756V55.9972Z" fill="#0B1941"/>
<path d="M116.766 74.7753H39.9424V80.0001H116.766V74.7753Z" fill="#D6D6E3"/>
<path d="M46.3164 100.575C50.4693 100.575 53.8359 97.2122 53.8359 93.0636C53.8359 88.9151 50.4693 85.552 46.3164 85.552C42.1635 85.552 38.7969 88.9151 38.7969 93.0636C38.7969 97.2122 42.1635 100.575 46.3164 100.575Z" fill="#162D6E"/>
<path opacity="0.3" d="M46.3164 100.575C50.4693 100.575 53.8359 97.2122 53.8359 93.0636C53.8359 88.9151 50.4693 85.552 46.3164 85.552C42.1635 85.552 38.7969 88.9151 38.7969 93.0636C38.7969 97.2122 42.1635 100.575 46.3164 100.575Z" fill="#0B1941"/>
<path d="M120.366 31.2162C120.488 31.5996 120.746 31.9252 121.091 32.1316C122.651 33.1606 126.041 32.9419 126.449 32.9419C126.535 32.9419 126.649 33.0962 126.774 33.3556C127.373 34.5897 128.302 38.2074 128.364 39.0211C128.448 40.006 129.364 44.6154 130.864 46.3326C130.91 46.3852 130.956 46.4344 131 46.4801C132.471 47.9567 134.197 46.3326 134.197 46.3326L134.445 45.4732C134.375 45.8122 134.297 46.2072 134.219 46.6497C134.18 46.8717 134.141 47.1074 134.104 47.3498C133.88 48.7158 133.763 50.097 133.753 51.4811C133.749 51.9836 133.77 52.4861 133.817 52.9865C133.831 53.1255 133.846 53.2628 133.865 53.3967C133.941 54.0062 133.979 54.62 133.977 55.2343C133.963 58.8825 133.031 63.4207 133.031 63.4207L133.067 63.4088C133.045 63.5224 133.031 63.5783 133.031 63.5783L133.086 63.5614C133.06 63.7298 133.035 63.9021 133.011 64.0784C132.695 66.367 132.514 69.215 132.427 70.8594C132.382 71.7268 132.421 72.5965 132.543 73.4565L134.199 85.1045V90.5293C134.193 91.3513 134.294 92.1706 134.498 92.967C135.037 95.0166 134.593 102.17 134.343 105.564C134.274 106.49 134.219 107.138 134.204 107.324V107.38L134.251 107.361C134.251 107.4 134.251 107.421 134.251 107.421C134.322 107.39 134.396 107.369 134.472 107.356C133.815 108.373 132.626 110.055 131.711 110.338C131.172 110.502 130.692 110.82 130.331 111.252L130.308 111.284L130.274 111.332C130.161 111.483 130.092 111.662 130.075 111.85C130.062 111.818 130.052 111.784 130.045 111.75C129.975 112.128 130.202 112.474 130.917 112.642C131.333 112.721 131.757 112.755 132.181 112.744C134.659 112.744 139.056 111.983 139.541 111.164V108.339L139.621 108.365V108.39L139.925 108.49L140.758 105.697C141.757 104.957 140.928 91.7295 140.758 88.6899C140.605 85.9199 142.321 74.9008 142.625 72.9598L142.584 72.9106L142.63 72.6275C142.691 72.6718 142.748 72.7218 142.799 72.7767C142.899 72.895 142.986 73.0234 143.059 73.1598C143.202 73.4024 143.326 73.6565 143.427 73.9193C145.104 78.0964 145.859 90.041 145.859 91.1124V102.345C145.856 103.454 146.01 104.557 146.317 105.622C146.471 106.183 146.59 106.752 146.674 107.327C146.709 107.553 146.74 107.777 146.769 107.99C146.798 108.204 146.826 108.448 146.848 108.648C146.848 108.701 146.86 108.751 146.865 108.799C146.87 108.846 146.865 108.845 146.865 108.868C146.911 109.311 146.935 109.601 146.935 109.601C146.941 109.576 146.953 109.554 146.969 109.535L146.977 109.641C146.989 109.601 147.012 109.565 147.044 109.536C147.113 109.469 147.188 109.407 147.268 109.353V110.781L147.227 110.75V110.996C148.954 112.298 151.766 112.691 153.925 112.676C155.325 112.676 156.459 112.506 156.852 112.31C157.416 112.033 157.107 111.389 156.594 110.896C156.197 110.513 155.68 110.218 155.352 110.255C154.806 110.314 152.937 108.2 151.958 107.043L152.068 106.993L152.225 106.926V88.1966C152.225 88.1966 152.476 80.802 153.224 73.4887C153.579 69.8022 153.142 66.0824 151.943 62.5781L151.919 62.5086L152.147 62.5442C152.388 62.5815 152.516 62.6036 152.516 62.6036C152.516 62.6036 152.516 62.5459 152.501 62.434H152.516C152.516 62.434 152.225 59.2622 152.221 55.2784C152.221 50.7623 152.603 45.2562 154.183 42.1403C155.093 40.3467 155.396 38.9193 155.371 37.7937C155.411 36.8032 155.125 35.827 154.558 35.0135C154.32 34.6861 153.997 34.4304 153.623 34.2744L153.591 34.2557H153.574C153.301 34.1454 153.009 34.0879 152.715 34.0862H149.302C148.907 34.0865 148.519 33.9843 148.176 33.7896L146.84 33.0335C146.395 32.0621 146.331 30.8585 146.426 29.7295C146.426 29.6396 146.443 29.5498 146.451 29.4616L146.548 29.3599C146.623 29.2802 146.692 29.1904 146.76 29.1141C146.759 29.181 146.754 29.2478 146.745 29.3141C146.728 29.4209 146.699 29.4836 146.653 29.4972C147.383 29.4023 148.198 29.2582 148.646 28.6954C148.664 28.6733 148.681 28.6496 148.698 28.6259C148.831 28.4118 148.94 28.1845 149.026 27.9478C149.088 27.786 149.172 27.6332 149.275 27.4934C149.387 27.3476 149.533 27.229 149.654 27.09L149.674 27.0662C150.103 26.5577 150.127 25.8287 150.132 25.1642C150.141 23.5503 150.093 21.7737 149.012 20.5633C148.114 19.5563 146.682 19.1749 145.323 19.1308C143.964 19.0867 142.608 19.3308 141.25 19.3376C140.327 19.3376 139.214 19.3224 138.704 20.0852C138.455 20.4599 138.424 20.9498 138.153 21.3092C137.997 21.516 137.757 21.694 137.744 21.9517C137.742 22.0706 137.773 22.1877 137.832 22.2907V22.3026C138.161 22.9502 138.861 23.3537 139.59 23.4808C139.467 23.6291 139.354 23.7854 139.251 23.9487C138.805 24.6601 138.57 25.4828 138.572 26.322C138.572 26.4203 138.572 26.517 138.582 26.6136C138.658 27.7534 139.167 28.8213 140.004 29.5989C139.991 29.6939 139.977 29.7888 139.962 29.882L139.992 29.9092C140.089 29.9962 140.189 30.0787 140.293 30.1567L140.33 30.1855C140.33 30.2448 140.33 30.3041 140.33 30.355C140.33 30.4533 140.33 30.5533 140.32 30.65C140.31 30.7466 140.32 30.8059 140.31 30.8839L140.288 30.8653L138.63 29.4819L135.964 27.0171C135.964 27.0171 129.298 22.1704 128.964 24.4742C128.923 24.8834 129.036 25.2929 129.281 25.6236C130.504 27.4883 134.711 29.0751 134.711 29.0751C134.711 29.0751 137.22 31.7248 138.898 34.5812C138.838 34.6134 138.779 34.644 138.716 34.6728C137.223 35.3661 135.044 35.0729 135.044 35.0729C132.527 35.4645 132.3 38.2192 132.313 39.333C132.313 39.3855 132.313 39.4364 132.313 39.4822C132.313 39.5279 132.313 39.5381 132.313 39.5635L128.974 31.7298L128.964 31.7061C128.855 31.4511 128.683 31.2276 128.465 31.0563C128.246 30.8851 127.988 30.7715 127.715 30.7263C125.481 30.3516 119.9 29.5701 120.366 31.2162ZM134.348 107.332C134.397 107.321 134.446 107.312 134.496 107.305L134.481 107.329L134.348 107.332Z" fill="url(#paint1_linear)"/>
<path d="M151.034 105.73C151.034 105.73 154.198 109.702 154.929 109.621C155.661 109.54 157.363 111.16 156.39 111.655C155.418 112.15 149.819 112.466 147.057 110.358V107.183L151.034 105.73Z" fill="#8F9EC4"/>
<path d="M135.051 105.973C135.051 105.973 133.184 109.296 131.887 109.702C130.591 110.109 129.454 111.567 131.158 111.972C132.861 112.378 138.947 111.486 139.514 110.513V106.215L135.051 105.973Z" fill="#8F9EC4"/>
<path d="M132.707 73.331L134.319 84.8214V90.1631C134.314 90.9735 134.412 91.7812 134.611 92.5669C135.137 94.5893 134.705 101.645 134.46 104.993C134.38 106.085 134.319 106.783 134.319 106.783C135.373 106.297 139.836 107.836 139.836 107.836L140.288 106.302L140.647 105.081C141.622 104.352 140.817 91.304 140.647 88.2983C140.537 86.2454 141.454 79.5899 142.041 75.601C142.21 74.4736 142.348 73.5667 142.431 73.0208C142.484 72.6817 142.513 72.4936 142.513 72.4936C142.691 72.6392 142.84 72.8183 142.95 73.0208C143.09 73.2604 143.21 73.511 143.308 73.7701C144.941 77.8912 145.684 89.6731 145.684 90.7225V101.803C145.681 102.896 145.831 103.984 146.131 105.035C146.332 105.802 146.478 106.582 146.57 107.37C146.685 108.25 146.74 108.958 146.74 108.958C146.821 108.472 151.851 106.283 151.851 106.283V87.805C151.851 87.805 152.094 80.5155 152.825 73.2971C153.14 70.0137 152.823 66.7005 151.892 63.5359C151.69 62.846 151.488 62.2611 151.313 61.7983C151.016 61.01 150.804 60.5743 150.804 60.5743H134.234C133.956 60.6269 133.725 61.1863 133.517 62.0356C133.381 62.6052 133.262 63.3037 133.159 64.0699C132.851 66.3263 132.675 69.1353 132.59 70.7593C132.547 71.6183 132.586 72.4795 132.707 73.331Z" fill="#008CE6"/>
<g opacity="0.1">
<path opacity="0.1" d="M151.559 106.336V87.8575C151.559 87.8575 151.802 80.568 152.533 73.3497C153.264 66.1313 150.497 60.6252 150.497 60.6252H150.821C150.821 60.6252 153.578 66.1364 152.857 73.3497C152.136 80.5629 151.883 87.8575 151.883 87.8575V106.336C151.883 106.336 146.853 108.524 146.772 109.011C146.772 109.011 146.772 108.902 146.746 108.716C147.842 107.955 151.559 106.336 151.559 106.336Z" fill="#0B1941"/>
<path opacity="0.1" d="M134.806 106.732C134.653 106.736 134.501 106.767 134.359 106.824V106.743C134.508 106.728 134.657 106.724 134.806 106.732Z" fill="#0B1941"/>
<path opacity="0.1" d="M140.364 105.122C141.338 104.393 140.533 91.3447 140.364 88.339C140.194 85.3333 142.23 72.5359 142.23 72.5359C142.337 72.6182 142.431 72.7153 142.51 72.8241C142.212 74.7364 140.542 85.608 140.689 88.339C140.859 91.3379 141.664 104.386 140.689 105.122L139.878 107.877L139.583 107.778L140.364 105.122Z" fill="#0B1941"/>
</g>
<path d="M136.022 40.5688L134.325 46.5666C134.325 46.5666 132.54 48.2618 131.081 46.5666C129.621 44.8713 128.722 40.3264 128.634 39.3533C128.545 38.3803 127.254 33.3556 126.767 33.3556C126.28 33.3556 121.413 33.6793 120.844 31.6603C120.389 30.0363 125.823 30.8127 127.999 31.1772C128.267 31.2227 128.519 31.3352 128.732 31.5042C128.944 31.6731 129.111 31.893 129.216 32.1435L132.552 40.1026C132.552 40.1026 134.319 38.0565 136.022 40.5688Z" fill="#FFB8B8"/>
<path d="M146.976 26.6288C146.976 26.6288 144.866 32.5452 147.544 34.6524C150.222 36.7596 137.968 37.3275 137.968 37.3275L139.631 35.7475C139.631 35.7475 140.807 31.0873 139.996 27.1967L146.976 26.6288Z" fill="#FFB8B8"/>
<path opacity="0.1" d="M144.379 34.6524C144.379 34.6524 146.529 34.1252 146.529 33.559L148.435 34.6524H153.222C153.222 34.6524 156.711 36.5969 153.791 42.4336C150.87 48.2703 152.168 62.6069 152.168 62.6069C152.168 62.6069 141.784 60.7422 133.184 63.58C133.184 63.58 134.482 57.1771 133.995 53.5306C133.508 49.8842 134.806 44.7781 134.806 44.7781L135.536 41.6979C135.536 41.6979 135.495 38.816 132.493 40.2789C132.493 40.2789 132.047 36.1053 135.13 35.6187C135.13 35.6187 138.694 36.1053 139.755 34.3219C139.755 34.3287 142.109 35.7069 144.379 34.6524Z" fill="#0B1941"/>
<path d="M144.379 34.4913C144.379 34.4913 146.529 33.9641 146.529 33.3979L147.926 34.1997C148.26 34.3907 148.638 34.4913 149.022 34.4913H152.37C152.72 34.4903 153.066 34.5725 153.378 34.7311C153.689 34.8897 153.959 35.1201 154.164 35.4034C154.933 36.4832 155.622 38.6124 153.791 42.2725C150.87 48.1075 152.169 62.4458 152.169 62.4458C152.169 62.4458 141.784 60.5811 133.184 63.4189C133.184 63.4189 134.482 57.016 133.995 53.3695C133.508 49.7231 134.806 44.6289 134.806 44.6289L135.536 41.5486C135.536 41.5486 135.495 38.6667 132.493 40.1297C132.493 40.1297 132.059 36.0713 135.003 35.4915C135.085 35.4733 135.169 35.4676 135.253 35.4746C135.882 35.5407 138.816 35.7526 139.757 34.1641C139.755 34.1658 142.109 35.5441 144.379 34.4913Z" fill="#8F9EC4"/>
<path opacity="0.1" d="M152.574 41.8656C152.574 41.8656 149.978 43.4863 145.759 41.8656C145.759 41.8656 141.135 40.1704 139.674 36.8409C138.213 33.5115 147.056 37.4088 147.056 37.4088C147.056 37.4088 148.922 37.4088 149.489 37.0037C150.056 36.5985 154.034 40.0822 152.574 41.8656Z" fill="#0B1941"/>
<path d="M152.574 41.5419C152.574 41.5419 149.978 43.1625 145.759 41.5419C145.759 41.5419 141.134 39.8466 139.673 36.5172C138.212 33.1877 134.806 29.5412 134.806 29.5412C134.806 29.5412 128.884 27.2713 129.206 25.0031C129.528 22.7349 136.021 27.5154 136.021 27.5154L138.618 29.9464L147.055 37.0783C147.055 37.0783 148.922 37.0783 149.489 36.6731C150.056 36.268 154.033 39.7585 152.574 41.5419Z" fill="#FFB8B8"/>
<path opacity="0.1" d="M139.918 27.4392L146.894 26.8713C146.536 27.9427 146.292 29.0491 146.166 30.1719C145.355 31.012 144.247 31.5005 143.079 31.5322C141.911 31.5639 140.777 31.1363 139.921 30.3414C140.099 29.3821 140.098 28.3981 139.918 27.4392Z" fill="#0B1941"/>
<path d="M143.042 31.2891C145.506 31.2891 147.503 29.2937 147.503 26.8323C147.503 24.3709 145.506 22.3755 143.042 22.3755C140.578 22.3755 138.58 24.3709 138.58 26.8323C138.58 29.2937 140.578 31.2891 143.042 31.2891Z" fill="#FFB8B8"/>
<path opacity="0.1" d="M145.491 27.8003C145.229 27.3697 145.761 26.8085 145.586 26.3373C145.425 25.9033 144.783 25.8287 144.568 25.4235C144.398 25.0964 144.568 24.6946 144.5 24.3335C144.403 23.8673 143.901 23.5774 143.424 23.5537C142.947 23.5299 142.487 23.708 142.034 23.8605C141.296 24.1097 140.518 24.3013 139.745 24.2131C138.971 24.125 138.199 23.7046 137.854 23.0146C137.798 22.9141 137.768 22.8009 137.768 22.6857C137.781 22.4314 138.015 22.2568 138.166 22.0534C138.431 21.6991 138.462 21.2159 138.703 20.8464C139.195 20.0937 140.276 20.1123 141.175 20.109C142.499 20.109 143.816 19.8615 145.139 19.9055C146.463 19.9496 147.855 20.3243 148.732 21.3177C149.784 22.5128 149.832 24.2623 149.823 25.8558C149.823 26.5119 149.796 27.2256 149.377 27.7325C149.255 27.8799 149.105 28.002 148.988 28.1529C148.734 28.4919 148.666 28.9259 148.427 29.27C148.002 29.882 147.174 30.0312 146.436 30.1295C146.653 30.1007 146.473 28.6479 146.436 28.514C146.293 27.846 146.139 27.8596 145.491 27.8003Z" fill="#0B1941"/>
<path d="M145.491 27.6392C145.229 27.2087 145.761 26.6475 145.586 26.1763C145.425 25.7423 144.783 25.6677 144.568 25.2625C144.398 24.9353 144.568 24.5336 144.5 24.1725C144.403 23.7063 143.901 23.4164 143.424 23.3927C142.947 23.3689 142.487 23.5469 142.034 23.6995C141.296 23.9487 140.518 24.1403 139.745 24.0521C138.971 23.964 138.199 23.5435 137.854 22.8536C137.798 22.7531 137.768 22.6399 137.768 22.5247C137.781 22.2704 138.015 22.0958 138.166 21.8924C138.431 21.5381 138.462 21.0549 138.703 20.6854C139.195 19.9327 140.276 19.9513 141.175 19.9479C142.499 19.9479 143.816 19.7004 145.139 19.7445C146.463 19.7886 147.855 20.1632 148.732 21.1566C149.784 22.3518 149.832 24.1013 149.823 25.6948C149.823 26.3509 149.796 27.0646 149.377 27.5714C149.255 27.7189 149.105 27.841 148.988 27.9919C148.734 28.3309 148.666 28.7649 148.427 29.109C148.002 29.721 147.174 29.8702 146.436 29.9685C146.653 29.9397 146.473 28.4869 146.436 28.3529C146.293 27.6765 146.139 27.6969 145.491 27.6392Z" fill="#4C4C4C"/>
<path opacity="0.1" d="M152.533 42.0691C152.533 42.0691 150.342 36.3951 148.638 36.2341C146.934 36.073 151.883 36.2341 151.883 36.2341L153.505 39.1516L152.533 42.0691Z" fill="#0B1941"/>
<path d="M152.696 42.0691C152.696 42.0691 150.505 36.3951 148.801 36.2341C147.098 36.073 152.046 36.2341 152.046 36.2341L153.668 39.1516L152.696 42.0691Z" fill="#8F9EC4"/>
<path d="M146.563 107.383C146.679 108.263 146.733 108.972 146.733 108.972C146.815 108.485 151.845 106.297 151.845 106.297V104.98C151.716 104.975 151.588 104.981 151.461 104.998C150.485 105.129 149.581 105.602 148.746 106.107C148.041 106.569 147.312 106.995 146.563 107.383Z" fill="#008CE6"/>
<path opacity="0.3" d="M146.563 107.383C146.679 108.263 146.733 108.972 146.733 108.972C146.815 108.485 151.845 106.297 151.845 106.297V104.98C151.716 104.975 151.588 104.981 151.461 104.998C150.485 105.129 149.581 105.602 148.746 106.107C148.041 106.569 147.312 106.995 146.563 107.383Z" fill="#0B1941"/>
<path d="M134.319 106.783C135.373 106.297 139.836 107.836 139.836 107.836L140.288 106.302C139.509 106.144 138.735 105.947 137.975 105.714C137.62 105.611 137.273 105.483 136.936 105.33C136.711 105.21 136.48 105.103 136.244 105.008C135.662 104.808 135.056 104.893 134.458 104.993C134.38 106.085 134.319 106.783 134.319 106.783Z" fill="#008CE6"/>
<path opacity="0.3" d="M134.319 106.783C135.373 106.297 139.836 107.836 139.836 107.836L140.288 106.302C139.509 106.144 138.735 105.947 137.975 105.714C137.62 105.611 137.273 105.483 136.936 105.33C136.711 105.21 136.48 105.103 136.244 105.008C135.662 104.808 135.056 104.893 134.458 104.993C134.38 106.085 134.319 106.783 134.319 106.783Z" fill="#0B1941"/>
<path opacity="0.4" d="M156.346 111.403C156.414 111.374 156.475 111.33 156.523 111.274C156.571 111.218 156.606 111.152 156.625 111.081C156.655 111.192 156.643 111.311 156.592 111.415C156.541 111.519 156.453 111.601 156.346 111.645C155.372 112.132 149.775 112.455 147.013 110.348V110.106C149.775 112.213 155.372 111.889 156.346 111.403Z" fill="white"/>
<path opacity="0.4" d="M131.115 111.727C132.812 112.132 138.904 111.24 139.471 110.267V110.509C138.902 111.482 132.818 112.374 131.115 111.969C130.419 111.799 130.196 111.46 130.266 111.089C130.32 111.364 130.575 111.591 131.115 111.727Z" fill="white"/>
<path opacity="0.1" d="M141.012 52.6864C141.012 52.6864 139.227 52.1185 138.74 52.6864C138.253 53.2543 134.09 54.585 134.09 54.585" fill="#0B1941"/>
<path d="M120.812 30.4177H129.492V30.2346H120.812V30.4177Z" fill="#33C3A4"/>
<path d="M120.812 30.6008H129.492V30.4177H120.812V30.6008Z" fill="#33C3A4"/>
<path opacity="0.1" d="M120.812 30.6008H129.492V30.4177H120.812V30.6008Z" fill="#0B1941"/>
<path d="M120.812 30.7839H129.492V30.6008H120.812V30.7839Z" fill="#33C3A4"/>
<path d="M120.812 30.9653H129.492V30.7822H120.812V30.9653Z" fill="#33C3A4"/>
<path opacity="0.1" d="M120.812 30.9653H129.492V30.7822H120.812V30.9653Z" fill="#0B1941"/>
<path d="M120.812 31.1484H129.492V30.9653H120.812V31.1484Z" fill="#33C3A4"/>
<path d="M120.812 31.3298H129.492V31.1467H120.812V31.3298Z" fill="#33C3A4"/>
<path opacity="0.1" d="M120.812 31.3298H129.492V31.1467H120.812V31.3298Z" fill="#0B1941"/>
<path d="M120.812 31.5128H129.492V31.3297H120.812V31.5128Z" fill="#33C3A4"/>
<path d="M120.812 31.6942H129.492V31.5111H120.812V31.6942Z" fill="#33C3A4"/>
<path opacity="0.1" d="M120.812 31.6942H129.492V31.5111H120.812V31.6942Z" fill="#0B1941"/>
<path d="M120.812 28.9598H129.492V28.7767H120.812V28.9598Z" fill="#33C3A4"/>
<path d="M126.952 24.6252L133.626 30.1699L133.743 30.0291L127.069 24.4844L126.952 24.6252Z" fill="#33C3A4"/>
<path d="M120.868 21.708L127.542 27.2526L127.659 27.1119L120.985 21.5672L120.868 21.708Z" fill="#33C3A4"/>
<path d="M120.812 29.1412H129.492V28.9582H120.812V29.1412Z" fill="#33C3A4"/>
<path opacity="0.1" d="M120.812 29.1412H129.492V28.9582H120.812V29.1412Z" fill="#0B1941"/>
<path d="M120.812 29.326H129.492V29.1429H120.812V29.326Z" fill="#33C3A4"/>
<path d="M120.812 29.5073H129.492V29.3242H120.812V29.5073Z" fill="#33C3A4"/>
<path opacity="0.1" d="M120.812 29.5073H129.492V29.3242H120.812V29.5073Z" fill="#0B1941"/>
<path d="M120.812 29.6887H129.492V29.5056H120.812V29.6887Z" fill="#33C3A4"/>
<path d="M120.812 29.8718H129.492V29.6887H120.812V29.8718Z" fill="#33C3A4"/>
<path opacity="0.1" d="M120.812 29.8718H129.492V29.6887H120.812V29.8718Z" fill="#0B1941"/>
<path d="M120.812 30.0532H129.492V29.8701H120.812V30.0532Z" fill="#33C3A4"/>
<path d="M120.812 30.2363H129.492V30.0532H120.812V30.2363Z" fill="#33C3A4"/>
<path opacity="0.1" d="M120.812 30.2363H129.492V30.0532H120.812V30.2363Z" fill="#0B1941"/>
<path d="M119.712 37.3449L122.822 37.9219L123.948 31.8666L120.838 31.2897L119.712 37.3449Z" fill="#33C3A4"/>
<path d="M122.511 34.7433C122.642 34.0391 122.462 33.4153 122.11 33.35C121.758 33.2847 121.367 33.8026 121.236 34.5068C121.105 35.211 121.284 35.8348 121.636 35.9001C121.988 35.9654 122.38 35.4475 122.511 34.7433Z" fill="#33C3A4"/>
<path opacity="0.1" d="M122.511 34.7433C122.642 34.0391 122.462 33.4153 122.11 33.35C121.758 33.2847 121.367 33.8026 121.236 34.5068C121.105 35.211 121.284 35.8348 121.636 35.9001C121.988 35.9654 122.38 35.4475 122.511 34.7433Z" fill="#0B1941"/>
<path d="M120.245 50.1259L123.355 50.7029L124.481 44.6476L121.371 44.0707L120.245 50.1259Z" fill="#33C3A4"/>
<path d="M123.041 47.5229C123.172 46.8187 122.993 46.1949 122.641 46.1296C122.289 46.0643 121.897 46.5823 121.766 47.2865C121.635 47.9907 121.815 48.6145 122.167 48.6798C122.519 48.7451 122.91 48.2271 123.041 47.5229Z" fill="#33C3A4"/>
<path opacity="0.1" d="M123.041 47.5229C123.172 46.8187 122.993 46.1949 122.641 46.1296C122.289 46.0643 121.897 46.5823 121.766 47.2865C121.635 47.9907 121.815 48.6145 122.167 48.6798C122.519 48.7451 122.91 48.2271 123.041 47.5229Z" fill="#0B1941"/>
<path d="M108.996 18.7105L107.49 21.4896L112.912 24.4207L114.418 21.6416L108.996 18.7105Z" fill="#33C3A4"/>
<path d="M112.625 22.3074C112.797 21.9926 112.425 21.4588 111.794 21.115C111.163 20.7712 110.512 20.7477 110.34 21.0624C110.169 21.3771 110.541 21.911 111.172 22.2548C111.803 22.5985 112.453 22.6221 112.625 22.3074Z" fill="#33C3A4"/>
<path opacity="0.1" d="M112.625 22.3074C112.797 21.9926 112.425 21.4588 111.794 21.115C111.163 20.7712 110.512 20.7477 110.34 21.0624C110.169 21.3771 110.541 21.911 111.172 22.2548C111.803 22.5985 112.453 22.6221 112.625 22.3074Z" fill="#0B1941"/>
<path d="M97.0895 73.5555L95.584 76.3346L101.006 79.2658L102.512 76.4867L97.0895 73.5555Z" fill="#33C3A4"/>
<path d="M100.172 77.0651C100.343 76.7505 99.9695 76.2192 99.3389 75.8783C98.7083 75.5374 98.059 75.5161 97.8886 75.8306C97.7182 76.1452 98.0913 76.6765 98.7218 77.0174C99.3524 77.3583 100.002 77.3796 100.172 77.0651Z" fill="#33C3A4"/>
<path opacity="0.1" d="M100.172 77.0651C100.343 76.7505 99.9695 76.2192 99.3389 75.8783C98.7083 75.5374 98.059 75.5161 97.8886 75.8306C97.7182 76.1452 98.0913 76.6765 98.7218 77.0174C99.3524 77.3583 100.002 77.3796 100.172 77.0651Z" fill="#0B1941"/>
<path d="M89.8053 28.2955L88.2998 31.0746L93.7221 34.0058L95.2275 31.2267L89.8053 28.2955Z" fill="#33C3A4"/>
<path d="M92.886 31.8025C93.0564 31.488 92.6834 30.9567 92.0528 30.6158C91.4222 30.2749 90.7729 30.2536 90.6025 30.5681C90.4321 30.8826 90.8051 31.414 91.4357 31.7548C92.0663 32.0957 92.7156 32.1171 92.886 31.8025Z" fill="#33C3A4"/>
<path opacity="0.1" d="M92.886 31.8025C93.0564 31.488 92.6834 30.9567 92.0528 30.6158C91.4222 30.2749 90.7729 30.2536 90.6025 30.5681C90.4321 30.8826 90.8051 31.414 91.4357 31.7548C92.0663 32.0957 92.7156 32.1171 92.886 31.8025Z" fill="#0B1941"/>
<path d="M98.9342 18.7098L97.4287 21.4889L102.851 24.4201L104.356 21.641L98.9342 18.7098Z" fill="#33C3A4"/>
<path d="M102.016 22.2168C102.186 21.9022 101.813 21.3709 101.183 21.03C100.552 20.6891 99.9028 20.6678 99.7324 20.9823C99.562 21.2969 99.935 21.8282 100.566 22.1691C101.196 22.51 101.845 22.5313 102.016 22.2168Z" fill="#33C3A4"/>
<path opacity="0.1" d="M102.016 22.2168C102.186 21.9022 101.813 21.3709 101.183 21.03C100.552 20.6891 99.9028 20.6678 99.7324 20.9823C99.562 21.2969 99.935 21.8282 100.566 22.1691C101.196 22.51 101.845 22.5313 102.016 22.2168Z" fill="#0B1941"/>
<path d="M108.051 30.0204L104.906 30.3638L105.576 36.4862L108.721 36.1427L108.051 30.0204Z" fill="#33C3A4"/>
<path d="M106.913 34.5477C107.269 34.5088 107.494 33.9001 107.416 33.1881C107.338 32.4761 106.987 31.9305 106.631 31.9693C106.275 32.0082 106.05 32.6169 106.127 33.3289C106.205 34.0409 106.557 34.5866 106.913 34.5477Z" fill="#33C3A4"/>
<path opacity="0.1" d="M106.913 34.5477C107.269 34.5088 107.494 33.9001 107.416 33.1881C107.338 32.4761 106.987 31.9305 106.631 31.9693C106.275 32.0082 106.05 32.6169 106.127 33.3289C106.205 34.0409 106.557 34.5866 106.913 34.5477Z" fill="#0B1941"/>
<path d="M129.609 63.5451L126.465 63.8885L127.135 70.0109L130.279 69.6674L129.609 63.5451Z" fill="#33C3A4"/>
<path d="M128.473 68.0724C128.829 68.0335 129.055 67.4248 128.977 66.7128C128.899 66.0009 128.547 65.4552 128.191 65.4941C127.835 65.5329 127.61 66.1416 127.688 66.8536C127.766 67.5656 128.118 68.1113 128.473 68.0724Z" fill="#33C3A4"/>
<path opacity="0.1" d="M128.473 68.0724C128.829 68.0335 129.055 67.4248 128.977 66.7128C128.899 66.0009 128.547 65.4552 128.191 65.4941C127.835 65.5329 127.61 66.1416 127.688 66.8536C127.766 67.5656 128.118 68.1113 128.473 68.0724Z" fill="#0B1941"/>
<path d="M95.7379 43.0258L94.2324 45.8049L99.6547 48.736L101.16 45.9569L95.7379 43.0258Z" fill="#33C3A4"/>
<path d="M98.8176 46.5351C98.988 46.2205 98.615 45.6892 97.9844 45.3483C97.3538 45.0074 96.7045 44.9861 96.5341 45.3006C96.3637 45.6152 96.7368 46.1465 97.3673 46.4874C97.9979 46.8283 98.6472 46.8496 98.8176 46.5351Z" fill="#33C3A4"/>
<path opacity="0.1" d="M98.8176 46.5351C98.988 46.2205 98.615 45.6892 97.9844 45.3483C97.3538 45.0074 96.7045 44.9861 96.5341 45.3006C96.3637 45.6152 96.7368 46.1465 97.3673 46.4874C97.9979 46.8283 98.6472 46.8496 98.8176 46.5351Z" fill="#0B1941"/>
<path d="M82.0543 39.122L80.5488 41.9011L85.9711 44.8322L87.4766 42.0531L82.0543 39.122Z" fill="#33C3A4"/>
<path d="M85.5863 42.8159C85.7581 42.5011 85.3859 41.9673 84.755 41.6235C84.124 41.2797 83.4733 41.2561 83.3014 41.5709C83.1295 41.8856 83.5017 42.4194 84.1327 42.7632C84.7636 43.107 85.4144 43.1306 85.5863 42.8159Z" fill="#33C3A4"/>
<path opacity="0.1" d="M85.5863 42.8159C85.7581 42.5011 85.3859 41.9673 84.755 41.6235C84.124 41.2797 83.4733 41.2561 83.3014 41.5709C83.1295 41.8856 83.5017 42.4194 84.1327 42.7632C84.7636 43.107 85.4144 43.1306 85.5863 42.8159Z" fill="#0B1941"/>
<path d="M77.6725 104.848L76.167 107.627L81.5892 110.558L83.0947 107.779L77.6725 104.848Z" fill="#33C3A4"/>
<path d="M80.7542 108.355C80.9246 108.041 80.5515 107.51 79.9209 107.169C79.2904 106.828 78.641 106.806 78.4706 107.121C78.3002 107.435 78.6733 107.967 79.3039 108.308C79.9345 108.649 80.5838 108.67 80.7542 108.355Z" fill="#33C3A4"/>
<path opacity="0.1" d="M80.7542 108.355C80.9246 108.041 80.5515 107.51 79.9209 107.169C79.2904 106.828 78.641 106.806 78.4706 107.121C78.3002 107.435 78.6733 107.967 79.3039 108.308C79.9345 108.649 80.5838 108.67 80.7542 108.355Z" fill="#0B1941"/>
<path d="M73.7274 105.919L73.1504 109.026L79.2122 110.149L79.7892 107.042L73.7274 105.919Z" fill="#33C3A4"/>
<path opacity="0.05" d="M73.7274 105.919L73.1504 109.026L79.2122 110.149L79.7892 107.042L73.7274 105.919Z" fill="#0B1941"/>
<path d="M77.7395 108.31C77.8048 107.958 77.2863 107.567 76.5813 107.437C75.8763 107.306 75.2519 107.485 75.1866 107.837C75.1213 108.188 75.6398 108.579 76.3448 108.71C77.0498 108.841 77.6742 108.661 77.7395 108.31Z" fill="#33C3A4"/>
<path opacity="0.1" d="M77.7395 108.31C77.8048 107.958 77.2863 107.567 76.5813 107.437C75.8763 107.306 75.2519 107.485 75.1866 107.837C75.1213 108.188 75.6398 108.579 76.3448 108.71C77.0498 108.841 77.6742 108.661 77.7395 108.31Z" fill="#0B1941"/>
<path d="M74.2948 107.782L73.7178 110.889L79.7796 112.012L80.3566 108.905L74.2948 107.782Z" fill="#33C3A4"/>
<path d="M78.3059 110.173C78.3712 109.821 77.8527 109.43 77.1477 109.3C76.4427 109.169 75.8183 109.348 75.753 109.7C75.6877 110.052 76.2063 110.443 76.9112 110.573C77.6162 110.704 78.2406 110.525 78.3059 110.173Z" fill="#33C3A4"/>
<path opacity="0.1" d="M78.3059 110.173C78.3712 109.821 77.8527 109.43 77.1477 109.3C76.4427 109.169 75.8183 109.348 75.753 109.7C75.6877 110.052 76.2063 110.443 76.9112 110.573C77.6162 110.704 78.2406 110.525 78.3059 110.173Z" fill="#0B1941"/>
<path d="M84.069 112.835L82.5635 115.614L87.9857 118.546L89.4912 115.766L84.069 112.835Z" fill="#33C3A4"/>
<path d="M87.1507 116.343C87.3211 116.029 86.948 115.497 86.3174 115.156C85.6868 114.815 85.0375 114.794 84.8671 115.109C84.6967 115.423 85.0698 115.954 85.7004 116.295C86.3309 116.636 86.9803 116.658 87.1507 116.343Z" fill="#33C3A4"/>
<path opacity="0.1" d="M87.1507 116.343C87.3211 116.029 86.948 115.497 86.3174 115.156C85.6868 114.815 85.0375 114.794 84.8671 115.109C84.6967 115.423 85.0698 115.954 85.7004 116.295C86.3309 116.636 86.9803 116.658 87.1507 116.343Z" fill="#0B1941"/>
<path d="M80.1249 113.904L79.5479 117.011L85.6097 118.135L86.1867 115.028L80.1249 113.904Z" fill="#33C3A4"/>
<path opacity="0.05" d="M80.1249 113.904L79.5479 117.011L85.6097 118.135L86.1867 115.028L80.1249 113.904Z" fill="#0B1941"/>
<path d="M84.135 116.295C84.2003 115.944 83.6818 115.553 82.9768 115.422C82.2718 115.291 81.6474 115.471 81.5821 115.822C81.5168 116.174 82.0354 116.565 82.7403 116.696C83.4453 116.826 84.0697 116.647 84.135 116.295Z" fill="#33C3A4"/>
<path opacity="0.1" d="M84.135 116.295C84.2003 115.944 83.6818 115.553 82.9768 115.422C82.2718 115.291 81.6474 115.471 81.5821 115.822C81.5168 116.174 82.0354 116.565 82.7403 116.696C83.4453 116.826 84.0697 116.647 84.135 116.295Z" fill="#0B1941"/>
<path d="M80.6913 115.77L80.1143 118.876L86.1761 120L86.7531 116.893L80.6913 115.77Z" fill="#33C3A4"/>
<path d="M84.7043 118.161C84.7696 117.809 84.2511 117.418 83.5461 117.287C82.8412 117.157 82.2168 117.336 82.1515 117.687C82.0861 118.039 82.6047 118.43 83.3097 118.561C84.0146 118.691 84.639 118.512 84.7043 118.161Z" fill="#33C3A4"/>
<path opacity="0.1" d="M84.7043 118.161C84.7696 117.809 84.2511 117.418 83.5461 117.287C82.8412 117.157 82.2168 117.336 82.1515 117.687C82.0861 118.039 82.6047 118.43 83.3097 118.561C84.0146 118.691 84.639 118.512 84.7043 118.161Z" fill="#0B1941"/>
<path d="M93.6647 107.688L92.1592 110.467L97.5814 113.398L99.0869 110.619L93.6647 107.688Z" fill="#33C3A4"/>
<path d="M96.7444 111.195C96.9148 110.88 96.5418 110.349 95.9112 110.008C95.2806 109.667 94.6313 109.646 94.4609 109.96C94.2905 110.275 94.6635 110.806 95.2941 111.147C95.9247 111.488 96.574 111.509 96.7444 111.195Z" fill="#33C3A4"/>
<path opacity="0.1" d="M96.7444 111.195C96.9148 110.88 96.5418 110.349 95.9112 110.008C95.2806 109.667 94.6313 109.646 94.4609 109.96C94.2905 110.275 94.6635 110.806 95.2941 111.147C95.9247 111.488 96.574 111.509 96.7444 111.195Z" fill="#0B1941"/>
<path d="M89.7196 108.758L89.1426 111.865L95.2044 112.988L95.7814 109.881L89.7196 108.758Z" fill="#33C3A4"/>
<path opacity="0.05" d="M89.7196 108.758L89.1426 111.865L95.2044 112.988L95.7814 109.881L89.7196 108.758Z" fill="#0B1941"/>
<path d="M93.7307 111.149C93.796 110.797 93.2775 110.406 92.5725 110.276C91.8676 110.145 91.2431 110.324 91.1778 110.676C91.1125 111.027 91.6311 111.418 92.336 111.549C93.041 111.68 93.6654 111.5 93.7307 111.149Z" fill="#33C3A4"/>
<path opacity="0.1" d="M93.7307 111.149C93.796 110.797 93.2775 110.406 92.5725 110.276C91.8676 110.145 91.2431 110.324 91.1778 110.676C91.1125 111.027 91.6311 111.418 92.336 111.549C93.041 111.68 93.6654 111.5 93.7307 111.149Z" fill="#0B1941"/>
<path d="M90.2879 110.623L89.7109 113.729L95.7728 114.853L96.3498 111.746L90.2879 110.623Z" fill="#33C3A4"/>
<path d="M94.3 113.014C94.3653 112.662 93.8468 112.271 93.1418 112.141C92.4369 112.01 91.8125 112.189 91.7472 112.541C91.6818 112.892 92.2004 113.283 92.9053 113.414C93.6103 113.545 94.2347 113.366 94.3 113.014Z" fill="#33C3A4"/>
<path opacity="0.1" d="M94.3 113.014C94.3653 112.662 93.8468 112.271 93.1418 112.141C92.4369 112.01 91.8125 112.189 91.7472 112.541C91.6818 112.892 92.2004 113.283 92.9053 113.414C93.6103 113.545 94.2347 113.366 94.3 113.014Z" fill="#0B1941"/>
<defs>
<linearGradient id="paint0_linear" x1="78.3545" y1="105.202" x2="78.3545" y2="45.0018" gradientUnits="userSpaceOnUse">
<stop stop-color="#808080" stop-opacity="0.25"/>
<stop offset="0.54" stop-color="#808080" stop-opacity="0.12"/>
<stop offset="1" stop-color="#808080" stop-opacity="0.1"/>
</linearGradient>
<linearGradient id="paint1_linear" x1="-109033" y1="70962.8" x2="-109033" y2="19267.5" gradientUnits="userSpaceOnUse">
<stop stop-color="#808080" stop-opacity="0.25"/>
<stop offset="0.54" stop-color="#808080" stop-opacity="0.12"/>
<stop offset="1" stop-color="#808080" stop-opacity="0.1"/>
</linearGradient>
</defs>
</svg>
