<svg width="204" height="120" viewBox="0 0 204 120" fill="none" xmlns="http://www.w3.org/2000/svg">
<rect x="78.8369" y="11.8605" width="124.186" height="90" rx="20" fill="#CEE1F0"/>
<path d="M191.86 49.2852H191.536V40.4522C191.536 39.7808 191.403 39.116 191.145 38.4958C190.887 37.8755 190.509 37.3119 190.032 36.8372C189.555 36.3625 188.988 35.9859 188.365 35.729C187.742 35.4721 187.073 35.3398 186.399 35.3398H167.593C166.918 35.3398 166.25 35.4721 165.627 35.729C165.003 35.9859 164.437 36.3625 163.96 36.8372C163.483 37.3119 163.104 37.8755 162.846 38.4958C162.588 39.116 162.455 39.7808 162.455 40.4522V88.9108C162.455 89.5821 162.588 90.2469 162.846 90.8672C163.104 91.4874 163.483 92.051 163.96 92.5257C164.437 93.0005 165.003 93.377 165.627 93.6339C166.25 93.8909 166.918 94.0231 167.593 94.0231H186.399C187.073 94.0231 187.742 93.8909 188.365 93.6339C188.988 93.377 189.555 93.0005 190.032 92.5257C190.509 92.051 190.887 91.4874 191.145 90.8672C191.403 90.2469 191.536 89.5821 191.536 88.9108V55.5727H191.86V49.2852Z" fill="#3F3D56"/>
<path d="M190.443 40.7526V89.1407C190.443 90.1534 190.039 91.1246 189.319 91.8406C188.6 92.5567 187.624 92.959 186.606 92.9591H167.709C167.206 92.959 166.707 92.8602 166.241 92.6683C165.776 92.4763 165.353 92.1951 164.997 91.8405C164.641 91.4859 164.358 91.065 164.166 90.6017C163.973 90.1385 163.874 89.642 163.874 89.1407V40.7526C163.874 39.7403 164.278 38.7696 164.997 38.0538C165.717 37.338 166.692 36.9359 167.709 36.9359H170.002C169.89 37.2113 169.847 37.51 169.877 37.8057C169.908 38.1014 170.011 38.385 170.178 38.6317C170.345 38.8785 170.57 39.0806 170.833 39.2206C171.097 39.3605 171.391 39.4338 171.69 39.4341H182.464C182.763 39.4346 183.057 39.3619 183.321 39.2222C183.586 39.0825 183.811 38.8803 183.978 38.6333C184.145 38.3864 184.248 38.1023 184.278 37.8062C184.308 37.5102 184.265 37.2113 184.151 36.9359H186.606C187.623 36.9359 188.599 37.3379 189.319 38.0536C190.038 38.7693 190.443 39.7401 190.443 40.7526Z" fill="#D0CDE1"/>
<path d="M186.865 61.7095H164.898V67.6079H186.865V61.7095Z" fill="#092869"/>
<path d="M187.738 66.567H166.468C166.33 66.5668 166.197 66.5119 166.099 66.4144C166.001 66.3168 165.945 66.1845 165.945 66.0465V60.842C165.945 60.704 166.001 60.5717 166.099 60.4741C166.197 60.3766 166.33 60.3217 166.468 60.3215H187.738C187.876 60.3217 188.009 60.3766 188.107 60.4741C188.205 60.5717 188.261 60.704 188.261 60.842V66.0465C188.261 66.1845 188.205 66.3168 188.107 66.4144C188.009 66.5119 187.876 66.5668 187.738 66.567ZM166.468 60.6685C166.422 60.6685 166.378 60.6868 166.345 60.7194C166.312 60.7519 166.294 60.796 166.294 60.842V66.0465C166.294 66.0925 166.312 66.1366 166.345 66.1691C166.378 66.2017 166.422 66.22 166.468 66.22H187.738C187.784 66.22 187.828 66.2017 187.861 66.1691C187.894 66.1366 187.912 66.0925 187.912 66.0465V60.842C187.912 60.796 187.894 60.7519 187.861 60.7194C187.828 60.6868 187.784 60.6685 187.738 60.6685H166.468Z" fill="#3F3D56"/>
<path d="M170.129 65.0056H167.34V65.3526H170.129V65.0056Z" fill="#3F3D56"/>
<path d="M173.964 65.0056H171.175V65.3526H173.964V65.0056Z" fill="#3F3D56"/>
<path d="M177.8 65.0056H175.011V65.3526H177.8V65.0056Z" fill="#3F3D56"/>
<path d="M181.635 65.0056H178.846V65.3526H181.635V65.0056Z" fill="#3F3D56"/>
<path d="M185.471 65.0056H182.682V65.3526H185.471V65.0056Z" fill="#3F3D56"/>
<path opacity="0.1" d="M190.443 84.2207V89.1407C190.443 90.1534 190.039 91.1246 189.319 91.8406C188.6 92.5567 187.624 92.959 186.606 92.9591H167.709C167.206 92.959 166.707 92.8602 166.241 92.6683C165.776 92.4763 165.353 92.1951 164.997 91.8405C164.641 91.4859 164.358 91.065 164.166 90.6017C163.973 90.1385 163.874 89.642 163.874 89.1407V66.508L190.443 84.2207Z" fill="black"/>
<path d="M99.8707 79.7517H17.4082V120H99.8707V79.7517Z" fill="#D0CDE1"/>
<path opacity="0.1" d="M78.9064 120H17.7569C17.6645 120 17.576 119.963 17.5106 119.898C17.4453 119.833 17.4085 119.745 17.4082 119.653V80.0987C17.4085 80.0067 17.4453 79.9186 17.5106 79.8536C17.576 79.7886 17.6645 79.752 17.7569 79.7517H18.5309L78.9064 120Z" fill="black"/>
<path d="M183.379 85.1298H55.5889V85.4767H183.379V85.1298Z" fill="#3F3D56"/>
<path d="M95.9899 0.749061H59.4676V0H42.907V0.749061H6.23413C5.9097 0.749061 5.58846 0.812648 5.28873 0.936191C4.989 1.05973 4.71666 1.24081 4.48725 1.46909C4.25785 1.69737 4.07588 1.96837 3.95172 2.26663C3.82757 2.56489 3.76367 2.88456 3.76367 3.2074V52.9723C3.76367 53.6243 4.02395 54.2496 4.48725 54.7106C4.95055 55.1716 5.57892 55.4306 6.23413 55.4306H95.9899C96.6451 55.4306 97.2734 55.1716 97.7367 54.7106C98.2001 54.2496 98.4603 53.6243 98.4603 52.9723V3.2074C98.4603 2.88456 98.3964 2.56489 98.2723 2.26663C98.1481 1.96837 97.9662 1.69737 97.7367 1.46909C97.5073 1.24081 97.235 1.05973 96.9353 0.936191C96.6355 0.812648 96.3143 0.749061 95.9899 0.749061Z" fill="#3F3D56"/>
<path d="M95.1481 5.09296H7.07715V54.5324H95.1481V5.09296Z" fill="#D0CDE1"/>
<path d="M51.0361 3.74532C51.535 3.74532 51.9394 3.34288 51.9394 2.84645C51.9394 2.35001 51.535 1.94757 51.0361 1.94757C50.5372 1.94757 50.1328 2.35001 50.1328 2.84645C50.1328 3.34288 50.5372 3.74532 51.0361 3.74532Z" fill="#092869"/>
<path d="M33.2723 23.543H31.1802C31.0416 23.5429 30.9086 23.488 30.8106 23.3904C30.7125 23.2928 30.6574 23.1605 30.6572 23.0225V20.9407C30.6574 20.8028 30.7125 20.6705 30.8106 20.5729C30.9086 20.4753 31.0416 20.4204 31.1802 20.4203H33.2723C33.411 20.4204 33.5439 20.4753 33.642 20.5729C33.74 20.6705 33.7952 20.8028 33.7953 20.9407V23.0225C33.7952 23.1605 33.74 23.2928 33.642 23.3904C33.5439 23.488 33.411 23.5429 33.2723 23.543ZM31.1802 20.7673C31.134 20.7673 31.0897 20.7856 31.057 20.8181C31.0244 20.8507 31.006 20.8947 31.0059 20.9407V23.0225C31.006 23.0685 31.0244 23.1126 31.057 23.1452C31.0897 23.1777 31.134 23.196 31.1802 23.196H33.2723C33.3185 23.196 33.3628 23.1777 33.3955 23.1452C33.4282 23.1126 33.4466 23.0685 33.4467 23.0225V20.9407C33.4466 20.8947 33.4282 20.8507 33.3955 20.8181C33.3628 20.7856 33.3185 20.7673 33.2723 20.7673H31.1802Z" fill="#3F3D56"/>
<path d="M70.5814 23.196H30.832V23.543H70.5814V23.196Z" fill="#3F3D56"/>
<path d="M69.5349 32.7376H60.2949V35.5134H69.5349V32.7376Z" fill="#092869"/>
<path d="M70.2326 34.8194H61.69C61.5513 34.8192 61.4184 34.7643 61.3203 34.6668C61.2223 34.5692 61.1671 34.4369 61.167 34.2989V32.2171C61.1671 32.0791 61.2223 31.9468 61.3203 31.8493C61.4184 31.7517 61.5513 31.6968 61.69 31.6967H70.2326C70.3713 31.6968 70.5042 31.7517 70.6023 31.8493C70.7003 31.9468 70.7555 32.0791 70.7556 32.2171V34.2989C70.7555 34.4369 70.7003 34.5692 70.6023 34.6668C70.5042 34.7643 70.3713 34.8192 70.2326 34.8194ZM61.69 32.0436C61.6438 32.0437 61.5995 32.062 61.5668 32.0945C61.5341 32.127 61.5157 32.1711 61.5157 32.2171V34.2989C61.5157 34.3449 61.5341 34.389 61.5668 34.4215C61.5995 34.454 61.6438 34.4723 61.69 34.4724H70.2326C70.2788 34.4723 70.3232 34.454 70.3558 34.4215C70.3885 34.389 70.4069 34.3449 70.407 34.2989V32.2171C70.4069 32.1711 70.3885 32.127 70.3558 32.0945C70.3232 32.062 70.2788 32.0437 70.2326 32.0436H61.69Z" fill="#3F3D56"/>
<path d="M140.143 35.8603H122.709V48.0042H140.143V35.8603Z" fill="#092869"/>
<path d="M141.886 47.05H125.15C124.965 47.0498 124.787 46.9767 124.657 46.8466C124.526 46.7165 124.452 46.5401 124.452 46.3561V34.9062C124.452 34.7222 124.526 34.5458 124.657 34.4157C124.787 34.2856 124.965 34.2124 125.15 34.2122H141.886C142.071 34.2124 142.248 34.2856 142.379 34.4157C142.51 34.5458 142.583 34.7222 142.583 34.9062V46.3561C142.583 46.5401 142.51 46.7165 142.379 46.8466C142.248 46.9767 142.071 47.0498 141.886 47.05ZM125.15 34.9062V46.3561H141.887L141.886 34.9062H125.15Z" fill="#3F3D56"/>
<path d="M139.969 34.4724H139.271C139.271 32.9541 138.665 31.4979 137.586 30.4243C136.507 29.3506 135.044 28.7475 133.518 28.7475C131.992 28.7475 130.529 29.3506 129.45 30.4243C128.371 31.4979 127.765 32.9541 127.765 34.4724H127.067C127.067 32.77 127.747 31.1374 128.957 29.9336C130.166 28.7298 131.807 28.0535 133.518 28.0535C135.229 28.0535 136.869 28.7298 138.079 29.9336C139.289 31.1374 139.969 32.77 139.969 34.4724Z" fill="#3F3D56"/>
<path d="M135.261 39.2433C135.262 38.9412 135.183 38.6442 135.032 38.3818C134.882 38.1194 134.665 37.9006 134.404 37.7471C134.142 37.5936 133.845 37.5107 133.541 37.5066C133.238 37.5025 132.939 37.5773 132.673 37.7237C132.407 37.8701 132.185 38.083 132.027 38.3412C131.87 38.5995 131.783 38.8942 131.775 39.1962C131.767 39.4982 131.839 39.797 131.982 40.0631C132.126 40.3291 132.337 40.5532 132.595 40.7131V42.5752C132.595 42.6958 132.619 42.8152 132.665 42.9267C132.712 43.0381 132.78 43.1393 132.865 43.2246C132.951 43.3099 133.053 43.3776 133.165 43.4237C133.277 43.4699 133.397 43.4936 133.518 43.4936C133.763 43.4936 133.997 43.3969 134.171 43.2246C134.344 43.0524 134.441 42.8188 134.441 42.5752V40.7131C134.692 40.5576 134.899 40.3411 135.042 40.0839C135.186 39.8268 135.261 39.5374 135.261 39.2433Z" fill="#3F3D56"/>
<path d="M52.3627 97.6206H49.5732V97.9676H52.3627V97.6206Z" fill="#3F3D56"/>
<path d="M56.1986 97.6206H53.4092V97.9676H56.1986V97.6206Z" fill="#3F3D56"/>
<path d="M60.0346 97.6206H57.2451V97.9676H60.0346V97.6206Z" fill="#3F3D56"/>
<path d="M63.8695 97.6206H61.0801V97.9676H63.8695V97.6206Z" fill="#3F3D56"/>
<path d="M67.7045 97.6206H64.915V97.9676H67.7045V97.6206Z" fill="#3F3D56"/>
<path d="M103.532 117.051H21.7667C21.5818 117.051 21.4045 116.977 21.2738 116.847C21.1431 116.717 21.0695 116.541 21.0693 116.357V76.8025C21.0695 76.6185 21.1431 76.4421 21.2738 76.3121C21.4045 76.182 21.5818 76.1088 21.7667 76.1086H103.532C103.717 76.1088 103.894 76.1819 104.025 76.312C104.155 76.4421 104.229 76.6185 104.229 76.8025V116.357C104.229 116.541 104.155 116.717 104.025 116.847C103.894 116.977 103.717 117.051 103.532 117.051ZM21.7667 76.8025V116.357H103.532L103.532 76.8025H21.7667Z" fill="#3F3D56"/>
<path d="M25.4269 82.7009C26.0046 82.7009 26.4729 82.2349 26.4729 81.66C26.4729 81.0852 26.0046 80.6191 25.4269 80.6191C24.8492 80.6191 24.3809 81.0852 24.3809 81.66C24.3809 82.2349 24.8492 82.7009 25.4269 82.7009Z" fill="#3F3D56"/>
<path d="M29.089 82.7009C29.6667 82.7009 30.135 82.2349 30.135 81.66C30.135 81.0852 29.6667 80.6191 29.089 80.6191C28.5113 80.6191 28.043 81.0852 28.043 81.66C28.043 82.2349 28.5113 82.7009 29.089 82.7009Z" fill="#3F3D56"/>
<path d="M32.7501 82.7009C33.3278 82.7009 33.7962 82.2349 33.7962 81.66C33.7962 81.0852 33.3278 80.6191 32.7501 80.6191C32.1724 80.6191 31.7041 81.0852 31.7041 81.66C31.7041 82.2349 32.1724 82.7009 32.7501 82.7009Z" fill="#3F3D56"/>
<path d="M70.4075 100.049H46.8717C46.733 100.049 46.6 99.9943 46.502 99.8967C46.4039 99.7992 46.3488 99.6669 46.3486 99.5289V93.6304C46.3488 93.4925 46.4039 93.3602 46.502 93.2626C46.6 93.165 46.733 93.1101 46.8717 93.11H70.4075C70.5461 93.1101 70.6791 93.165 70.7771 93.2626C70.8752 93.3602 70.9303 93.4925 70.9305 93.6304V99.5289C70.9303 99.6669 70.8752 99.7992 70.7771 99.8967C70.6791 99.9943 70.5461 100.049 70.4075 100.049ZM46.8717 93.457C46.8254 93.457 46.7811 93.4753 46.7484 93.5078C46.7157 93.5403 46.6974 93.5844 46.6973 93.6304V99.5289C46.6974 99.5749 46.7157 99.619 46.7484 99.6515C46.7811 99.684 46.8254 99.7023 46.8717 99.7024H70.4075C70.4537 99.7023 70.498 99.684 70.5307 99.6515C70.5634 99.619 70.5817 99.5749 70.5818 99.5289V93.6304C70.5817 93.5844 70.5634 93.5403 70.5307 93.5078C70.498 93.4753 70.4537 93.457 70.4075 93.457H46.8717Z" fill="#3F3D56"/>
<path d="M76.3344 100.223C78.0675 100.223 79.4725 98.8248 79.4725 97.1001C79.4725 95.3755 78.0675 93.9774 76.3344 93.9774C74.6013 93.9774 73.1963 95.3755 73.1963 97.1001C73.1963 98.8248 74.6013 100.223 76.3344 100.223Z" fill="#092869"/>
<path d="M77.3808 99.8758C76.7257 99.8758 76.0852 99.6825 75.5405 99.3203C74.9958 98.9581 74.5712 98.4433 74.3205 97.841C74.0698 97.2387 74.0042 96.576 74.132 95.9366C74.2598 95.2972 74.5753 94.7099 75.0386 94.2489C75.5018 93.7879 76.092 93.474 76.7346 93.3468C77.3771 93.2196 78.0432 93.2849 78.6484 93.5344C79.2537 93.7838 79.771 94.2063 80.135 94.7484C80.499 95.2904 80.6933 95.9277 80.6933 96.5796C80.6923 97.4535 80.3429 98.2914 79.722 98.9093C79.101 99.5272 78.259 99.8748 77.3808 99.8758ZM77.3808 93.6304C76.7946 93.6304 76.2216 93.8034 75.7342 94.1275C75.2468 94.4515 74.867 94.9121 74.6426 95.451C74.4183 95.9899 74.3596 96.5829 74.474 97.155C74.5883 97.7271 74.8706 98.2526 75.2851 98.6651C75.6996 99.0775 76.2277 99.3584 76.8026 99.4722C77.3775 99.586 77.9734 99.5276 78.515 99.3044C79.0566 99.0812 79.5194 98.7031 79.8451 98.2181C80.1708 97.7331 80.3446 97.1629 80.3446 96.5796C80.3437 95.7977 80.0312 95.0481 79.4755 94.4952C78.9199 93.9423 78.1666 93.6313 77.3808 93.6304Z" fill="#3F3D56"/>
<path d="M77.427 97.8107L75.7393 96.1311L76.2323 95.6405L77.3339 96.7365L80.4079 92.3897L80.9782 92.7892L77.427 97.8107Z" fill="#3F3D56"/>
<path opacity="0.1" d="M75.6221 54.5324H7.07715V8.83844L75.6221 54.5324Z" fill="black"/>
<path d="M100.933 53.6329H92.338V53.0167C92.338 53.0006 92.3349 52.9847 92.3287 52.9699C92.3225 52.9551 92.3135 52.9416 92.3021 52.9303C92.2907 52.9189 92.2771 52.9099 92.2622 52.9038C92.2473 52.8976 92.2314 52.8945 92.2152 52.8945H89.2683C89.2522 52.8945 89.2362 52.8976 89.2213 52.9038C89.2064 52.9099 89.1929 52.9189 89.1815 52.9303C89.1701 52.9416 89.161 52.9551 89.1548 52.9699C89.1487 52.9847 89.1455 53.0006 89.1455 53.0167V53.6329H87.3036V53.0167C87.3036 53.0006 87.3005 52.9847 87.2943 52.9699C87.2881 52.9551 87.2791 52.9416 87.2677 52.9303C87.2563 52.9189 87.2427 52.9099 87.2279 52.9038C87.213 52.8976 87.197 52.8945 87.1809 52.8945H84.2339C84.2178 52.8945 84.2018 52.8976 84.1869 52.9038C84.172 52.9099 84.1585 52.9189 84.1471 52.9303C84.1357 52.9416 84.1266 52.9551 84.1205 52.9699C84.1143 52.9847 84.1111 53.0006 84.1111 53.0167V53.6329H82.2693V53.0167C82.2693 53.0006 82.2661 52.9847 82.2599 52.9699C82.2537 52.9551 82.2447 52.9416 82.2333 52.9303C82.2219 52.9189 82.2084 52.9099 82.1935 52.9038C82.1786 52.8976 82.1626 52.8945 82.1465 52.8945H79.1995C79.1834 52.8945 79.1674 52.8976 79.1525 52.9038C79.1376 52.9099 79.1241 52.9189 79.1127 52.9303C79.1013 52.9416 79.0922 52.9551 79.0861 52.9699C79.0799 52.9847 79.0767 53.0006 79.0767 53.0167V53.6329H77.2349V53.0167C77.2349 53.0006 77.2317 52.9847 77.2255 52.9699C77.2194 52.9551 77.2103 52.9416 77.1989 52.9303C77.1875 52.9189 77.174 52.9099 77.1591 52.9038C77.1442 52.8976 77.1282 52.8945 77.1121 52.8945H74.1651C74.149 52.8945 74.133 52.8976 74.1181 52.9038C74.1032 52.9099 74.0897 52.9189 74.0783 52.9303C74.0669 52.9416 74.0578 52.9551 74.0517 52.9699C74.0455 52.9847 74.0423 53.0006 74.0423 53.0167V53.6329H72.2005V53.0167C72.2005 53.0006 72.1973 52.9847 72.1911 52.9699C72.185 52.9551 72.1759 52.9416 72.1645 52.9303C72.1531 52.9189 72.1396 52.9099 72.1247 52.9038C72.1098 52.8976 72.0938 52.8945 72.0777 52.8945H69.1307C69.1146 52.8945 69.0986 52.8976 69.0837 52.9038C69.0688 52.9099 69.0553 52.9189 69.0439 52.9303C69.0325 52.9416 69.0235 52.9551 69.0173 52.9699C69.0111 52.9847 69.0079 53.0006 69.0079 53.0167V53.6329H67.1661V53.0167C67.1661 53.0006 67.1629 52.9847 67.1568 52.9699C67.1506 52.9551 67.1415 52.9416 67.1301 52.9303C67.1187 52.9189 67.1052 52.9099 67.0903 52.9038C67.0754 52.8976 67.0594 52.8945 67.0433 52.8945H64.0963C64.0802 52.8945 64.0643 52.8976 64.0494 52.9038C64.0345 52.9099 64.0209 52.9189 64.0095 52.9303C63.9981 52.9416 63.9891 52.9551 63.9829 52.9699C63.9767 52.9847 63.9736 53.0006 63.9736 53.0167V53.6329H62.1317V53.0167C62.1317 53.0006 62.1285 52.9847 62.1224 52.9699C62.1162 52.9551 62.1072 52.9416 62.0957 52.9303C62.0843 52.9189 62.0708 52.9099 62.0559 52.9038C62.041 52.8976 62.025 52.8945 62.0089 52.8945H38.9244C38.9083 52.8945 38.8923 52.8976 38.8774 52.9038C38.8625 52.9099 38.849 52.9189 38.8376 52.9303C38.8262 52.9416 38.8171 52.9551 38.811 52.9699C38.8048 52.9847 38.8016 53.0006 38.8016 53.0167V53.6329H36.9598V53.0167C36.9598 53.0006 36.9566 52.9847 36.9504 52.9699C36.9443 52.9551 36.9352 52.9416 36.9238 52.9303C36.9124 52.9189 36.8989 52.9099 36.884 52.9038C36.8691 52.8976 36.8531 52.8945 36.837 52.8945H33.89C33.8739 52.8945 33.8579 52.8976 33.843 52.9038C33.8281 52.9099 33.8146 52.9189 33.8032 52.9303C33.7918 52.9416 33.7827 52.9551 33.7766 52.9699C33.7704 52.9847 33.7672 53.0006 33.7672 53.0167V53.6329H31.9254V53.0167C31.9254 53.0006 31.9222 52.9847 31.916 52.9699C31.9099 52.9551 31.9008 52.9416 31.8894 52.9303C31.878 52.9189 31.8645 52.9099 31.8496 52.9038C31.8347 52.8976 31.8187 52.8945 31.8026 52.8945H28.8556C28.8395 52.8945 28.8235 52.8976 28.8086 52.9038C28.7937 52.9099 28.7802 52.9189 28.7688 52.9303C28.7574 52.9416 28.7484 52.9551 28.7422 52.9699C28.736 52.9847 28.7328 53.0006 28.7328 53.0167V53.6329H26.891V53.0167C26.891 53.0006 26.8878 52.9847 26.8817 52.9699C26.8755 52.9551 26.8664 52.9416 26.855 52.9303C26.8436 52.9189 26.8301 52.9099 26.8152 52.9038C26.8003 52.8976 26.7843 52.8945 26.7682 52.8945H23.8213C23.8051 52.8945 23.7892 52.8976 23.7743 52.9038C23.7594 52.9099 23.7458 52.9189 23.7344 52.9303C23.723 52.9416 23.714 52.9551 23.7078 52.9699C23.7016 52.9847 23.6985 53.0006 23.6985 53.0167V53.6329H21.8566V53.0167C21.8566 53.0006 21.8534 52.9847 21.8473 52.9699C21.8411 52.9551 21.832 52.9416 21.8206 52.9303C21.8092 52.9189 21.7957 52.9099 21.7808 52.9038C21.7659 52.8976 21.7499 52.8945 21.7338 52.8945H18.7869C18.7707 52.8945 18.7548 52.8976 18.7399 52.9038C18.725 52.9099 18.7114 52.9189 18.7 52.9303C18.6886 52.9416 18.6796 52.9551 18.6734 52.9699C18.6672 52.9847 18.6641 53.0006 18.6641 53.0167V53.6329H16.8222V53.0167C16.8222 53.0006 16.8191 52.9847 16.8129 52.9699C16.8067 52.9551 16.7977 52.9416 16.7863 52.9303C16.7749 52.9189 16.7613 52.9099 16.7464 52.9038C16.7315 52.8976 16.7156 52.8945 16.6994 52.8945H13.7525C13.7363 52.8945 13.7204 52.8976 13.7055 52.9038C13.6906 52.9099 13.677 52.9189 13.6656 52.9303C13.6542 52.9416 13.6452 52.9551 13.639 52.9699C13.6329 52.9847 13.6297 53.0006 13.6297 53.0167V53.6329H11.7878V53.0167C11.7878 53.0006 11.7847 52.9847 11.7785 52.9699C11.7723 52.9551 11.7633 52.9416 11.7519 52.9303C11.7405 52.9189 11.7269 52.9099 11.712 52.9038C11.6971 52.8976 11.6812 52.8945 11.665 52.8945H8.71809C8.70196 52.8945 8.68599 52.8976 8.67109 52.9038C8.6562 52.9099 8.64266 52.9189 8.63126 52.9303C8.61986 52.9416 8.61081 52.9551 8.60464 52.9699C8.59847 52.9847 8.5953 53.0006 8.5953 53.0167V53.6329H2.94696C2.55996 53.6329 2.17675 53.7088 1.81921 53.8561C1.46166 54.0035 1.13679 54.2195 0.863143 54.4918C0.589493 54.7641 0.372422 55.0874 0.224323 55.4432C0.0762248 55.799 -2.28945e-07 56.1803 0 56.5654V57.8914C1.8495e-06 58.6692 0.310485 59.4151 0.863146 59.965C1.41581 60.515 2.16538 60.8239 2.94696 60.8239H100.933C101.32 60.8239 101.704 60.7481 102.061 60.6007C102.419 60.4533 102.743 60.2373 103.017 59.965C103.291 59.6927 103.508 59.3694 103.656 59.0136C103.804 58.6579 103.88 58.2765 103.88 57.8914V56.5654C103.88 56.1803 103.804 55.799 103.656 55.4432C103.508 55.0874 103.291 54.7641 103.017 54.4918C102.743 54.2195 102.419 54.0035 102.061 53.8561C101.704 53.7088 101.32 53.6329 100.933 53.6329Z" fill="#3F3D56"/>
<path d="M74.0681 37.7687H28.0425C27.9039 37.7685 27.7709 37.7136 27.6729 37.6161C27.5748 37.5185 27.5197 37.3862 27.5195 37.2482V18.165C27.5197 18.027 27.5748 17.8947 27.6729 17.7971C27.7709 17.6996 27.9039 17.6447 28.0425 17.6445H74.0681C74.2068 17.6447 74.3397 17.6996 74.4378 17.7971C74.5358 17.8947 74.591 18.027 74.5911 18.165V37.2482C74.591 37.3862 74.5358 37.5185 74.4378 37.6161C74.3397 37.7136 74.2068 37.7685 74.0681 37.7687ZM28.0425 17.9915C27.9963 17.9916 27.952 18.0099 27.9193 18.0424C27.8867 18.0749 27.8683 18.119 27.8682 18.165V37.2482C27.8683 37.2942 27.8867 37.3383 27.9193 37.3708C27.952 37.4033 27.9963 37.4216 28.0425 37.4217H74.0681C74.1143 37.4216 74.1586 37.4033 74.1913 37.3708C74.224 37.3383 74.2424 37.2942 74.2425 37.2482V18.165C74.2424 18.119 74.224 18.0749 74.1913 18.0424C74.1586 18.0099 74.1143 17.9916 74.0681 17.9915H28.0425Z" fill="#3F3D56"/>
<path d="M33.2723 28.7475H31.1802C31.0416 28.7473 30.9086 28.6924 30.8106 28.5949C30.7125 28.4973 30.6574 28.365 30.6572 28.227V26.1452C30.6574 26.0072 30.7125 25.8749 30.8106 25.7774C30.9086 25.6798 31.0416 25.6249 31.1802 25.6248H33.2723C33.411 25.6249 33.5439 25.6798 33.642 25.7774C33.74 25.8749 33.7952 26.0072 33.7953 26.1452V28.227C33.7952 28.365 33.74 28.4973 33.642 28.5949C33.5439 28.6924 33.411 28.7473 33.2723 28.7475ZM31.1802 25.9717C31.134 25.9718 31.0897 25.9901 31.057 26.0226C31.0244 26.0551 31.006 26.0992 31.0059 26.1452V28.227C31.006 28.273 31.0244 28.3171 31.057 28.3496C31.0897 28.3821 31.134 28.4004 31.1802 28.4005H33.2723C33.3185 28.4004 33.3628 28.3821 33.3955 28.3496C33.4282 28.3171 33.4466 28.273 33.4467 28.227V26.1452C33.4466 26.0992 33.4282 26.0551 33.3955 26.0226C33.3628 25.9901 33.3185 25.9718 33.2723 25.9717H31.1802Z" fill="#3F3D56"/>
<path d="M70.5814 28.4005H30.832V28.7475H70.5814V28.4005Z" fill="#3F3D56"/>
<path d="M173.964 46.7898H46.1738V47.1368H173.964V46.7898Z" fill="#3F3D56"/>
<path d="M46.1741 49.2186C47.5221 49.2186 48.6149 48.1312 48.6149 46.7898C48.6149 45.4484 47.5221 44.361 46.1741 44.361C44.8262 44.361 43.7334 45.4484 43.7334 46.7898C43.7334 48.1312 44.8262 49.2186 46.1741 49.2186Z" fill="#3F3D56"/>
<path d="M173.965 49.045C175.024 49.045 175.882 48.1907 175.882 47.1367C175.882 46.0828 175.024 45.2284 173.965 45.2284C172.905 45.2284 172.047 46.0828 172.047 47.1367C172.047 48.1907 172.905 49.045 173.965 49.045Z" fill="#3F3D56"/>
<path d="M183.379 87.3851C184.438 87.3851 185.296 86.5307 185.296 85.4767C185.296 84.4228 184.438 83.5684 183.379 83.5684C182.32 83.5684 181.461 84.4228 181.461 85.4767C181.461 86.5307 182.32 87.3851 183.379 87.3851Z" fill="#3F3D56"/>
<path d="M56.1111 87.3851C57.1702 87.3851 58.0288 86.5307 58.0288 85.4767C58.0288 84.4228 57.1702 83.5684 56.1111 83.5684C55.052 83.5684 54.1934 84.4228 54.1934 85.4767C54.1934 86.5307 55.052 87.3851 56.1111 87.3851Z" fill="#3F3D56"/>
</svg>
