<svg width="174" height="120" viewBox="0 0 174 120" fill="none" xmlns="http://www.w3.org/2000/svg">
<rect width="133.953" height="120" rx="20" fill="#CEE1F0"/>
<path d="M45.0877 113.488C62.7963 113.488 77.152 112.392 77.152 111.04C77.152 109.688 62.7963 108.592 45.0877 108.592C27.3791 108.592 13.0234 109.688 13.0234 111.04C13.0234 112.392 27.3791 113.488 45.0877 113.488Z" fill="#CCCCCC"/>
<path d="M37.5322 25.9049C43.1124 23.519 50.0625 25.0307 56.8501 26.0799C56.9133 24.8093 57.6789 23.263 56.8769 22.3766C55.9026 21.2996 55.9923 20.1681 56.5786 19.03C58.0779 16.1198 55.9298 13.0233 53.7609 10.4485C53.2721 9.86943 52.6543 9.41448 51.9577 9.12055C51.2611 8.82663 50.5053 8.70203 49.7518 8.75687L45.7341 9.04536C44.7565 9.11556 43.8235 9.48424 43.0599 10.1021C42.2964 10.7199 41.7388 11.5574 41.4617 12.5025C40.5023 13.8141 39.9889 15.1221 40.3121 16.4233C38.8752 17.4104 38.6338 18.602 39.2795 19.9454C39.827 20.7912 39.8212 21.6145 39.2546 22.415C38.5105 23.4356 37.9405 24.5736 37.5681 25.7824L37.5322 25.9049Z" fill="#2F2E41"/>
<path d="M170.14 98.2349H56.4101C55.3987 98.2349 54.4288 97.831 53.7136 97.1121C52.9985 96.3931 52.5967 95.418 52.5967 94.4013C93.8239 89.5847 134.276 89.5847 173.954 94.4013C173.954 95.418 173.552 96.3931 172.837 97.1121C172.122 97.831 171.152 98.2349 170.14 98.2349Z" fill="#2F2E41"/>
<path d="M173.954 94.6269L52.5967 94.4014L66.6616 70.6108L66.7288 70.4981V18.0663C66.7288 17.4299 66.8535 16.7997 67.0957 16.2117C67.3379 15.6237 67.693 15.0895 68.1407 14.6395C68.5883 14.1895 69.1198 13.8325 69.7046 13.589C70.2895 13.3455 70.9164 13.2202 71.5495 13.2202H154.328C154.961 13.2202 155.588 13.3455 156.173 13.589C156.758 13.8325 157.289 14.1895 157.737 14.6395C158.185 15.0895 158.54 15.6237 158.782 16.2117C159.024 16.7997 159.149 17.4299 159.149 18.0663V70.8589L173.954 94.6269Z" fill="#3F3D56"/>
<path d="M71.4394 16.6027C71.0231 16.6031 70.6239 16.7696 70.3296 17.0655C70.0352 17.3614 69.8696 17.7627 69.8691 18.1812V65.9879C69.8696 66.4064 70.0352 66.8076 70.3296 67.1035C70.624 67.3995 71.0231 67.5659 71.4394 67.5664H155.111C155.527 67.5659 155.926 67.3994 156.221 67.1035C156.515 66.8076 156.681 66.4064 156.681 65.9879V18.1812C156.681 17.7627 156.515 17.3615 156.221 17.0655C155.926 16.7696 155.527 16.6031 155.111 16.6027H71.4394Z" fill="white"/>
<path d="M71.7901 73.8806C71.6614 73.8808 71.5355 73.918 71.4272 73.9878C71.3189 74.0576 71.2326 74.157 71.1786 74.2744L66.8448 83.7455C66.7976 83.8486 66.777 83.9619 66.7848 84.0751C66.7926 84.1883 66.8286 84.2977 66.8895 84.3932C66.9504 84.4887 67.0342 84.5673 67.1332 84.6218C67.2322 84.6762 67.3433 84.7048 67.4561 84.7048H158.594C158.709 84.7048 158.822 84.6753 158.922 84.6191C159.022 84.563 159.106 84.482 159.167 84.3839C159.227 84.2858 159.261 84.1738 159.266 84.0586C159.272 83.9434 159.247 83.8288 159.196 83.7257L154.485 74.2546C154.43 74.142 154.344 74.0473 154.237 73.9812C154.131 73.9151 154.008 73.8802 153.883 73.8806H71.7901Z" fill="#2F2E41"/>
<path d="M112.938 15.8135C113.496 15.8135 113.948 15.3591 113.948 14.7987C113.948 14.2383 113.496 13.7839 112.938 13.7839C112.381 13.7839 111.929 14.2383 111.929 14.7987C111.929 15.3591 112.381 15.8135 112.938 15.8135Z" fill="white"/>
<path d="M103.98 86.5088C103.832 86.509 103.688 86.5581 103.571 86.6485C103.453 86.739 103.369 86.8658 103.33 87.0093L102.243 91.0684C102.216 91.1687 102.212 91.2738 102.233 91.3757C102.253 91.4776 102.296 91.5734 102.358 91.6559C102.421 91.7383 102.502 91.8051 102.595 91.851C102.687 91.897 102.789 91.9209 102.893 91.9209H123.567C123.674 91.9209 123.78 91.8951 123.875 91.8457C123.971 91.7962 124.053 91.7246 124.115 91.6367C124.177 91.5489 124.218 91.4473 124.233 91.3406C124.248 91.2338 124.238 91.125 124.203 91.0231L122.805 86.964C122.759 86.8311 122.673 86.7159 122.559 86.6343C122.445 86.5527 122.309 86.5088 122.169 86.5088H103.98Z" fill="#2F2E41"/>
<path d="M159.148 69.7087V70.6107H66.6611L66.7307 70.498V69.7087H159.148Z" fill="#2F2E41"/>
<path d="M156.568 19.4215C157.064 19.4215 157.465 19.0176 157.465 18.5194C157.465 18.0213 157.064 17.6174 156.568 17.6174C156.073 17.6174 155.671 18.0213 155.671 18.5194C155.671 19.0176 156.073 19.4215 156.568 19.4215Z" fill="white"/>
<path d="M156.397 26.1386C161.569 26.1386 165.761 21.9391 165.761 16.7587C165.761 11.5784 161.569 7.37891 156.397 7.37891C151.226 7.37891 147.034 11.5784 147.034 16.7587C147.034 21.9391 151.226 26.1386 156.397 26.1386Z" fill="#092869"/>
<path d="M154.032 21.4486L150.546 17.1685L152.573 15.6628L154.224 17.6893L159.8 12.0687L161.665 13.7554L154.032 21.4486Z" fill="white"/>
<path d="M145.608 51.3509H80.9436C80.6261 51.3505 80.3217 51.2236 80.0972 50.9979C79.8727 50.7722 79.7465 50.4663 79.7461 50.1471V34.022C79.7465 33.7029 79.8727 33.3969 80.0972 33.1712C80.3217 32.9456 80.6261 32.8186 80.9436 32.8182H145.608C145.925 32.8186 146.23 32.9456 146.454 33.1712C146.679 33.3969 146.805 33.7029 146.805 34.022V50.1471C146.805 50.4663 146.679 50.7722 146.454 50.9979C146.23 51.2236 145.925 51.3505 145.608 51.3509ZM80.9436 33.2998C80.7531 33.3 80.5705 33.3761 80.4358 33.5115C80.3011 33.647 80.2253 33.8305 80.2251 34.022V50.1471C80.2253 50.3386 80.3011 50.5222 80.4358 50.6576C80.5705 50.793 80.7531 50.8692 80.9436 50.8694H145.608C145.798 50.8692 145.981 50.793 146.116 50.6576C146.25 50.5222 146.326 50.3386 146.326 50.1471V34.022C146.326 33.8305 146.25 33.6469 146.116 33.5115C145.981 33.3761 145.798 33.3 145.608 33.2998L80.9436 33.2998Z" fill="#E6E6E6"/>
<path d="M90.9912 46.3696C93.6852 46.3696 95.8691 44.1741 95.8691 41.4659C95.8691 38.7577 93.6852 36.5623 90.9912 36.5623C88.2972 36.5623 86.1133 38.7577 86.1133 41.4659C86.1133 44.1741 88.2972 46.3696 90.9912 46.3696Z" fill="#E6E6E6"/>
<path d="M102.256 38.1968C102.149 38.1966 102.043 38.2176 101.944 38.2586C101.845 38.2996 101.756 38.3598 101.68 38.4357C101.604 38.5116 101.544 38.6018 101.503 38.701C101.462 38.8002 101.441 38.9066 101.441 39.0141C101.441 39.1215 101.462 39.2279 101.503 39.3271C101.544 39.4263 101.604 39.5165 101.68 39.5924C101.756 39.6683 101.845 39.7285 101.944 39.7695C102.043 39.8105 102.149 39.8315 102.256 39.8313H140.582C140.798 39.8313 141.005 39.7452 141.157 39.5919C141.309 39.4387 141.395 39.2308 141.395 39.0141C141.395 38.7973 141.309 38.5894 141.157 38.4361C141.005 38.2829 140.798 38.1968 140.582 38.1968H102.256Z" fill="#E6E6E6"/>
<path d="M102.255 43.1005C102.04 43.1005 101.833 43.1866 101.68 43.3398C101.528 43.4931 101.442 43.701 101.442 43.9177C101.442 44.1345 101.528 44.3424 101.68 44.4956C101.833 44.6489 102.04 44.735 102.255 44.735H118.747C118.963 44.735 119.17 44.6489 119.322 44.4956C119.475 44.3424 119.56 44.1345 119.56 43.9177C119.56 43.701 119.475 43.4931 119.322 43.3398C119.17 43.1866 118.963 43.1005 118.747 43.1005H102.255Z" fill="#E6E6E6"/>
<path d="M66.5015 43.4311L54.5478 49.8198L54.3965 44.4959C58.2981 43.8411 62.0101 42.7011 65.4423 40.8452L66.6925 37.7402C66.8287 37.4018 67.0501 37.1049 67.335 36.8786C67.6199 36.6523 67.9584 36.5043 68.3173 36.4492C68.6762 36.3941 69.0432 36.4337 69.3823 36.5643C69.7214 36.6949 70.0208 36.9118 70.2513 37.1939C70.5885 37.6065 70.7571 38.1326 70.7228 38.6656C70.6886 39.1985 70.4541 39.6984 70.067 40.064L66.5015 43.4311Z" fill="#FFB8B8"/>
<path d="M37.2946 80.3167C37.2074 79.9952 37.1889 79.6588 37.2403 79.3296C37.2917 79.0004 37.4118 78.6858 37.5928 78.4066L40.2187 74.3554C40.8398 73.3972 41.7928 72.7051 42.8928 72.4134C43.9928 72.1216 45.1614 72.2511 46.1719 72.7765C45.0683 74.6649 45.2222 76.3216 46.553 77.7612C44.487 78.7751 42.5775 80.0838 40.8837 81.6466C40.5745 81.8585 40.2194 81.993 39.848 82.0391C39.4765 82.0851 39.0996 82.0412 38.7484 81.9111C38.3973 81.781 38.0821 81.5684 37.8293 81.2911C37.5764 81.0138 37.3931 80.6797 37.2946 80.3167Z" fill="#2F2E41"/>
<path d="M67.0464 75.0198C66.6491 75.6855 66.0882 76.2374 65.4176 76.6225C64.7469 77.0076 63.9891 77.2129 63.2168 77.2188L45.7722 77.3517L45.0156 72.9405L52.7326 70.6588L46.2261 65.6392L53.3378 57.2731L66.2548 69.3758C67.0098 70.0831 67.5003 71.0296 67.6444 72.0569C67.7885 73.0842 67.5774 74.1302 67.0464 75.0198Z" fill="#2F2E41"/>
<path d="M43.0485 105.188H38.963C35.2949 79.9118 31.5611 54.5648 42.5945 45.1042L55.6074 47.2338L53.943 58.3379L46.68 66.704L43.0485 105.188Z" fill="#2F2E41"/>
<path d="M46.6397 110.914C46.3199 111.001 45.9853 111.02 45.6578 110.968C45.3303 110.917 45.0173 110.796 44.7396 110.614L40.3036 110.015C39.3504 109.39 38.6619 108.432 38.3716 107.327C38.0813 106.221 38.21 105.046 38.7327 104.03C40.6113 105.14 42.2592 104.985 43.6912 103.647C44.703 105.701 46.3702 105.575 47.9624 107.306C48.1732 107.617 48.3071 107.974 48.3529 108.347C48.3987 108.72 48.355 109.099 48.2256 109.452C48.0962 109.805 47.8848 110.122 47.6089 110.376C47.3331 110.631 47.0008 110.815 46.6397 110.914Z" fill="#2F2E41"/>
<path d="M52.7316 28.22L45.166 26.3947C46.4225 23.8091 46.526 20.9321 45.9226 17.8765L51.0672 17.7244C51.2284 21.5241 51.7161 25.074 52.7316 28.22Z" fill="#FFB8B8"/>
<path d="M54.8115 51.8138C49.304 55.5866 45.4126 51.9429 42.443 46.3212C42.8556 42.8812 42.1875 38.7646 40.95 34.2915C40.3997 32.3186 40.6051 30.2099 41.5258 28.3819C42.4465 26.5538 44.0156 25.1391 45.9231 24.4172L52.4296 27.1552C57.9543 31.6823 59.0417 36.586 56.969 41.7579L54.8115 51.8138Z" fill="#092869"/>
<path d="M38.9628 32.0227L32.9103 35.217L43.6535 41.6056L45.1483 45.3124C45.2481 45.5598 45.2967 45.825 45.2912 46.0919C45.2857 46.3588 45.2261 46.6218 45.1162 46.8648C45.0063 47.1078 44.8482 47.3258 44.6518 47.5054C44.4553 47.6851 44.2245 47.8226 43.9735 47.9096C43.6881 48.0085 43.3838 48.0397 43.0844 48.0007C42.7851 47.9616 42.4988 47.8535 42.2479 47.6846C41.9971 47.5158 41.7885 47.2909 41.6386 47.0275C41.4886 46.7641 41.4014 46.4694 41.3837 46.1665L41.2325 43.5831L27.578 39.0533C27.118 38.9007 26.6985 38.6449 26.3514 38.3051C26.0042 37.9654 25.7386 37.5507 25.5745 37.0925C25.3353 36.4246 25.3231 35.6958 25.5399 35.0202C25.7566 34.3445 26.19 33.7602 26.7723 33.3586L37.7523 25.7861L38.9628 32.0227Z" fill="#FFB8B8"/>
<path d="M45.0156 32.6312C42.4913 31.5191 40.1959 32.7271 37.2987 33.6959L36.8447 25.6341C39.7216 24.0926 42.4645 23.677 45.0156 24.8735L45.0156 32.6312Z" fill="#092869"/>
<path d="M48.0354 21.7177C50.7032 21.7177 52.8658 19.5436 52.8658 16.8618C52.8658 14.18 50.7032 12.006 48.0354 12.006C45.3677 12.006 43.2051 14.18 43.2051 16.8618C43.2051 19.5436 45.3677 21.7177 48.0354 21.7177Z" fill="#FFB8B8"/>
<path d="M53.8134 16.2491C49.0309 16.72 45.3867 15.9337 43.0576 13.6949V11.892H53.4075L53.8134 16.2491Z" fill="#2F2E41"/>
</svg>
