<?xml version="1.0" encoding="UTF-8"?>
<svg width="33px" height="34px" viewBox="0 0 33 34" version="1.1" xmlns="http://www.w3.org/2000/svg" xmlns:xlink="http://www.w3.org/1999/xlink">
    <title>98B19703-AB31-4CC6-895E-7BF8F9B82B12</title>
    <g id="Client-Onboarding-Invision" stroke="none" stroke-width="1" fill="none" fill-rule="evenodd">
        <g id="Client-Onboarding-Copy" transform="translate(-19.000000, -257.000000)">
            <g id="SIDE-NAV" transform="translate(0.000000, 55.000000)">
                <g id="supervised_user_circle-24px" transform="translate(19.000000, 202.000000)">
                    <polygon id="Path" points="0 0 33 0 33 34 0 34"></polygon>
                    <path d="M16,3 C8.272,3 2,9.272 2,17 C2,24.728 8.272,31 16,31 C23.728,31 30,24.728 30,17 C30,9.272 23.728,3 16,3 Z M21.054,11.876 C22.552,11.876 23.756,13.08 23.756,14.578 C23.756,16.076 22.552,17.28 21.054,17.28 C19.556,17.28 18.352,16.076 18.352,14.578 C18.338,13.08 19.556,11.876 21.054,11.876 L21.054,11.876 Z M12.654,9.664 C14.474,9.664 15.958,11.148 15.958,12.968 C15.958,14.788 14.474,16.272 12.654,16.272 C10.834,16.272 9.35,14.788 9.35,12.968 C9.35,11.134 10.82,9.664 12.654,9.664 Z M12.654,22.446 L12.654,27.696 C9.294,26.646 6.634,24.056 5.458,20.752 C6.928,19.184 10.596,18.386 12.654,18.386 C13.396,18.386 14.334,18.498 15.314,18.694 C13.018,19.912 12.654,21.522 12.654,22.446 Z M16,28.2 C15.622,28.2 15.258,28.186 14.894,28.144 L14.894,22.446 C14.894,20.458 19.01,19.464 21.054,19.464 C22.552,19.464 25.142,20.01 26.43,21.074 C24.792,25.232 20.746,28.2 16,28.2 L16,28.2 Z" id="Shape" fill="#0B1941" fill-rule="nonzero"></path>
                </g>
            </g>
        </g>
    </g>
</svg>