<?xml version="1.0" encoding="UTF-8"?>
<svg width="18px" height="18px" viewBox="0 0 18 18" version="1.1" xmlns="http://www.w3.org/2000/svg" xmlns:xlink="http://www.w3.org/1999/xlink">
    <title>ic_dashboard</title>
    <defs>
        <path d="M3,13 L11,13 L11,3 L3,3 L3,13 L3,13 Z M3,21 L11,21 L11,15 L3,15 L3,21 L3,21 Z M13,21 L21,21 L21,11 L13,11 L13,21 L13,21 Z M13,3 L13,9 L21,9 L21,3 L13,3 L13,3 Z" id="path-1"></path>
        <rect id="path-3" x="0" y="0" width="50" height="50"></rect>
    </defs>
    <g id="Symbols" stroke="none" stroke-width="1" fill="none" fill-rule="evenodd">
        <g id="SIDE-NAV/Supplierportal/Payers" transform="translate(-26.000000, -16.000000)">
            <g id="Dashboard" transform="translate(-1.000000, 0.000000)">
                <g id="ic_dashboard" transform="translate(24.000000, 13.000000)">
                    <mask id="mask-2" fill="white">
                        <use xlink:href="#path-1"></use>
                    </mask>
                    <g id="Mask"></g>
                    <g id="Group" mask="url(#mask-2)">
                        <g transform="translate(-13.000000, -13.000000)" id="🎨-Color">
                            <mask id="mask-4" fill="white">
                                <use xlink:href="#path-3"></use>
                            </mask>
                            <use id="White" fill="#FFFFFF" xlink:href="#path-3"></use>
                        </g>
                    </g>
                </g>
            </g>
        </g>
    </g>
</svg>