<?xml version="1.0" encoding="UTF-8"?>
<svg width="33px" height="33px" viewBox="0 0 33 33" version="1.1" xmlns="http://www.w3.org/2000/svg" xmlns:xlink="http://www.w3.org/1999/xlink">
    <title>900A0439-CED8-4198-8096-07878D77171F</title>
    <g id="Client-Onboarding-Invision" stroke="none" stroke-width="1" fill="none" fill-rule="evenodd">
        <g id="Client-Onboarding-Copy" transform="translate(-19.000000, -417.000000)">
            <g id="SIDE-NAV" transform="translate(0.000000, 55.000000)">
                <g id="assessment-24px" transform="translate(19.000000, 362.000000)">
                    <polygon id="Path" points="0 0 33 0 33 33 0 33"></polygon>
                    <path d="M26.2222222,4 L6.77777778,4 C5.25,4 4,5.25 4,6.77777778 L4,26.2222222 C4,27.75 5.25,29 6.77777778,29 L26.2222222,29 C27.75,29 29,27.75 29,26.2222222 L29,6.77777778 C29,5.25 27.75,4 26.2222222,4 Z M12.3333333,23.4444444 L9.55555556,23.4444444 L9.55555556,13.7222222 L12.3333333,13.7222222 L12.3333333,23.4444444 Z M17.8888889,23.4444444 L15.1111111,23.4444444 L15.1111111,9.55555556 L17.8888889,9.55555556 L17.8888889,23.4444444 Z M23.4444444,23.4444444 L20.6666667,23.4444444 L20.6666667,17.8888889 L23.4444444,17.8888889 L23.4444444,23.4444444 Z" id="Shape" fill="#EFEFEF" fill-rule="nonzero"></path>
                </g>
            </g>
        </g>
    </g>
</svg>