<?xml version="1.0" encoding="UTF-8"?>
<svg width="20px" height="20px" viewBox="0 0 20 20" version="1.1" xmlns="http://www.w3.org/2000/svg" xmlns:xlink="http://www.w3.org/1999/xlink">
    <title>icon/action/settings</title>
    <defs>
        <path d="M19.1231144,12.936 C19.1591144,12.636 19.1831144,12.324 19.1831144,12 C19.1831144,11.676 19.1591144,11.364 19.1111144,11.064 L21.1391144,9.48 C21.3191144,9.336 21.3671144,9.072 21.2591144,8.868 L19.3391144,5.544 C19.2191144,5.328 18.9671144,5.256 18.7511144,5.328 L16.3631144,6.288 C15.8591144,5.904 15.3311144,5.592 14.7431144,5.352 L14.3831144,2.808 C14.3471144,2.568 14.1431144,2.4 13.9031144,2.4 L10.0631144,2.4 C9.82311439,2.4 9.63111439,2.568 9.59511439,2.808 L9.23511439,5.352 C8.64711439,5.592 8.10711439,5.916 7.61511439,6.288 L5.22711439,5.328 C5.01111439,5.244 4.75911439,5.328 4.63911439,5.544 L2.71911439,8.868 C2.59911439,9.084 2.64711439,9.336 2.83911439,9.48 L4.86711439,11.064 C4.81911439,11.364 4.78311439,11.688 4.78311439,12 C4.78311439,12.312 4.80711439,12.636 4.85511439,12.936 L2.82711439,14.52 C2.64711439,14.664 2.59911439,14.928 2.70711439,15.132 L4.62711439,18.456 C4.74711439,18.672 4.99911439,18.744 5.21511439,18.672 L7.60311439,17.712 C8.10711439,18.096 8.63511439,18.408 9.22311439,18.648 L9.58311439,21.192 C9.63111439,21.432 9.82311439,21.6 10.0631144,21.6 L13.9031144,21.6 C14.1431144,21.6 14.3471144,21.432 14.3711144,21.192 L14.7311144,18.648 C15.3191144,18.408 15.8591144,18.084 16.3511144,17.712 L18.7391144,18.672 C18.9551144,18.756 19.2071144,18.672 19.3271144,18.456 L21.2471144,15.132 C21.3671144,14.916 21.3191144,14.664 21.1271144,14.52 L19.1231144,12.936 L19.1231144,12.936 Z M11.9831144,15.6 C10.0031144,15.6 8.38311439,13.98 8.38311439,12 C8.38311439,10.02 10.0031144,8.4 11.9831144,8.4 C13.9631144,8.4 15.5831144,10.02 15.5831144,12 C15.5831144,13.98 13.9631144,15.6 11.9831144,15.6 Z" id="path-1"></path>
    </defs>
    <g id="Symbols" stroke="none" stroke-width="1" fill="none" fill-rule="evenodd">
        <g id="SIDE-NAV/Supplierportal/Dashboard" transform="translate(-25.000000, -385.000000)">
            <g id="Settings" transform="translate(-1.000000, 370.000000)">
                <g id="icon/action/settings" transform="translate(24.000000, 13.000000)">
                    <mask id="mask-2" fill="white">
                        <use xlink:href="#path-1"></use>
                    </mask>
                    <use id="-↳Color" fill="#FFFFFF" xlink:href="#path-1"></use>
                </g>
            </g>
        </g>
    </g>
</svg>