<?xml version="1.0" encoding="UTF-8"?>
<svg width="22px" height="14px" viewBox="0 0 22 14" version="1.1" xmlns="http://www.w3.org/2000/svg" xmlns:xlink="http://www.w3.org/1999/xlink">
    <title>EC65A2DF-5EEC-49B6-B5D3-62E0D1D51224</title>
    <defs>
        <path d="M15,6 C16.66,6 17.99,4.66 17.99,3 C17.99,1.34 16.66,0 15,0 C13.34,0 12,1.34 12,3 C12,4.66 13.34,6 15,6 L15,6 Z M7,6 C8.66,6 9.99,4.66 9.99,3 C9.99,1.34 8.66,0 7,0 C5.34,0 4,1.34 4,3 C4,4.66 5.34,6 7,6 L7,6 Z M7,8 C4.67,8 0,9.17 0,11.5 L0,14 L14,14 L14,11.5 C14,9.17 9.33,8 7,8 L7,8 Z M15,8 C14.71,8 14.38,8.02 14.03,8.05 C15.19,8.89 16,10.02 16,11.5 L16,14 L22,14 L22,11.5 C22,9.17 17.33,8 15,8 L15,8 Z" id="path-1"></path>
        <rect id="path-3" x="0" y="0" width="50" height="50"></rect>
    </defs>
    <g id="Client-Portal-Phase-1" stroke="none" stroke-width="1" fill="none" fill-rule="evenodd">
        <g id="Settings--Payment-Methods_clear-parent-notification" transform="translate(-25.000000, -376.000000)">
            <g id="sidebar/material-design" transform="translate(0.000000, 56.000000)">
                <g id="Users" transform="translate(0.000000, 320.000000)">
                    <g id="ic_group" transform="translate(25.000000, 0.000000)">
                        <mask id="mask-2" fill="white">
                            <use xlink:href="#path-1"></use>
                        </mask>
                        <g id="Mask"></g>
                        <g id="🎨-Color" mask="url(#mask-2)">
                            <g transform="translate(-14.000000, -18.000000)">
                                <mask id="mask-4" fill="white">
                                    <use xlink:href="#path-3"></use>
                                </mask>
                                <use id="White" stroke="none" fill="#FFFFFF" fill-rule="evenodd" xlink:href="#path-3"></use>
                            </g>
                        </g>
                    </g>
                </g>
            </g>
        </g>
    </g>
</svg>