<?xml version="1.0" encoding="UTF-8"?>
<svg width="20px" height="20px" viewBox="0 0 20 20" version="1.1" xmlns="http://www.w3.org/2000/svg" xmlns:xlink="http://www.w3.org/1999/xlink">
    <title>A235C16F-7F1A-41A5-A69C-B18EA13AEBAB</title>
    <g id="Client-Onboarding-Invision" stroke="none" stroke-width="1" fill="none" fill-rule="evenodd">
        <g id="Company-Profile:-Assisted-Client-Profile-Setup----Copy-3" transform="translate(-169.000000, -200.000000)" fill="#0B1941" fill-rule="nonzero">
            <g id="Toast_InfoMessage" transform="translate(74.000000, 169.000000)">
                <g id="Shape" transform="translate(95.000000, 31.000000)">
                    <path d="M9,5 L11,5 L11,7 L9,7 L9,5 Z M9,9 L11,9 L11,15 L9,15 L9,9 Z M10,0 C4.48,0 0,4.48 0,10 C0,15.52 4.48,20 10,20 C15.52,20 20,15.52 20,10 C20,4.48 15.52,0 10,0 Z M10,18 C5.59,18 2,14.41 2,10 C2,5.59 5.59,2 10,2 C14.41,2 18,5.59 18,10 C18,14.41 14.41,18 10,18 Z"></path>
                </g>
            </g>
        </g>
    </g>
</svg>