<svg width="40" height="28" viewBox="0 0 40 28" fill="none" xmlns="http://www.w3.org/2000/svg">
<path fill-rule="evenodd" clip-rule="evenodd" d="M38.4416 26.7803V26.8482H38.5143C38.5279 26.8484 38.5414 26.8454 38.5533 26.8396C38.5629 26.8336 38.5685 26.8238 38.5678 26.8136C38.5683 26.8034 38.5629 26.7938 38.5533 26.7882C38.5416 26.782 38.528 26.7791 38.5143 26.7795H38.4416V26.7803ZM38.515 26.7321C38.5462 26.7305 38.577 26.7383 38.6023 26.7543C38.6229 26.7689 38.6343 26.7913 38.633 26.8144C38.6339 26.8343 38.6249 26.8536 38.6084 26.8672C38.5889 26.882 38.5644 26.8909 38.5387 26.8926L38.636 26.9894H38.561L38.4715 26.8932H38.4424V26.9894H38.3796V26.7323H38.516L38.515 26.7321ZM38.4956 27.0782C38.5285 27.0785 38.5611 27.0727 38.5913 27.0612C38.6204 27.0503 38.6468 27.0346 38.6693 27.0151C38.6916 26.9956 38.7095 26.9726 38.722 26.9471C38.7476 26.8932 38.7476 26.8327 38.722 26.7788C38.7094 26.7535 38.6915 26.7305 38.6693 26.7109C38.6468 26.6913 38.6204 26.6757 38.5913 26.6648C38.5609 26.654 38.5284 26.6485 38.4956 26.6488C38.4622 26.6486 38.4291 26.654 38.3982 26.6648C38.3685 26.6755 38.3414 26.6911 38.3185 26.7109C38.2481 26.7738 38.2277 26.8678 38.2665 26.9489C38.2783 26.9743 38.296 26.9975 38.3185 27.0169C38.3415 27.0365 38.3685 27.0522 38.3982 27.063C38.429 27.0744 38.4621 27.0801 38.4956 27.0799V27.0782ZM38.4956 26.587C38.5812 26.5869 38.6634 26.6162 38.7246 26.6685C38.754 26.6937 38.7774 26.7236 38.7935 26.7568C38.8271 26.8254 38.8271 26.9032 38.7935 26.9718C38.777 27.0047 38.7536 27.0346 38.7246 27.06C38.6946 27.085 38.6599 27.1052 38.6219 27.1195C38.582 27.1343 38.539 27.1419 38.4956 27.1416C38.4518 27.1419 38.4083 27.1344 38.3678 27.1195C38.3294 27.1055 38.2942 27.0853 38.2643 27.06C38.2353 27.0337 38.2122 27.0028 38.1964 26.9689C38.1628 26.9003 38.1628 26.8225 38.1964 26.7538C38.2124 26.7208 38.2359 26.6908 38.2653 26.6657C38.2949 26.6399 38.33 26.6197 38.3688 26.6062C38.4092 26.5913 38.4528 26.5838 38.4966 26.5841L38.4956 26.587ZM8.66524 25.5937C8.66524 25.1034 9.03355 24.7005 9.63527 24.7005C10.2103 24.7005 10.5985 25.086 10.5985 25.5937C10.5985 26.1015 10.2103 26.487 9.63527 26.487C9.03355 26.487 8.66524 26.0841 8.66524 25.5937ZM11.254 25.5937V24.1982H10.5587V24.5382C10.3382 24.2869 10.0037 24.1295 9.54875 24.1295C8.65261 24.1295 7.94934 24.7427 7.94934 25.5945C7.94934 26.4463 8.65223 27.0595 9.54875 27.0595C10.0035 27.0595 10.3382 26.9017 10.5587 26.6507V26.9894H11.2533V25.5937H11.254ZM34.7473 25.5937C34.7473 25.1034 35.1155 24.7005 35.7175 24.7005C36.2932 24.7005 36.6807 25.086 36.6807 25.5937C36.6807 26.1015 36.2932 26.487 35.7175 26.487C35.1158 26.487 34.7473 26.0841 34.7473 25.5937ZM37.3368 25.5937V23.0781H36.6409V24.5382C36.4204 24.2869 36.0859 24.1295 35.6311 24.1295C34.7348 24.1295 34.0315 24.7427 34.0315 25.5945C34.0315 26.4463 34.7344 27.0595 35.6311 27.0595C36.0859 27.0595 36.4204 26.9017 36.6409 26.6507V26.9894H37.3368V25.5937ZM19.8836 24.6718C20.3316 24.6718 20.6195 24.917 20.6929 25.3485H19.0338C19.1081 24.9456 19.3884 24.6718 19.8837 24.6718H19.8836ZM19.8976 24.1279C18.9606 24.1279 18.305 24.7228 18.305 25.593C18.305 26.4801 18.9868 27.058 19.9442 27.058C20.4257 27.058 20.8669 26.9531 21.2549 26.667L20.9142 26.2175C20.6461 26.4044 20.3049 26.5093 19.9839 26.5093C19.5359 26.5093 19.1279 26.3282 19.0276 25.8259H21.4018C21.4086 25.7505 21.4156 25.6744 21.4156 25.5927C21.4086 24.723 20.7923 24.1277 19.8973 24.1277L19.8976 24.1279ZM28.2919 25.5927C28.2919 25.1023 28.6601 24.6995 29.2618 24.6995C29.837 24.6995 30.2251 25.085 30.2251 25.5927C30.2251 26.1004 29.837 26.486 29.2618 26.486C28.6601 26.486 28.2917 26.0831 28.2917 25.5927H28.2919ZM30.8805 25.5927V24.1982H30.1855V24.5382C29.9642 24.2869 29.6305 24.1295 29.1756 24.1295C28.2794 24.1295 27.5762 24.7427 27.5762 25.5945C27.5762 26.4463 28.2791 27.0595 29.1756 27.0595C29.6305 27.0595 29.9642 26.9017 30.1855 26.6507V26.9894H30.8806V25.5937L30.8805 25.5927ZM24.3653 25.5927C24.3653 26.4391 25.0406 27.0578 26.0712 27.0578C26.5527 27.0578 26.8737 26.9643 27.2206 26.7252L26.8867 26.2348C26.6256 26.3984 26.3515 26.486 26.049 26.486C25.4939 26.4801 25.0858 26.1299 25.0858 25.5927C25.0858 25.0556 25.4939 24.7056 26.049 24.6995C26.3507 24.6995 26.6248 24.787 26.8867 24.9507L27.2206 24.4604C26.873 24.2211 26.5522 24.1277 26.0712 24.1277C25.0406 24.1277 24.3653 24.7463 24.3653 25.5927ZM33.3289 24.1277C32.9278 24.1277 32.6666 24.2913 32.4859 24.5365V24.1982H31.7968V26.9879H32.4929V25.4241C32.4929 24.9625 32.7202 24.7059 33.1748 24.7059C33.3236 24.7041 33.4714 24.728 33.6096 24.7761L33.8239 24.2044C33.6701 24.1515 33.4694 24.1282 33.3285 24.1282L33.3289 24.1277ZM14.6916 24.4201C14.3571 24.2277 13.8961 24.1282 13.3877 24.1282C12.5776 24.1282 12.0561 24.467 12.0561 25.0213C12.0561 25.4761 12.4443 25.7568 13.1593 25.8443L13.4877 25.8851C13.8691 25.9318 14.049 26.0194 14.049 26.1769C14.049 26.3927 13.7958 26.5158 13.3203 26.5158C12.8386 26.5158 12.4911 26.3815 12.2568 26.2239L11.93 26.697C12.3113 26.9421 12.7929 27.059 13.3144 27.059C14.2379 27.059 14.773 26.6796 14.773 26.1484C14.773 25.658 14.3518 25.4015 13.656 25.314L13.3282 25.2725C13.0272 25.2385 12.7861 25.1856 12.7861 24.9986C12.7861 24.7948 13.0135 24.672 13.3949 24.672C13.803 24.672 14.1981 24.8062 14.3917 24.9111L14.6927 24.4207L14.6916 24.4201ZM23.6631 24.1287C23.2619 24.1287 23.0007 24.2924 22.8209 24.5375V24.1982H22.1317V26.9879H22.8271V25.4241C22.8271 24.9625 23.0544 24.7059 23.509 24.7059C23.6578 24.7041 23.8056 24.728 23.9437 24.7761L24.1581 24.2044C24.0042 24.1515 23.8035 24.1282 23.6627 24.1282L23.6631 24.1287ZM17.7297 24.1982H16.5927V23.352H15.8898V24.1982H15.2414V24.7528H15.8898V26.0254C15.8898 26.6726 16.1778 27.0581 17.0003 27.0581C17.3021 27.0581 17.6496 26.9766 17.8702 26.8424L17.6694 26.3229C17.4618 26.4279 17.2345 26.4808 17.0537 26.4808C16.7061 26.4808 16.5927 26.2937 16.5927 26.0138V24.7532H17.7297V24.1982ZM7.33448 26.9887V25.2379C7.33448 24.5785 6.85288 24.1349 6.0766 24.1289C5.66838 24.123 5.2474 24.2338 4.95273 24.6253C4.7322 24.3159 4.3846 24.1289 3.89605 24.1289C3.55452 24.1289 3.22082 24.2164 2.95949 24.5432V24.1982H2.26367V26.9879H2.96492V25.4411C2.96492 24.9569 3.27273 24.6995 3.74815 24.6995C4.2098 24.6995 4.44346 24.9622 4.44346 25.435V26.9876H5.14636V25.4408C5.14636 24.9565 5.46717 24.6992 5.92869 24.6992C6.40348 24.6992 6.63007 24.9618 6.63007 25.4347V26.9872L7.33448 26.9887Z" fill="#231F20"/>
<path fill-rule="evenodd" clip-rule="evenodd" d="M38.8381 17.7088V17.3008H38.7164L38.5755 17.5807L38.4354 17.3008H38.3133V17.7088H38.3997V17.4014L38.5314 17.6665H38.6211L38.7527 17.4007V17.7088H38.8385H38.8381ZM38.0656 17.7088V17.3707H38.2215V17.3018H37.8232V17.3707H37.9791V17.7088H38.0656Z" fill="#F79410"/>
<path fill-rule="evenodd" clip-rule="evenodd" d="M24.9987 19.4595H14.4619V2.9375H24.999L24.9987 19.4595Z" fill="#FF5F00"/>
<path fill-rule="evenodd" clip-rule="evenodd" d="M15.1301 11.199C15.1301 7.84756 16.9287 4.86205 19.7293 2.93802C17.6098 1.47981 14.9868 0.687891 12.2876 0.691418C5.63709 0.691418 0.246094 5.39576 0.246094 11.199C0.246094 17.0022 5.63709 21.7066 12.2876 21.7066C14.9868 21.7101 17.6099 20.9182 19.7296 19.46C16.9291 17.5363 15.1301 14.5506 15.1301 11.199Z" fill="#EB001B"/>
<path fill-rule="evenodd" clip-rule="evenodd" d="M39.2148 11.199C39.2148 17.0022 33.8238 21.7066 27.1734 21.7066C24.4739 21.71 21.8505 20.9182 19.7305 19.46C22.5319 17.5359 24.3305 14.5507 24.3305 11.199C24.3305 7.84734 22.5319 4.86205 19.7305 2.93801C21.8504 1.47981 24.4738 0.688001 27.1732 0.691417C33.8237 0.691417 39.2147 5.39576 39.2147 11.199" fill="#F79410"/>
</svg>
