<?xml version="1.0" encoding="UTF-8"?>
<svg width="232px" height="227px" viewBox="0 0 232 227" version="1.1" xmlns="http://www.w3.org/2000/svg" xmlns:xlink="http://www.w3.org/1999/xlink">
    <title>6B9999AB-E074-46FB-8EA6-6F6CCE4F5E45</title>
    <g id="Client-Portal-Phase-1" stroke="none" stroke-width="1" fill="none" fill-rule="evenodd">
        <g id="My-Payments---No-Data" transform="translate(-657.000000, -650.000000)" fill-rule="nonzero">
            <g id="undraw_No_data_re_kwbl" transform="translate(657.000000, 650.000000)">
                <path d="M147,51.0043124 L84.608248,51.0043124 C81.6478999,51.0079361 79.2489615,53.421937 79.2453604,56.4008727 L79.2453604,195.937933 L78.5303087,196.157411 L63.2246061,200.874005 C61.714237,201.337423 60.1161964,200.482658 59.6530159,198.963623 L14.1255575,49.3169879 C13.6642026,47.7970251 14.5139351,46.1883564 16.0240412,45.7228787 L39.6100995,38.4555109 L107.986916,17.3945349 L131.572796,10.1271671 C132.297719,9.90265831 133.081614,9.97750175 133.751642,10.3351955 C134.42167,10.6928893 134.922809,11.3040594 135.144565,12.0339517 L146.781959,50.284771 L147,51.0043124 Z" id="Path" fill="#F4F4F4"></path>
                <path d="M160.781565,50.3595883 L146.740797,4.32066869 C146.269015,2.77143963 145.20324,1.47393591 143.778118,0.713821528 C142.352997,-0.0462928536 140.68537,-0.206697994 139.142391,0.267921593 L105.946338,10.4680537 L37.4999317,31.5042615 L4.30387882,41.7079864 C1.09291478,42.6977559 -0.713438705,46.1104765 0.266565918,49.3356301 L48.2550233,206.677788 C49.0398939,209.244425 51.4001623,210.997366 54.0747155,211 C54.6777281,211 55.2773476,210.909439 55.8534227,210.730535 L78.6093008,203.738827 L79.3251187,203.51607 L79.3251187,202.765162 L78.6093008,202.984327 L55.6423137,210.044298 C52.8081271,210.911565 49.8093986,209.312411 48.9386795,206.469402 L0.953890641,49.1236513 C0.535424741,47.7572267 0.675701682,46.2798155 1.34377485,45.0173508 C2.01184802,43.754886 3.15282023,42.8111075 4.51498066,42.3942229 L37.7110335,32.1904979 L106.157622,11.1578902 L139.353675,0.954165211 C139.865238,0.797444269 140.397078,0.717536757 140.931932,0.717036391 C143.288144,0.722347241 145.3661,2.26784007 146.057302,4.52906181 L160.033574,50.3595955 L160.255521,51.0781677 L161,51.0781677 L160.781565,50.3595883 Z" id="Path" fill="#BDC3D2"></path>
                <path d="M44.8308674,46 C43.4152403,45.9989858 42.1656824,45.069848 41.749742,43.7089577 L37.1411582,28.5695248 C36.8910484,27.7482165 36.9756435,26.8606174 37.3763281,26.1020472 C37.7770126,25.343477 38.4609539,24.7760943 39.2776477,24.524754 L102.22845,5.14200081 C103.928823,4.62015836 105.728259,5.5814321 106.250369,7.29054342 L110.858952,22.4301526 C111.37748,24.1402279 110.421803,25.9497326 108.722642,26.4750997 L45.7716642,45.857853 C45.4668209,45.9519453 45.149744,46 44.8308674,46 L44.8308674,46 Z" id="Path" fill="#BDC3D2"></path>
                <circle id="Oval" fill="#BDC3D2" cx="68" cy="9" r="7"></circle>
                <circle id="Oval" fill="#FFFFFF" cx="68.5" cy="9.5" r="4.5"></circle>
                <path d="M214.983099,208 L95.0169014,208 C93.3515082,207.998066 92.0019187,206.637486 92,204.958531 L92,60.0414692 C92.0018602,58.3624895 93.3514839,57.0018753 95.0169014,57 L214.983099,57 C216.648491,57.0019363 217.998079,58.3625149 218,60.0414692 L218,204.958531 C217.998019,206.63746 216.648466,207.998003 214.983099,208 Z" id="Path" fill="#F4F4F4"></path>
                <path d="M159.857477,50 L84.1168224,50 C80.7405758,50.0047774 78.0047782,52.7401418 78,56.1158537 L78,202.82439 L78.7196262,202.604939 L78.7196262,56.1158537 C78.7232503,53.1370388 81.1375357,50.7231358 84.1168224,50.7195122 L160.080604,50.7195122 L159.857477,50 Z M225.883178,50 L84.1168224,50 C80.7405758,50.0047774 78.0047782,52.7401418 78,56.1158537 L78,220.884146 C78.0047762,224.259859 80.740575,226.995225 84.1168224,227 L225.883178,227 C229.259425,226.995225 231.995224,224.259859 232,220.884146 L232,56.1158537 C231.995222,52.7401418 229.259424,50.0047774 225.883178,50 L225.883178,50 Z M231.280374,220.884146 C231.27675,223.862961 228.862464,226.276864 225.883178,226.280488 L84.1168224,226.280488 C81.1375357,226.276864 78.7232503,223.862961 78.7196262,220.884146 L78.7196262,56.1158537 C78.7232503,53.1370388 81.1375357,50.7231358 84.1168224,50.7195122 L225.883178,50.7195122 C228.862464,50.7231358 231.27675,53.1370388 231.280374,56.1158537 L231.280374,220.884146 Z" id="Shape" fill="#BDC3D2"></path>
                <path d="M188.747525,65 L122.252475,65 C120.457021,64.9980152 119.002021,63.5693769 119,61.8064516 L119,46.1935484 C119.002023,44.4306239 120.457022,43.0019868 122.252475,43 L188.747525,43 C190.542978,43.0019868 191.997977,44.4306239 192,46.1935484 L192,61.8064516 C191.997979,63.5693769 190.542979,64.9980152 188.747525,65 Z" id="Path" fill="#BDC3D2"></path>
                <circle id="Oval" fill="#BDC3D2" cx="156" cy="38" r="7"></circle>
                <circle id="Oval" fill="#FFFFFF" cx="154.5" cy="37.5" r="4.5"></circle>
            </g>
        </g>
    </g>
</svg>