<?xml version="1.0" encoding="UTF-8"?>
<svg width="16px" height="16px" viewBox="0 0 16 16" version="1.1" xmlns="http://www.w3.org/2000/svg" xmlns:xlink="http://www.w3.org/1999/xlink">
    <title>0B00EA38-EBE4-4C47-9B54-AF2E056D7DCD</title>
    <defs>
        <path d="M8,8 C10.21,8 12,6.21 12,4 C12,1.79 10.21,0 8,0 C5.79,0 4,1.79 4,4 C4,6.21 5.79,8 8,8 L8,8 Z M8,10 C5.33,10 0,11.34 0,14 L0,16 L16,16 L16,14 C16,11.34 10.67,10 8,10 L8,10 Z" id="path-1"></path>
    </defs>
    <g id="Supplier-Portal" stroke="none" stroke-width="1" fill="none" fill-rule="evenodd">
        <g id="ADD-USER" transform="translate(-192.000000, -1499.000000)">
            <g id="add_a_photo" transform="translate(192.000000, 1499.000000)">
                <mask id="mask-2" fill="white">
                    <use xlink:href="#path-1"></use>
                </mask>
                <g id="Mask"></g>
                <g id="🎨-Color" mask="url(#mask-2)" fill="#002D43">
                    <g transform="translate(-17.000000, -17.000000)" id="Rectangle">
                        <rect x="0" y="0" width="50" height="50"></rect>
                    </g>
                </g>
            </g>
        </g>
    </g>
</svg>