<?xml version="1.0" encoding="UTF-8"?>
<svg width="24px" height="24px" viewBox="0 0 24 24" version="1.1" xmlns="http://www.w3.org/2000/svg" xmlns:xlink="http://www.w3.org/1999/xlink">
    <title>65F4401A-30C7-45D9-B6A7-46C7B07066E1</title>
    <defs>
        <filter id="filter-1">
            <feColorMatrix in="SourceGraphic" type="matrix" values="0 0 0 0 0.000000 0 0 0 0 0.176471 0 0 0 0 0.262745 0 0 0 1.000000 0"></feColorMatrix>
        </filter>
        <path d="M11.8,10.9 C9.52999999,10.31 8.79999999,9.69999999 8.79999999,8.74999999 C8.79999999,7.65999998 9.80999999,6.89999998 11.5,6.89999998 C13.28,6.89999998 13.94,7.74999998 14,8.99999996 L16.21,8.99999996 C16.14,7.27999998 15.09,5.69999997 13,5.18999997 L13,2.99999996 L9.99999999,2.99999996 L9.99999999,5.15999997 C8.05999998,5.57999997 6.49999998,6.83999998 6.49999998,8.76999999 C6.49999998,11.08 8.40999999,12.23 11.2,12.9 C13.7,13.5 14.2,14.38 14.2,15.31 C14.2,16 13.71,17.1 11.5,17.1 C9.43999999,17.1 8.62999999,16.18 8.51999999,15 L6.31999998,15 C6.43999998,17.19 8.07999998,18.42 9.99999999,18.83 L9.99999999,21 L13,21 L13,18.85 C14.95,18.48 16.5,17.35 16.5,15.3 C16.5,12.46 14.07,11.49 11.8,10.9 L11.8,10.9 Z" id="path-2"></path>
    </defs>
    <g id="Supplier-Portal" stroke="none" stroke-width="1" fill="none" fill-rule="evenodd">
        <g id="add_a_photo" transform="translate(-188.000000, -1317.000000)" filter="url(#filter-1)">
            <g transform="translate(188.000000, 1317.000000)">
                <polygon id="Base" points="-4.99999828e-08 -4.99999828e-08 24.0000001 -4.99999828e-08 24.0000001 24.0000001 -4.99999828e-08 24.0000001"></polygon>
                <mask id="mask-3" fill="white">
                    <use xlink:href="#path-2"></use>
                </mask>
                <g id="Icon"></g>
                <rect id="↳-🎨-Color" fill="#080808" mask="url(#mask-3)" x="0" y="0" width="24" height="24"></rect>
            </g>
        </g>
    </g>
</svg>