<?xml version="1.0" encoding="UTF-8"?>
<svg width="24px" height="24px" viewBox="0 0 24 24" version="1.1" xmlns="http://www.w3.org/2000/svg" xmlns:xlink="http://www.w3.org/1999/xlink">
    <title>2514A6D8-4ACE-4E92-B26A-A86CB4FFB9A9</title>
    <defs>
        <path d="M12,22 C13.1,22 14,21.1 14,20 L9.99999999,20 C9.99999999,21.1 10.9,22 12,22 L12,22 Z M18,16 L18,11 C18,7.92999998 16.37,5.35999997 13.5,4.67999997 L13.5,3.99999996 C13.5,3.16999996 12.83,2.49999996 12,2.49999996 C11.17,2.49999996 10.5,3.16999996 10.5,3.99999996 L10.5,4.67999997 C7.63999998,5.35999997 5.99999997,7.91999998 5.99999997,11 L5.99999997,16 L3.99999997,18 L3.99999997,19 L20,19 L20,18 L18,16 L18,16 Z M16,17 L7.99999998,17 L7.99999998,11 C7.99999998,8.51999999 9.50999999,6.49999998 12,6.49999998 C14.49,6.49999998 16,8.51999999 16,11 L16,17 L16,17 Z" id="path-1"></path>
    </defs>
    <g id="Supplier-Portal" stroke="none" stroke-width="1" fill="none" fill-rule="evenodd">
        <g id="ADD-USER" transform="translate(-164.000000, -1104.000000)">
            <g id="Accordion/Grey/Check/Open" transform="translate(156.000000, 1079.000000)">
                <g id="ic_arrow_back" transform="translate(8.000000, 25.000000)">
                    <polygon id="Base" points="-4.9999997e-08 -4.9999926e-08 24.0000001 -4.9999926e-08 24.0000001 24.0000001 -4.9999997e-08 24.0000001"></polygon>
                    <mask id="mask-2" fill="white">
                        <use xlink:href="#path-1"></use>
                    </mask>
                    <g id="Icon" fill-rule="nonzero"></g>
                    <rect id="↳-🎨-Color" fill="#002D43" mask="url(#mask-2)" x="0" y="0" width="24" height="24"></rect>
                </g>
            </g>
        </g>
    </g>
</svg>