<?xml version="1.0" encoding="UTF-8"?>
<svg width="18px" height="18px" viewBox="0 0 18 18" version="1.1" xmlns="http://www.w3.org/2000/svg" xmlns:xlink="http://www.w3.org/1999/xlink">
    <title>05A49174-5CBC-44F1-BC3A-2AF835C29E9F</title>
    <defs>
        <path d="M5.24999998,8.25 L5.24999998,9.75 L12.75,9.75 L12.75,8.25 L5.24999998,8.25 L5.24999998,8.25 Z M8.99999997,1.49999997 C4.85999998,1.49999997 1.49999997,4.85999998 1.49999997,8.99999997 C1.49999997,13.14 4.85999998,16.5 8.99999997,16.5 C13.14,16.5 16.5,13.14 16.5,8.99999997 C16.5,4.85999998 13.14,1.49999997 8.99999997,1.49999997 L8.99999997,1.49999997 Z M8.99999997,15 C5.69249999,15 2.99999997,12.3075 2.99999997,8.99999997 C2.99999997,5.69249999 5.69249999,2.99999997 8.99999997,2.99999997 C12.3075,2.99999997 15,5.69249999 15,8.99999997 C15,12.3075 12.3075,15 8.99999997,15 L8.99999997,15 Z" id="path-1"></path>
    </defs>
    <g id="Client-Portal" stroke="none" stroke-width="1" fill="none" fill-rule="evenodd">
        <g id="Notification_1" transform="translate(-1101.000000, -173.000000)">
            <g id="add" transform="translate(1101.000000, 173.000000)">
                <polygon id="Base" points="-3.74999871e-08 -3.74999445e-08 18 -3.74999445e-08 18 18 -3.74999871e-08 18"></polygon>
                <mask id="mask-2" fill="white">
                    <use xlink:href="#path-1"></use>
                </mask>
                <g id="Icon" fill-rule="nonzero"></g>
                <rect id="↳-🎨-Color" fill="#53565A" mask="url(#mask-2)" x="0" y="0" width="18" height="18"></rect>
            </g>
        </g>
    </g>
</svg>