<svg width="24" height="24" viewBox="0 0 24 24" fill="none" xmlns="http://www.w3.org/2000/svg">
<mask id="mask0" mask-type="alpha" maskUnits="userSpaceOnUse" x="1" y="1" width="22" height="22">
<path fill-rule="evenodd" clip-rule="evenodd" d="M1.5 6C1.5 3.51472 3.51472 1.5 6 1.5H18C20.4853 1.5 22.5 3.51472 22.5 6V18C22.5 20.4853 20.4853 22.5 18 22.5H6C3.51472 22.5 1.5 20.4853 1.5 18V6ZM6 2.5C4.067 2.5 2.5 4.067 2.5 6V18C2.5 19.933 4.067 21.5 6 21.5H18C19.933 21.5 21.5 19.933 21.5 18V6C21.5 4.067 19.933 2.5 18 2.5H6Z" fill="white"/>
</mask>
<g mask="url(#mask0)">
<rect width="24" height="24" fill="#CCCCCC"/>
</g>
<mask id="mask1" mask-type="alpha" maskUnits="userSpaceOnUse" x="5" y="6" width="14" height="11">
<path d="M10 17L5 11.7217L6.41 10.2332L10 14.0125L17.59 6L19 7.49904L10 17Z" fill="white"/>
</mask>
<g mask="url(#mask1)">
<rect width="24" height="24" fill="#62BBF3"/>
</g>
</svg>
