<svg width="24" height="24" viewBox="0 0 24 24" fill="none" xmlns="http://www.w3.org/2000/svg">
<mask id="mask0" mask-type="alpha" maskUnits="userSpaceOnUse" x="4" y="3" width="16" height="18">
<path fill-rule="evenodd" clip-rule="evenodd" d="M13.288 3C15.2309 3 16.7497 3.40725 17.5889 4.35788C18.3528 5.22076 18.5654 6.17138 18.3539 7.57314C18.3539 7.57314 18.319 7.78914 18.2965 7.90164C17.5529 11.6895 15.0093 12.999 11.7592 12.999H10.1054C9.70827 12.999 9.3719 13.2859 9.31002 13.674L9.33702 13.5008L8.4629 19.002H4.98214C4.68514 19.002 4.45789 18.7388 4.50401 18.4474L6.85186 3.675C6.91486 3.28688 7.25236 3 7.64948 3H13.288ZM11.7586 13.9935C15.8492 13.9935 18.4265 12.0203 19.2343 8.2909C19.8789 9.0964 20.0049 10.2113 19.7439 11.541C19.0937 14.8542 16.8684 15.9994 14.0255 15.9994H13.5857C13.2392 15.9994 12.9433 16.2503 12.8893 16.5912L12.8533 16.7824L12.2998 20.2598L12.2716 20.4083C12.2176 20.7492 11.9218 21.0001 11.5741 21.0001H9.16889L10.2759 13.9935H11.7586Z" fill="white"/>
</mask>
<g mask="url(#mask0)">
<rect width="24" height="24" fill="#0B1941"/>
</g>
</svg>
