<?xml version="1.0" encoding="UTF-8"?>
<svg width="20px" height="20px" viewBox="0 0 20 20" version="1.1" xmlns="http://www.w3.org/2000/svg" xmlns:xlink="http://www.w3.org/1999/xlink">
    <title>26902091-1CF9-4A8A-96EC-172364266635</title>
    <defs>
        <path d="M5.51666665,8.99166666 C6.71666665,11.35 8.64999999,13.275 11.0083333,14.4833334 L12.8416667,12.65 C13.0666667,12.425 13.4,12.35 13.6916667,12.45 C14.625,12.7583333 15.6333334,12.925 16.6666667,12.925 C17.125,12.925 17.5,13.3 17.5,13.7583333 L17.5,16.6666667 C17.5,17.125 17.125,17.5 16.6666667,17.5 C8.84166666,17.5 2.49999997,11.1583333 2.49999997,3.33333331 C2.49999997,2.87499997 2.87499997,2.49999997 3.33333331,2.49999997 L6.24999998,2.49999997 C6.70833332,2.49999997 7.08333332,2.87499997 7.08333332,3.33333331 C7.08333332,4.37499998 7.24999999,5.37499998 7.55833332,6.30833332 C7.64999999,6.59999999 7.58333332,6.92499999 7.34999999,7.15833332 L5.51666665,8.99166666 L5.51666665,8.99166666 Z" id="path-1"></path>
    </defs>
    <g id="Supplier-Portal-Phase-2" stroke="none" stroke-width="1" fill="none" fill-rule="evenodd">
        <g id="MyPayersExpanded_Contact-info" transform="translate(-832.000000, -800.000000)">
            <g id="Group-17" transform="translate(359.500000, 767.000000)">
                <g id="Group-13" transform="translate(471.500000, 33.000000)">
                    <g id="chevron_left" transform="translate(1.000000, 0.000000)">
                        <polygon id="Base" points="-4.16666524e-08 -4.1666605e-08 20 -4.1666605e-08 20 20 -4.16666524e-08 20"></polygon>
                        <mask id="mask-2" fill="white">
                            <use xlink:href="#path-1"></use>
                        </mask>
                        <g id="Icon"></g>
                        <rect id="↳-🎨-Color" fill="#080808" mask="url(#mask-2)" x="0" y="0" width="20" height="20"></rect>
                    </g>
                </g>
            </g>
        </g>
    </g>
</svg>