<svg width="23" height="20" viewBox="0 0 23 20" fill="none" xmlns="http://www.w3.org/2000/svg">
<path fill-rule="evenodd" clip-rule="evenodd" d="M18.4316 0H2.43164C1.32164 0 0.441641 0.89 0.441641 2L0.431641 14C0.431641 15.11 1.32164 16 2.43164 16H10.6056C10.4918 15.5185 10.4316 15.0163 10.4316 14.5C10.4316 14.3318 10.438 14.165 10.4506 14H2.43164V8H18.4316V8.17393C19.152 8.3441 19.8261 8.63413 20.4316 9.02182V2C20.4316 0.89 19.5416 0 18.4316 0ZM18.4316 4H2.43164V2H18.4316V4Z" fill="black"/>
<path fill-rule="evenodd" clip-rule="evenodd" d="M11.4316 14.5C11.4316 11.464 13.8956 9 16.9316 9C19.9676 9 22.4316 11.464 22.4316 14.5C22.4316 17.536 19.9676 20 16.9316 20C13.8956 20 11.4316 17.536 11.4316 14.5ZM17.4816 15.05H19.6816V13.95H17.4816V11.75H16.3816V13.95H14.1816V15.05H16.3816V17.25H17.4816V15.05Z" fill="black"/>
</svg>