<?xml version="1.0" encoding="UTF-8"?>
<svg width="24px" height="24px" viewBox="0 0 24 24" version="1.1" xmlns="http://www.w3.org/2000/svg" xmlns:xlink="http://www.w3.org/1999/xlink">
    <title>A7551D8B-1388-4044-BCCD-F80DB8C01435</title>
    <defs>
        <path d="M19,7.99999998 L4.99999996,7.99999998 C3.33999996,7.99999998 1.99999996,9.33999999 1.99999996,11 L1.99999996,17 L5.99999996,17 L5.99999996,21 L18,21 L18,17 L22,17 L22,11 C22,9.33999999 20.66,7.99999998 19,7.99999998 L19,7.99999998 Z M16,19 L7.99999998,19 L7.99999998,14 L16,14 L16,19 L16,19 Z M19,12 C18.45,12 18,11.55 18,11 C18,10.45 18.45,9.99999999 19,9.99999999 C19.55,9.99999999 20,10.45 20,11 C20,11.55 19.55,12 19,12 L19,12 Z M18,2.99999996 L5.99999997,2.99999996 L5.99999997,6.99999996 L18,6.99999996 L18,2.99999996 L18,2.99999996 Z" id="path-1"></path>
    </defs>
    <g id="Page-1" stroke="none" stroke-width="1" fill="none" fill-rule="evenodd">
        <g id="MyPayersExpanded_alt-2" transform="translate(-943.000000, -370.000000)">
            <g id="print" transform="translate(943.000000, 370.000000)">
                <polygon id="Base" fill-rule="nonzero" points="-4.99999828e-08 -4.9999926e-08 24.0000001 -4.9999926e-08 24.0000001 24.0000001 -4.99999828e-08 24.0000001"></polygon>
                <mask id="mask-2" fill="white">
                    <use xlink:href="#path-1"></use>
                </mask>
                <g id="Icon" fill-rule="nonzero"></g>
                <rect id="↳-🎨-Color" fill="#080808" mask="url(#mask-2)" x="0" y="0" width="24" height="24"></rect>
            </g>
        </g>
    </g>
</svg>