<svg width="24" height="24" viewBox="0 0 24 24" fill="none" xmlns="http://www.w3.org/2000/svg">
<mask id="mask0" mask-type="alpha" maskUnits="userSpaceOnUse" x="1" y="1" width="22" height="22">
<path fill-rule="evenodd" clip-rule="evenodd" d="M14.2921 3.16241L17.3477 3.16241L12.0004 7.11117L6.65321 3.16241L9.70877 3.16241V1L14.2921 1L14.2921 3.16241ZM3.2 8.69974H20.8C22.021 8.69974 23 9.49519 23 10.4873V21.2124C23 22.2044 22.021 22.9999 20.8 22.9999H3.2C1.979 22.9999 1 22.2044 1 21.2124L1.011 10.4873C1.011 9.49519 1.979 8.69974 3.2 8.69974ZM3.75 20.7999H20.25V16.3999H3.75V20.7999ZM20.25 13.0999H3.75V10.8999H20.25V13.0999Z" fill="white"/>
</mask>
<g mask="url(#mask0)">
<rect width="24" height="24" fill="#0B1941"/>
</g>
</svg>
