<svg width="18" height="19" viewBox="0 0 18 19" fill="none" xmlns="http://www.w3.org/2000/svg">
<mask id="mask0_9908_193560" style="mask-type:alpha" maskUnits="userSpaceOnUse" x="2" y="3" width="14" height="14">
<path fill-rule="evenodd" clip-rule="evenodd" d="M11.2886 11.7288H11.8984L15.75 15.5882L14.5999 16.7383L10.7406 12.8867V12.2769L10.5322 12.0608C9.65223 12.8172 8.50986 13.2726 7.26715 13.2726C4.49614 13.2726 2.25 11.0264 2.25 8.25543C2.25 5.48442 4.49614 3.23828 7.26715 3.23828C10.0382 3.23828 12.2843 5.48442 12.2843 8.25543C12.2843 9.49814 11.8289 10.6405 11.0725 11.5204L11.2886 11.7288ZM3.79374 8.25543C3.79374 10.1774 5.3452 11.7288 7.26715 11.7288C9.18911 11.7288 10.7406 10.1774 10.7406 8.25543C10.7406 6.33348 9.18911 4.78202 7.26715 4.78202C5.3452 4.78202 3.79374 6.33348 3.79374 8.25543Z" fill="white"/>
</mask>
<g mask="url(#mask0_9908_193560)">
<rect y="0.988281" width="18" height="18" fill="#008CE6"/>
</g>
</svg>
