<?xml version="1.0" encoding="UTF-8"?>
<svg width="20px" height="20px" viewBox="0 0 20 20" version="1.1" xmlns="http://www.w3.org/2000/svg" xmlns:xlink="http://www.w3.org/1999/xlink">
    <title>9213838E-2645-45A7-B31E-361FBD79A672</title>
    <defs>
        <path d="M17.1231144,10.936 C17.1591144,10.636 17.1831144,10.324 17.1831144,10 C17.1831144,9.676 17.1591144,9.364 17.1111144,9.064 L19.1391144,7.48 C19.3191144,7.336 19.3671144,7.072 19.2591144,6.868 L17.3391144,3.544 C17.2191144,3.328 16.9671144,3.256 16.7511144,3.328 L14.3631144,4.288 C13.8591144,3.904 13.3311144,3.592 12.7431144,3.352 L12.3831144,0.808 C12.3471144,0.568 12.1431144,0.4 11.9031144,0.4 L8.06311439,0.4 C7.82311439,0.4 7.63111439,0.568 7.59511439,0.808 L7.23511439,3.352 C6.64711439,3.592 6.10711439,3.916 5.61511439,4.288 L3.22711439,3.328 C3.01111439,3.244 2.75911439,3.328 2.63911439,3.544 L0.719114389,6.868 C0.599114389,7.084 0.647114389,7.336 0.839114389,7.48 L2.86711439,9.064 C2.81911439,9.364 2.78311439,9.688 2.78311439,10 C2.78311439,10.312 2.80711439,10.636 2.85511439,10.936 L0.827114389,12.52 C0.647114389,12.664 0.599114389,12.928 0.707114389,13.132 L2.62711439,16.456 C2.74711439,16.672 2.99911439,16.744 3.21511439,16.672 L5.60311439,15.712 C6.10711439,16.096 6.63511439,16.408 7.22311439,16.648 L7.58311439,19.192 C7.63111439,19.432 7.82311439,19.6 8.06311439,19.6 L11.9031144,19.6 C12.1431144,19.6 12.3471144,19.432 12.3711144,19.192 L12.7311144,16.648 C13.3191144,16.408 13.8591144,16.084 14.3511144,15.712 L16.7391144,16.672 C16.9551144,16.756 17.2071144,16.672 17.3271144,16.456 L19.2471144,13.132 C19.3671144,12.916 19.3191144,12.664 19.1271144,12.52 L17.1231144,10.936 L17.1231144,10.936 Z M9.98311439,13.6 C8.00311439,13.6 6.38311439,11.98 6.38311439,10 C6.38311439,8.02 8.00311439,6.4 9.98311439,6.4 C11.9631144,6.4 13.5831144,8.02 13.5831144,10 C13.5831144,11.98 11.9631144,13.6 9.98311439,13.6 Z" id="path-1"></path>
    </defs>
    <g id="Supplier-Portal" stroke="none" stroke-width="1" fill="none" fill-rule="evenodd">
        <g id="T&amp;Cs-PMTX" transform="translate(-25.000000, -441.000000)">
            <g id="SIDE-NAV/Supplierportal/Dashboard" transform="translate(-1.000000, 56.000000)">
                <g id="Settings" transform="translate(0.000000, 370.000000)">
                    <g id="icon/action/settings" transform="translate(26.000000, 15.000000)">
                        <mask id="mask-2" fill="white">
                            <use xlink:href="#path-1"></use>
                        </mask>
                        <use id="-↳Color" fill="#FFFFFF" xlink:href="#path-1"></use>
                    </g>
                </g>
            </g>
        </g>
    </g>
</svg>