<svg width="34" height="34" viewBox="0 0 34 34" fill="none" xmlns="http://www.w3.org/2000/svg">
<path d="M33 16.7406C33 25.4195 25.8511 32.4813 17 32.4813C8.14889 32.4813 1 25.4195 1 16.7406C1 8.06176 8.14889 1 17 1C25.8511 1 33 8.06176 33 16.7406Z" stroke="#E02020" stroke-width="2"/>
<mask id="mask0" mask-type="alpha" maskUnits="userSpaceOnUse" x="7" y="6" width="20" height="21">
<path fill-rule="evenodd" clip-rule="evenodd" d="M17 6.89355C11.48 6.89355 7 11.3052 7 16.741C7 22.1768 11.48 26.5884 17 26.5884C22.52 26.5884 27 22.1768 27 16.741C27 11.3052 22.52 6.89355 17 6.89355ZM16 21.6647V15.7562H18V21.6647H16ZM16 11.8173V13.7868H18V11.8173H16Z" fill="white"/>
</mask>
<g mask="url(#mask0)">
<rect x="5" y="4.92383" width="24" height="23.6338" fill="#E02020"/>
</g>
</svg>
