<?xml version="1.0" encoding="UTF-8"?>
<svg width="26px" height="16px" viewBox="0 0 26 16" version="1.1" xmlns="http://www.w3.org/2000/svg" xmlns:xlink="http://www.w3.org/1999/xlink">
    <title>eft_selected</title>
    <defs>
        <path d="M8.41749998,7.32333331 L6.74916664,5.93666664 L0.888333283,13 L6.74916664,20.0633334 L8.41749998,18.6766667 L3.70499996,13 L8.41749998,7.32333331 L8.41749998,7.32333331 Z M7.58333331,14.0833333 L9.74999999,14.0833333 L9.74999999,11.9166667 L7.58333331,11.9166667 L7.58333331,14.0833333 L7.58333331,14.0833333 Z M18.4166667,11.9166667 L16.25,11.9166667 L16.25,14.0833333 L18.4166667,14.0833333 L18.4166667,11.9166667 L18.4166667,11.9166667 Z M11.9166667,14.0833333 L14.0833333,14.0833333 L14.0833333,11.9166667 L11.9166667,11.9166667 L11.9166667,14.0833333 L11.9166667,14.0833333 Z M19.2508334,5.93666664 L17.5825,7.32333331 L22.295,13 L17.5825,18.6766667 L19.2508334,20.0633334 L25.1116667,13 L19.2508334,5.93666664 L19.2508334,5.93666664 Z" id="path-1"></path>
    </defs>
    <g id="Supplier-Portal-Phase-1" stroke="none" stroke-width="1" fill="none" fill-rule="evenodd">
        <g id="eft_unselected" transform="translate(0.000000, -5.000000)">
            <polygon id="Base" points="-5.41666788e-08 -5.41665865e-08 26.0000001 -5.41665865e-08 26.0000001 26.0000001 -5.41666788e-08 26.0000001"></polygon>
            <mask id="mask-2" fill="white">
                <use xlink:href="#path-1"></use>
            </mask>
            <g id="Icon" fill-rule="nonzero"></g>
            <rect id="↳-🎨-Color" fill="#002D72" mask="url(#mask-2)" x="0" y="0" width="26" height="26"></rect>
        </g>
    </g>
</svg>