<svg width="24" height="24" viewBox="0 0 24 24" fill="none" xmlns="http://www.w3.org/2000/svg">
<mask id="mask0" mask-type="alpha" maskUnits="userSpaceOnUse" x="6" y="1" width="12" height="22">
<path d="M13.08 7.72989H6.72C6.47998 7.72988 6.35998 7.60958 6.36 7.36899L6.35998 4.84265C6.35998 4.60204 6.47998 4.48175 6.72 4.48177H10.44V2.07575C10.44 1.95544 10.56 1.71483 10.8 1.71484H13.44C13.68 1.71483 13.8 1.95543 13.8 2.07575V4.48177H17.52C17.76 4.48175 18 4.72235 18 4.96297V7.12839L10.92 16.151H17.52C17.88 16.1509 18 16.3915 18 16.6322V18.9179C18 19.1585 17.76 19.3991 17.4 19.3991H13.8V21.9254C13.8 22.166 13.68 22.2863 13.44 22.2863H10.8C10.56 22.2863 10.44 22.166 10.44 21.9254V19.3991H6.48C6.24 19.3991 6 19.1585 6 18.9179V16.7525L13.08 7.72989Z" fill="white"/>
</mask>
<g mask="url(#mask0)">
<rect width="24" height="24" fill="#0B1941"/>
</g>
</svg>
