<svg width="84" height="50" viewBox="0 0 84 50" fill="none" xmlns="http://www.w3.org/2000/svg">
<rect x="0.857117" y="1" width="82.2857" height="48" rx="4" fill="white" stroke="#CCCCCC" stroke-width="0.5"/>
<path d="M32.3447 42V41.082L35.4227 37.365C35.4707 37.305 35.5277 37.236 35.5937 37.158C35.6597 37.08 35.7257 37.005 35.7917 36.933C35.8577 36.855 35.9207 36.783 35.9807 36.717C36.0407 36.651 36.0917 36.597 36.1337 36.555C36.0677 36.555 35.9807 36.558 35.8727 36.564C35.7707 36.564 35.6597 36.567 35.5397 36.573C35.4197 36.573 35.2997 36.573 35.1797 36.573C35.0597 36.573 34.9547 36.573 34.8647 36.573H32.5247V35.7H37.1327V36.618L34.0907 40.335C34.0427 40.395 33.9857 40.464 33.9197 40.542C33.8537 40.62 33.7877 40.698 33.7217 40.776C33.6557 40.848 33.5927 40.917 33.5327 40.983C33.4727 41.049 33.4217 41.103 33.3797 41.145C33.4397 41.145 33.5237 41.145 33.6317 41.145C33.7397 41.139 33.8537 41.136 33.9737 41.136C34.0937 41.13 34.2137 41.127 34.3337 41.127C34.4537 41.127 34.5587 41.127 34.6487 41.127H37.1327V42H32.3447ZM41.9828 39.543C41.9828 39.627 41.9798 39.708 41.9738 39.786C41.9678 39.858 41.9618 39.918 41.9558 39.966H38.8328C38.8568 40.194 38.9048 40.389 38.9768 40.551C39.0488 40.713 39.1388 40.848 39.2468 40.956C39.3548 41.058 39.4748 41.136 39.6068 41.19C39.7388 41.238 39.8768 41.262 40.0208 41.262C40.2188 41.262 40.3988 41.229 40.5608 41.163C40.7288 41.097 40.8908 41.004 41.0468 40.884L41.5958 41.478C41.3858 41.676 41.1518 41.829 40.8938 41.937C40.6358 42.045 40.3268 42.099 39.9668 42.099C39.6908 42.099 39.4268 42.045 39.1748 41.937C38.9288 41.829 38.7128 41.67 38.5268 41.46C38.3408 41.25 38.1938 40.992 38.0858 40.686C37.9778 40.38 37.9238 40.032 37.9238 39.642C37.9238 39.24 37.9748 38.886 38.0768 38.58C38.1788 38.274 38.3198 38.019 38.4998 37.815C38.6798 37.605 38.8958 37.446 39.1478 37.338C39.4058 37.23 39.6878 37.176 39.9938 37.176C40.3298 37.176 40.6208 37.239 40.8668 37.365C41.1188 37.491 41.3258 37.662 41.4878 37.878C41.6558 38.094 41.7788 38.346 41.8568 38.634C41.9408 38.922 41.9828 39.225 41.9828 39.543ZM41.0468 39.201C41.0348 39.039 41.0048 38.886 40.9568 38.742C40.9148 38.598 40.8488 38.472 40.7588 38.364C40.6688 38.256 40.5548 38.172 40.4168 38.112C40.2848 38.046 40.1228 38.013 39.9308 38.013C39.6188 38.013 39.3698 38.118 39.1838 38.328C39.0038 38.532 38.8928 38.823 38.8508 39.201H41.0468ZM43.1772 42V35.925L44.1042 35.439V42H43.1772ZM45.559 42V35.925L46.486 35.439V42H45.559ZM51.7299 39.543C51.7299 39.627 51.7269 39.708 51.7209 39.786C51.7149 39.858 51.7089 39.918 51.7029 39.966H48.5799C48.6039 40.194 48.6519 40.389 48.7239 40.551C48.7959 40.713 48.8859 40.848 48.9939 40.956C49.1019 41.058 49.2219 41.136 49.3539 41.19C49.4859 41.238 49.6239 41.262 49.7679 41.262C49.9659 41.262 50.1459 41.229 50.3079 41.163C50.4759 41.097 50.6379 41.004 50.7939 40.884L51.3429 41.478C51.1329 41.676 50.8989 41.829 50.6409 41.937C50.3829 42.045 50.0739 42.099 49.7139 42.099C49.4379 42.099 49.1739 42.045 48.9219 41.937C48.6759 41.829 48.4599 41.67 48.2739 41.46C48.0879 41.25 47.9409 40.992 47.8329 40.686C47.7249 40.38 47.6709 40.032 47.6709 39.642C47.6709 39.24 47.7219 38.886 47.8239 38.58C47.9259 38.274 48.0669 38.019 48.2469 37.815C48.4269 37.605 48.6429 37.446 48.8949 37.338C49.1529 37.23 49.4349 37.176 49.7409 37.176C50.0769 37.176 50.3679 37.239 50.6139 37.365C50.8659 37.491 51.0729 37.662 51.2349 37.878C51.4029 38.094 51.5259 38.346 51.6039 38.634C51.6879 38.922 51.7299 39.225 51.7299 39.543ZM50.7939 39.201C50.7819 39.039 50.7519 38.886 50.7039 38.742C50.6619 38.598 50.5959 38.472 50.5059 38.364C50.4159 38.256 50.3019 38.172 50.1639 38.112C50.0319 38.046 49.8699 38.013 49.6779 38.013C49.3659 38.013 49.1169 38.118 48.9309 38.328C48.7509 38.532 48.6399 38.823 48.5979 39.201H50.7939Z" fill="#162D6E"/>
<path d="M38.3784 10.8981L34.2672 10.8594V13.6472H41.0806L34 22.9238V25.2829H38.3784V28H41.0055V25.2829H45.4715C45.5091 25.1742 45.5222 24.8811 45.2845 24.6126C44.8905 24.1651 44.5771 23.6974 44.2894 23.1092C44.158 22.8471 44.0582 22.5331 44.0207 22.5076C43.1413 22.4663 38.0817 22.477 38.0844 22.4443L45.1713 13.1108V10.8981H41.0055V8.14899H38.3784V10.8981Z" fill="#6D1ED4"/>
<path d="M44.7821 8.7936C44.7821 8.85487 44.7626 8.90389 44.7237 8.94065C44.6849 8.97741 44.6313 9.00228 44.563 9.01525L44.7664 9.32448H44.5943L44.3965 9.02498H44.1718V9.32448H44.0252V8.56763H44.462C44.5056 8.56763 44.5464 8.57231 44.5843 8.58168C44.6232 8.59033 44.6574 8.60403 44.6868 8.62277C44.7162 8.64079 44.7394 8.66422 44.7565 8.69305C44.7735 8.72116 44.7821 8.75468 44.7821 8.7936ZM44.6313 8.79684C44.6313 8.7572 44.6156 8.72693 44.5843 8.70602C44.554 8.68512 44.5132 8.67467 44.462 8.67467H44.1718V8.91794H44.462C44.5122 8.91794 44.553 8.90821 44.5843 8.88875C44.6156 8.86857 44.6313 8.83793 44.6313 8.79684Z" fill="#6D1ED4"/>
<path d="M45.2997 8.94606C45.2997 9.44095 44.8985 9.84213 44.4036 9.84213C43.9087 9.84213 43.5076 9.44095 43.5076 8.94606C43.5076 8.45118 43.9087 8.05 44.4036 8.05C44.8985 8.05 45.2997 8.45118 45.2997 8.94606Z" stroke="#6D1ED4" stroke-width="0.1"/>
</svg>
