<svg width="12" height="15" viewBox="0 0 12 15" fill="none" xmlns="http://www.w3.org/2000/svg">
<path d="M3.28385 2.17355L0.200455 2.14454V4.23537H5.31045L0 11.1928V12.9621H3.28385V15H5.25415V12.9621H8.60368C8.63182 12.8806 8.64168 12.6608 8.46341 12.4594C8.16786 12.1238 7.93283 11.773 7.71704 11.3319C7.61852 11.1353 7.5437 10.8998 7.51555 10.8807C6.85597 10.8497 3.0613 10.8577 3.06336 10.8332L8.3785 3.83307V2.17355H5.25415V0.111725H3.28385V2.17355Z" fill="#6D1ED4"/>
<path d="M10.7821 0.793601C10.7821 0.85487 10.7626 0.903885 10.7237 0.940647C10.6848 0.977408 10.6313 1.00228 10.563 1.01525L10.7664 1.32448H10.5943L10.3965 1.02498H10.1717V1.32448H10.0252V0.567627H10.462C10.5056 0.567627 10.5464 0.572312 10.5843 0.581683C10.6232 0.590333 10.6573 0.604028 10.6867 0.622769C10.7161 0.640789 10.7394 0.664216 10.7565 0.693048C10.7735 0.72116 10.7821 0.754677 10.7821 0.793601ZM10.6313 0.796845C10.6313 0.7572 10.6156 0.726926 10.5843 0.706023C10.554 0.685119 10.5132 0.674667 10.462 0.674667H10.1717V0.917941H10.462C10.5122 0.917941 10.553 0.90821 10.5843 0.888748C10.6156 0.868566 10.6313 0.837931 10.6313 0.796845Z" fill="#6D1ED4"/>
<path d="M11.2997 0.946064C11.2997 1.44095 10.8985 1.84213 10.4036 1.84213C9.90876 1.84213 9.50758 1.44095 9.50758 0.946064C9.50758 0.451182 9.90876 0.05 10.4036 0.05C10.8985 0.05 11.2997 0.451182 11.2997 0.946064Z" stroke="#6D1ED4" stroke-width="0.1"/>
</svg>
