<svg width="41" height="32" viewBox="0 0 41 32" fill="none" xmlns="http://www.w3.org/2000/svg">
<mask id="path-1-inside-1_240_45409" fill="white">
<path d="M20.7384 18.9317C19.5025 18.4864 19.1051 18.0298 19.1051 17.3128C19.1051 16.4902 19.6522 15.9128 20.575 15.9128C21.5441 15.9128 21.9035 16.5543 21.9361 17.4977H23.1393C23.1039 16.1958 22.5295 15.0109 21.3917 14.6222L21.4489 12.9694H19.8156L19.7584 14.5996C18.7022 14.9203 17.8529 15.8637 17.8529 17.3241C17.8529 19.0675 18.8955 19.9355 20.4117 20.4411C21.7755 20.894 22.045 21.5544 22.045 22.2638C22.045 22.7808 21.781 23.611 20.575 23.611C19.4535 23.611 19.0098 22.9129 18.9527 22.0261H17.7522C17.8203 23.6789 18.7104 24.6035 19.7584 24.9167V26.5544H21.3917V24.9318C22.4506 24.6487 23.2972 23.7997 23.2972 22.2487C23.2972 20.1128 21.9742 19.3808 20.7384 18.9317Z"/>
</mask>
<path d="M20.7384 18.9317C19.5025 18.4864 19.1051 18.0298 19.1051 17.3128C19.1051 16.4902 19.6522 15.9128 20.575 15.9128C21.5441 15.9128 21.9035 16.5543 21.9361 17.4977H23.1393C23.1039 16.1958 22.5295 15.0109 21.3917 14.6222L21.4489 12.9694H19.8156L19.7584 14.5996C18.7022 14.9203 17.8529 15.8637 17.8529 17.3241C17.8529 19.0675 18.8955 19.9355 20.4117 20.4411C21.7755 20.894 22.045 21.5544 22.045 22.2638C22.045 22.7808 21.781 23.611 20.575 23.611C19.4535 23.611 19.0098 22.9129 18.9527 22.0261H17.7522C17.8203 23.6789 18.7104 24.6035 19.7584 24.9167V26.5544H21.3917V24.9318C22.4506 24.6487 23.2972 23.7997 23.2972 22.2487C23.2972 20.1128 21.9742 19.3808 20.7384 18.9317Z" fill="#2B2D30"/>
<path d="M20.7384 18.9317L21.4214 17.0519L21.4163 17.0501L20.7384 18.9317ZM21.9361 17.4977L19.9373 17.5669L20.0042 19.4977H21.9361V17.4977ZM23.1393 17.4977V19.4977H25.1944L25.1386 17.4434L23.1393 17.4977ZM21.3917 14.6222L19.3929 14.5531L19.3416 16.0354L20.7452 16.5148L21.3917 14.6222ZM21.4489 12.9694L23.4477 13.0385L23.5192 10.9694H21.4489V12.9694ZM19.8156 12.9694V10.9694H17.8845L17.8168 12.8993L19.8156 12.9694ZM19.7584 14.5996L20.3396 16.5133L21.7071 16.098L21.7572 14.6697L19.7584 14.5996ZM20.4117 20.4411L19.779 22.3384L19.7815 22.3392L20.4117 20.4411ZM18.9527 22.0261L20.9485 21.8974L20.8279 20.0261H18.9527V22.0261ZM17.7522 22.0261V20.0261H15.6682L15.7539 22.1083L17.7522 22.0261ZM19.7584 24.9167H21.7584V23.427L20.3311 23.0004L19.7584 24.9167ZM19.7584 26.5544H17.7584V28.5544H19.7584V26.5544ZM21.3917 26.5544V28.5544H23.3917V26.5544H21.3917ZM21.3917 24.9318L20.8753 22.9996L19.3917 23.3961V24.9318H21.3917ZM21.4163 17.0501C21.172 16.9621 21.0196 16.8912 20.9291 16.8412C20.8391 16.7915 20.8441 16.7808 20.8878 16.8254C20.9412 16.88 21.0109 16.9748 21.0588 17.1023C21.1039 17.2224 21.1051 17.3062 21.1051 17.3128H17.1051C17.1051 18.1111 17.3549 18.9342 18.0287 19.6228C18.6018 20.2085 19.3537 20.5586 20.0604 20.8133L21.4163 17.0501ZM21.1051 17.3128C21.1051 17.3538 21.0824 17.5479 20.8941 17.7325C20.7065 17.9164 20.5371 17.9128 20.575 17.9128V13.9128C19.6902 13.9128 18.7858 14.1978 18.0939 14.8761C17.4014 15.5551 17.1051 16.4492 17.1051 17.3128H21.1051ZM20.575 17.9128C20.5983 17.9128 20.5188 17.9165 20.3876 17.8589C20.2455 17.7965 20.1168 17.6942 20.0242 17.5744C19.9821 17.5199 19.9555 17.4722 19.9396 17.4389C19.9241 17.406 19.9187 17.3866 19.9186 17.3861C19.9184 17.3857 19.9223 17.3997 19.9267 17.4315C19.931 17.4631 19.9353 17.5077 19.9373 17.5669L23.9349 17.4285C23.9123 16.7757 23.7752 15.8868 23.1893 15.1286C22.5216 14.2645 21.5471 13.9128 20.575 13.9128V17.9128ZM21.9361 19.4977H23.1393V15.4977H21.9361V19.4977ZM25.1386 17.4434C25.0914 15.7094 24.2899 13.4987 22.0382 12.7296L20.7452 16.5148C20.7894 16.53 20.8583 16.5626 20.9428 16.7103C21.0387 16.8781 21.1295 17.1632 21.14 17.5521L25.1386 17.4434ZM23.3905 14.6913L23.4477 13.0385L19.45 12.9002L19.3929 14.5531L23.3905 14.6913ZM21.4489 10.9694H19.8156V14.9694H21.4489V10.9694ZM17.8168 12.8993L17.7596 14.5295L21.7572 14.6697L21.8143 13.0394L17.8168 12.8993ZM19.1772 12.6859C17.2981 13.2566 15.8529 14.9626 15.8529 17.3241H19.8529C19.8529 16.9961 19.9426 16.8237 20.0088 16.7356C20.0817 16.6385 20.191 16.5584 20.3396 16.5133L19.1772 12.6859ZM15.8529 17.3241C15.8529 18.6353 16.2617 19.7825 17.0799 20.6878C17.8519 21.542 18.8524 22.0294 19.779 22.3384L21.0445 18.5439C20.4548 18.3472 20.1759 18.1478 20.0476 18.0058C19.9654 17.9149 19.8529 17.7564 19.8529 17.3241H15.8529ZM19.7815 22.3392C20.0073 22.4142 20.1259 22.4777 20.1766 22.5096C20.2225 22.5385 20.1976 22.5318 20.1523 22.4727C20.104 22.4097 20.0706 22.3369 20.0537 22.2755C20.0394 22.2237 20.045 22.2096 20.045 22.2638H24.045C24.045 21.6453 23.9229 20.817 23.3273 20.0397C22.7584 19.2974 21.9398 18.8412 21.042 18.543L19.7815 22.3392ZM20.045 22.2638C20.045 22.23 20.0485 22.189 20.0638 22.136C20.0799 22.0806 20.1165 21.9873 20.1977 21.8853C20.2854 21.7752 20.3964 21.6919 20.5048 21.644C20.6062 21.5992 20.6466 21.611 20.575 21.611V25.611C21.6864 25.611 22.6719 25.1994 23.3267 24.3772C23.9136 23.6402 24.045 22.8095 24.045 22.2638H20.045ZM20.575 21.611C20.5011 21.611 20.5196 21.5996 20.593 21.6286C20.6739 21.6607 20.768 21.7211 20.8476 21.8091C20.997 21.9742 20.96 22.0751 20.9485 21.8974L16.9568 22.1547C17.0025 22.8638 17.2159 23.7572 17.8818 24.4931C18.5948 25.2809 19.5726 25.611 20.575 25.611V21.611ZM18.9527 20.0261H17.7522V24.0261H18.9527V20.0261ZM15.7539 22.1083C15.8555 24.5764 17.2842 26.2646 19.1857 26.8329L20.3311 23.0004C20.1804 22.9554 20.0661 22.8768 19.9808 22.7644C19.8979 22.6553 19.77 22.4185 19.7505 21.9438L15.7539 22.1083ZM17.7584 24.9167V26.5544H21.7584V24.9167H17.7584ZM19.7584 28.5544H21.3917V24.5544H19.7584V28.5544ZM23.3917 26.5544V24.9318H19.3917V26.5544H23.3917ZM21.9081 26.8639C22.7926 26.6275 23.6684 26.1302 24.3192 25.295C24.9763 24.4515 25.2972 23.4008 25.2972 22.2487H21.2972C21.2972 22.6475 21.1948 22.7968 21.1639 22.8365C21.1267 22.8842 21.0497 22.953 20.8753 22.9996L21.9081 26.8639ZM25.2972 22.2487C25.2972 20.7177 24.802 19.4885 23.925 18.5736C23.1133 17.727 22.1166 17.3045 21.4214 17.0519L20.0553 20.8114C20.5961 21.0079 20.8787 21.176 21.0375 21.3417C21.1308 21.4391 21.2972 21.6439 21.2972 22.2487H25.2972Z" fill="#2B2D30" mask="url(#path-1-inside-1_240_45409)"/>
<path d="M5.54509 12.415C5.09058 12.7287 4.97648 13.3515 5.29023 13.806C5.60399 14.2605 6.22679 14.3746 6.68129 14.0609L5.54509 12.415ZM19.9007 3.72015L19.3326 2.8972L19.3326 2.8972L19.9007 3.72015ZM21.0178 3.70734L21.5669 2.87157L21.5669 2.87157L21.0178 3.70734ZM34.9756 14.0737C35.4372 14.3769 36.0572 14.2486 36.3604 13.787C36.6637 13.3254 36.5353 12.7054 36.0737 12.4022L34.9756 14.0737ZM5.52466 27.6625C4.97237 27.6625 4.52466 28.1102 4.52466 28.6625C4.52466 29.2147 4.97237 29.6625 5.52466 29.6625V27.6625ZM35.5247 29.6625C36.0769 29.6625 36.5247 29.2147 36.5247 28.6625C36.5247 28.1102 36.0769 27.6625 35.5247 27.6625V29.6625ZM30.3795 13.7776C30.3795 13.2254 29.9317 12.7776 29.3795 12.7776C28.8272 12.7776 28.3795 13.2254 28.3795 13.7776H30.3795ZM28.3795 25.8497C28.3795 26.402 28.8272 26.8497 29.3795 26.8497C29.9317 26.8497 30.3795 26.402 30.3795 25.8497H28.3795ZM12.9487 13.7776C12.9487 13.2254 12.501 12.7776 11.9487 12.7776C11.3965 12.7776 10.9487 13.2254 10.9487 13.7776H12.9487ZM10.9487 25.8497C10.9487 26.402 11.3965 26.8497 11.9487 26.8497C12.501 26.8497 12.9487 26.402 12.9487 25.8497H10.9487ZM6.68129 14.0609L20.4688 4.54311L19.3326 2.8972L5.54509 12.415L6.68129 14.0609ZM20.4688 4.54311L34.9756 14.0737L36.0737 12.4022L21.5669 2.87157L20.4688 4.54311ZM5.52466 29.6625H35.5247V27.6625H5.52466V29.6625ZM28.3795 13.7776V25.8497H30.3795V13.7776H28.3795ZM10.9487 13.7776V25.8497H12.9487V13.7776H10.9487ZM20.4688 4.54311L20.4688 4.54311L21.5669 2.87157C20.8864 2.42446 20.0027 2.4346 19.3326 2.8972L20.4688 4.54311Z" fill="#2B2D30"/>
</svg>
