<svg width="105" height="94" viewBox="0 0 105 94" fill="none" xmlns="http://www.w3.org/2000/svg">
<path d="M52.616 43.0456L52.5753 44.1738L53.6481 44.5252C55.9272 45.2716 57.406 47.3648 57.8644 50.1116H57.1486C56.9665 49.0756 56.6023 48.0905 55.9469 47.2773C54.9352 46.0221 53.4326 45.42 51.5936 45.42C49.8691 45.42 48.3396 45.9417 47.2286 46.9859C46.1106 48.0367 45.5551 49.4877 45.5551 51.0642C45.5551 52.4742 45.9874 53.7473 47.0957 54.8333C48.121 55.8379 49.6374 56.5932 51.606 57.2734C53.4602 57.9195 55.1679 58.7036 56.4183 59.954C57.6137 61.1495 58.4983 62.8804 58.4983 65.6752C58.4983 67.6731 57.9356 69.1025 57.1186 70.1078C56.2934 71.1232 55.1228 71.8107 53.7426 72.1643L52.615 72.4533V73.6174V76.9207H50.5722V73.5727V72.4421L49.4853 72.1307C47.2081 71.4782 45.1689 69.7424 44.5537 66.5161H45.2916C45.5343 67.5592 45.9927 68.5569 46.7658 69.376C47.9093 70.5873 49.5505 71.2077 51.5936 71.2077C53.814 71.2077 55.4073 70.4568 56.4129 69.2461C57.3728 68.0906 57.6321 66.7137 57.6321 65.7199C57.6321 64.4597 57.3774 63.0719 56.3614 61.8008C55.3725 60.5636 53.803 59.6143 51.5449 58.8954C49.3242 58.1852 47.6196 57.2704 46.4751 56.0562C45.3705 54.8845 44.6889 53.3305 44.6889 51.0977C44.6889 47.4929 46.8202 45.2506 49.4915 44.4729L50.5316 44.17L50.5712 43.0875L50.6948 39.707H52.7364L52.616 43.0456Z" fill="#2B2D30" stroke="#2B2D30" stroke-width="3"/>
<path d="M2.16406 34.5802L51.8934 2.96484L102.087 34.5802M2.16406 91.677H102.087M81.6189 38.2639V76.8143M23.5612 38.2639V75.8853" stroke="#2B2D30" stroke-width="4" stroke-linecap="round"/>
</svg>
