<svg width="51" height="40" viewBox="0 0 51 40" fill="none" xmlns="http://www.w3.org/2000/svg">
<mask id="path-1-inside-1_240_45226" fill="white">
<path d="M25.4141 23.4369C23.8037 22.8567 23.2859 22.2617 23.2859 21.3274C23.2859 20.2554 23.9988 19.5031 25.2013 19.5031C26.4641 19.5031 26.9323 20.339 26.9749 21.5683H28.5427C28.4966 19.8719 27.7481 18.3278 26.2654 17.8214L26.3399 15.6676H24.2117L24.1372 17.7919C22.7609 18.2098 21.6542 19.4392 21.6542 21.3421C21.6542 23.6139 23.0127 24.7449 24.9885 25.4038C26.7656 25.9939 27.1167 26.8544 27.1167 27.7789C27.1167 28.4525 26.7727 29.5343 25.2013 29.5343C23.7399 29.5343 23.1617 28.6246 23.0872 27.4691H21.5229C21.6116 29.6228 22.7715 30.8276 24.1372 31.2357V33.3698H26.2654V31.2554C27.6453 30.8866 28.7484 29.7802 28.7484 27.7592C28.7484 24.976 27.0245 24.0221 25.4141 23.4369Z"/>
</mask>
<path d="M25.4141 23.4369C23.8037 22.8567 23.2859 22.2617 23.2859 21.3274C23.2859 20.2554 23.9988 19.5031 25.2013 19.5031C26.4641 19.5031 26.9323 20.339 26.9749 21.5683H28.5427C28.4966 19.8719 27.7481 18.3278 26.2654 17.8214L26.3399 15.6676H24.2117L24.1372 17.7919C22.7609 18.2098 21.6542 19.4392 21.6542 21.3421C21.6542 23.6139 23.0127 24.7449 24.9885 25.4038C26.7656 25.9939 27.1167 26.8544 27.1167 27.7789C27.1167 28.4525 26.7727 29.5343 25.2013 29.5343C23.7399 29.5343 23.1617 28.6246 23.0872 27.4691H21.5229C21.6116 29.6228 22.7715 30.8276 24.1372 31.2357V33.3698H26.2654V31.2554C27.6453 30.8866 28.7484 29.7802 28.7484 27.7592C28.7484 24.976 27.0245 24.0221 25.4141 23.4369Z" fill="#9E9E9E"/>
<path d="M25.4141 23.4369L26.4387 20.6173L26.4311 20.6145L25.4141 23.4369ZM26.9749 21.5683L23.9767 21.6721L24.0769 24.5683H26.9749V21.5683ZM28.5427 21.5683V24.5683H31.6253L31.5416 21.4868L28.5427 21.5683ZM26.2654 17.8214L23.2672 17.7177L23.1903 19.9411L25.2957 20.6603L26.2654 17.8214ZM26.3399 15.6676L29.3381 15.7713L29.4455 12.6676H26.3399V15.6676ZM24.2117 15.6676V12.6676H21.315L21.2135 15.5625L24.2117 15.6676ZM24.1372 17.7919L25.0089 20.6624L27.0602 20.0395L27.1353 17.897L24.1372 17.7919ZM24.9885 25.4038L24.0394 28.2497L24.0431 28.251L24.9885 25.4038ZM23.0872 27.4691L26.081 27.2761L25.9001 24.4691H23.0872V27.4691ZM21.5229 27.4691V24.4691H18.3969L18.5255 27.5925L21.5229 27.4691ZM24.1372 31.2357H27.1372V29.0012L24.9962 28.3613L24.1372 31.2357ZM24.1372 33.3698H21.1372V36.3698H24.1372V33.3698ZM26.2654 33.3698V36.3698H29.2654V33.3698H26.2654ZM26.2654 31.2554L25.4908 28.3571L23.2654 28.9519V31.2554H26.2654ZM26.4311 20.6145C26.1254 20.5044 25.9473 20.4201 25.8532 20.3681C25.7597 20.3165 25.7999 20.3243 25.8904 20.4168C25.9955 20.5242 26.1174 20.6937 26.2003 20.9146C26.2791 21.1243 26.2859 21.2821 26.2859 21.3274H20.2859C20.2859 22.4542 20.6411 23.6311 21.6018 24.613C22.4114 25.4404 23.4588 25.9212 24.3972 26.2593L26.4311 20.6145ZM26.2859 21.3274C26.2859 21.4698 26.2249 21.83 25.8928 22.1556C25.5617 22.4801 25.2352 22.5031 25.2013 22.5031V16.5031C23.965 16.5031 22.6807 16.9022 21.6925 17.8709C20.7033 18.8407 20.2859 20.113 20.2859 21.3274H26.2859ZM25.2013 22.5031C25.1885 22.5031 25.029 22.5008 24.7986 22.3996C24.5519 22.2912 24.3319 22.1162 24.1718 21.909C24.0243 21.7182 23.9762 21.564 23.9663 21.5281C23.9572 21.4952 23.9719 21.5335 23.9767 21.6721L29.9731 21.4645C29.9424 20.5782 29.7559 19.3228 28.9195 18.2404C27.9603 16.999 26.5639 16.5031 25.2013 16.5031V22.5031ZM26.9749 24.5683H28.5427V18.5683H26.9749V24.5683ZM31.5416 21.4868C31.4778 19.1422 30.3886 16.0596 27.2352 14.9824L25.2957 20.6603C25.2959 20.6604 25.2913 20.6587 25.2846 20.6548C25.2815 20.6531 25.2789 20.6513 25.2768 20.6499C25.2748 20.6484 25.2738 20.6475 25.2739 20.6476C25.274 20.6477 25.2755 20.649 25.2783 20.6519C25.2811 20.6549 25.2854 20.6596 25.291 20.6665C25.3022 20.6804 25.3188 20.7033 25.3385 20.7379C25.4252 20.8895 25.5314 21.1948 25.5438 21.6498L31.5416 21.4868ZM29.2636 17.9251L29.3381 15.7713L23.3417 15.5639L23.2672 17.7177L29.2636 17.9251ZM26.3399 12.6676H24.2117V18.6676H26.3399V12.6676ZM21.2135 15.5625L21.139 17.6867L27.1353 17.897L27.2098 15.7727L21.2135 15.5625ZM23.2654 14.9213C20.6547 15.7142 18.6542 18.0874 18.6542 21.3421H24.6542C24.6542 20.9939 24.7469 20.8536 24.7784 20.8117C24.8199 20.7565 24.89 20.6985 25.0089 20.6624L23.2654 14.9213ZM18.6542 21.3421C18.6542 23.1372 19.2161 24.7294 20.3547 25.9893C21.424 27.1725 22.7988 27.836 24.0394 28.2497L25.9376 22.5579C25.2024 22.3127 24.91 22.0812 24.8062 21.9663C24.7647 21.9204 24.739 21.8786 24.7172 21.8186C24.6933 21.7529 24.6542 21.6084 24.6542 21.3421H18.6542ZM24.0431 28.251C24.6077 28.4384 24.5244 28.5342 24.3378 28.2907C24.2419 28.1655 24.1768 28.0242 24.1422 27.8989C24.1116 27.788 24.1167 27.7325 24.1167 27.7789H30.1167C30.1167 26.9209 29.9469 25.746 29.1003 24.6412C28.2938 23.5887 27.1464 22.9593 25.9339 22.5567L24.0431 28.251ZM24.1167 27.7789C24.1167 27.6849 24.1288 27.3828 24.4015 27.0403C24.5544 26.8483 24.7497 26.6997 24.9505 26.6109C25.1408 26.5268 25.2492 26.5343 25.2013 26.5343V32.5343C26.7496 32.5343 28.1555 31.9578 29.095 30.7781C29.9327 29.7263 30.1167 28.5465 30.1167 27.7789H24.1167ZM25.2013 26.5343C25.1455 26.5343 25.2203 26.5258 25.3698 26.585C25.5306 26.6487 25.7037 26.762 25.8485 26.922C26.1235 27.2259 26.0926 27.4553 26.081 27.2761L20.0934 27.662C20.1564 28.6384 20.4518 29.9005 21.3998 30.948C22.4184 32.0736 23.8081 32.5343 25.2013 32.5343V26.5343ZM23.0872 24.4691H21.5229V30.4691H23.0872V24.4691ZM18.5255 27.5925C18.6645 30.9691 20.6323 33.3193 23.2781 34.1101L24.9962 28.3613C24.8733 28.3246 24.7974 28.2677 24.7406 28.193C24.6877 28.1232 24.543 27.8949 24.5204 27.3456L18.5255 27.5925ZM21.1372 31.2357V33.3698H27.1372V31.2357H21.1372ZM24.1372 36.3698H26.2654V30.3698H24.1372V36.3698ZM29.2654 33.3698V31.2554H23.2654V33.3698H29.2654ZM27.0401 34.1536C28.2625 33.8269 29.4824 33.1367 30.3908 31.9707C31.3088 30.7926 31.7484 29.3347 31.7484 27.7592H25.7484C25.7484 27.9909 25.717 28.1295 25.6951 28.1985C25.684 28.2335 25.674 28.255 25.6681 28.2661C25.6624 28.2772 25.6587 28.282 25.6579 28.283C25.6571 28.2841 25.6564 28.2849 25.6548 28.2863C25.653 28.2879 25.648 28.2922 25.6378 28.2985C25.6174 28.3114 25.5715 28.3355 25.4908 28.3571L27.0401 34.1536ZM31.7484 27.7592C31.7484 25.6729 31.0708 23.9704 29.8508 22.6977C28.7289 21.5275 27.3597 20.9519 26.4387 20.6173L24.3896 26.2565C25.079 26.507 25.3769 26.701 25.5196 26.8499C25.5722 26.9048 25.6141 26.9646 25.6507 27.0606C25.6899 27.1635 25.7484 27.3761 25.7484 27.7592H31.7484Z" fill="#9E9E9E" mask="url(#path-1-inside-1_240_45226)"/>
<path d="M5.50446 14.7831C4.8227 15.2537 4.65155 16.1879 5.12218 16.8697C5.59281 17.5515 6.52701 17.7226 7.20877 17.252L5.50446 14.7831ZM24.4905 3.49933L25.3427 4.73376V4.73376L24.4905 3.49933ZM25.6077 3.48651L26.4313 2.23286L26.4313 2.23286L25.6077 3.48651ZM43.858 17.2712C44.5504 17.7261 45.4804 17.5335 45.9353 16.8412C46.3901 16.1488 46.1976 15.2188 45.5052 14.7639L43.858 17.2712ZM5.58972 34.6167C4.76129 34.6167 4.08972 35.2883 4.08972 36.1167C4.08972 36.9451 4.76129 37.6167 5.58972 37.6167V34.6167ZM44.6816 37.6167C45.51 37.6167 46.1816 36.9451 46.1816 36.1167C46.1816 35.2883 45.51 34.6167 44.6816 34.6167V37.6167ZM38.174 16.7208C38.174 15.8924 37.5025 15.2208 36.674 15.2208C35.8456 15.2208 35.174 15.8924 35.174 16.7208H38.174ZM35.174 32.4515C35.174 33.28 35.8456 33.9515 36.674 33.9515C37.5025 33.9515 38.174 33.28 38.174 32.4515H35.174ZM15.4607 16.7208C15.4607 15.8924 14.7891 15.2208 13.9607 15.2208C13.1323 15.2208 12.4607 15.8924 12.4607 16.7208H15.4607ZM12.4607 32.4515C12.4607 33.28 13.1323 33.9515 13.9607 33.9515C14.7891 33.9515 15.4607 33.28 15.4607 32.4515H12.4607ZM7.20877 17.252L25.3427 4.73376L23.6384 2.26489L5.50446 14.7831L7.20877 17.252ZM24.7841 4.74017L43.858 17.2712L45.5052 14.7639L26.4313 2.23286L24.7841 4.74017ZM5.58972 37.6167H44.6816V34.6167H5.58972V37.6167ZM35.174 16.7208V32.4515H38.174V16.7208H35.174ZM12.4607 16.7208V32.4515H15.4607V16.7208H12.4607ZM25.3427 4.73376C25.1752 4.84941 24.9542 4.85194 24.7841 4.74017L26.4313 2.23286C25.5806 1.67397 24.476 1.68664 23.6384 2.26489L25.3427 4.73376Z" fill="#9E9E9E"/>
</svg>
