<svg width="88" height="89" viewBox="0 0 88 89" fill="none" xmlns="http://www.w3.org/2000/svg">
<g filter="url(#filter0_d_8317_220566)">
<rect x="10" y="10.0879" width="68" height="68" rx="34" fill="white"/>
</g>
<mask id="path-2-inside-1_8317_220566" fill="white">
<path d="M43.9911 46.7815C42.7868 46.3655 42.3995 45.9389 42.3995 45.269C42.3995 44.5004 42.9327 43.961 43.832 43.961C44.7763 43.961 45.1265 44.5604 45.1583 45.4418H46.3308C46.2964 44.2254 45.7366 43.1183 44.6278 42.7552L44.6835 41.2109H43.0918L43.0361 42.734C42.0069 43.0337 41.1792 43.9152 41.1792 45.2796C41.1792 46.9085 42.1952 47.7194 43.6728 48.1918C45.0018 48.6149 45.2644 49.2319 45.2644 49.8947C45.2644 50.3778 45.0071 51.1534 43.832 51.1534C42.739 51.1534 42.3066 50.5012 42.2509 49.6726H41.0811C41.1474 51.2169 42.0148 52.0807 43.0361 52.3733V53.9035H44.6278V52.3874C45.6597 52.123 46.4847 51.3297 46.4847 49.8806C46.4847 47.8851 45.1955 47.2011 43.9911 46.7815Z"/>
</mask>
<path d="M43.9911 46.7815C42.7868 46.3655 42.3995 45.9389 42.3995 45.269C42.3995 44.5004 42.9327 43.961 43.832 43.961C44.7763 43.961 45.1265 44.5604 45.1583 45.4418H46.3308C46.2964 44.2254 45.7366 43.1183 44.6278 42.7552L44.6835 41.2109H43.0918L43.0361 42.734C42.0069 43.0337 41.1792 43.9152 41.1792 45.2796C41.1792 46.9085 42.1952 47.7194 43.6728 48.1918C45.0018 48.6149 45.2644 49.2319 45.2644 49.8947C45.2644 50.3778 45.0071 51.1534 43.832 51.1534C42.739 51.1534 42.3066 50.5012 42.2509 49.6726H41.0811C41.1474 51.2169 42.0148 52.0807 43.0361 52.3733V53.9035H44.6278V52.3874C45.6597 52.123 46.4847 51.3297 46.4847 49.8806C46.4847 47.8851 45.1955 47.2011 43.9911 46.7815Z" fill="#2B2D30"/>
<path d="M43.9911 46.7815L44.9781 43.9485L44.9706 43.946L43.9911 46.7815ZM45.1583 45.4418L42.1603 45.5501L42.2647 48.4418H45.1583V45.4418ZM46.3308 45.4418V48.4418H49.4171L49.3296 45.3568L46.3308 45.4418ZM44.6278 42.7552L41.6297 42.647L41.5483 44.9035L43.6941 45.6062L44.6278 42.7552ZM44.6835 41.2109L47.6815 41.3191L47.7937 38.2109H44.6835V41.2109ZM43.0918 41.2109V38.2109H40.1996L40.0938 41.1013L43.0918 41.2109ZM43.0361 42.734L43.8748 45.6144L45.9549 45.0088L46.0341 42.8437L43.0361 42.734ZM43.6728 48.1918L42.7591 51.0493L42.7628 51.0505L43.6728 48.1918ZM42.2509 49.6726L45.2442 49.4714L45.056 46.6726H42.2509V49.6726ZM41.0811 49.6726V46.6726H37.9495L38.0838 49.8013L41.0811 49.6726ZM43.0361 52.3733H46.0361V50.1122L43.8625 49.4894L43.0361 52.3733ZM43.0361 53.9035H40.0361V56.9035H43.0361V53.9035ZM44.6278 53.9035V56.9035H47.6278V53.9035H44.6278ZM44.6278 52.3874L43.8831 49.4813L41.6278 50.0592V52.3874H44.6278ZM44.9706 43.946C44.7635 43.8744 44.6664 43.8276 44.6388 43.813C44.611 43.7982 44.7067 43.8438 44.8433 43.9777C44.9954 44.1268 45.1595 44.3477 45.272 44.635C45.3808 44.9125 45.3995 45.1446 45.3995 45.269H39.3995C39.3995 46.3015 39.7475 47.3848 40.644 48.2632C41.3751 48.9796 42.286 49.3665 43.0116 49.6171L44.9706 43.946ZM45.3995 45.269C45.3995 45.6026 45.2664 46.1055 44.833 46.5128C44.4137 46.907 43.9821 46.961 43.832 46.961V40.961C42.7825 40.961 41.6347 41.2847 40.7239 42.1407C39.7991 43.0099 39.3995 44.1669 39.3995 45.269H45.3995ZM43.832 46.961C43.7545 46.961 43.5432 46.9488 43.2688 46.8332C42.9771 46.7104 42.708 46.5096 42.5015 46.2534C42.1269 45.7885 42.1549 45.4009 42.1603 45.5501L48.1564 45.3335C48.1299 44.6013 47.9669 43.4732 47.1731 42.4883C46.2682 41.3655 44.9901 40.961 43.832 40.961V46.961ZM45.1583 48.4418H46.3308V42.4418H45.1583V48.4418ZM49.3296 45.3568C49.2747 43.4173 48.3181 40.807 45.5615 39.9042L43.6941 45.6062C43.6066 45.5775 43.5161 45.5282 43.438 45.4632C43.3628 45.4007 43.3224 45.3433 43.3057 45.3153C43.2902 45.2892 43.2963 45.291 43.307 45.3314C43.3177 45.3716 43.3295 45.4374 43.332 45.5268L49.3296 45.3568ZM47.6258 42.8633L47.6815 41.3191L41.6854 41.1028L41.6297 42.647L47.6258 42.8633ZM44.6835 38.2109H43.0918V44.2109H44.6835V38.2109ZM40.0938 41.1013L40.0381 42.6244L46.0341 42.8437L46.0898 41.3206L40.0938 41.1013ZM42.1975 39.8537C39.9887 40.4968 38.1792 42.4788 38.1792 45.2796H44.1792C44.1792 45.2446 44.184 45.2573 44.1688 45.3027C44.1535 45.3483 44.1256 45.4036 44.0833 45.4576C43.9975 45.5672 43.9078 45.6048 43.8748 45.6144L42.1975 39.8537ZM38.1792 45.2796C38.1792 46.7892 38.6794 48.1563 39.6889 49.2272C40.618 50.2128 41.7814 50.7367 42.7591 51.0493L44.5864 45.3343C44.3532 45.2598 44.2035 45.1921 44.1138 45.1425C44.0269 45.0943 44.023 45.0777 44.0549 45.1116C44.094 45.153 44.1386 45.219 44.1666 45.2929C44.1926 45.3616 44.1792 45.3713 44.1792 45.2796H38.1792ZM42.7628 51.0505C43.1212 51.1646 42.9011 51.1736 42.6236 50.8264C42.4787 50.6452 42.3773 50.4386 42.3197 50.2384C42.2665 50.0534 42.2644 49.9223 42.2644 49.8947H48.2644C48.2644 49.143 48.1054 48.075 47.3104 47.0803C46.5694 46.1532 45.5534 45.6421 44.5828 45.3332L42.7628 51.0505ZM42.2644 49.8947C42.2644 49.6789 42.3111 49.2338 42.6812 48.7883C42.8799 48.5491 43.1267 48.3702 43.3809 48.2625C43.6235 48.1597 43.7965 48.1534 43.832 48.1534V54.1534C45.1371 54.1534 46.4126 53.6863 47.2966 52.6221C48.0891 51.668 48.2644 50.5936 48.2644 49.8947H42.2644ZM43.832 48.1534C43.909 48.1534 44.3937 48.198 44.8341 48.6645C45.218 49.0712 45.2435 49.4609 45.2442 49.4714L39.2577 49.8739C39.3141 50.7129 39.5836 51.843 40.4709 52.783C41.4146 53.7828 42.662 54.1534 43.832 54.1534V48.1534ZM42.2509 46.6726H41.0811V52.6726H42.2509V46.6726ZM38.0838 49.8013C38.206 52.6474 39.9589 54.6123 42.2098 55.2573L43.8625 49.4894C43.8743 49.4927 43.902 49.5025 43.9392 49.5265C43.978 49.5517 44.0183 49.5869 44.0524 49.63C44.0687 49.6505 44.0808 49.6694 44.0892 49.6847C44.0975 49.7 44.1006 49.7087 44.1005 49.7084C44.1004 49.708 44.0962 49.6961 44.0914 49.6702C44.0865 49.6442 44.0808 49.6028 44.0783 49.5439L38.0838 49.8013ZM40.0361 52.3733V53.9035H46.0361V52.3733H40.0361ZM43.0361 56.9035H44.6278V50.9035H43.0361V56.9035ZM47.6278 53.9035V52.3874H41.6278V53.9035H47.6278ZM45.3725 55.2935C46.3975 55.0309 47.4623 54.4658 48.2713 53.4703C49.0969 52.4545 49.4847 51.2005 49.4847 49.8806H43.4847C43.4847 49.957 43.4742 49.9565 43.4917 49.9035C43.5103 49.8474 43.5488 49.7678 43.6151 49.6862C43.7537 49.5157 43.89 49.4795 43.8831 49.4813L45.3725 55.2935ZM49.4847 49.8806C49.4847 48.1499 48.8892 46.6972 47.8109 45.6189C46.8432 44.651 45.6863 44.1953 44.9781 43.9485L43.0042 49.6146C43.2315 49.6937 43.3792 49.7572 43.4805 49.811C43.5779 49.8628 43.5913 49.8845 43.5681 49.8613C43.5354 49.8286 43.4978 49.775 43.4767 49.722C43.458 49.675 43.4847 49.709 43.4847 49.8806H49.4847Z" fill="#2B2D30" mask="url(#path-2-inside-1_8317_220566)"/>
<path d="M28.2305 40.0666L43.9264 30.0879L59.769 40.0666M28.2305 58.0879L59.769 57.6481M53.3086 41.2293V53.3968M34.984 41.2293V53.1036" stroke="#2B2D30" stroke-width="3" stroke-linecap="round"/>
<defs>
<filter id="filter0_d_8317_220566" x="0" y="0.0878906" width="88" height="88" filterUnits="userSpaceOnUse" color-interpolation-filters="sRGB">
<feFlood flood-opacity="0" result="BackgroundImageFix"/>
<feColorMatrix in="SourceAlpha" type="matrix" values="0 0 0 0 0 0 0 0 0 0 0 0 0 0 0 0 0 0 127 0" result="hardAlpha"/>
<feOffset/>
<feGaussianBlur stdDeviation="5"/>
<feComposite in2="hardAlpha" operator="out"/>
<feColorMatrix type="matrix" values="0 0 0 0 0.466667 0 0 0 0 0.643137 0 0 0 0 0.898039 0 0 0 0.2 0"/>
<feBlend mode="normal" in2="BackgroundImageFix" result="effect1_dropShadow_8317_220566"/>
<feBlend mode="normal" in="SourceGraphic" in2="effect1_dropShadow_8317_220566" result="shape"/>
</filter>
</defs>
</svg>
