<svg width="45" height="32" viewBox="0 0 45 32" fill="none" xmlns="http://www.w3.org/2000/svg">
<path d="M29.2563 6.77893H6.51538C5.41081 6.77893 4.51538 7.67436 4.51538 8.77893V27.5C4.51538 28.6046 5.41081 29.5 6.51538 29.5H34.288C35.3926 29.5 36.288 28.6046 36.288 27.5V14.464" stroke="#2B2D30" stroke-width="2" stroke-linecap="round"/>
<rect x="7.1615" y="11.2494" width="18.6676" height="3.94947" rx="1.97473" stroke="#2B2D30" stroke-width="2"/>
<mask id="mask0_240_45340" style="mask-type:alpha" maskUnits="userSpaceOnUse" x="29" y="4" width="10" height="10">
<path fill-rule="evenodd" clip-rule="evenodd" d="M38.6008 5.38134C38.8004 5.58094 38.8004 5.90337 38.6008 6.10297L37.6642 7.03954L35.745 5.12033L36.6816 4.18376C36.8812 3.98416 37.2036 3.98416 37.4032 4.18376L38.6008 5.38134ZM29.537 13.2476V11.3283L35.1974 5.66795L37.1166 7.58716L31.4562 13.2476H29.537Z" fill="white"/>
</mask>
<g mask="url(#mask0_240_45340)">
<rect x="28.0016" y="2.5" width="12.2829" height="12.283" fill="#2B2D30"/>
</g>
<path d="M7.6405 19.1804H18.839M18.0578 24.8739L21.4372 21.9575C21.8987 21.5593 22.595 22.0074 22.4238 22.5924L22.2498 23.1866C22.0915 23.7274 22.8058 24.0798 23.1386 23.6251L23.28 23.4319C23.5226 23.1004 24.0477 23.272 24.0477 23.6828V23.6828C24.0477 24.0302 24.4419 24.2307 24.7227 24.0261L26.5586 22.6882C27.0504 22.3299 27.7253 22.7659 27.6007 23.3615V23.3615C27.5144 23.7743 27.8295 24.1622 28.2513 24.1622H31.0793M7.6405 24.8739H15.193" stroke="#2B2D30" stroke-width="2" stroke-linecap="round"/>
</svg>
