<svg width="56" height="40" viewBox="0 0 56 40" fill="none" xmlns="http://www.w3.org/2000/svg">
<path d="M35.31 9.38379H8.3277C7.22313 9.38379 6.3277 10.2792 6.3277 11.3838V34C6.3277 35.1046 7.22313 36 8.3277 36H41.5471C42.6516 36 43.5471 35.1046 43.5471 34V18.3863" stroke="#9E9E9E" stroke-width="2" stroke-linecap="round"/>
<rect x="9.59882" y="14.7922" width="21.5249" height="4.28367" rx="2.14183" stroke="#9E9E9E" stroke-width="2"/>
<mask id="mask0_240_45155" style="mask-type:alpha" maskUnits="userSpaceOnUse" x="33" y="6" width="15" height="14">
<path fill-rule="evenodd" clip-rule="evenodd" d="M47.2068 8.21915C47.4991 8.51142 47.4991 8.98355 47.2068 9.27582L45.8354 10.6472L43.0251 7.83695L44.3965 6.46554C44.6888 6.17327 45.1609 6.17327 45.4532 6.46554L47.2068 8.21915ZM33.9348 19.7375V16.9273L42.2233 8.63882L45.0335 11.4491L36.7451 19.7375H33.9348Z" fill="white"/>
</mask>
<g mask="url(#mask0_240_45155)">
<rect x="31.6866" y="4" width="17.9858" height="17.9858" fill="#9E9E9E"/>
</g>
<path d="M9.98859 23.9114H23.1069M22.1917 30.5809L26.1505 27.1645C26.6911 26.698 27.5068 27.223 27.3062 27.9082L27.1024 28.6043C26.9169 29.2378 27.7537 29.6506 28.1435 29.118L28.3092 28.8917C28.5934 28.5033 29.2084 28.7044 29.2084 29.1856V29.1856C29.2084 29.5925 29.6703 29.8274 29.9992 29.5878L32.1499 28.0205C32.7259 27.6007 33.5165 28.1115 33.3706 28.8092V28.8092C33.2694 29.2928 33.6386 29.7472 34.1327 29.7472H37.4455M9.98859 30.5809H18.8358" stroke="#9E9E9E" stroke-width="2" stroke-linecap="round"/>
</svg>
