<svg width="121" height="82" viewBox="0 0 121 82" fill="none" xmlns="http://www.w3.org/2000/svg">
<path d="M77.2804 22.7207H4.11035C3.00578 22.7207 2.11035 23.6161 2.11035 24.7207V78.4892C2.11035 79.5938 3.00578 80.4892 4.11035 80.4892H96.6446C97.7491 80.4892 98.6446 79.5938 98.6446 78.4892V42.2601" stroke="#2B2D30" stroke-width="3" stroke-linecap="round"/>
<mask id="mask0_8317_219628" style="mask-type:alpha" maskUnits="userSpaceOnUse" x="74" y="6" width="40" height="40">
<path fill-rule="evenodd" clip-rule="evenodd" d="M113.157 12.5873C113.997 13.4254 113.997 14.7794 113.157 15.6175L109.212 19.5504L101.128 11.4912L105.073 7.55831C105.913 6.72015 107.271 6.72015 108.112 7.55831L113.157 12.5873ZM74.9785 45.6193V37.5601L98.8209 13.7908L106.905 21.85L83.0625 45.6193H74.9785Z" fill="white"/>
</mask>
<g mask="url(#mask0_8317_219628)">
<rect x="68.5117" y="0.488281" width="51.7375" height="51.579" fill="#2B2D30"/>
</g>
<path d="M14.1914 38.7715L63.5102 38.7715" stroke="#2B2D30" stroke-width="3" stroke-linecap="round"/>
<path d="M14.1914 56.418H47.6009" stroke="#2B2D30" stroke-width="3" stroke-linecap="round"/>
<path d="M44.5088 74.0151L55.3625 61.9913C56.8742 60.3167 59.5696 62.0362 58.6882 64.1129L57.526 66.8508C56.8789 68.3754 58.6556 69.7807 59.9902 68.7998V68.7998C60.9178 68.1181 62.2407 68.5875 62.5311 69.7014L62.7539 70.5558C63.0623 71.7387 64.3504 72.3706 65.4746 71.8905L72.447 68.9132C73.4161 68.4993 74.3473 69.5698 73.8032 70.4723V70.4723C73.3669 71.196 73.888 72.1187 74.733 72.1187H85.8729" stroke="#2B2D30" stroke-width="2" stroke-linecap="round"/>
</svg>
