<svg width="40" height="40" viewBox="0 0 40 40" fill="none" xmlns="http://www.w3.org/2000/svg">
<mask id="mask0_633_63821" style="mask-type:alpha" maskUnits="userSpaceOnUse" x="1" y="6" width="38" height="27">
<path fill-rule="evenodd" clip-rule="evenodd" d="M37.3005 7.62425C36.6119 6.98607 35.7512 6.66699 34.7183 6.66699H5.28169C4.24882 6.66699 3.38811 6.98607 2.69953 7.62425C2.01095 8.26242 1.66666 9.04098 1.66666 9.95995V29.5645C1.66666 30.4835 2.01095 31.262 2.69953 31.9002C3.38811 32.5384 4.24882 32.8575 5.28169 32.8575H34.7183C35.7512 32.8575 36.6119 32.5384 37.3005 31.9002C37.989 31.262 38.3333 30.4835 38.3333 29.5645V9.95995C38.3333 9.04098 37.989 8.26242 37.3005 7.62425ZM34.5957 29.3654V10.159H5.15912V29.3654H34.5957ZM28.4696 14.2528C28.8175 14.6007 28.8175 15.1626 28.4696 15.5105L26.8373 17.1428L23.4924 13.7979L25.1247 12.1656C25.4726 11.8177 26.0345 11.8177 26.3824 12.1656L28.4696 14.2528ZM13.0159 27.6189V24.5242L22.1433 15.3967L25.2381 18.4915L16.1106 27.6189H13.0159Z" fill="white"/>
</mask>
<g mask="url(#mask0_633_63821)">
<rect width="40" height="40" fill="#2B2D30"/>
</g>
</svg>
