<svg width="40" height="40" viewBox="0 0 40 40" fill="none" xmlns="http://www.w3.org/2000/svg">
<mask id="mask0_590_60602" style="mask-type:alpha" maskUnits="userSpaceOnUse" x="1" y="1" width="38" height="38">
<path fill-rule="evenodd" clip-rule="evenodd" d="M23.8201 5.27102L28.9127 5.27102L20.0007 11.8523L11.0886 5.27102L16.1812 5.27102V1.66699L23.8201 1.66699L23.8201 5.27102ZM5.33329 14.4999H34.6666C36.7016 14.4999 38.3333 15.8256 38.3333 17.4791V35.3543C38.3333 37.0077 36.7016 38.3335 34.6666 38.3335H5.33329C3.29829 38.3335 1.66663 37.0077 1.66663 35.3543L1.68496 17.4791C1.68496 15.8256 3.29829 14.4999 5.33329 14.4999ZM6.24996 34.6669H33.75V27.3335H6.24996V34.6669ZM33.75 21.8335H6.24996V18.1668H33.75V21.8335Z" fill="white"/>
</mask>
<g mask="url(#mask0_590_60602)">
<rect width="40" height="40" fill="#2B2D30"/>
</g>
</svg>
