<svg width="33" height="33" viewBox="0 0 33 33" fill="none" xmlns="http://www.w3.org/2000/svg">
<mask id="mask0_590_60257" style="mask-type:alpha" maskUnits="userSpaceOnUse" x="1" y="1" width="30" height="30">
<path fill-rule="evenodd" clip-rule="evenodd" d="M19.2926 4.46623L23.3667 4.46623L16.2371 9.73124L9.10744 4.46623L13.1815 4.46623V1.58301L19.2926 1.58301V4.46623ZM4.50316 11.8493H27.9698C29.5978 11.8493 30.9032 12.9099 30.9032 14.2327V28.5328C30.9032 29.8556 29.5978 30.9162 27.9698 30.9162H4.50316C2.87516 30.9162 1.56982 29.8556 1.56982 28.5328L1.58449 14.2327C1.58449 12.9099 2.87516 11.8493 4.50316 11.8493ZM5.23649 27.9829H27.2365V22.1162H5.23649V27.9829ZM27.2365 17.7162H5.23649V14.7828H27.2365V17.7162Z" fill="white"/>
</mask>
<g mask="url(#mask0_590_60257)">
<rect x="0.23645" y="0.25" width="32" height="32" fill="#9E9E9E"/>
</g>
</svg>
