<svg width="32" height="32" viewBox="0 0 32 32" fill="none" xmlns="http://www.w3.org/2000/svg">
<path d="M10.876 29.0508L11.3613 25.9684L10.2803 25.9434H5.11865L8.70574 3.19886C8.71642 3.12937 8.75172 3.06603 8.8052 3.02038C8.85868 2.97474 8.92678 2.94983 8.99709 2.9502H17.7004C20.5897 2.9502 22.5837 3.55145 23.6247 4.73818C24.1128 5.29489 24.4236 5.87665 24.5739 6.51687C24.7317 7.18864 24.7344 7.99124 24.5804 8.97012L24.5693 9.04157V9.6688L25.0573 9.9453C25.4299 10.1341 25.7648 10.3894 26.0455 10.6987C26.463 11.1747 26.733 11.7797 26.8472 12.4969C26.965 13.2345 26.926 14.1123 26.733 15.106C26.5104 16.2491 26.1503 17.2447 25.6642 18.0594C25.2352 18.7892 24.6584 19.4213 23.9708 19.9151C23.325 20.3735 22.5577 20.7214 21.6901 20.9441C20.8495 21.1631 19.891 21.2735 18.8398 21.2735H18.1624C17.6781 21.2735 17.2077 21.4479 16.8384 21.7606C16.4696 22.0766 16.225 22.5133 16.1481 22.9928L16.097 23.2702L15.2397 28.7028L15.2007 28.9023C15.1905 28.9654 15.1729 28.997 15.1469 29.0183C15.1217 29.0389 15.0903 29.0503 15.0578 29.0508H10.876Z" fill="#253B80"/>
<path d="M25.5194 9.11401C25.4934 9.2801 25.4637 9.4499 25.4303 9.62433C24.2826 15.5171 20.3559 17.5529 15.3408 17.5529H12.7874C12.1741 17.5529 11.6573 17.9982 11.5617 18.6032L10.2543 26.8945L9.88412 29.2448C9.86937 29.338 9.875 29.4333 9.90063 29.5242C9.92625 29.615 9.97125 29.6992 10.0325 29.771C10.0938 29.8428 10.1699 29.9004 10.2556 29.94C10.3413 29.9795 10.4346 30 10.529 30H15.0578C15.5941 30 16.0497 29.6103 16.1342 29.0815L16.1787 28.8514L17.0314 23.4401L17.0861 23.1432C17.1696 22.6125 17.6261 22.2228 18.1624 22.2228H18.8398C23.2276 22.2228 26.6625 20.4413 27.6665 15.2861C28.0859 13.1326 27.8687 11.3344 26.759 10.0697C26.4073 9.67849 25.9872 9.35463 25.5194 9.11401V9.11401Z" fill="#179BD7"/>
<path d="M24.3187 8.63496C23.9523 8.52894 23.5795 8.4462 23.2025 8.38722C22.4578 8.27276 21.7051 8.21784 20.9516 8.22299H14.13C13.8703 8.22279 13.6192 8.31547 13.422 8.48428C13.2248 8.65309 13.0944 8.88689 13.0546 9.14342L11.6034 18.3348L11.5616 18.6029C11.6069 18.3103 11.7553 18.0436 11.9801 17.8509C12.2049 17.6583 12.4913 17.5524 12.7873 17.5526H15.3408C20.3559 17.5526 24.2826 15.5159 25.4303 9.62405C25.4647 9.44961 25.4934 9.27981 25.5194 9.11373C25.2165 8.95491 24.9009 8.82176 24.5758 8.71568C24.4905 8.6874 24.4048 8.66049 24.3187 8.63496V8.63496Z" fill="#222D65"/>
<path d="M24.3187 8.63496C23.9523 8.52894 23.5795 8.4462 23.2025 8.38722C22.4578 8.27276 21.7051 8.21784 20.9516 8.22299H14.13C13.8703 8.22279 13.6192 8.31547 13.422 8.48428C13.2248 8.65309 13.0944 8.88689 13.0546 9.14342L11.6034 18.3348L11.5616 18.6029C11.6069 18.3103 11.7553 18.0436 11.9801 17.8509C12.2049 17.6583 12.4913 17.5524 12.7873 17.5526H15.3408C20.3559 17.5526 24.2826 15.5159 25.4303 9.62405C25.4647 9.44961 25.4934 9.27981 25.5194 9.11373C25.2165 8.95491 24.9009 8.82176 24.5758 8.71568C24.4905 8.6874 24.4048 8.66049 24.3187 8.63496V8.63496Z" fill="#222D65"/>
<path d="M13.0546 9.14356C13.0941 8.88696 13.2244 8.65305 13.4217 8.48432C13.6191 8.3156 13.8704 8.22325 14.13 8.22406H20.9516C21.7597 8.22406 22.5141 8.27694 23.2026 8.38829C23.6684 8.46151 24.1279 8.57102 24.5767 8.71582C24.9154 8.82809 25.2299 8.96077 25.5203 9.11387C25.8618 6.93619 25.5176 5.45348 24.3401 4.11087C23.042 2.6328 20.6992 2 17.7013 2H8.99801C8.38563 2 7.86325 2.44537 7.7686 3.05126L4.14347 26.0296C4.12659 26.1363 4.13301 26.2454 4.1623 26.3493C4.19159 26.4533 4.24306 26.5497 4.31316 26.6319C4.38325 26.714 4.47032 26.78 4.56836 26.8254C4.66641 26.8707 4.77311 26.8942 4.88112 26.8944H10.2543L11.6034 18.3349L13.0546 9.14356Z" fill="#253B80"/>
<path d="M13.0546 9.14356C13.0941 8.88696 13.2244 8.65305 13.4217 8.48432C13.6191 8.3156 13.8704 8.22325 14.13 8.22406H20.9516C21.7597 8.22406 22.5141 8.27694 23.2026 8.38829C23.6684 8.46151 24.1279 8.57102 24.5767 8.71582C24.9154 8.82809 25.2299 8.96077 25.5203 9.11387C25.8618 6.93619 25.5176 5.45348 24.3401 4.11087C23.042 2.6328 20.6992 2 17.7013 2H8.99801C8.38563 2 7.86325 2.44537 7.7686 3.05126L4.14347 26.0296C4.12659 26.1363 4.13301 26.2454 4.1623 26.3493C4.19159 26.4533 4.24306 26.5497 4.31316 26.6319C4.38325 26.714 4.47032 26.78 4.56836 26.8254C4.66641 26.8707 4.77311 26.8942 4.88112 26.8944H10.2543L11.6034 18.3349L13.0546 9.14356Z" fill="#253B80"/>
<path d="M13.0546 9.14356C13.0941 8.88696 13.2244 8.65305 13.4217 8.48432C13.6191 8.3156 13.8704 8.22325 14.13 8.22406H20.9516C21.7597 8.22406 22.5141 8.27694 23.2026 8.38829C23.6684 8.46151 24.1279 8.57102 24.5767 8.71582C24.9154 8.82809 25.2299 8.96077 25.5203 9.11387C25.8618 6.93619 25.5176 5.45348 24.3401 4.11087C23.042 2.6328 20.6992 2 17.7013 2H8.99801C8.38563 2 7.86325 2.44537 7.7686 3.05126L4.14347 26.0296C4.12659 26.1363 4.13301 26.2454 4.1623 26.3493C4.19159 26.4533 4.24306 26.5497 4.31316 26.6319C4.38325 26.714 4.47032 26.78 4.56836 26.8254C4.66641 26.8707 4.77311 26.8942 4.88112 26.8944H10.2543L11.6034 18.3349L13.0546 9.14356Z" fill="#253B80"/>
</svg>
