<svg width="40" height="40" viewBox="0 0 40 40" fill="none" xmlns="http://www.w3.org/2000/svg">
<path d="M13.046 37.7119L13.7046 33.5287L12.2376 33.4947H5.23242L10.1006 2.62703C10.1151 2.53272 10.163 2.44675 10.2356 2.3848C10.3082 2.32286 10.4006 2.28905 10.496 2.28956H22.3077C26.2289 2.28956 28.935 3.10554 30.3479 4.7161C31.0102 5.47165 31.4321 6.26119 31.6361 7.13006C31.8502 8.04175 31.8539 9.13099 31.6449 10.4595L31.6298 10.5564V11.4077L32.2921 11.7829C32.7978 12.0391 33.2523 12.3857 33.6332 12.8054C34.1999 13.4514 34.5663 14.2724 34.7212 15.2458C34.8811 16.2469 34.8282 17.4382 34.5663 18.7868C34.2641 20.3382 33.7755 21.6893 33.1157 22.795C32.5335 23.7854 31.7507 24.6432 30.8176 25.3134C29.9412 25.9355 28.8998 26.4077 27.7224 26.7099C26.5815 27.0071 25.2807 27.1569 23.854 27.1569H22.9348C22.2774 27.1569 21.639 27.3937 21.1378 27.8181C20.6374 28.2469 20.3054 28.8395 20.201 29.4903L20.1317 29.8668L18.9682 37.2397L18.9153 37.5104C18.9014 37.596 18.8775 37.6388 18.8422 37.6678C18.8081 37.6957 18.7655 37.7113 18.7214 37.7119H13.046Z" fill="#8A8A8A"/>
<path d="M32.9192 10.6547C32.884 10.8801 32.8437 11.1105 32.7984 11.3472C31.2407 19.3447 25.9116 22.1074 19.1054 22.1074H15.64C14.8076 22.1074 14.1063 22.7119 13.9766 23.5329L12.2023 34.7854L11.6999 37.9751C11.6798 38.1016 11.6875 38.2309 11.7223 38.3542C11.757 38.4775 11.8181 38.5918 11.9013 38.6892C11.9845 38.7866 12.0877 38.8649 12.2041 38.9185C12.3204 38.9722 12.4469 39 12.575 39.0001H18.7214C19.4492 39.0001 20.0675 38.4712 20.1821 37.7534L20.2425 37.4411L21.3998 30.0973L21.474 29.6943C21.5874 28.974 22.2069 28.4452 22.9348 28.4452H23.854C29.8089 28.4452 34.4706 26.0274 35.8331 19.0311C36.4023 16.1084 36.1076 13.668 34.6016 11.9517C34.1242 11.4207 33.5542 10.9812 32.9192 10.6547Z" fill="#B4B4B4"/>
<path d="M31.2898 10.0047C30.7925 9.86086 30.2865 9.74857 29.775 9.66852C28.7642 9.51319 27.7427 9.43866 26.7201 9.44564H17.4621C17.1098 9.44537 16.769 9.57115 16.5013 9.80025C16.2337 10.0294 16.0568 10.3467 16.0027 10.6948L14.0332 23.1688L13.9766 23.5327C14.0379 23.1356 14.2394 22.7736 14.5445 22.5121C14.8496 22.2507 15.2382 22.1071 15.64 22.1073H19.1054C25.9116 22.1073 31.2407 19.3432 32.7984 11.3471C32.845 11.1104 32.884 10.8799 32.9193 10.6545C32.5082 10.439 32.0799 10.2583 31.6386 10.1143C31.523 10.0759 31.4067 10.0394 31.2898 10.0047Z" fill="#222D65"/>
<path d="M31.2898 10.0047C30.7925 9.86086 30.2865 9.74857 29.775 9.66852C28.7642 9.51319 27.7427 9.43866 26.7201 9.44564H17.4621C17.1098 9.44537 16.769 9.57115 16.5013 9.80025C16.2337 10.0294 16.0568 10.3467 16.0027 10.6948L14.0332 23.1688L13.9766 23.5327C14.0379 23.1356 14.2394 22.7736 14.5445 22.5121C14.8496 22.2507 15.2382 22.1071 15.64 22.1073H19.1054C25.9116 22.1073 31.2407 19.3432 32.7984 11.3471C32.845 11.1104 32.884 10.8799 32.9193 10.6545C32.5082 10.439 32.0799 10.2583 31.6386 10.1143C31.523 10.0759 31.4067 10.0394 31.2898 10.0047Z" fill="#828283"/>
<path d="M16.0027 10.6949C16.0563 10.3466 16.2331 10.0292 16.5009 9.80018C16.7687 9.5712 17.1098 9.44587 17.4621 9.44696H26.72C27.8168 9.44696 28.8406 9.51874 29.7749 9.66985C30.4072 9.76921 31.0308 9.91784 31.6399 10.1144C32.0995 10.2667 32.5264 10.4468 32.9205 10.6546C33.3839 7.69914 32.9167 5.68688 31.3188 3.86476C29.5571 1.8588 26.3775 1 22.3089 1H10.4973C9.66619 1 8.95724 1.60443 8.8288 2.42672L3.90896 33.6117C3.88605 33.7565 3.89477 33.9045 3.93452 34.0456C3.97427 34.1867 4.04412 34.3175 4.13925 34.4291C4.23438 34.5406 4.35254 34.6302 4.4856 34.6917C4.61866 34.7532 4.76347 34.7851 4.91006 34.7853H12.2023L14.0332 23.1689L16.0027 10.6949Z" fill="#8A8A8A"/>
<path d="M16.0027 10.6949C16.0563 10.3466 16.2331 10.0292 16.5009 9.80018C16.7687 9.5712 17.1098 9.44587 17.4621 9.44696H26.72C27.8168 9.44696 28.8406 9.51874 29.7749 9.66985C30.4072 9.76921 31.0308 9.91784 31.6399 10.1144C32.0995 10.2667 32.5264 10.4468 32.9205 10.6546C33.3839 7.69914 32.9167 5.68688 31.3188 3.86476C29.5571 1.8588 26.3775 1 22.3089 1H10.4973C9.66619 1 8.95724 1.60443 8.8288 2.42672L3.90896 33.6117C3.88605 33.7565 3.89477 33.9045 3.93452 34.0456C3.97427 34.1867 4.04412 34.3175 4.13925 34.4291C4.23438 34.5406 4.35254 34.6302 4.4856 34.6917C4.61866 34.7532 4.76347 34.7851 4.91006 34.7853H12.2023L14.0332 23.1689L16.0027 10.6949Z" fill="#8A8A8A"/>
<path d="M16.0027 10.6949C16.0563 10.3466 16.2331 10.0292 16.5009 9.80018C16.7687 9.5712 17.1098 9.44587 17.4621 9.44696H26.72C27.8168 9.44696 28.8406 9.51874 29.7749 9.66985C30.4072 9.76921 31.0308 9.91784 31.6399 10.1144C32.0995 10.2667 32.5264 10.4468 32.9205 10.6546C33.3839 7.69914 32.9167 5.68688 31.3188 3.86476C29.5571 1.8588 26.3775 1 22.3089 1H10.4973C9.66619 1 8.95724 1.60443 8.8288 2.42672L3.90896 33.6117C3.88605 33.7565 3.89477 33.9045 3.93452 34.0456C3.97427 34.1867 4.04412 34.3175 4.13925 34.4291C4.23438 34.5406 4.35254 34.6302 4.4856 34.6917C4.61866 34.7532 4.76347 34.7851 4.91006 34.7853H12.2023L14.0332 23.1689L16.0027 10.6949Z" fill="#8A8A8A"/>
</svg>
