<svg width="40" height="40" viewBox="0 0 40 40" fill="none" xmlns="http://www.w3.org/2000/svg">
<g clip-path="url(#clip0_585_59646)">
<path fill-rule="evenodd" clip-rule="evenodd" d="M33.3335 6.66699H6.66683C4.81683 6.66699 3.35016 8.15033 3.35016 10.0003L3.3335 30.0003C3.3335 31.8503 4.81683 33.3337 6.66683 33.3337H20.2901C20.1005 32.5311 20.0002 31.6941 20.0002 30.8337C20.0002 30.5533 20.0108 30.2754 20.0317 30.0003H6.66683V20.0003H33.3335V20.2902C34.5341 20.5738 35.6576 21.0572 36.6668 21.7034V10.0003C36.6668 8.15033 35.1835 6.66699 33.3335 6.66699ZM33.3335 13.3337H6.66683V10.0003H33.3335V13.3337Z" fill="#2B2D30"/>
<path fill-rule="evenodd" clip-rule="evenodd" d="M21.6668 30.8337C21.6668 25.7737 25.7735 21.667 30.8335 21.667C35.8935 21.667 40.0002 25.7737 40.0002 30.8337C40.0002 35.8937 35.8935 40.0003 30.8335 40.0003C25.7735 40.0003 21.6668 35.8937 21.6668 30.8337ZM31.7502 31.7503H35.4168V29.917H31.7502V26.2503H29.9168V29.917H26.2502V31.7503H29.9168V35.417H31.7502V31.7503Z" fill="#2B2D30"/>
</g>
<defs>
<clipPath id="clip0_585_59646">
<rect width="40" height="40" fill="white"/>
</clipPath>
</defs>
</svg>
