<svg width="33" height="31" viewBox="0 0 33 31" fill="none" xmlns="http://www.w3.org/2000/svg">
<g clip-path="url(#clip0_590_60254)">
<path fill-rule="evenodd" clip-rule="evenodd" d="M27.5037 5.31055H6.17033C4.69033 5.31055 3.517 6.43649 3.517 7.84076L3.50366 23.022C3.50366 24.4263 4.69033 25.5522 6.17033 25.5522H17.0689C16.9172 24.9431 16.837 24.3077 16.837 23.6546C16.837 23.4417 16.8455 23.2308 16.8623 23.022H6.17033V15.4314H27.5037V15.6514C28.4642 15.8667 29.3629 16.2336 30.1703 16.7241V7.84076C30.1703 6.43649 28.9837 5.31055 27.5037 5.31055ZM27.5037 10.371H6.17033V7.84076H27.5037V10.371Z" fill="#9E9E9E"/>
<path fill-rule="evenodd" clip-rule="evenodd" d="M18.1703 23.6546C18.1703 19.8137 21.4557 16.6965 25.5037 16.6965C29.5517 16.6965 32.837 19.8137 32.837 23.6546C32.837 27.4954 29.5517 30.6126 25.5037 30.6126C21.4557 30.6126 18.1703 27.4954 18.1703 23.6546ZM26.237 24.3504H29.1703V22.9588H26.237V20.1755H24.7703V22.9588H21.837V24.3504H24.7703V27.1336H26.237V24.3504Z" fill="#9E9E9E"/>
</g>
<defs>
<clipPath id="clip0_590_60254">
<rect width="32" height="30.3625" fill="white" transform="translate(0.836914 0.25)"/>
</clipPath>
</defs>
</svg>
