<svg width="23" height="20" viewBox="0 0 23 20" fill="none" xmlns="http://www.w3.org/2000/svg">
<path fill-rule="evenodd" clip-rule="evenodd" d="M18.8369 0.0449219H2.83691C1.72691 0.0449219 0.846914 0.889379 0.846914 1.94258L0.836914 13.3285C0.836914 14.3817 1.72691 15.2262 2.83691 15.2262H11.0108C10.8971 14.7693 10.8369 14.2928 10.8369 13.8029C10.8369 13.6433 10.8433 13.4851 10.8559 13.3285H2.83691V7.63555H18.8369V7.80058C19.5573 7.96204 20.2314 8.23724 20.8369 8.60508V1.94258C20.8369 0.889379 19.9469 0.0449219 18.8369 0.0449219ZM18.8369 3.84024H2.83691V1.94258H18.8369V3.84024Z" fill="#2B2D30"/>
<path fill-rule="evenodd" clip-rule="evenodd" d="M11.8369 13.8029C11.8369 10.9223 14.3009 8.58438 17.3369 8.58438C20.3729 8.58438 22.8369 10.9223 22.8369 13.8029C22.8369 16.6836 20.3729 19.0215 17.3369 19.0215C14.3009 19.0215 11.8369 16.6836 11.8369 13.8029ZM17.8869 14.3248H20.0869V13.2811H17.8869V11.1937H16.7869V13.2811H14.5869V14.3248H16.7869V16.4122H17.8869V14.3248Z" fill="#2B2D30"/>
</svg>
