<svg width="40" height="32" viewBox="0 0 40 32" fill="none" xmlns="http://www.w3.org/2000/svg">
<rect x="2.77386" y="14.5657" width="24.6603" height="14.3051" rx="2.25" transform="rotate(-30.5609 2.77386 14.5657)" fill="white" stroke="#2B2D30" stroke-width="1.5"/>
<rect x="4.98838" y="17.2955" width="23.8377" height="0.780581" transform="rotate(-30.5609 4.98838 17.2955)" fill="#2B2D30" stroke="#2B2D30" stroke-width="0.78058"/>
<rect x="0.0579523" y="-0.225072" width="24.2897" height="0.328682" transform="matrix(0.861089 -0.508454 -0.508454 -0.861089 6.37628 20.2043)" fill="#2B2D30" stroke="#2B2D30" stroke-width="0.328682"/>
<rect x="12.4249" y="16.0159" width="24.4566" height="13.9842" rx="3" fill="white" stroke="white" stroke-width="2"/>
<rect x="12.9304" y="16.3738" width="23.4783" height="13.2684" rx="2.25" fill="white" stroke="#2B2D30" stroke-width="1.5"/>
<rect x="25.0714" y="18.1298" width="7.98869" height="4.04534" fill="#2B2D30"/>
<rect x="15.2782" y="23.8247" width="17.782" height="0.90386" fill="#2B2D30"/>
<rect x="15.2782" y="26.9897" width="8.93087" height="0.90386" fill="#2B2D30"/>
<rect x="31.5812" y="26.9897" width="1.47898" height="0.90386" fill="#2B2D30"/>
<rect x="28.0481" y="26.9897" width="1.47898" height="0.90386" fill="#2B2D30"/>
<path d="M20.3088 19.9072C20.3088 20.6331 19.7204 21.2216 18.9945 21.2216C18.2686 21.2216 17.6802 20.6331 17.6802 19.9072C17.6802 19.1813 18.2686 18.5929 18.9945 18.5929C19.7204 18.5929 20.3088 19.1813 20.3088 19.9072Z" stroke="#2B2D30"/>
<path d="M18.4069 19.9072C18.4069 20.6331 17.8184 21.2216 17.0925 21.2216C16.3666 21.2216 15.7782 20.6331 15.7782 19.9072C15.7782 19.1813 16.3666 18.5929 17.0925 18.5929C17.8184 18.5929 18.4069 19.1813 18.4069 19.9072Z" fill="white" stroke="#2B2D30"/>
</svg>
