<svg width="49" height="40" viewBox="0 0 49 40" fill="none" xmlns="http://www.w3.org/2000/svg">
<rect x="1.35538" y="0.348902" width="27.1385" height="15.8057" rx="2" transform="matrix(0.855773 -0.517352 0.499604 0.866254 4.65325 18.8227)" fill="white" stroke="#9E9E9E" stroke-width="2"/>
<rect x="0.595948" y="0.153409" width="26.5416" height="0.879383" transform="matrix(0.855773 -0.517352 0.499604 0.866254 7.63815 21.6412)" fill="#9E9E9E" stroke="#9E9E9E" stroke-width="0.879383"/>
<rect x="0.065942" y="-0.256164" width="27.0507" height="0.370285" transform="matrix(0.855773 -0.517351 -0.499604 -0.866254 9.75616 24.7622)" fill="#9E9E9E" stroke="#9E9E9E" stroke-width="0.370285"/>
<rect x="16.3455" y="19.8845" width="27.2866" height="16.1154" rx="2" fill="white" stroke="white" stroke-width="2"/>
<rect x="17.1818" y="20.5736" width="25.6501" height="14.7375" rx="2" fill="white" stroke="#9E9E9E" stroke-width="2"/>
<rect x="30.4518" y="22.4138" width="8.84321" height="4.58472" fill="#9E9E9E"/>
<rect x="19.0123" y="28.868" width="20.2827" height="1.02437" fill="#9E9E9E"/>
<rect x="19.0123" y="32.4552" width="10.1868" height="1.02437" fill="#9E9E9E"/>
<rect x="37.6578" y="32.4552" width="1.63718" height="1.02437" fill="#9E9E9E"/>
<rect x="33.7468" y="32.4552" width="1.63718" height="1.02437" fill="#9E9E9E"/>
<path d="M24.1261 24.4281C24.1261 25.2987 23.4398 25.9843 22.6177 25.9843C21.7957 25.9843 21.1093 25.2987 21.1093 24.4281C21.1093 23.5574 21.7957 22.8718 22.6177 22.8718C23.4398 22.8718 24.1261 23.5574 24.1261 24.4281Z" stroke="#9E9E9E"/>
<path d="M22.5291 24.4281C22.5291 25.2987 21.8428 25.9843 21.0207 25.9843C20.1987 25.9843 19.5123 25.2987 19.5123 24.4281C19.5123 23.5574 20.1987 22.8718 21.0207 22.8718C21.8428 22.8718 22.5291 23.5574 22.5291 24.4281Z" fill="white" stroke="#9E9E9E"/>
</svg>
