<svg width="105" height="88" viewBox="0 0 105 88" fill="none" xmlns="http://www.w3.org/2000/svg">
<rect x="1.36447" y="0.351316" width="73.5306" height="43.6525" rx="3" transform="matrix(0.859197 -0.51165 0.505268 0.862966 -1.21976 39.8849)" stroke="#2B2D30" stroke-width="2"/>
<rect x="1.36486" y="0.35142" width="69.0075" height="2.50339" rx="1.2517" transform="matrix(0.859345 -0.511397 0.505517 0.862817 6.57145 48.1114)" fill="#2B2D30" stroke="#2B2D30" stroke-width="2"/>
<rect x="0.167701" y="-0.651325" width="70.052" height="0.947973" rx="0.473987" transform="matrix(0.859372 -0.511351 -0.505563 -0.86279 12.0869 56.1889)" fill="#2B2D30" stroke="#2B2D30" stroke-width="0.947973"/>
<rect x="29.7788" y="42.1406" width="74.1452" height="44.3541" rx="3" fill="white" stroke="white" stroke-width="2"/>
<rect x="31.9536" y="43.9043" width="69.8904" height="40.8283" rx="3" stroke="#2B2D30" stroke-width="2"/>
<rect x="68.0552" y="50.1719" width="22.9924" height="11.7315" rx="4" fill="#2B2D30"/>
<rect x="38.3125" y="66.6875" width="52.735" height="2.62119" rx="1.3106" fill="#2B2D30"/>
<rect x="38.3125" y="75.8652" width="26.4857" height="2.62119" rx="1.3106" fill="#2B2D30"/>
<rect x="86.791" y="75.8652" width="4.25666" height="2.62119" rx="1.3106" fill="#2B2D30"/>
<rect x="76.6221" y="75.8652" width="4.25666" height="2.62119" rx="1.3106" fill="#2B2D30"/>
<path d="M51.9086 55.326C51.9086 57.6868 50.0112 59.5876 47.6867 59.5876C45.3622 59.5876 43.4648 57.6868 43.4648 55.326C43.4648 52.9653 45.3622 51.0645 47.6867 51.0645C50.0112 51.0645 51.9086 52.9653 51.9086 55.326Z" stroke="#2B2D30" stroke-width="2"/>
<path d="M47.7562 55.326C47.7562 57.6868 45.8589 59.5876 43.5344 59.5876C41.2098 59.5876 39.3125 57.6868 39.3125 55.326C39.3125 52.9653 41.2098 51.0645 43.5344 51.0645C45.8589 51.0645 47.7562 52.9653 47.7562 55.326Z" fill="white" stroke="#2B2D30" stroke-width="2"/>
</svg>
