<svg width="18" height="18" viewBox="0 0 18 18" fill="none" xmlns="http://www.w3.org/2000/svg">
<g clip-path="url(#clip0_7375_18485)">
<path d="M4.875 7.5H3.375V12.75H4.875V7.5Z" fill="black"/>
<path d="M7.875 7.5V12.75H9.13045C9.1918 12.4903 9.27394 12.2385 9.375 11.9967V7.5H7.875Z" fill="black"/>
<path d="M1.5 14.25H9.01421C9.05437 14.778 9.17863 15.2824 9.37362 15.75H1.5V14.25Z" fill="black"/>
<path d="M13.875 7.5V9C13.3516 9 12.8475 9.08247 12.375 9.23512V7.5H13.875Z" fill="black"/>
<path fill-rule="evenodd" clip-rule="evenodd" d="M8.625 0.75L1.5 4.5V6H15.75V4.5L8.625 0.75ZM8.625 2.445L12.5325 4.5H4.7175L8.625 2.445Z" fill="black"/>
<path fill-rule="evenodd" clip-rule="evenodd" d="M9.75 13.875C9.75 11.5976 11.5976 9.75 13.875 9.75C16.1524 9.75 18 11.5976 18 13.875C18 16.1524 16.1524 18 13.875 18C11.5976 18 9.75 16.1524 9.75 13.875ZM13.6601 14.5942V17.1816L15.673 13.1558H14.2883V10.5684L12.2217 14.5942H13.6601Z" fill="black"/>
</g>
<defs>
<clipPath id="clip0_7375_18485">
<rect width="18" height="18" fill="white"/>
</clipPath>
</defs>
</svg>
