<svg width="23" height="23" viewBox="0 0 23 23" fill="none" xmlns="http://www.w3.org/2000/svg">
<path d="M4.54004 9H2.54004V16H4.54004V9Z" fill="black"/>
<path d="M8.54004 9V16H10.214C10.2958 15.6537 10.4053 15.3181 10.54 14.9956V9H8.54004Z" fill="black"/>
<path d="M0.0400391 18H10.059C10.1125 18.7039 10.2782 19.3766 10.5382 20H0.0400391V18Z" fill="black"/>
<path d="M16.54 9V11C15.8422 11 15.1701 11.11 14.54 11.3135V9H16.54Z" fill="black"/>
<path fill-rule="evenodd" clip-rule="evenodd" d="M9.54004 0L0.0400391 5V7H19.04V5L9.54004 0ZM9.54004 2.26L14.75 5H4.33004L9.54004 2.26Z" fill="black"/>
<path fill-rule="evenodd" clip-rule="evenodd" d="M11.04 17.5C11.04 14.4634 13.5035 12 16.54 12C19.5766 12 22.04 14.4634 22.04 17.5C22.04 20.5366 19.5766 23 16.54 23C13.5035 23 11.04 20.5366 11.04 17.5ZM16.2535 18.4589V21.9088L18.9373 16.5411H17.0911V13.0912L14.3356 18.4589H16.2535Z" fill="black"/>
</svg>