<svg width="24" height="24" viewBox="0 0 24 24" fill="none" xmlns="http://www.w3.org/2000/svg">
<mask id="mask0" mask-type="alpha" maskUnits="userSpaceOnUse" x="6" y="1" width="12" height="22">
<path d="M13.08 7.7294H6.72C6.47998 7.72939 6.35998 7.60909 6.36 7.3685L6.35998 4.84217C6.35998 4.60155 6.47998 4.48126 6.72 4.48128H10.44V2.07526C10.44 1.95495 10.56 1.71434 10.8 1.71436H13.44C13.68 1.71434 13.8 1.95495 13.8 2.07526V4.48128H17.52C17.76 4.48126 18 4.72187 18 4.96248V7.1279L10.92 16.1505H17.52C17.88 16.1505 18 16.3911 18 16.6317V18.9174C18 19.158 17.76 19.3986 17.4 19.3986H13.8V21.9249C13.8 22.1655 13.68 22.2858 13.44 22.2858H10.8C10.56 22.2858 10.44 22.1655 10.44 21.9249V19.3986H6.48C6.24 19.3986 6 19.158 6 18.9174V16.752L13.08 7.7294Z" fill="white"/>
</mask>
<g mask="url(#mask0)">
<rect width="24" height="24" fill="#0B1941"/>
</g>
</svg>