<svg width="40" height="40" viewBox="0 0 40 40" fill="none" xmlns="http://www.w3.org/2000/svg">
<mask id="mask0_5395_81006" style="mask-type:alpha" maskUnits="userSpaceOnUse" x="10" y="2" width="20" height="36">
<path d="M21.8 12.8825H11.2C10.8 12.8825 10.6 12.682 10.6 12.281L10.6 8.07044C10.6 7.66941 10.8 7.46894 11.2 7.46896H17.4V3.45893C17.4 3.25841 17.6 2.8574 18 2.85742H22.4C22.8 2.8574 23 3.25841 23 3.45893V7.46896H29.2C29.6 7.46894 30 7.86994 30 8.27097V11.88L18.2 26.9176H29.2C29.8 26.9176 30 27.3186 30 27.7196V31.5292C30 31.9301 29.6 32.3311 29 32.3312H23V36.5417C23 36.9427 22.8 37.1432 22.4 37.1432H18C17.6 37.1432 17.4 36.9427 17.4 36.5417V32.3312H10.8C10.4 32.3312 10 31.9301 10 31.5292V27.9201L21.8 12.8825Z" fill="white"/>
</mask>
<g mask="url(#mask0_5395_81006)">
<rect width="40" height="40" fill="#2B2D30"/>
</g>
</svg>
