<svg width="33" height="33" viewBox="0 0 33 33" fill="none" xmlns="http://www.w3.org/2000/svg">
<mask id="mask0_588_121846" style="mask-type:alpha" maskUnits="userSpaceOnUse" x="8" y="2" width="17" height="28">
<path d="M17.8765 10.5562H9.39652C9.0765 10.5562 8.9165 10.3958 8.91652 10.075L8.9165 6.70655C8.9165 6.38573 9.0765 6.22534 9.39652 6.22536H14.3565V3.01734C14.3565 2.85692 14.5165 2.53612 14.8365 2.53613H18.3565C18.6765 2.53612 18.8365 2.85692 18.8365 3.01734V6.22536H23.7965C24.1165 6.22534 24.4365 6.54615 24.4365 6.86697V9.75419L14.9965 21.7843H23.7965C24.2765 21.7843 24.4365 22.1051 24.4365 22.4259V25.4735C24.4365 25.7943 24.1165 26.1151 23.6365 26.1151H18.8365V29.4836C18.8365 29.8043 18.6765 29.9647 18.3565 29.9648H14.8365C14.5165 29.9647 14.3565 29.8043 14.3565 29.4836V26.1151H9.07652C8.75652 26.1151 8.43652 25.7943 8.43652 25.4735V22.5863L17.8765 10.5562Z" fill="white"/>
</mask>
<g mask="url(#mask0_588_121846)">
<rect width="32" height="32" transform="translate(0.436523 0.25)" fill="#9E9E9E"/>
</g>
</svg>
