<svg width="18" height="18" viewBox="0 0 18 18" fill="none" xmlns="http://www.w3.org/2000/svg">
<mask id="mask0_7375_18811" style="mask-type:alpha" maskUnits="userSpaceOnUse" x="4" y="1" width="10" height="16">
<path d="M9.81001 5.79644H5.04C4.85999 5.79643 4.76999 5.70621 4.77 5.52577L4.76999 3.63101C4.76999 3.45055 4.85999 3.36034 5.04 3.36035H7.83V1.55583C7.83 1.4656 7.92001 1.28515 8.10001 1.28516H10.08C10.26 1.28515 10.35 1.4656 10.35 1.55583V3.36035H13.14C13.32 3.36034 13.5 3.54079 13.5 3.72125V5.34531L8.19001 12.1122H13.14C13.41 12.1122 13.5 12.2927 13.5 12.4731V14.1874C13.5 14.3679 13.32 14.5483 13.05 14.5483H10.35V16.4431C10.35 16.6235 10.26 16.7137 10.08 16.7138H8.10001C7.92001 16.7137 7.83 16.6235 7.83 16.4431V14.5483H4.86C4.68 14.5483 4.5 14.3679 4.5 14.1874V12.5634L9.81001 5.79644Z" fill="white"/>
</mask>
<g mask="url(#mask0_7375_18811)">
<rect width="18" height="18" fill="#4C4C4C"/>
</g>
</svg>
